<?xml version="1.0" encoding="UTF-8" standalone="no"?><svg xmlns="http://www.w3.org/2000/svg" xmlns:xlink="http://www.w3.org/1999/xlink" contentStyleType="text/css" height="1031px" preserveAspectRatio="none" style="width:1281px;height:1031px;background:#FFFFFF;" version="1.1" viewBox="0 0 1281 1031" width="1281px" zoomAndPan="magnify"><defs/><g><rect fill="none" height="26.2969" id="_title" style="stroke:none;stroke-width:1.0;" width="327" x="478" y="10"/><text fill="#000000" font-family="sans-serif" font-size="14" font-weight="bold" lengthAdjust="spacing" textLength="317" x="483" y="27.9951">SOP-2002-01 Control of Quality Records</text><rect fill="none" height="290.0703" style="stroke:#000000;stroke-width:1.5;" width="888" x="386" y="615.3828"/><rect fill="none" height="149.6016" style="stroke:#000000;stroke-width:1.5;" width="857.5" x="406.5" y="683.7813"/><line style="stroke:#181818;stroke-width:0.5;stroke-dasharray:5.0,5.0;" x1="101" x2="101" y1="73.5938" y2="995.8516"/><line style="stroke:#181818;stroke-width:0.5;stroke-dasharray:5.0,5.0;" x1="288" x2="288" y1="73.5938" y2="995.8516"/><line style="stroke:#181818;stroke-width:0.5;stroke-dasharray:5.0,5.0;" x1="485.5" x2="485.5" y1="73.5938" y2="995.8516"/><line style="stroke:#181818;stroke-width:0.5;stroke-dasharray:5.0,5.0;" x1="706.5" x2="706.5" y1="73.5938" y2="995.8516"/><line style="stroke:#181818;stroke-width:0.5;stroke-dasharray:5.0,5.0;" x1="851.5" x2="851.5" y1="73.5938" y2="995.8516"/><line style="stroke:#181818;stroke-width:0.5;stroke-dasharray:5.0,5.0;" x1="974.5" x2="974.5" y1="73.5938" y2="995.8516"/><line style="stroke:#181818;stroke-width:0.5;stroke-dasharray:5.0,5.0;" x1="1177.5" x2="1177.5" y1="73.5938" y2="995.8516"/><rect fill="#E2E2F0" height="30.2969" rx="2.5" ry="2.5" style="stroke:#181818;stroke-width:0.5;" width="193" x="5" y="42.2969"/><text fill="#000000" font-family="sans-serif" font-size="14" lengthAdjust="spacing" textLength="179" x="12" y="62.292">Chief Quality Officer (CQO)</text><rect fill="#E2E2F0" height="30.2969" rx="2.5" ry="2.5" style="stroke:#181818;stroke-width:0.5;" width="193" x="5" y="994.8516"/><text fill="#000000" font-family="sans-serif" font-size="14" lengthAdjust="spacing" textLength="179" x="12" y="1014.8467">Chief Quality Officer (CQO)</text><rect fill="#E2E2F0" height="30.2969" rx="2.5" ry="2.5" style="stroke:#181818;stroke-width:0.5;" width="161" x="208" y="42.2969"/><text fill="#000000" font-family="sans-serif" font-size="14" lengthAdjust="spacing" textLength="147" x="215" y="62.292">Department Manager</text><rect fill="#E2E2F0" height="30.2969" rx="2.5" ry="2.5" style="stroke:#181818;stroke-width:0.5;" width="161" x="208" y="994.8516"/><text fill="#000000" font-family="sans-serif" font-size="14" lengthAdjust="spacing" textLength="147" x="215" y="1014.8467">Department Manager</text><rect fill="#E2E2F0" height="30.2969" rx="2.5" ry="2.5" style="stroke:#181818;stroke-width:0.5;" width="138" x="416.5" y="42.2969"/><text fill="#000000" font-family="sans-serif" font-size="14" lengthAdjust="spacing" textLength="124" x="423.5" y="62.292">Record Custodian</text><rect fill="#E2E2F0" height="30.2969" rx="2.5" ry="2.5" style="stroke:#181818;stroke-width:0.5;" width="138" x="416.5" y="994.8516"/><text fill="#000000" font-family="sans-serif" font-size="14" lengthAdjust="spacing" textLength="124" x="423.5" y="1014.8467">Record Custodian</text><rect fill="#E2E2F0" height="30.2969" rx="2.5" ry="2.5" style="stroke:#181818;stroke-width:0.5;" width="166" x="623.5" y="42.2969"/><text fill="#000000" font-family="sans-serif" font-size="14" lengthAdjust="spacing" textLength="152" x="630.5" y="62.292">Project Team Member</text><rect fill="#E2E2F0" height="30.2969" rx="2.5" ry="2.5" style="stroke:#181818;stroke-width:0.5;" width="166" x="623.5" y="994.8516"/><text fill="#000000" font-family="sans-serif" font-size="14" lengthAdjust="spacing" textLength="152" x="630.5" y="1014.8467">Project Team Member</text><rect fill="#E2E2F0" height="30.2969" rx="2.5" ry="2.5" style="stroke:#181818;stroke-width:0.5;" width="105" x="799.5" y="42.2969"/><text fill="#000000" font-family="sans-serif" font-size="14" lengthAdjust="spacing" textLength="91" x="806.5" y="62.292">AI-IRB Liaison</text><rect fill="#E2E2F0" height="30.2969" rx="2.5" ry="2.5" style="stroke:#181818;stroke-width:0.5;" width="105" x="799.5" y="994.8516"/><text fill="#000000" font-family="sans-serif" font-size="14" lengthAdjust="spacing" textLength="91" x="806.5" y="1014.8467">AI-IRB Liaison</text><rect fill="#E2E2F0" height="30.2969" rx="2.5" ry="2.5" style="stroke:#181818;stroke-width:0.5;" width="121" x="914.5" y="42.2969"/><text fill="#000000" font-family="sans-serif" font-size="14" lengthAdjust="spacing" textLength="107" x="921.5" y="62.292">QA Department</text><rect fill="#E2E2F0" height="30.2969" rx="2.5" ry="2.5" style="stroke:#181818;stroke-width:0.5;" width="121" x="914.5" y="994.8516"/><text fill="#000000" font-family="sans-serif" font-size="14" lengthAdjust="spacing" textLength="107" x="921.5" y="1014.8467">QA Department</text><rect fill="#E2E2F0" height="30.2969" rx="2.5" ry="2.5" style="stroke:#181818;stroke-width:0.5;" width="29" x="1163.5" y="42.2969"/><text fill="#000000" font-family="sans-serif" font-size="14" lengthAdjust="spacing" textLength="15" x="1170.5" y="62.292">All</text><rect fill="#E2E2F0" height="30.2969" rx="2.5" ry="2.5" style="stroke:#181818;stroke-width:0.5;" width="29" x="1163.5" y="994.8516"/><text fill="#000000" font-family="sans-serif" font-size="14" lengthAdjust="spacing" textLength="15" x="1170.5" y="1014.8467">All</text><polygon fill="#181818" points="299.5,100.7266,289.5,104.7266,299.5,108.7266,295.5,104.7266" style="stroke:#181818;stroke-width:1.0;"/><line style="stroke:#181818;stroke-width:1.0;" x1="293.5" x2="705.5" y1="104.7266" y2="104.7266"/><text fill="#000000" font-family="sans-serif" font-size="13" lengthAdjust="spacing" textLength="356" x="305.5" y="99.6606">Inform manager about a newly generated quality record</text><polygon fill="#181818" points="694.5,144.9922,704.5,148.9922,694.5,152.9922,698.5,148.9922" style="stroke:#181818;stroke-width:1.0;"/><line style="stroke:#181818;stroke-width:1.0;" x1="288.5" x2="700.5" y1="148.9922" y2="148.9922"/><text fill="#000000" font-family="sans-serif" font-size="13" lengthAdjust="spacing" textLength="188" x="295.5" y="128.7935">Provide guidelines on labeling</text><text fill="#000000" font-family="sans-serif" font-size="13" lengthAdjust="spacing" textLength="271" x="295.5" y="143.9263">and indexing (templates, naming scheme)</text><polygon fill="#181818" points="496.5,189.2578,486.5,193.2578,496.5,197.2578,492.5,193.2578" style="stroke:#181818;stroke-width:1.0;"/><line style="stroke:#181818;stroke-width:1.0;" x1="490.5" x2="705.5" y1="193.2578" y2="193.2578"/><text fill="#000000" font-family="sans-serif" font-size="13" lengthAdjust="spacing" textLength="183" x="502.5" y="173.0591">Submit newly created record</text><text fill="#000000" font-family="sans-serif" font-size="13" lengthAdjust="spacing" textLength="118" x="502.5" y="188.1919">for official indexing</text><line style="stroke:#181818;stroke-width:1.0;" x1="485.5" x2="527.5" y1="237.5234" y2="237.5234"/><line style="stroke:#181818;stroke-width:1.0;" x1="527.5" x2="527.5" y1="237.5234" y2="250.5234"/><line style="stroke:#181818;stroke-width:1.0;" x1="486.5" x2="527.5" y1="250.5234" y2="250.5234"/><polygon fill="#181818" points="496.5,246.5234,486.5,250.5234,496.5,254.5234,492.5,250.5234" style="stroke:#181818;stroke-width:1.0;"/><text fill="#000000" font-family="sans-serif" font-size="13" lengthAdjust="spacing" textLength="106" x="492.5" y="217.3247">Assign unique ID</text><text fill="#000000" font-family="sans-serif" font-size="13" lengthAdjust="spacing" textLength="206" x="492.5" y="232.4575">&amp; store in designated repository</text><polygon fill="#181818" points="963,275.6563,973,279.6563,963,283.6563,967,279.6563" style="stroke:#181818;stroke-width:1.0;"/><line style="stroke:#181818;stroke-width:1.0;" x1="485.5" x2="969" y1="279.6563" y2="279.6563"/><text fill="#000000" font-family="sans-serif" font-size="13" lengthAdjust="spacing" textLength="273" x="492.5" y="274.5903">Notify QA of new record addition to system</text><polygon fill="#181818" points="496.5,319.9219,486.5,323.9219,496.5,327.9219,492.5,323.9219" style="stroke:#181818;stroke-width:1.0;"/><line style="stroke:#181818;stroke-width:1.0;" x1="490.5" x2="974" y1="323.9219" y2="323.9219"/><text fill="#000000" font-family="sans-serif" font-size="13" lengthAdjust="spacing" textLength="185" x="502.5" y="303.7231">Request sample for quarterly</text><text fill="#000000" font-family="sans-serif" font-size="13" lengthAdjust="spacing" textLength="154" x="502.5" y="318.856">record compliance audit</text><polygon fill="#181818" points="963,349.0547,973,353.0547,963,357.0547,967,353.0547" style="stroke:#181818;stroke-width:1.0;"/><line style="stroke:#181818;stroke-width:1.0;" x1="485.5" x2="969" y1="353.0547" y2="353.0547"/><text fill="#000000" font-family="sans-serif" font-size="13" lengthAdjust="spacing" textLength="168" x="492.5" y="347.9888">Provide requested records</text><line style="stroke:#181818;stroke-width:1.0;" x1="975" x2="1017" y1="397.3203" y2="397.3203"/><line style="stroke:#181818;stroke-width:1.0;" x1="1017" x2="1017" y1="397.3203" y2="410.3203"/><line style="stroke:#181818;stroke-width:1.0;" x1="976" x2="1017" y1="410.3203" y2="410.3203"/><polygon fill="#181818" points="986,406.3203,976,410.3203,986,414.3203,982,410.3203" style="stroke:#181818;stroke-width:1.0;"/><text fill="#000000" font-family="sans-serif" font-size="13" lengthAdjust="spacing" textLength="169" x="982" y="377.1216">Perform compliance check</text><text fill="#000000" font-family="sans-serif" font-size="13" lengthAdjust="spacing" textLength="189" x="982" y="392.2544">(labeling, completeness, etc.)</text><polygon fill="#181818" points="112.5,450.5859,102.5,454.5859,112.5,458.5859,108.5,454.5859" style="stroke:#181818;stroke-width:1.0;"/><line style="stroke:#181818;stroke-width:1.0;" x1="106.5" x2="974" y1="454.5859" y2="454.5859"/><text fill="#000000" font-family="sans-serif" font-size="13" lengthAdjust="spacing" textLength="152" x="118.5" y="434.3872">Submit audit findings or</text><text fill="#000000" font-family="sans-serif" font-size="13" lengthAdjust="spacing" textLength="180" x="118.5" y="449.52">recommend CAPA if needed</text><polygon fill="#181818" points="473.5,494.8516,483.5,498.8516,473.5,502.8516,477.5,498.8516" style="stroke:#181818;stroke-width:1.0;"/><line style="stroke:#181818;stroke-width:1.0;" x1="288.5" x2="479.5" y1="498.8516" y2="498.8516"/><text fill="#000000" font-family="sans-serif" font-size="13" lengthAdjust="spacing" textLength="173" x="295.5" y="478.6528">Confirm retention schedule</text><text fill="#000000" font-family="sans-serif" font-size="13" lengthAdjust="spacing" textLength="94" x="295.5" y="493.7856">for record type</text><line style="stroke:#181818;stroke-width:1.0;" x1="485.5" x2="527.5" y1="543.1172" y2="543.1172"/><line style="stroke:#181818;stroke-width:1.0;" x1="527.5" x2="527.5" y1="543.1172" y2="556.1172"/><line style="stroke:#181818;stroke-width:1.0;" x1="486.5" x2="527.5" y1="556.1172" y2="556.1172"/><polygon fill="#181818" points="496.5,552.1172,486.5,556.1172,496.5,560.1172,492.5,556.1172" style="stroke:#181818;stroke-width:1.0;"/><text fill="#000000" font-family="sans-serif" font-size="13" lengthAdjust="spacing" textLength="207" x="492.5" y="522.9185">Archive record in secure storage</text><text fill="#000000" font-family="sans-serif" font-size="13" lengthAdjust="spacing" textLength="203" x="492.5" y="538.0513">(physical/electronic) as required</text><polygon fill="#181818" points="840,596.3828,850,600.3828,840,604.3828,844,600.3828" style="stroke:#181818;stroke-width:1.0;"/><line style="stroke:#181818;stroke-width:1.0;" x1="485.5" x2="846" y1="600.3828" y2="600.3828"/><text fill="#000000" font-family="sans-serif" font-size="13" lengthAdjust="spacing" textLength="222" x="492.5" y="580.1841">Request any AI-specific restrictions</text><text fill="#000000" font-family="sans-serif" font-size="13" lengthAdjust="spacing" textLength="154" x="492.5" y="595.3169">on archiving (if relevant)</text><path d="M386,615.3828 L450,615.3828 L450,622.5156 L440,632.5156 L386,632.5156 L386,615.3828 " fill="#EEEEEE" style="stroke:#000000;stroke-width:1.5;"/><rect fill="none" height="290.0703" style="stroke:#000000;stroke-width:1.5;" width="888" x="386" y="615.3828"/><text fill="#000000" font-family="sans-serif" font-size="13" font-weight="bold" lengthAdjust="spacing" textLength="19" x="401" y="628.4497">alt</text><text fill="#000000" font-family="sans-serif" font-size="11" font-weight="bold" lengthAdjust="spacing" textLength="240" x="465" y="627.5933">[Record disposal reached end-of-life]</text><polygon fill="#181818" points="840,664.7813,850,668.7813,840,672.7813,844,668.7813" style="stroke:#181818;stroke-width:1.0;"/><line style="stroke:#181818;stroke-width:1.0;" x1="485.5" x2="846" y1="668.7813" y2="668.7813"/><text fill="#000000" font-family="sans-serif" font-size="13" lengthAdjust="spacing" textLength="176" x="492.5" y="648.5825">Seek disposal authorization</text><text fill="#000000" font-family="sans-serif" font-size="13" lengthAdjust="spacing" textLength="192" x="492.5" y="663.7153">(especially for AI-related data)</text><path d="M406.5,683.7813 L470.5,683.7813 L470.5,690.9141 L460.5,700.9141 L406.5,700.9141 L406.5,683.7813 " fill="#EEEEEE" style="stroke:#000000;stroke-width:1.5;"/><rect fill="none" height="149.6016" style="stroke:#000000;stroke-width:1.5;" width="857.5" x="406.5" y="683.7813"/><text fill="#000000" font-family="sans-serif" font-size="13" font-weight="bold" lengthAdjust="spacing" textLength="19" x="421.5" y="696.8481">alt</text><text fill="#000000" font-family="sans-serif" font-size="11" font-weight="bold" lengthAdjust="spacing" textLength="129" x="485.5" y="695.9917">[Disposal approved]</text><polygon fill="#181818" points="496.5,718.0469,486.5,722.0469,496.5,726.0469,492.5,722.0469" style="stroke:#181818;stroke-width:1.0;"/><line style="stroke:#181818;stroke-width:1.0;" x1="490.5" x2="851" y1="722.0469" y2="722.0469"/><text fill="#000000" font-family="sans-serif" font-size="13" lengthAdjust="spacing" textLength="174" x="502.5" y="716.981">Approve record destruction</text><polygon fill="#181818" points="963,762.3125,973,766.3125,963,770.3125,967,766.3125" style="stroke:#181818;stroke-width:1.0;"/><line style="stroke:#181818;stroke-width:1.0;" x1="485.5" x2="969" y1="766.3125" y2="766.3125"/><text fill="#000000" font-family="sans-serif" font-size="13" lengthAdjust="spacing" textLength="138" x="492.5" y="746.1138">Document disposal in</text><text fill="#000000" font-family="sans-serif" font-size="13" lengthAdjust="spacing" textLength="81" x="492.5" y="761.2466">Disposal Log</text><path d="M980,739.6133 L980,764.6133 L1249,764.6133 L1249,749.6133 L1239,739.6133 L980,739.6133 " fill="#FEFFDD" style="stroke:#181818;stroke-width:0.5;"/><path d="M1239,739.6133 L1239,749.6133 L1249,749.6133 L1239,739.6133 " fill="#FEFFDD" style="stroke:#181818;stroke-width:0.5;"/><text fill="#000000" font-family="sans-serif" font-size="13" lengthAdjust="spacing" textLength="248" x="986" y="756.6802">Record is securely deleted or shredded</text><line style="stroke:#000000;stroke-width:1.0;stroke-dasharray:2.0,2.0;" x1="406.5" x2="1264" y1="775.3125" y2="775.3125"/><text fill="#000000" font-family="sans-serif" font-size="11" font-weight="bold" lengthAdjust="spacing" textLength="154" x="411.5" y="785.5229">[Disposal not approved]</text><polygon fill="#181818" points="496.5,821.3828,486.5,825.3828,496.5,829.3828,492.5,825.3828" style="stroke:#181818;stroke-width:1.0;"/><line style="stroke:#181818;stroke-width:1.0;" x1="490.5" x2="851" y1="825.3828" y2="825.3828"/><text fill="#000000" font-family="sans-serif" font-size="13" lengthAdjust="spacing" textLength="108" x="502.5" y="805.1841">Records must be</text><text fill="#000000" font-family="sans-serif" font-size="13" lengthAdjust="spacing" textLength="97" x="502.5" y="820.3169">retained longer</text><path d="M857,798.6836 L857,823.6836 L1003,823.6836 L1003,808.6836 L993,798.6836 L857,798.6836 " fill="#FEFFDD" style="stroke:#181818;stroke-width:0.5;"/><path d="M993,798.6836 L993,808.6836 L1003,808.6836 L993,798.6836 " fill="#FEFFDD" style="stroke:#181818;stroke-width:0.5;"/><text fill="#000000" font-family="sans-serif" font-size="13" lengthAdjust="spacing" textLength="125" x="863" y="815.7505">Retention extended</text><line style="stroke:#000000;stroke-width:1.0;stroke-dasharray:2.0,2.0;" x1="386" x2="1274" y1="841.3828" y2="841.3828"/><text fill="#000000" font-family="sans-serif" font-size="11" font-weight="bold" lengthAdjust="spacing" textLength="104" x="391" y="851.5933">[Not end-of-life]</text><path d="M396,860.1875 L396,900.1875 L575,900.1875 L575,870.1875 L565,860.1875 L396,860.1875 " fill="#FEFFDD" style="stroke:#181818;stroke-width:0.5;"/><path d="M565,860.1875 L565,870.1875 L575,870.1875 L565,860.1875 " fill="#FEFFDD" style="stroke:#181818;stroke-width:0.5;"/><text fill="#000000" font-family="sans-serif" font-size="13" lengthAdjust="spacing" textLength="126" x="402" y="877.2544">No disposal needed</text><text fill="#000000" font-family="sans-serif" font-size="13" lengthAdjust="spacing" textLength="158" x="402" y="892.3872">Record remains archived</text><polygon fill="#181818" points="299.5,944.7188,289.5,948.7188,299.5,952.7188,295.5,948.7188" style="stroke:#181818;stroke-width:1.0;"/><line style="stroke:#181818;stroke-width:1.0;" x1="293.5" x2="974" y1="948.7188" y2="948.7188"/><text fill="#000000" font-family="sans-serif" font-size="13" lengthAdjust="spacing" textLength="219" x="305.5" y="928.52">Provide final compliance summary</text><text fill="#000000" font-family="sans-serif" font-size="13" lengthAdjust="spacing" textLength="187" x="305.5" y="943.6528">for improvements or updates</text><polygon fill="#181818" points="1166,973.8516,1176,977.8516,1166,981.8516,1170,977.8516" style="stroke:#181818;stroke-width:1.0;"/><line style="stroke:#181818;stroke-width:1.0;" x1="101.5" x2="1172" y1="977.8516" y2="977.8516"/><text fill="#000000" font-family="sans-serif" font-size="13" lengthAdjust="spacing" textLength="412" x="108.5" y="972.7856">Issue any revised SOP or training if process improvements found</text><!--MD5=[8e68f06dfcbf53fc88e075a5399cd7c9]
@startuml
title SOP-2002-01 Control of Quality Records

' Declare participants
participant "Chief Quality Officer (CQO)" as CQO
participant "Department Manager" as DeptM
participant "Record Custodian" as RC
participant "Project Team Member" as PTM
participant "AI-IRB Liaison" as AIIRBL
participant "QA Department" as QA

' 1. Record Creation
PTM -> DeptM: Inform manager about a newly generated quality record
DeptM -> PTM: Provide guidelines on labeling\nand indexing (templates, naming scheme)
PTM -> RC: Submit newly created record\nfor official indexing

' 2. Record Labeling & Indexing
RC -> RC: Assign unique ID\n& store in designated repository
RC -> QA: Notify QA of new record addition to system

' 3. Record Review & Audit
QA -> RC: Request sample for quarterly\nrecord compliance audit
RC -> QA: Provide requested records
QA -> QA: Perform compliance check\n(labeling, completeness, etc.)
QA -> CQO: Submit audit findings or\nrecommend CAPA if needed

' 4. Retention & Archiving
DeptM -> RC: Confirm retention schedule\nfor record type
RC -> RC: Archive record in secure storage\n(physical/electronic) as required
RC -> AIIRBL: Request any AI-specific restrictions\non archiving (if relevant)

' 5. Disposal Authorization
alt Record disposal reached end-of-life
    RC -> AIIRBL: Seek disposal authorization\n(especially for AI-related data)
    alt Disposal approved
        AIIRBL -> RC: Approve record destruction
        RC -> QA: Document disposal in\nDisposal Log
        note right: Record is securely deleted or shredded
    else Disposal not approved
        AIIRBL -> RC: Records must be\nretained longer
        note right: Retention extended
    end
else Not end-of-life
    note over RC: No disposal needed\nRecord remains archived
end

' 6. Post-Implementation or Release
QA -> DeptM: Provide final compliance summary\nfor improvements or updates
CQO -> All: Issue any revised SOP or training if process improvements found
@enduml

@startuml
title SOP-2002-01 Control of Quality Records

participant "Chief Quality Officer (CQO)" as CQO
participant "Department Manager" as DeptM
participant "Record Custodian" as RC
participant "Project Team Member" as PTM
participant "AI-IRB Liaison" as AIIRBL
participant "QA Department" as QA

PTM -> DeptM: Inform manager about a newly generated quality record
DeptM -> PTM: Provide guidelines on labeling\nand indexing (templates, naming scheme)
PTM -> RC: Submit newly created record\nfor official indexing

RC -> RC: Assign unique ID\n& store in designated repository
RC -> QA: Notify QA of new record addition to system

QA -> RC: Request sample for quarterly\nrecord compliance audit
RC -> QA: Provide requested records
QA -> QA: Perform compliance check\n(labeling, completeness, etc.)
QA -> CQO: Submit audit findings or\nrecommend CAPA if needed

DeptM -> RC: Confirm retention schedule\nfor record type
RC -> RC: Archive record in secure storage\n(physical/electronic) as required
RC -> AIIRBL: Request any AI-specific restrictions\non archiving (if relevant)

alt Record disposal reached end-of-life
    RC -> AIIRBL: Seek disposal authorization\n(especially for AI-related data)
    alt Disposal approved
        AIIRBL -> RC: Approve record destruction
        RC -> QA: Document disposal in\nDisposal Log
        note right: Record is securely deleted or shredded
    else Disposal not approved
        AIIRBL -> RC: Records must be\nretained longer
        note right: Retention extended
    end
else Not end-of-life
    note over RC: No disposal needed\nRecord remains archived
end

QA -> DeptM: Provide final compliance summary\nfor improvements or updates
CQO -> All: Issue any revised SOP or training if process improvements found
@enduml

PlantUML version 1.2022.7(Mon Aug 22 17:01:30 UTC 2022)
(GPL source distribution)
Java Runtime: OpenJDK Runtime Environment
JVM: OpenJDK 64-Bit Server VM
Default Encoding: UTF-8
Language: en
Country: null
--></g></svg>