<?xml version="1.0" encoding="UTF-8" standalone="no"?><svg xmlns="http://www.w3.org/2000/svg" xmlns:xlink="http://www.w3.org/1999/xlink" contentStyleType="text/css" height="1311px" preserveAspectRatio="none" style="width:2025px;height:1311px;background:#FFFFFF;" version="1.1" viewBox="0 0 2025 1311" width="2025px" zoomAndPan="magnify"><defs/><g><rect fill="none" height="96.2031" style="stroke:#000000;stroke-width:1.5;" width="2008.5" x="10" y="183.9609"/><rect fill="none" height="247.5391" style="stroke:#000000;stroke-width:1.5;" width="1716" x="10" y="423.6953"/><rect fill="none" height="46.2656" style="stroke:#000000;stroke-width:1.5;" width="1328" x="690.5" y="685.2344"/><rect fill="none" height="196.6016" style="stroke:#000000;stroke-width:1.5;" width="1322" x="639" y="745.5"/><line style="stroke:#181818;stroke-width:0.5;stroke-dasharray:5.0,5.0;" x1="97" x2="97" y1="36.2969" y2="1276.4297"/><line style="stroke:#181818;stroke-width:0.5;stroke-dasharray:5.0,5.0;" x1="383.5" x2="383.5" y1="36.2969" y2="1276.4297"/><line style="stroke:#181818;stroke-width:0.5;stroke-dasharray:5.0,5.0;" x1="766.5" x2="766.5" y1="36.2969" y2="1276.4297"/><line style="stroke:#181818;stroke-width:0.5;stroke-dasharray:5.0,5.0;" x1="1057" x2="1057" y1="36.2969" y2="1276.4297"/><line style="stroke:#181818;stroke-width:0.5;stroke-dasharray:5.0,5.0;" x1="1195" x2="1195" y1="36.2969" y2="1276.4297"/><line style="stroke:#181818;stroke-width:0.5;stroke-dasharray:5.0,5.0;" x1="1451.5" x2="1451.5" y1="36.2969" y2="1276.4297"/><line style="stroke:#181818;stroke-width:0.5;stroke-dasharray:5.0,5.0;" x1="1720.5" x2="1720.5" y1="36.2969" y2="1276.4297"/><line style="stroke:#181818;stroke-width:0.5;stroke-dasharray:5.0,5.0;" x1="1955.5" x2="1955.5" y1="36.2969" y2="1276.4297"/><rect fill="#E2E2F0" height="30.2969" rx="2.5" ry="2.5" style="stroke:#181818;stroke-width:0.5;" width="154" x="20" y="5"/><text fill="#000000" font-family="sans-serif" font-size="14" lengthAdjust="spacing" textLength="140" x="27" y="24.9951">Site Monitoring Lead</text><rect fill="#E2E2F0" height="30.2969" rx="2.5" ry="2.5" style="stroke:#181818;stroke-width:0.5;" width="154" x="20" y="1275.4297"/><text fill="#000000" font-family="sans-serif" font-size="14" lengthAdjust="spacing" textLength="140" x="27" y="1295.4248">Site Monitoring Lead</text><rect fill="#E2E2F0" height="30.2969" rx="2.5" ry="2.5" style="stroke:#181818;stroke-width:0.5;" width="139" x="314.5" y="5"/><text fill="#000000" font-family="sans-serif" font-size="14" lengthAdjust="spacing" textLength="125" x="321.5" y="24.9951">Technical Support</text><rect fill="#E2E2F0" height="30.2969" rx="2.5" ry="2.5" style="stroke:#181818;stroke-width:0.5;" width="139" x="314.5" y="1275.4297"/><text fill="#000000" font-family="sans-serif" font-size="14" lengthAdjust="spacing" textLength="125" x="321.5" y="1295.4248">Technical Support</text><rect fill="#E2E2F0" height="30.2969" rx="2.5" ry="2.5" style="stroke:#181818;stroke-width:0.5;" width="133" x="700.5" y="5"/><text fill="#000000" font-family="sans-serif" font-size="14" lengthAdjust="spacing" textLength="119" x="707.5" y="24.9951">Incident Manager</text><rect fill="#E2E2F0" height="30.2969" rx="2.5" ry="2.5" style="stroke:#181818;stroke-width:0.5;" width="133" x="700.5" y="1275.4297"/><text fill="#000000" font-family="sans-serif" font-size="14" lengthAdjust="spacing" textLength="119" x="707.5" y="1295.4248">Incident Manager</text><rect fill="#E2E2F0" height="30.2969" rx="2.5" ry="2.5" style="stroke:#181818;stroke-width:0.5;" width="156" x="979" y="5"/><text fill="#000000" font-family="sans-serif" font-size="14" lengthAdjust="spacing" textLength="142" x="986" y="24.9951">Operations Engineer</text><rect fill="#E2E2F0" height="30.2969" rx="2.5" ry="2.5" style="stroke:#181818;stroke-width:0.5;" width="156" x="979" y="1275.4297"/><text fill="#000000" font-family="sans-serif" font-size="14" lengthAdjust="spacing" textLength="142" x="986" y="1295.4248">Operations Engineer</text><rect fill="#E2E2F0" height="30.2969" rx="2.5" ry="2.5" style="stroke:#181818;stroke-width:0.5;" width="100" x="1145" y="5"/><text fill="#000000" font-family="sans-serif" font-size="14" lengthAdjust="spacing" textLength="86" x="1152" y="24.9951">AI Dev Team</text><rect fill="#E2E2F0" height="30.2969" rx="2.5" ry="2.5" style="stroke:#181818;stroke-width:0.5;" width="100" x="1145" y="1275.4297"/><text fill="#000000" font-family="sans-serif" font-size="14" lengthAdjust="spacing" textLength="86" x="1152" y="1295.4248">AI Dev Team</text><rect fill="#E2E2F0" height="30.2969" rx="2.5" ry="2.5" style="stroke:#181818;stroke-width:0.5;" width="155" x="1374.5" y="5"/><text fill="#000000" font-family="sans-serif" font-size="14" lengthAdjust="spacing" textLength="141" x="1381.5" y="24.9951">Security/Compliance</text><rect fill="#E2E2F0" height="30.2969" rx="2.5" ry="2.5" style="stroke:#181818;stroke-width:0.5;" width="155" x="1374.5" y="1275.4297"/><text fill="#000000" font-family="sans-serif" font-size="14" lengthAdjust="spacing" textLength="141" x="1381.5" y="1295.4248">Security/Compliance</text><rect fill="#E2E2F0" height="30.2969" rx="2.5" ry="2.5" style="stroke:#181818;stroke-width:0.5;" width="137" x="1652.5" y="5"/><text fill="#000000" font-family="sans-serif" font-size="14" lengthAdjust="spacing" textLength="123" x="1659.5" y="24.9951">Quality Assurance</text><rect fill="#E2E2F0" height="30.2969" rx="2.5" ry="2.5" style="stroke:#181818;stroke-width:0.5;" width="137" x="1652.5" y="1275.4297"/><text fill="#000000" font-family="sans-serif" font-size="14" lengthAdjust="spacing" textLength="123" x="1659.5" y="1295.4248">Quality Assurance</text><rect fill="#E2E2F0" height="30.2969" rx="2.5" ry="2.5" style="stroke:#181818;stroke-width:0.5;" width="105" x="1903.5" y="5"/><text fill="#000000" font-family="sans-serif" font-size="14" lengthAdjust="spacing" textLength="91" x="1910.5" y="24.9951">AI-IRB Liaison</text><rect fill="#E2E2F0" height="30.2969" rx="2.5" ry="2.5" style="stroke:#181818;stroke-width:0.5;" width="105" x="1903.5" y="1275.4297"/><text fill="#000000" font-family="sans-serif" font-size="14" lengthAdjust="spacing" textLength="91" x="1910.5" y="1295.4248">AI-IRB Liaison</text><line style="stroke:#181818;stroke-width:1.0;" x1="97" x2="139" y1="82.5625" y2="82.5625"/><line style="stroke:#181818;stroke-width:1.0;" x1="139" x2="139" y1="82.5625" y2="95.5625"/><line style="stroke:#181818;stroke-width:1.0;" x1="98" x2="139" y1="95.5625" y2="95.5625"/><polygon fill="#181818" points="108,91.5625,98,95.5625,108,99.5625,104,95.5625" style="stroke:#181818;stroke-width:1.0;"/><text fill="#000000" font-family="sans-serif" font-size="13" lengthAdjust="spacing" textLength="180" x="104" y="62.3638">Configure dashboards/alerts</text><text fill="#000000" font-family="sans-serif" font-size="13" lengthAdjust="spacing" textLength="273" x="104" y="77.4966">(Performance, usage, anomaly thresholds)</text><polygon fill="#181818" points="108,120.6953,98,124.6953,108,128.6953,104,124.6953" style="stroke:#181818;stroke-width:1.0;"/><line style="stroke:#181818;stroke-width:1.0;" x1="102" x2="383" y1="124.6953" y2="124.6953"/><text fill="#000000" font-family="sans-serif" font-size="13" lengthAdjust="spacing" textLength="242" x="114" y="119.6294">Report user complaint or system alert</text><polygon fill="#181818" points="755,164.9609,765,168.9609,755,172.9609,759,168.9609" style="stroke:#181818;stroke-width:1.0;"/><line style="stroke:#181818;stroke-width:1.0;" x1="97" x2="761" y1="168.9609" y2="168.9609"/><text fill="#000000" font-family="sans-serif" font-size="13" lengthAdjust="spacing" textLength="160" x="104" y="148.7622">Log initial incident details</text><text fill="#000000" font-family="sans-serif" font-size="13" lengthAdjust="spacing" textLength="178" x="104" y="163.895">(Assign provisional severity)</text><path d="M10,183.9609 L74,183.9609 L74,191.0938 L64,201.0938 L10,201.0938 L10,183.9609 " fill="#EEEEEE" style="stroke:#000000;stroke-width:1.5;"/><rect fill="none" height="96.2031" style="stroke:#000000;stroke-width:1.5;" width="2008.5" x="10" y="183.9609"/><text fill="#000000" font-family="sans-serif" font-size="13" font-weight="bold" lengthAdjust="spacing" textLength="19" x="25" y="197.0278">alt</text><text fill="#000000" font-family="sans-serif" font-size="11" font-weight="bold" lengthAdjust="spacing" textLength="241" x="89" y="196.1714">[Possibly Ethical/Regulatory Concern]</text><polygon fill="#181818" points="1944,218.2266,1954,222.2266,1944,226.2266,1948,222.2266" style="stroke:#181818;stroke-width:1.0;"/><line style="stroke:#181818;stroke-width:1.0;" x1="97" x2="1950" y1="222.2266" y2="222.2266"/><text fill="#000000" font-family="sans-serif" font-size="13" lengthAdjust="spacing" textLength="272" x="104" y="217.1606">Notify potential AI ethics/regulatory breach</text><line style="stroke:#000000;stroke-width:1.0;stroke-dasharray:2.0,2.0;" x1="10" x2="2018.5" y1="231.2266" y2="231.2266"/><text fill="#000000" font-family="sans-serif" font-size="11" font-weight="bold" lengthAdjust="spacing" textLength="178" x="15" y="241.437">[No immediate IRB concern]</text><path d="M45,250.0313 L45,275.0313 L149,275.0313 L149,260.0313 L139,250.0313 L45,250.0313 " fill="#FEFFDD" style="stroke:#181818;stroke-width:0.5;"/><path d="M139,250.0313 L139,260.0313 L149,260.0313 L139,250.0313 " fill="#FEFFDD" style="stroke:#181818;stroke-width:0.5;"/><text fill="#000000" font-family="sans-serif" font-size="13" lengthAdjust="spacing" textLength="83" x="51" y="267.0981">Skip IRB step</text><line style="stroke:#181818;stroke-width:1.0;" x1="767" x2="809" y1="308.2969" y2="308.2969"/><line style="stroke:#181818;stroke-width:1.0;" x1="809" x2="809" y1="308.2969" y2="321.2969"/><line style="stroke:#181818;stroke-width:1.0;" x1="768" x2="809" y1="321.2969" y2="321.2969"/><polygon fill="#181818" points="778,317.2969,768,321.2969,778,325.2969,774,321.2969" style="stroke:#181818;stroke-width:1.0;"/><text fill="#000000" font-family="sans-serif" font-size="13" lengthAdjust="spacing" textLength="230" x="774" y="303.231">Determine final severity (P0, P1, P2)</text><polygon fill="#181818" points="1045,346.4297,1055,350.4297,1045,354.4297,1049,350.4297" style="stroke:#181818;stroke-width:1.0;"/><line style="stroke:#181818;stroke-width:1.0;" x1="767" x2="1051" y1="350.4297" y2="350.4297"/><text fill="#000000" font-family="sans-serif" font-size="13" lengthAdjust="spacing" textLength="266" x="774" y="345.3638">Notify if infrastructure or network problem</text><polygon fill="#181818" points="1183,375.5625,1193,379.5625,1183,383.5625,1187,379.5625" style="stroke:#181818;stroke-width:1.0;"/><line style="stroke:#181818;stroke-width:1.0;" x1="767" x2="1189" y1="379.5625" y2="379.5625"/><text fill="#000000" font-family="sans-serif" font-size="13" lengthAdjust="spacing" textLength="155" x="774" y="374.4966">Notify if code/model bug</text><polygon fill="#181818" points="1440,404.6953,1450,408.6953,1440,412.6953,1444,408.6953" style="stroke:#181818;stroke-width:1.0;"/><line style="stroke:#181818;stroke-width:1.0;" x1="767" x2="1446" y1="408.6953" y2="408.6953"/><text fill="#000000" font-family="sans-serif" font-size="13" lengthAdjust="spacing" textLength="256" x="774" y="403.6294">Notify if data privacy or security concern</text><path d="M10,423.6953 L74,423.6953 L74,430.8281 L64,440.8281 L10,440.8281 L10,423.6953 " fill="#EEEEEE" style="stroke:#000000;stroke-width:1.5;"/><rect fill="none" height="247.5391" style="stroke:#000000;stroke-width:1.5;" width="1716" x="10" y="423.6953"/><text fill="#000000" font-family="sans-serif" font-size="13" font-weight="bold" lengthAdjust="spacing" textLength="19" x="25" y="436.7622">alt</text><text fill="#000000" font-family="sans-serif" font-size="11" font-weight="bold" lengthAdjust="spacing" textLength="175" x="89" y="435.9058">[Infrastructure Root Cause]</text><polygon fill="#181818" points="108,457.9609,98,461.9609,108,465.9609,104,461.9609" style="stroke:#181818;stroke-width:1.0;"/><line style="stroke:#181818;stroke-width:1.0;" x1="102" x2="1056" y1="461.9609" y2="461.9609"/><text fill="#000000" font-family="sans-serif" font-size="13" lengthAdjust="spacing" textLength="268" x="114" y="456.895">Provide environment logs / config updates</text><polygon fill="#181818" points="778,487.0938,768,491.0938,778,495.0938,774,491.0938" style="stroke:#181818;stroke-width:1.0;"/><line style="stroke:#181818;stroke-width:1.0;" x1="772" x2="1056" y1="491.0938" y2="491.0938"/><text fill="#000000" font-family="sans-serif" font-size="13" lengthAdjust="spacing" textLength="127" x="784" y="486.0278">Summarize findings</text><line style="stroke:#000000;stroke-width:1.0;stroke-dasharray:2.0,2.0;" x1="10" x2="1726" y1="500.0938" y2="500.0938"/><text fill="#000000" font-family="sans-serif" font-size="11" font-weight="bold" lengthAdjust="spacing" textLength="115" x="15" y="510.3042">[Model/Code Bug]</text><line style="stroke:#181818;stroke-width:1.0;" x1="1195" x2="1237" y1="535.0313" y2="535.0313"/><line style="stroke:#181818;stroke-width:1.0;" x1="1237" x2="1237" y1="535.0313" y2="548.0313"/><line style="stroke:#181818;stroke-width:1.0;" x1="1196" x2="1237" y1="548.0313" y2="548.0313"/><polygon fill="#181818" points="1206,544.0313,1196,548.0313,1206,552.0313,1202,548.0313" style="stroke:#181818;stroke-width:1.0;"/><text fill="#000000" font-family="sans-serif" font-size="13" lengthAdjust="spacing" textLength="243" x="1202" y="529.9653">Replicate scenario in dev environment</text><polygon fill="#181818" points="778,573.1641,768,577.1641,778,581.1641,774,577.1641" style="stroke:#181818;stroke-width:1.0;"/><line style="stroke:#181818;stroke-width:1.0;" x1="772" x2="1194" y1="577.1641" y2="577.1641"/><text fill="#000000" font-family="sans-serif" font-size="13" lengthAdjust="spacing" textLength="127" x="784" y="572.0981">Summarize findings</text><line style="stroke:#000000;stroke-width:1.0;stroke-dasharray:2.0,2.0;" x1="10" x2="1726" y1="586.1641" y2="586.1641"/><text fill="#000000" font-family="sans-serif" font-size="11" font-weight="bold" lengthAdjust="spacing" textLength="112" x="15" y="596.3745">[Security/Privacy]</text><line style="stroke:#181818;stroke-width:1.0;" x1="1452" x2="1494" y1="621.1016" y2="621.1016"/><line style="stroke:#181818;stroke-width:1.0;" x1="1494" x2="1494" y1="621.1016" y2="634.1016"/><line style="stroke:#181818;stroke-width:1.0;" x1="1453" x2="1494" y1="634.1016" y2="634.1016"/><polygon fill="#181818" points="1463,630.1016,1453,634.1016,1463,638.1016,1459,634.1016" style="stroke:#181818;stroke-width:1.0;"/><text fill="#000000" font-family="sans-serif" font-size="13" lengthAdjust="spacing" textLength="255" x="1459" y="616.0356">Analyze logs for intrusion / data leakage</text><polygon fill="#181818" points="778,659.2344,768,663.2344,778,667.2344,774,663.2344" style="stroke:#181818;stroke-width:1.0;"/><line style="stroke:#181818;stroke-width:1.0;" x1="772" x2="1451" y1="663.2344" y2="663.2344"/><text fill="#000000" font-family="sans-serif" font-size="13" lengthAdjust="spacing" textLength="127" x="784" y="658.1685">Summarize findings</text><path d="M690.5,685.2344 L754.5,685.2344 L754.5,692.3672 L744.5,702.3672 L690.5,702.3672 L690.5,685.2344 " fill="#EEEEEE" style="stroke:#000000;stroke-width:1.5;"/><rect fill="none" height="46.2656" style="stroke:#000000;stroke-width:1.5;" width="1328" x="690.5" y="685.2344"/><text fill="#000000" font-family="sans-serif" font-size="13" font-weight="bold" lengthAdjust="spacing" textLength="19" x="705.5" y="698.3013">alt</text><text fill="#000000" font-family="sans-serif" font-size="11" font-weight="bold" lengthAdjust="spacing" textLength="240" x="769.5" y="697.4448">[AI Model Bias or Unethical Behavior]</text><polygon fill="#181818" points="1944,719.5,1954,723.5,1944,727.5,1948,723.5" style="stroke:#181818;stroke-width:1.0;"/><line style="stroke:#181818;stroke-width:1.0;" x1="767" x2="1950" y1="723.5" y2="723.5"/><text fill="#000000" font-family="sans-serif" font-size="13" lengthAdjust="spacing" textLength="137" x="774" y="718.4341">Engage IRB for review</text><path d="M639,745.5 L703,745.5 L703,752.6328 L693,762.6328 L639,762.6328 L639,745.5 " fill="#EEEEEE" style="stroke:#000000;stroke-width:1.5;"/><rect fill="none" height="196.6016" style="stroke:#000000;stroke-width:1.5;" width="1322" x="639" y="745.5"/><text fill="#000000" font-family="sans-serif" font-size="13" font-weight="bold" lengthAdjust="spacing" textLength="19" x="654" y="758.5669">alt</text><text fill="#000000" font-family="sans-serif" font-size="11" font-weight="bold" lengthAdjust="spacing" textLength="90" x="718" y="757.7104">[Fix Required]</text><polygon fill="#181818" points="1183,779.7656,1193,783.7656,1183,787.7656,1187,783.7656" style="stroke:#181818;stroke-width:1.0;"/><line style="stroke:#181818;stroke-width:1.0;" x1="767" x2="1189" y1="783.7656" y2="783.7656"/><text fill="#000000" font-family="sans-serif" font-size="13" lengthAdjust="spacing" textLength="144" x="774" y="778.6997">Implement fix or patch</text><polygon fill="#181818" points="1709,808.8984,1719,812.8984,1709,816.8984,1713,812.8984" style="stroke:#181818;stroke-width:1.0;"/><line style="stroke:#181818;stroke-width:1.0;" x1="1195" x2="1715" y1="812.8984" y2="812.8984"/><text fill="#000000" font-family="sans-serif" font-size="13" lengthAdjust="spacing" textLength="139" x="1202" y="807.8325">Provide updated code</text><line style="stroke:#181818;stroke-width:1.0;" x1="1721" x2="1763" y1="842.0313" y2="842.0313"/><line style="stroke:#181818;stroke-width:1.0;" x1="1763" x2="1763" y1="842.0313" y2="855.0313"/><line style="stroke:#181818;stroke-width:1.0;" x1="1722" x2="1763" y1="855.0313" y2="855.0313"/><polygon fill="#181818" points="1732,851.0313,1722,855.0313,1732,859.0313,1728,855.0313" style="stroke:#181818;stroke-width:1.0;"/><text fill="#000000" font-family="sans-serif" font-size="13" lengthAdjust="spacing" textLength="221" x="1728" y="836.9653">Validate fix in staging environment</text><polygon fill="#181818" points="778,880.1641,768,884.1641,778,888.1641,774,884.1641" style="stroke:#181818;stroke-width:1.0;"/><line style="stroke:#181818;stroke-width:1.0;" x1="772" x2="1720" y1="884.1641" y2="884.1641"/><text fill="#000000" font-family="sans-serif" font-size="13" lengthAdjust="spacing" textLength="117" x="784" y="879.0981">Confirm resolution</text><line style="stroke:#000000;stroke-width:1.0;stroke-dasharray:2.0,2.0;" x1="639" x2="1961" y1="893.1641" y2="893.1641"/><text fill="#000000" font-family="sans-serif" font-size="11" font-weight="bold" lengthAdjust="spacing" textLength="118" x="644" y="903.3745">[No immediate fix]</text><path d="M649,911.9688 L649,936.9688 L885,936.9688 L885,921.9688 L875,911.9688 L649,911.9688 " fill="#FEFFDD" style="stroke:#181818;stroke-width:0.5;"/><path d="M875,911.9688 L875,921.9688 L885,921.9688 L875,911.9688 " fill="#FEFFDD" style="stroke:#181818;stroke-width:0.5;"/><text fill="#000000" font-family="sans-serif" font-size="13" lengthAdjust="spacing" textLength="215" x="655" y="929.0356">Provide workaround or monitoring</text><polygon fill="#181818" points="108,966.2344,98,970.2344,108,974.2344,104,970.2344" style="stroke:#181818;stroke-width:1.0;"/><line style="stroke:#181818;stroke-width:1.0;" x1="102" x2="766" y1="970.2344" y2="970.2344"/><text fill="#000000" font-family="sans-serif" font-size="13" lengthAdjust="spacing" textLength="189" x="114" y="965.1685">Authorize final fix deployment</text><polygon fill="#181818" points="1045,995.3672,1055,999.3672,1045,1003.3672,1049,999.3672" style="stroke:#181818;stroke-width:1.0;"/><line style="stroke:#181818;stroke-width:1.0;" x1="97" x2="1051" y1="999.3672" y2="999.3672"/><text fill="#000000" font-family="sans-serif" font-size="13" lengthAdjust="spacing" textLength="253" x="104" y="994.3013">Deploy code to production environment</text><polygon fill="#181818" points="1709,1024.5,1719,1028.5,1709,1032.5,1713,1028.5" style="stroke:#181818;stroke-width:1.0;"/><line style="stroke:#181818;stroke-width:1.0;" x1="1057" x2="1715" y1="1028.5" y2="1028.5"/><text fill="#000000" font-family="sans-serif" font-size="13" lengthAdjust="spacing" textLength="184" x="1064" y="1023.4341">Notify QA for final verification</text><polygon fill="#181818" points="778,1053.6328,768,1057.6328,778,1061.6328,774,1057.6328" style="stroke:#181818;stroke-width:1.0;"/><line style="stroke:#181818;stroke-width:1.0;" x1="772" x2="1720" y1="1057.6328" y2="1057.6328"/><text fill="#000000" font-family="sans-serif" font-size="13" lengthAdjust="spacing" textLength="254" x="784" y="1052.5669">Approve production environment status</text><line style="stroke:#181818;stroke-width:1.0;" x1="767" x2="809" y1="1086.7656" y2="1086.7656"/><line style="stroke:#181818;stroke-width:1.0;" x1="809" x2="809" y1="1086.7656" y2="1099.7656"/><line style="stroke:#181818;stroke-width:1.0;" x1="768" x2="809" y1="1099.7656" y2="1099.7656"/><polygon fill="#181818" points="778,1095.7656,768,1099.7656,778,1103.7656,774,1099.7656" style="stroke:#181818;stroke-width:1.0;"/><text fill="#000000" font-family="sans-serif" font-size="13" lengthAdjust="spacing" textLength="259" x="774" y="1081.6997">Update incident log to "Resolved/Closed"</text><polygon fill="#181818" points="395,1124.8984,385,1128.8984,395,1132.8984,391,1128.8984" style="stroke:#181818;stroke-width:1.0;"/><line style="stroke:#181818;stroke-width:1.0;" x1="389" x2="766" y1="1128.8984" y2="1128.8984"/><text fill="#000000" font-family="sans-serif" font-size="13" lengthAdjust="spacing" textLength="359" x="401" y="1123.8325">Communicate resolution to end users or external clients</text><line style="stroke:#181818;stroke-width:1.0;" x1="767" x2="809" y1="1158.0313" y2="1158.0313"/><line style="stroke:#181818;stroke-width:1.0;" x1="809" x2="809" y1="1158.0313" y2="1171.0313"/><line style="stroke:#181818;stroke-width:1.0;" x1="768" x2="809" y1="1171.0313" y2="1171.0313"/><polygon fill="#181818" points="778,1167.0313,768,1171.0313,778,1175.0313,774,1171.0313" style="stroke:#181818;stroke-width:1.0;"/><text fill="#000000" font-family="sans-serif" font-size="13" lengthAdjust="spacing" textLength="215" x="774" y="1152.9653">Schedule lessons learned session</text><polygon fill="#181818" points="1944,1196.1641,1954,1200.1641,1944,1204.1641,1948,1200.1641" style="stroke:#181818;stroke-width:1.0;"/><line style="stroke:#181818;stroke-width:1.0;" x1="767" x2="1950" y1="1200.1641" y2="1200.1641"/><text fill="#000000" font-family="sans-serif" font-size="13" lengthAdjust="spacing" textLength="212" x="774" y="1195.0981">If involved, finalize ethical sign-off</text><polygon fill="#181818" points="108,1225.2969,98,1229.2969,108,1233.2969,104,1229.2969" style="stroke:#181818;stroke-width:1.0;"/><line style="stroke:#181818;stroke-width:1.0;" x1="102" x2="766" y1="1229.2969" y2="1229.2969"/><text fill="#000000" font-family="sans-serif" font-size="13" lengthAdjust="spacing" textLength="186" x="114" y="1224.231">Evaluate monitoring changes</text><polygon fill="#181818" points="1709,1254.4297,1719,1258.4297,1709,1262.4297,1713,1258.4297" style="stroke:#181818;stroke-width:1.0;"/><line style="stroke:#181818;stroke-width:1.0;" x1="767" x2="1715" y1="1258.4297" y2="1258.4297"/><text fill="#000000" font-family="sans-serif" font-size="13" lengthAdjust="spacing" textLength="207" x="774" y="1253.3638">Document improvement actions</text><!--MD5=[75f7a95625037acd6f5fd855731a1e0c]
@startuml
' Define participants (avoid vertical-bar notation)
participant "Site Monitoring Lead" as SML
participant "Technical Support" as TechSup
participant "Incident Manager" as IM
participant "Operations Engineer" as OE
participant "AI Dev Team" as AIDev
participant "Security/Compliance" as SC
participant "Quality Assurance" as QA
participant "AI-IRB Liaison" as IRB

' 1. Monitoring Setup and Thresholds
SML -> SML: Configure dashboards/alerts\n(Performance, usage, anomaly thresholds)

' 2. Detect Incident
TechSup -> SML: Report user complaint or system alert
SML -> IM: Log initial incident details\n(Assign provisional severity)

' 3. Potential Ethical Concerns?
alt Possibly Ethical/Regulatory Concern
    SML -> IRB: Notify potential AI ethics/regulatory breach
else No immediate IRB concern
    note over SML: Skip IRB step
end

' 4. Incident Triage and Severity
IM -> IM: Determine final severity (P0, P1, P2)
IM -> OE: Notify if infrastructure or network problem
IM -> AIDev: Notify if code/model bug
IM -> SC: Notify if data privacy or security concern

' 5. Investigation and Escalation
alt Infrastructure Root Cause
    OE -> SML: Provide environment logs / config updates
    OE -> IM: Summarize findings
else Model/Code Bug
    AIDev -> AIDev: Replicate scenario in dev environment
    AIDev -> IM: Summarize findings
else Security/Privacy
    SC -> SC: Analyze logs for intrusion / data leakage
    SC -> IM: Summarize findings
end

' 6. Ethical Overlap?
alt AI Model Bias or Unethical Behavior
    IM -> IRB: Engage IRB for review
end

' 7. Resolution
alt Fix Required
    IM -> AIDev: Implement fix or patch
    AIDev -> QA: Provide updated code
    QA -> QA: Validate fix in staging environment
    QA -> IM: Confirm resolution
else No immediate fix
    note over IM: Provide workaround or monitoring
end

' 8. Deploy Fix to Production
IM -> SML: Authorize final fix deployment
SML -> OE: Deploy code to production environment
OE -> QA: Notify QA for final verification
QA -> IM: Approve production environment status

' 9. Closure
IM -> IM: Update incident log to "Resolved/Closed"
IM -> TechSup: Communicate resolution to end users or external clients

' 10. Post-Incident Review
IM -> IM: Schedule lessons learned session
IM -> IRB: If involved, finalize ethical sign-off
IM -> SML: Evaluate monitoring changes
IM -> QA: Document improvement actions
@enduml

@startuml
participant "Site Monitoring Lead" as SML
participant "Technical Support" as TechSup
participant "Incident Manager" as IM
participant "Operations Engineer" as OE
participant "AI Dev Team" as AIDev
participant "Security/Compliance" as SC
participant "Quality Assurance" as QA
participant "AI-IRB Liaison" as IRB

SML -> SML: Configure dashboards/alerts\n(Performance, usage, anomaly thresholds)

TechSup -> SML: Report user complaint or system alert
SML -> IM: Log initial incident details\n(Assign provisional severity)

alt Possibly Ethical/Regulatory Concern
    SML -> IRB: Notify potential AI ethics/regulatory breach
else No immediate IRB concern
    note over SML: Skip IRB step
end

IM -> IM: Determine final severity (P0, P1, P2)
IM -> OE: Notify if infrastructure or network problem
IM -> AIDev: Notify if code/model bug
IM -> SC: Notify if data privacy or security concern

alt Infrastructure Root Cause
    OE -> SML: Provide environment logs / config updates
    OE -> IM: Summarize findings
else Model/Code Bug
    AIDev -> AIDev: Replicate scenario in dev environment
    AIDev -> IM: Summarize findings
else Security/Privacy
    SC -> SC: Analyze logs for intrusion / data leakage
    SC -> IM: Summarize findings
end

alt AI Model Bias or Unethical Behavior
    IM -> IRB: Engage IRB for review
end

alt Fix Required
    IM -> AIDev: Implement fix or patch
    AIDev -> QA: Provide updated code
    QA -> QA: Validate fix in staging environment
    QA -> IM: Confirm resolution
else No immediate fix
    note over IM: Provide workaround or monitoring
end

IM -> SML: Authorize final fix deployment
SML -> OE: Deploy code to production environment
OE -> QA: Notify QA for final verification
QA -> IM: Approve production environment status

IM -> IM: Update incident log to "Resolved/Closed"
IM -> TechSup: Communicate resolution to end users or external clients

IM -> IM: Schedule lessons learned session
IM -> IRB: If involved, finalize ethical sign-off
IM -> SML: Evaluate monitoring changes
IM -> QA: Document improvement actions
@enduml

PlantUML version 1.2022.7(Mon Aug 22 17:01:30 UTC 2022)
(GPL source distribution)
Java Runtime: OpenJDK Runtime Environment
JVM: OpenJDK 64-Bit Server VM
Default Encoding: UTF-8
Language: en
Country: null
--></g></svg>