<?xml version="1.0" encoding="UTF-8" standalone="no"?><svg xmlns="http://www.w3.org/2000/svg" xmlns:xlink="http://www.w3.org/1999/xlink" contentStyleType="text/css" height="1838px" preserveAspectRatio="none" style="width:1875px;height:1838px;background:#FFFFFF;" version="1.1" viewBox="0 0 1875 1838" width="1875px" zoomAndPan="magnify"><defs/><g><rect fill="none" height="26.2969" id="_title" style="stroke:none;stroke-width:1.0;" width="378" x="749.5" y="10"/><text fill="#000000" font-family="sans-serif" font-size="14" font-weight="bold" lengthAdjust="spacing" textLength="368" x="754.5" y="27.9951">SOP-1220-01 Deployment (Sequence Diagram)</text><rect fill="none" height="125.3359" style="stroke:#000000;stroke-width:1.5;" width="1858" x="10" y="323.6563"/><rect fill="none" height="196.6016" style="stroke:#000000;stroke-width:1.5;" width="1707.5" x="10" y="841.7188"/><rect fill="none" height="241.8672" style="stroke:#000000;stroke-width:1.5;" width="1500" x="10" y="1356.6484"/><line style="stroke:#181818;stroke-width:0.5;stroke-dasharray:5.0,5.0;" x1="92" x2="92" y1="73.5938" y2="1803.3125"/><line style="stroke:#181818;stroke-width:0.5;stroke-dasharray:5.0,5.0;" x1="421.5" x2="421.5" y1="73.5938" y2="1803.3125"/><line style="stroke:#181818;stroke-width:0.5;stroke-dasharray:5.0,5.0;" x1="670" x2="670" y1="73.5938" y2="1803.3125"/><line style="stroke:#181818;stroke-width:0.5;stroke-dasharray:5.0,5.0;" x1="948.5" x2="948.5" y1="73.5938" y2="1803.3125"/><line style="stroke:#181818;stroke-width:0.5;stroke-dasharray:5.0,5.0;" x1="1283" x2="1283" y1="73.5938" y2="1803.3125"/><line style="stroke:#181818;stroke-width:0.5;stroke-dasharray:5.0,5.0;" x1="1430" x2="1430" y1="73.5938" y2="1803.3125"/><line style="stroke:#181818;stroke-width:0.5;stroke-dasharray:5.0,5.0;" x1="1712" x2="1712" y1="73.5938" y2="1803.3125"/><rect fill="#E2E2F0" height="30.2969" rx="2.5" ry="2.5" style="stroke:#181818;stroke-width:0.5;" width="144" x="20" y="42.2969"/><text fill="#000000" font-family="sans-serif" font-size="14" lengthAdjust="spacing" textLength="130" x="27" y="62.292">Development Lead</text><rect fill="#E2E2F0" height="30.2969" rx="2.5" ry="2.5" style="stroke:#181818;stroke-width:0.5;" width="144" x="20" y="1802.3125"/><text fill="#000000" font-family="sans-serif" font-size="14" lengthAdjust="spacing" textLength="130" x="27" y="1822.3076">Development Lead</text><rect fill="#E2E2F0" height="30.2969" rx="2.5" ry="2.5" style="stroke:#181818;stroke-width:0.5;" width="71" x="386.5" y="42.2969"/><text fill="#000000" font-family="sans-serif" font-size="14" lengthAdjust="spacing" textLength="57" x="393.5" y="62.292">QA Lead</text><rect fill="#E2E2F0" height="30.2969" rx="2.5" ry="2.5" style="stroke:#181818;stroke-width:0.5;" width="71" x="386.5" y="1802.3125"/><text fill="#000000" font-family="sans-serif" font-size="14" lengthAdjust="spacing" textLength="57" x="393.5" y="1822.3076">QA Lead</text><rect fill="#E2E2F0" height="30.2969" rx="2.5" ry="2.5" style="stroke:#181818;stroke-width:0.5;" width="154" x="593" y="42.2969"/><text fill="#000000" font-family="sans-serif" font-size="14" lengthAdjust="spacing" textLength="140" x="600" y="62.292">Operations Manager</text><rect fill="#E2E2F0" height="30.2969" rx="2.5" ry="2.5" style="stroke:#181818;stroke-width:0.5;" width="154" x="593" y="1802.3125"/><text fill="#000000" font-family="sans-serif" font-size="14" lengthAdjust="spacing" textLength="140" x="600" y="1822.3076">Operations Manager</text><rect fill="#E2E2F0" height="30.2969" rx="2.5" ry="2.5" style="stroke:#181818;stroke-width:0.5;" width="151" x="873.5" y="42.2969"/><text fill="#000000" font-family="sans-serif" font-size="14" lengthAdjust="spacing" textLength="137" x="880.5" y="62.292">Product/Project Mgr</text><rect fill="#E2E2F0" height="30.2969" rx="2.5" ry="2.5" style="stroke:#181818;stroke-width:0.5;" width="151" x="873.5" y="1802.3125"/><text fill="#000000" font-family="sans-serif" font-size="14" lengthAdjust="spacing" textLength="137" x="880.5" y="1822.3076">Product/Project Mgr</text><rect fill="#E2E2F0" height="30.2969" rx="2.5" ry="2.5" style="stroke:#181818;stroke-width:0.5;" width="136" x="1215" y="42.2969"/><text fill="#000000" font-family="sans-serif" font-size="14" lengthAdjust="spacing" textLength="122" x="1222" y="62.292">Program Manager</text><rect fill="#E2E2F0" height="30.2969" rx="2.5" ry="2.5" style="stroke:#181818;stroke-width:0.5;" width="136" x="1215" y="1802.3125"/><text fill="#000000" font-family="sans-serif" font-size="14" lengthAdjust="spacing" textLength="122" x="1222" y="1822.3076">Program Manager</text><rect fill="#E2E2F0" height="30.2969" rx="2.5" ry="2.5" style="stroke:#181818;stroke-width:0.5;" width="139" x="1361" y="42.2969"/><text fill="#000000" font-family="sans-serif" font-size="14" lengthAdjust="spacing" textLength="125" x="1368" y="62.292">Technical Support</text><rect fill="#E2E2F0" height="30.2969" rx="2.5" ry="2.5" style="stroke:#181818;stroke-width:0.5;" width="139" x="1361" y="1802.3125"/><text fill="#000000" font-family="sans-serif" font-size="14" lengthAdjust="spacing" textLength="125" x="1368" y="1822.3076">Technical Support</text><rect fill="#E2E2F0" height="30.2969" rx="2.5" ry="2.5" style="stroke:#181818;stroke-width:0.5;" width="105" x="1660" y="42.2969"/><text fill="#000000" font-family="sans-serif" font-size="14" lengthAdjust="spacing" textLength="91" x="1667" y="62.292">AI-IRB Liaison</text><rect fill="#E2E2F0" height="30.2969" rx="2.5" ry="2.5" style="stroke:#181818;stroke-width:0.5;" width="105" x="1660" y="1802.3125"/><text fill="#000000" font-family="sans-serif" font-size="14" lengthAdjust="spacing" textLength="91" x="1667" y="1822.3076">AI-IRB Liaison</text><polygon fill="#181818" points="103,100.7266,93,104.7266,103,108.7266,99,104.7266" style="stroke:#181818;stroke-width:1.0;"/><line style="stroke:#181818;stroke-width:1.0;" x1="97" x2="948" y1="104.7266" y2="104.7266"/><text fill="#000000" font-family="sans-serif" font-size="13" lengthAdjust="spacing" textLength="232" x="109" y="99.6606">Request final scope and deliverables</text><polygon fill="#181818" points="937,129.8594,947,133.8594,937,137.8594,941,133.8594" style="stroke:#181818;stroke-width:1.0;"/><line style="stroke:#181818;stroke-width:1.0;" x1="92" x2="943" y1="133.8594" y2="133.8594"/><text fill="#000000" font-family="sans-serif" font-size="13" lengthAdjust="spacing" textLength="165" x="99" y="128.7935">Provide final scope details</text><polygon fill="#181818" points="1271,158.9922,1281,162.9922,1271,166.9922,1275,162.9922" style="stroke:#181818;stroke-width:1.0;"/><line style="stroke:#181818;stroke-width:1.0;" x1="949" x2="1277" y1="162.9922" y2="162.9922"/><text fill="#000000" font-family="sans-serif" font-size="13" lengthAdjust="spacing" textLength="310" x="956" y="157.9263">Communicate final scope/cost/schedule updates</text><polygon fill="#181818" points="960,188.125,950,192.125,960,196.125,956,192.125" style="stroke:#181818;stroke-width:1.0;"/><line style="stroke:#181818;stroke-width:1.0;" x1="954" x2="1282" y1="192.125" y2="192.125"/><text fill="#000000" font-family="sans-serif" font-size="13" lengthAdjust="spacing" textLength="178" x="966" y="187.0591">Confirm resource alignment</text><polygon fill="#181818" points="103,217.2578,93,221.2578,103,225.2578,99,221.2578" style="stroke:#181818;stroke-width:1.0;"/><line style="stroke:#181818;stroke-width:1.0;" x1="97" x2="948" y1="221.2578" y2="221.2578"/><text fill="#000000" font-family="sans-serif" font-size="13" lengthAdjust="spacing" textLength="208" x="109" y="216.1919">"Draft Deployment Plan" request</text><polygon fill="#181818" points="410,246.3906,420,250.3906,410,254.3906,414,250.3906" style="stroke:#181818;stroke-width:1.0;"/><line style="stroke:#181818;stroke-width:1.0;" x1="92" x2="416" y1="250.3906" y2="250.3906"/><text fill="#000000" font-family="sans-serif" font-size="13" lengthAdjust="spacing" textLength="165" x="99" y="245.3247">"Gather QA input for plan"</text><polygon fill="#181818" points="658,275.5234,668,279.5234,658,283.5234,662,279.5234" style="stroke:#181818;stroke-width:1.0;"/><line style="stroke:#181818;stroke-width:1.0;" x1="92" x2="664" y1="279.5234" y2="279.5234"/><text fill="#000000" font-family="sans-serif" font-size="13" lengthAdjust="spacing" textLength="255" x="99" y="274.4575">"Gather environment/deployment input"</text><polygon fill="#181818" points="1700.5,304.6563,1710.5,308.6563,1700.5,312.6563,1704.5,308.6563" style="stroke:#181818;stroke-width:1.0;"/><line style="stroke:#181818;stroke-width:1.0;" x1="92" x2="1706.5" y1="308.6563" y2="308.6563"/><text fill="#000000" font-family="sans-serif" font-size="13" lengthAdjust="spacing" textLength="208" x="99" y="303.5903">"Check AI compliance readiness"</text><path d="M10,323.6563 L74,323.6563 L74,330.7891 L64,340.7891 L10,340.7891 L10,323.6563 " fill="#EEEEEE" style="stroke:#000000;stroke-width:1.5;"/><rect fill="none" height="125.3359" style="stroke:#000000;stroke-width:1.5;" width="1858" x="10" y="323.6563"/><text fill="#000000" font-family="sans-serif" font-size="13" font-weight="bold" lengthAdjust="spacing" textLength="19" x="25" y="336.7231">alt</text><text fill="#000000" font-family="sans-serif" font-size="11" font-weight="bold" lengthAdjust="spacing" textLength="133" x="89" y="335.8667">[If IRB has concerns]</text><polygon fill="#181818" points="103,357.9219,93,361.9219,103,365.9219,99,361.9219" style="stroke:#181818;stroke-width:1.0;"/><line style="stroke:#181818;stroke-width:1.0;" x1="97" x2="1711.5" y1="361.9219" y2="361.9219"/><text fill="#000000" font-family="sans-serif" font-size="13" lengthAdjust="spacing" textLength="166" x="109" y="356.856">"Adjust compliance steps"</text><polygon fill="#181818" points="410,387.0547,420,391.0547,410,395.0547,414,391.0547" style="stroke:#181818;stroke-width:1.0;"/><line style="stroke:#181818;stroke-width:1.0;" x1="92" x2="416" y1="391.0547" y2="391.0547"/><text fill="#000000" font-family="sans-serif" font-size="13" lengthAdjust="spacing" textLength="218" x="99" y="385.9888">"Incorporate compliance changes"</text><line style="stroke:#000000;stroke-width:1.0;stroke-dasharray:2.0,2.0;" x1="10" x2="1868" y1="400.0547" y2="400.0547"/><text fill="#000000" font-family="sans-serif" font-size="11" font-weight="bold" lengthAdjust="spacing" textLength="154" x="15" y="410.2651">[No major IRB concerns]</text><path d="M1566,418.8594 L1566,443.8594 L1858,443.8594 L1858,428.8594 L1848,418.8594 L1566,418.8594 " fill="#FEFFDD" style="stroke:#181818;stroke-width:0.5;"/><path d="M1848,418.8594 L1848,428.8594 L1858,428.8594 L1848,418.8594 " fill="#FEFFDD" style="stroke:#181818;stroke-width:0.5;"/><text fill="#000000" font-family="sans-serif" font-size="13" lengthAdjust="spacing" textLength="271" x="1572" y="435.9263">No additional compliance changes needed</text><polygon fill="#181818" points="937,473.125,947,477.125,937,481.125,941,477.125" style="stroke:#181818;stroke-width:1.0;"/><line style="stroke:#181818;stroke-width:1.0;" x1="92" x2="943" y1="477.125" y2="477.125"/><text fill="#000000" font-family="sans-serif" font-size="13" lengthAdjust="spacing" textLength="159" x="99" y="472.0591">Submit Deployment Plan</text><polygon fill="#181818" points="681,502.2578,671,506.2578,681,510.2578,677,506.2578" style="stroke:#181818;stroke-width:1.0;"/><line style="stroke:#181818;stroke-width:1.0;" x1="675" x2="948" y1="506.2578" y2="506.2578"/><text fill="#000000" font-family="sans-serif" font-size="13" lengthAdjust="spacing" textLength="238" x="687" y="501.1919">"Review &amp; Approve Deployment Plan"</text><polygon fill="#181818" points="937,531.3906,947,535.3906,937,539.3906,941,535.3906" style="stroke:#181818;stroke-width:1.0;"/><line style="stroke:#181818;stroke-width:1.0;" x1="670" x2="943" y1="535.3906" y2="535.3906"/><text fill="#000000" font-family="sans-serif" font-size="13" lengthAdjust="spacing" textLength="198" x="677" y="530.3247">Confirm environment feasibility</text><polygon fill="#181818" points="433,560.5234,423,564.5234,433,568.5234,429,564.5234" style="stroke:#181818;stroke-width:1.0;"/><line style="stroke:#181818;stroke-width:1.0;" x1="427" x2="948" y1="564.5234" y2="564.5234"/><text fill="#000000" font-family="sans-serif" font-size="13" lengthAdjust="spacing" textLength="331" x="439" y="559.4575">"Validate Deployment Plan meets testing coverage"</text><polygon fill="#181818" points="937,589.6563,947,593.6563,937,597.6563,941,593.6563" style="stroke:#181818;stroke-width:1.0;"/><line style="stroke:#181818;stroke-width:1.0;" x1="422" x2="943" y1="593.6563" y2="593.6563"/><text fill="#000000" font-family="sans-serif" font-size="13" lengthAdjust="spacing" textLength="145" x="429" y="588.5903">Approve test coverage</text><polygon fill="#181818" points="1700.5,618.7891,1710.5,622.7891,1700.5,626.7891,1704.5,622.7891" style="stroke:#181818;stroke-width:1.0;"/><line style="stroke:#181818;stroke-width:1.0;" x1="949" x2="1706.5" y1="622.7891" y2="622.7891"/><text fill="#000000" font-family="sans-serif" font-size="13" lengthAdjust="spacing" textLength="222" x="956" y="617.7231">"Sign-off on compliance readiness"</text><polygon fill="#181818" points="960,647.9219,950,651.9219,960,655.9219,956,651.9219" style="stroke:#181818;stroke-width:1.0;"/><line style="stroke:#181818;stroke-width:1.0;" x1="954" x2="1711.5" y1="651.9219" y2="651.9219"/><text fill="#000000" font-family="sans-serif" font-size="13" lengthAdjust="spacing" textLength="150" x="966" y="646.856">"Compliance Approved"</text><polygon fill="#181818" points="103,677.0547,93,681.0547,103,685.0547,99,681.0547" style="stroke:#181818;stroke-width:1.0;"/><line style="stroke:#181818;stroke-width:1.0;" x1="97" x2="948" y1="681.0547" y2="681.0547"/><text fill="#000000" font-family="sans-serif" font-size="13" lengthAdjust="spacing" textLength="328" x="109" y="675.9888">"Prepare Installation Procedure &amp; Preliminary Docs"</text><polygon fill="#181818" points="658,706.1875,668,710.1875,658,714.1875,662,710.1875" style="stroke:#181818;stroke-width:1.0;"/><line style="stroke:#181818;stroke-width:1.0;" x1="92" x2="664" y1="710.1875" y2="710.1875"/><text fill="#000000" font-family="sans-serif" font-size="13" lengthAdjust="spacing" textLength="231" x="99" y="705.1216">"Submit install procedure for review"</text><polygon fill="#181818" points="103,735.3203,93,739.3203,103,743.3203,99,739.3203" style="stroke:#181818;stroke-width:1.0;"/><line style="stroke:#181818;stroke-width:1.0;" x1="97" x2="669" y1="739.3203" y2="739.3203"/><text fill="#000000" font-family="sans-serif" font-size="13" lengthAdjust="spacing" textLength="198" x="109" y="734.2544">Provide feedback on procedure</text><polygon fill="#181818" points="410,764.4531,420,768.4531,410,772.4531,414,768.4531" style="stroke:#181818;stroke-width:1.0;"/><line style="stroke:#181818;stroke-width:1.0;" x1="92" x2="416" y1="768.4531" y2="768.4531"/><text fill="#000000" font-family="sans-serif" font-size="13" lengthAdjust="spacing" textLength="306" x="99" y="763.3872">Provide preliminary user/product docs for review</text><polygon fill="#181818" points="103,793.5859,93,797.5859,103,801.5859,99,797.5859" style="stroke:#181818;stroke-width:1.0;"/><line style="stroke:#181818;stroke-width:1.0;" x1="97" x2="421" y1="797.5859" y2="797.5859"/><text fill="#000000" font-family="sans-serif" font-size="13" lengthAdjust="spacing" textLength="161" x="109" y="792.52">Documentation feedback</text><polygon fill="#181818" points="1418.5,822.7188,1428.5,826.7188,1418.5,830.7188,1422.5,826.7188" style="stroke:#181818;stroke-width:1.0;"/><line style="stroke:#181818;stroke-width:1.0;" x1="949" x2="1424.5" y1="826.7188" y2="826.7188"/><text fill="#000000" font-family="sans-serif" font-size="13" lengthAdjust="spacing" textLength="210" x="956" y="821.6528">"Coordinate FOA/Beta readiness"</text><path d="M10,841.7188 L74,841.7188 L74,848.8516 L64,858.8516 L10,858.8516 L10,841.7188 " fill="#EEEEEE" style="stroke:#000000;stroke-width:1.5;"/><rect fill="none" height="196.6016" style="stroke:#000000;stroke-width:1.5;" width="1707.5" x="10" y="841.7188"/><text fill="#000000" font-family="sans-serif" font-size="13" font-weight="bold" lengthAdjust="spacing" textLength="19" x="25" y="854.7856">alt</text><text fill="#000000" font-family="sans-serif" font-size="11" font-weight="bold" lengthAdjust="spacing" textLength="122" x="89" y="853.9292">[FOA/Beta needed]</text><line style="stroke:#181818;stroke-width:1.0;" x1="1430.5" x2="1472.5" y1="879.9844" y2="879.9844"/><line style="stroke:#181818;stroke-width:1.0;" x1="1472.5" x2="1472.5" y1="879.9844" y2="892.9844"/><line style="stroke:#181818;stroke-width:1.0;" x1="1431.5" x2="1472.5" y1="892.9844" y2="892.9844"/><polygon fill="#181818" points="1441.5,888.9844,1431.5,892.9844,1441.5,896.9844,1437.5,892.9844" style="stroke:#181818;stroke-width:1.0;"/><text fill="#000000" font-family="sans-serif" font-size="13" lengthAdjust="spacing" textLength="268" x="1437.5" y="874.9185">"Kick off FOA/Beta with limited user group"</text><polygon fill="#181818" points="103,918.1172,93,922.1172,103,926.1172,99,922.1172" style="stroke:#181818;stroke-width:1.0;"/><line style="stroke:#181818;stroke-width:1.0;" x1="97" x2="1429.5" y1="922.1172" y2="922.1172"/><text fill="#000000" font-family="sans-serif" font-size="13" lengthAdjust="spacing" textLength="244" x="109" y="917.0513">"Collect feedback on real-world usage"</text><polygon fill="#181818" points="410,947.25,420,951.25,410,955.25,414,951.25" style="stroke:#181818;stroke-width:1.0;"/><line style="stroke:#181818;stroke-width:1.0;" x1="92" x2="416" y1="951.25" y2="951.25"/><text fill="#000000" font-family="sans-serif" font-size="13" lengthAdjust="spacing" textLength="207" x="99" y="946.1841">"Fix issues from FOA/Beta if any"</text><polygon fill="#181818" points="103,976.3828,93,980.3828,103,984.3828,99,980.3828" style="stroke:#181818;stroke-width:1.0;"/><line style="stroke:#181818;stroke-width:1.0;" x1="97" x2="421" y1="980.3828" y2="980.3828"/><text fill="#000000" font-family="sans-serif" font-size="13" lengthAdjust="spacing" textLength="154" x="109" y="975.3169">Retest and confirm fixes</text><line style="stroke:#000000;stroke-width:1.0;stroke-dasharray:2.0,2.0;" x1="10" x2="1717.5" y1="989.3828" y2="989.3828"/><text fill="#000000" font-family="sans-serif" font-size="11" font-weight="bold" lengthAdjust="spacing" textLength="143" x="15" y="999.5933">[No FOA/Beta needed]</text><path d="M1290,1008.1875 L1290,1033.1875 L1570,1033.1875 L1570,1018.1875 L1560,1008.1875 L1290,1008.1875 " fill="#FEFFDD" style="stroke:#181818;stroke-width:0.5;"/><path d="M1560,1008.1875 L1560,1018.1875 L1570,1018.1875 L1560,1008.1875 " fill="#FEFFDD" style="stroke:#181818;stroke-width:0.5;"/><text fill="#000000" font-family="sans-serif" font-size="13" lengthAdjust="spacing" textLength="259" x="1296" y="1025.2544">Proceed directly to final user acceptance</text><polygon fill="#181818" points="681,1062.4531,671,1066.4531,681,1070.4531,677,1066.4531" style="stroke:#181818;stroke-width:1.0;"/><line style="stroke:#181818;stroke-width:1.0;" x1="675" x2="948" y1="1066.4531" y2="1066.4531"/><text fill="#000000" font-family="sans-serif" font-size="13" lengthAdjust="spacing" textLength="255" x="687" y="1061.3872">"Prepare user acceptance environment"</text><polygon fill="#181818" points="1418.5,1091.5859,1428.5,1095.5859,1418.5,1099.5859,1422.5,1095.5859" style="stroke:#181818;stroke-width:1.0;"/><line style="stroke:#181818;stroke-width:1.0;" x1="670" x2="1424.5" y1="1095.5859" y2="1095.5859"/><text fill="#000000" font-family="sans-serif" font-size="13" lengthAdjust="spacing" textLength="182" x="677" y="1090.52">"Environment ready for UAT"</text><line style="stroke:#181818;stroke-width:1.0;" x1="1430.5" x2="1472.5" y1="1124.7188" y2="1124.7188"/><line style="stroke:#181818;stroke-width:1.0;" x1="1472.5" x2="1472.5" y1="1124.7188" y2="1137.7188"/><line style="stroke:#181818;stroke-width:1.0;" x1="1431.5" x2="1472.5" y1="1137.7188" y2="1137.7188"/><polygon fill="#181818" points="1441.5,1133.7188,1431.5,1137.7188,1441.5,1141.7188,1437.5,1137.7188" style="stroke:#181818;stroke-width:1.0;"/><text fill="#000000" font-family="sans-serif" font-size="13" lengthAdjust="spacing" textLength="188" x="1437.5" y="1119.6528">"Execute UAT with end-users"</text><polygon fill="#181818" points="433,1162.8516,423,1166.8516,433,1170.8516,429,1166.8516" style="stroke:#181818;stroke-width:1.0;"/><line style="stroke:#181818;stroke-width:1.0;" x1="427" x2="1429.5" y1="1166.8516" y2="1166.8516"/><text fill="#000000" font-family="sans-serif" font-size="13" lengthAdjust="spacing" textLength="133" x="439" y="1161.7856">"Report UAT defects"</text><polygon fill="#181818" points="103,1191.9844,93,1195.9844,103,1199.9844,99,1195.9844" style="stroke:#181818;stroke-width:1.0;"/><line style="stroke:#181818;stroke-width:1.0;" x1="97" x2="421" y1="1195.9844" y2="1195.9844"/><text fill="#000000" font-family="sans-serif" font-size="13" lengthAdjust="spacing" textLength="138" x="109" y="1190.9185">"Assign defects to fix"</text><polygon fill="#181818" points="410,1221.1172,420,1225.1172,410,1229.1172,414,1225.1172" style="stroke:#181818;stroke-width:1.0;"/><line style="stroke:#181818;stroke-width:1.0;" x1="92" x2="416" y1="1225.1172" y2="1225.1172"/><text fill="#000000" font-family="sans-serif" font-size="13" lengthAdjust="spacing" textLength="87" x="99" y="1220.0513">"Deliver fixes"</text><polygon fill="#181818" points="1418.5,1250.25,1428.5,1254.25,1418.5,1258.25,1422.5,1254.25" style="stroke:#181818;stroke-width:1.0;"/><line style="stroke:#181818;stroke-width:1.0;" x1="422" x2="1424.5" y1="1254.25" y2="1254.25"/><text fill="#000000" font-family="sans-serif" font-size="13" lengthAdjust="spacing" textLength="140" x="429" y="1249.1841">"Verify final UAT pass"</text><polygon fill="#181818" points="1700.5,1279.3828,1710.5,1283.3828,1700.5,1287.3828,1704.5,1283.3828" style="stroke:#181818;stroke-width:1.0;"/><line style="stroke:#181818;stroke-width:1.0;" x1="949" x2="1706.5" y1="1283.3828" y2="1283.3828"/><text fill="#000000" font-family="sans-serif" font-size="13" lengthAdjust="spacing" textLength="220" x="956" y="1278.3169">"Request final compliance sign-off"</text><polygon fill="#181818" points="960,1308.5156,950,1312.5156,960,1316.5156,956,1312.5156" style="stroke:#181818;stroke-width:1.0;"/><line style="stroke:#181818;stroke-width:1.0;" x1="954" x2="1711.5" y1="1312.5156" y2="1312.5156"/><text fill="#000000" font-family="sans-serif" font-size="13" lengthAdjust="spacing" textLength="192" x="966" y="1307.4497">"Compliance sign-off Granted"</text><polygon fill="#181818" points="1271,1337.6484,1281,1341.6484,1271,1345.6484,1275,1341.6484" style="stroke:#181818;stroke-width:1.0;"/><line style="stroke:#181818;stroke-width:1.0;" x1="949" x2="1277" y1="1341.6484" y2="1341.6484"/><text fill="#000000" font-family="sans-serif" font-size="13" lengthAdjust="spacing" textLength="289" x="956" y="1336.5825">"All conditions met, request deployment 'Go'"</text><path d="M10,1356.6484 L74,1356.6484 L74,1363.7813 L64,1373.7813 L10,1373.7813 L10,1356.6484 " fill="#EEEEEE" style="stroke:#000000;stroke-width:1.5;"/><rect fill="none" height="241.8672" style="stroke:#000000;stroke-width:1.5;" width="1500" x="10" y="1356.6484"/><text fill="#000000" font-family="sans-serif" font-size="13" font-weight="bold" lengthAdjust="spacing" textLength="19" x="25" y="1369.7153">alt</text><text fill="#000000" font-family="sans-serif" font-size="11" font-weight="bold" lengthAdjust="spacing" textLength="102" x="89" y="1368.8589">[Final approval]</text><polygon fill="#181818" points="960,1390.9141,950,1394.9141,960,1398.9141,956,1394.9141" style="stroke:#181818;stroke-width:1.0;"/><line style="stroke:#181818;stroke-width:1.0;" x1="954" x2="1282" y1="1394.9141" y2="1394.9141"/><text fill="#000000" font-family="sans-serif" font-size="13" lengthAdjust="spacing" textLength="225" x="966" y="1389.8481">"Authorize final push to production"</text><polygon fill="#181818" points="681,1420.0469,671,1424.0469,681,1428.0469,677,1424.0469" style="stroke:#181818;stroke-width:1.0;"/><line style="stroke:#181818;stroke-width:1.0;" x1="675" x2="948" y1="1424.0469" y2="1424.0469"/><text fill="#000000" font-family="sans-serif" font-size="13" lengthAdjust="spacing" textLength="176" x="687" y="1418.981">"Initiate production release"</text><polygon fill="#181818" points="103,1449.1797,93,1453.1797,103,1457.1797,99,1453.1797" style="stroke:#181818;stroke-width:1.0;"/><line style="stroke:#181818;stroke-width:1.0;" x1="97" x2="669" y1="1453.1797" y2="1453.1797"/><text fill="#000000" font-family="sans-serif" font-size="13" lengthAdjust="spacing" textLength="295" x="109" y="1448.1138">"Deploy code, AI models, config to production"</text><polygon fill="#181818" points="433,1478.3125,423,1482.3125,433,1486.3125,429,1482.3125" style="stroke:#181818;stroke-width:1.0;"/><line style="stroke:#181818;stroke-width:1.0;" x1="427" x2="669" y1="1482.3125" y2="1482.3125"/><text fill="#000000" font-family="sans-serif" font-size="13" lengthAdjust="spacing" textLength="224" x="439" y="1477.2466">"Perform smoke test in production"</text><polygon fill="#181818" points="658,1507.4453,668,1511.4453,658,1515.4453,662,1511.4453" style="stroke:#181818;stroke-width:1.0;"/><line style="stroke:#181818;stroke-width:1.0;" x1="422" x2="664" y1="1511.4453" y2="1511.4453"/><text fill="#000000" font-family="sans-serif" font-size="13" lengthAdjust="spacing" textLength="220" x="429" y="1506.3794">"Production environment is stable"</text><polygon fill="#181818" points="1418.5,1536.5781,1428.5,1540.5781,1418.5,1544.5781,1422.5,1540.5781" style="stroke:#181818;stroke-width:1.0;"/><line style="stroke:#181818;stroke-width:1.0;" x1="949" x2="1424.5" y1="1540.5781" y2="1540.5781"/><text fill="#000000" font-family="sans-serif" font-size="13" lengthAdjust="spacing" textLength="190" x="956" y="1535.5122">"Announce successful go-live"</text><line style="stroke:#000000;stroke-width:1.0;stroke-dasharray:2.0,2.0;" x1="10" x2="1510" y1="1549.5781" y2="1549.5781"/><text fill="#000000" font-family="sans-serif" font-size="11" font-weight="bold" lengthAdjust="spacing" textLength="121" x="15" y="1559.7886">[Approval delayed]</text><path d="M879,1568.3828 L879,1593.3828 L1351,1593.3828 L1351,1578.3828 L1341,1568.3828 L879,1568.3828 " fill="#FEFFDD" style="stroke:#181818;stroke-width:0.5;"/><path d="M1341,1568.3828 L1341,1578.3828 L1351,1578.3828 L1341,1568.3828 " fill="#FEFFDD" style="stroke:#181818;stroke-width:0.5;"/><text fill="#000000" font-family="sans-serif" font-size="13" lengthAdjust="spacing" textLength="229" x="996.25" y="1585.4497">Reassess schedule or re-work items</text><line style="stroke:#181818;stroke-width:1.0;" x1="1430.5" x2="1472.5" y1="1626.6484" y2="1626.6484"/><line style="stroke:#181818;stroke-width:1.0;" x1="1472.5" x2="1472.5" y1="1626.6484" y2="1639.6484"/><line style="stroke:#181818;stroke-width:1.0;" x1="1431.5" x2="1472.5" y1="1639.6484" y2="1639.6484"/><polygon fill="#181818" points="1441.5,1635.6484,1431.5,1639.6484,1441.5,1643.6484,1437.5,1639.6484" style="stroke:#181818;stroke-width:1.0;"/><text fill="#000000" font-family="sans-serif" font-size="13" lengthAdjust="spacing" textLength="165" x="1437.5" y="1621.5825">"Provide ongoing support"</text><polygon fill="#181818" points="433,1664.7813,423,1668.7813,433,1672.7813,429,1668.7813" style="stroke:#181818;stroke-width:1.0;"/><line style="stroke:#181818;stroke-width:1.0;" x1="427" x2="948" y1="1668.7813" y2="1668.7813"/><text fill="#000000" font-family="sans-serif" font-size="13" lengthAdjust="spacing" textLength="254" x="439" y="1663.7153">"Schedule Post-Implementation Review"</text><polygon fill="#181818" points="103,1693.9141,93,1697.9141,103,1701.9141,99,1697.9141" style="stroke:#181818;stroke-width:1.0;"/><line style="stroke:#181818;stroke-width:1.0;" x1="97" x2="421" y1="1697.9141" y2="1697.9141"/><text fill="#000000" font-family="sans-serif" font-size="13" lengthAdjust="spacing" textLength="157" x="109" y="1692.8481">"Collect lessons learned"</text><polygon fill="#181818" points="410,1723.0469,420,1727.0469,410,1731.0469,414,1727.0469" style="stroke:#181818;stroke-width:1.0;"/><line style="stroke:#181818;stroke-width:1.0;" x1="92" x2="416" y1="1727.0469" y2="1727.0469"/><text fill="#000000" font-family="sans-serif" font-size="13" lengthAdjust="spacing" textLength="227" x="99" y="1721.981">"Submit improvement suggestions"</text><polygon fill="#181818" points="1700.5,1752.1797,1710.5,1756.1797,1700.5,1760.1797,1704.5,1756.1797" style="stroke:#181818;stroke-width:1.0;"/><line style="stroke:#181818;stroke-width:1.0;" x1="422" x2="1706.5" y1="1756.1797" y2="1756.1797"/><text fill="#000000" font-family="sans-serif" font-size="13" lengthAdjust="spacing" textLength="270" x="429" y="1751.1138">"Confirm any additional compliance notes"</text><polygon fill="#181818" points="1271,1781.3125,1281,1785.3125,1271,1789.3125,1275,1785.3125" style="stroke:#181818;stroke-width:1.0;"/><line style="stroke:#181818;stroke-width:1.0;" x1="422" x2="1277" y1="1785.3125" y2="1785.3125"/><text fill="#000000" font-family="sans-serif" font-size="13" lengthAdjust="spacing" textLength="242" x="429" y="1780.2466">"Finalize Post-Implementation Review"</text><!--MD5=[970d8c88c503f71c90efc3f258257116]
@startuml
title SOP-1220-01 Deployment (Sequence Diagram)

participant "Development Lead" as DEV
participant "QA Lead" as QA
participant "Operations Manager" as OPS
participant "Product/Project Mgr" as PM
participant "Program Manager" as PG
participant "Technical Support" as TS
participant "AI-IRB Liaison" as IRB

PM -> DEV: Request final scope and deliverables
DEV -> PM: Provide final scope details
PM -> PG: Communicate final scope/cost/schedule updates
PG -> PM: Confirm resource alignment

PM -> DEV: "Draft Deployment Plan" request
DEV -> QA: "Gather QA input for plan"
DEV -> OPS: "Gather environment/deployment input"
DEV -> IRB: "Check AI compliance readiness"
alt If IRB has concerns
    IRB -> DEV: "Adjust compliance steps"
    DEV -> QA: "Incorporate compliance changes"
else No major IRB concerns
    note over IRB: No additional compliance changes needed
end
DEV -> PM: Submit Deployment Plan

PM -> OPS: "Review & Approve Deployment Plan"
OPS -> PM: Confirm environment feasibility
PM -> QA: "Validate Deployment Plan meets testing coverage"
QA -> PM: Approve test coverage

PM -> IRB: "Sign-off on compliance readiness"
IRB -> PM: "Compliance Approved"

PM -> DEV: "Prepare Installation Procedure & Preliminary Docs"
DEV -> OPS: "Submit install procedure for review"
OPS -> DEV: Provide feedback on procedure
DEV -> QA: Provide preliminary user/product docs for review
QA -> DEV: Documentation feedback

PM -> TS: "Coordinate FOA/Beta readiness"
alt FOA/Beta needed
    TS -> TS: "Kick off FOA/Beta with limited user group"
    TS -> DEV: "Collect feedback on real-world usage"
    DEV -> QA: "Fix issues from FOA/Beta if any"
    QA -> DEV: Retest and confirm fixes
else No FOA/Beta needed
    note over TS: Proceed directly to final user acceptance
end

PM -> OPS: "Prepare user acceptance environment"
OPS -> TS: "Environment ready for UAT"
TS -> TS: "Execute UAT with end-users"
TS -> QA: "Report UAT defects"
QA -> DEV: "Assign defects to fix"
DEV -> QA: "Deliver fixes"
QA -> TS: "Verify final UAT pass"

PM -> IRB: "Request final compliance sign-off"
IRB -> PM: "Compliance sign-off Granted"
PM -> PG: "All conditions met, request deployment 'Go'"

alt Final approval
    PG -> PM: "Authorize final push to production"
    PM -> OPS: "Initiate production release"
    OPS -> DEV: "Deploy code, AI models, config to production"
    OPS -> QA: "Perform smoke test in production"
    QA -> OPS: "Production environment is stable"
    PM -> TS: "Announce successful go-live"
else Approval delayed
    note over PM,PG: Reassess schedule or re-work items
end

TS -> TS: "Provide ongoing support"
PM -> QA: "Schedule Post-Implementation Review"
QA -> DEV: "Collect lessons learned"
DEV -> QA: "Submit improvement suggestions"
QA -> IRB: "Confirm any additional compliance notes"
QA -> PG: "Finalize Post-Implementation Review"
@enduml

PlantUML version 1.2022.7(Mon Aug 22 17:01:30 UTC 2022)
(GPL source distribution)
Java Runtime: OpenJDK Runtime Environment
JVM: OpenJDK 64-Bit Server VM
Default Encoding: UTF-8
Language: en
Country: null
--></g></svg>