<?xml version="1.0" encoding="UTF-8" standalone="no"?><svg xmlns="http://www.w3.org/2000/svg" xmlns:xlink="http://www.w3.org/1999/xlink" contentStyleType="text/css" height="1352px" preserveAspectRatio="none" style="width:2055px;height:1352px;background:#FFFFFF;" version="1.1" viewBox="0 0 2055 1352" width="2055px" zoomAndPan="magnify"><defs/><g><rect fill="none" height="765.2031" style="stroke:#000000;stroke-width:1.5;" width="2038" x="10" y="229.9609"/><rect fill="none" height="605.8672" style="stroke:#000000;stroke-width:1.5;" width="2018" x="20" y="382.2969"/><rect fill="none" height="174.4688" style="stroke:#000000;stroke-width:1.5;" width="1514.5" x="513.5" y="548.9609"/><rect fill="none" height="132.3359" style="stroke:#000000;stroke-width:1.5;" width="1433.5" x="20" y="1080.4297"/><line style="stroke:#181818;stroke-width:0.5;stroke-dasharray:5.0,5.0;" x1="90" x2="90" y1="36.2969" y2="1317.1641"/><line style="stroke:#181818;stroke-width:0.5;stroke-dasharray:5.0,5.0;" x1="352" x2="352" y1="36.2969" y2="1317.1641"/><line style="stroke:#181818;stroke-width:0.5;stroke-dasharray:5.0,5.0;" x1="585.5" x2="585.5" y1="36.2969" y2="1317.1641"/><line style="stroke:#181818;stroke-width:0.5;stroke-dasharray:5.0,5.0;" x1="865.5" x2="865.5" y1="36.2969" y2="1317.1641"/><line style="stroke:#181818;stroke-width:0.5;stroke-dasharray:5.0,5.0;" x1="1073.5" x2="1073.5" y1="36.2969" y2="1317.1641"/><line style="stroke:#181818;stroke-width:0.5;stroke-dasharray:5.0,5.0;" x1="1363.5" x2="1363.5" y1="36.2969" y2="1317.1641"/><line style="stroke:#181818;stroke-width:0.5;stroke-dasharray:5.0,5.0;" x1="1664" x2="1664" y1="36.2969" y2="1317.1641"/><line style="stroke:#181818;stroke-width:0.5;stroke-dasharray:5.0,5.0;" x1="1940" x2="1940" y1="36.2969" y2="1317.1641"/><rect fill="#E2E2F0" height="30.2969" rx="2.5" ry="2.5" style="stroke:#181818;stroke-width:0.5;" width="100" x="40" y="5"/><text fill="#000000" font-family="sans-serif" font-size="14" lengthAdjust="spacing" textLength="86" x="47" y="24.9951">AI Dev Team</text><rect fill="#E2E2F0" height="30.2969" rx="2.5" ry="2.5" style="stroke:#181818;stroke-width:0.5;" width="100" x="40" y="1316.1641"/><text fill="#000000" font-family="sans-serif" font-size="14" lengthAdjust="spacing" textLength="86" x="47" y="1336.1592">AI Dev Team</text><rect fill="#E2E2F0" height="30.2969" rx="2.5" ry="2.5" style="stroke:#181818;stroke-width:0.5;" width="142" x="281" y="5"/><text fill="#000000" font-family="sans-serif" font-size="14" lengthAdjust="spacing" textLength="128" x="288" y="24.9951">Data Science Lead</text><rect fill="#E2E2F0" height="30.2969" rx="2.5" ry="2.5" style="stroke:#181818;stroke-width:0.5;" width="142" x="281" y="1316.1641"/><text fill="#000000" font-family="sans-serif" font-size="14" lengthAdjust="spacing" textLength="128" x="288" y="1336.1592">Data Science Lead</text><rect fill="#E2E2F0" height="30.2969" rx="2.5" ry="2.5" style="stroke:#181818;stroke-width:0.5;" width="105" x="533.5" y="5"/><text fill="#000000" font-family="sans-serif" font-size="14" lengthAdjust="spacing" textLength="91" x="540.5" y="24.9951">AI-IRB Liaison</text><rect fill="#E2E2F0" height="30.2969" rx="2.5" ry="2.5" style="stroke:#181818;stroke-width:0.5;" width="105" x="533.5" y="1316.1641"/><text fill="#000000" font-family="sans-serif" font-size="14" lengthAdjust="spacing" textLength="91" x="540.5" y="1336.1592">AI-IRB Liaison</text><rect fill="#E2E2F0" height="30.2969" rx="2.5" ry="2.5" style="stroke:#181818;stroke-width:0.5;" width="127" x="802.5" y="5"/><text fill="#000000" font-family="sans-serif" font-size="14" lengthAdjust="spacing" textLength="113" x="809.5" y="24.9951">MLOps Engineer</text><rect fill="#E2E2F0" height="30.2969" rx="2.5" ry="2.5" style="stroke:#181818;stroke-width:0.5;" width="127" x="802.5" y="1316.1641"/><text fill="#000000" font-family="sans-serif" font-size="14" lengthAdjust="spacing" textLength="113" x="809.5" y="1336.1592">MLOps Engineer</text><rect fill="#E2E2F0" height="30.2969" rx="2.5" ry="2.5" style="stroke:#181818;stroke-width:0.5;" width="137" x="1005.5" y="5"/><text fill="#000000" font-family="sans-serif" font-size="14" lengthAdjust="spacing" textLength="123" x="1012.5" y="24.9951">Quality Assurance</text><rect fill="#E2E2F0" height="30.2969" rx="2.5" ry="2.5" style="stroke:#181818;stroke-width:0.5;" width="137" x="1005.5" y="1316.1641"/><text fill="#000000" font-family="sans-serif" font-size="14" lengthAdjust="spacing" textLength="123" x="1012.5" y="1336.1592">Quality Assurance</text><rect fill="#E2E2F0" height="30.2969" rx="2.5" ry="2.5" style="stroke:#181818;stroke-width:0.5;" width="139" x="1294.5" y="5"/><text fill="#000000" font-family="sans-serif" font-size="14" lengthAdjust="spacing" textLength="125" x="1301.5" y="24.9951">Technical Support</text><rect fill="#E2E2F0" height="30.2969" rx="2.5" ry="2.5" style="stroke:#181818;stroke-width:0.5;" width="139" x="1294.5" y="1316.1641"/><text fill="#000000" font-family="sans-serif" font-size="14" lengthAdjust="spacing" textLength="125" x="1301.5" y="1336.1592">Technical Support</text><rect fill="#E2E2F0" height="30.2969" rx="2.5" ry="2.5" style="stroke:#181818;stroke-width:0.5;" width="154" x="1587" y="5"/><text fill="#000000" font-family="sans-serif" font-size="14" lengthAdjust="spacing" textLength="140" x="1594" y="24.9951">Operations Manager</text><rect fill="#E2E2F0" height="30.2969" rx="2.5" ry="2.5" style="stroke:#181818;stroke-width:0.5;" width="154" x="1587" y="1316.1641"/><text fill="#000000" font-family="sans-serif" font-size="14" lengthAdjust="spacing" textLength="140" x="1594" y="1336.1592">Operations Manager</text><rect fill="#E2E2F0" height="30.2969" rx="2.5" ry="2.5" style="stroke:#181818;stroke-width:0.5;" width="136" x="1872" y="5"/><text fill="#000000" font-family="sans-serif" font-size="14" lengthAdjust="spacing" textLength="122" x="1879" y="24.9951">Legal/Compliance</text><rect fill="#E2E2F0" height="30.2969" rx="2.5" ry="2.5" style="stroke:#181818;stroke-width:0.5;" width="136" x="1872" y="1316.1641"/><text fill="#000000" font-family="sans-serif" font-size="14" lengthAdjust="spacing" textLength="122" x="1879" y="1336.1592">Legal/Compliance</text><line style="stroke:#181818;stroke-width:1.0;" x1="866" x2="908" y1="67.4297" y2="67.4297"/><line style="stroke:#181818;stroke-width:1.0;" x1="908" x2="908" y1="67.4297" y2="80.4297"/><line style="stroke:#181818;stroke-width:1.0;" x1="867" x2="908" y1="80.4297" y2="80.4297"/><polygon fill="#181818" points="877,76.4297,867,80.4297,877,84.4297,873,80.4297" style="stroke:#181818;stroke-width:1.0;"/><text fill="#000000" font-family="sans-serif" font-size="13" lengthAdjust="spacing" textLength="194" x="873" y="62.3638">Configure monitoring pipelines</text><polygon fill="#181818" points="854,116.1289,864,120.1289,854,124.1289,858,120.1289" style="stroke:#181818;stroke-width:1.0;"/><line style="stroke:#181818;stroke-width:1.0;" x1="352" x2="860" y1="120.1289" y2="120.1289"/><text fill="#000000" font-family="sans-serif" font-size="13" lengthAdjust="spacing" textLength="211" x="359" y="115.063">Provide drift detection thresholds</text><path d="M871,93.4297 L871,133.4297 L1083,133.4297 L1083,103.4297 L1073,93.4297 L871,93.4297 " fill="#FFFFCE" style="stroke:#181818;stroke-width:0.5;"/><path d="M1073,93.4297 L1073,103.4297 L1083,103.4297 L1073,93.4297 " fill="#FFFFCE" style="stroke:#181818;stroke-width:0.5;"/><text fill="#000000" font-family="sans-serif" font-size="13" lengthAdjust="spacing" textLength="189" x="877" y="110.4966">The DSL defines performance</text><text fill="#000000" font-family="sans-serif" font-size="13" lengthAdjust="spacing" textLength="191" x="877" y="125.6294">thresholds for anomaly alerts.</text><line style="stroke:#181818;stroke-width:1.0;" x1="1664" x2="1706" y1="159.8281" y2="159.8281"/><line style="stroke:#181818;stroke-width:1.0;" x1="1706" x2="1706" y1="159.8281" y2="172.8281"/><line style="stroke:#181818;stroke-width:1.0;" x1="1665" x2="1706" y1="172.8281" y2="172.8281"/><polygon fill="#181818" points="1675,168.8281,1665,172.8281,1675,176.8281,1671,172.8281" style="stroke:#181818;stroke-width:1.0;"/><text fill="#000000" font-family="sans-serif" font-size="13" lengthAdjust="spacing" textLength="262" x="1671" y="154.7622">Validate production environment stability</text><line style="stroke:#181818;stroke-width:1.0;" x1="90" x2="132" y1="201.9609" y2="201.9609"/><line style="stroke:#181818;stroke-width:1.0;" x1="132" x2="132" y1="201.9609" y2="214.9609"/><line style="stroke:#181818;stroke-width:1.0;" x1="91" x2="132" y1="214.9609" y2="214.9609"/><polygon fill="#181818" points="101,210.9609,91,214.9609,101,218.9609,97,214.9609" style="stroke:#181818;stroke-width:1.0;"/><text fill="#000000" font-family="sans-serif" font-size="13" lengthAdjust="spacing" textLength="185" x="97" y="196.895">Execute performance checks</text><path d="M10,229.9609 L74,229.9609 L74,237.0938 L64,247.0938 L10,247.0938 L10,229.9609 " fill="#EEEEEE" style="stroke:#000000;stroke-width:1.5;"/><rect fill="none" height="765.2031" style="stroke:#000000;stroke-width:1.5;" width="2038" x="10" y="229.9609"/><text fill="#000000" font-family="sans-serif" font-size="13" font-weight="bold" lengthAdjust="spacing" textLength="19" x="25" y="243.0278">alt</text><text fill="#000000" font-family="sans-serif" font-size="11" font-weight="bold" lengthAdjust="spacing" textLength="181" x="89" y="242.1714">[Performance is acceptable]</text><line style="stroke:#181818;stroke-width:1.0;" x1="90" x2="132" y1="268.2266" y2="268.2266"/><line style="stroke:#181818;stroke-width:1.0;" x1="132" x2="132" y1="268.2266" y2="281.2266"/><line style="stroke:#181818;stroke-width:1.0;" x1="91" x2="132" y1="281.2266" y2="281.2266"/><polygon fill="#181818" points="101,277.2266,91,281.2266,101,285.2266,97,281.2266" style="stroke:#181818;stroke-width:1.0;"/><text fill="#000000" font-family="sans-serif" font-size="13" lengthAdjust="spacing" textLength="200" x="97" y="263.1606">Log metrics (no action needed)</text><line style="stroke:#000000;stroke-width:1.0;stroke-dasharray:2.0,2.0;" x1="10" x2="2048" y1="290.2266" y2="290.2266"/><text fill="#000000" font-family="sans-serif" font-size="11" font-weight="bold" lengthAdjust="spacing" textLength="239" x="15" y="300.437">[Performance drops below threshold]</text><polygon fill="#181818" points="340,321.1641,350,325.1641,340,329.1641,344,325.1641" style="stroke:#181818;stroke-width:1.0;"/><line style="stroke:#181818;stroke-width:1.0;" x1="90" x2="346" y1="325.1641" y2="325.1641"/><text fill="#000000" font-family="sans-serif" font-size="13" lengthAdjust="spacing" textLength="238" x="97" y="320.0981">Trigger alert on performance shortfall</text><line style="stroke:#181818;stroke-width:1.0;" x1="352" x2="394" y1="354.2969" y2="354.2969"/><line style="stroke:#181818;stroke-width:1.0;" x1="394" x2="394" y1="354.2969" y2="367.2969"/><line style="stroke:#181818;stroke-width:1.0;" x1="353" x2="394" y1="367.2969" y2="367.2969"/><polygon fill="#181818" points="363,363.2969,353,367.2969,363,371.2969,359,367.2969" style="stroke:#181818;stroke-width:1.0;"/><text fill="#000000" font-family="sans-serif" font-size="13" lengthAdjust="spacing" textLength="220" x="359" y="349.231">Review logs and performance data</text><path d="M20,382.2969 L84,382.2969 L84,389.4297 L74,399.4297 L20,399.4297 L20,382.2969 " fill="#EEEEEE" style="stroke:#000000;stroke-width:1.5;"/><rect fill="none" height="605.8672" style="stroke:#000000;stroke-width:1.5;" width="2018" x="20" y="382.2969"/><text fill="#000000" font-family="sans-serif" font-size="13" font-weight="bold" lengthAdjust="spacing" textLength="19" x="35" y="395.3638">alt</text><text fill="#000000" font-family="sans-serif" font-size="11" font-weight="bold" lengthAdjust="spacing" textLength="150" x="99" y="394.5073">[Real model drift/issue]</text><polygon fill="#181818" points="101,416.5625,91,420.5625,101,424.5625,97,420.5625" style="stroke:#181818;stroke-width:1.0;"/><line style="stroke:#181818;stroke-width:1.0;" x1="95" x2="351" y1="420.5625" y2="420.5625"/><text fill="#000000" font-family="sans-serif" font-size="13" lengthAdjust="spacing" textLength="215" x="107" y="415.4966">Request retraining or refinements</text><line style="stroke:#181818;stroke-width:1.0;" x1="90" x2="132" y1="449.6953" y2="449.6953"/><line style="stroke:#181818;stroke-width:1.0;" x1="132" x2="132" y1="449.6953" y2="462.6953"/><line style="stroke:#181818;stroke-width:1.0;" x1="91" x2="132" y1="462.6953" y2="462.6953"/><polygon fill="#181818" points="101,458.6953,91,462.6953,101,466.6953,97,462.6953" style="stroke:#181818;stroke-width:1.0;"/><text fill="#000000" font-family="sans-serif" font-size="13" lengthAdjust="spacing" textLength="191" x="97" y="444.6294">Prepare new data/parameters</text><polygon fill="#181818" points="854,487.8281,864,491.8281,854,495.8281,858,491.8281" style="stroke:#181818;stroke-width:1.0;"/><line style="stroke:#181818;stroke-width:1.0;" x1="90" x2="860" y1="491.8281" y2="491.8281"/><text fill="#000000" font-family="sans-serif" font-size="13" lengthAdjust="spacing" textLength="282" x="97" y="486.7622">Submit updated model for environment test</text><line style="stroke:#181818;stroke-width:1.0;" x1="1074" x2="1116" y1="520.9609" y2="520.9609"/><line style="stroke:#181818;stroke-width:1.0;" x1="1116" x2="1116" y1="520.9609" y2="533.9609"/><line style="stroke:#181818;stroke-width:1.0;" x1="1075" x2="1116" y1="533.9609" y2="533.9609"/><polygon fill="#181818" points="1085,529.9609,1075,533.9609,1085,537.9609,1081,533.9609" style="stroke:#181818;stroke-width:1.0;"/><text fill="#000000" font-family="sans-serif" font-size="13" lengthAdjust="spacing" textLength="276" x="1081" y="515.895">Validate updated model in QA environment</text><path d="M513.5,548.9609 L577.5,548.9609 L577.5,556.0938 L567.5,566.0938 L513.5,566.0938 L513.5,548.9609 " fill="#EEEEEE" style="stroke:#000000;stroke-width:1.5;"/><rect fill="none" height="174.4688" style="stroke:#000000;stroke-width:1.5;" width="1514.5" x="513.5" y="548.9609"/><text fill="#000000" font-family="sans-serif" font-size="13" font-weight="bold" lengthAdjust="spacing" textLength="19" x="528.5" y="562.0278">alt</text><text fill="#000000" font-family="sans-serif" font-size="11" font-weight="bold" lengthAdjust="spacing" textLength="142" x="592.5" y="561.1714">[Changes alter scope]</text><line style="stroke:#181818;stroke-width:1.0;" x1="586" x2="628" y1="587.2266" y2="587.2266"/><line style="stroke:#181818;stroke-width:1.0;" x1="628" x2="628" y1="587.2266" y2="600.2266"/><line style="stroke:#181818;stroke-width:1.0;" x1="587" x2="628" y1="600.2266" y2="600.2266"/><polygon fill="#181818" points="597,596.2266,587,600.2266,597,604.2266,593,600.2266" style="stroke:#181818;stroke-width:1.0;"/><text fill="#000000" font-family="sans-serif" font-size="13" lengthAdjust="spacing" textLength="266" x="593" y="582.1606">Evaluate compliance with new data usage</text><polygon fill="#181818" points="1928,625.3594,1938,629.3594,1928,633.3594,1932,629.3594" style="stroke:#181818;stroke-width:1.0;"/><line style="stroke:#181818;stroke-width:1.0;" x1="586" x2="1934" y1="629.3594" y2="629.3594"/><text fill="#000000" font-family="sans-serif" font-size="13" lengthAdjust="spacing" textLength="167" x="593" y="624.2935">Notify for further guidance</text><polygon fill="#181818" points="597,654.4922,587,658.4922,597,662.4922,593,658.4922" style="stroke:#181818;stroke-width:1.0;"/><line style="stroke:#181818;stroke-width:1.0;" x1="591" x2="1939" y1="658.4922" y2="658.4922"/><text fill="#000000" font-family="sans-serif" font-size="13" lengthAdjust="spacing" textLength="251" x="603" y="653.4263">Provide sign-off or request clarifications</text><line style="stroke:#000000;stroke-width:1.0;stroke-dasharray:2.0,2.0;" x1="513.5" x2="2028" y1="667.4922" y2="667.4922"/><text fill="#000000" font-family="sans-serif" font-size="11" font-weight="bold" lengthAdjust="spacing" textLength="120" x="518.5" y="677.7026">[No scope change]</text><line style="stroke:#181818;stroke-width:1.0;" x1="586" x2="628" y1="702.4297" y2="702.4297"/><line style="stroke:#181818;stroke-width:1.0;" x1="628" x2="628" y1="702.4297" y2="715.4297"/><line style="stroke:#181818;stroke-width:1.0;" x1="587" x2="628" y1="715.4297" y2="715.4297"/><polygon fill="#181818" points="597,711.4297,587,715.4297,597,719.4297,593,715.4297" style="stroke:#181818;stroke-width:1.0;"/><text fill="#000000" font-family="sans-serif" font-size="13" lengthAdjust="spacing" textLength="192" x="593" y="697.3638">No additional sign-off required</text><polygon fill="#181818" points="101,747.5625,91,751.5625,101,755.5625,97,751.5625" style="stroke:#181818;stroke-width:1.0;"/><line style="stroke:#181818;stroke-width:1.0;" x1="95" x2="865" y1="751.5625" y2="751.5625"/><text fill="#000000" font-family="sans-serif" font-size="13" lengthAdjust="spacing" textLength="143" x="107" y="746.4966">New model passes QA</text><polygon fill="#181818" points="854,776.6953,864,780.6953,854,784.6953,858,780.6953" style="stroke:#181818;stroke-width:1.0;"/><line style="stroke:#181818;stroke-width:1.0;" x1="90" x2="860" y1="780.6953" y2="780.6953"/><text fill="#000000" font-family="sans-serif" font-size="13" lengthAdjust="spacing" textLength="249" x="97" y="775.6294">Prepare final deployment to production</text><line style="stroke:#181818;stroke-width:1.0;" x1="866" x2="908" y1="809.8281" y2="809.8281"/><line style="stroke:#181818;stroke-width:1.0;" x1="908" x2="908" y1="809.8281" y2="822.8281"/><line style="stroke:#181818;stroke-width:1.0;" x1="867" x2="908" y1="822.8281" y2="822.8281"/><polygon fill="#181818" points="877,818.8281,867,822.8281,877,826.8281,873,822.8281" style="stroke:#181818;stroke-width:1.0;"/><text fill="#000000" font-family="sans-serif" font-size="13" lengthAdjust="spacing" textLength="194" x="873" y="804.7622">Redeploy with updated version</text><polygon fill="#181818" points="1352,847.9609,1362,851.9609,1352,855.9609,1356,851.9609" style="stroke:#181818;stroke-width:1.0;"/><line style="stroke:#181818;stroke-width:1.0;" x1="866" x2="1358" y1="851.9609" y2="851.9609"/><text fill="#000000" font-family="sans-serif" font-size="13" lengthAdjust="spacing" textLength="188" x="873" y="846.895">Inform of new model changes</text><line style="stroke:#181818;stroke-width:1.0;" x1="1364" x2="1406" y1="881.0938" y2="881.0938"/><line style="stroke:#181818;stroke-width:1.0;" x1="1406" x2="1406" y1="881.0938" y2="894.0938"/><line style="stroke:#181818;stroke-width:1.0;" x1="1365" x2="1406" y1="894.0938" y2="894.0938"/><polygon fill="#181818" points="1375,890.0938,1365,894.0938,1375,898.0938,1371,894.0938" style="stroke:#181818;stroke-width:1.0;"/><text fill="#000000" font-family="sans-serif" font-size="13" lengthAdjust="spacing" textLength="286" x="1371" y="876.0278">Update user-facing documentation if needed</text><line style="stroke:#181818;stroke-width:1.0;" x1="1664" x2="1706" y1="923.2266" y2="923.2266"/><line style="stroke:#181818;stroke-width:1.0;" x1="1706" x2="1706" y1="923.2266" y2="936.2266"/><line style="stroke:#181818;stroke-width:1.0;" x1="1665" x2="1706" y1="936.2266" y2="936.2266"/><polygon fill="#181818" points="1675,932.2266,1665,936.2266,1675,940.2266,1671,936.2266" style="stroke:#181818;stroke-width:1.0;"/><text fill="#000000" font-family="sans-serif" font-size="13" lengthAdjust="spacing" textLength="225" x="1671" y="918.1606">Verify environment for any conflicts</text><line style="stroke:#000000;stroke-width:1.0;stroke-dasharray:2.0,2.0;" x1="20" x2="2038" y1="945.2266" y2="945.2266"/><text fill="#000000" font-family="sans-serif" font-size="11" font-weight="bold" lengthAdjust="spacing" textLength="180" x="25" y="955.437">[No real issue (false alarm)]</text><polygon fill="#181818" points="101,976.1641,91,980.1641,101,984.1641,97,980.1641" style="stroke:#181818;stroke-width:1.0;"/><line style="stroke:#181818;stroke-width:1.0;" x1="95" x2="351" y1="980.1641" y2="980.1641"/><text fill="#000000" font-family="sans-serif" font-size="13" lengthAdjust="spacing" textLength="154" x="107" y="975.0981">Log incident as resolved</text><polygon fill="#181818" points="1062,1019.2969,1072,1023.2969,1062,1027.2969,1066,1023.2969" style="stroke:#181818;stroke-width:1.0;"/><line style="stroke:#181818;stroke-width:1.0;" x1="90" x2="1068" y1="1023.2969" y2="1023.2969"/><text fill="#000000" font-family="sans-serif" font-size="13" lengthAdjust="spacing" textLength="212" x="97" y="1018.231">Provide performance dashboards</text><line style="stroke:#181818;stroke-width:1.0;" x1="1074" x2="1116" y1="1052.4297" y2="1052.4297"/><line style="stroke:#181818;stroke-width:1.0;" x1="1116" x2="1116" y1="1052.4297" y2="1065.4297"/><line style="stroke:#181818;stroke-width:1.0;" x1="1075" x2="1116" y1="1065.4297" y2="1065.4297"/><polygon fill="#181818" points="1085,1061.4297,1075,1065.4297,1085,1069.4297,1081,1065.4297" style="stroke:#181818;stroke-width:1.0;"/><text fill="#000000" font-family="sans-serif" font-size="13" lengthAdjust="spacing" textLength="156" x="1081" y="1047.3638">Schedule periodic audits</text><path d="M20,1080.4297 L84,1080.4297 L84,1087.5625 L74,1097.5625 L20,1097.5625 L20,1080.4297 " fill="#EEEEEE" style="stroke:#000000;stroke-width:1.5;"/><rect fill="none" height="132.3359" style="stroke:#000000;stroke-width:1.5;" width="1433.5" x="20" y="1080.4297"/><text fill="#000000" font-family="sans-serif" font-size="13" font-weight="bold" lengthAdjust="spacing" textLength="19" x="35" y="1093.4966">alt</text><text fill="#000000" font-family="sans-serif" font-size="11" font-weight="bold" lengthAdjust="spacing" textLength="184" x="99" y="1092.6401">[New issues from end-users]</text><polygon fill="#181818" points="101,1114.6953,91,1118.6953,101,1122.6953,97,1118.6953" style="stroke:#181818;stroke-width:1.0;"/><line style="stroke:#181818;stroke-width:1.0;" x1="95" x2="1363" y1="1118.6953" y2="1118.6953"/><text fill="#000000" font-family="sans-serif" font-size="13" lengthAdjust="spacing" textLength="207" x="107" y="1113.6294">Escalate concerns to investigate</text><polygon fill="#181818" points="340,1143.8281,350,1147.8281,340,1151.8281,344,1147.8281" style="stroke:#181818;stroke-width:1.0;"/><line style="stroke:#181818;stroke-width:1.0;" x1="90" x2="346" y1="1147.8281" y2="1147.8281"/><text fill="#000000" font-family="sans-serif" font-size="13" lengthAdjust="spacing" textLength="159" x="97" y="1142.7622">Evaluate &amp; fix as needed</text><line style="stroke:#000000;stroke-width:1.0;stroke-dasharray:2.0,2.0;" x1="20" x2="1453.5" y1="1156.8281" y2="1156.8281"/><text fill="#000000" font-family="sans-serif" font-size="11" font-weight="bold" lengthAdjust="spacing" textLength="144" x="25" y="1167.0386">[No major user issues]</text><line style="stroke:#181818;stroke-width:1.0;" x1="1074" x2="1116" y1="1191.7656" y2="1191.7656"/><line style="stroke:#181818;stroke-width:1.0;" x1="1116" x2="1116" y1="1191.7656" y2="1204.7656"/><line style="stroke:#181818;stroke-width:1.0;" x1="1075" x2="1116" y1="1204.7656" y2="1204.7656"/><polygon fill="#181818" points="1085,1200.7656,1075,1204.7656,1085,1208.7656,1081,1204.7656" style="stroke:#181818;stroke-width:1.0;"/><text fill="#000000" font-family="sans-serif" font-size="13" lengthAdjust="spacing" textLength="179" x="1081" y="1186.6997">Continue normal monitoring</text><polygon fill="#181818" points="597,1236.8984,587,1240.8984,597,1244.8984,593,1240.8984" style="stroke:#181818;stroke-width:1.0;"/><line style="stroke:#181818;stroke-width:1.0;" x1="591" x2="1073" y1="1240.8984" y2="1240.8984"/><text fill="#000000" font-family="sans-serif" font-size="13" lengthAdjust="spacing" textLength="293" x="603" y="1235.8325">Summarize compliance and ethical alignment</text><polygon fill="#181818" points="1062,1266.0313,1072,1270.0313,1062,1274.0313,1066,1270.0313" style="stroke:#181818;stroke-width:1.0;"/><line style="stroke:#181818;stroke-width:1.0;" x1="90" x2="1068" y1="1270.0313" y2="1270.0313"/><text fill="#000000" font-family="sans-serif" font-size="13" lengthAdjust="spacing" textLength="255" x="97" y="1264.9653">Lessons learned (model improvements)</text><polygon fill="#181818" points="1062,1295.1641,1072,1299.1641,1062,1303.1641,1066,1299.1641" style="stroke:#181818;stroke-width:1.0;"/><line style="stroke:#181818;stroke-width:1.0;" x1="352" x2="1068" y1="1299.1641" y2="1299.1641"/><text fill="#000000" font-family="sans-serif" font-size="13" lengthAdjust="spacing" textLength="222" x="359" y="1294.0981">Final sign-off on process outcomes</text><!--MD5=[805e6ca467ee19f04bba0f9aadc93425]
@startuml
skinparam participantPadding 10
skinparam boxPadding 10
skinparam notePadding 5
skinparam noteBackgroundColor #FFFFCE
skinparam noteBorderColor #B2B2B2

' Define participants (short names)
participant "AI Dev Team" as Dev
participant "Data Science Lead" as DSL
participant "AI-IRB Liaison" as IRB
participant "MLOps Engineer" as MLOps
participant "Quality Assurance" as QA
participant "Technical Support" as TS
participant "Operations Manager" as Ops
participant "Legal/Compliance" as Legal

' 1. MLOps sets up automated monitoring
MLOps -> MLOps: Configure monitoring pipelines

' 2. Data Science Lead provides drift guidelines
DSL -> MLOps: Provide drift detection thresholds
note right
  The DSL defines performance
  thresholds for anomaly alerts.
end note

' 3. Ops ensures stable production environment
Ops -> Ops: Validate production environment stability

' 4. AI Dev Team runs periodic checks
Dev -> Dev: Execute performance checks

' 5. alt Performance within acceptable range
alt Performance is acceptable
  Dev -> Dev: Log metrics (no action needed)
else Performance drops below threshold
  Dev -> DSL: Trigger alert on performance shortfall
  DSL -> DSL: Review logs and performance data

  ' 6. alt Real issue found
  alt Real model drift/issue
    DSL -> Dev: Request retraining or refinements
    Dev -> Dev: Prepare new data/parameters

    ' 7. Developer updates code/pipelines
    Dev -> MLOps: Submit updated model for environment test

    ' 8. QA organizes test environment
    QA -> QA: Validate updated model in QA environment

    ' 9. IRB checks compliance if scope changed
    alt Changes alter scope
      IRB -> IRB: Evaluate compliance with new data usage
      IRB -> Legal: Notify for further guidance
      Legal -> IRB: Provide sign-off or request clarifications
    else No scope change
      IRB -> IRB: No additional sign-off required
    end

    ' 10. If approved, MLOps deploys new model
    MLOps -> Dev: New model passes QA
    Dev -> MLOps: Prepare final deployment to production
    MLOps -> MLOps: Redeploy with updated version

    ' 11. Technical Support is notified
    MLOps -> TS: Inform of new model changes
    TS -> TS: Update user-facing documentation if needed

    Ops -> Ops: Verify environment for any conflicts

  else No real issue (false alarm)
    DSL -> Dev: Log incident as resolved
  end
end

' 12. Post-implementation and ongoing maintenance
Dev -> QA: Provide performance dashboards
QA -> QA: Schedule periodic audits

' 13. alt Additional user complaints
alt New issues from end-users
  TS -> Dev: Escalate concerns to investigate
  Dev -> DSL: Evaluate & fix as needed
else No major user issues
  QA -> QA: Continue normal monitoring
end

' 14. Post-Implementation Review
QA -> IRB: Summarize compliance and ethical alignment
Dev -> QA: Lessons learned (model improvements)
DSL -> QA: Final sign-off on process outcomes
@enduml

@startuml
skinparam participantPadding 10
skinparam boxPadding 10
skinparam notePadding 5
skinparam noteBackgroundColor #FFFFCE
skinparam noteBorderColor #B2B2B2

participant "AI Dev Team" as Dev
participant "Data Science Lead" as DSL
participant "AI-IRB Liaison" as IRB
participant "MLOps Engineer" as MLOps
participant "Quality Assurance" as QA
participant "Technical Support" as TS
participant "Operations Manager" as Ops
participant "Legal/Compliance" as Legal

MLOps -> MLOps: Configure monitoring pipelines

DSL -> MLOps: Provide drift detection thresholds
note right
  The DSL defines performance
  thresholds for anomaly alerts.
end note

Ops -> Ops: Validate production environment stability

Dev -> Dev: Execute performance checks

alt Performance is acceptable
  Dev -> Dev: Log metrics (no action needed)
else Performance drops below threshold
  Dev -> DSL: Trigger alert on performance shortfall
  DSL -> DSL: Review logs and performance data

  alt Real model drift/issue
    DSL -> Dev: Request retraining or refinements
    Dev -> Dev: Prepare new data/parameters

    Dev -> MLOps: Submit updated model for environment test

    QA -> QA: Validate updated model in QA environment

    alt Changes alter scope
      IRB -> IRB: Evaluate compliance with new data usage
      IRB -> Legal: Notify for further guidance
      Legal -> IRB: Provide sign-off or request clarifications
    else No scope change
      IRB -> IRB: No additional sign-off required
    end

    MLOps -> Dev: New model passes QA
    Dev -> MLOps: Prepare final deployment to production
    MLOps -> MLOps: Redeploy with updated version

    MLOps -> TS: Inform of new model changes
    TS -> TS: Update user-facing documentation if needed

    Ops -> Ops: Verify environment for any conflicts

  else No real issue (false alarm)
    DSL -> Dev: Log incident as resolved
  end
end

Dev -> QA: Provide performance dashboards
QA -> QA: Schedule periodic audits

alt New issues from end-users
  TS -> Dev: Escalate concerns to investigate
  Dev -> DSL: Evaluate & fix as needed
else No major user issues
  QA -> QA: Continue normal monitoring
end

QA -> IRB: Summarize compliance and ethical alignment
Dev -> QA: Lessons learned (model improvements)
DSL -> QA: Final sign-off on process outcomes
@enduml

PlantUML version 1.2022.7(Mon Aug 22 17:01:30 UTC 2022)
(GPL source distribution)
Java Runtime: OpenJDK Runtime Environment
JVM: OpenJDK 64-Bit Server VM
Default Encoding: UTF-8
Language: en
Country: null
--></g></svg>