<?xml version="1.0" encoding="UTF-8" standalone="no"?><svg xmlns="http://www.w3.org/2000/svg" xmlns:xlink="http://www.w3.org/1999/xlink" contentStyleType="text/css" height="1630px" preserveAspectRatio="none" style="width:1776px;height:1630px;background:#FFFFFF;" version="1.1" viewBox="0 0 1776 1630" width="1776px" zoomAndPan="magnify"><defs/><g><rect fill="none" height="162.4688" style="stroke:#000000;stroke-width:1.5;" width="686" x="10" y="111.5625"/><rect fill="none" height="117.5313" style="stroke:#000000;stroke-width:1.5;" width="459.5" x="686" y="608.625"/><rect fill="none" height="104.5313" style="stroke:#000000;stroke-width:1.5;" width="823" x="322.5" y="784.4219"/><rect fill="none" height="162.4688" style="stroke:#000000;stroke-width:1.5;" width="923" x="322.5" y="990.3516"/><rect fill="none" height="75.3984" style="stroke:#000000;stroke-width:1.5;" width="523.5" x="622" y="1429.0156"/><line style="stroke:#181818;stroke-width:0.5;stroke-dasharray:5.0,5.0;" x1="82" x2="82" y1="36.2969" y2="1594.8125"/><line style="stroke:#181818;stroke-width:0.5;stroke-dasharray:5.0,5.0;" x1="410.5" x2="410.5" y1="36.2969" y2="1594.8125"/><line style="stroke:#181818;stroke-width:0.5;stroke-dasharray:5.0,5.0;" x1="659" x2="659" y1="36.2969" y2="1594.8125"/><line style="stroke:#181818;stroke-width:0.5;stroke-dasharray:5.0,5.0;" x1="784" x2="784" y1="36.2969" y2="1594.8125"/><line style="stroke:#181818;stroke-width:0.5;stroke-dasharray:5.0,5.0;" x1="1066.5" x2="1066.5" y1="36.2969" y2="1594.8125"/><line style="stroke:#181818;stroke-width:0.5;stroke-dasharray:5.0,5.0;" x1="1190.5" x2="1190.5" y1="36.2969" y2="1594.8125"/><line style="stroke:#181818;stroke-width:0.5;stroke-dasharray:5.0,5.0;" x1="1372" x2="1372" y1="36.2969" y2="1594.8125"/><line style="stroke:#181818;stroke-width:0.5;stroke-dasharray:5.0,5.0;" x1="1534" x2="1534" y1="36.2969" y2="1594.8125"/><line style="stroke:#181818;stroke-width:0.5;stroke-dasharray:5.0,5.0;" x1="1695" x2="1695" y1="36.2969" y2="1594.8125"/><rect fill="#E2E2F0" height="30.2969" rx="2.5" ry="2.5" style="stroke:#181818;stroke-width:0.5;" width="124" x="20" y="5"/><text fill="#000000" font-family="sans-serif" font-size="14" lengthAdjust="spacing" textLength="110" x="27" y="24.9951">Project Sponsor</text><rect fill="#E2E2F0" height="30.2969" rx="2.5" ry="2.5" style="stroke:#181818;stroke-width:0.5;" width="124" x="20" y="1593.8125"/><text fill="#000000" font-family="sans-serif" font-size="14" lengthAdjust="spacing" textLength="110" x="27" y="1613.8076">Project Sponsor</text><rect fill="#E2E2F0" height="30.2969" rx="2.5" ry="2.5" style="stroke:#181818;stroke-width:0.5;" width="157" x="332.5" y="5"/><text fill="#000000" font-family="sans-serif" font-size="14" lengthAdjust="spacing" textLength="143" x="339.5" y="24.9951">AI Governance Office</text><rect fill="#E2E2F0" height="30.2969" rx="2.5" ry="2.5" style="stroke:#181818;stroke-width:0.5;" width="157" x="332.5" y="1593.8125"/><text fill="#000000" font-family="sans-serif" font-size="14" lengthAdjust="spacing" textLength="143" x="339.5" y="1613.8076">AI Governance Office</text><rect fill="#E2E2F0" height="30.2969" rx="2.5" ry="2.5" style="stroke:#181818;stroke-width:0.5;" width="54" x="632" y="5"/><text fill="#000000" font-family="sans-serif" font-size="14" lengthAdjust="spacing" textLength="40" x="639" y="24.9951">AI-IRB</text><rect fill="#E2E2F0" height="30.2969" rx="2.5" ry="2.5" style="stroke:#181818;stroke-width:0.5;" width="54" x="632" y="1593.8125"/><text fill="#000000" font-family="sans-serif" font-size="14" lengthAdjust="spacing" textLength="40" x="639" y="1613.8076">AI-IRB</text><rect fill="#E2E2F0" height="30.2969" rx="2.5" ry="2.5" style="stroke:#181818;stroke-width:0.5;" width="176" x="696" y="5"/><text fill="#000000" font-family="sans-serif" font-size="14" lengthAdjust="spacing" textLength="162" x="703" y="24.9951">Data Scientist/Engineer</text><rect fill="#E2E2F0" height="30.2969" rx="2.5" ry="2.5" style="stroke:#181818;stroke-width:0.5;" width="176" x="696" y="1593.8125"/><text fill="#000000" font-family="sans-serif" font-size="14" lengthAdjust="spacing" textLength="162" x="703" y="1613.8076">Data Scientist/Engineer</text><rect fill="#E2E2F0" height="30.2969" rx="2.5" ry="2.5" style="stroke:#181818;stroke-width:0.5;" width="137" x="998.5" y="5"/><text fill="#000000" font-family="sans-serif" font-size="14" lengthAdjust="spacing" textLength="123" x="1005.5" y="24.9951">Quality Assurance</text><rect fill="#E2E2F0" height="30.2969" rx="2.5" ry="2.5" style="stroke:#181818;stroke-width:0.5;" width="137" x="998.5" y="1593.8125"/><text fill="#000000" font-family="sans-serif" font-size="14" lengthAdjust="spacing" textLength="123" x="1005.5" y="1613.8076">Quality Assurance</text><rect fill="#E2E2F0" height="30.2969" rx="2.5" ry="2.5" style="stroke:#181818;stroke-width:0.5;" width="90" x="1145.5" y="5"/><text fill="#000000" font-family="sans-serif" font-size="14" lengthAdjust="spacing" textLength="76" x="1152.5" y="24.9951">Operations</text><rect fill="#E2E2F0" height="30.2969" rx="2.5" ry="2.5" style="stroke:#181818;stroke-width:0.5;" width="90" x="1145.5" y="1593.8125"/><text fill="#000000" font-family="sans-serif" font-size="14" lengthAdjust="spacing" textLength="76" x="1152.5" y="1613.8076">Operations</text><rect fill="#E2E2F0" height="30.2969" rx="2.5" ry="2.5" style="stroke:#181818;stroke-width:0.5;" width="139" x="1303" y="5"/><text fill="#000000" font-family="sans-serif" font-size="14" lengthAdjust="spacing" textLength="125" x="1310" y="24.9951">Technical Support</text><rect fill="#E2E2F0" height="30.2969" rx="2.5" ry="2.5" style="stroke:#181818;stroke-width:0.5;" width="139" x="1303" y="1593.8125"/><text fill="#000000" font-family="sans-serif" font-size="14" lengthAdjust="spacing" textLength="125" x="1310" y="1613.8076">Technical Support</text><rect fill="#E2E2F0" height="30.2969" rx="2.5" ry="2.5" style="stroke:#181818;stroke-width:0.5;" width="164" x="1452" y="5"/><text fill="#000000" font-family="sans-serif" font-size="14" lengthAdjust="spacing" textLength="150" x="1459" y="24.9951">AI Compliance Auditor</text><rect fill="#E2E2F0" height="30.2969" rx="2.5" ry="2.5" style="stroke:#181818;stroke-width:0.5;" width="164" x="1452" y="1593.8125"/><text fill="#000000" font-family="sans-serif" font-size="14" lengthAdjust="spacing" textLength="150" x="1459" y="1613.8076">AI Compliance Auditor</text><rect fill="#E2E2F0" height="30.2969" rx="2.5" ry="2.5" style="stroke:#181818;stroke-width:0.5;" width="138" x="1626" y="5"/><text fill="#000000" font-family="sans-serif" font-size="14" lengthAdjust="spacing" textLength="124" x="1633" y="24.9951">Risk Management</text><rect fill="#E2E2F0" height="30.2969" rx="2.5" ry="2.5" style="stroke:#181818;stroke-width:0.5;" width="138" x="1626" y="1593.8125"/><text fill="#000000" font-family="sans-serif" font-size="14" lengthAdjust="spacing" textLength="124" x="1633" y="1613.8076">Risk Management</text><polygon fill="#181818" points="399,63.4297,409,67.4297,399,71.4297,403,67.4297" style="stroke:#181818;stroke-width:1.0;"/><line style="stroke:#181818;stroke-width:1.0;" x1="82" x2="405" y1="67.4297" y2="67.4297"/><text fill="#000000" font-family="sans-serif" font-size="13" lengthAdjust="spacing" textLength="305" x="89" y="62.3638">Propose AI Project with Validation Requirements</text><polygon fill="#181818" points="647,92.5625,657,96.5625,647,100.5625,651,96.5625" style="stroke:#181818;stroke-width:1.0;"/><line style="stroke:#181818;stroke-width:1.0;" x1="411" x2="653" y1="96.5625" y2="96.5625"/><text fill="#000000" font-family="sans-serif" font-size="13" lengthAdjust="spacing" textLength="224" x="418" y="91.4966">Submit AI Project for Ethical Review</text><path d="M10,111.5625 L74,111.5625 L74,118.6953 L64,128.6953 L10,128.6953 L10,111.5625 " fill="#EEEEEE" style="stroke:#000000;stroke-width:1.5;"/><rect fill="none" height="162.4688" style="stroke:#000000;stroke-width:1.5;" width="686" x="10" y="111.5625"/><text fill="#000000" font-family="sans-serif" font-size="13" font-weight="bold" lengthAdjust="spacing" textLength="19" x="25" y="124.6294">alt</text><text fill="#000000" font-family="sans-serif" font-size="11" font-weight="bold" lengthAdjust="spacing" textLength="94" x="89" y="123.7729">[IRB Approves]</text><polygon fill="#181818" points="422,145.8281,412,149.8281,422,153.8281,418,149.8281" style="stroke:#181818;stroke-width:1.0;"/><line style="stroke:#181818;stroke-width:1.0;" x1="416" x2="658" y1="149.8281" y2="149.8281"/><text fill="#000000" font-family="sans-serif" font-size="13" lengthAdjust="spacing" textLength="112" x="428" y="144.7622">Approval Granted</text><polygon fill="#181818" points="93,174.9609,83,178.9609,93,182.9609,89,178.9609" style="stroke:#181818;stroke-width:1.0;"/><line style="stroke:#181818;stroke-width:1.0;" x1="87" x2="410" y1="178.9609" y2="178.9609"/><text fill="#000000" font-family="sans-serif" font-size="13" lengthAdjust="spacing" textLength="181" x="99" y="173.895">Notifies Sponsor of Approval</text><line style="stroke:#000000;stroke-width:1.0;stroke-dasharray:2.0,2.0;" x1="10" x2="696" y1="187.9609" y2="187.9609"/><text fill="#000000" font-family="sans-serif" font-size="11" font-weight="bold" lengthAdjust="spacing" textLength="82" x="15" y="198.1714">[IRB Rejects]</text><polygon fill="#181818" points="422,218.8984,412,222.8984,422,226.8984,418,222.8984" style="stroke:#181818;stroke-width:1.0;"/><line style="stroke:#181818;stroke-width:1.0;" x1="416" x2="658" y1="222.8984" y2="222.8984"/><text fill="#000000" font-family="sans-serif" font-size="13" lengthAdjust="spacing" textLength="112" x="428" y="217.8325">Revision Required</text><polygon fill="#181818" points="93,248.0313,83,252.0313,93,256.0313,89,252.0313" style="stroke:#181818;stroke-width:1.0;"/><line style="stroke:#181818;stroke-width:1.0;" x1="87" x2="410" y1="252.0313" y2="252.0313"/><text fill="#000000" font-family="sans-serif" font-size="13" lengthAdjust="spacing" textLength="166" x="99" y="246.9653">Instruct to revise proposal</text><polygon fill="#181818" points="399,262.0313,409,266.0313,399,270.0313,403,266.0313" style="stroke:#181818;stroke-width:1.0;"/><line style="stroke:#181818;stroke-width:1.0;stroke-dasharray:2.0,2.0;" x1="82" x2="405" y1="266.0313" y2="266.0313"/><polygon fill="#181818" points="772,298.1641,782,302.1641,772,306.1641,776,302.1641" style="stroke:#181818;stroke-width:1.0;"/><line style="stroke:#181818;stroke-width:1.0;" x1="82" x2="778" y1="302.1641" y2="302.1641"/><text fill="#000000" font-family="sans-serif" font-size="13" lengthAdjust="spacing" textLength="161" x="89" y="297.0981">Begin Validation Planning</text><polygon fill="#181818" points="1055,342.4297,1065,346.4297,1055,350.4297,1059,346.4297" style="stroke:#181818;stroke-width:1.0;"/><line style="stroke:#181818;stroke-width:1.0;" x1="784" x2="1061" y1="346.4297" y2="346.4297"/><text fill="#000000" font-family="sans-serif" font-size="13" lengthAdjust="spacing" textLength="210" x="791" y="326.231">Collaborate on Validation Criteria</text><text fill="#000000" font-family="sans-serif" font-size="13" lengthAdjust="spacing" textLength="210" x="791" y="341.3638">(Performance, Bias, Compliance)</text><polygon fill="#181818" points="795,386.6953,785,390.6953,795,394.6953,791,390.6953" style="stroke:#181818;stroke-width:1.0;"/><line style="stroke:#181818;stroke-width:1.0;" x1="789" x2="1066" y1="390.6953" y2="390.6953"/><text fill="#000000" font-family="sans-serif" font-size="13" lengthAdjust="spacing" textLength="167" x="801" y="370.4966">Provide QA Test Plans and</text><text fill="#000000" font-family="sans-serif" font-size="13" lengthAdjust="spacing" textLength="69" x="801" y="385.6294">Thresholds</text><polygon fill="#181818" points="1178.5,415.8281,1188.5,419.8281,1178.5,423.8281,1182.5,419.8281" style="stroke:#181818;stroke-width:1.0;"/><line style="stroke:#181818;stroke-width:1.0;" x1="784" x2="1184.5" y1="419.8281" y2="419.8281"/><text fill="#000000" font-family="sans-serif" font-size="13" lengthAdjust="spacing" textLength="246" x="791" y="414.7622">Request Validation Environment Setup</text><polygon fill="#181818" points="795,444.9609,785,448.9609,795,452.9609,791,448.9609" style="stroke:#181818;stroke-width:1.0;"/><line style="stroke:#181818;stroke-width:1.0;" x1="789" x2="1189.5" y1="448.9609" y2="448.9609"/><text fill="#000000" font-family="sans-serif" font-size="13" lengthAdjust="spacing" textLength="191" x="801" y="443.895">Validation Environment Ready</text><line style="stroke:#181818;stroke-width:1.0;" x1="784" x2="826" y1="493.2266" y2="493.2266"/><line style="stroke:#181818;stroke-width:1.0;" x1="826" x2="826" y1="493.2266" y2="506.2266"/><line style="stroke:#181818;stroke-width:1.0;" x1="785" x2="826" y1="506.2266" y2="506.2266"/><polygon fill="#181818" points="795,502.2266,785,506.2266,795,510.2266,791,506.2266" style="stroke:#181818;stroke-width:1.0;"/><text fill="#000000" font-family="sans-serif" font-size="13" lengthAdjust="spacing" textLength="169" x="791" y="473.0278">Conduct Model Pre-checks</text><text fill="#000000" font-family="sans-serif" font-size="13" lengthAdjust="spacing" textLength="126" x="791" y="488.1606">(Internal Unit Tests)</text><polygon fill="#181818" points="1055,531.3594,1065,535.3594,1055,539.3594,1059,535.3594" style="stroke:#181818;stroke-width:1.0;"/><line style="stroke:#181818;stroke-width:1.0;" x1="784" x2="1061" y1="535.3594" y2="535.3594"/><text fill="#000000" font-family="sans-serif" font-size="13" lengthAdjust="spacing" textLength="240" x="791" y="530.2935">Handover Model for Formal Validation</text><polygon fill="#181818" points="795,560.4922,785,564.4922,795,568.4922,791,564.4922" style="stroke:#181818;stroke-width:1.0;"/><line style="stroke:#181818;stroke-width:1.0;" x1="789" x2="1066" y1="564.4922" y2="564.4922"/><text fill="#000000" font-family="sans-serif" font-size="13" lengthAdjust="spacing" textLength="259" x="801" y="559.4263">Execute Functional &amp; Performance Tests</text><polygon fill="#181818" points="795,589.625,785,593.625,795,597.625,791,593.625" style="stroke:#181818;stroke-width:1.0;"/><line style="stroke:#181818;stroke-width:1.0;" x1="789" x2="1066" y1="593.625" y2="593.625"/><text fill="#000000" font-family="sans-serif" font-size="13" lengthAdjust="spacing" textLength="128" x="801" y="588.5591">Provide Test Results</text><path d="M686,608.625 L750,608.625 L750,615.7578 L740,625.7578 L686,625.7578 L686,608.625 " fill="#EEEEEE" style="stroke:#000000;stroke-width:1.5;"/><rect fill="none" height="117.5313" style="stroke:#000000;stroke-width:1.5;" width="459.5" x="686" y="608.625"/><text fill="#000000" font-family="sans-serif" font-size="13" font-weight="bold" lengthAdjust="spacing" textLength="19" x="701" y="621.6919">alt</text><text fill="#000000" font-family="sans-serif" font-size="11" font-weight="bold" lengthAdjust="spacing" textLength="143" x="765" y="620.8354">[Major Defects Found]</text><polygon fill="#181818" points="795,642.8906,785,646.8906,795,650.8906,791,646.8906" style="stroke:#181818;stroke-width:1.0;"/><line style="stroke:#181818;stroke-width:1.0;" x1="789" x2="1066" y1="646.8906" y2="646.8906"/><text fill="#000000" font-family="sans-serif" font-size="13" lengthAdjust="spacing" textLength="141" x="801" y="641.8247">Return Model for Fixes</text><line style="stroke:#181818;stroke-width:1.0;" x1="784" x2="826" y1="676.0234" y2="676.0234"/><line style="stroke:#181818;stroke-width:1.0;" x1="826" x2="826" y1="676.0234" y2="689.0234"/><line style="stroke:#181818;stroke-width:1.0;" x1="785" x2="826" y1="689.0234" y2="689.0234"/><polygon fill="#181818" points="795,685.0234,785,689.0234,795,693.0234,791,689.0234" style="stroke:#181818;stroke-width:1.0;"/><text fill="#000000" font-family="sans-serif" font-size="13" lengthAdjust="spacing" textLength="102" x="791" y="670.9575">Resolve Defects</text><polygon fill="#181818" points="1055,714.1563,1065,718.1563,1055,722.1563,1059,718.1563" style="stroke:#181818;stroke-width:1.0;"/><line style="stroke:#181818;stroke-width:1.0;" x1="784" x2="1061" y1="718.1563" y2="718.1563"/><text fill="#000000" font-family="sans-serif" font-size="13" lengthAdjust="spacing" textLength="195" x="791" y="713.0903">Re-submit Model for Validation</text><polygon fill="#181818" points="795,765.4219,785,769.4219,795,773.4219,791,769.4219" style="stroke:#181818;stroke-width:1.0;"/><line style="stroke:#181818;stroke-width:1.0;" x1="789" x2="1066" y1="769.4219" y2="769.4219"/><text fill="#000000" font-family="sans-serif" font-size="13" lengthAdjust="spacing" textLength="155" x="801" y="749.2231">Validate Bias &amp; Fairness</text><text fill="#000000" font-family="sans-serif" font-size="13" lengthAdjust="spacing" textLength="164" x="801" y="764.356">(Consult SOP-1301-01-AI)</text><path d="M322.5,784.4219 L386.5,784.4219 L386.5,791.5547 L376.5,801.5547 L322.5,801.5547 L322.5,784.4219 " fill="#EEEEEE" style="stroke:#000000;stroke-width:1.5;"/><rect fill="none" height="104.5313" style="stroke:#000000;stroke-width:1.5;" width="823" x="322.5" y="784.4219"/><text fill="#000000" font-family="sans-serif" font-size="13" font-weight="bold" lengthAdjust="spacing" textLength="19" x="337.5" y="797.4888">alt</text><text fill="#000000" font-family="sans-serif" font-size="11" font-weight="bold" lengthAdjust="spacing" textLength="82" x="401.5" y="796.6323">[Bias Found]</text><polygon fill="#181818" points="422,818.6875,412,822.6875,422,826.6875,418,822.6875" style="stroke:#181818;stroke-width:1.0;"/><line style="stroke:#181818;stroke-width:1.0;" x1="416" x2="1066" y1="822.6875" y2="822.6875"/><text fill="#000000" font-family="sans-serif" font-size="13" lengthAdjust="spacing" textLength="122" x="428" y="817.6216">Escalate Bias Issue</text><polygon fill="#181818" points="772,847.8203,782,851.8203,772,855.8203,776,851.8203" style="stroke:#181818;stroke-width:1.0;"/><line style="stroke:#181818;stroke-width:1.0;" x1="411" x2="778" y1="851.8203" y2="851.8203"/><text fill="#000000" font-family="sans-serif" font-size="13" lengthAdjust="spacing" textLength="122" x="418" y="846.7544">Mandate Mitigation</text><polygon fill="#181818" points="1055,876.9531,1065,880.9531,1055,884.9531,1059,880.9531" style="stroke:#181818;stroke-width:1.0;"/><line style="stroke:#181818;stroke-width:1.0;" x1="784" x2="1061" y1="880.9531" y2="880.9531"/><text fill="#000000" font-family="sans-serif" font-size="13" lengthAdjust="spacing" textLength="157" x="791" y="875.8872">Implement Fix &amp; Re-Test</text><polygon fill="#181818" points="1055,913.0859,1065,917.0859,1055,921.0859,1059,917.0859" style="stroke:#181818;stroke-width:1.0;"/><line style="stroke:#181818;stroke-width:1.0;" x1="784" x2="1061" y1="917.0859" y2="917.0859"/><text fill="#000000" font-family="sans-serif" font-size="13" lengthAdjust="spacing" textLength="164" x="791" y="912.02">Finalize Validation Results</text><polygon fill="#181818" points="422,942.2188,412,946.2188,422,950.2188,418,946.2188" style="stroke:#181818;stroke-width:1.0;"/><line style="stroke:#181818;stroke-width:1.0;" x1="416" x2="1066" y1="946.2188" y2="946.2188"/><text fill="#000000" font-family="sans-serif" font-size="13" lengthAdjust="spacing" textLength="165" x="428" y="941.1528">Compile Validation Report</text><polygon fill="#181818" points="647,971.3516,657,975.3516,647,979.3516,651,975.3516" style="stroke:#181818;stroke-width:1.0;"/><line style="stroke:#181818;stroke-width:1.0;" x1="411" x2="653" y1="975.3516" y2="975.3516"/><text fill="#000000" font-family="sans-serif" font-size="13" lengthAdjust="spacing" textLength="186" x="418" y="970.2856">Present Validation Outcomes</text><path d="M322.5,990.3516 L386.5,990.3516 L386.5,997.4844 L376.5,1007.4844 L322.5,1007.4844 L322.5,990.3516 " fill="#EEEEEE" style="stroke:#000000;stroke-width:1.5;"/><rect fill="none" height="162.4688" style="stroke:#000000;stroke-width:1.5;" width="923" x="322.5" y="990.3516"/><text fill="#000000" font-family="sans-serif" font-size="13" font-weight="bold" lengthAdjust="spacing" textLength="19" x="337.5" y="1003.4185">alt</text><text fill="#000000" font-family="sans-serif" font-size="11" font-weight="bold" lengthAdjust="spacing" textLength="85" x="401.5" y="1002.562">[IRB Accepts]</text><polygon fill="#181818" points="422,1024.6172,412,1028.6172,422,1032.6172,418,1028.6172" style="stroke:#181818;stroke-width:1.0;"/><line style="stroke:#181818;stroke-width:1.0;" x1="416" x2="658" y1="1028.6172" y2="1028.6172"/><text fill="#000000" font-family="sans-serif" font-size="13" lengthAdjust="spacing" textLength="97" x="428" y="1023.5513">Final Clearance</text><polygon fill="#181818" points="1178.5,1053.75,1188.5,1057.75,1178.5,1061.75,1182.5,1057.75" style="stroke:#181818;stroke-width:1.0;"/><line style="stroke:#181818;stroke-width:1.0;" x1="411" x2="1184.5" y1="1057.75" y2="1057.75"/><text fill="#000000" font-family="sans-serif" font-size="13" lengthAdjust="spacing" textLength="143" x="418" y="1052.6841">Authorize Deployment</text><line style="stroke:#000000;stroke-width:1.0;stroke-dasharray:2.0,2.0;" x1="322.5" x2="1245.5" y1="1066.75" y2="1066.75"/><text fill="#000000" font-family="sans-serif" font-size="11" font-weight="bold" lengthAdjust="spacing" textLength="192" x="327.5" y="1076.9604">[IRB Requests Additional Info]</text><polygon fill="#181818" points="422,1097.6875,412,1101.6875,422,1105.6875,418,1101.6875" style="stroke:#181818;stroke-width:1.0;"/><line style="stroke:#181818;stroke-width:1.0;" x1="416" x2="658" y1="1101.6875" y2="1101.6875"/><text fill="#000000" font-family="sans-serif" font-size="13" lengthAdjust="spacing" textLength="146" x="428" y="1096.6216">Additional clarifications</text><polygon fill="#181818" points="772,1126.8203,782,1130.8203,772,1134.8203,776,1130.8203" style="stroke:#181818;stroke-width:1.0;"/><line style="stroke:#181818;stroke-width:1.0;" x1="411" x2="778" y1="1130.8203" y2="1130.8203"/><text fill="#000000" font-family="sans-serif" font-size="13" lengthAdjust="spacing" textLength="106" x="418" y="1125.7544">Must Re-validate</text><polygon fill="#181818" points="422,1140.8203,412,1144.8203,422,1148.8203,418,1144.8203" style="stroke:#181818;stroke-width:1.0;"/><line style="stroke:#181818;stroke-width:1.0;stroke-dasharray:2.0,2.0;" x1="416" x2="783" y1="1144.8203" y2="1144.8203"/><polygon fill="#181818" points="795,1176.9531,785,1180.9531,795,1184.9531,791,1180.9531" style="stroke:#181818;stroke-width:1.0;"/><line style="stroke:#181818;stroke-width:1.0;" x1="789" x2="1189.5" y1="1180.9531" y2="1180.9531"/><text fill="#000000" font-family="sans-serif" font-size="13" lengthAdjust="spacing" textLength="150" x="801" y="1175.8872">Deploy Validated Model</text><polygon fill="#181818" points="1360.5,1206.0859,1370.5,1210.0859,1360.5,1214.0859,1364.5,1210.0859" style="stroke:#181818;stroke-width:1.0;"/><line style="stroke:#181818;stroke-width:1.0;" x1="1190.5" x2="1366.5" y1="1210.0859" y2="1210.0859"/><text fill="#000000" font-family="sans-serif" font-size="13" lengthAdjust="spacing" textLength="158" x="1197.5" y="1205.02">Prepare Monitoring Tools</text><polygon fill="#181818" points="795,1235.2188,785,1239.2188,795,1243.2188,791,1239.2188" style="stroke:#181818;stroke-width:1.0;"/><line style="stroke:#181818;stroke-width:1.0;" x1="789" x2="1371.5" y1="1239.2188" y2="1239.2188"/><text fill="#000000" font-family="sans-serif" font-size="13" lengthAdjust="spacing" textLength="190" x="801" y="1234.1528">Provide Operational Feedback</text><polygon fill="#181818" points="1178.5,1264.3516,1188.5,1268.3516,1178.5,1272.3516,1182.5,1268.3516" style="stroke:#181818;stroke-width:1.0;"/><line style="stroke:#181818;stroke-width:1.0;" x1="784" x2="1184.5" y1="1268.3516" y2="1268.3516"/><text fill="#000000" font-family="sans-serif" font-size="13" lengthAdjust="spacing" textLength="203" x="791" y="1263.2856">Analyze Real-Time Performance</text><polygon fill="#181818" points="1683,1308.6172,1693,1312.6172,1683,1316.6172,1687,1312.6172" style="stroke:#181818;stroke-width:1.0;"/><line style="stroke:#181818;stroke-width:1.0;" x1="784" x2="1689" y1="1312.6172" y2="1312.6172"/><text fill="#000000" font-family="sans-serif" font-size="13" lengthAdjust="spacing" textLength="159" x="791" y="1292.4185">Identify Potential Risks or</text><text fill="#000000" font-family="sans-serif" font-size="13" lengthAdjust="spacing" textLength="170" x="791" y="1307.5513">Performance Deterioration</text><rect fill="#EEEEEE" height="3" style="stroke:#EEEEEE;stroke-width:1.0;" width="1769" x="0" y="1341.1836"/><line style="stroke:#000000;stroke-width:1.0;" x1="0" x2="1769" y1="1341.1836" y2="1341.1836"/><line style="stroke:#000000;stroke-width:1.0;" x1="0" x2="1769" y1="1344.1836" y2="1344.1836"/><rect fill="#EEEEEE" height="23.1328" style="stroke:#000000;stroke-width:2.0;" width="185" x="792" y="1330.6172"/><text fill="#000000" font-family="sans-serif" font-size="13" font-weight="bold" lengthAdjust="spacing" textLength="166" x="798" y="1346.6841">Continuous Monitoring</text><polygon fill="#181818" points="795,1380.8828,785,1384.8828,795,1388.8828,791,1384.8828" style="stroke:#181818;stroke-width:1.0;"/><line style="stroke:#181818;stroke-width:1.0;" x1="789" x2="1189.5" y1="1384.8828" y2="1384.8828"/><text fill="#000000" font-family="sans-serif" font-size="13" lengthAdjust="spacing" textLength="183" x="801" y="1379.8169">Provide Performance Metrics</text><polygon fill="#181818" points="1055,1410.0156,1065,1414.0156,1055,1418.0156,1059,1414.0156" style="stroke:#181818;stroke-width:1.0;"/><line style="stroke:#181818;stroke-width:1.0;" x1="784" x2="1061" y1="1414.0156" y2="1414.0156"/><text fill="#000000" font-family="sans-serif" font-size="13" lengthAdjust="spacing" textLength="191" x="791" y="1408.9497">Check for Degradation or Drift</text><path d="M622,1429.0156 L686,1429.0156 L686,1436.1484 L676,1446.1484 L622,1446.1484 L622,1429.0156 " fill="#EEEEEE" style="stroke:#000000;stroke-width:1.5;"/><rect fill="none" height="75.3984" style="stroke:#000000;stroke-width:1.5;" width="523.5" x="622" y="1429.0156"/><text fill="#000000" font-family="sans-serif" font-size="13" font-weight="bold" lengthAdjust="spacing" textLength="19" x="637" y="1442.0825">alt</text><text fill="#000000" font-family="sans-serif" font-size="11" font-weight="bold" lengthAdjust="spacing" textLength="174" x="701" y="1441.2261">[Drift or Performance Drop]</text><polygon fill="#181818" points="1055,1463.2813,1065,1467.2813,1055,1471.2813,1059,1467.2813" style="stroke:#181818;stroke-width:1.0;"/><line style="stroke:#181818;stroke-width:1.0;" x1="784" x2="1061" y1="1467.2813" y2="1467.2813"/><text fill="#000000" font-family="sans-serif" font-size="13" lengthAdjust="spacing" textLength="163" x="791" y="1462.2153">Raise Revalidation Trigger</text><polygon fill="#181818" points="670,1492.4141,660,1496.4141,670,1500.4141,666,1496.4141" style="stroke:#181818;stroke-width:1.0;"/><line style="stroke:#181818;stroke-width:1.0;" x1="664" x2="1066" y1="1496.4141" y2="1496.4141"/><text fill="#000000" font-family="sans-serif" font-size="13" lengthAdjust="spacing" textLength="175" x="676" y="1491.3481">Seek Re-approval if needed</text><polygon fill="#181818" points="1522,1528.5469,1532,1532.5469,1522,1536.5469,1526,1532.5469" style="stroke:#181818;stroke-width:1.0;"/><line style="stroke:#181818;stroke-width:1.0;" x1="784" x2="1528" y1="1532.5469" y2="1532.5469"/><text fill="#000000" font-family="sans-serif" font-size="13" lengthAdjust="spacing" textLength="187" x="791" y="1527.481">Periodic Audit for Compliance</text><polygon fill="#181818" points="795,1572.8125,785,1576.8125,795,1580.8125,791,1576.8125" style="stroke:#181818;stroke-width:1.0;"/><line style="stroke:#181818;stroke-width:1.0;" x1="789" x2="1533" y1="1576.8125" y2="1576.8125"/><text fill="#000000" font-family="sans-serif" font-size="13" lengthAdjust="spacing" textLength="142" x="801" y="1556.6138">Review Logs, Fairness,</text><text fill="#000000" font-family="sans-serif" font-size="13" lengthAdjust="spacing" textLength="137" x="801" y="1571.7466">Regulatory Alignment</text><!--MD5=[f431727a830f85045fd42a8dbf333054]
@startuml
participant "Project Sponsor" as PS
participant "AI Governance Office" as AIGO
participant "AI-IRB" as IRB
participant "Data Scientist/Engineer" as DS
participant "Quality Assurance" as QA
participant "Operations" as OPS
participant "Technical Support" as TS
participant "AI Compliance Auditor" as AUD
participant "Risk Management" as RM

PS -> AIGO: Propose AI Project with Validation Requirements
AIGO -> IRB: Submit AI Project for Ethical Review
alt IRB Approves
    IRB -> AIGO: Approval Granted
    AIGO -> PS: Notifies Sponsor of Approval
else IRB Rejects
    IRB -> AIGO: Revision Required
    AIGO -> PS: Instruct to revise proposal
    return
end

PS -> DS: Begin Validation Planning
DS -> QA: Collaborate on Validation Criteria \n(Performance, Bias, Compliance)
QA -> DS: Provide QA Test Plans and \nThresholds
DS -> OPS: Request Validation Environment Setup
OPS -> DS: Validation Environment Ready
DS -> DS: Conduct Model Pre-checks \n(Internal Unit Tests)

DS -> QA: Handover Model for Formal Validation
QA -> DS: Execute Functional & Performance Tests
QA -> DS: Provide Test Results
alt Major Defects Found
    QA -> DS: Return Model for Fixes
    DS -> DS: Resolve Defects
    DS -> QA: Re-submit Model for Validation
end
QA -> DS: Validate Bias & Fairness \n(Consult SOP-1301-01-AI)
alt Bias Found
    QA -> AIGO: Escalate Bias Issue
    AIGO -> DS: Mandate Mitigation
    DS -> QA: Implement Fix & Re-Test
end

DS -> QA: Finalize Validation Results
QA -> AIGO: Compile Validation Report

AIGO -> IRB: Present Validation Outcomes
alt IRB Accepts
    IRB -> AIGO: Final Clearance
    AIGO -> OPS: Authorize Deployment
else IRB Requests Additional Info
    IRB -> AIGO: Additional clarifications
    AIGO -> DS: Must Re-validate
    return
end

OPS -> DS: Deploy Validated Model
OPS -> TS: Prepare Monitoring Tools
TS -> DS: Provide Operational Feedback
DS -> OPS: Analyze Real-Time Performance
DS -> RM: Identify Potential Risks or \nPerformance Deterioration

== Continuous Monitoring ==
OPS -> DS: Provide Performance Metrics
DS -> QA: Check for Degradation or Drift
alt Drift or Performance Drop
    DS -> QA: Raise Revalidation Trigger
    QA -> IRB: Seek Re-approval if needed
end
DS -> AUD: Periodic Audit for Compliance
AUD -> DS: Review Logs, Fairness, \nRegulatory Alignment
@enduml

PlantUML version 1.2022.7(Mon Aug 22 17:01:30 UTC 2022)
(GPL source distribution)
Java Runtime: OpenJDK Runtime Environment
JVM: OpenJDK 64-Bit Server VM
Default Encoding: UTF-8
Language: en
Country: null
--></g></svg>