<?xml version="1.0" encoding="UTF-8" standalone="no"?><svg xmlns="http://www.w3.org/2000/svg" xmlns:xlink="http://www.w3.org/1999/xlink" contentStyleType="text/css" height="1330px" preserveAspectRatio="none" style="width:1577px;height:1330px;background:#FFFFFF;" version="1.1" viewBox="0 0 1577 1330" width="1577px" zoomAndPan="magnify"><defs/><g><rect fill="none" height="320.8047" style="stroke:#000000;stroke-width:1.5;" width="667" x="431" y="396.625"/><rect fill="none" height="161.4688" style="stroke:#000000;stroke-width:1.5;" width="417" x="441" y="492.0234"/><rect fill="none" height="103.2031" style="stroke:#000000;stroke-width:1.5;" width="637" x="10" y="1032.625"/><line style="stroke:#181818;stroke-width:0.5;stroke-dasharray:5.0,5.0;" x1="137" x2="137" y1="36.2969" y2="1295.3594"/><line style="stroke:#181818;stroke-width:0.5;stroke-dasharray:5.0,5.0;" x1="519" x2="519" y1="36.2969" y2="1295.3594"/><line style="stroke:#181818;stroke-width:0.5;stroke-dasharray:5.0,5.0;" x1="821" x2="821" y1="36.2969" y2="1295.3594"/><line style="stroke:#181818;stroke-width:0.5;stroke-dasharray:5.0,5.0;" x1="1093" x2="1093" y1="36.2969" y2="1295.3594"/><line style="stroke:#181818;stroke-width:0.5;stroke-dasharray:5.0,5.0;" x1="1285.5" x2="1285.5" y1="36.2969" y2="1295.3594"/><line style="stroke:#181818;stroke-width:0.5;stroke-dasharray:5.0,5.0;" x1="1526" x2="1526" y1="36.2969" y2="1295.3594"/><rect fill="#E2E2F0" height="30.2969" rx="2.5" ry="2.5" style="stroke:#181818;stroke-width:0.5;" width="234" x="20" y="5"/><text fill="#000000" font-family="sans-serif" font-size="14" lengthAdjust="spacing" textLength="220" x="27" y="24.9951">AI Document Governance Team</text><rect fill="#E2E2F0" height="30.2969" rx="2.5" ry="2.5" style="stroke:#181818;stroke-width:0.5;" width="234" x="20" y="1294.3594"/><text fill="#000000" font-family="sans-serif" font-size="14" lengthAdjust="spacing" textLength="220" x="27" y="1314.3545">AI Document Governance Team</text><rect fill="#E2E2F0" height="30.2969" rx="2.5" ry="2.5" style="stroke:#181818;stroke-width:0.5;" width="136" x="451" y="5"/><text fill="#000000" font-family="sans-serif" font-size="14" lengthAdjust="spacing" textLength="122" x="458" y="24.9951">Document Owner</text><rect fill="#E2E2F0" height="30.2969" rx="2.5" ry="2.5" style="stroke:#181818;stroke-width:0.5;" width="136" x="451" y="1294.3594"/><text fill="#000000" font-family="sans-serif" font-size="14" lengthAdjust="spacing" textLength="122" x="458" y="1314.3545">Document Owner</text><rect fill="#E2E2F0" height="30.2969" rx="2.5" ry="2.5" style="stroke:#181818;stroke-width:0.5;" width="54" x="794" y="5"/><text fill="#000000" font-family="sans-serif" font-size="14" lengthAdjust="spacing" textLength="40" x="801" y="24.9951">AI-IRB</text><rect fill="#E2E2F0" height="30.2969" rx="2.5" ry="2.5" style="stroke:#181818;stroke-width:0.5;" width="54" x="794" y="1294.3594"/><text fill="#000000" font-family="sans-serif" font-size="14" lengthAdjust="spacing" textLength="40" x="801" y="1314.3545">AI-IRB</text><rect fill="#E2E2F0" height="30.2969" rx="2.5" ry="2.5" style="stroke:#181818;stroke-width:0.5;" width="126" x="1030" y="5"/><text fill="#000000" font-family="sans-serif" font-size="14" lengthAdjust="spacing" textLength="112" x="1037" y="24.9951">Project Manager</text><rect fill="#E2E2F0" height="30.2969" rx="2.5" ry="2.5" style="stroke:#181818;stroke-width:0.5;" width="126" x="1030" y="1294.3594"/><text fill="#000000" font-family="sans-serif" font-size="14" lengthAdjust="spacing" textLength="112" x="1037" y="1314.3545">Project Manager</text><rect fill="#E2E2F0" height="30.2969" rx="2.5" ry="2.5" style="stroke:#181818;stroke-width:0.5;" width="137" x="1217.5" y="5"/><text fill="#000000" font-family="sans-serif" font-size="14" lengthAdjust="spacing" textLength="123" x="1224.5" y="24.9951">Quality Assurance</text><rect fill="#E2E2F0" height="30.2969" rx="2.5" ry="2.5" style="stroke:#181818;stroke-width:0.5;" width="137" x="1217.5" y="1294.3594"/><text fill="#000000" font-family="sans-serif" font-size="14" lengthAdjust="spacing" textLength="123" x="1224.5" y="1314.3545">Quality Assurance</text><rect fill="#E2E2F0" height="30.2969" rx="2.5" ry="2.5" style="stroke:#181818;stroke-width:0.5;" width="90" x="1481" y="5"/><text fill="#000000" font-family="sans-serif" font-size="14" lengthAdjust="spacing" textLength="76" x="1488" y="24.9951">Operations</text><rect fill="#E2E2F0" height="30.2969" rx="2.5" ry="2.5" style="stroke:#181818;stroke-width:0.5;" width="90" x="1481" y="1294.3594"/><text fill="#000000" font-family="sans-serif" font-size="14" lengthAdjust="spacing" textLength="76" x="1488" y="1314.3545">Operations</text><line style="stroke:#181818;stroke-width:1.0;" x1="519" x2="561" y1="67.4297" y2="67.4297"/><line style="stroke:#181818;stroke-width:1.0;" x1="561" x2="561" y1="67.4297" y2="80.4297"/><line style="stroke:#181818;stroke-width:1.0;" x1="520" x2="561" y1="80.4297" y2="80.4297"/><polygon fill="#181818" points="530,76.4297,520,80.4297,530,84.4297,526,80.4297" style="stroke:#181818;stroke-width:1.0;"/><text fill="#000000" font-family="sans-serif" font-size="13" lengthAdjust="spacing" textLength="278" x="526" y="62.3638">"Identify need for new or revised document"</text><polygon fill="#181818" points="148,105.5625,138,109.5625,148,113.5625,144,109.5625" style="stroke:#181818;stroke-width:1.0;"/><line style="stroke:#181818;stroke-width:1.0;" x1="142" x2="518" y1="109.5625" y2="109.5625"/><text fill="#000000" font-family="sans-serif" font-size="13" lengthAdjust="spacing" textLength="236" x="154" y="104.4966">"Request official template/guidelines"</text><polygon fill="#181818" points="507,134.6953,517,138.6953,507,142.6953,511,138.6953" style="stroke:#181818;stroke-width:1.0;"/><line style="stroke:#181818;stroke-width:1.0;" x1="137" x2="513" y1="138.6953" y2="138.6953"/><text fill="#000000" font-family="sans-serif" font-size="13" lengthAdjust="spacing" textLength="248" x="144" y="133.6294">"Send template, compliance guidance"</text><line style="stroke:#181818;stroke-width:1.0;" x1="519" x2="561" y1="167.8281" y2="167.8281"/><line style="stroke:#181818;stroke-width:1.0;" x1="561" x2="561" y1="167.8281" y2="180.8281"/><line style="stroke:#181818;stroke-width:1.0;" x1="520" x2="561" y1="180.8281" y2="180.8281"/><polygon fill="#181818" points="530,176.8281,520,180.8281,530,184.8281,526,180.8281" style="stroke:#181818;stroke-width:1.0;"/><text fill="#000000" font-family="sans-serif" font-size="13" lengthAdjust="spacing" textLength="213" x="526" y="162.7622">"Draft doc using official template"</text><line style="stroke:#181818;stroke-width:1.0;" x1="519" x2="561" y1="209.9609" y2="209.9609"/><line style="stroke:#181818;stroke-width:1.0;" x1="561" x2="561" y1="209.9609" y2="222.9609"/><line style="stroke:#181818;stroke-width:1.0;" x1="520" x2="561" y1="222.9609" y2="222.9609"/><polygon fill="#181818" points="530,218.9609,520,222.9609,530,226.9609,526,222.9609" style="stroke:#181818;stroke-width:1.0;"/><text fill="#000000" font-family="sans-serif" font-size="13" lengthAdjust="spacing" textLength="232" x="526" y="204.895">"Collect SME inputs, add references"</text><polygon fill="#181818" points="1081,248.0938,1091,252.0938,1081,256.0938,1085,252.0938" style="stroke:#181818;stroke-width:1.0;"/><line style="stroke:#181818;stroke-width:1.0;" x1="519" x2="1087" y1="252.0938" y2="252.0938"/><text fill="#000000" font-family="sans-serif" font-size="13" lengthAdjust="spacing" textLength="207" x="526" y="247.0278">"Submit draft for internal review"</text><polygon fill="#181818" points="530,277.2266,520,281.2266,530,285.2266,526,281.2266" style="stroke:#181818;stroke-width:1.0;"/><line style="stroke:#181818;stroke-width:1.0;" x1="524" x2="1092" y1="281.2266" y2="281.2266"/><text fill="#000000" font-family="sans-serif" font-size="13" lengthAdjust="spacing" textLength="170" x="536" y="276.1606">"Review, provide feedback"</text><polygon fill="#181818" points="1274,306.3594,1284,310.3594,1274,314.3594,1278,310.3594" style="stroke:#181818;stroke-width:1.0;"/><line style="stroke:#181818;stroke-width:1.0;" x1="519" x2="1280" y1="310.3594" y2="310.3594"/><text fill="#000000" font-family="sans-serif" font-size="13" lengthAdjust="spacing" textLength="289" x="526" y="305.2935">"Optional SME review (technical correctness)"</text><polygon fill="#181818" points="530,335.4922,520,339.4922,530,343.4922,526,339.4922" style="stroke:#181818;stroke-width:1.0;"/><line style="stroke:#181818;stroke-width:1.0;" x1="524" x2="1285" y1="339.4922" y2="339.4922"/><text fill="#000000" font-family="sans-serif" font-size="13" lengthAdjust="spacing" textLength="161" x="536" y="334.4263">"Comments, minor edits"</text><line style="stroke:#181818;stroke-width:1.0;" x1="519" x2="561" y1="368.625" y2="368.625"/><line style="stroke:#181818;stroke-width:1.0;" x1="561" x2="561" y1="368.625" y2="381.625"/><line style="stroke:#181818;stroke-width:1.0;" x1="520" x2="561" y1="381.625" y2="381.625"/><polygon fill="#181818" points="530,377.625,520,381.625,530,385.625,526,381.625" style="stroke:#181818;stroke-width:1.0;"/><text fill="#000000" font-family="sans-serif" font-size="13" lengthAdjust="spacing" textLength="288" x="526" y="363.5591">"Check if doc addresses high-risk AI feature?"</text><path d="M431,396.625 L495,396.625 L495,403.7578 L485,413.7578 L431,413.7578 L431,396.625 " fill="#EEEEEE" style="stroke:#000000;stroke-width:1.5;"/><rect fill="none" height="320.8047" style="stroke:#000000;stroke-width:1.5;" width="667" x="431" y="396.625"/><text fill="#000000" font-family="sans-serif" font-size="13" font-weight="bold" lengthAdjust="spacing" textLength="19" x="446" y="409.6919">alt</text><text fill="#000000" font-family="sans-serif" font-size="11" font-weight="bold" lengthAdjust="spacing" textLength="125" x="510" y="408.8354">[High-Risk Content]</text><polygon fill="#181818" points="809,430.8906,819,434.8906,809,438.8906,813,434.8906" style="stroke:#181818;stroke-width:1.0;"/><line style="stroke:#181818;stroke-width:1.0;" x1="519" x2="815" y1="434.8906" y2="434.8906"/><text fill="#000000" font-family="sans-serif" font-size="13" lengthAdjust="spacing" textLength="141" x="526" y="429.8247">"Submit doc to AI-IRB"</text><line style="stroke:#181818;stroke-width:1.0;" x1="821" x2="863" y1="464.0234" y2="464.0234"/><line style="stroke:#181818;stroke-width:1.0;" x1="863" x2="863" y1="464.0234" y2="477.0234"/><line style="stroke:#181818;stroke-width:1.0;" x1="822" x2="863" y1="477.0234" y2="477.0234"/><polygon fill="#181818" points="832,473.0234,822,477.0234,832,481.0234,828,477.0234" style="stroke:#181818;stroke-width:1.0;"/><text fill="#000000" font-family="sans-serif" font-size="13" lengthAdjust="spacing" textLength="258" x="828" y="458.9575">"Review doc for legal/ethical compliance"</text><path d="M441,492.0234 L505,492.0234 L505,499.1563 L495,509.1563 L441,509.1563 L441,492.0234 " fill="#EEEEEE" style="stroke:#000000;stroke-width:1.5;"/><rect fill="none" height="161.4688" style="stroke:#000000;stroke-width:1.5;" width="417" x="441" y="492.0234"/><text fill="#000000" font-family="sans-serif" font-size="13" font-weight="bold" lengthAdjust="spacing" textLength="19" x="456" y="505.0903">alt</text><text fill="#000000" font-family="sans-serif" font-size="11" font-weight="bold" lengthAdjust="spacing" textLength="70" x="520" y="504.2339">[Approved]</text><polygon fill="#181818" points="530,526.2891,520,530.2891,530,534.2891,526,530.2891" style="stroke:#181818;stroke-width:1.0;"/><line style="stroke:#181818;stroke-width:1.0;" x1="524" x2="820" y1="530.2891" y2="530.2891"/><text fill="#000000" font-family="sans-serif" font-size="13" lengthAdjust="spacing" textLength="158" x="536" y="525.2231">"Doc accepted by AI-IRB"</text><line style="stroke:#000000;stroke-width:1.0;stroke-dasharray:2.0,2.0;" x1="441" x2="858" y1="539.2891" y2="539.2891"/><text fill="#000000" font-family="sans-serif" font-size="11" font-weight="bold" lengthAdjust="spacing" textLength="138" x="446" y="549.4995">[Changes Requested]</text><polygon fill="#181818" points="530,570.2266,520,574.2266,530,578.2266,526,574.2266" style="stroke:#181818;stroke-width:1.0;"/><line style="stroke:#181818;stroke-width:1.0;" x1="524" x2="820" y1="574.2266" y2="574.2266"/><text fill="#000000" font-family="sans-serif" font-size="13" lengthAdjust="spacing" textLength="159" x="536" y="569.1606">"Revise doc &amp; re-submit"</text><line style="stroke:#181818;stroke-width:1.0;" x1="519" x2="561" y1="603.3594" y2="603.3594"/><line style="stroke:#181818;stroke-width:1.0;" x1="561" x2="561" y1="603.3594" y2="616.3594"/><line style="stroke:#181818;stroke-width:1.0;" x1="520" x2="561" y1="616.3594" y2="616.3594"/><polygon fill="#181818" points="530,612.3594,520,616.3594,530,620.3594,526,616.3594" style="stroke:#181818;stroke-width:1.0;"/><text fill="#000000" font-family="sans-serif" font-size="13" lengthAdjust="spacing" textLength="269" x="526" y="598.2935">"Incorporate changes, re-submit to AI-IRB"</text><polygon fill="#181818" points="530,641.4922,520,645.4922,530,649.4922,526,645.4922" style="stroke:#181818;stroke-width:1.0;"/><line style="stroke:#181818;stroke-width:1.0;" x1="524" x2="820" y1="645.4922" y2="645.4922"/><text fill="#000000" font-family="sans-serif" font-size="13" lengthAdjust="spacing" textLength="98" x="536" y="640.4263">"Doc accepted"</text><line style="stroke:#000000;stroke-width:1.0;stroke-dasharray:2.0,2.0;" x1="431" x2="1098" y1="661.4922" y2="661.4922"/><text fill="#000000" font-family="sans-serif" font-size="11" font-weight="bold" lengthAdjust="spacing" textLength="91" x="436" y="671.7026">[No High-Risk]</text><line style="stroke:#181818;stroke-width:1.0;" x1="519" x2="561" y1="696.4297" y2="696.4297"/><line style="stroke:#181818;stroke-width:1.0;" x1="561" x2="561" y1="696.4297" y2="709.4297"/><line style="stroke:#181818;stroke-width:1.0;" x1="520" x2="561" y1="709.4297" y2="709.4297"/><polygon fill="#181818" points="530,705.4297,520,709.4297,530,713.4297,526,709.4297" style="stroke:#181818;stroke-width:1.0;"/><text fill="#000000" font-family="sans-serif" font-size="13" lengthAdjust="spacing" textLength="197" x="526" y="691.3638">"No AI-IRB submission needed"</text><polygon fill="#181818" points="1081,741.5625,1091,745.5625,1081,749.5625,1085,745.5625" style="stroke:#181818;stroke-width:1.0;"/><line style="stroke:#181818;stroke-width:1.0;" x1="519" x2="1087" y1="745.5625" y2="745.5625"/><text fill="#000000" font-family="sans-serif" font-size="13" lengthAdjust="spacing" textLength="172" x="526" y="740.4966">"Send final doc for sign-off"</text><polygon fill="#181818" points="1274,770.6953,1284,774.6953,1274,778.6953,1278,774.6953" style="stroke:#181818;stroke-width:1.0;"/><line style="stroke:#181818;stroke-width:1.0;" x1="1093" x2="1280" y1="774.6953" y2="774.6953"/><text fill="#000000" font-family="sans-serif" font-size="13" lengthAdjust="spacing" textLength="169" x="1100" y="769.6294">"Sign-off on final content?"</text><polygon fill="#181818" points="1514,799.8281,1524,803.8281,1514,807.8281,1518,803.8281" style="stroke:#181818;stroke-width:1.0;"/><line style="stroke:#181818;stroke-width:1.0;" x1="1286" x2="1520" y1="803.8281" y2="803.8281"/><text fill="#000000" font-family="sans-serif" font-size="13" lengthAdjust="spacing" textLength="216" x="1293" y="798.7622">"Sign-off on operational aspects?"</text><polygon fill="#181818" points="1104,828.9609,1094,832.9609,1104,836.9609,1100,832.9609" style="stroke:#181818;stroke-width:1.0;"/><line style="stroke:#181818;stroke-width:1.0;" x1="1098" x2="1525" y1="832.9609" y2="832.9609"/><text fill="#000000" font-family="sans-serif" font-size="13" lengthAdjust="spacing" textLength="131" x="1110" y="827.895">"Sign-off completed"</text><polygon fill="#181818" points="148,858.0938,138,862.0938,148,866.0938,144,862.0938" style="stroke:#181818;stroke-width:1.0;"/><line style="stroke:#181818;stroke-width:1.0;" x1="142" x2="1092" y1="862.0938" y2="862.0938"/><text fill="#000000" font-family="sans-serif" font-size="13" lengthAdjust="spacing" textLength="181" x="154" y="857.0278">"Notify doc is fully approved"</text><line style="stroke:#181818;stroke-width:1.0;" x1="137" x2="179" y1="891.2266" y2="891.2266"/><line style="stroke:#181818;stroke-width:1.0;" x1="179" x2="179" y1="891.2266" y2="904.2266"/><line style="stroke:#181818;stroke-width:1.0;" x1="138" x2="179" y1="904.2266" y2="904.2266"/><polygon fill="#181818" points="148,900.2266,138,904.2266,148,908.2266,144,904.2266" style="stroke:#181818;stroke-width:1.0;"/><text fill="#000000" font-family="sans-serif" font-size="13" lengthAdjust="spacing" textLength="293" x="144" y="886.1606">"Assign new version, mark old as superseded"</text><line style="stroke:#181818;stroke-width:1.0;" x1="137" x2="179" y1="933.3594" y2="933.3594"/><line style="stroke:#181818;stroke-width:1.0;" x1="179" x2="179" y1="933.3594" y2="946.3594"/><line style="stroke:#181818;stroke-width:1.0;" x1="138" x2="179" y1="946.3594" y2="946.3594"/><polygon fill="#181818" points="148,942.3594,138,946.3594,148,950.3594,144,946.3594" style="stroke:#181818;stroke-width:1.0;"/><text fill="#000000" font-family="sans-serif" font-size="13" lengthAdjust="spacing" textLength="197" x="144" y="928.2935">"Publish final doc to repository"</text><polygon fill="#181818" points="507,971.4922,517,975.4922,507,979.4922,511,975.4922" style="stroke:#181818;stroke-width:1.0;"/><line style="stroke:#181818;stroke-width:1.0;" x1="137" x2="513" y1="975.4922" y2="975.4922"/><text fill="#000000" font-family="sans-serif" font-size="13" lengthAdjust="spacing" textLength="358" x="144" y="970.4263">"Periodic review needed (12 months or triggered event)"</text><line style="stroke:#181818;stroke-width:1.0;" x1="519" x2="561" y1="1004.625" y2="1004.625"/><line style="stroke:#181818;stroke-width:1.0;" x1="561" x2="561" y1="1004.625" y2="1017.625"/><line style="stroke:#181818;stroke-width:1.0;" x1="520" x2="561" y1="1017.625" y2="1017.625"/><polygon fill="#181818" points="530,1013.625,520,1017.625,530,1021.625,526,1017.625" style="stroke:#181818;stroke-width:1.0;"/><text fill="#000000" font-family="sans-serif" font-size="13" lengthAdjust="spacing" textLength="186" x="526" y="999.5591">"Assess if update is required"</text><path d="M10,1032.625 L74,1032.625 L74,1039.7578 L64,1049.7578 L10,1049.7578 L10,1032.625 " fill="#EEEEEE" style="stroke:#000000;stroke-width:1.5;"/><rect fill="none" height="103.2031" style="stroke:#000000;stroke-width:1.5;" width="637" x="10" y="1032.625"/><text fill="#000000" font-family="sans-serif" font-size="13" font-weight="bold" lengthAdjust="spacing" textLength="19" x="25" y="1045.6919">alt</text><text fill="#000000" font-family="sans-serif" font-size="11" font-weight="bold" lengthAdjust="spacing" textLength="114" x="89" y="1044.8354">[Update needed?]</text><line style="stroke:#181818;stroke-width:1.0;" x1="519" x2="561" y1="1070.8906" y2="1070.8906"/><line style="stroke:#181818;stroke-width:1.0;" x1="561" x2="561" y1="1070.8906" y2="1083.8906"/><line style="stroke:#181818;stroke-width:1.0;" x1="520" x2="561" y1="1083.8906" y2="1083.8906"/><polygon fill="#181818" points="530,1079.8906,520,1083.8906,530,1087.8906,526,1083.8906" style="stroke:#181818;stroke-width:1.0;"/><text fill="#000000" font-family="sans-serif" font-size="13" lengthAdjust="spacing" textLength="109" x="526" y="1065.8247">"Initiate Revision"</text><line style="stroke:#000000;stroke-width:1.0;stroke-dasharray:2.0,2.0;" x1="10" x2="647" y1="1092.8906" y2="1092.8906"/><text fill="#000000" font-family="sans-serif" font-size="11" font-weight="bold" lengthAdjust="spacing" textLength="128" x="15" y="1103.1011">[No update needed]</text><polygon fill="#181818" points="148,1123.8281,138,1127.8281,148,1131.8281,144,1127.8281" style="stroke:#181818;stroke-width:1.0;"/><line style="stroke:#181818;stroke-width:1.0;" x1="142" x2="518" y1="1127.8281" y2="1127.8281"/><text fill="#000000" font-family="sans-serif" font-size="13" lengthAdjust="spacing" textLength="268" x="154" y="1122.7622">"No change, confirm doc remains current"</text><line style="stroke:#181818;stroke-width:1.0;" x1="137" x2="179" y1="1163.9609" y2="1163.9609"/><line style="stroke:#181818;stroke-width:1.0;" x1="179" x2="179" y1="1163.9609" y2="1176.9609"/><line style="stroke:#181818;stroke-width:1.0;" x1="138" x2="179" y1="1176.9609" y2="1176.9609"/><polygon fill="#181818" points="148,1172.9609,138,1176.9609,148,1180.9609,144,1176.9609" style="stroke:#181818;stroke-width:1.0;"/><text fill="#000000" font-family="sans-serif" font-size="13" lengthAdjust="spacing" textLength="210" x="144" y="1158.895">"Conduct doc compliance audits"</text><polygon fill="#181818" points="1081,1202.0938,1091,1206.0938,1081,1210.0938,1085,1206.0938" style="stroke:#181818;stroke-width:1.0;"/><line style="stroke:#181818;stroke-width:1.0;" x1="137" x2="1087" y1="1206.0938" y2="1206.0938"/><text fill="#000000" font-family="sans-serif" font-size="13" lengthAdjust="spacing" textLength="173" x="144" y="1201.0278">"Report any major findings"</text><polygon fill="#181818" points="530,1231.2266,520,1235.2266,530,1239.2266,526,1235.2266" style="stroke:#181818;stroke-width:1.0;"/><line style="stroke:#181818;stroke-width:1.0;" x1="524" x2="1092" y1="1235.2266" y2="1235.2266"/><text fill="#000000" font-family="sans-serif" font-size="13" lengthAdjust="spacing" textLength="251" x="536" y="1230.1606">"Address findings, revise doc if needed"</text><line style="stroke:#181818;stroke-width:1.0;" x1="137" x2="179" y1="1264.3594" y2="1264.3594"/><line style="stroke:#181818;stroke-width:1.0;" x1="179" x2="179" y1="1264.3594" y2="1277.3594"/><line style="stroke:#181818;stroke-width:1.0;" x1="138" x2="179" y1="1277.3594" y2="1277.3594"/><polygon fill="#181818" points="148,1273.3594,138,1277.3594,148,1281.3594,144,1277.3594" style="stroke:#181818;stroke-width:1.0;"/><text fill="#000000" font-family="sans-serif" font-size="13" lengthAdjust="spacing" textLength="218" x="144" y="1259.2935">"Archive docs per retention policy"</text><!--MD5=[76a6b800602dc77d1726f604eebe09f7]
@startuml
' Optional styling
skinparam monochrome false
skinparam shadowing false
skinparam boxPadding 10
skinparam sequenceArrowThickness 1
skinparam sequenceParticipantBoxBackgroundColor #FFFFFF

' Define Participants
participant "AI Document Governance Team" as GOV
participant "Document Owner" as OWNER
participant "AI-IRB" as IRB
participant "Project Manager" as PM
participant "Quality Assurance" as QA
participant "Operations" as OPS

' 1. Document need identified
OWNER -> OWNER: "Identify need for new or revised document"

' 2. Request official template
OWNER -> GOV: "Request official template/guidelines"
GOV -> OWNER: "Send template, compliance guidance"

' 3. Document Owner drafts content
OWNER -> OWNER: "Draft doc using official template"
OWNER -> OWNER: "Collect SME inputs, add references"

' 4. Internal Review
OWNER -> PM: "Submit draft for internal review"
PM -> OWNER: "Review, provide feedback"
OWNER -> QA: "Optional SME review (technical correctness)"
QA -> OWNER: "Comments, minor edits"

' 5. AI-IRB check
OWNER -> OWNER: "Check if doc addresses high-risk AI feature?"
alt High-Risk Content
  OWNER -> IRB: "Submit doc to AI-IRB"
  IRB -> IRB: "Review doc for legal/ethical compliance"
  alt Approved
    IRB -> OWNER: "Doc accepted by AI-IRB"
  else Changes Requested
    IRB -> OWNER: "Revise doc & re-submit"
    OWNER -> OWNER: "Incorporate changes, re-submit to AI-IRB"
    IRB -> OWNER: "Doc accepted"
  end
else No High-Risk
  OWNER -> OWNER: "No AI-IRB submission needed"
end

' 6. Final Approval
OWNER -> PM: "Send final doc for sign-off"
PM -> QA: "Sign-off on final content?"
QA -> OPS: "Sign-off on operational aspects?"
OPS -> PM: "Sign-off completed"

' 7. Versioning & Release
PM -> GOV: "Notify doc is fully approved"
GOV -> GOV: "Assign new version, mark old as superseded"
GOV -> GOV: "Publish final doc to repository"

' 8. Periodic Review
GOV -> OWNER: "Periodic review needed (12 months or triggered event)"
OWNER -> OWNER: "Assess if update is required"
alt Update needed?
  OWNER -> OWNER: "Initiate Revision"
else No update needed
  OWNER -> GOV: "No change, confirm doc remains current"
end

' 9. Audits & Archival
GOV -> GOV: "Conduct doc compliance audits"
GOV -> PM: "Report any major findings"
PM -> OWNER: "Address findings, revise doc if needed"
GOV -> GOV: "Archive docs per retention policy"
@enduml

@startuml
skinparam monochrome false
skinparam shadowing false
skinparam boxPadding 10
skinparam sequenceArrowThickness 1
skinparam sequenceParticipantBoxBackgroundColor #FFFFFF

participant "AI Document Governance Team" as GOV
participant "Document Owner" as OWNER
participant "AI-IRB" as IRB
participant "Project Manager" as PM
participant "Quality Assurance" as QA
participant "Operations" as OPS

OWNER -> OWNER: "Identify need for new or revised document"

OWNER -> GOV: "Request official template/guidelines"
GOV -> OWNER: "Send template, compliance guidance"

OWNER -> OWNER: "Draft doc using official template"
OWNER -> OWNER: "Collect SME inputs, add references"

OWNER -> PM: "Submit draft for internal review"
PM -> OWNER: "Review, provide feedback"
OWNER -> QA: "Optional SME review (technical correctness)"
QA -> OWNER: "Comments, minor edits"

OWNER -> OWNER: "Check if doc addresses high-risk AI feature?"
alt High-Risk Content
  OWNER -> IRB: "Submit doc to AI-IRB"
  IRB -> IRB: "Review doc for legal/ethical compliance"
  alt Approved
    IRB -> OWNER: "Doc accepted by AI-IRB"
  else Changes Requested
    IRB -> OWNER: "Revise doc & re-submit"
    OWNER -> OWNER: "Incorporate changes, re-submit to AI-IRB"
    IRB -> OWNER: "Doc accepted"
  end
else No High-Risk
  OWNER -> OWNER: "No AI-IRB submission needed"
end

OWNER -> PM: "Send final doc for sign-off"
PM -> QA: "Sign-off on final content?"
QA -> OPS: "Sign-off on operational aspects?"
OPS -> PM: "Sign-off completed"

PM -> GOV: "Notify doc is fully approved"
GOV -> GOV: "Assign new version, mark old as superseded"
GOV -> GOV: "Publish final doc to repository"

GOV -> OWNER: "Periodic review needed (12 months or triggered event)"
OWNER -> OWNER: "Assess if update is required"
alt Update needed?
  OWNER -> OWNER: "Initiate Revision"
else No update needed
  OWNER -> GOV: "No change, confirm doc remains current"
end

GOV -> GOV: "Conduct doc compliance audits"
GOV -> PM: "Report any major findings"
PM -> OWNER: "Address findings, revise doc if needed"
GOV -> GOV: "Archive docs per retention policy"
@enduml

PlantUML version 1.2022.7(Mon Aug 22 17:01:30 UTC 2022)
(GPL source distribution)
Java Runtime: OpenJDK Runtime Environment
JVM: OpenJDK 64-Bit Server VM
Default Encoding: UTF-8
Language: en
Country: null
--></g></svg>