<?xml version="1.0" encoding="UTF-8" standalone="no"?><svg xmlns="http://www.w3.org/2000/svg" xmlns:xlink="http://www.w3.org/1999/xlink" contentStyleType="text/css" height="849px" preserveAspectRatio="none" style="width:1249px;height:849px;background:#FFFFFF;" version="1.1" viewBox="0 0 1249 849" width="1249px" zoomAndPan="magnify"><defs/><g><rect fill="none" height="26.2969" id="_title" style="stroke:none;stroke-width:1.0;" width="529" x="361" y="10"/><text fill="#000000" font-family="sans-serif" font-size="14" font-weight="bold" lengthAdjust="spacing" textLength="519" x="366" y="27.9951">SOP-1054-01-AI: AI-Regulated Project Approvals and Sponsorship</text><rect fill="none" height="105.3359" style="stroke:#000000;stroke-width:1.5;" width="893" x="20" y="294.5234"/><rect fill="none" height="208.7344" style="stroke:#000000;stroke-width:1.5;" width="1012" x="10" y="413.8594"/><rect fill="none" height="90.2031" style="stroke:#000000;stroke-width:1.5;" width="534.5" x="20" y="525.3906"/><rect fill="none" height="160.4688" style="stroke:#000000;stroke-width:1.5;" width="1222" x="20" y="636.5938"/><line style="stroke:#181818;stroke-width:0.5;stroke-dasharray:5.0,5.0;" x1="93" x2="93" y1="73.5938" y2="814.0625"/><line style="stroke:#181818;stroke-width:0.5;stroke-dasharray:5.0,5.0;" x1="346.5" x2="346.5" y1="73.5938" y2="814.0625"/><line style="stroke:#181818;stroke-width:0.5;stroke-dasharray:5.0,5.0;" x1="491.5" x2="491.5" y1="73.5938" y2="814.0625"/><line style="stroke:#181818;stroke-width:0.5;stroke-dasharray:5.0,5.0;" x1="753" x2="753" y1="73.5938" y2="814.0625"/><line style="stroke:#181818;stroke-width:0.5;stroke-dasharray:5.0,5.0;" x1="867" x2="867" y1="73.5938" y2="814.0625"/><line style="stroke:#181818;stroke-width:0.5;stroke-dasharray:5.0,5.0;" x1="962" x2="962" y1="73.5938" y2="814.0625"/><line style="stroke:#181818;stroke-width:0.5;stroke-dasharray:5.0,5.0;" x1="1127" x2="1127" y1="73.5938" y2="814.0625"/><rect fill="#E2E2F0" height="30.2969" rx="2.5" ry="2.5" style="stroke:#181818;stroke-width:0.5;" width="126" x="30" y="42.2969"/><text fill="#000000" font-family="sans-serif" font-size="14" lengthAdjust="spacing" textLength="112" x="37" y="62.292">Project Manager</text><rect fill="#E2E2F0" height="30.2969" rx="2.5" ry="2.5" style="stroke:#181818;stroke-width:0.5;" width="126" x="30" y="813.0625"/><text fill="#000000" font-family="sans-serif" font-size="14" lengthAdjust="spacing" textLength="112" x="37" y="833.0576">Project Manager</text><rect fill="#E2E2F0" height="30.2969" rx="2.5" ry="2.5" style="stroke:#181818;stroke-width:0.5;" width="165" x="264.5" y="42.2969"/><text fill="#000000" font-family="sans-serif" font-size="14" lengthAdjust="spacing" textLength="151" x="271.5" y="62.292">Product Development</text><rect fill="#E2E2F0" height="30.2969" rx="2.5" ry="2.5" style="stroke:#181818;stroke-width:0.5;" width="165" x="264.5" y="813.0625"/><text fill="#000000" font-family="sans-serif" font-size="14" lengthAdjust="spacing" textLength="151" x="271.5" y="833.0576">Product Development</text><rect fill="#E2E2F0" height="30.2969" rx="2.5" ry="2.5" style="stroke:#181818;stroke-width:0.5;" width="105" x="439.5" y="42.2969"/><text fill="#000000" font-family="sans-serif" font-size="14" lengthAdjust="spacing" textLength="91" x="446.5" y="62.292">AI-IRB Liaison</text><rect fill="#E2E2F0" height="30.2969" rx="2.5" ry="2.5" style="stroke:#181818;stroke-width:0.5;" width="105" x="439.5" y="813.0625"/><text fill="#000000" font-family="sans-serif" font-size="14" lengthAdjust="spacing" textLength="91" x="446.5" y="833.0576">AI-IRB Liaison</text><rect fill="#E2E2F0" height="30.2969" rx="2.5" ry="2.5" style="stroke:#181818;stroke-width:0.5;" width="136" x="685" y="42.2969"/><text fill="#000000" font-family="sans-serif" font-size="14" lengthAdjust="spacing" textLength="122" x="692" y="62.292">Legal/Compliance</text><rect fill="#E2E2F0" height="30.2969" rx="2.5" ry="2.5" style="stroke:#181818;stroke-width:0.5;" width="136" x="685" y="813.0625"/><text fill="#000000" font-family="sans-serif" font-size="14" lengthAdjust="spacing" textLength="122" x="692" y="833.0576">Legal/Compliance</text><rect fill="#E2E2F0" height="30.2969" rx="2.5" ry="2.5" style="stroke:#181818;stroke-width:0.5;" width="72" x="831" y="42.2969"/><text fill="#000000" font-family="sans-serif" font-size="14" lengthAdjust="spacing" textLength="58" x="838" y="62.292">Sponsor</text><rect fill="#E2E2F0" height="30.2969" rx="2.5" ry="2.5" style="stroke:#181818;stroke-width:0.5;" width="72" x="831" y="813.0625"/><text fill="#000000" font-family="sans-serif" font-size="14" lengthAdjust="spacing" textLength="58" x="838" y="833.0576">Sponsor</text><rect fill="#E2E2F0" height="30.2969" rx="2.5" ry="2.5" style="stroke:#181818;stroke-width:0.5;" width="99" x="913" y="42.2969"/><text fill="#000000" font-family="sans-serif" font-size="14" lengthAdjust="spacing" textLength="85" x="920" y="62.292">AI-IRB Board</text><rect fill="#E2E2F0" height="30.2969" rx="2.5" ry="2.5" style="stroke:#181818;stroke-width:0.5;" width="99" x="913" y="813.0625"/><text fill="#000000" font-family="sans-serif" font-size="14" lengthAdjust="spacing" textLength="85" x="920" y="833.0576">AI-IRB Board</text><rect fill="#E2E2F0" height="30.2969" rx="2.5" ry="2.5" style="stroke:#181818;stroke-width:0.5;" width="210" x="1022" y="42.2969"/><text fill="#000000" font-family="sans-serif" font-size="14" lengthAdjust="spacing" textLength="196" x="1029" y="62.292">Program Management Office</text><rect fill="#E2E2F0" height="30.2969" rx="2.5" ry="2.5" style="stroke:#181818;stroke-width:0.5;" width="210" x="1022" y="813.0625"/><text fill="#000000" font-family="sans-serif" font-size="14" lengthAdjust="spacing" textLength="196" x="1029" y="833.0576">Program Management Office</text><polygon fill="#181818" points="335,100.7266,345,104.7266,335,108.7266,339,104.7266" style="stroke:#181818;stroke-width:1.0;"/><line style="stroke:#181818;stroke-width:1.0;" x1="93" x2="341" y1="104.7266" y2="104.7266"/><text fill="#000000" font-family="sans-serif" font-size="13" lengthAdjust="spacing" textLength="218" x="100" y="99.6606">Request feasibility &amp; scope details</text><polygon fill="#181818" points="104,129.8594,94,133.8594,104,137.8594,100,133.8594" style="stroke:#181818;stroke-width:1.0;"/><line style="stroke:#181818;stroke-width:1.0;" x1="98" x2="346" y1="133.8594" y2="133.8594"/><text fill="#000000" font-family="sans-serif" font-size="13" lengthAdjust="spacing" textLength="230" x="110" y="128.7935">Provide scope, ROI info, risk analysis</text><polygon fill="#181818" points="480,158.9922,490,162.9922,480,166.9922,484,162.9922" style="stroke:#181818;stroke-width:1.0;"/><line style="stroke:#181818;stroke-width:1.0;" x1="93" x2="486" y1="162.9922" y2="162.9922"/><text fill="#000000" font-family="sans-serif" font-size="13" lengthAdjust="spacing" textLength="301" x="100" y="157.9263">Consult on potential AI ethical/compliance flags</text><polygon fill="#181818" points="741,188.125,751,192.125,741,196.125,745,192.125" style="stroke:#181818;stroke-width:1.0;"/><line style="stroke:#181818;stroke-width:1.0;" x1="492" x2="747" y1="192.125" y2="192.125"/><text fill="#000000" font-family="sans-serif" font-size="13" lengthAdjust="spacing" textLength="237" x="499" y="187.0591">Request preliminary regulatory check</text><polygon fill="#181818" points="503,217.2578,493,221.2578,503,225.2578,499,221.2578" style="stroke:#181818;stroke-width:1.0;"/><line style="stroke:#181818;stroke-width:1.0;" x1="497" x2="752" y1="221.2578" y2="221.2578"/><text fill="#000000" font-family="sans-serif" font-size="13" lengthAdjust="spacing" textLength="215" x="509" y="216.1919">Return legal/compliance feedback</text><polygon fill="#181818" points="104,246.3906,94,250.3906,104,254.3906,100,250.3906" style="stroke:#181818;stroke-width:1.0;"/><line style="stroke:#181818;stroke-width:1.0;" x1="98" x2="491" y1="250.3906" y2="250.3906"/><text fill="#000000" font-family="sans-serif" font-size="13" lengthAdjust="spacing" textLength="250" x="110" y="245.3247">Summarize IRB concerns/requirements</text><polygon fill="#181818" points="855,275.5234,865,279.5234,855,283.5234,859,279.5234" style="stroke:#181818;stroke-width:1.0;"/><line style="stroke:#181818;stroke-width:1.0;" x1="93" x2="861" y1="279.5234" y2="279.5234"/><text fill="#000000" font-family="sans-serif" font-size="13" lengthAdjust="spacing" textLength="217" x="100" y="274.4575">Submit AI Project Approval Packet</text><path d="M20,294.5234 L84,294.5234 L84,301.6563 L74,311.6563 L20,311.6563 L20,294.5234 " fill="#EEEEEE" style="stroke:#000000;stroke-width:1.5;"/><rect fill="none" height="105.3359" style="stroke:#000000;stroke-width:1.5;" width="893" x="20" y="294.5234"/><text fill="#000000" font-family="sans-serif" font-size="13" font-weight="bold" lengthAdjust="spacing" textLength="19" x="35" y="307.5903">alt</text><text fill="#000000" font-family="sans-serif" font-size="11" font-weight="bold" lengthAdjust="spacing" textLength="116" x="99" y="306.7339">[Sponsor reviews]</text><polygon fill="#181818" points="104,343.9219,94,347.9219,104,351.9219,100,347.9219" style="stroke:#181818;stroke-width:1.0;"/><line style="stroke:#181818;stroke-width:1.0;" x1="98" x2="866" y1="347.9219" y2="347.9219"/><text fill="#000000" font-family="sans-serif" font-size="13" lengthAdjust="spacing" textLength="4" x="110" y="327.7231"> </text><text fill="#000000" font-family="sans-serif" font-size="13" lengthAdjust="spacing" textLength="185" x="110" y="342.856">Decision: (Approve or Reject)</text><line style="stroke:#000000;stroke-width:1.0;stroke-dasharray:2.0,2.0;" x1="20" x2="913" y1="356.9219" y2="356.9219"/><text fill="#000000" font-family="sans-serif" font-size="11" font-weight="bold" lengthAdjust="spacing" textLength="228" x="25" y="367.1323">[Sponsor approves with conditions]</text><polygon fill="#181818" points="104,387.8594,94,391.8594,104,395.8594,100,391.8594" style="stroke:#181818;stroke-width:1.0;"/><line style="stroke:#181818;stroke-width:1.0;" x1="98" x2="866" y1="391.8594" y2="391.8594"/><text fill="#000000" font-family="sans-serif" font-size="13" lengthAdjust="spacing" textLength="139" x="110" y="386.7935">Approve w/ conditions</text><path d="M10,413.8594 L74,413.8594 L74,420.9922 L64,430.9922 L10,430.9922 L10,413.8594 " fill="#EEEEEE" style="stroke:#000000;stroke-width:1.5;"/><rect fill="none" height="208.7344" style="stroke:#000000;stroke-width:1.5;" width="1012" x="10" y="413.8594"/><text fill="#000000" font-family="sans-serif" font-size="13" font-weight="bold" lengthAdjust="spacing" textLength="19" x="25" y="426.9263">alt</text><text fill="#000000" font-family="sans-serif" font-size="11" font-weight="bold" lengthAdjust="spacing" textLength="168" x="89" y="426.0698">[If IRB full review needed]</text><polygon fill="#181818" points="503,448.125,493,452.125,503,456.125,499,452.125" style="stroke:#181818;stroke-width:1.0;"/><line style="stroke:#181818;stroke-width:1.0;" x1="497" x2="866" y1="452.125" y2="452.125"/><text fill="#000000" font-family="sans-serif" font-size="13" lengthAdjust="spacing" textLength="181" x="509" y="447.0591">Request official AI-IRB review</text><polygon fill="#181818" points="950.5,477.2578,960.5,481.2578,950.5,485.2578,954.5,481.2578" style="stroke:#181818;stroke-width:1.0;"/><line style="stroke:#181818;stroke-width:1.0;" x1="492" x2="956.5" y1="481.2578" y2="481.2578"/><text fill="#000000" font-family="sans-serif" font-size="13" lengthAdjust="spacing" textLength="206" x="499" y="476.1919">Provide project details for review</text><polygon fill="#181818" points="503,506.3906,493,510.3906,503,514.3906,499,510.3906" style="stroke:#181818;stroke-width:1.0;"/><line style="stroke:#181818;stroke-width:1.0;" x1="497" x2="961.5" y1="510.3906" y2="510.3906"/><text fill="#000000" font-family="sans-serif" font-size="13" lengthAdjust="spacing" textLength="180" x="509" y="505.3247">Return IRB recommendation</text><path d="M20,525.3906 L84,525.3906 L84,532.5234 L74,542.5234 L20,542.5234 L20,525.3906 " fill="#EEEEEE" style="stroke:#000000;stroke-width:1.5;"/><rect fill="none" height="90.2031" style="stroke:#000000;stroke-width:1.5;" width="534.5" x="20" y="525.3906"/><text fill="#000000" font-family="sans-serif" font-size="13" font-weight="bold" lengthAdjust="spacing" textLength="19" x="35" y="538.4575">alt</text><text fill="#000000" font-family="sans-serif" font-size="11" font-weight="bold" lengthAdjust="spacing" textLength="94" x="99" y="537.6011">[IRB approves]</text><polygon fill="#181818" points="104,559.6563,94,563.6563,104,567.6563,100,563.6563" style="stroke:#181818;stroke-width:1.0;"/><line style="stroke:#181818;stroke-width:1.0;" x1="98" x2="491" y1="563.6563" y2="563.6563"/><text fill="#000000" font-family="sans-serif" font-size="13" lengthAdjust="spacing" textLength="165" x="110" y="558.5903">IRB approval or conditions</text><line style="stroke:#000000;stroke-width:1.0;stroke-dasharray:2.0,2.0;" x1="20" x2="554.5" y1="572.6563" y2="572.6563"/><text fill="#000000" font-family="sans-serif" font-size="11" font-weight="bold" lengthAdjust="spacing" textLength="78" x="25" y="582.8667">[IRB denies]</text><polygon fill="#181818" points="104,603.5938,94,607.5938,104,611.5938,100,607.5938" style="stroke:#181818;stroke-width:1.0;"/><line style="stroke:#181818;stroke-width:1.0;" x1="98" x2="491" y1="607.5938" y2="607.5938"/><text fill="#000000" font-family="sans-serif" font-size="13" lengthAdjust="spacing" textLength="181" x="110" y="602.5278">IRB denies or rework needed</text><path d="M20,636.5938 L84,636.5938 L84,643.7266 L74,653.7266 L20,653.7266 L20,636.5938 " fill="#EEEEEE" style="stroke:#000000;stroke-width:1.5;"/><rect fill="none" height="160.4688" style="stroke:#000000;stroke-width:1.5;" width="1222" x="20" y="636.5938"/><text fill="#000000" font-family="sans-serif" font-size="13" font-weight="bold" lengthAdjust="spacing" textLength="19" x="35" y="649.6606">alt</text><text fill="#000000" font-family="sans-serif" font-size="11" font-weight="bold" lengthAdjust="spacing" textLength="156" x="99" y="648.8042">[Final sponsor outcome]</text><polygon fill="#181818" points="104,673.8594,94,677.8594,104,681.8594,100,677.8594" style="stroke:#181818;stroke-width:1.0;"/><line style="stroke:#181818;stroke-width:1.0;" x1="98" x2="866" y1="677.8594" y2="677.8594"/><text fill="#000000" font-family="sans-serif" font-size="13" lengthAdjust="spacing" textLength="80" x="110" y="672.7935">Final sign-off</text><path d="M872,658.7266 L872,683.7266 L1131,683.7266 L1131,668.7266 L1121,658.7266 L872,658.7266 " fill="#FEFFDD" style="stroke:#181818;stroke-width:0.5;"/><path d="M1121,658.7266 L1121,668.7266 L1131,668.7266 L1121,658.7266 " fill="#FEFFDD" style="stroke:#181818;stroke-width:0.5;"/><text fill="#000000" font-family="sans-serif" font-size="13" lengthAdjust="spacing" textLength="238" x="878" y="675.7935">Project is fully authorized or reworked</text><polygon fill="#181818" points="1115,705.9922,1125,709.9922,1115,713.9922,1119,709.9922" style="stroke:#181818;stroke-width:1.0;"/><line style="stroke:#181818;stroke-width:1.0;" x1="93" x2="1121" y1="709.9922" y2="709.9922"/><text fill="#000000" font-family="sans-serif" font-size="13" lengthAdjust="spacing" textLength="233" x="100" y="704.9263">Notify PMO to integrate into portfolio</text><polygon fill="#181818" points="104,735.125,94,739.125,104,743.125,100,739.125" style="stroke:#181818;stroke-width:1.0;"/><line style="stroke:#181818;stroke-width:1.0;" x1="98" x2="1126" y1="739.125" y2="739.125"/><text fill="#000000" font-family="sans-serif" font-size="13" lengthAdjust="spacing" textLength="215" x="110" y="734.0591">Confirm project added to portfolio</text><line style="stroke:#000000;stroke-width:1.0;stroke-dasharray:2.0,2.0;" x1="20" x2="1242" y1="748.125" y2="748.125"/><text fill="#000000" font-family="sans-serif" font-size="11" font-weight="bold" lengthAdjust="spacing" textLength="110" x="25" y="758.3354">[Sponsor rejects]</text><polygon fill="#181818" points="104,782.0625,94,786.0625,104,790.0625,100,786.0625" style="stroke:#181818;stroke-width:1.0;"/><line style="stroke:#181818;stroke-width:1.0;" x1="98" x2="866" y1="786.0625" y2="786.0625"/><text fill="#000000" font-family="sans-serif" font-size="13" lengthAdjust="spacing" textLength="174" x="110" y="780.9966">Return project with reasons</text><path d="M872,766.9297 L872,791.9297 L1083,791.9297 L1083,776.9297 L1073,766.9297 L872,766.9297 " fill="#FEFFDD" style="stroke:#181818;stroke-width:0.5;"/><path d="M1073,766.9297 L1073,776.9297 L1083,776.9297 L1073,766.9297 " fill="#FEFFDD" style="stroke:#181818;stroke-width:0.5;"/><text fill="#000000" font-family="sans-serif" font-size="13" lengthAdjust="spacing" textLength="190" x="878" y="783.9966">Project is shelved or reworked</text><!--MD5=[9a5d84cfb476aaf0fdaac09a3d1766a2]
@startuml
title SOP-1054-01-AI: AI-Regulated Project Approvals and Sponsorship

participant "Project Manager" as PM
participant "Product Development" as DEV
participant "AI-IRB Liaison" as IRB
participant "Legal/Compliance" as LEGAL
participant "Sponsor" as SPONSOR
participant "AI-IRB Board" as BOARD
participant "Program Management Office" as PMO

PM -> DEV: Request feasibility & scope details
DEV -> PM: Provide scope, ROI info, risk analysis
PM -> IRB: Consult on potential AI ethical/compliance flags
IRB -> LEGAL: Request preliminary regulatory check
LEGAL -> IRB: Return legal/compliance feedback
IRB -> PM: Summarize IRB concerns/requirements

PM -> SPONSOR: Submit AI Project Approval Packet

alt Sponsor reviews
    SPONSOR -> PM: \nDecision: (Approve or Reject)
    else Sponsor approves with conditions
    SPONSOR -> PM: Approve w/ conditions
end

alt If IRB full review needed
    SPONSOR -> IRB: Request official AI-IRB review
    IRB -> BOARD: Provide project details for review
    BOARD -> IRB: Return IRB recommendation
    alt IRB approves
        IRB -> PM: IRB approval or conditions
    else IRB denies
        IRB -> PM: IRB denies or rework needed
    end
end

alt Final sponsor outcome
    SPONSOR -> PM: Final sign-off
    note right
      Project is fully authorized or reworked
    end note
    PM -> PMO: Notify PMO to integrate into portfolio
    PMO -> PM: Confirm project added to portfolio
else Sponsor rejects
    SPONSOR -> PM: Return project with reasons
    note right
      Project is shelved or reworked
    end note
end
@enduml

PlantUML version 1.2022.7(Mon Aug 22 17:01:30 UTC 2022)
(GPL source distribution)
Java Runtime: OpenJDK Runtime Environment
JVM: OpenJDK 64-Bit Server VM
Default Encoding: UTF-8
Language: en
Country: null
--></g></svg>