<?xml version="1.0" encoding="UTF-8" standalone="no"?><svg xmlns="http://www.w3.org/2000/svg" xmlns:xlink="http://www.w3.org/1999/xlink" contentStyleType="text/css" height="917px" preserveAspectRatio="none" style="width:1350px;height:917px;background:#FFFFFF;" version="1.1" viewBox="0 0 1350 917" width="1350px" zoomAndPan="magnify"><defs/><g><rect fill="none" height="26.2969" id="_title" style="stroke:none;stroke-width:1.0;" width="388" x="480.25" y="10"/><text fill="#000000" font-family="sans-serif" font-size="14" font-weight="bold" lengthAdjust="spacing" textLength="378" x="485.25" y="27.9951">SOP-1003-01-AI: Capacity Management Process</text><rect fill="none" height="125.3359" style="stroke:#000000;stroke-width:1.5;" width="599.5" x="312" y="177.9922"/><rect fill="none" height="183.6016" style="stroke:#000000;stroke-width:1.5;" width="1048" x="10" y="682.0547"/><line style="stroke:#181818;stroke-width:0.5;stroke-dasharray:5.0,5.0;" x1="83" x2="83" y1="73.5938" y2="882.6563"/><line style="stroke:#181818;stroke-width:0.5;stroke-dasharray:5.0,5.0;" x1="433" x2="433" y1="73.5938" y2="882.6563"/><line style="stroke:#181818;stroke-width:0.5;stroke-dasharray:5.0,5.0;" x1="719.5" x2="719.5" y1="73.5938" y2="882.6563"/><line style="stroke:#181818;stroke-width:0.5;stroke-dasharray:5.0,5.0;" x1="848.5" x2="848.5" y1="73.5938" y2="882.6563"/><line style="stroke:#181818;stroke-width:0.5;stroke-dasharray:5.0,5.0;" x1="1011" x2="1011" y1="73.5938" y2="882.6563"/><line style="stroke:#181818;stroke-width:0.5;stroke-dasharray:5.0,5.0;" x1="1301.5" x2="1301.5" y1="73.5938" y2="882.6563"/><rect fill="#E2E2F0" height="30.2969" rx="2.5" ry="2.5" style="stroke:#181818;stroke-width:0.5;" width="126" x="20" y="42.2969"/><text fill="#000000" font-family="sans-serif" font-size="14" lengthAdjust="spacing" textLength="112" x="27" y="62.292">Project Manager</text><rect fill="#E2E2F0" height="30.2969" rx="2.5" ry="2.5" style="stroke:#181818;stroke-width:0.5;" width="126" x="20" y="881.6563"/><text fill="#000000" font-family="sans-serif" font-size="14" lengthAdjust="spacing" textLength="112" x="27" y="901.6514">Project Manager</text><rect fill="#E2E2F0" height="30.2969" rx="2.5" ry="2.5" style="stroke:#181818;stroke-width:0.5;" width="136" x="365" y="42.2969"/><text fill="#000000" font-family="sans-serif" font-size="14" lengthAdjust="spacing" textLength="122" x="372" y="62.292">Capacity Manager</text><rect fill="#E2E2F0" height="30.2969" rx="2.5" ry="2.5" style="stroke:#181818;stroke-width:0.5;" width="136" x="365" y="881.6563"/><text fill="#000000" font-family="sans-serif" font-size="14" lengthAdjust="spacing" textLength="122" x="372" y="901.6514">Capacity Manager</text><rect fill="#E2E2F0" height="30.2969" rx="2.5" ry="2.5" style="stroke:#181818;stroke-width:0.5;" width="133" x="653.5" y="42.2969"/><text fill="#000000" font-family="sans-serif" font-size="14" lengthAdjust="spacing" textLength="119" x="660.5" y="62.292">Operations Team</text><rect fill="#E2E2F0" height="30.2969" rx="2.5" ry="2.5" style="stroke:#181818;stroke-width:0.5;" width="133" x="653.5" y="881.6563"/><text fill="#000000" font-family="sans-serif" font-size="14" lengthAdjust="spacing" textLength="119" x="660.5" y="901.6514">Operations Team</text><rect fill="#E2E2F0" height="30.2969" rx="2.5" ry="2.5" style="stroke:#181818;stroke-width:0.5;" width="105" x="796.5" y="42.2969"/><text fill="#000000" font-family="sans-serif" font-size="14" lengthAdjust="spacing" textLength="91" x="803.5" y="62.292">AI-IRB Liaison</text><rect fill="#E2E2F0" height="30.2969" rx="2.5" ry="2.5" style="stroke:#181818;stroke-width:0.5;" width="105" x="796.5" y="881.6563"/><text fill="#000000" font-family="sans-serif" font-size="14" lengthAdjust="spacing" textLength="91" x="803.5" y="901.6514">AI-IRB Liaison</text><rect fill="#E2E2F0" height="30.2969" rx="2.5" ry="2.5" style="stroke:#181818;stroke-width:0.5;" width="34" x="994" y="42.2969"/><text fill="#000000" font-family="sans-serif" font-size="14" lengthAdjust="spacing" textLength="20" x="1001" y="62.292">QA</text><rect fill="#E2E2F0" height="30.2969" rx="2.5" ry="2.5" style="stroke:#181818;stroke-width:0.5;" width="34" x="994" y="881.6563"/><text fill="#000000" font-family="sans-serif" font-size="14" lengthAdjust="spacing" textLength="20" x="1001" y="901.6514">QA</text><rect fill="#E2E2F0" height="30.2969" rx="2.5" ry="2.5" style="stroke:#181818;stroke-width:0.5;" width="85" x="1259.5" y="42.2969"/><text fill="#000000" font-family="sans-serif" font-size="14" lengthAdjust="spacing" textLength="71" x="1266.5" y="62.292">Developer</text><rect fill="#E2E2F0" height="30.2969" rx="2.5" ry="2.5" style="stroke:#181818;stroke-width:0.5;" width="85" x="1259.5" y="881.6563"/><text fill="#000000" font-family="sans-serif" font-size="14" lengthAdjust="spacing" textLength="71" x="1266.5" y="901.6514">Developer</text><polygon fill="#181818" points="421,100.7266,431,104.7266,421,108.7266,425,104.7266" style="stroke:#181818;stroke-width:1.0;"/><line style="stroke:#181818;stroke-width:1.0;" x1="83" x2="427" y1="104.7266" y2="104.7266"/><text fill="#000000" font-family="sans-serif" font-size="13" lengthAdjust="spacing" textLength="228" x="90" y="99.6606">Request initial capacity assessment</text><polygon fill="#181818" points="708,129.8594,718,133.8594,708,137.8594,712,133.8594" style="stroke:#181818;stroke-width:1.0;"/><line style="stroke:#181818;stroke-width:1.0;" x1="433" x2="714" y1="133.8594" y2="133.8594"/><text fill="#000000" font-family="sans-serif" font-size="13" lengthAdjust="spacing" textLength="190" x="440" y="128.7935">Gather system usage metrics</text><polygon fill="#181818" points="444,158.9922,434,162.9922,444,166.9922,440,162.9922" style="stroke:#181818;stroke-width:1.0;"/><line style="stroke:#181818;stroke-width:1.0;" x1="438" x2="719" y1="162.9922" y2="162.9922"/><text fill="#000000" font-family="sans-serif" font-size="13" lengthAdjust="spacing" textLength="263" x="450" y="157.9263">Provide metrics and resource usage data</text><path d="M312,177.9922 L376,177.9922 L376,185.125 L366,195.125 L312,195.125 L312,177.9922 " fill="#EEEEEE" style="stroke:#000000;stroke-width:1.5;"/><rect fill="none" height="125.3359" style="stroke:#000000;stroke-width:1.5;" width="599.5" x="312" y="177.9922"/><text fill="#000000" font-family="sans-serif" font-size="13" font-weight="bold" lengthAdjust="spacing" textLength="19" x="327" y="191.0591">alt</text><text fill="#000000" font-family="sans-serif" font-size="11" font-weight="bold" lengthAdjust="spacing" textLength="178" x="391" y="190.2026">[Additional AI-IRB concern?]</text><polygon fill="#181818" points="837,212.2578,847,216.2578,837,220.2578,841,216.2578" style="stroke:#181818;stroke-width:1.0;"/><line style="stroke:#181818;stroke-width:1.0;" x1="433" x2="843" y1="216.2578" y2="216.2578"/><text fill="#000000" font-family="sans-serif" font-size="13" lengthAdjust="spacing" textLength="355" x="440" y="211.1919">Submit capacity plan for ethical/data compliance review</text><polygon fill="#181818" points="444,241.3906,434,245.3906,444,249.3906,440,245.3906" style="stroke:#181818;stroke-width:1.0;"/><line style="stroke:#181818;stroke-width:1.0;" x1="438" x2="848" y1="245.3906" y2="245.3906"/><text fill="#000000" font-family="sans-serif" font-size="13" lengthAdjust="spacing" textLength="271" x="450" y="240.3247">Provide recommendations and constraints</text><line style="stroke:#000000;stroke-width:1.0;stroke-dasharray:2.0,2.0;" x1="312" x2="911.5" y1="254.3906" y2="254.3906"/><text fill="#000000" font-family="sans-serif" font-size="11" font-weight="bold" lengthAdjust="spacing" textLength="124" x="317" y="264.6011">[No AI-IRB concern]</text><path d="M322,273.1953 L322,298.1953 L544,298.1953 L544,283.1953 L534,273.1953 L322,273.1953 " fill="#FEFFDD" style="stroke:#181818;stroke-width:0.5;"/><path d="M534,273.1953 L534,283.1953 L544,283.1953 L534,273.1953 " fill="#FEFFDD" style="stroke:#181818;stroke-width:0.5;"/><text fill="#000000" font-family="sans-serif" font-size="13" lengthAdjust="spacing" textLength="201" x="328" y="290.2622">Proceed without IRB constraints</text><polygon fill="#181818" points="999,327.4609,1009,331.4609,999,335.4609,1003,331.4609" style="stroke:#181818;stroke-width:1.0;"/><line style="stroke:#181818;stroke-width:1.0;" x1="433" x2="1005" y1="331.4609" y2="331.4609"/><text fill="#000000" font-family="sans-serif" font-size="13" lengthAdjust="spacing" textLength="251" x="440" y="326.395">Present draft capacity plan for QA input</text><polygon fill="#181818" points="444,356.5938,434,360.5938,444,364.5938,440,360.5938" style="stroke:#181818;stroke-width:1.0;"/><line style="stroke:#181818;stroke-width:1.0;" x1="438" x2="1010" y1="360.5938" y2="360.5938"/><text fill="#000000" font-family="sans-serif" font-size="13" lengthAdjust="spacing" textLength="230" x="450" y="355.5278">Validate performance test coverage</text><polygon fill="#181818" points="1290,385.7266,1300,389.7266,1290,393.7266,1294,389.7266" style="stroke:#181818;stroke-width:1.0;"/><line style="stroke:#181818;stroke-width:1.0;" x1="1011" x2="1296" y1="389.7266" y2="389.7266"/><text fill="#000000" font-family="sans-serif" font-size="13" lengthAdjust="spacing" textLength="230" x="1018" y="384.6606">Confirm test environment readiness</text><polygon fill="#181818" points="1022,414.8594,1012,418.8594,1022,422.8594,1018,418.8594" style="stroke:#181818;stroke-width:1.0;"/><line style="stroke:#181818;stroke-width:1.0;" x1="1016" x2="1301" y1="418.8594" y2="418.8594"/><text fill="#000000" font-family="sans-serif" font-size="13" lengthAdjust="spacing" textLength="267" x="1028" y="413.7935">Provide any needed environment updates</text><polygon fill="#181818" points="94,443.9922,84,447.9922,94,451.9922,90,447.9922" style="stroke:#181818;stroke-width:1.0;"/><line style="stroke:#181818;stroke-width:1.0;" x1="88" x2="432" y1="447.9922" y2="447.9922"/><text fill="#000000" font-family="sans-serif" font-size="13" lengthAdjust="spacing" textLength="190" x="100" y="442.9263">Submit finalized capacity plan</text><polygon fill="#181818" points="421,473.125,431,477.125,421,481.125,425,477.125" style="stroke:#181818;stroke-width:1.0;"/><line style="stroke:#181818;stroke-width:1.0;" x1="83" x2="427" y1="477.125" y2="477.125"/><text fill="#000000" font-family="sans-serif" font-size="13" lengthAdjust="spacing" textLength="326" x="90" y="472.0591">Approve plan and incorporate into project schedule</text><polygon fill="#181818" points="708,517.3906,718,521.3906,708,525.3906,712,521.3906" style="stroke:#181818;stroke-width:1.0;"/><line style="stroke:#181818;stroke-width:1.0;" x1="433" x2="714" y1="521.3906" y2="521.3906"/><text fill="#000000" font-family="sans-serif" font-size="13" lengthAdjust="spacing" textLength="184" x="440" y="501.1919">Implement capacity changes</text><text fill="#000000" font-family="sans-serif" font-size="13" lengthAdjust="spacing" textLength="214" x="440" y="516.3247">(e.g., HPC scaling, memory, CPU)</text><polygon fill="#181818" points="444,546.5234,434,550.5234,444,554.5234,440,550.5234" style="stroke:#181818;stroke-width:1.0;"/><line style="stroke:#181818;stroke-width:1.0;" x1="438" x2="719" y1="550.5234" y2="550.5234"/><text fill="#000000" font-family="sans-serif" font-size="13" lengthAdjust="spacing" textLength="217" x="450" y="545.4575">Report successful implementation</text><polygon fill="#181818" points="94,575.6563,84,579.6563,94,583.6563,90,579.6563" style="stroke:#181818;stroke-width:1.0;"/><line style="stroke:#181818;stroke-width:1.0;" x1="88" x2="432" y1="579.6563" y2="579.6563"/><text fill="#000000" font-family="sans-serif" font-size="13" lengthAdjust="spacing" textLength="213" x="100" y="574.5903">Confirm changes in progress logs</text><polygon fill="#181818" points="999,604.7891,1009,608.7891,999,612.7891,1003,608.7891" style="stroke:#181818;stroke-width:1.0;"/><line style="stroke:#181818;stroke-width:1.0;" x1="83" x2="1005" y1="608.7891" y2="608.7891"/><text fill="#000000" font-family="sans-serif" font-size="13" lengthAdjust="spacing" textLength="155" x="90" y="603.7231">Request final verification</text><polygon fill="#181818" points="731,633.9219,721,637.9219,731,641.9219,727,637.9219" style="stroke:#181818;stroke-width:1.0;"/><line style="stroke:#181818;stroke-width:1.0;" x1="725" x2="1010" y1="637.9219" y2="637.9219"/><text fill="#000000" font-family="sans-serif" font-size="13" lengthAdjust="spacing" textLength="267" x="737" y="632.856">Verify system stability under new capacity</text><polygon fill="#181818" points="999,663.0547,1009,667.0547,999,671.0547,1003,667.0547" style="stroke:#181818;stroke-width:1.0;"/><line style="stroke:#181818;stroke-width:1.0;" x1="720" x2="1005" y1="667.0547" y2="667.0547"/><text fill="#000000" font-family="sans-serif" font-size="13" lengthAdjust="spacing" textLength="153" x="727" y="661.9888">Provide monitoring data</text><path d="M10,682.0547 L74,682.0547 L74,689.1875 L64,699.1875 L10,699.1875 L10,682.0547 " fill="#EEEEEE" style="stroke:#000000;stroke-width:1.5;"/><rect fill="none" height="183.6016" style="stroke:#000000;stroke-width:1.5;" width="1048" x="10" y="682.0547"/><text fill="#000000" font-family="sans-serif" font-size="13" font-weight="bold" lengthAdjust="spacing" textLength="19" x="25" y="695.1216">alt</text><text fill="#000000" font-family="sans-serif" font-size="11" font-weight="bold" lengthAdjust="spacing" textLength="98" x="89" y="694.2651">[Issues found?]</text><polygon fill="#181818" points="444,716.3203,434,720.3203,444,724.3203,440,720.3203" style="stroke:#181818;stroke-width:1.0;"/><line style="stroke:#181818;stroke-width:1.0;" x1="438" x2="1010" y1="720.3203" y2="720.3203"/><text fill="#000000" font-family="sans-serif" font-size="13" lengthAdjust="spacing" textLength="215" x="450" y="715.2544">Notify capacity shortfalls or errors</text><polygon fill="#181818" points="708,745.4531,718,749.4531,708,753.4531,712,749.4531" style="stroke:#181818;stroke-width:1.0;"/><line style="stroke:#181818;stroke-width:1.0;" x1="433" x2="714" y1="749.4531" y2="749.4531"/><text fill="#000000" font-family="sans-serif" font-size="13" lengthAdjust="spacing" textLength="154" x="440" y="744.3872">Coordinate adjustments</text><polygon fill="#181818" points="999,774.5859,1009,778.5859,999,782.5859,1003,778.5859" style="stroke:#181818;stroke-width:1.0;"/><line style="stroke:#181818;stroke-width:1.0;" x1="720" x2="1005" y1="778.5859" y2="778.5859"/><text fill="#000000" font-family="sans-serif" font-size="13" lengthAdjust="spacing" textLength="113" x="727" y="773.52">Re-verify changes</text><polygon fill="#181818" points="94,803.7188,84,807.7188,94,811.7188,90,807.7188" style="stroke:#181818;stroke-width:1.0;"/><line style="stroke:#181818;stroke-width:1.0;" x1="88" x2="1010" y1="807.7188" y2="807.7188"/><text fill="#000000" font-family="sans-serif" font-size="13" lengthAdjust="spacing" textLength="117" x="100" y="802.6528">Confirm resolution</text><line style="stroke:#000000;stroke-width:1.0;stroke-dasharray:2.0,2.0;" x1="10" x2="1058" y1="816.7188" y2="816.7188"/><text fill="#000000" font-family="sans-serif" font-size="11" font-weight="bold" lengthAdjust="spacing" textLength="72" x="15" y="826.9292">[No issues]</text><path d="M45,835.5234 L45,860.5234 L1048,860.5234 L1048,845.5234 L1038,835.5234 L45,835.5234 " fill="#FEFFDD" style="stroke:#181818;stroke-width:0.5;"/><path d="M1038,835.5234 L1038,845.5234 L1048,845.5234 L1038,835.5234 " fill="#FEFFDD" style="stroke:#181818;stroke-width:0.5;"/><text fill="#000000" font-family="sans-serif" font-size="13" lengthAdjust="spacing" textLength="205" x="439.5" y="852.5903">Capacity deployment successful</text><!--MD5=[7243a268d7902118657d32940fcdb5c5]
@startuml
title SOP-1003-01-AI: Capacity Management Process

participant "Project Manager" as PM
participant "Capacity Manager" as CM
participant "Operations Team" as Ops
participant "AI-IRB Liaison" as IRB
participant "QA" as QA
participant "Developer" as Dev

PM -> CM: Request initial capacity assessment
CM -> Ops: Gather system usage metrics
Ops -> CM: Provide metrics and resource usage data

alt Additional AI-IRB concern?
    CM -> IRB: Submit capacity plan for ethical/data compliance review
    IRB -> CM: Provide recommendations and constraints
else No AI-IRB concern
    note over CM: Proceed without IRB constraints
end

CM -> QA: Present draft capacity plan for QA input
QA -> CM: Validate performance test coverage
QA -> Dev: Confirm test environment readiness
Dev -> QA: Provide any needed environment updates

CM -> PM: Submit finalized capacity plan
PM -> CM: Approve plan and incorporate into project schedule

CM -> Ops: Implement capacity changes\n(e.g., HPC scaling, memory, CPU)
Ops -> CM: Report successful implementation
CM -> PM: Confirm changes in progress logs

PM -> QA: Request final verification
QA -> Ops: Verify system stability under new capacity
Ops -> QA: Provide monitoring data

alt Issues found?
    QA -> CM: Notify capacity shortfalls or errors
    CM -> Ops: Coordinate adjustments
    Ops -> QA: Re-verify changes
    QA -> PM: Confirm resolution
else No issues
    note over QA,PM: Capacity deployment successful
end
@enduml

PlantUML version 1.2022.7(Mon Aug 22 17:01:30 UTC 2022)
(GPL source distribution)
Java Runtime: OpenJDK Runtime Environment
JVM: OpenJDK 64-Bit Server VM
Default Encoding: UTF-8
Language: en
Country: null
--></g></svg>