<?xml version="1.0" encoding="UTF-8" standalone="no"?><svg xmlns="http://www.w3.org/2000/svg" xmlns:xlink="http://www.w3.org/1999/xlink" contentStyleType="text/css" height="892px" preserveAspectRatio="none" style="width:1515px;height:892px;background:#FFFFFF;" version="1.1" viewBox="0 0 1515 892" width="1515px" zoomAndPan="magnify"><defs/><g><rect fill="none" height="148.4688" style="stroke:#000000;stroke-width:1.5;" width="1498.5" x="10" y="558.4219"/><rect fill="none" height="119.3359" style="stroke:#000000;stroke-width:1.5;" width="1498.5" x="10" y="720.8906"/><line style="stroke:#181818;stroke-width:0.5;stroke-dasharray:5.0,5.0;" x1="83" x2="83" y1="36.2969" y2="857.2266"/><line style="stroke:#181818;stroke-width:0.5;stroke-dasharray:5.0,5.0;" x1="433.5" x2="433.5" y1="36.2969" y2="857.2266"/><line style="stroke:#181818;stroke-width:0.5;stroke-dasharray:5.0,5.0;" x1="567.5" x2="567.5" y1="36.2969" y2="857.2266"/><line style="stroke:#181818;stroke-width:0.5;stroke-dasharray:5.0,5.0;" x1="897" x2="897" y1="36.2969" y2="857.2266"/><line style="stroke:#181818;stroke-width:0.5;stroke-dasharray:5.0,5.0;" x1="1137" x2="1137" y1="36.2969" y2="857.2266"/><line style="stroke:#181818;stroke-width:0.5;stroke-dasharray:5.0,5.0;" x1="1471.5" x2="1471.5" y1="36.2969" y2="857.2266"/><rect fill="#E2E2F0" height="30.2969" rx="2.5" ry="2.5" style="stroke:#181818;stroke-width:0.5;" width="126" x="20" y="5"/><text fill="#000000" font-family="sans-serif" font-size="14" lengthAdjust="spacing" textLength="112" x="27" y="24.9951">Project Manager</text><rect fill="#E2E2F0" height="30.2969" rx="2.5" ry="2.5" style="stroke:#181818;stroke-width:0.5;" width="126" x="20" y="856.2266"/><text fill="#000000" font-family="sans-serif" font-size="14" lengthAdjust="spacing" textLength="112" x="27" y="876.2217">Project Manager</text><rect fill="#E2E2F0" height="30.2969" rx="2.5" ry="2.5" style="stroke:#181818;stroke-width:0.5;" width="109" x="379.5" y="5"/><text fill="#000000" font-family="sans-serif" font-size="14" lengthAdjust="spacing" textLength="95" x="386.5" y="24.9951">Data Scientist</text><rect fill="#E2E2F0" height="30.2969" rx="2.5" ry="2.5" style="stroke:#181818;stroke-width:0.5;" width="109" x="379.5" y="856.2266"/><text fill="#000000" font-family="sans-serif" font-size="14" lengthAdjust="spacing" textLength="95" x="386.5" y="876.2217">Data Scientist</text><rect fill="#E2E2F0" height="30.2969" rx="2.5" ry="2.5" style="stroke:#181818;stroke-width:0.5;" width="138" x="498.5" y="5"/><text fill="#000000" font-family="sans-serif" font-size="14" lengthAdjust="spacing" textLength="124" x="505.5" y="24.9951">Risk Management</text><rect fill="#E2E2F0" height="30.2969" rx="2.5" ry="2.5" style="stroke:#181818;stroke-width:0.5;" width="138" x="498.5" y="856.2266"/><text fill="#000000" font-family="sans-serif" font-size="14" lengthAdjust="spacing" textLength="124" x="505.5" y="876.2217">Risk Management</text><rect fill="#E2E2F0" height="30.2969" rx="2.5" ry="2.5" style="stroke:#181818;stroke-width:0.5;" width="157" x="819" y="5"/><text fill="#000000" font-family="sans-serif" font-size="14" lengthAdjust="spacing" textLength="143" x="826" y="24.9951">AI Governance Office</text><rect fill="#E2E2F0" height="30.2969" rx="2.5" ry="2.5" style="stroke:#181818;stroke-width:0.5;" width="157" x="819" y="856.2266"/><text fill="#000000" font-family="sans-serif" font-size="14" lengthAdjust="spacing" textLength="143" x="826" y="876.2217">AI Governance Office</text><rect fill="#E2E2F0" height="30.2969" rx="2.5" ry="2.5" style="stroke:#181818;stroke-width:0.5;" width="137" x="1069" y="5"/><text fill="#000000" font-family="sans-serif" font-size="14" lengthAdjust="spacing" textLength="123" x="1076" y="24.9951">Quality Assurance</text><rect fill="#E2E2F0" height="30.2969" rx="2.5" ry="2.5" style="stroke:#181818;stroke-width:0.5;" width="137" x="1069" y="856.2266"/><text fill="#000000" font-family="sans-serif" font-size="14" lengthAdjust="spacing" textLength="123" x="1076" y="876.2217">Quality Assurance</text><rect fill="#E2E2F0" height="30.2969" rx="2.5" ry="2.5" style="stroke:#181818;stroke-width:0.5;" width="54" x="1444.5" y="5"/><text fill="#000000" font-family="sans-serif" font-size="14" lengthAdjust="spacing" textLength="40" x="1451.5" y="24.9951">AI-IRB</text><rect fill="#E2E2F0" height="30.2969" rx="2.5" ry="2.5" style="stroke:#181818;stroke-width:0.5;" width="54" x="1444.5" y="856.2266"/><text fill="#000000" font-family="sans-serif" font-size="14" lengthAdjust="spacing" textLength="40" x="1451.5" y="876.2217">AI-IRB</text><line style="stroke:#181818;stroke-width:1.0;" x1="83" x2="125" y1="67.4297" y2="67.4297"/><line style="stroke:#181818;stroke-width:1.0;" x1="125" x2="125" y1="67.4297" y2="80.4297"/><line style="stroke:#181818;stroke-width:1.0;" x1="84" x2="125" y1="80.4297" y2="80.4297"/><polygon fill="#181818" points="94,76.4297,84,80.4297,94,84.4297,90,80.4297" style="stroke:#181818;stroke-width:1.0;"/><text fill="#000000" font-family="sans-serif" font-size="13" lengthAdjust="spacing" textLength="246" x="90" y="62.3638">Recognize new AI project requires ERIA</text><polygon fill="#181818" points="422,105.5625,432,109.5625,422,113.5625,426,109.5625" style="stroke:#181818;stroke-width:1.0;"/><line style="stroke:#181818;stroke-width:1.0;" x1="83" x2="428" y1="109.5625" y2="109.5625"/><text fill="#000000" font-family="sans-serif" font-size="13" lengthAdjust="spacing" textLength="264" x="90" y="104.4966">Request project scope &amp; technical details</text><polygon fill="#181818" points="94,134.6953,84,138.6953,94,142.6953,90,138.6953" style="stroke:#181818;stroke-width:1.0;"/><line style="stroke:#181818;stroke-width:1.0;stroke-dasharray:2.0,2.0;" x1="88" x2="433" y1="138.6953" y2="138.6953"/><text fill="#000000" font-family="sans-serif" font-size="13" lengthAdjust="spacing" textLength="327" x="100" y="133.6294">Provide design specs, data usage, model summary</text><polygon fill="#181818" points="885.5,163.8281,895.5,167.8281,885.5,171.8281,889.5,167.8281" style="stroke:#181818;stroke-width:1.0;"/><line style="stroke:#181818;stroke-width:1.0;" x1="83" x2="891.5" y1="167.8281" y2="167.8281"/><text fill="#000000" font-family="sans-serif" font-size="13" lengthAdjust="spacing" textLength="264" x="90" y="162.7622">Initiate Ethical Risk &amp; Impact Assessment</text><polygon fill="#181818" points="445,192.9609,435,196.9609,445,200.9609,441,196.9609" style="stroke:#181818;stroke-width:1.0;"/><line style="stroke:#181818;stroke-width:1.0;" x1="439" x2="896.5" y1="196.9609" y2="196.9609"/><text fill="#000000" font-family="sans-serif" font-size="13" lengthAdjust="spacing" textLength="263" x="451" y="191.895">Request expanded technical clarifications</text><polygon fill="#181818" points="885.5,222.0938,895.5,226.0938,885.5,230.0938,889.5,226.0938" style="stroke:#181818;stroke-width:1.0;"/><line style="stroke:#181818;stroke-width:1.0;stroke-dasharray:2.0,2.0;" x1="434" x2="891.5" y1="226.0938" y2="226.0938"/><text fill="#000000" font-family="sans-serif" font-size="13" lengthAdjust="spacing" textLength="275" x="441" y="221.0278">Submit data sources &amp; architecture details</text><polygon fill="#181818" points="578.5,251.2266,568.5,255.2266,578.5,259.2266,574.5,255.2266" style="stroke:#181818;stroke-width:1.0;"/><line style="stroke:#181818;stroke-width:1.0;" x1="572.5" x2="896.5" y1="255.2266" y2="255.2266"/><text fill="#000000" font-family="sans-serif" font-size="13" lengthAdjust="spacing" textLength="221" x="584.5" y="250.1606">Begin risk identification brainstorm</text><line style="stroke:#181818;stroke-width:1.0;" x1="567.5" x2="609.5" y1="284.3594" y2="284.3594"/><line style="stroke:#181818;stroke-width:1.0;" x1="609.5" x2="609.5" y1="284.3594" y2="297.3594"/><line style="stroke:#181818;stroke-width:1.0;" x1="568.5" x2="609.5" y1="297.3594" y2="297.3594"/><polygon fill="#181818" points="578.5,293.3594,568.5,297.3594,578.5,301.3594,574.5,297.3594" style="stroke:#181818;stroke-width:1.0;"/><text fill="#000000" font-family="sans-serif" font-size="13" lengthAdjust="spacing" textLength="312" x="574.5" y="279.2935">Compile potential ethical or data privacy hazards</text><polygon fill="#181818" points="94,322.4922,84,326.4922,94,330.4922,90,326.4922" style="stroke:#181818;stroke-width:1.0;"/><line style="stroke:#181818;stroke-width:1.0;" x1="88" x2="566.5" y1="326.4922" y2="326.4922"/><text fill="#000000" font-family="sans-serif" font-size="13" lengthAdjust="spacing" textLength="344" x="100" y="321.4263">Provide initial risk classification (Low/Med/High/Critical)</text><polygon fill="#181818" points="885.5,351.625,895.5,355.625,885.5,359.625,889.5,355.625" style="stroke:#181818;stroke-width:1.0;"/><line style="stroke:#181818;stroke-width:1.0;" x1="83" x2="891.5" y1="355.625" y2="355.625"/><text fill="#000000" font-family="sans-serif" font-size="13" lengthAdjust="spacing" textLength="257" x="90" y="350.5591">Draft ERIA document with identified risks</text><polygon fill="#181818" points="578.5,380.7578,568.5,384.7578,578.5,388.7578,574.5,384.7578" style="stroke:#181818;stroke-width:1.0;"/><line style="stroke:#181818;stroke-width:1.0;" x1="572.5" x2="896.5" y1="384.7578" y2="384.7578"/><text fill="#000000" font-family="sans-serif" font-size="13" lengthAdjust="spacing" textLength="286" x="584.5" y="379.6919">Request recommended mitigation strategies</text><polygon fill="#181818" points="885.5,409.8906,895.5,413.8906,885.5,417.8906,889.5,413.8906" style="stroke:#181818;stroke-width:1.0;"/><line style="stroke:#181818;stroke-width:1.0;stroke-dasharray:2.0,2.0;" x1="567.5" x2="891.5" y1="413.8906" y2="413.8906"/><text fill="#000000" font-family="sans-serif" font-size="13" lengthAdjust="spacing" textLength="271" x="574.5" y="408.8247">Provide actionable steps for risk mitigation</text><polygon fill="#181818" points="1125.5,439.0234,1135.5,443.0234,1125.5,447.0234,1129.5,443.0234" style="stroke:#181818;stroke-width:1.0;"/><line style="stroke:#181818;stroke-width:1.0;" x1="897.5" x2="1131.5" y1="443.0234" y2="443.0234"/><text fill="#000000" font-family="sans-serif" font-size="13" lengthAdjust="spacing" textLength="216" x="904.5" y="437.9575">Submit ERIA for internal validation</text><line style="stroke:#181818;stroke-width:1.0;" x1="1137.5" x2="1179.5" y1="472.1563" y2="472.1563"/><line style="stroke:#181818;stroke-width:1.0;" x1="1179.5" x2="1179.5" y1="472.1563" y2="485.1563"/><line style="stroke:#181818;stroke-width:1.0;" x1="1138.5" x2="1179.5" y1="485.1563" y2="485.1563"/><polygon fill="#181818" points="1148.5,481.1563,1138.5,485.1563,1148.5,489.1563,1144.5,485.1563" style="stroke:#181818;stroke-width:1.0;"/><text fill="#000000" font-family="sans-serif" font-size="13" lengthAdjust="spacing" textLength="320" x="1144.5" y="467.0903">Validate completeness and regulatory compliance</text><polygon fill="#181818" points="908.5,510.2891,898.5,514.2891,908.5,518.2891,904.5,514.2891" style="stroke:#181818;stroke-width:1.0;"/><line style="stroke:#181818;stroke-width:1.0;stroke-dasharray:2.0,2.0;" x1="902.5" x2="1136.5" y1="514.2891" y2="514.2891"/><text fill="#000000" font-family="sans-serif" font-size="13" lengthAdjust="spacing" textLength="127" x="914.5" y="509.2231">Validation complete</text><polygon fill="#181818" points="1459.5,539.4219,1469.5,543.4219,1459.5,547.4219,1463.5,543.4219" style="stroke:#181818;stroke-width:1.0;"/><line style="stroke:#181818;stroke-width:1.0;" x1="897.5" x2="1465.5" y1="543.4219" y2="543.4219"/><text fill="#000000" font-family="sans-serif" font-size="13" lengthAdjust="spacing" textLength="192" x="904.5" y="538.356">Submit final ERIA for oversight</text><path d="M10,558.4219 L74,558.4219 L74,565.5547 L64,575.5547 L10,575.5547 L10,558.4219 " fill="#EEEEEE" style="stroke:#000000;stroke-width:1.5;"/><rect fill="none" height="148.4688" style="stroke:#000000;stroke-width:1.5;" width="1498.5" x="10" y="558.4219"/><text fill="#000000" font-family="sans-serif" font-size="13" font-weight="bold" lengthAdjust="spacing" textLength="19" x="25" y="571.4888">alt</text><text fill="#000000" font-family="sans-serif" font-size="11" font-weight="bold" lengthAdjust="spacing" textLength="172" x="89" y="570.6323">[IRB requests clarification]</text><polygon fill="#181818" points="908.5,592.6875,898.5,596.6875,908.5,600.6875,904.5,596.6875" style="stroke:#181818;stroke-width:1.0;"/><line style="stroke:#181818;stroke-width:1.0;" x1="902.5" x2="1470.5" y1="596.6875" y2="596.6875"/><text fill="#000000" font-family="sans-serif" font-size="13" lengthAdjust="spacing" textLength="133" x="914.5" y="591.6216">Clarifications needed</text><polygon fill="#181818" points="94,621.8203,84,625.8203,94,629.8203,90,625.8203" style="stroke:#181818;stroke-width:1.0;"/><line style="stroke:#181818;stroke-width:1.0;" x1="88" x2="896.5" y1="625.8203" y2="625.8203"/><text fill="#000000" font-family="sans-serif" font-size="13" lengthAdjust="spacing" textLength="191" x="100" y="620.7544">Update ERIA with clarifications</text><polygon fill="#181818" points="1459.5,650.9531,1469.5,654.9531,1459.5,658.9531,1463.5,654.9531" style="stroke:#181818;stroke-width:1.0;"/><line style="stroke:#181818;stroke-width:1.0;" x1="83" x2="1465.5" y1="654.9531" y2="654.9531"/><text fill="#000000" font-family="sans-serif" font-size="13" lengthAdjust="spacing" textLength="142" x="90" y="649.8872">Resubmit revised ERIA</text><line style="stroke:#000000;stroke-width:1.0;stroke-dasharray:2.0,2.0;" x1="10" x2="1508.5" y1="663.9531" y2="663.9531"/><text fill="#000000" font-family="sans-serif" font-size="11" font-weight="bold" lengthAdjust="spacing" textLength="111" x="15" y="674.1636">[IRB rejects ERIA]</text><polygon fill="#181818" points="94,694.8906,84,698.8906,94,702.8906,90,698.8906" style="stroke:#181818;stroke-width:1.0;"/><line style="stroke:#181818;stroke-width:1.0;" x1="88" x2="1470.5" y1="698.8906" y2="698.8906"/><text fill="#000000" font-family="sans-serif" font-size="13" lengthAdjust="spacing" textLength="246" x="100" y="693.8247">Rejection, substantial revision required</text><path d="M10,720.8906 L74,720.8906 L74,728.0234 L64,738.0234 L10,738.0234 L10,720.8906 " fill="#EEEEEE" style="stroke:#000000;stroke-width:1.5;"/><rect fill="none" height="119.3359" style="stroke:#000000;stroke-width:1.5;" width="1498.5" x="10" y="720.8906"/><text fill="#000000" font-family="sans-serif" font-size="13" font-weight="bold" lengthAdjust="spacing" textLength="19" x="25" y="733.9575">alt</text><text fill="#000000" font-family="sans-serif" font-size="11" font-weight="bold" lengthAdjust="spacing" textLength="94" x="89" y="733.1011">[IRB approves]</text><polygon fill="#181818" points="94,755.1563,84,759.1563,94,763.1563,90,759.1563" style="stroke:#181818;stroke-width:1.0;"/><line style="stroke:#181818;stroke-width:1.0;" x1="88" x2="1470.5" y1="759.1563" y2="759.1563"/><text fill="#000000" font-family="sans-serif" font-size="13" lengthAdjust="spacing" textLength="92" x="100" y="754.0903">ERIA approved</text><polygon fill="#181818" points="885.5,784.2891,895.5,788.2891,885.5,792.2891,889.5,788.2891" style="stroke:#181818;stroke-width:1.0;"/><line style="stroke:#181818;stroke-width:1.0;" x1="83" x2="891.5" y1="788.2891" y2="788.2891"/><text fill="#000000" font-family="sans-serif" font-size="13" lengthAdjust="spacing" textLength="272" x="90" y="783.2231">Proceed with implementing mitigation plan</text><polygon fill="#181818" points="578.5,813.4219,568.5,817.4219,578.5,821.4219,574.5,817.4219" style="stroke:#181818;stroke-width:1.0;"/><line style="stroke:#181818;stroke-width:1.0;" x1="572.5" x2="896.5" y1="817.4219" y2="817.4219"/><text fill="#000000" font-family="sans-serif" font-size="13" lengthAdjust="spacing" textLength="306" x="584.5" y="812.356">Begin continuous monitoring and reassessment</text><line style="stroke:#000000;stroke-width:1.0;stroke-dasharray:2.0,2.0;" x1="10" x2="1508.5" y1="826.4219" y2="826.4219"/><text fill="#000000" font-family="sans-serif" font-size="11" font-weight="bold" lengthAdjust="spacing" textLength="118" x="15" y="836.6323">[no further action]</text><!--MD5=[071c3ab3a29ae15f4e49bb73c335e902]
@startuml
participant "Project Manager" as PM
participant "Data Scientist" as DS
participant "Risk Management" as RM
participant "AI Governance Office" as AIGO
participant "Quality Assurance" as QA
participant "AI-IRB" as IRB

PM -> PM: Recognize new AI project requires ERIA
PM -> DS: Request project scope & technical details
DS - -> PM: Provide design specs, data usage, model summary

PM -> AIGO: Initiate Ethical Risk & Impact Assessment
AIGO -> DS: Request expanded technical clarifications
DS - -> AIGO: Submit data sources & architecture details

AIGO -> RM: Begin risk identification brainstorm
RM -> RM: Compile potential ethical or data privacy hazards
RM -> PM: Provide initial risk classification (Low/Med/High/Critical)

PM -> AIGO: Draft ERIA document with identified risks
AIGO -> RM: Request recommended mitigation strategies
RM - -> AIGO: Provide actionable steps for risk mitigation

AIGO -> QA: Submit ERIA for internal validation
QA -> QA: Validate completeness and regulatory compliance
QA - -> AIGO: Validation complete

AIGO -> IRB: Submit final ERIA for oversight
alt IRB requests clarification
  IRB -> AIGO: Clarifications needed
  AIGO -> PM: Update ERIA with clarifications
  PM -> IRB: Resubmit revised ERIA
else IRB rejects ERIA
  IRB -> PM: Rejection, substantial revision required
end

alt IRB approves
  IRB -> PM: ERIA approved
  PM -> AIGO: Proceed with implementing mitigation plan
  AIGO -> RM: Begin continuous monitoring and reassessment
else no further action
end
@enduml

PlantUML version 1.2022.7(Mon Aug 22 17:01:30 UTC 2022)
(GPL source distribution)
Java Runtime: OpenJDK Runtime Environment
JVM: OpenJDK 64-Bit Server VM
Default Encoding: UTF-8
Language: en
Country: null
--></g></svg>