<?xml version="1.0" encoding="UTF-8" standalone="no"?><svg xmlns="http://www.w3.org/2000/svg" xmlns:xlink="http://www.w3.org/1999/xlink" contentStyleType="text/css" height="1446px" preserveAspectRatio="none" style="width:2699px;height:1446px;background:#FFFFFF;" version="1.1" viewBox="0 0 2699 1446" width="2699px" zoomAndPan="magnify"><defs/><g><rect fill="none" height="26.2969" id="_title" style="stroke:none;stroke-width:1.0;" width="458" x="1120" y="10"/><text fill="#000000" font-family="sans-serif" font-size="14" font-weight="bold" lengthAdjust="spacing" textLength="448" x="1125" y="27.9951">SOP-1012-01-AI: AI Model Explainability &amp; Interpretability</text><rect fill="none" height="119.3359" style="stroke:#000000;stroke-width:1.5;" width="854.5" x="255.5" y="177.9922"/><rect fill="none" height="88.3984" style="stroke:#000000;stroke-width:1.5;" width="1114.5" x="255.5" y="696.7891"/><rect fill="none" height="119.3359" style="stroke:#000000;stroke-width:1.5;" width="1114.5" x="255.5" y="1145.6484"/><line style="stroke:#181818;stroke-width:0.5;stroke-dasharray:5.0,5.0;" x1="86" x2="86" y1="73.5938" y2="1411.5156"/><line style="stroke:#181818;stroke-width:0.5;stroke-dasharray:5.0,5.0;" x1="315.5" x2="315.5" y1="73.5938" y2="1411.5156"/><line style="stroke:#181818;stroke-width:0.5;stroke-dasharray:5.0,5.0;" x1="666.5" x2="666.5" y1="73.5938" y2="1411.5156"/><line style="stroke:#181818;stroke-width:0.5;stroke-dasharray:5.0,5.0;" x1="1047" x2="1047" y1="73.5938" y2="1411.5156"/><line style="stroke:#181818;stroke-width:0.5;stroke-dasharray:5.0,5.0;" x1="1291" x2="1291" y1="73.5938" y2="1411.5156"/><line style="stroke:#181818;stroke-width:0.5;stroke-dasharray:5.0,5.0;" x1="1603.5" x2="1603.5" y1="73.5938" y2="1411.5156"/><line style="stroke:#181818;stroke-width:0.5;stroke-dasharray:5.0,5.0;" x1="1946" x2="1946" y1="73.5938" y2="1411.5156"/><line style="stroke:#181818;stroke-width:0.5;stroke-dasharray:5.0,5.0;" x1="2228.5" x2="2228.5" y1="73.5938" y2="1411.5156"/><line style="stroke:#181818;stroke-width:0.5;stroke-dasharray:5.0,5.0;" x1="2359.5" x2="2359.5" y1="73.5938" y2="1411.5156"/><rect fill="#E2E2F0" height="30.2969" rx="2.5" ry="2.5" style="stroke:#181818;stroke-width:0.5;" width="163" x="5" y="42.2969"/><text fill="#000000" font-family="sans-serif" font-size="14" lengthAdjust="spacing" textLength="149" x="12" y="62.292">Product Management</text><rect fill="#E2E2F0" height="30.2969" rx="2.5" ry="2.5" style="stroke:#181818;stroke-width:0.5;" width="163" x="5" y="1410.5156"/><text fill="#000000" font-family="sans-serif" font-size="14" lengthAdjust="spacing" textLength="149" x="12" y="1430.5107">Product Management</text><rect fill="#E2E2F0" height="30.2969" rx="2.5" ry="2.5" style="stroke:#181818;stroke-width:0.5;" width="100" x="265.5" y="42.2969"/><text fill="#000000" font-family="sans-serif" font-size="14" lengthAdjust="spacing" textLength="86" x="272.5" y="62.292">AI Dev Team</text><rect fill="#E2E2F0" height="30.2969" rx="2.5" ry="2.5" style="stroke:#181818;stroke-width:0.5;" width="100" x="265.5" y="1410.5156"/><text fill="#000000" font-family="sans-serif" font-size="14" lengthAdjust="spacing" textLength="86" x="272.5" y="1430.5107">AI Dev Team</text><rect fill="#E2E2F0" height="30.2969" rx="2.5" ry="2.5" style="stroke:#181818;stroke-width:0.5;" width="142" x="595.5" y="42.2969"/><text fill="#000000" font-family="sans-serif" font-size="14" lengthAdjust="spacing" textLength="128" x="602.5" y="62.292">Data Science Lead</text><rect fill="#E2E2F0" height="30.2969" rx="2.5" ry="2.5" style="stroke:#181818;stroke-width:0.5;" width="142" x="595.5" y="1410.5156"/><text fill="#000000" font-family="sans-serif" font-size="14" lengthAdjust="spacing" textLength="128" x="602.5" y="1430.5107">Data Science Lead</text><rect fill="#E2E2F0" height="30.2969" rx="2.5" ry="2.5" style="stroke:#181818;stroke-width:0.5;" width="105" x="995" y="42.2969"/><text fill="#000000" font-family="sans-serif" font-size="14" lengthAdjust="spacing" textLength="91" x="1002" y="62.292">AI-IRB Liaison</text><rect fill="#E2E2F0" height="30.2969" rx="2.5" ry="2.5" style="stroke:#181818;stroke-width:0.5;" width="105" x="995" y="1410.5156"/><text fill="#000000" font-family="sans-serif" font-size="14" lengthAdjust="spacing" textLength="91" x="1002" y="1430.5107">AI-IRB Liaison</text><rect fill="#E2E2F0" height="30.2969" rx="2.5" ry="2.5" style="stroke:#181818;stroke-width:0.5;" width="137" x="1223" y="42.2969"/><text fill="#000000" font-family="sans-serif" font-size="14" lengthAdjust="spacing" textLength="123" x="1230" y="62.292">Quality Assurance</text><rect fill="#E2E2F0" height="30.2969" rx="2.5" ry="2.5" style="stroke:#181818;stroke-width:0.5;" width="137" x="1223" y="1410.5156"/><text fill="#000000" font-family="sans-serif" font-size="14" lengthAdjust="spacing" textLength="123" x="1230" y="1430.5107">Quality Assurance</text><rect fill="#E2E2F0" height="30.2969" rx="2.5" ry="2.5" style="stroke:#181818;stroke-width:0.5;" width="136" x="1535.5" y="42.2969"/><text fill="#000000" font-family="sans-serif" font-size="14" lengthAdjust="spacing" textLength="122" x="1542.5" y="62.292">Legal/Compliance</text><rect fill="#E2E2F0" height="30.2969" rx="2.5" ry="2.5" style="stroke:#181818;stroke-width:0.5;" width="136" x="1535.5" y="1410.5156"/><text fill="#000000" font-family="sans-serif" font-size="14" lengthAdjust="spacing" textLength="122" x="1542.5" y="1430.5107">Legal/Compliance</text><rect fill="#E2E2F0" height="30.2969" rx="2.5" ry="2.5" style="stroke:#181818;stroke-width:0.5;" width="139" x="1877" y="42.2969"/><text fill="#000000" font-family="sans-serif" font-size="14" lengthAdjust="spacing" textLength="125" x="1884" y="62.292">Technical Support</text><rect fill="#E2E2F0" height="30.2969" rx="2.5" ry="2.5" style="stroke:#181818;stroke-width:0.5;" width="139" x="1877" y="1410.5156"/><text fill="#000000" font-family="sans-serif" font-size="14" lengthAdjust="spacing" textLength="125" x="1884" y="1430.5107">Technical Support</text><rect fill="#E2E2F0" height="30.2969" rx="2.5" ry="2.5" style="stroke:#181818;stroke-width:0.5;" width="90" x="2183.5" y="42.2969"/><text fill="#000000" font-family="sans-serif" font-size="14" lengthAdjust="spacing" textLength="76" x="2190.5" y="62.292">Operations</text><rect fill="#E2E2F0" height="30.2969" rx="2.5" ry="2.5" style="stroke:#181818;stroke-width:0.5;" width="90" x="2183.5" y="1410.5156"/><text fill="#000000" font-family="sans-serif" font-size="14" lengthAdjust="spacing" textLength="76" x="2190.5" y="1430.5107">Operations</text><rect fill="#E2E2F0" height="30.2969" rx="2.5" ry="2.5" style="stroke:#181818;stroke-width:0.5;" width="153" x="2283.5" y="42.2969"/><text fill="#000000" font-family="sans-serif" font-size="14" lengthAdjust="spacing" textLength="139" x="2290.5" y="62.292">Senior Management</text><rect fill="#E2E2F0" height="30.2969" rx="2.5" ry="2.5" style="stroke:#181818;stroke-width:0.5;" width="153" x="2283.5" y="1410.5156"/><text fill="#000000" font-family="sans-serif" font-size="14" lengthAdjust="spacing" textLength="139" x="2290.5" y="1430.5107">Senior Management</text><polygon fill="#181818" points="303.5,100.7266,313.5,104.7266,303.5,108.7266,307.5,104.7266" style="stroke:#181818;stroke-width:1.0;"/><line style="stroke:#181818;stroke-width:1.0;" x1="86.5" x2="309.5" y1="104.7266" y2="104.7266"/><text fill="#000000" font-family="sans-serif" font-size="13" lengthAdjust="spacing" textLength="205" x="93.5" y="99.6606">Identify need for AI explainability</text><polygon fill="#181818" points="654.5,129.8594,664.5,133.8594,654.5,137.8594,658.5,133.8594" style="stroke:#181818;stroke-width:1.0;"/><line style="stroke:#181818;stroke-width:1.0;" x1="315.5" x2="660.5" y1="133.8594" y2="133.8594"/><text fill="#000000" font-family="sans-serif" font-size="13" lengthAdjust="spacing" textLength="327" x="322.5" y="128.7935">Request advice on suitable explanation frameworks</text><polygon fill="#181818" points="1035.5,158.9922,1045.5,162.9922,1035.5,166.9922,1039.5,162.9922" style="stroke:#181818;stroke-width:1.0;"/><line style="stroke:#181818;stroke-width:1.0;" x1="666.5" x2="1041.5" y1="162.9922" y2="162.9922"/><text fill="#000000" font-family="sans-serif" font-size="13" lengthAdjust="spacing" textLength="357" x="673.5" y="157.9263">Present proposed approach for ethical/regulatory review</text><path d="M255.5,177.9922 L319.5,177.9922 L319.5,185.125 L309.5,195.125 L255.5,195.125 L255.5,177.9922 " fill="#EEEEEE" style="stroke:#000000;stroke-width:1.5;"/><rect fill="none" height="119.3359" style="stroke:#000000;stroke-width:1.5;" width="854.5" x="255.5" y="177.9922"/><text fill="#000000" font-family="sans-serif" font-size="13" font-weight="bold" lengthAdjust="spacing" textLength="19" x="270.5" y="191.0591">alt</text><text fill="#000000" font-family="sans-serif" font-size="11" font-weight="bold" lengthAdjust="spacing" textLength="117" x="334.5" y="190.2026">[If concerns arise]</text><polygon fill="#181818" points="677.5,212.2578,667.5,216.2578,677.5,220.2578,673.5,216.2578" style="stroke:#181818;stroke-width:1.0;"/><line style="stroke:#181818;stroke-width:1.0;" x1="671.5" x2="1046.5" y1="216.2578" y2="216.2578"/><text fill="#000000" font-family="sans-serif" font-size="13" lengthAdjust="spacing" textLength="219" x="683.5" y="211.1919">Raise compliance/ethical concerns</text><polygon fill="#181818" points="326.5,241.3906,316.5,245.3906,326.5,249.3906,322.5,245.3906" style="stroke:#181818;stroke-width:1.0;"/><line style="stroke:#181818;stroke-width:1.0;" x1="320.5" x2="665.5" y1="245.3906" y2="245.3906"/><text fill="#000000" font-family="sans-serif" font-size="13" lengthAdjust="spacing" textLength="239" x="332.5" y="240.3247">Revise approach to address concerns</text><line style="stroke:#000000;stroke-width:1.0;stroke-dasharray:2.0,2.0;" x1="255.5" x2="1110" y1="254.3906" y2="254.3906"/><text fill="#000000" font-family="sans-serif" font-size="11" font-weight="bold" lengthAdjust="spacing" textLength="129" x="260.5" y="264.6011">[No major concerns]</text><polygon fill="#181818" points="677.5,285.3281,667.5,289.3281,677.5,293.3281,673.5,289.3281" style="stroke:#181818;stroke-width:1.0;"/><line style="stroke:#181818;stroke-width:1.0;" x1="671.5" x2="1046.5" y1="289.3281" y2="289.3281"/><text fill="#000000" font-family="sans-serif" font-size="13" lengthAdjust="spacing" textLength="207" x="683.5" y="284.2622">No critical issues found, proceed</text><polygon fill="#181818" points="326.5,321.4609,316.5,325.4609,326.5,329.4609,322.5,325.4609" style="stroke:#181818;stroke-width:1.0;"/><line style="stroke:#181818;stroke-width:1.0;" x1="320.5" x2="665.5" y1="325.4609" y2="325.4609"/><text fill="#000000" font-family="sans-serif" font-size="13" lengthAdjust="spacing" textLength="285" x="332.5" y="320.395">Confirm global/local interpretability approach</text><line style="stroke:#181818;stroke-width:1.0;" x1="315.5" x2="357.5" y1="354.5938" y2="354.5938"/><line style="stroke:#181818;stroke-width:1.0;" x1="357.5" x2="357.5" y1="354.5938" y2="367.5938"/><line style="stroke:#181818;stroke-width:1.0;" x1="316.5" x2="357.5" y1="367.5938" y2="367.5938"/><polygon fill="#181818" points="326.5,363.5938,316.5,367.5938,326.5,371.5938,322.5,367.5938" style="stroke:#181818;stroke-width:1.0;"/><text fill="#000000" font-family="sans-serif" font-size="13" lengthAdjust="spacing" textLength="203" x="322.5" y="349.5278">Implement or refine design plan</text><polygon fill="#181818" points="1035.5,392.7266,1045.5,396.7266,1035.5,400.7266,1039.5,396.7266" style="stroke:#181818;stroke-width:1.0;"/><line style="stroke:#181818;stroke-width:1.0;" x1="315.5" x2="1041.5" y1="396.7266" y2="396.7266"/><text fill="#000000" font-family="sans-serif" font-size="13" lengthAdjust="spacing" textLength="180" x="322.5" y="391.6606">Provide final plan for sign-off</text><polygon fill="#181818" points="326.5,421.8594,316.5,425.8594,326.5,429.8594,322.5,425.8594" style="stroke:#181818;stroke-width:1.0;"/><line style="stroke:#181818;stroke-width:1.0;" x1="320.5" x2="1046.5" y1="425.8594" y2="425.8594"/><text fill="#000000" font-family="sans-serif" font-size="13" lengthAdjust="spacing" textLength="125" x="332.5" y="420.7935">Approved approach</text><line style="stroke:#181818;stroke-width:1.0;" x1="315.5" x2="357.5" y1="454.9922" y2="454.9922"/><line style="stroke:#181818;stroke-width:1.0;" x1="357.5" x2="357.5" y1="454.9922" y2="467.9922"/><line style="stroke:#181818;stroke-width:1.0;" x1="316.5" x2="357.5" y1="467.9922" y2="467.9922"/><polygon fill="#181818" points="326.5,463.9922,316.5,467.9922,326.5,471.9922,322.5,467.9922" style="stroke:#181818;stroke-width:1.0;"/><text fill="#000000" font-family="sans-serif" font-size="13" lengthAdjust="spacing" textLength="335" x="322.5" y="449.9263">Implement model &amp; integrate explanation technique</text><polygon fill="#181818" points="1279.5,493.125,1289.5,497.125,1279.5,501.125,1283.5,497.125" style="stroke:#181818;stroke-width:1.0;"/><line style="stroke:#181818;stroke-width:1.0;" x1="315.5" x2="1285.5" y1="497.125" y2="497.125"/><text fill="#000000" font-family="sans-serif" font-size="13" lengthAdjust="spacing" textLength="314" x="322.5" y="492.0591">Provide code for review of explanation generation</text><polygon fill="#181818" points="326.5,522.2578,316.5,526.2578,326.5,530.2578,322.5,526.2578" style="stroke:#181818;stroke-width:1.0;"/><line style="stroke:#181818;stroke-width:1.0;" x1="320.5" x2="1290.5" y1="526.2578" y2="526.2578"/><text fill="#000000" font-family="sans-serif" font-size="13" lengthAdjust="spacing" textLength="185" x="332.5" y="521.1919">Feedback on potential issues</text><line style="stroke:#181818;stroke-width:1.0;" x1="315.5" x2="357.5" y1="555.3906" y2="555.3906"/><line style="stroke:#181818;stroke-width:1.0;" x1="357.5" x2="357.5" y1="555.3906" y2="568.3906"/><line style="stroke:#181818;stroke-width:1.0;" x1="316.5" x2="357.5" y1="568.3906" y2="568.3906"/><polygon fill="#181818" points="326.5,564.3906,316.5,568.3906,326.5,572.3906,322.5,568.3906" style="stroke:#181818;stroke-width:1.0;"/><text fill="#000000" font-family="sans-serif" font-size="13" lengthAdjust="spacing" textLength="152" x="322.5" y="550.3247">Resolve any QA findings</text><line style="stroke:#181818;stroke-width:1.0;" x1="315.5" x2="357.5" y1="597.5234" y2="597.5234"/><line style="stroke:#181818;stroke-width:1.0;" x1="357.5" x2="357.5" y1="597.5234" y2="610.5234"/><line style="stroke:#181818;stroke-width:1.0;" x1="316.5" x2="357.5" y1="610.5234" y2="610.5234"/><polygon fill="#181818" points="326.5,606.5234,316.5,610.5234,326.5,614.5234,322.5,610.5234" style="stroke:#181818;stroke-width:1.0;"/><text fill="#000000" font-family="sans-serif" font-size="13" lengthAdjust="spacing" textLength="308" x="322.5" y="592.4575">Generate sample explanation outputs in staging</text><polygon fill="#181818" points="1279.5,635.6563,1289.5,639.6563,1279.5,643.6563,1283.5,639.6563" style="stroke:#181818;stroke-width:1.0;"/><line style="stroke:#181818;stroke-width:1.0;" x1="315.5" x2="1285.5" y1="639.6563" y2="639.6563"/><text fill="#000000" font-family="sans-serif" font-size="13" lengthAdjust="spacing" textLength="215" x="322.5" y="634.5903">Deliver test artifacts for validation</text><line style="stroke:#181818;stroke-width:1.0;" x1="1291.5" x2="1333.5" y1="668.7891" y2="668.7891"/><line style="stroke:#181818;stroke-width:1.0;" x1="1333.5" x2="1333.5" y1="668.7891" y2="681.7891"/><line style="stroke:#181818;stroke-width:1.0;" x1="1292.5" x2="1333.5" y1="681.7891" y2="681.7891"/><polygon fill="#181818" points="1302.5,677.7891,1292.5,681.7891,1302.5,685.7891,1298.5,681.7891" style="stroke:#181818;stroke-width:1.0;"/><text fill="#000000" font-family="sans-serif" font-size="13" lengthAdjust="spacing" textLength="298" x="1298.5" y="663.7231">Validate explanation correctness &amp; traceability</text><path d="M255.5,696.7891 L319.5,696.7891 L319.5,703.9219 L309.5,713.9219 L255.5,713.9219 L255.5,696.7891 " fill="#EEEEEE" style="stroke:#000000;stroke-width:1.5;"/><rect fill="none" height="88.3984" style="stroke:#000000;stroke-width:1.5;" width="1114.5" x="255.5" y="696.7891"/><text fill="#000000" font-family="sans-serif" font-size="13" font-weight="bold" lengthAdjust="spacing" textLength="19" x="270.5" y="709.856">alt</text><text fill="#000000" font-family="sans-serif" font-size="11" font-weight="bold" lengthAdjust="spacing" textLength="112" x="334.5" y="708.9995">[If defects found]</text><polygon fill="#181818" points="326.5,731.0547,316.5,735.0547,326.5,739.0547,322.5,735.0547" style="stroke:#181818;stroke-width:1.0;"/><line style="stroke:#181818;stroke-width:1.0;" x1="320.5" x2="1290.5" y1="735.0547" y2="735.0547"/><text fill="#000000" font-family="sans-serif" font-size="13" lengthAdjust="spacing" textLength="152" x="332.5" y="729.9888">Log explanation defects</text><line style="stroke:#181818;stroke-width:1.0;" x1="315.5" x2="357.5" y1="764.1875" y2="764.1875"/><line style="stroke:#181818;stroke-width:1.0;" x1="357.5" x2="357.5" y1="764.1875" y2="777.1875"/><line style="stroke:#181818;stroke-width:1.0;" x1="316.5" x2="357.5" y1="777.1875" y2="777.1875"/><polygon fill="#181818" points="326.5,773.1875,316.5,777.1875,326.5,781.1875,322.5,777.1875" style="stroke:#181818;stroke-width:1.0;"/><text fill="#000000" font-family="sans-serif" font-size="13" lengthAdjust="spacing" textLength="87" x="322.5" y="759.1216">Fix and retest</text><polygon fill="#181818" points="326.5,809.3203,316.5,813.3203,326.5,817.3203,322.5,813.3203" style="stroke:#181818;stroke-width:1.0;"/><line style="stroke:#181818;stroke-width:1.0;" x1="320.5" x2="1945.5" y1="813.3203" y2="813.3203"/><text fill="#000000" font-family="sans-serif" font-size="13" lengthAdjust="spacing" textLength="340" x="332.5" y="808.2544">Request doc clarifications for end-user understanding</text><polygon fill="#181818" points="1934.5,838.4531,1944.5,842.4531,1934.5,846.4531,1938.5,842.4531" style="stroke:#181818;stroke-width:1.0;"/><line style="stroke:#181818;stroke-width:1.0;" x1="315.5" x2="1940.5" y1="842.4531" y2="842.4531"/><text fill="#000000" font-family="sans-serif" font-size="13" lengthAdjust="spacing" textLength="298" x="322.5" y="837.3872">Provide final explanation docs &amp; best practices</text><polygon fill="#181818" points="1614.5,867.5859,1604.5,871.5859,1614.5,875.5859,1610.5,871.5859" style="stroke:#181818;stroke-width:1.0;"/><line style="stroke:#181818;stroke-width:1.0;" x1="1608.5" x2="1945.5" y1="871.5859" y2="871.5859"/><text fill="#000000" font-family="sans-serif" font-size="13" lengthAdjust="spacing" textLength="319" x="1620.5" y="866.52">Provide user documentation for compliance check</text><polygon fill="#181818" points="1934.5,896.7188,1944.5,900.7188,1934.5,904.7188,1938.5,900.7188" style="stroke:#181818;stroke-width:1.0;"/><line style="stroke:#181818;stroke-width:1.0;" x1="1603.5" x2="1940.5" y1="900.7188" y2="900.7188"/><text fill="#000000" font-family="sans-serif" font-size="13" lengthAdjust="spacing" textLength="255" x="1610.5" y="895.6528">Confirm compliance or request changes</text><polygon fill="#181818" points="1957.5,925.8516,1947.5,929.8516,1957.5,933.8516,1953.5,929.8516" style="stroke:#181818;stroke-width:1.0;"/><line style="stroke:#181818;stroke-width:1.0;" x1="1951.5" x2="2359" y1="929.8516" y2="929.8516"/><text fill="#000000" font-family="sans-serif" font-size="13" lengthAdjust="spacing" textLength="262" x="1963.5" y="924.7856">Final sign-off on interpretability readiness</text><polygon fill="#181818" points="326.5,954.9844,316.5,958.9844,326.5,962.9844,322.5,958.9844" style="stroke:#181818;stroke-width:1.0;"/><line style="stroke:#181818;stroke-width:1.0;" x1="320.5" x2="2227.5" y1="958.9844" y2="958.9844"/><text fill="#000000" font-family="sans-serif" font-size="13" lengthAdjust="spacing" textLength="246" x="332.5" y="953.9185">Deploy explanation code to production</text><polygon fill="#181818" points="1934.5,984.1172,1944.5,988.1172,1934.5,992.1172,1938.5,988.1172" style="stroke:#181818;stroke-width:1.0;"/><line style="stroke:#181818;stroke-width:1.0;" x1="315.5" x2="1940.5" y1="988.1172" y2="988.1172"/><text fill="#000000" font-family="sans-serif" font-size="13" lengthAdjust="spacing" textLength="341" x="322.5" y="983.0513">Confirm production environment explanation is active</text><line style="stroke:#181818;stroke-width:1.0;" x1="1946.5" x2="1988.5" y1="1017.25" y2="1017.25"/><line style="stroke:#181818;stroke-width:1.0;" x1="1988.5" x2="1988.5" y1="1017.25" y2="1030.25"/><line style="stroke:#181818;stroke-width:1.0;" x1="1947.5" x2="1988.5" y1="1030.25" y2="1030.25"/><polygon fill="#181818" points="1957.5,1026.25,1947.5,1030.25,1957.5,1034.25,1953.5,1030.25" style="stroke:#181818;stroke-width:1.0;"/><text fill="#000000" font-family="sans-serif" font-size="13" lengthAdjust="spacing" textLength="268" x="1953.5" y="1012.1841">Prepare support channels for user queries</text><polygon fill="#181818" points="2216.5,1055.3828,2226.5,1059.3828,2216.5,1063.3828,2220.5,1059.3828" style="stroke:#181818;stroke-width:1.0;"/><line style="stroke:#181818;stroke-width:1.0;" x1="1291.5" x2="2222.5" y1="1059.3828" y2="1059.3828"/><text fill="#000000" font-family="sans-serif" font-size="13" lengthAdjust="spacing" textLength="221" x="1298.5" y="1054.3169">Monitor logs for explanation issues</text><line style="stroke:#181818;stroke-width:1.0;" x1="315.5" x2="357.5" y1="1088.5156" y2="1088.5156"/><line style="stroke:#181818;stroke-width:1.0;" x1="357.5" x2="357.5" y1="1088.5156" y2="1101.5156"/><line style="stroke:#181818;stroke-width:1.0;" x1="316.5" x2="357.5" y1="1101.5156" y2="1101.5156"/><polygon fill="#181818" points="326.5,1097.5156,316.5,1101.5156,326.5,1105.5156,322.5,1101.5156" style="stroke:#181818;stroke-width:1.0;"/><text fill="#000000" font-family="sans-serif" font-size="13" lengthAdjust="spacing" textLength="287" x="322.5" y="1083.4497">Propose new or updated explanation method</text><polygon fill="#181818" points="1035.5,1126.6484,1045.5,1130.6484,1035.5,1134.6484,1039.5,1130.6484" style="stroke:#181818;stroke-width:1.0;"/><line style="stroke:#181818;stroke-width:1.0;" x1="315.5" x2="1041.5" y1="1130.6484" y2="1130.6484"/><text fill="#000000" font-family="sans-serif" font-size="13" lengthAdjust="spacing" textLength="261" x="322.5" y="1125.5825">Submit change request for ethical review</text><path d="M255.5,1145.6484 L319.5,1145.6484 L319.5,1152.7813 L309.5,1162.7813 L255.5,1162.7813 L255.5,1145.6484 " fill="#EEEEEE" style="stroke:#000000;stroke-width:1.5;"/><rect fill="none" height="119.3359" style="stroke:#000000;stroke-width:1.5;" width="1114.5" x="255.5" y="1145.6484"/><text fill="#000000" font-family="sans-serif" font-size="13" font-weight="bold" lengthAdjust="spacing" textLength="19" x="270.5" y="1158.7153">alt</text><text fill="#000000" font-family="sans-serif" font-size="11" font-weight="bold" lengthAdjust="spacing" textLength="70" x="334.5" y="1157.8589">[Approved]</text><polygon fill="#181818" points="1279.5,1179.9141,1289.5,1183.9141,1279.5,1187.9141,1283.5,1183.9141" style="stroke:#181818;stroke-width:1.0;"/><line style="stroke:#181818;stroke-width:1.0;" x1="1047.5" x2="1285.5" y1="1183.9141" y2="1183.9141"/><text fill="#000000" font-family="sans-serif" font-size="13" lengthAdjust="spacing" textLength="220" x="1054.5" y="1178.8481">Confirm no new compliance issues</text><polygon fill="#181818" points="326.5,1209.0469,316.5,1213.0469,326.5,1217.0469,322.5,1213.0469" style="stroke:#181818;stroke-width:1.0;"/><line style="stroke:#181818;stroke-width:1.0;" x1="320.5" x2="1290.5" y1="1213.0469" y2="1213.0469"/><text fill="#000000" font-family="sans-serif" font-size="13" lengthAdjust="spacing" textLength="201" x="332.5" y="1207.981">Validate new method in staging</text><line style="stroke:#000000;stroke-width:1.0;stroke-dasharray:2.0,2.0;" x1="255.5" x2="1370" y1="1222.0469" y2="1222.0469"/><text fill="#000000" font-family="sans-serif" font-size="11" font-weight="bold" lengthAdjust="spacing" textLength="66" x="260.5" y="1232.2573">[Rejected]</text><polygon fill="#181818" points="326.5,1252.9844,316.5,1256.9844,326.5,1260.9844,322.5,1256.9844" style="stroke:#181818;stroke-width:1.0;"/><line style="stroke:#181818;stroke-width:1.0;" x1="320.5" x2="1046.5" y1="1256.9844" y2="1256.9844"/><text fill="#000000" font-family="sans-serif" font-size="13" lengthAdjust="spacing" textLength="169" x="332.5" y="1251.9185">Return request for revision</text><polygon fill="#181818" points="1058.5,1289.1172,1048.5,1293.1172,1058.5,1297.1172,1054.5,1293.1172" style="stroke:#181818;stroke-width:1.0;"/><line style="stroke:#181818;stroke-width:1.0;" x1="1052.5" x2="1945.5" y1="1293.1172" y2="1293.1172"/><text fill="#000000" font-family="sans-serif" font-size="13" lengthAdjust="spacing" textLength="281" x="1064.5" y="1288.0513">Provide user feedback on explanation clarity</text><polygon fill="#181818" points="97.5,1318.25,87.5,1322.25,97.5,1326.25,93.5,1322.25" style="stroke:#181818;stroke-width:1.0;"/><line style="stroke:#181818;stroke-width:1.0;" x1="91.5" x2="1046.5" y1="1322.25" y2="1322.25"/><text fill="#000000" font-family="sans-serif" font-size="13" lengthAdjust="spacing" textLength="299" x="103.5" y="1317.1841">Summarize findings &amp; potential improvements</text><polygon fill="#181818" points="2348,1347.3828,2358,1351.3828,2348,1355.3828,2352,1351.3828" style="stroke:#181818;stroke-width:1.0;"/><line style="stroke:#181818;stroke-width:1.0;" x1="86.5" x2="2354" y1="1351.3828" y2="1351.3828"/><text fill="#000000" font-family="sans-serif" font-size="13" lengthAdjust="spacing" textLength="183" x="93.5" y="1346.3169">Present final lessons learned</text><line style="stroke:#181818;stroke-width:1.0;" x1="2360" x2="2402" y1="1380.5156" y2="1380.5156"/><line style="stroke:#181818;stroke-width:1.0;" x1="2402" x2="2402" y1="1380.5156" y2="1393.5156"/><line style="stroke:#181818;stroke-width:1.0;" x1="2361" x2="2402" y1="1393.5156" y2="1393.5156"/><polygon fill="#181818" points="2371,1389.5156,2361,1393.5156,2371,1397.5156,2367,1393.5156" style="stroke:#181818;stroke-width:1.0;"/><text fill="#000000" font-family="sans-serif" font-size="13" lengthAdjust="spacing" textLength="325" x="2367" y="1375.4497">Decide on future enhancements or confirm closure</text><!--MD5=[26ac2bf57c654bd05ef1860325d7ea61]
@startuml
title SOP-1012-01-AI: AI Model Explainability & Interpretability

participant "Product Management" as ProductM
participant "AI Dev Team" as AIDev
participant "Data Science Lead" as DSL
participant "AI-IRB Liaison" as IRBLiaison
participant "Quality Assurance" as QA
participant "Legal/Compliance" as Legal
participant "Technical Support" as TechSup
participant "Operations" as Ops
participant "Senior Management" as SrMgmt

' 4.1 Initiation of Explainability Requirements
ProductM -> AIDev: Identify need for AI explainability
AIDev -> DSL: Request advice on suitable explanation frameworks
DSL -> IRBLiaison: Present proposed approach for ethical/regulatory review
alt If concerns arise
  IRBLiaison -> DSL: Raise compliance/ethical concerns
  DSL -> AIDev: Revise approach to address concerns
else No major concerns
  IRBLiaison -> DSL: No critical issues found, proceed
end

' 4.2 Selecting Explanation Framework
DSL -> AIDev: Confirm global/local interpretability approach
AIDev -> AIDev: Implement or refine design plan
AIDev -> IRBLiaison: Provide final plan for sign-off
IRBLiaison -> AIDev: Approved approach

' 4.3 Model Implementation and Explanation Development
AIDev -> AIDev: Implement model & integrate explanation technique
AIDev -> QA: Provide code for review of explanation generation
QA -> AIDev: Feedback on potential issues
AIDev -> AIDev: Resolve any QA findings

' 4.4 Testing Explanation Capabilities
AIDev -> AIDev: Generate sample explanation outputs in staging
AIDev -> QA: Deliver test artifacts for validation
QA -> QA: Validate explanation correctness & traceability
alt If defects found
  QA -> AIDev: Log explanation defects
  AIDev -> AIDev: Fix and retest
end

' 4.5 User-Facing Documentation and Approvals
TechSup -> AIDev: Request doc clarifications for end-user understanding
AIDev -> TechSup: Provide final explanation docs & best practices
TechSup -> Legal: Provide user documentation for compliance check
Legal -> TechSup: Confirm compliance or request changes
SrMgmt -> TechSup: Final sign-off on interpretability readiness

' 4.6 Deployment and Monitoring
Ops -> AIDev: Deploy explanation code to production
AIDev -> TechSup: Confirm production environment explanation is active
TechSup -> TechSup: Prepare support channels for user queries
QA -> Ops: Monitor logs for explanation issues

' 4.7 Change Management for Explanation Methods
AIDev -> AIDev: Propose new or updated explanation method
AIDev -> IRBLiaison: Submit change request for ethical review
alt Approved
  IRBLiaison -> QA: Confirm no new compliance issues
  QA -> AIDev: Validate new method in staging
else Rejected
  IRBLiaison -> AIDev: Return request for revision
end

' 4.8 Post-Implementation Review
TechSup -> IRBLiaison: Provide user feedback on explanation clarity
IRBLiaison -> ProductM: Summarize findings & potential improvements
ProductM -> SrMgmt: Present final lessons learned
SrMgmt -> SrMgmt: Decide on future enhancements or confirm closure
@enduml

@startuml
title SOP-1012-01-AI: AI Model Explainability & Interpretability

participant "Product Management" as ProductM
participant "AI Dev Team" as AIDev
participant "Data Science Lead" as DSL
participant "AI-IRB Liaison" as IRBLiaison
participant "Quality Assurance" as QA
participant "Legal/Compliance" as Legal
participant "Technical Support" as TechSup
participant "Operations" as Ops
participant "Senior Management" as SrMgmt

ProductM -> AIDev: Identify need for AI explainability
AIDev -> DSL: Request advice on suitable explanation frameworks
DSL -> IRBLiaison: Present proposed approach for ethical/regulatory review
alt If concerns arise
  IRBLiaison -> DSL: Raise compliance/ethical concerns
  DSL -> AIDev: Revise approach to address concerns
else No major concerns
  IRBLiaison -> DSL: No critical issues found, proceed
end

DSL -> AIDev: Confirm global/local interpretability approach
AIDev -> AIDev: Implement or refine design plan
AIDev -> IRBLiaison: Provide final plan for sign-off
IRBLiaison -> AIDev: Approved approach

AIDev -> AIDev: Implement model & integrate explanation technique
AIDev -> QA: Provide code for review of explanation generation
QA -> AIDev: Feedback on potential issues
AIDev -> AIDev: Resolve any QA findings

AIDev -> AIDev: Generate sample explanation outputs in staging
AIDev -> QA: Deliver test artifacts for validation
QA -> QA: Validate explanation correctness & traceability
alt If defects found
  QA -> AIDev: Log explanation defects
  AIDev -> AIDev: Fix and retest
end

TechSup -> AIDev: Request doc clarifications for end-user understanding
AIDev -> TechSup: Provide final explanation docs & best practices
TechSup -> Legal: Provide user documentation for compliance check
Legal -> TechSup: Confirm compliance or request changes
SrMgmt -> TechSup: Final sign-off on interpretability readiness

Ops -> AIDev: Deploy explanation code to production
AIDev -> TechSup: Confirm production environment explanation is active
TechSup -> TechSup: Prepare support channels for user queries
QA -> Ops: Monitor logs for explanation issues

AIDev -> AIDev: Propose new or updated explanation method
AIDev -> IRBLiaison: Submit change request for ethical review
alt Approved
  IRBLiaison -> QA: Confirm no new compliance issues
  QA -> AIDev: Validate new method in staging
else Rejected
  IRBLiaison -> AIDev: Return request for revision
end

TechSup -> IRBLiaison: Provide user feedback on explanation clarity
IRBLiaison -> ProductM: Summarize findings & potential improvements
ProductM -> SrMgmt: Present final lessons learned
SrMgmt -> SrMgmt: Decide on future enhancements or confirm closure
@enduml

PlantUML version 1.2022.7(Mon Aug 22 17:01:30 UTC 2022)
(GPL source distribution)
Java Runtime: OpenJDK Runtime Environment
JVM: OpenJDK 64-Bit Server VM
Default Encoding: UTF-8
Language: en
Country: null
--></g></svg>