<?xml version="1.0" encoding="UTF-8" standalone="no"?><svg xmlns="http://www.w3.org/2000/svg" xmlns:xlink="http://www.w3.org/1999/xlink" contentStyleType="text/css" height="982px" preserveAspectRatio="none" style="width:1622px;height:982px;background:#FFFFFF;" version="1.1" viewBox="0 0 1622 982" width="1622px" zoomAndPan="magnify"><defs/><g><rect fill="none" height="26.2969" id="_title" style="stroke:none;stroke-width:1.0;" width="516" x="552.5" y="10"/><text fill="#000000" font-family="sans-serif" font-size="14" font-weight="bold" lengthAdjust="spacing" textLength="506" x="557.5" y="27.9951">SOP-1014-01-AI: Regulatory &amp; Ethical AI Compliance Verification</text><rect fill="none" height="191.6016" style="stroke:#000000;stroke-width:1.5;" width="1234.5" x="10" y="326.6563"/><rect fill="none" height="148.4688" style="stroke:#000000;stroke-width:1.5;" width="1001" x="474" y="576.5234"/><line style="stroke:#181818;stroke-width:0.5;stroke-dasharray:5.0,5.0;" x1="79" x2="79" y1="118.5938" y2="901.7891"/><line style="stroke:#181818;stroke-width:0.5;stroke-dasharray:5.0,5.0;" x1="309.5" x2="309.5" y1="118.5938" y2="901.7891"/><line style="stroke:#181818;stroke-width:0.5;stroke-dasharray:5.0,5.0;" x1="548" x2="548" y1="118.5938" y2="901.7891"/><line style="stroke:#181818;stroke-width:0.5;stroke-dasharray:5.0,5.0;" x1="668" x2="668" y1="118.5938" y2="901.7891"/><line style="stroke:#181818;stroke-width:0.5;stroke-dasharray:5.0,5.0;" x1="935.5" x2="935.5" y1="118.5938" y2="901.7891"/><line style="stroke:#181818;stroke-width:0.5;stroke-dasharray:5.0,5.0;" x1="1169.5" x2="1169.5" y1="118.5938" y2="901.7891"/><line style="stroke:#181818;stroke-width:0.5;stroke-dasharray:5.0,5.0;" x1="1398" x2="1398" y1="118.5938" y2="901.7891"/><text fill="#000000" font-family="sans-serif" font-size="14" lengthAdjust="spacing" textLength="112" x="20" y="115.292">Project Manager</text><ellipse cx="79" cy="50.7969" fill="#E2E2F0" rx="8" ry="8" style="stroke:#181818;stroke-width:0.5;"/><path d="M79,58.7969 L79,85.7969 M66,66.7969 L92,66.7969 M79,85.7969 L66,100.7969 M79,85.7969 L92,100.7969 " fill="none" style="stroke:#181818;stroke-width:0.5;"/><text fill="#000000" font-family="sans-serif" font-size="14" lengthAdjust="spacing" textLength="112" x="20" y="913.7842">Project Manager</text><ellipse cx="79" cy="925.5859" fill="#E2E2F0" rx="8" ry="8" style="stroke:#181818;stroke-width:0.5;"/><path d="M79,933.5859 L79,960.5859 M66,941.5859 L92,941.5859 M79,960.5859 L66,975.5859 M79,960.5859 L92,975.5859 " fill="none" style="stroke:#181818;stroke-width:0.5;"/><text fill="#000000" font-family="sans-serif" font-size="14" lengthAdjust="spacing" textLength="91" x="261.5" y="115.292">AI-IRB Liaison</text><ellipse cx="310" cy="50.7969" fill="#E2E2F0" rx="8" ry="8" style="stroke:#181818;stroke-width:0.5;"/><path d="M310,58.7969 L310,85.7969 M297,66.7969 L323,66.7969 M310,85.7969 L297,100.7969 M310,85.7969 L323,100.7969 " fill="none" style="stroke:#181818;stroke-width:0.5;"/><text fill="#000000" font-family="sans-serif" font-size="14" lengthAdjust="spacing" textLength="91" x="261.5" y="913.7842">AI-IRB Liaison</text><ellipse cx="310" cy="925.5859" fill="#E2E2F0" rx="8" ry="8" style="stroke:#181818;stroke-width:0.5;"/><path d="M310,933.5859 L310,960.5859 M297,941.5859 L323,941.5859 M310,960.5859 L297,975.5859 M310,960.5859 L323,975.5859 " fill="none" style="stroke:#181818;stroke-width:0.5;"/><text fill="#000000" font-family="sans-serif" font-size="14" lengthAdjust="spacing" textLength="122" x="484" y="115.292">Legal/Compliance</text><ellipse cx="548" cy="50.7969" fill="#E2E2F0" rx="8" ry="8" style="stroke:#181818;stroke-width:0.5;"/><path d="M548,58.7969 L548,85.7969 M535,66.7969 L561,66.7969 M548,85.7969 L535,100.7969 M548,85.7969 L561,100.7969 " fill="none" style="stroke:#181818;stroke-width:0.5;"/><text fill="#000000" font-family="sans-serif" font-size="14" lengthAdjust="spacing" textLength="122" x="484" y="913.7842">Legal/Compliance</text><ellipse cx="548" cy="925.5859" fill="#E2E2F0" rx="8" ry="8" style="stroke:#181818;stroke-width:0.5;"/><path d="M548,933.5859 L548,960.5859 M535,941.5859 L561,941.5859 M548,960.5859 L535,975.5859 M548,960.5859 L561,975.5859 " fill="none" style="stroke:#181818;stroke-width:0.5;"/><text fill="#000000" font-family="sans-serif" font-size="14" lengthAdjust="spacing" textLength="86" x="622" y="115.292">AI Dev Team</text><ellipse cx="668" cy="50.7969" fill="#E2E2F0" rx="8" ry="8" style="stroke:#181818;stroke-width:0.5;"/><path d="M668,58.7969 L668,85.7969 M655,66.7969 L681,66.7969 M668,85.7969 L655,100.7969 M668,85.7969 L681,100.7969 " fill="none" style="stroke:#181818;stroke-width:0.5;"/><text fill="#000000" font-family="sans-serif" font-size="14" lengthAdjust="spacing" textLength="86" x="622" y="913.7842">AI Dev Team</text><ellipse cx="668" cy="925.5859" fill="#E2E2F0" rx="8" ry="8" style="stroke:#181818;stroke-width:0.5;"/><path d="M668,933.5859 L668,960.5859 M655,941.5859 L681,941.5859 M668,960.5859 L655,975.5859 M668,960.5859 L681,975.5859 " fill="none" style="stroke:#181818;stroke-width:0.5;"/><text fill="#000000" font-family="sans-serif" font-size="14" lengthAdjust="spacing" textLength="95" x="885.5" y="115.292">Data Scientist</text><ellipse cx="936" cy="50.7969" fill="#E2E2F0" rx="8" ry="8" style="stroke:#181818;stroke-width:0.5;"/><path d="M936,58.7969 L936,85.7969 M923,66.7969 L949,66.7969 M936,85.7969 L923,100.7969 M936,85.7969 L949,100.7969 " fill="none" style="stroke:#181818;stroke-width:0.5;"/><text fill="#000000" font-family="sans-serif" font-size="14" lengthAdjust="spacing" textLength="95" x="885.5" y="913.7842">Data Scientist</text><ellipse cx="936" cy="925.5859" fill="#E2E2F0" rx="8" ry="8" style="stroke:#181818;stroke-width:0.5;"/><path d="M936,933.5859 L936,960.5859 M923,941.5859 L949,941.5859 M936,960.5859 L923,975.5859 M936,960.5859 L949,975.5859 " fill="none" style="stroke:#181818;stroke-width:0.5;"/><text fill="#000000" font-family="sans-serif" font-size="14" lengthAdjust="spacing" textLength="123" x="1105.5" y="115.292">Quality Assurance</text><ellipse cx="1170" cy="50.7969" fill="#E2E2F0" rx="8" ry="8" style="stroke:#181818;stroke-width:0.5;"/><path d="M1170,58.7969 L1170,85.7969 M1157,66.7969 L1183,66.7969 M1170,85.7969 L1157,100.7969 M1170,85.7969 L1183,100.7969 " fill="none" style="stroke:#181818;stroke-width:0.5;"/><text fill="#000000" font-family="sans-serif" font-size="14" lengthAdjust="spacing" textLength="123" x="1105.5" y="913.7842">Quality Assurance</text><ellipse cx="1170" cy="925.5859" fill="#E2E2F0" rx="8" ry="8" style="stroke:#181818;stroke-width:0.5;"/><path d="M1170,933.5859 L1170,960.5859 M1157,941.5859 L1183,941.5859 M1170,960.5859 L1157,975.5859 M1170,960.5859 L1183,975.5859 " fill="none" style="stroke:#181818;stroke-width:0.5;"/><text fill="#000000" font-family="sans-serif" font-size="14" lengthAdjust="spacing" textLength="128" x="1331" y="115.292">MLOps/Operations</text><ellipse cx="1398" cy="50.7969" fill="#E2E2F0" rx="8" ry="8" style="stroke:#181818;stroke-width:0.5;"/><path d="M1398,58.7969 L1398,85.7969 M1385,66.7969 L1411,66.7969 M1398,85.7969 L1385,100.7969 M1398,85.7969 L1411,100.7969 " fill="none" style="stroke:#181818;stroke-width:0.5;"/><text fill="#000000" font-family="sans-serif" font-size="14" lengthAdjust="spacing" textLength="128" x="1331" y="913.7842">MLOps/Operations</text><ellipse cx="1398" cy="925.5859" fill="#E2E2F0" rx="8" ry="8" style="stroke:#181818;stroke-width:0.5;"/><path d="M1398,933.5859 L1398,960.5859 M1385,941.5859 L1411,941.5859 M1398,960.5859 L1385,975.5859 M1398,960.5859 L1411,975.5859 " fill="none" style="stroke:#181818;stroke-width:0.5;"/><polygon fill="#181818" points="298,145.7266,308,149.7266,298,153.7266,302,149.7266" style="stroke:#181818;stroke-width:1.0;"/><line style="stroke:#181818;stroke-width:1.0;" x1="79" x2="304" y1="149.7266" y2="149.7266"/><text fill="#000000" font-family="sans-serif" font-size="13" lengthAdjust="spacing" textLength="207" x="86" y="144.6606">"Request IRB compliance review"</text><polygon fill="#181818" points="536,189.9922,546,193.9922,536,197.9922,540,193.9922" style="stroke:#181818;stroke-width:1.0;"/><line style="stroke:#181818;stroke-width:1.0;" x1="310" x2="542" y1="193.9922" y2="193.9922"/><text fill="#000000" font-family="sans-serif" font-size="13" lengthAdjust="spacing" textLength="180" x="317" y="173.7935">"Gather relevant regulations</text><text fill="#000000" font-family="sans-serif" font-size="13" lengthAdjust="spacing" textLength="201" x="317" y="188.9263">and data privacy requirements"</text><polygon fill="#181818" points="656,234.2578,666,238.2578,656,242.2578,660,238.2578" style="stroke:#181818;stroke-width:1.0;"/><line style="stroke:#181818;stroke-width:1.0;" x1="79" x2="662" y1="238.2578" y2="238.2578"/><text fill="#000000" font-family="sans-serif" font-size="13" lengthAdjust="spacing" textLength="226" x="86" y="218.0591">"Provide updated model design info</text><text fill="#000000" font-family="sans-serif" font-size="13" lengthAdjust="spacing" textLength="135" x="86" y="233.1919">and data usage logs"</text><polygon fill="#181818" points="924,278.5234,934,282.5234,924,286.5234,928,282.5234" style="stroke:#181818;stroke-width:1.0;"/><line style="stroke:#181818;stroke-width:1.0;" x1="668" x2="930" y1="282.5234" y2="282.5234"/><text fill="#000000" font-family="sans-serif" font-size="13" lengthAdjust="spacing" textLength="198" x="675" y="262.3247">"Compile final data lineage and</text><text fill="#000000" font-family="sans-serif" font-size="13" lengthAdjust="spacing" textLength="160" x="675" y="277.4575">ethical impact summary"</text><polygon fill="#181818" points="321,307.6563,311,311.6563,321,315.6563,317,311.6563" style="stroke:#181818;stroke-width:1.0;"/><line style="stroke:#181818;stroke-width:1.0;" x1="315" x2="935" y1="311.6563" y2="311.6563"/><text fill="#000000" font-family="sans-serif" font-size="13" lengthAdjust="spacing" textLength="181" x="327" y="306.5903">"Submit IRB documentation"</text><path d="M10,326.6563 L74,326.6563 L74,333.7891 L64,343.7891 L10,343.7891 L10,326.6563 " fill="#EEEEEE" style="stroke:#000000;stroke-width:1.5;"/><rect fill="none" height="191.6016" style="stroke:#000000;stroke-width:1.5;" width="1234.5" x="10" y="326.6563"/><text fill="#000000" font-family="sans-serif" font-size="13" font-weight="bold" lengthAdjust="spacing" textLength="19" x="25" y="339.7231">alt</text><text fill="#000000" font-family="sans-serif" font-size="11" font-weight="bold" lengthAdjust="spacing" textLength="149" x="89" y="338.8667">[IRB requests changes]</text><polygon fill="#181818" points="656,360.9219,666,364.9219,656,368.9219,660,364.9219" style="stroke:#181818;stroke-width:1.0;"/><line style="stroke:#181818;stroke-width:1.0;" x1="310" x2="662" y1="364.9219" y2="364.9219"/><text fill="#000000" font-family="sans-serif" font-size="13" lengthAdjust="spacing" textLength="237" x="317" y="359.856">"IRB feedback: modifications needed"</text><polygon fill="#181818" points="924,390.0547,934,394.0547,924,398.0547,928,394.0547" style="stroke:#181818;stroke-width:1.0;"/><line style="stroke:#181818;stroke-width:1.0;" x1="668" x2="930" y1="394.0547" y2="394.0547"/><text fill="#000000" font-family="sans-serif" font-size="13" lengthAdjust="spacing" textLength="244" x="675" y="388.9888">"Adjust model/data as recommended"</text><polygon fill="#181818" points="1158,419.1875,1168,423.1875,1158,427.1875,1162,423.1875" style="stroke:#181818;stroke-width:1.0;"/><line style="stroke:#181818;stroke-width:1.0;" x1="936" x2="1164" y1="423.1875" y2="423.1875"/><text fill="#000000" font-family="sans-serif" font-size="13" lengthAdjust="spacing" textLength="210" x="943" y="418.1216">"Confirm no performance issues"</text><polygon fill="#181818" points="559,448.3203,549,452.3203,559,456.3203,555,452.3203" style="stroke:#181818;stroke-width:1.0;"/><line style="stroke:#181818;stroke-width:1.0;" x1="553" x2="1169" y1="452.3203" y2="452.3203"/><text fill="#000000" font-family="sans-serif" font-size="13" lengthAdjust="spacing" textLength="168" x="565" y="447.2544">"Update compliance docs"</text><polygon fill="#181818" points="1158,462.3203,1168,466.3203,1158,470.3203,1162,466.3203" style="stroke:#181818;stroke-width:1.0;"/><line style="stroke:#181818;stroke-width:1.0;stroke-dasharray:2.0,2.0;" x1="548" x2="1164" y1="466.3203" y2="466.3203"/><line style="stroke:#000000;stroke-width:1.0;stroke-dasharray:2.0,2.0;" x1="10" x2="1244.5" y1="475.3203" y2="475.3203"/><text fill="#000000" font-family="sans-serif" font-size="11" font-weight="bold" lengthAdjust="spacing" textLength="136" x="15" y="485.5308">[IRB grants approval]</text><polygon fill="#181818" points="90,506.2578,80,510.2578,90,514.2578,86,510.2578" style="stroke:#181818;stroke-width:1.0;"/><line style="stroke:#181818;stroke-width:1.0;" x1="84" x2="309" y1="510.2578" y2="510.2578"/><text fill="#000000" font-family="sans-serif" font-size="13" lengthAdjust="spacing" textLength="147" x="96" y="505.1919">"IRB approval received"</text><polygon fill="#181818" points="1181,557.5234,1171,561.5234,1181,565.5234,1177,561.5234" style="stroke:#181818;stroke-width:1.0;"/><line style="stroke:#181818;stroke-width:1.0;" x1="1175" x2="1397" y1="561.5234" y2="561.5234"/><text fill="#000000" font-family="sans-serif" font-size="13" lengthAdjust="spacing" textLength="184" x="1187" y="541.3247">"Run final compliance checks</text><text fill="#000000" font-family="sans-serif" font-size="13" lengthAdjust="spacing" textLength="204" x="1187" y="556.4575">(automated gating, test cases)"</text><path d="M474,576.5234 L538,576.5234 L538,583.6563 L528,593.6563 L474,593.6563 L474,576.5234 " fill="#EEEEEE" style="stroke:#000000;stroke-width:1.5;"/><rect fill="none" height="148.4688" style="stroke:#000000;stroke-width:1.5;" width="1001" x="474" y="576.5234"/><text fill="#000000" font-family="sans-serif" font-size="13" font-weight="bold" lengthAdjust="spacing" textLength="19" x="489" y="589.5903">alt</text><text fill="#000000" font-family="sans-serif" font-size="11" font-weight="bold" lengthAdjust="spacing" textLength="70" x="553" y="588.7339">[Tests fail]</text><polygon fill="#181818" points="679,610.7891,669,614.7891,679,618.7891,675,614.7891" style="stroke:#181818;stroke-width:1.0;"/><line style="stroke:#181818;stroke-width:1.0;" x1="673" x2="1169" y1="614.7891" y2="614.7891"/><text fill="#000000" font-family="sans-serif" font-size="13" lengthAdjust="spacing" textLength="157" x="685" y="609.7231">"Issue found, fix needed"</text><polygon fill="#181818" points="1158,639.9219,1168,643.9219,1158,647.9219,1162,643.9219" style="stroke:#181818;stroke-width:1.0;"/><line style="stroke:#181818;stroke-width:1.0;" x1="668" x2="1164" y1="643.9219" y2="643.9219"/><text fill="#000000" font-family="sans-serif" font-size="13" lengthAdjust="spacing" textLength="188" x="675" y="638.856">"Resolved compliance defect"</text><polygon fill="#181818" points="1386,669.0547,1396,673.0547,1386,677.0547,1390,673.0547" style="stroke:#181818;stroke-width:1.0;"/><line style="stroke:#181818;stroke-width:1.0;" x1="1170" x2="1392" y1="673.0547" y2="673.0547"/><text fill="#000000" font-family="sans-serif" font-size="13" lengthAdjust="spacing" textLength="112" x="1177" y="667.9888">"Re-check gating"</text><line style="stroke:#000000;stroke-width:1.0;stroke-dasharray:2.0,2.0;" x1="474" x2="1475" y1="682.0547" y2="682.0547"/><text fill="#000000" font-family="sans-serif" font-size="11" font-weight="bold" lengthAdjust="spacing" textLength="79" x="479" y="692.2651">[Tests pass]</text><polygon fill="#181818" points="559,712.9922,549,716.9922,559,720.9922,555,716.9922" style="stroke:#181818;stroke-width:1.0;"/><line style="stroke:#181818;stroke-width:1.0;" x1="553" x2="1169" y1="716.9922" y2="716.9922"/><text fill="#000000" font-family="sans-serif" font-size="13" lengthAdjust="spacing" textLength="222" x="565" y="711.9263">"All compliance test cases passed"</text><polygon fill="#181818" points="321,764.2578,311,768.2578,321,772.2578,317,768.2578" style="stroke:#181818;stroke-width:1.0;"/><line style="stroke:#181818;stroke-width:1.0;" x1="315" x2="547" y1="768.2578" y2="768.2578"/><text fill="#000000" font-family="sans-serif" font-size="13" lengthAdjust="spacing" textLength="214" x="327" y="748.0591">"Confirm no outstanding legal/reg</text><text fill="#000000" font-family="sans-serif" font-size="13" lengthAdjust="spacing" textLength="130" x="327" y="763.1919">issues, final sign-off"</text><polygon fill="#181818" points="1386,793.3906,1396,797.3906,1386,801.3906,1390,797.3906" style="stroke:#181818;stroke-width:1.0;"/><line style="stroke:#181818;stroke-width:1.0;" x1="310" x2="1392" y1="797.3906" y2="797.3906"/><text fill="#000000" font-family="sans-serif" font-size="13" lengthAdjust="spacing" textLength="169" x="317" y="792.3247">"Greenlight for production"</text><line style="stroke:#181818;stroke-width:1.0;" x1="1398" x2="1440" y1="826.5234" y2="826.5234"/><line style="stroke:#181818;stroke-width:1.0;" x1="1440" x2="1440" y1="826.5234" y2="839.5234"/><line style="stroke:#181818;stroke-width:1.0;" x1="1399" x2="1440" y1="839.5234" y2="839.5234"/><polygon fill="#181818" points="1409,835.5234,1399,839.5234,1409,843.5234,1405,839.5234" style="stroke:#181818;stroke-width:1.0;"/><text fill="#000000" font-family="sans-serif" font-size="13" lengthAdjust="spacing" textLength="210" x="1405" y="821.4575">"Deploy AI system to production"</text><polygon fill="#181818" points="90,879.7891,80,883.7891,90,887.7891,86,883.7891" style="stroke:#181818;stroke-width:1.0;"/><line style="stroke:#181818;stroke-width:1.0;" x1="84" x2="1397" y1="883.7891" y2="883.7891"/><text fill="#000000" font-family="sans-serif" font-size="13" lengthAdjust="spacing" textLength="249" x="96" y="863.5903">"Schedule Post-Implementation Review</text><text fill="#000000" font-family="sans-serif" font-size="13" lengthAdjust="spacing" textLength="193" x="96" y="878.7231">(4-6 weeks after deployment)"</text><!--MD5=[cfd48b7a6b2efb74b55831831df1d2df]
@startuml
title SOP-1014-01-AI: Regulatory & Ethical AI Compliance Verification

actor PM as "Project Manager"
actor Liaison as "AI-IRB Liaison"
actor Legal as "Legal/Compliance"
actor Dev as "AI Dev Team"
actor DS as "Data Scientist"
actor QA as "Quality Assurance"
actor MLOps as "MLOps/Operations"

PM -> Liaison: "Request IRB compliance review"
Liaison -> Legal: "Gather relevant regulations\nand data privacy requirements"
PM -> Dev: "Provide updated model design info\nand data usage logs"
Dev -> DS: "Compile final data lineage and\nethical impact summary"
DS -> Liaison: "Submit IRB documentation"

alt IRB requests changes
  Liaison -> Dev: "IRB feedback: modifications needed"
  Dev -> DS: "Adjust model/data as recommended"
  DS -> QA: "Confirm no performance issues"
  QA -> Legal: "Update compliance docs"
  return
else IRB grants approval
  Liaison -> PM: "IRB approval received"
end

MLOps -> QA: "Run final compliance checks\n(automated gating, test cases)"
alt Tests fail
  QA -> Dev: "Issue found, fix needed"
  Dev -> QA: "Resolved compliance defect"
  QA -> MLOps: "Re-check gating"
else Tests pass
  QA -> Legal: "All compliance test cases passed"
end

Legal -> Liaison: "Confirm no outstanding legal/reg\nissues, final sign-off"
Liaison -> MLOps: "Greenlight for production"
MLOps -> MLOps: "Deploy AI system to production"
MLOps -> PM: "Schedule Post-Implementation Review\n(4-6 weeks after deployment)"
@enduml

PlantUML version 1.2022.7(Mon Aug 22 17:01:30 UTC 2022)
(GPL source distribution)
Java Runtime: OpenJDK Runtime Environment
JVM: OpenJDK 64-Bit Server VM
Default Encoding: UTF-8
Language: en
Country: null
--></g></svg>