<?xml version="1.0" encoding="UTF-8" standalone="no"?><svg xmlns="http://www.w3.org/2000/svg" xmlns:xlink="http://www.w3.org/1999/xlink" contentStyleType="text/css" height="1663px" preserveAspectRatio="none" style="width:1313px;height:1663px;background:#FFFFFF;" version="1.1" viewBox="0 0 1313 1663" width="1313px" zoomAndPan="magnify"><defs/><g><rect fill="none" height="26.2969" id="_title" style="stroke:none;stroke-width:1.0;" width="376" x="470" y="10"/><text fill="#000000" font-family="sans-serif" font-size="14" font-weight="bold" lengthAdjust="spacing" textLength="366" x="475" y="27.9951">SOP-1200-01 Development Sequence Diagram</text><rect fill="none" height="132.3359" style="stroke:#000000;stroke-width:1.5;" width="955.5" x="249.5" y="257.125"/><rect fill="none" height="132.3359" style="stroke:#000000;stroke-width:1.5;" width="552.5" x="249.5" y="545.9922"/><rect fill="none" height="161.4688" style="stroke:#000000;stroke-width:1.5;" width="728" x="249.5" y="1032.5234"/><rect fill="none" height="88.3984" style="stroke:#000000;stroke-width:1.5;" width="504.5" x="547.5" y="1237.125"/><rect fill="none" height="125.3359" style="stroke:#000000;stroke-width:1.5;" width="719" x="486" y="1381.6563"/><line style="stroke:#181818;stroke-width:0.5;stroke-dasharray:5.0,5.0;" x1="64" x2="64" y1="118.5938" y2="1582.2578"/><line style="stroke:#181818;stroke-width:0.5;stroke-dasharray:5.0,5.0;" x1="318.5" x2="318.5" y1="118.5938" y2="1582.2578"/><line style="stroke:#181818;stroke-width:0.5;stroke-dasharray:5.0,5.0;" x1="595.5" x2="595.5" y1="118.5938" y2="1582.2578"/><line style="stroke:#181818;stroke-width:0.5;stroke-dasharray:5.0,5.0;" x1="902.5" x2="902.5" y1="118.5938" y2="1582.2578"/><line style="stroke:#181818;stroke-width:0.5;stroke-dasharray:5.0,5.0;" x1="1047" x2="1047" y1="118.5938" y2="1582.2578"/><line style="stroke:#181818;stroke-width:0.5;stroke-dasharray:5.0,5.0;" x1="1146" x2="1146" y1="118.5938" y2="1582.2578"/><line style="stroke:#181818;stroke-width:0.5;stroke-dasharray:5.0,5.0;" x1="1258" x2="1258" y1="118.5938" y2="1582.2578"/><text fill="#000000" font-family="sans-serif" font-size="14" lengthAdjust="spacing" textLength="112" x="5" y="115.292">Project Manager</text><ellipse cx="64" cy="50.7969" fill="#E2E2F0" rx="8" ry="8" style="stroke:#181818;stroke-width:0.5;"/><path d="M64,58.7969 L64,85.7969 M51,66.7969 L77,66.7969 M64,85.7969 L51,100.7969 M64,85.7969 L77,100.7969 " fill="none" style="stroke:#181818;stroke-width:0.5;"/><text fill="#000000" font-family="sans-serif" font-size="14" lengthAdjust="spacing" textLength="112" x="5" y="1594.2529">Project Manager</text><ellipse cx="64" cy="1606.0547" fill="#E2E2F0" rx="8" ry="8" style="stroke:#181818;stroke-width:0.5;"/><path d="M64,1614.0547 L64,1641.0547 M51,1622.0547 L77,1622.0547 M64,1641.0547 L51,1656.0547 M64,1641.0547 L77,1656.0547 " fill="none" style="stroke:#181818;stroke-width:0.5;"/><text fill="#000000" font-family="sans-serif" font-size="14" lengthAdjust="spacing" textLength="113" x="259.5" y="115.292">DevTeamLeader</text><ellipse cx="319" cy="50.7969" fill="#E2E2F0" rx="8" ry="8" style="stroke:#181818;stroke-width:0.5;"/><path d="M319,58.7969 L319,85.7969 M306,66.7969 L332,66.7969 M319,85.7969 L306,100.7969 M319,85.7969 L332,100.7969 " fill="none" style="stroke:#181818;stroke-width:0.5;"/><text fill="#000000" font-family="sans-serif" font-size="14" lengthAdjust="spacing" textLength="113" x="259.5" y="1594.2529">DevTeamLeader</text><ellipse cx="319" cy="1606.0547" fill="#E2E2F0" rx="8" ry="8" style="stroke:#181818;stroke-width:0.5;"/><path d="M319,1614.0547 L319,1641.0547 M306,1622.0547 L332,1622.0547 M319,1641.0547 L306,1656.0547 M319,1641.0547 L332,1656.0547 " fill="none" style="stroke:#181818;stroke-width:0.5;"/><text fill="#000000" font-family="sans-serif" font-size="14" lengthAdjust="spacing" textLength="71" x="557.5" y="115.292">Developer</text><ellipse cx="596" cy="50.7969" fill="#E2E2F0" rx="8" ry="8" style="stroke:#181818;stroke-width:0.5;"/><path d="M596,58.7969 L596,85.7969 M583,66.7969 L609,66.7969 M596,85.7969 L583,100.7969 M596,85.7969 L609,100.7969 " fill="none" style="stroke:#181818;stroke-width:0.5;"/><text fill="#000000" font-family="sans-serif" font-size="14" lengthAdjust="spacing" textLength="71" x="557.5" y="1594.2529">Developer</text><ellipse cx="596" cy="1606.0547" fill="#E2E2F0" rx="8" ry="8" style="stroke:#181818;stroke-width:0.5;"/><path d="M596,1614.0547 L596,1641.0547 M583,1622.0547 L609,1622.0547 M596,1641.0547 L583,1656.0547 M596,1641.0547 L609,1656.0547 " fill="none" style="stroke:#181818;stroke-width:0.5;"/><text fill="#000000" font-family="sans-serif" font-size="14" lengthAdjust="spacing" textLength="123" x="838.5" y="115.292">Quality Assurance</text><ellipse cx="903" cy="50.7969" fill="#E2E2F0" rx="8" ry="8" style="stroke:#181818;stroke-width:0.5;"/><path d="M903,58.7969 L903,85.7969 M890,66.7969 L916,66.7969 M903,85.7969 L890,100.7969 M903,85.7969 L916,100.7969 " fill="none" style="stroke:#181818;stroke-width:0.5;"/><text fill="#000000" font-family="sans-serif" font-size="14" lengthAdjust="spacing" textLength="123" x="838.5" y="1594.2529">Quality Assurance</text><ellipse cx="903" cy="1606.0547" fill="#E2E2F0" rx="8" ry="8" style="stroke:#181818;stroke-width:0.5;"/><path d="M903,1614.0547 L903,1641.0547 M890,1622.0547 L916,1622.0547 M903,1641.0547 L890,1656.0547 M903,1641.0547 L916,1656.0547 " fill="none" style="stroke:#181818;stroke-width:0.5;"/><text fill="#000000" font-family="sans-serif" font-size="14" lengthAdjust="spacing" textLength="76" x="1006" y="115.292">Operations</text><ellipse cx="1047" cy="50.7969" fill="#E2E2F0" rx="8" ry="8" style="stroke:#181818;stroke-width:0.5;"/><path d="M1047,58.7969 L1047,85.7969 M1034,66.7969 L1060,66.7969 M1047,85.7969 L1034,100.7969 M1047,85.7969 L1060,100.7969 " fill="none" style="stroke:#181818;stroke-width:0.5;"/><text fill="#000000" font-family="sans-serif" font-size="14" lengthAdjust="spacing" textLength="76" x="1006" y="1594.2529">Operations</text><ellipse cx="1047" cy="1606.0547" fill="#E2E2F0" rx="8" ry="8" style="stroke:#181818;stroke-width:0.5;"/><path d="M1047,1614.0547 L1047,1641.0547 M1034,1622.0547 L1060,1622.0547 M1047,1641.0547 L1034,1656.0547 M1047,1641.0547 L1060,1656.0547 " fill="none" style="stroke:#181818;stroke-width:0.5;"/><text fill="#000000" font-family="sans-serif" font-size="14" lengthAdjust="spacing" textLength="91" x="1098" y="115.292">AI-IRB Liaison</text><ellipse cx="1146.5" cy="50.7969" fill="#E2E2F0" rx="8" ry="8" style="stroke:#181818;stroke-width:0.5;"/><path d="M1146.5,58.7969 L1146.5,85.7969 M1133.5,66.7969 L1159.5,66.7969 M1146.5,85.7969 L1133.5,100.7969 M1146.5,85.7969 L1159.5,100.7969 " fill="none" style="stroke:#181818;stroke-width:0.5;"/><text fill="#000000" font-family="sans-serif" font-size="14" lengthAdjust="spacing" textLength="91" x="1098" y="1594.2529">AI-IRB Liaison</text><ellipse cx="1146.5" cy="1606.0547" fill="#E2E2F0" rx="8" ry="8" style="stroke:#181818;stroke-width:0.5;"/><path d="M1146.5,1614.0547 L1146.5,1641.0547 M1133.5,1622.0547 L1159.5,1622.0547 M1146.5,1641.0547 L1133.5,1656.0547 M1146.5,1641.0547 L1159.5,1656.0547 " fill="none" style="stroke:#181818;stroke-width:0.5;"/><text fill="#000000" font-family="sans-serif" font-size="14" lengthAdjust="spacing" textLength="101" x="1205" y="115.292">Product Group</text><ellipse cx="1258.5" cy="50.7969" fill="#E2E2F0" rx="8" ry="8" style="stroke:#181818;stroke-width:0.5;"/><path d="M1258.5,58.7969 L1258.5,85.7969 M1245.5,66.7969 L1271.5,66.7969 M1258.5,85.7969 L1245.5,100.7969 M1258.5,85.7969 L1271.5,100.7969 " fill="none" style="stroke:#181818;stroke-width:0.5;"/><text fill="#000000" font-family="sans-serif" font-size="14" lengthAdjust="spacing" textLength="101" x="1205" y="1594.2529">Product Group</text><ellipse cx="1258.5" cy="1606.0547" fill="#E2E2F0" rx="8" ry="8" style="stroke:#181818;stroke-width:0.5;"/><path d="M1258.5,1614.0547 L1258.5,1641.0547 M1245.5,1622.0547 L1271.5,1622.0547 M1258.5,1641.0547 L1245.5,1656.0547 M1258.5,1641.0547 L1271.5,1656.0547 " fill="none" style="stroke:#181818;stroke-width:0.5;"/><polygon fill="#181818" points="307,156.293,317,160.293,307,164.293,311,160.293" style="stroke:#181818;stroke-width:1.0;"/><line style="stroke:#181818;stroke-width:1.0;" x1="64" x2="313" y1="160.293" y2="160.293"/><text fill="#000000" font-family="sans-serif" font-size="13" lengthAdjust="spacing" textLength="201" x="71" y="155.2271">Provide Approved Detail Design</text><path d="M324,133.5938 L324,173.5938 L513,173.5938 L513,143.5938 L503,133.5938 L324,133.5938 " fill="#FEFFDD" style="stroke:#181818;stroke-width:0.5;"/><path d="M503,133.5938 L503,143.5938 L513,143.5938 L503,133.5938 " fill="#FEFFDD" style="stroke:#181818;stroke-width:0.5;"/><text fill="#000000" font-family="sans-serif" font-size="13" lengthAdjust="spacing" textLength="164" x="330" y="150.6606">Commence Development</text><text fill="#000000" font-family="sans-serif" font-size="13" lengthAdjust="spacing" textLength="157" x="330" y="165.7935">after final design sign-off</text><line style="stroke:#181818;stroke-width:1.0;" x1="319" x2="361" y1="199.9922" y2="199.9922"/><line style="stroke:#181818;stroke-width:1.0;" x1="361" x2="361" y1="199.9922" y2="212.9922"/><line style="stroke:#181818;stroke-width:1.0;" x1="320" x2="361" y1="212.9922" y2="212.9922"/><polygon fill="#181818" points="330,208.9922,320,212.9922,330,216.9922,326,212.9922" style="stroke:#181818;stroke-width:1.0;"/><text fill="#000000" font-family="sans-serif" font-size="13" lengthAdjust="spacing" textLength="203" x="326" y="194.9263">Plan Implementation Units (IUs)</text><polygon fill="#181818" points="584,238.125,594,242.125,584,246.125,588,242.125" style="stroke:#181818;stroke-width:1.0;"/><line style="stroke:#181818;stroke-width:1.0;" x1="319" x2="590" y1="242.125" y2="242.125"/><text fill="#000000" font-family="sans-serif" font-size="13" lengthAdjust="spacing" textLength="252" x="326" y="237.0591">Assign IUs and Provide Code Standards</text><path d="M249.5,257.125 L313.5,257.125 L313.5,264.2578 L303.5,274.2578 L249.5,274.2578 L249.5,257.125 " fill="#EEEEEE" style="stroke:#000000;stroke-width:1.5;"/><rect fill="none" height="132.3359" style="stroke:#000000;stroke-width:1.5;" width="955.5" x="249.5" y="257.125"/><text fill="#000000" font-family="sans-serif" font-size="13" font-weight="bold" lengthAdjust="spacing" textLength="19" x="264.5" y="270.1919">alt</text><text fill="#000000" font-family="sans-serif" font-size="11" font-weight="bold" lengthAdjust="spacing" textLength="221" x="328.5" y="269.3354">[New AI Functionality Introduced?]</text><polygon fill="#181818" points="1134.5,291.3906,1144.5,295.3906,1134.5,299.3906,1138.5,295.3906" style="stroke:#181818;stroke-width:1.0;"/><line style="stroke:#181818;stroke-width:1.0;" x1="319" x2="1140.5" y1="295.3906" y2="295.3906"/><text fill="#000000" font-family="sans-serif" font-size="13" lengthAdjust="spacing" textLength="217" x="326" y="290.3247">Notify AI-IRB for compliance check</text><polygon fill="#181818" points="330,320.5234,320,324.5234,330,328.5234,326,324.5234" style="stroke:#181818;stroke-width:1.0;"/><line style="stroke:#181818;stroke-width:1.0;" x1="324" x2="1145.5" y1="324.5234" y2="324.5234"/><text fill="#000000" font-family="sans-serif" font-size="13" lengthAdjust="spacing" textLength="227" x="336" y="319.4575">AI compliance guidance or approval</text><line style="stroke:#000000;stroke-width:1.0;stroke-dasharray:2.0,2.0;" x1="249.5" x2="1205" y1="333.5234" y2="333.5234"/><text fill="#000000" font-family="sans-serif" font-size="11" font-weight="bold" lengthAdjust="spacing" textLength="103" x="254.5" y="343.7339">[No AI Changes]</text><line style="stroke:#181818;stroke-width:1.0;" x1="319" x2="361" y1="368.4609" y2="368.4609"/><line style="stroke:#181818;stroke-width:1.0;" x1="361" x2="361" y1="368.4609" y2="381.4609"/><line style="stroke:#181818;stroke-width:1.0;" x1="320" x2="361" y1="381.4609" y2="381.4609"/><polygon fill="#181818" points="330,377.4609,320,381.4609,330,385.4609,326,381.4609" style="stroke:#181818;stroke-width:1.0;"/><text fill="#000000" font-family="sans-serif" font-size="13" lengthAdjust="spacing" textLength="208" x="326" y="363.395">Proceed without IRB involvement</text><polygon fill="#181818" points="330,413.5938,320,417.5938,330,421.5938,326,417.5938" style="stroke:#181818;stroke-width:1.0;"/><line style="stroke:#181818;stroke-width:1.0;" x1="324" x2="1046" y1="417.5938" y2="417.5938"/><text fill="#000000" font-family="sans-serif" font-size="13" lengthAdjust="spacing" textLength="296" x="336" y="412.5278">Confirm VOB branch &amp; environment readiness</text><polygon fill="#181818" points="584,442.7266,594,446.7266,584,450.7266,588,446.7266" style="stroke:#181818;stroke-width:1.0;"/><line style="stroke:#181818;stroke-width:1.0;" x1="319" x2="590" y1="446.7266" y2="446.7266"/><text fill="#000000" font-family="sans-serif" font-size="13" lengthAdjust="spacing" textLength="204" x="326" y="441.6606">Confirm Dev environment setup</text><line style="stroke:#181818;stroke-width:1.0;" x1="596" x2="638" y1="475.8594" y2="475.8594"/><line style="stroke:#181818;stroke-width:1.0;" x1="638" x2="638" y1="475.8594" y2="488.8594"/><line style="stroke:#181818;stroke-width:1.0;" x1="597" x2="638" y1="488.8594" y2="488.8594"/><polygon fill="#181818" points="607,484.8594,597,488.8594,607,492.8594,603,488.8594" style="stroke:#181818;stroke-width:1.0;"/><text fill="#000000" font-family="sans-serif" font-size="13" lengthAdjust="spacing" textLength="293" x="603" y="470.7935">Code Implementation (following design specs)</text><line style="stroke:#181818;stroke-width:1.0;" x1="596" x2="638" y1="517.9922" y2="517.9922"/><line style="stroke:#181818;stroke-width:1.0;" x1="638" x2="638" y1="517.9922" y2="530.9922"/><line style="stroke:#181818;stroke-width:1.0;" x1="597" x2="638" y1="530.9922" y2="530.9922"/><polygon fill="#181818" points="607,526.9922,597,530.9922,607,534.9922,603,530.9922" style="stroke:#181818;stroke-width:1.0;"/><text fill="#000000" font-family="sans-serif" font-size="13" lengthAdjust="spacing" textLength="119" x="603" y="512.9263">Execute Unit Tests</text><path d="M249.5,545.9922 L313.5,545.9922 L313.5,553.125 L303.5,563.125 L249.5,563.125 L249.5,545.9922 " fill="#EEEEEE" style="stroke:#000000;stroke-width:1.5;"/><rect fill="none" height="132.3359" style="stroke:#000000;stroke-width:1.5;" width="552.5" x="249.5" y="545.9922"/><text fill="#000000" font-family="sans-serif" font-size="13" font-weight="bold" lengthAdjust="spacing" textLength="19" x="264.5" y="559.0591">alt</text><text fill="#000000" font-family="sans-serif" font-size="11" font-weight="bold" lengthAdjust="spacing" textLength="115" x="328.5" y="558.2026">[Unit Tests Pass?]</text><polygon fill="#181818" points="330,580.2578,320,584.2578,330,588.2578,326,584.2578" style="stroke:#181818;stroke-width:1.0;"/><line style="stroke:#181818;stroke-width:1.0;" x1="324" x2="595" y1="584.2578" y2="584.2578"/><text fill="#000000" font-family="sans-serif" font-size="13" lengthAdjust="spacing" textLength="252" x="336" y="579.1919">Unit test success, ready for peer review</text><line style="stroke:#000000;stroke-width:1.0;stroke-dasharray:2.0,2.0;" x1="249.5" x2="802" y1="593.2578" y2="593.2578"/><text fill="#000000" font-family="sans-serif" font-size="11" font-weight="bold" lengthAdjust="spacing" textLength="103" x="254.5" y="603.4683">[Unit Tests Fail]</text><line style="stroke:#181818;stroke-width:1.0;" x1="596" x2="638" y1="628.1953" y2="628.1953"/><line style="stroke:#181818;stroke-width:1.0;" x1="638" x2="638" y1="628.1953" y2="641.1953"/><line style="stroke:#181818;stroke-width:1.0;" x1="597" x2="638" y1="641.1953" y2="641.1953"/><polygon fill="#181818" points="607,637.1953,597,641.1953,607,645.1953,603,641.1953" style="stroke:#181818;stroke-width:1.0;"/><text fill="#000000" font-family="sans-serif" font-size="13" lengthAdjust="spacing" textLength="187" x="603" y="623.1294">Fix code and re-run unit tests</text><polygon fill="#181818" points="330,666.3281,320,670.3281,330,674.3281,326,670.3281" style="stroke:#181818;stroke-width:1.0;"/><line style="stroke:#181818;stroke-width:1.0;" x1="324" x2="595" y1="670.3281" y2="670.3281"/><text fill="#000000" font-family="sans-serif" font-size="13" lengthAdjust="spacing" textLength="253" x="336" y="665.2622">Updated code with successful unit tests</text><line style="stroke:#181818;stroke-width:1.0;" x1="319" x2="361" y1="706.4609" y2="706.4609"/><line style="stroke:#181818;stroke-width:1.0;" x1="361" x2="361" y1="706.4609" y2="719.4609"/><line style="stroke:#181818;stroke-width:1.0;" x1="320" x2="361" y1="719.4609" y2="719.4609"/><polygon fill="#181818" points="330,715.4609,320,719.4609,330,723.4609,326,719.4609" style="stroke:#181818;stroke-width:1.0;"/><text fill="#000000" font-family="sans-serif" font-size="13" lengthAdjust="spacing" textLength="186" x="326" y="701.395">Schedule Code Walk-Through</text><polygon fill="#181818" points="584,744.5938,594,748.5938,584,752.5938,588,748.5938" style="stroke:#181818;stroke-width:1.0;"/><line style="stroke:#181818;stroke-width:1.0;" x1="319" x2="590" y1="748.5938" y2="748.5938"/><text fill="#000000" font-family="sans-serif" font-size="13" lengthAdjust="spacing" textLength="231" x="326" y="743.5278">Present code in weekly walk-through</text><line style="stroke:#181818;stroke-width:1.0;" x1="319" x2="361" y1="777.7266" y2="777.7266"/><line style="stroke:#181818;stroke-width:1.0;" x1="361" x2="361" y1="777.7266" y2="790.7266"/><line style="stroke:#181818;stroke-width:1.0;" x1="320" x2="361" y1="790.7266" y2="790.7266"/><polygon fill="#181818" points="330,786.7266,320,790.7266,330,794.7266,326,790.7266" style="stroke:#181818;stroke-width:1.0;"/><text fill="#000000" font-family="sans-serif" font-size="13" lengthAdjust="spacing" textLength="164" x="326" y="772.6606">Document review findings</text><line style="stroke:#181818;stroke-width:1.0;" x1="596" x2="638" y1="819.8594" y2="819.8594"/><line style="stroke:#181818;stroke-width:1.0;" x1="638" x2="638" y1="819.8594" y2="832.8594"/><line style="stroke:#181818;stroke-width:1.0;" x1="597" x2="638" y1="832.8594" y2="832.8594"/><polygon fill="#181818" points="607,828.8594,597,832.8594,607,836.8594,603,832.8594" style="stroke:#181818;stroke-width:1.0;"/><text fill="#000000" font-family="sans-serif" font-size="13" lengthAdjust="spacing" textLength="246" x="603" y="814.7935">Update code per walk-through findings</text><line style="stroke:#181818;stroke-width:1.0;" x1="596" x2="638" y1="861.9922" y2="861.9922"/><line style="stroke:#181818;stroke-width:1.0;" x1="638" x2="638" y1="861.9922" y2="874.9922"/><line style="stroke:#181818;stroke-width:1.0;" x1="597" x2="638" y1="874.9922" y2="874.9922"/><polygon fill="#181818" points="607,870.9922,597,874.9922,607,878.9922,603,874.9922" style="stroke:#181818;stroke-width:1.0;"/><text fill="#000000" font-family="sans-serif" font-size="13" lengthAdjust="spacing" textLength="169" x="603" y="856.9263">Build IU Code (executable)</text><polygon fill="#181818" points="330,900.125,320,904.125,330,908.125,326,904.125" style="stroke:#181818;stroke-width:1.0;"/><line style="stroke:#181818;stroke-width:1.0;" x1="324" x2="595" y1="904.125" y2="904.125"/><text fill="#000000" font-family="sans-serif" font-size="13" lengthAdjust="spacing" textLength="235" x="336" y="899.0591">Request Merge to Integration Branch</text><line style="stroke:#181818;stroke-width:1.0;" x1="319" x2="361" y1="933.2578" y2="933.2578"/><line style="stroke:#181818;stroke-width:1.0;" x1="361" x2="361" y1="933.2578" y2="946.2578"/><line style="stroke:#181818;stroke-width:1.0;" x1="320" x2="361" y1="946.2578" y2="946.2578"/><polygon fill="#181818" points="330,942.2578,320,946.2578,330,950.2578,326,946.2578" style="stroke:#181818;stroke-width:1.0;"/><text fill="#000000" font-family="sans-serif" font-size="13" lengthAdjust="spacing" textLength="145" x="326" y="928.1919">Approve code merging</text><polygon fill="#181818" points="1035,971.3906,1045,975.3906,1035,979.3906,1039,975.3906" style="stroke:#181818;stroke-width:1.0;"/><line style="stroke:#181818;stroke-width:1.0;" x1="596" x2="1041" y1="975.3906" y2="975.3906"/><text fill="#000000" font-family="sans-serif" font-size="13" lengthAdjust="spacing" textLength="185" x="603" y="970.3247">Merge to shared VOB branch</text><line style="stroke:#181818;stroke-width:1.0;" x1="596" x2="638" y1="1004.5234" y2="1004.5234"/><line style="stroke:#181818;stroke-width:1.0;" x1="638" x2="638" y1="1004.5234" y2="1017.5234"/><line style="stroke:#181818;stroke-width:1.0;" x1="597" x2="638" y1="1017.5234" y2="1017.5234"/><polygon fill="#181818" points="607,1013.5234,597,1017.5234,607,1021.5234,603,1017.5234" style="stroke:#181818;stroke-width:1.0;"/><text fill="#000000" font-family="sans-serif" font-size="13" lengthAdjust="spacing" textLength="200" x="603" y="999.4575">Perform integration smoke test</text><path d="M249.5,1032.5234 L313.5,1032.5234 L313.5,1039.6563 L303.5,1049.6563 L249.5,1049.6563 L249.5,1032.5234 " fill="#EEEEEE" style="stroke:#000000;stroke-width:1.5;"/><rect fill="none" height="161.4688" style="stroke:#000000;stroke-width:1.5;" width="728" x="249.5" y="1032.5234"/><text fill="#000000" font-family="sans-serif" font-size="13" font-weight="bold" lengthAdjust="spacing" textLength="19" x="264.5" y="1045.5903">alt</text><text fill="#000000" font-family="sans-serif" font-size="11" font-weight="bold" lengthAdjust="spacing" textLength="124" x="328.5" y="1044.7339">[Smoke Test Pass?]</text><polygon fill="#181818" points="891,1066.7891,901,1070.7891,891,1074.7891,895,1070.7891" style="stroke:#181818;stroke-width:1.0;"/><line style="stroke:#181818;stroke-width:1.0;" x1="596" x2="897" y1="1070.7891" y2="1070.7891"/><text fill="#000000" font-family="sans-serif" font-size="13" lengthAdjust="spacing" textLength="232" x="603" y="1065.7231">Notify readiness for QA environment</text><line style="stroke:#000000;stroke-width:1.0;stroke-dasharray:2.0,2.0;" x1="249.5" x2="977.5" y1="1079.7891" y2="1079.7891"/><text fill="#000000" font-family="sans-serif" font-size="11" font-weight="bold" lengthAdjust="spacing" textLength="112" x="254.5" y="1089.9995">[Smoke Test Fail]</text><line style="stroke:#181818;stroke-width:1.0;" x1="596" x2="638" y1="1114.7266" y2="1114.7266"/><line style="stroke:#181818;stroke-width:1.0;" x1="638" x2="638" y1="1114.7266" y2="1127.7266"/><line style="stroke:#181818;stroke-width:1.0;" x1="597" x2="638" y1="1127.7266" y2="1127.7266"/><polygon fill="#181818" points="607,1123.7266,597,1127.7266,607,1131.7266,603,1127.7266" style="stroke:#181818;stroke-width:1.0;"/><text fill="#000000" font-family="sans-serif" font-size="13" lengthAdjust="spacing" textLength="134" x="603" y="1109.6606">Fix integration issues</text><polygon fill="#181818" points="330,1152.8594,320,1156.8594,330,1160.8594,326,1156.8594" style="stroke:#181818;stroke-width:1.0;"/><line style="stroke:#181818;stroke-width:1.0;" x1="324" x2="595" y1="1156.8594" y2="1156.8594"/><text fill="#000000" font-family="sans-serif" font-size="13" lengthAdjust="spacing" textLength="159" x="336" y="1151.7935">Request additional check</text><polygon fill="#181818" points="891,1181.9922,901,1185.9922,891,1189.9922,895,1185.9922" style="stroke:#181818;stroke-width:1.0;"/><line style="stroke:#181818;stroke-width:1.0;" x1="596" x2="897" y1="1185.9922" y2="1185.9922"/><text fill="#000000" font-family="sans-serif" font-size="13" lengthAdjust="spacing" textLength="135" x="603" y="1180.9263">Ready for QA after fix</text><polygon fill="#181818" points="607,1218.125,597,1222.125,607,1226.125,603,1222.125" style="stroke:#181818;stroke-width:1.0;"/><line style="stroke:#181818;stroke-width:1.0;" x1="601" x2="902" y1="1222.125" y2="1222.125"/><text fill="#000000" font-family="sans-serif" font-size="13" lengthAdjust="spacing" textLength="180" x="613" y="1217.0591">Review final integration build</text><path d="M547.5,1237.125 L611.5,1237.125 L611.5,1244.2578 L601.5,1254.2578 L547.5,1254.2578 L547.5,1237.125 " fill="#EEEEEE" style="stroke:#000000;stroke-width:1.5;"/><rect fill="none" height="88.3984" style="stroke:#000000;stroke-width:1.5;" width="504.5" x="547.5" y="1237.125"/><text fill="#000000" font-family="sans-serif" font-size="13" font-weight="bold" lengthAdjust="spacing" textLength="19" x="562.5" y="1250.1919">alt</text><text fill="#000000" font-family="sans-serif" font-size="11" font-weight="bold" lengthAdjust="spacing" textLength="122" x="626.5" y="1249.3354">[Accept or Return?]</text><line style="stroke:#181818;stroke-width:1.0;" x1="903" x2="945" y1="1275.3906" y2="1275.3906"/><line style="stroke:#181818;stroke-width:1.0;" x1="945" x2="945" y1="1275.3906" y2="1288.3906"/><line style="stroke:#181818;stroke-width:1.0;" x1="904" x2="945" y1="1288.3906" y2="1288.3906"/><polygon fill="#181818" points="914,1284.3906,904,1288.3906,914,1292.3906,910,1288.3906" style="stroke:#181818;stroke-width:1.0;"/><text fill="#000000" font-family="sans-serif" font-size="13" lengthAdjust="spacing" textLength="130" x="910" y="1270.3247">If accepted, proceed</text><polygon fill="#181818" points="607,1313.5234,597,1317.5234,607,1321.5234,603,1317.5234" style="stroke:#181818;stroke-width:1.0;"/><line style="stroke:#181818;stroke-width:1.0;" x1="601" x2="902" y1="1317.5234" y2="1317.5234"/><text fill="#000000" font-family="sans-serif" font-size="13" lengthAdjust="spacing" textLength="134" x="613" y="1312.4575">If not, rework needed</text><line style="stroke:#181818;stroke-width:1.0;" x1="596" x2="638" y1="1353.6563" y2="1353.6563"/><line style="stroke:#181818;stroke-width:1.0;" x1="638" x2="638" y1="1353.6563" y2="1366.6563"/><line style="stroke:#181818;stroke-width:1.0;" x1="597" x2="638" y1="1366.6563" y2="1366.6563"/><polygon fill="#181818" points="607,1362.6563,597,1366.6563,607,1370.6563,603,1366.6563" style="stroke:#181818;stroke-width:1.0;"/><text fill="#000000" font-family="sans-serif" font-size="13" lengthAdjust="spacing" textLength="150" x="603" y="1348.5903">Update Documentation</text><path d="M486,1381.6563 L550,1381.6563 L550,1388.7891 L540,1398.7891 L486,1398.7891 L486,1381.6563 " fill="#EEEEEE" style="stroke:#000000;stroke-width:1.5;"/><rect fill="none" height="125.3359" style="stroke:#000000;stroke-width:1.5;" width="719" x="486" y="1381.6563"/><text fill="#000000" font-family="sans-serif" font-size="13" font-weight="bold" lengthAdjust="spacing" textLength="19" x="501" y="1394.7231">alt</text><text fill="#000000" font-family="sans-serif" font-size="11" font-weight="bold" lengthAdjust="spacing" textLength="163" x="565" y="1393.8667">[AI-IRB Impact Re-check?]</text><polygon fill="#181818" points="1134.5,1415.9219,1144.5,1419.9219,1134.5,1423.9219,1138.5,1419.9219" style="stroke:#181818;stroke-width:1.0;"/><line style="stroke:#181818;stroke-width:1.0;" x1="596" x2="1140.5" y1="1419.9219" y2="1419.9219"/><text fill="#000000" font-family="sans-serif" font-size="13" lengthAdjust="spacing" textLength="178" x="603" y="1414.856">Provide final AI changes doc</text><polygon fill="#181818" points="607,1445.0547,597,1449.0547,607,1453.0547,603,1449.0547" style="stroke:#181818;stroke-width:1.0;"/><line style="stroke:#181818;stroke-width:1.0;" x1="601" x2="1145.5" y1="1449.0547" y2="1449.0547"/><text fill="#000000" font-family="sans-serif" font-size="13" lengthAdjust="spacing" textLength="184" x="613" y="1443.9888">AI re-approval or no changes</text><line style="stroke:#000000;stroke-width:1.0;stroke-dasharray:2.0,2.0;" x1="486" x2="1205" y1="1458.0547" y2="1458.0547"/><text fill="#000000" font-family="sans-serif" font-size="11" font-weight="bold" lengthAdjust="spacing" textLength="157" x="491" y="1468.2651">[No AI Re-check needed]</text><path d="M496,1476.8594 L496,1501.8594 L696,1501.8594 L696,1486.8594 L686,1476.8594 L496,1476.8594 " fill="#FEFFDD" style="stroke:#181818;stroke-width:0.5;"/><path d="M686,1476.8594 L686,1486.8594 L696,1486.8594 L686,1476.8594 " fill="#FEFFDD" style="stroke:#181818;stroke-width:0.5;"/><text fill="#000000" font-family="sans-serif" font-size="13" lengthAdjust="spacing" textLength="179" x="502" y="1493.9263">Standard process continues</text><polygon fill="#181818" points="75,1531.125,65,1535.125,75,1539.125,71,1535.125" style="stroke:#181818;stroke-width:1.0;"/><line style="stroke:#181818;stroke-width:1.0;" x1="69" x2="318" y1="1535.125" y2="1535.125"/><text fill="#000000" font-family="sans-serif" font-size="13" lengthAdjust="spacing" textLength="189" x="81" y="1530.0591">Final readiness for QA Testing</text><polygon fill="#181818" points="307,1560.2578,317,1564.2578,307,1568.2578,311,1564.2578" style="stroke:#181818;stroke-width:1.0;"/><line style="stroke:#181818;stroke-width:1.0;" x1="64" x2="313" y1="1564.2578" y2="1564.2578"/><text fill="#000000" font-family="sans-serif" font-size="13" lengthAdjust="spacing" textLength="231" x="71" y="1559.1919">Adjust schedule/resources if needed</text><!--MD5=[cd8af3e72693475eb993cb68212a8760]
@startuml
title SOP-1200-01 Development Sequence Diagram

actor PM as "Project Manager"
actor LDR as "DevTeamLeader"
actor DEV as "Developer"
actor QA as "Quality Assurance"
actor OPS as "Operations"
actor IRB as "AI-IRB Liaison"
actor PG as "Product Group"

PM -> LDR: Provide Approved Detail Design
note right
  Commence Development 
  after final design sign-off
end note

LDR -> LDR: Plan Implementation Units (IUs)
LDR -> DEV: Assign IUs and Provide Code Standards

alt New AI Functionality Introduced?
  LDR -> IRB: Notify AI-IRB for compliance check
  IRB -> LDR: AI compliance guidance or approval
else No AI Changes
  LDR -> LDR: Proceed without IRB involvement
end

OPS -> LDR: Confirm VOB branch & environment readiness
LDR -> DEV: Confirm Dev environment setup

DEV -> DEV: Code Implementation (following design specs)
DEV -> DEV: Execute Unit Tests
alt Unit Tests Pass?
  DEV -> LDR: Unit test success, ready for peer review
else Unit Tests Fail
  DEV -> DEV: Fix code and re-run unit tests
  DEV -> LDR: Updated code with successful unit tests
end

LDR -> LDR: Schedule Code Walk-Through
LDR -> DEV: Present code in weekly walk-through
LDR -> LDR: Document review findings

DEV -> DEV: Update code per walk-through findings
DEV -> DEV: Build IU Code (executable)
DEV -> LDR: Request Merge to Integration Branch

LDR -> LDR: Approve code merging
DEV -> OPS: Merge to shared VOB branch
DEV -> DEV: Perform integration smoke test

alt Smoke Test Pass?
  DEV -> QA: Notify readiness for QA environment
else Smoke Test Fail
  DEV -> DEV: Fix integration issues
  DEV -> LDR: Request additional check
  DEV -> QA: Ready for QA after fix
end

QA -> DEV: Review final integration build
alt Accept or Return?
  QA -> QA: If accepted, proceed
  QA -> DEV: If not, rework needed
end

DEV -> DEV: Update Documentation
alt AI-IRB Impact Re-check?
  DEV -> IRB: Provide final AI changes doc
  IRB -> DEV: AI re-approval or no changes
else No AI Re-check needed
  note over DEV
    Standard process continues
  end note
end

LDR -> PM: Final readiness for QA Testing
PM -> LDR: Adjust schedule/resources if needed
@enduml

PlantUML version 1.2022.7(Mon Aug 22 17:01:30 UTC 2022)
(GPL source distribution)
Java Runtime: OpenJDK Runtime Environment
JVM: OpenJDK 64-Bit Server VM
Default Encoding: UTF-8
Language: en
Country: null
--></g></svg>