<?xml version="1.0" encoding="UTF-8" standalone="no"?><svg xmlns="http://www.w3.org/2000/svg" xmlns:xlink="http://www.w3.org/1999/xlink" contentStyleType="text/css" height="1156px" preserveAspectRatio="none" style="width:1654px;height:1156px;background:#FFFFFF;" version="1.1" viewBox="0 0 1654 1156" width="1654px" zoomAndPan="magnify"><defs/><g><rect fill="none" height="26.2969" id="_title" style="stroke:none;stroke-width:1.0;" width="431" x="613.25" y="10"/><text fill="#000000" font-family="sans-serif" font-size="14" font-weight="bold" lengthAdjust="spacing" textLength="421" x="618.25" y="27.9951">SOP-1101-01: Training and Documentation Sequence</text><rect fill="none" height="75.3984" style="stroke:#000000;stroke-width:1.5;" width="471" x="375" y="148.8594"/><rect fill="none" height="75.3984" style="stroke:#000000;stroke-width:1.5;" width="1628.5" x="20" y="238.2578"/><rect fill="none" height="75.3984" style="stroke:#000000;stroke-width:1.5;" width="392" x="836" y="428.0547"/><rect fill="none" height="265.1953" style="stroke:#000000;stroke-width:1.5;" width="1479.5" x="10" y="546.5859"/><rect fill="none" height="75.3984" style="stroke:#000000;stroke-width:1.5;" width="943" x="20" y="729.3828"/><rect fill="none" height="46.2656" style="stroke:#000000;stroke-width:1.5;" width="943" x="20" y="939.1797"/><rect fill="none" height="46.2656" style="stroke:#000000;stroke-width:1.5;" width="943" x="20" y="1057.7109"/><line style="stroke:#181818;stroke-width:0.5;stroke-dasharray:5.0,5.0;" x1="99" x2="99" y1="73.5938" y2="1120.9766"/><line style="stroke:#181818;stroke-width:0.5;stroke-dasharray:5.0,5.0;" x1="442" x2="442" y1="73.5938" y2="1120.9766"/><line style="stroke:#181818;stroke-width:0.5;stroke-dasharray:5.0,5.0;" x1="783" x2="783" y1="73.5938" y2="1120.9766"/><line style="stroke:#181818;stroke-width:0.5;stroke-dasharray:5.0,5.0;" x1="899" x2="899" y1="73.5938" y2="1120.9766"/><line style="stroke:#181818;stroke-width:0.5;stroke-dasharray:5.0,5.0;" x1="1149" x2="1149" y1="73.5938" y2="1120.9766"/><line style="stroke:#181818;stroke-width:0.5;stroke-dasharray:5.0,5.0;" x1="1434.5" x2="1434.5" y1="73.5938" y2="1120.9766"/><line style="stroke:#181818;stroke-width:0.5;stroke-dasharray:5.0,5.0;" x1="1563.5" x2="1563.5" y1="73.5938" y2="1120.9766"/><rect fill="#E2E2F0" height="30.2969" rx="2.5" ry="2.5" style="stroke:#181818;stroke-width:0.5;" width="139" x="30" y="42.2969"/><text fill="#000000" font-family="sans-serif" font-size="14" lengthAdjust="spacing" textLength="125" x="37" y="62.292">Technical Support</text><rect fill="#E2E2F0" height="30.2969" rx="2.5" ry="2.5" style="stroke:#181818;stroke-width:0.5;" width="139" x="30" y="1119.9766"/><text fill="#000000" font-family="sans-serif" font-size="14" lengthAdjust="spacing" textLength="125" x="37" y="1139.9717">Technical Support</text><rect fill="#E2E2F0" height="30.2969" rx="2.5" ry="2.5" style="stroke:#181818;stroke-width:0.5;" width="115" x="385" y="42.2969"/><text fill="#000000" font-family="sans-serif" font-size="14" lengthAdjust="spacing" textLength="101" x="392" y="62.292">Product Group</text><rect fill="#E2E2F0" height="30.2969" rx="2.5" ry="2.5" style="stroke:#181818;stroke-width:0.5;" width="115" x="385" y="1119.9766"/><text fill="#000000" font-family="sans-serif" font-size="14" lengthAdjust="spacing" textLength="101" x="392" y="1139.9717">Product Group</text><rect fill="#E2E2F0" height="30.2969" rx="2.5" ry="2.5" style="stroke:#181818;stroke-width:0.5;" width="105" x="731" y="42.2969"/><text fill="#000000" font-family="sans-serif" font-size="14" lengthAdjust="spacing" textLength="91" x="738" y="62.292">AI-IRB Liaison</text><rect fill="#E2E2F0" height="30.2969" rx="2.5" ry="2.5" style="stroke:#181818;stroke-width:0.5;" width="105" x="731" y="1119.9766"/><text fill="#000000" font-family="sans-serif" font-size="14" lengthAdjust="spacing" textLength="91" x="738" y="1139.9717">AI-IRB Liaison</text><rect fill="#E2E2F0" height="30.2969" rx="2.5" ry="2.5" style="stroke:#181818;stroke-width:0.5;" width="107" x="846" y="42.2969"/><text fill="#000000" font-family="sans-serif" font-size="14" lengthAdjust="spacing" textLength="93" x="853" y="62.292">Development</text><rect fill="#E2E2F0" height="30.2969" rx="2.5" ry="2.5" style="stroke:#181818;stroke-width:0.5;" width="107" x="846" y="1119.9766"/><text fill="#000000" font-family="sans-serif" font-size="14" lengthAdjust="spacing" textLength="93" x="853" y="1139.9717">Development</text><rect fill="#E2E2F0" height="30.2969" rx="2.5" ry="2.5" style="stroke:#181818;stroke-width:0.5;" width="137" x="1081" y="42.2969"/><text fill="#000000" font-family="sans-serif" font-size="14" lengthAdjust="spacing" textLength="123" x="1088" y="62.292">Quality Assurance</text><rect fill="#E2E2F0" height="30.2969" rx="2.5" ry="2.5" style="stroke:#181818;stroke-width:0.5;" width="137" x="1081" y="1119.9766"/><text fill="#000000" font-family="sans-serif" font-size="14" lengthAdjust="spacing" textLength="123" x="1088" y="1139.9717">Quality Assurance</text><rect fill="#E2E2F0" height="30.2969" rx="2.5" ry="2.5" style="stroke:#181818;stroke-width:0.5;" width="90" x="1389.5" y="42.2969"/><text fill="#000000" font-family="sans-serif" font-size="14" lengthAdjust="spacing" textLength="76" x="1396.5" y="62.292">Operations</text><rect fill="#E2E2F0" height="30.2969" rx="2.5" ry="2.5" style="stroke:#181818;stroke-width:0.5;" width="90" x="1389.5" y="1119.9766"/><text fill="#000000" font-family="sans-serif" font-size="14" lengthAdjust="spacing" textLength="76" x="1396.5" y="1139.9717">Operations</text><rect fill="#E2E2F0" height="30.2969" rx="2.5" ry="2.5" style="stroke:#181818;stroke-width:0.5;" width="149" x="1489.5" y="42.2969"/><text fill="#000000" font-family="sans-serif" font-size="14" lengthAdjust="spacing" textLength="135" x="1496.5" y="62.292">Client/External User</text><rect fill="#E2E2F0" height="30.2969" rx="2.5" ry="2.5" style="stroke:#181818;stroke-width:0.5;" width="149" x="1489.5" y="1119.9766"/><text fill="#000000" font-family="sans-serif" font-size="14" lengthAdjust="spacing" textLength="135" x="1496.5" y="1139.9717">Client/External User</text><polygon fill="#181818" points="430.5,100.7266,440.5,104.7266,430.5,108.7266,434.5,104.7266" style="stroke:#181818;stroke-width:1.0;"/><line style="stroke:#181818;stroke-width:1.0;" x1="99.5" x2="436.5" y1="104.7266" y2="104.7266"/><text fill="#000000" font-family="sans-serif" font-size="13" lengthAdjust="spacing" textLength="280" x="106.5" y="99.6606">Review SOW and define initial training needs</text><polygon fill="#181818" points="110.5,129.8594,100.5,133.8594,110.5,137.8594,106.5,133.8594" style="stroke:#181818;stroke-width:1.0;"/><line style="stroke:#181818;stroke-width:1.0;" x1="104.5" x2="441.5" y1="133.8594" y2="133.8594"/><text fill="#000000" font-family="sans-serif" font-size="13" lengthAdjust="spacing" textLength="309" x="116.5" y="128.7935">Draft or update Training Needs Document (TND)</text><path d="M375,148.8594 L439,148.8594 L439,155.9922 L429,165.9922 L375,165.9922 L375,148.8594 " fill="#EEEEEE" style="stroke:#000000;stroke-width:1.5;"/><rect fill="none" height="75.3984" style="stroke:#000000;stroke-width:1.5;" width="471" x="375" y="148.8594"/><text fill="#000000" font-family="sans-serif" font-size="13" font-weight="bold" lengthAdjust="spacing" textLength="19" x="390" y="161.9263">alt</text><text fill="#000000" font-family="sans-serif" font-size="11" font-weight="bold" lengthAdjust="spacing" textLength="100" x="454" y="161.0698">[AI-IRB needed]</text><polygon fill="#181818" points="771.5,183.125,781.5,187.125,771.5,191.125,775.5,187.125" style="stroke:#181818;stroke-width:1.0;"/><line style="stroke:#181818;stroke-width:1.0;" x1="442.5" x2="777.5" y1="187.125" y2="187.125"/><text fill="#000000" font-family="sans-serif" font-size="13" lengthAdjust="spacing" textLength="317" x="449.5" y="182.0591">Submit training approach for AI compliance check</text><polygon fill="#181818" points="453.5,212.2578,443.5,216.2578,453.5,220.2578,449.5,216.2578" style="stroke:#181818;stroke-width:1.0;"/><line style="stroke:#181818;stroke-width:1.0;" x1="447.5" x2="782.5" y1="216.2578" y2="216.2578"/><text fill="#000000" font-family="sans-serif" font-size="13" lengthAdjust="spacing" textLength="181" x="459.5" y="211.1919">Approve or request changes</text><path d="M20,238.2578 L84,238.2578 L84,245.3906 L74,255.3906 L20,255.3906 L20,238.2578 " fill="#EEEEEE" style="stroke:#000000;stroke-width:1.5;"/><rect fill="none" height="75.3984" style="stroke:#000000;stroke-width:1.5;" width="1628.5" x="20" y="238.2578"/><text fill="#000000" font-family="sans-serif" font-size="13" font-weight="bold" lengthAdjust="spacing" textLength="19" x="35" y="251.3247">alt</text><text fill="#000000" font-family="sans-serif" font-size="11" font-weight="bold" lengthAdjust="spacing" textLength="181" x="99" y="250.4683">[External Training Required]</text><polygon fill="#181818" points="1552,272.5234,1562,276.5234,1552,280.5234,1556,276.5234" style="stroke:#181818;stroke-width:1.0;"/><line style="stroke:#181818;stroke-width:1.0;" x1="99.5" x2="1558" y1="276.5234" y2="276.5234"/><text fill="#000000" font-family="sans-serif" font-size="13" lengthAdjust="spacing" textLength="272" x="106.5" y="271.4575">Send Pre-Needs Assessment Form (PNAF)</text><polygon fill="#181818" points="110.5,301.6563,100.5,305.6563,110.5,309.6563,106.5,305.6563" style="stroke:#181818;stroke-width:1.0;"/><line style="stroke:#181818;stroke-width:1.0;" x1="104.5" x2="1563" y1="305.6563" y2="305.6563"/><text fill="#000000" font-family="sans-serif" font-size="13" lengthAdjust="spacing" textLength="264" x="116.5" y="300.5903">Return signed PNAF (or request changes)</text><polygon fill="#181818" points="110.5,337.7891,100.5,341.7891,110.5,345.7891,106.5,341.7891" style="stroke:#181818;stroke-width:1.0;"/><line style="stroke:#181818;stroke-width:1.0;" x1="104.5" x2="898.5" y1="341.7891" y2="341.7891"/><text fill="#000000" font-family="sans-serif" font-size="13" lengthAdjust="spacing" textLength="446" x="116.5" y="336.7231">Provide draft training documentation (user guides, known issues, etc.)</text><polygon fill="#181818" points="1137.5,366.9219,1147.5,370.9219,1137.5,374.9219,1141.5,370.9219" style="stroke:#181818;stroke-width:1.0;"/><line style="stroke:#181818;stroke-width:1.0;" x1="99.5" x2="1143.5" y1="370.9219" y2="370.9219"/><text fill="#000000" font-family="sans-serif" font-size="13" lengthAdjust="spacing" textLength="239" x="106.5" y="365.856">Forward documentation for QA review</text><line style="stroke:#181818;stroke-width:1.0;" x1="1149.5" x2="1191.5" y1="400.0547" y2="400.0547"/><line style="stroke:#181818;stroke-width:1.0;" x1="1191.5" x2="1191.5" y1="400.0547" y2="413.0547"/><line style="stroke:#181818;stroke-width:1.0;" x1="1150.5" x2="1191.5" y1="413.0547" y2="413.0547"/><polygon fill="#181818" points="1160.5,409.0547,1150.5,413.0547,1160.5,417.0547,1156.5,413.0547" style="stroke:#181818;stroke-width:1.0;"/><text fill="#000000" font-family="sans-serif" font-size="13" lengthAdjust="spacing" textLength="271" x="1156.5" y="394.9888">Review doc completeness and correctness</text><path d="M836,428.0547 L900,428.0547 L900,435.1875 L890,445.1875 L836,445.1875 L836,428.0547 " fill="#EEEEEE" style="stroke:#000000;stroke-width:1.5;"/><rect fill="none" height="75.3984" style="stroke:#000000;stroke-width:1.5;" width="392" x="836" y="428.0547"/><text fill="#000000" font-family="sans-serif" font-size="13" font-weight="bold" lengthAdjust="spacing" textLength="19" x="851" y="441.1216">alt</text><text fill="#000000" font-family="sans-serif" font-size="11" font-weight="bold" lengthAdjust="spacing" textLength="211" x="915" y="440.2651">[Documentation Rework Needed]</text><polygon fill="#181818" points="910.5,462.3203,900.5,466.3203,910.5,470.3203,906.5,466.3203" style="stroke:#181818;stroke-width:1.0;"/><line style="stroke:#181818;stroke-width:1.0;" x1="904.5" x2="1148.5" y1="466.3203" y2="466.3203"/><text fill="#000000" font-family="sans-serif" font-size="13" lengthAdjust="spacing" textLength="112" x="916.5" y="461.2544">Request revisions</text><polygon fill="#181818" points="1137.5,491.4531,1147.5,495.4531,1137.5,499.4531,1141.5,495.4531" style="stroke:#181818;stroke-width:1.0;"/><line style="stroke:#181818;stroke-width:1.0;" x1="899.5" x2="1143.5" y1="495.4531" y2="495.4531"/><text fill="#000000" font-family="sans-serif" font-size="13" lengthAdjust="spacing" textLength="226" x="906.5" y="490.3872">Resubmit corrected documentation</text><polygon fill="#181818" points="110.5,527.5859,100.5,531.5859,110.5,535.5859,106.5,531.5859" style="stroke:#181818;stroke-width:1.0;"/><line style="stroke:#181818;stroke-width:1.0;" x1="104.5" x2="1148.5" y1="531.5859" y2="531.5859"/><text fill="#000000" font-family="sans-serif" font-size="13" lengthAdjust="spacing" textLength="163" x="116.5" y="526.52">Documentation Accepted</text><path d="M10,546.5859 L74,546.5859 L74,553.7188 L64,563.7188 L10,563.7188 L10,546.5859 " fill="#EEEEEE" style="stroke:#000000;stroke-width:1.5;"/><rect fill="none" height="265.1953" style="stroke:#000000;stroke-width:1.5;" width="1479.5" x="10" y="546.5859"/><text fill="#000000" font-family="sans-serif" font-size="13" font-weight="bold" lengthAdjust="spacing" textLength="19" x="25" y="559.6528">alt</text><text fill="#000000" font-family="sans-serif" font-size="11" font-weight="bold" lengthAdjust="spacing" textLength="126" x="89" y="558.7964">[FOA Training Pilot]</text><polygon fill="#181818" points="430.5,580.8516,440.5,584.8516,430.5,588.8516,434.5,584.8516" style="stroke:#181818;stroke-width:1.0;"/><line style="stroke:#181818;stroke-width:1.0;" x1="99.5" x2="436.5" y1="584.8516" y2="584.8516"/><text fill="#000000" font-family="sans-serif" font-size="13" lengthAdjust="spacing" textLength="183" x="106.5" y="579.7856">Coordinate FOA pilot training</text><polygon fill="#181818" points="1422.5,609.9844,1432.5,613.9844,1422.5,617.9844,1426.5,613.9844" style="stroke:#181818;stroke-width:1.0;"/><line style="stroke:#181818;stroke-width:1.0;" x1="99.5" x2="1428.5" y1="613.9844" y2="613.9844"/><text fill="#000000" font-family="sans-serif" font-size="13" lengthAdjust="spacing" textLength="254" x="106.5" y="608.9185">Request staging environment readiness</text><polygon fill="#181818" points="110.5,639.1172,100.5,643.1172,110.5,647.1172,106.5,643.1172" style="stroke:#181818;stroke-width:1.0;"/><line style="stroke:#181818;stroke-width:1.0;" x1="104.5" x2="1433.5" y1="643.1172" y2="643.1172"/><text fill="#000000" font-family="sans-serif" font-size="13" lengthAdjust="spacing" textLength="179" x="116.5" y="638.0513">Confirm environment set up</text><line style="stroke:#181818;stroke-width:1.0;" x1="99.5" x2="141.5" y1="672.25" y2="672.25"/><line style="stroke:#181818;stroke-width:1.0;" x1="141.5" x2="141.5" y1="672.25" y2="685.25"/><line style="stroke:#181818;stroke-width:1.0;" x1="100.5" x2="141.5" y1="685.25" y2="685.25"/><polygon fill="#181818" points="110.5,681.25,100.5,685.25,110.5,689.25,106.5,685.25" style="stroke:#181818;stroke-width:1.0;"/><text fill="#000000" font-family="sans-serif" font-size="13" lengthAdjust="spacing" textLength="166" x="106.5" y="667.1841">Conduct FOA training pilot</text><polygon fill="#181818" points="430.5,710.3828,440.5,714.3828,430.5,718.3828,434.5,714.3828" style="stroke:#181818;stroke-width:1.0;"/><line style="stroke:#181818;stroke-width:1.0;" x1="99.5" x2="436.5" y1="714.3828" y2="714.3828"/><text fill="#000000" font-family="sans-serif" font-size="13" lengthAdjust="spacing" textLength="167" x="106.5" y="709.3169">Gather FOA pilot feedback</text><path d="M20,729.3828 L84,729.3828 L84,736.5156 L74,746.5156 L20,746.5156 L20,729.3828 " fill="#EEEEEE" style="stroke:#000000;stroke-width:1.5;"/><rect fill="none" height="75.3984" style="stroke:#000000;stroke-width:1.5;" width="943" x="20" y="729.3828"/><text fill="#000000" font-family="sans-serif" font-size="13" font-weight="bold" lengthAdjust="spacing" textLength="19" x="35" y="742.4497">alt</text><text fill="#000000" font-family="sans-serif" font-size="11" font-weight="bold" lengthAdjust="spacing" textLength="167" x="99" y="741.5933">[FOA training insufficient]</text><polygon fill="#181818" points="887.5,763.6484,897.5,767.6484,887.5,771.6484,891.5,767.6484" style="stroke:#181818;stroke-width:1.0;"/><line style="stroke:#181818;stroke-width:1.0;" x1="99.5" x2="893.5" y1="767.6484" y2="767.6484"/><text fill="#000000" font-family="sans-serif" font-size="13" lengthAdjust="spacing" textLength="167" x="106.5" y="762.5825">Request doc or content fix</text><polygon fill="#181818" points="110.5,792.7813,100.5,796.7813,110.5,800.7813,106.5,796.7813" style="stroke:#181818;stroke-width:1.0;"/><line style="stroke:#181818;stroke-width:1.0;" x1="104.5" x2="898.5" y1="796.7813" y2="796.7813"/><text fill="#000000" font-family="sans-serif" font-size="13" lengthAdjust="spacing" textLength="168" x="116.5" y="791.7153">Provide updated materials</text><line style="stroke:#181818;stroke-width:1.0;" x1="99.5" x2="141.5" y1="839.9141" y2="839.9141"/><line style="stroke:#181818;stroke-width:1.0;" x1="141.5" x2="141.5" y1="839.9141" y2="852.9141"/><line style="stroke:#181818;stroke-width:1.0;" x1="100.5" x2="141.5" y1="852.9141" y2="852.9141"/><polygon fill="#181818" points="110.5,848.9141,100.5,852.9141,110.5,856.9141,106.5,852.9141" style="stroke:#181818;stroke-width:1.0;"/><text fill="#000000" font-family="sans-serif" font-size="13" lengthAdjust="spacing" textLength="206" x="106.5" y="834.8481">Schedule Training Pilot (general)</text><line style="stroke:#181818;stroke-width:1.0;" x1="99.5" x2="141.5" y1="882.0469" y2="882.0469"/><line style="stroke:#181818;stroke-width:1.0;" x1="141.5" x2="141.5" y1="882.0469" y2="895.0469"/><line style="stroke:#181818;stroke-width:1.0;" x1="100.5" x2="141.5" y1="895.0469" y2="895.0469"/><polygon fill="#181818" points="110.5,891.0469,100.5,895.0469,110.5,899.0469,106.5,895.0469" style="stroke:#181818;stroke-width:1.0;"/><text fill="#000000" font-family="sans-serif" font-size="13" lengthAdjust="spacing" textLength="329" x="106.5" y="876.981">Deliver pilot training to internal and/or external staff</text><polygon fill="#181818" points="430.5,920.1797,440.5,924.1797,430.5,928.1797,434.5,924.1797" style="stroke:#181818;stroke-width:1.0;"/><line style="stroke:#181818;stroke-width:1.0;" x1="99.5" x2="436.5" y1="924.1797" y2="924.1797"/><text fill="#000000" font-family="sans-serif" font-size="13" lengthAdjust="spacing" textLength="136" x="106.5" y="919.1138">Collect pilot feedback</text><path d="M20,939.1797 L84,939.1797 L84,946.3125 L74,956.3125 L20,956.3125 L20,939.1797 " fill="#EEEEEE" style="stroke:#000000;stroke-width:1.5;"/><rect fill="none" height="46.2656" style="stroke:#000000;stroke-width:1.5;" width="943" x="20" y="939.1797"/><text fill="#000000" font-family="sans-serif" font-size="13" font-weight="bold" lengthAdjust="spacing" textLength="19" x="35" y="952.2466">alt</text><text fill="#000000" font-family="sans-serif" font-size="11" font-weight="bold" lengthAdjust="spacing" textLength="179" x="99" y="951.3901">[Pilot feedback insufficient]</text><polygon fill="#181818" points="887.5,973.4453,897.5,977.4453,887.5,981.4453,891.5,977.4453" style="stroke:#181818;stroke-width:1.0;"/><line style="stroke:#181818;stroke-width:1.0;" x1="99.5" x2="893.5" y1="977.4453" y2="977.4453"/><text fill="#000000" font-family="sans-serif" font-size="13" lengthAdjust="spacing" textLength="203" x="106.5" y="972.3794">Additional revision or re-training</text><polygon fill="#181818" points="1552,1009.5781,1562,1013.5781,1552,1017.5781,1556,1013.5781" style="stroke:#181818;stroke-width:1.0;"/><line style="stroke:#181818;stroke-width:1.0;" x1="99.5" x2="1558" y1="1013.5781" y2="1013.5781"/><text fill="#000000" font-family="sans-serif" font-size="13" lengthAdjust="spacing" textLength="251" x="106.5" y="1008.5122">Conduct final customer training classes</text><polygon fill="#181818" points="110.5,1038.7109,100.5,1042.7109,110.5,1046.7109,106.5,1042.7109" style="stroke:#181818;stroke-width:1.0;"/><line style="stroke:#181818;stroke-width:1.0;" x1="104.5" x2="1563" y1="1042.7109" y2="1042.7109"/><text fill="#000000" font-family="sans-serif" font-size="13" lengthAdjust="spacing" textLength="169" x="116.5" y="1037.645">Provide training evaluation</text><path d="M20,1057.7109 L84,1057.7109 L84,1064.8438 L74,1074.8438 L20,1074.8438 L20,1057.7109 " fill="#EEEEEE" style="stroke:#000000;stroke-width:1.5;"/><rect fill="none" height="46.2656" style="stroke:#000000;stroke-width:1.5;" width="943" x="20" y="1057.7109"/><text fill="#000000" font-family="sans-serif" font-size="13" font-weight="bold" lengthAdjust="spacing" textLength="19" x="35" y="1070.7778">alt</text><text fill="#000000" font-family="sans-serif" font-size="11" font-weight="bold" lengthAdjust="spacing" textLength="181" x="99" y="1069.9214">[Additional training needed]</text><polygon fill="#181818" points="887.5,1091.9766,897.5,1095.9766,887.5,1099.9766,891.5,1095.9766" style="stroke:#181818;stroke-width:1.0;"/><line style="stroke:#181818;stroke-width:1.0;" x1="99.5" x2="893.5" y1="1095.9766" y2="1095.9766"/><text fill="#000000" font-family="sans-serif" font-size="13" lengthAdjust="spacing" textLength="223" x="106.5" y="1090.9106">Adjust materials, repeat session(s)</text><!--MD5=[58b39b56321f0b4a089704464d9ea4b9]
@startuml
title "SOP-1101-01: Training and Documentation Sequence"

participant "Technical Support" as TS
participant "Product Group" as PG
participant "AI-IRB Liaison" as AIIRB
participant "Development" as DEV
participant "Quality Assurance" as QA
participant "Operations" as OPS
participant "Client/External User" as CLIENT

TS -> PG: Review SOW and define initial training needs
PG -> TS: Draft or update Training Needs Document (TND)

alt AI-IRB needed
  PG -> AIIRB: Submit training approach for AI compliance check
  AIIRB -> PG: Approve or request changes
end

alt External Training Required
  TS -> CLIENT: Send Pre-Needs Assessment Form (PNAF)
  CLIENT -> TS: Return signed PNAF (or request changes)
end

DEV -> TS: Provide draft training documentation (user guides, known issues, etc.)
TS -> QA: Forward documentation for QA review
QA -> QA: Review doc completeness and correctness
alt Documentation Rework Needed
  QA -> DEV: Request revisions
  DEV -> QA: Resubmit corrected documentation
end
QA -> TS: Documentation Accepted

alt FOA Training Pilot
  TS -> PG: Coordinate FOA pilot training
  TS -> OPS: Request staging environment readiness
  OPS -> TS: Confirm environment set up
  TS -> TS: Conduct FOA training pilot
  TS -> PG: Gather FOA pilot feedback
  alt FOA training insufficient
    TS -> DEV: Request doc or content fix
    DEV -> TS: Provide updated materials
  end
end

TS -> TS: Schedule Training Pilot (general)
TS -> TS: Deliver pilot training to internal and/or external staff
TS -> PG: Collect pilot feedback
alt Pilot feedback insufficient
  TS -> DEV: Additional revision or re-training
end

TS -> CLIENT: Conduct final customer training classes
CLIENT -> TS: Provide training evaluation
alt Additional training needed
  TS -> DEV: Adjust materials, repeat session(s)
end
@enduml

PlantUML version 1.2022.7(Mon Aug 22 17:01:30 UTC 2022)
(GPL source distribution)
Java Runtime: OpenJDK Runtime Environment
JVM: OpenJDK 64-Bit Server VM
Default Encoding: UTF-8
Language: en
Country: null
--></g></svg>