<?xml version="1.0" encoding="UTF-8" standalone="no"?><svg xmlns="http://www.w3.org/2000/svg" xmlns:xlink="http://www.w3.org/1999/xlink" contentStyleType="text/css" height="778px" preserveAspectRatio="none" style="width:1848px;height:778px;background:#FFFFFF;" version="1.1" viewBox="0 0 1848 778" width="1848px" zoomAndPan="magnify"><defs/><g><rect fill="none" height="125.3359" style="stroke:#000000;stroke-width:1.5;" width="1105" x="10" y="111.5625"/><rect fill="none" height="212.7344" style="stroke:#000000;stroke-width:1.5;" width="1831" x="10" y="367.4297"/><line style="stroke:#181818;stroke-width:0.5;stroke-dasharray:5.0,5.0;" x1="121" x2="121" y1="36.2969" y2="742.8281"/><line style="stroke:#181818;stroke-width:0.5;stroke-dasharray:5.0,5.0;" x1="440" x2="440" y1="36.2969" y2="742.8281"/><line style="stroke:#181818;stroke-width:0.5;stroke-dasharray:5.0,5.0;" x1="892" x2="892" y1="36.2969" y2="742.8281"/><line style="stroke:#181818;stroke-width:0.5;stroke-dasharray:5.0,5.0;" x1="1031" x2="1031" y1="36.2969" y2="742.8281"/><line style="stroke:#181818;stroke-width:0.5;stroke-dasharray:5.0,5.0;" x1="1162" x2="1162" y1="36.2969" y2="742.8281"/><line style="stroke:#181818;stroke-width:0.5;stroke-dasharray:5.0,5.0;" x1="1407.5" x2="1407.5" y1="36.2969" y2="742.8281"/><line style="stroke:#181818;stroke-width:0.5;stroke-dasharray:5.0,5.0;" x1="1541.5" x2="1541.5" y1="36.2969" y2="742.8281"/><line style="stroke:#181818;stroke-width:0.5;stroke-dasharray:5.0,5.0;" x1="1759.5" x2="1759.5" y1="36.2969" y2="742.8281"/><rect fill="#E2E2F0" height="30.2969" rx="2.5" ry="2.5" style="stroke:#181818;stroke-width:0.5;" width="202" x="20" y="5"/><text fill="#000000" font-family="sans-serif" font-size="14" lengthAdjust="spacing" textLength="188" x="27" y="24.9951">AI Service Delivery Manager</text><rect fill="#E2E2F0" height="30.2969" rx="2.5" ry="2.5" style="stroke:#181818;stroke-width:0.5;" width="202" x="20" y="741.8281"/><text fill="#000000" font-family="sans-serif" font-size="14" lengthAdjust="spacing" textLength="188" x="27" y="761.8232">AI Service Delivery Manager</text><rect fill="#E2E2F0" height="30.2969" rx="2.5" ry="2.5" style="stroke:#181818;stroke-width:0.5;" width="132" x="374" y="5"/><text fill="#000000" font-family="sans-serif" font-size="14" lengthAdjust="spacing" textLength="118" x="381" y="24.9951">Product Manager</text><rect fill="#E2E2F0" height="30.2969" rx="2.5" ry="2.5" style="stroke:#181818;stroke-width:0.5;" width="132" x="374" y="741.8281"/><text fill="#000000" font-family="sans-serif" font-size="14" lengthAdjust="spacing" textLength="118" x="381" y="761.8232">Product Manager</text><rect fill="#E2E2F0" height="30.2969" rx="2.5" ry="2.5" style="stroke:#181818;stroke-width:0.5;" width="154" x="815" y="5"/><text fill="#000000" font-family="sans-serif" font-size="14" lengthAdjust="spacing" textLength="140" x="822" y="24.9951">Operations Manager</text><rect fill="#E2E2F0" height="30.2969" rx="2.5" ry="2.5" style="stroke:#181818;stroke-width:0.5;" width="154" x="815" y="741.8281"/><text fill="#000000" font-family="sans-serif" font-size="14" lengthAdjust="spacing" textLength="140" x="822" y="761.8232">Operations Manager</text><rect fill="#E2E2F0" height="30.2969" rx="2.5" ry="2.5" style="stroke:#181818;stroke-width:0.5;" width="105" x="979" y="5"/><text fill="#000000" font-family="sans-serif" font-size="14" lengthAdjust="spacing" textLength="91" x="986" y="24.9951">AI-IRB Liaison</text><rect fill="#E2E2F0" height="30.2969" rx="2.5" ry="2.5" style="stroke:#181818;stroke-width:0.5;" width="105" x="979" y="741.8281"/><text fill="#000000" font-family="sans-serif" font-size="14" lengthAdjust="spacing" textLength="91" x="986" y="761.8232">AI-IRB Liaison</text><rect fill="#E2E2F0" height="30.2969" rx="2.5" ry="2.5" style="stroke:#181818;stroke-width:0.5;" width="137" x="1094" y="5"/><text fill="#000000" font-family="sans-serif" font-size="14" lengthAdjust="spacing" textLength="123" x="1101" y="24.9951">Quality Assurance</text><rect fill="#E2E2F0" height="30.2969" rx="2.5" ry="2.5" style="stroke:#181818;stroke-width:0.5;" width="137" x="1094" y="741.8281"/><text fill="#000000" font-family="sans-serif" font-size="14" lengthAdjust="spacing" textLength="123" x="1101" y="761.8232">Quality Assurance</text><rect fill="#E2E2F0" height="30.2969" rx="2.5" ry="2.5" style="stroke:#181818;stroke-width:0.5;" width="122" x="1346.5" y="5"/><text fill="#000000" font-family="sans-serif" font-size="14" lengthAdjust="spacing" textLength="108" x="1353.5" y="24.9951">Legal/Contracts</text><rect fill="#E2E2F0" height="30.2969" rx="2.5" ry="2.5" style="stroke:#181818;stroke-width:0.5;" width="122" x="1346.5" y="741.8281"/><text fill="#000000" font-family="sans-serif" font-size="14" lengthAdjust="spacing" textLength="108" x="1353.5" y="761.8232">Legal/Contracts</text><rect fill="#E2E2F0" height="30.2969" rx="2.5" ry="2.5" style="stroke:#181818;stroke-width:0.5;" width="126" x="1478.5" y="5"/><text fill="#000000" font-family="sans-serif" font-size="14" lengthAdjust="spacing" textLength="112" x="1485.5" y="24.9951">Project Manager</text><rect fill="#E2E2F0" height="30.2969" rx="2.5" ry="2.5" style="stroke:#181818;stroke-width:0.5;" width="126" x="1478.5" y="741.8281"/><text fill="#000000" font-family="sans-serif" font-size="14" lengthAdjust="spacing" textLength="112" x="1485.5" y="761.8232">Project Manager</text><rect fill="#E2E2F0" height="30.2969" rx="2.5" ry="2.5" style="stroke:#181818;stroke-width:0.5;" width="126" x="1696.5" y="5"/><text fill="#000000" font-family="sans-serif" font-size="14" lengthAdjust="spacing" textLength="112" x="1703.5" y="24.9951">Client/Customer</text><rect fill="#E2E2F0" height="30.2969" rx="2.5" ry="2.5" style="stroke:#181818;stroke-width:0.5;" width="126" x="1696.5" y="741.8281"/><text fill="#000000" font-family="sans-serif" font-size="14" lengthAdjust="spacing" textLength="112" x="1703.5" y="761.8232">Client/Customer</text><polygon fill="#181818" points="428,63.4297,438,67.4297,428,71.4297,432,67.4297" style="stroke:#181818;stroke-width:1.0;"/><line style="stroke:#181818;stroke-width:1.0;" x1="121" x2="434" y1="67.4297" y2="67.4297"/><text fill="#000000" font-family="sans-serif" font-size="13" lengthAdjust="spacing" textLength="295" x="128" y="62.3638">Present initial SLA needs (Perf, Ethical AI, etc.)</text><polygon fill="#181818" points="880,92.5625,890,96.5625,880,100.5625,884,96.5625" style="stroke:#181818;stroke-width:1.0;"/><line style="stroke:#181818;stroke-width:1.0;" x1="440" x2="886" y1="96.5625" y2="96.5625"/><text fill="#000000" font-family="sans-serif" font-size="13" lengthAdjust="spacing" textLength="428" x="447" y="91.4966">Discuss feasibility of SLO/SLI (uptime, response times, compliance)</text><path d="M10,111.5625 L74,111.5625 L74,118.6953 L64,128.6953 L10,128.6953 L10,111.5625 " fill="#EEEEEE" style="stroke:#000000;stroke-width:1.5;"/><rect fill="none" height="125.3359" style="stroke:#000000;stroke-width:1.5;" width="1105" x="10" y="111.5625"/><text fill="#000000" font-family="sans-serif" font-size="13" font-weight="bold" lengthAdjust="spacing" textLength="19" x="25" y="124.6294">alt</text><text fill="#000000" font-family="sans-serif" font-size="11" font-weight="bold" lengthAdjust="spacing" textLength="206" x="89" y="123.7729">["AI-IRB involvement required?"]</text><polygon fill="#181818" points="1019.5,145.8281,1029.5,149.8281,1019.5,153.8281,1023.5,149.8281" style="stroke:#181818;stroke-width:1.0;"/><line style="stroke:#181818;stroke-width:1.0;" x1="121" x2="1025.5" y1="149.8281" y2="149.8281"/><text fill="#000000" font-family="sans-serif" font-size="13" lengthAdjust="spacing" textLength="264" x="128" y="144.7622">Provide SLA draft for ethical usage review</text><polygon fill="#181818" points="132,174.9609,122,178.9609,132,182.9609,128,178.9609" style="stroke:#181818;stroke-width:1.0;"/><line style="stroke:#181818;stroke-width:1.0;" x1="126" x2="1030.5" y1="178.9609" y2="178.9609"/><text fill="#000000" font-family="sans-serif" font-size="13" lengthAdjust="spacing" textLength="325" x="138" y="173.895">Approve or request changes for ethical compliance</text><line style="stroke:#000000;stroke-width:1.0;stroke-dasharray:2.0,2.0;" x1="10" x2="1115" y1="187.9609" y2="187.9609"/><text fill="#000000" font-family="sans-serif" font-size="11" font-weight="bold" lengthAdjust="spacing" textLength="163" x="15" y="198.1714">["No AI-IRB involvement"]</text><path d="M46,206.7656 L46,231.7656 L1105,231.7656 L1105,216.7656 L1095,206.7656 L46,206.7656 " fill="#FEFFDD" style="stroke:#181818;stroke-width:0.5;"/><path d="M1095,206.7656 L1095,216.7656 L1105,216.7656 L1095,206.7656 " fill="#FEFFDD" style="stroke:#181818;stroke-width:0.5;"/><text fill="#000000" font-family="sans-serif" font-size="13" lengthAdjust="spacing" textLength="143" x="499.5" y="223.8325">No AI-IRB step needed</text><polygon fill="#181818" points="1395.5,261.0313,1405.5,265.0313,1395.5,269.0313,1399.5,265.0313" style="stroke:#181818;stroke-width:1.0;"/><line style="stroke:#181818;stroke-width:1.0;" x1="1162.5" x2="1401.5" y1="265.0313" y2="265.0313"/><text fill="#000000" font-family="sans-serif" font-size="13" lengthAdjust="spacing" textLength="221" x="1169.5" y="259.9653">Provide SLA details for legal review</text><polygon fill="#181818" points="132,290.1641,122,294.1641,132,298.1641,128,294.1641" style="stroke:#181818;stroke-width:1.0;"/><line style="stroke:#181818;stroke-width:1.0;" x1="126" x2="1406.5" y1="294.1641" y2="294.1641"/><text fill="#000000" font-family="sans-serif" font-size="13" lengthAdjust="spacing" textLength="323" x="138" y="289.0981">Confirm contract terms and finalize SLA document</text><polygon fill="#181818" points="1529.5,319.2969,1539.5,323.2969,1529.5,327.2969,1533.5,323.2969" style="stroke:#181818;stroke-width:1.0;"/><line style="stroke:#181818;stroke-width:1.0;" x1="121" x2="1535.5" y1="323.2969" y2="323.2969"/><text fill="#000000" font-family="sans-serif" font-size="13" lengthAdjust="spacing" textLength="276" x="128" y="318.231">Deliver final SLA for project plan integration</text><polygon fill="#181818" points="1747.5,348.4297,1757.5,352.4297,1747.5,356.4297,1751.5,352.4297" style="stroke:#181818;stroke-width:1.0;"/><line style="stroke:#181818;stroke-width:1.0;" x1="1541.5" x2="1753.5" y1="352.4297" y2="352.4297"/><text fill="#000000" font-family="sans-serif" font-size="13" lengthAdjust="spacing" textLength="177" x="1548.5" y="347.3638">Share SLA for client sign-off</text><path d="M10,367.4297 L74,367.4297 L74,374.5625 L64,384.5625 L10,384.5625 L10,367.4297 " fill="#EEEEEE" style="stroke:#000000;stroke-width:1.5;"/><rect fill="none" height="212.7344" style="stroke:#000000;stroke-width:1.5;" width="1831" x="10" y="367.4297"/><text fill="#000000" font-family="sans-serif" font-size="13" font-weight="bold" lengthAdjust="spacing" textLength="19" x="25" y="380.4966">alt</text><text fill="#000000" font-family="sans-serif" font-size="11" font-weight="bold" lengthAdjust="spacing" textLength="184" x="89" y="379.6401">["Client requests changes?"]</text><polygon fill="#181818" points="1552.5,401.6953,1542.5,405.6953,1552.5,409.6953,1548.5,405.6953" style="stroke:#181818;stroke-width:1.0;"/><line style="stroke:#181818;stroke-width:1.0;" x1="1546.5" x2="1758.5" y1="405.6953" y2="405.6953"/><text fill="#000000" font-family="sans-serif" font-size="13" lengthAdjust="spacing" textLength="194" x="1558.5" y="400.6294">Requests modifications to SLA</text><polygon fill="#181818" points="132,430.8281,122,434.8281,132,438.8281,128,434.8281" style="stroke:#181818;stroke-width:1.0;"/><line style="stroke:#181818;stroke-width:1.0;" x1="126" x2="1540.5" y1="434.8281" y2="434.8281"/><text fill="#000000" font-family="sans-serif" font-size="13" lengthAdjust="spacing" textLength="231" x="138" y="429.7622">Communicate needed SLA revisions</text><polygon fill="#181818" points="1395.5,459.9609,1405.5,463.9609,1395.5,467.9609,1399.5,463.9609" style="stroke:#181818;stroke-width:1.0;"/><line style="stroke:#181818;stroke-width:1.0;" x1="121" x2="1401.5" y1="463.9609" y2="463.9609"/><text fill="#000000" font-family="sans-serif" font-size="13" lengthAdjust="spacing" textLength="181" x="128" y="458.895">Update and finalize changes</text><polygon fill="#181818" points="1747.5,489.0938,1757.5,493.0938,1747.5,497.0938,1751.5,493.0938" style="stroke:#181818;stroke-width:1.0;"/><line style="stroke:#181818;stroke-width:1.0;" x1="1407.5" x2="1753.5" y1="493.0938" y2="493.0938"/><text fill="#000000" font-family="sans-serif" font-size="13" lengthAdjust="spacing" textLength="125" x="1414.5" y="488.0278">Submit revised SLA</text><polygon fill="#181818" points="1552.5,518.2266,1542.5,522.2266,1552.5,526.2266,1548.5,522.2266" style="stroke:#181818;stroke-width:1.0;"/><line style="stroke:#181818;stroke-width:1.0;" x1="1546.5" x2="1758.5" y1="522.2266" y2="522.2266"/><text fill="#000000" font-family="sans-serif" font-size="13" lengthAdjust="spacing" textLength="123" x="1558.5" y="517.1606">Accept revised SLA</text><line style="stroke:#000000;stroke-width:1.0;stroke-dasharray:2.0,2.0;" x1="10" x2="1841" y1="531.2266" y2="531.2266"/><text fill="#000000" font-family="sans-serif" font-size="11" font-weight="bold" lengthAdjust="spacing" textLength="97" x="15" y="541.437">["No changes"]</text><path d="M1688,550.0313 L1688,575.0313 L1831,575.0313 L1831,560.0313 L1821,550.0313 L1688,550.0313 " fill="#FEFFDD" style="stroke:#181818;stroke-width:0.5;"/><path d="M1821,550.0313 L1821,560.0313 L1831,560.0313 L1821,550.0313 " fill="#FEFFDD" style="stroke:#181818;stroke-width:0.5;"/><text fill="#000000" font-family="sans-serif" font-size="13" lengthAdjust="spacing" textLength="122" x="1694" y="567.0981">SLA accepted as-is</text><polygon fill="#181818" points="880,604.2969,890,608.2969,880,612.2969,884,608.2969" style="stroke:#181818;stroke-width:1.0;"/><line style="stroke:#181818;stroke-width:1.0;" x1="121" x2="886" y1="608.2969" y2="608.2969"/><text fill="#000000" font-family="sans-serif" font-size="13" lengthAdjust="spacing" textLength="326" x="128" y="603.231">Implement SLA monitoring tools (telemetry, alerts)</text><polygon fill="#181818" points="1150.5,633.4297,1160.5,637.4297,1150.5,641.4297,1154.5,637.4297" style="stroke:#181818;stroke-width:1.0;"/><line style="stroke:#181818;stroke-width:1.0;" x1="892" x2="1156.5" y1="637.4297" y2="637.4297"/><text fill="#000000" font-family="sans-serif" font-size="13" lengthAdjust="spacing" textLength="223" x="899" y="632.3638">Provide service data for verification</text><polygon fill="#181818" points="132,662.5625,122,666.5625,132,670.5625,128,666.5625" style="stroke:#181818;stroke-width:1.0;"/><line style="stroke:#181818;stroke-width:1.0;" x1="126" x2="1161.5" y1="666.5625" y2="666.5625"/><text fill="#000000" font-family="sans-serif" font-size="13" lengthAdjust="spacing" textLength="211" x="138" y="661.4966">Validate compliance with SLO/SLI</text><polygon fill="#181818" points="1747.5,691.6953,1757.5,695.6953,1747.5,699.6953,1751.5,695.6953" style="stroke:#181818;stroke-width:1.0;"/><line style="stroke:#181818;stroke-width:1.0;" x1="121" x2="1753.5" y1="695.6953" y2="695.6953"/><text fill="#000000" font-family="sans-serif" font-size="13" lengthAdjust="spacing" textLength="286" x="128" y="690.6294">Periodic SLA reports &amp; compliance summary</text><polygon fill="#181818" points="132,720.8281,122,724.8281,132,728.8281,128,724.8281" style="stroke:#181818;stroke-width:1.0;"/><line style="stroke:#181818;stroke-width:1.0;" x1="126" x2="1758.5" y1="724.8281" y2="724.8281"/><text fill="#000000" font-family="sans-serif" font-size="13" lengthAdjust="spacing" textLength="196" x="138" y="719.7622">Feedback on SLA performance</text><!--MD5=[c73996c587edcb3c09ecfdb221247c15]
@startuml
participant "AI Service Delivery Manager" as ASM
participant "Product Manager" as PM
participant "Operations Manager" as OM
participant "AI-IRB Liaison" as IRB
participant "Quality Assurance" as QA
participant "Legal/Contracts" as LEG
participant "Project Manager" as PRJM
participant "Client/Customer" as CLT

ASM -> PM: Present initial SLA needs (Perf, Ethical AI, etc.)
PM -> OM: Discuss feasibility of SLO/SLI (uptime, response times, compliance)
alt "AI-IRB involvement required?"
  ASM -> IRB: Provide SLA draft for ethical usage review
  IRB -> ASM: Approve or request changes for ethical compliance
else "No AI-IRB involvement"
  note over ASM, IRB: No AI-IRB step needed
end

QA -> LEG: Provide SLA details for legal review
LEG -> ASM: Confirm contract terms and finalize SLA document
ASM -> PRJM: Deliver final SLA for project plan integration
PRJM -> CLT: Share SLA for client sign-off

alt "Client requests changes?"
  CLT -> PRJM: Requests modifications to SLA
  PRJM -> ASM: Communicate needed SLA revisions
  ASM -> LEG: Update and finalize changes
  LEG -> CLT: Submit revised SLA
  CLT -> PRJM: Accept revised SLA
else "No changes"
  note over CLT: SLA accepted as-is
end

ASM -> OM: Implement SLA monitoring tools (telemetry, alerts)
OM -> QA: Provide service data for verification
QA -> ASM: Validate compliance with SLO/SLI

ASM -> CLT: Periodic SLA reports & compliance summary
CLT -> ASM: Feedback on SLA performance
@enduml

PlantUML version 1.2022.7(Mon Aug 22 17:01:30 UTC 2022)
(GPL source distribution)
Java Runtime: OpenJDK Runtime Environment
JVM: OpenJDK 64-Bit Server VM
Default Encoding: UTF-8
Language: en
Country: null
--></g></svg>