<?xml version="1.0" encoding="UTF-8" standalone="no"?><svg xmlns="http://www.w3.org/2000/svg" xmlns:xlink="http://www.w3.org/1999/xlink" contentStyleType="text/css" height="1266px" preserveAspectRatio="none" style="width:1674px;height:1266px;background:#FFFFFF;" version="1.1" viewBox="0 0 1674 1266" width="1674px" zoomAndPan="magnify"><defs/><g><rect fill="none" height="26.2969" id="_title" style="stroke:none;stroke-width:1.0;" width="530" x="573" y="10"/><text fill="#000000" font-family="sans-serif" font-size="14" font-weight="bold" lengthAdjust="spacing" textLength="520" x="578" y="27.9951">SOP-1006-01-AI: AI-IRB Engagement and Ethical Review Sequence</text><rect fill="none" height="483.7344" style="stroke:#000000;stroke-width:1.5;" width="1657" x="10" y="429.0547"/><line style="stroke:#181818;stroke-width:0.5;stroke-dasharray:5.0,5.0;" x1="83" x2="83" y1="73.5938" y2="1230.9844"/><line style="stroke:#181818;stroke-width:0.5;stroke-dasharray:5.0,5.0;" x1="407.5" x2="407.5" y1="73.5938" y2="1230.9844"/><line style="stroke:#181818;stroke-width:0.5;stroke-dasharray:5.0,5.0;" x1="666" x2="666" y1="73.5938" y2="1230.9844"/><line style="stroke:#181818;stroke-width:0.5;stroke-dasharray:5.0,5.0;" x1="899" x2="899" y1="73.5938" y2="1230.9844"/><line style="stroke:#181818;stroke-width:0.5;stroke-dasharray:5.0,5.0;" x1="1208.5" x2="1208.5" y1="73.5938" y2="1230.9844"/><line style="stroke:#181818;stroke-width:0.5;stroke-dasharray:5.0,5.0;" x1="1466" x2="1466" y1="73.5938" y2="1230.9844"/><line style="stroke:#181818;stroke-width:0.5;stroke-dasharray:5.0,5.0;" x1="1589" x2="1589" y1="73.5938" y2="1230.9844"/><rect fill="#E2E2F0" height="30.2969" rx="2.5" ry="2.5" style="stroke:#181818;stroke-width:0.5;" width="126" x="20" y="42.2969"/><text fill="#000000" font-family="sans-serif" font-size="14" lengthAdjust="spacing" textLength="112" x="27" y="62.292">Project Manager</text><rect fill="#E2E2F0" height="30.2969" rx="2.5" ry="2.5" style="stroke:#181818;stroke-width:0.5;" width="126" x="20" y="1229.9844"/><text fill="#000000" font-family="sans-serif" font-size="14" lengthAdjust="spacing" textLength="112" x="27" y="1249.9795">Project Manager</text><rect fill="#E2E2F0" height="30.2969" rx="2.5" ry="2.5" style="stroke:#181818;stroke-width:0.5;" width="105" x="355.5" y="42.2969"/><text fill="#000000" font-family="sans-serif" font-size="14" lengthAdjust="spacing" textLength="91" x="362.5" y="62.292">AI-IRB Liaison</text><rect fill="#E2E2F0" height="30.2969" rx="2.5" ry="2.5" style="stroke:#181818;stroke-width:0.5;" width="105" x="355.5" y="1229.9844"/><text fill="#000000" font-family="sans-serif" font-size="14" lengthAdjust="spacing" textLength="91" x="362.5" y="1249.9795">AI-IRB Liaison</text><rect fill="#E2E2F0" height="30.2969" rx="2.5" ry="2.5" style="stroke:#181818;stroke-width:0.5;" width="54" x="639" y="42.2969"/><text fill="#000000" font-family="sans-serif" font-size="14" lengthAdjust="spacing" textLength="40" x="646" y="62.292">AI-IRB</text><rect fill="#E2E2F0" height="30.2969" rx="2.5" ry="2.5" style="stroke:#181818;stroke-width:0.5;" width="54" x="639" y="1229.9844"/><text fill="#000000" font-family="sans-serif" font-size="14" lengthAdjust="spacing" textLength="40" x="646" y="1249.9795">AI-IRB</text><rect fill="#E2E2F0" height="30.2969" rx="2.5" ry="2.5" style="stroke:#181818;stroke-width:0.5;" width="150" x="824" y="42.2969"/><text fill="#000000" font-family="sans-serif" font-size="14" lengthAdjust="spacing" textLength="136" x="831" y="62.292">Development Team</text><rect fill="#E2E2F0" height="30.2969" rx="2.5" ry="2.5" style="stroke:#181818;stroke-width:0.5;" width="150" x="824" y="1229.9844"/><text fill="#000000" font-family="sans-serif" font-size="14" lengthAdjust="spacing" textLength="136" x="831" y="1249.9795">Development Team</text><rect fill="#E2E2F0" height="30.2969" rx="2.5" ry="2.5" style="stroke:#181818;stroke-width:0.5;" width="137" x="1140.5" y="42.2969"/><text fill="#000000" font-family="sans-serif" font-size="14" lengthAdjust="spacing" textLength="123" x="1147.5" y="62.292">Quality Assurance</text><rect fill="#E2E2F0" height="30.2969" rx="2.5" ry="2.5" style="stroke:#181818;stroke-width:0.5;" width="137" x="1140.5" y="1229.9844"/><text fill="#000000" font-family="sans-serif" font-size="14" lengthAdjust="spacing" textLength="123" x="1147.5" y="1249.9795">Quality Assurance</text><rect fill="#E2E2F0" height="30.2969" rx="2.5" ry="2.5" style="stroke:#181818;stroke-width:0.5;" width="90" x="1421" y="42.2969"/><text fill="#000000" font-family="sans-serif" font-size="14" lengthAdjust="spacing" textLength="76" x="1428" y="62.292">Operations</text><rect fill="#E2E2F0" height="30.2969" rx="2.5" ry="2.5" style="stroke:#181818;stroke-width:0.5;" width="90" x="1421" y="1229.9844"/><text fill="#000000" font-family="sans-serif" font-size="14" lengthAdjust="spacing" textLength="76" x="1428" y="1249.9795">Operations</text><rect fill="#E2E2F0" height="30.2969" rx="2.5" ry="2.5" style="stroke:#181818;stroke-width:0.5;" width="136" x="1521" y="42.2969"/><text fill="#000000" font-family="sans-serif" font-size="14" lengthAdjust="spacing" textLength="122" x="1528" y="62.292">Legal/Compliance</text><rect fill="#E2E2F0" height="30.2969" rx="2.5" ry="2.5" style="stroke:#181818;stroke-width:0.5;" width="136" x="1521" y="1229.9844"/><text fill="#000000" font-family="sans-serif" font-size="14" lengthAdjust="spacing" textLength="122" x="1528" y="1249.9795">Legal/Compliance</text><line style="stroke:#181818;stroke-width:1.0;" x1="83" x2="125" y1="104.7266" y2="104.7266"/><line style="stroke:#181818;stroke-width:1.0;" x1="125" x2="125" y1="104.7266" y2="117.7266"/><line style="stroke:#181818;stroke-width:1.0;" x1="84" x2="125" y1="117.7266" y2="117.7266"/><polygon fill="#181818" points="94,113.7266,84,117.7266,94,121.7266,90,117.7266" style="stroke:#181818;stroke-width:1.0;"/><text fill="#000000" font-family="sans-serif" font-size="13" lengthAdjust="spacing" textLength="258" x="90" y="99.6606">Identify AI aspects needing IRB oversight</text><polygon fill="#181818" points="396,142.8594,406,146.8594,396,150.8594,400,146.8594" style="stroke:#181818;stroke-width:1.0;"/><line style="stroke:#181818;stroke-width:1.0;" x1="83" x2="402" y1="146.8594" y2="146.8594"/><text fill="#000000" font-family="sans-serif" font-size="13" lengthAdjust="spacing" textLength="223" x="90" y="141.7935">Notify about potential AI-IRB review</text><line style="stroke:#181818;stroke-width:1.0;" x1="408" x2="450" y1="180.0586" y2="180.0586"/><line style="stroke:#181818;stroke-width:1.0;" x1="450" x2="450" y1="180.0586" y2="193.0586"/><line style="stroke:#181818;stroke-width:1.0;" x1="409" x2="450" y1="193.0586" y2="193.0586"/><polygon fill="#181818" points="419,189.0586,409,193.0586,419,197.0586,415,193.0586" style="stroke:#181818;stroke-width:1.0;"/><text fill="#000000" font-family="sans-serif" font-size="13" lengthAdjust="spacing" textLength="244" x="415" y="174.9927">Determine if full submission or consult</text><path d="M671,159.8594 L671,199.8594 L956,199.8594 L956,169.8594 L946,159.8594 L671,159.8594 " fill="#FEFFDD" style="stroke:#181818;stroke-width:0.5;"/><path d="M946,159.8594 L946,169.8594 L956,169.8594 L946,159.8594 " fill="#FEFFDD" style="stroke:#181818;stroke-width:0.5;"/><text fill="#000000" font-family="sans-serif" font-size="13" lengthAdjust="spacing" textLength="264" x="677" y="176.9263">LIAISON advises next steps for formal IRB</text><text fill="#000000" font-family="sans-serif" font-size="13" lengthAdjust="spacing" textLength="246" x="677" y="192.0591">submission or preliminary consultation</text><polygon fill="#181818" points="887,222.2578,897,226.2578,887,230.2578,891,226.2578" style="stroke:#181818;stroke-width:1.0;"/><line style="stroke:#181818;stroke-width:1.0;" x1="83" x2="893" y1="226.2578" y2="226.2578"/><text fill="#000000" font-family="sans-serif" font-size="13" lengthAdjust="spacing" textLength="349" x="90" y="221.1919">Collect technical/data details for Ethical Review Dossier</text><polygon fill="#181818" points="1197,251.3906,1207,255.3906,1197,259.3906,1201,255.3906" style="stroke:#181818;stroke-width:1.0;"/><line style="stroke:#181818;stroke-width:1.0;" x1="83" x2="1203" y1="255.3906" y2="255.3906"/><text fill="#000000" font-family="sans-serif" font-size="13" lengthAdjust="spacing" textLength="328" x="90" y="250.3247">Request preliminary check of dossier completeness</text><polygon fill="#181818" points="94,280.5234,84,284.5234,94,288.5234,90,284.5234" style="stroke:#181818;stroke-width:1.0;"/><line style="stroke:#181818;stroke-width:1.0;" x1="88" x2="1208" y1="284.5234" y2="284.5234"/><text fill="#000000" font-family="sans-serif" font-size="13" lengthAdjust="spacing" textLength="237" x="100" y="279.4575">Confirm dossier ready for submission</text><polygon fill="#181818" points="396,309.6563,406,313.6563,396,317.6563,400,313.6563" style="stroke:#181818;stroke-width:1.0;"/><line style="stroke:#181818;stroke-width:1.0;" x1="83" x2="402" y1="313.6563" y2="313.6563"/><text fill="#000000" font-family="sans-serif" font-size="13" lengthAdjust="spacing" textLength="262" x="90" y="308.5903">Submit final Ethical Review Dossier to IRB</text><polygon fill="#181818" points="654,338.7891,664,342.7891,654,346.7891,658,342.7891" style="stroke:#181818;stroke-width:1.0;"/><line style="stroke:#181818;stroke-width:1.0;" x1="408" x2="660" y1="342.7891" y2="342.7891"/><text fill="#000000" font-family="sans-serif" font-size="13" lengthAdjust="spacing" textLength="234" x="415" y="337.7231">Forward dossier and supporting docs</text><line style="stroke:#181818;stroke-width:1.0;" x1="666" x2="708" y1="371.9219" y2="371.9219"/><line style="stroke:#181818;stroke-width:1.0;" x1="708" x2="708" y1="371.9219" y2="384.9219"/><line style="stroke:#181818;stroke-width:1.0;" x1="667" x2="708" y1="384.9219" y2="384.9219"/><polygon fill="#181818" points="677,380.9219,667,384.9219,677,388.9219,673,384.9219" style="stroke:#181818;stroke-width:1.0;"/><text fill="#000000" font-family="sans-serif" font-size="13" lengthAdjust="spacing" textLength="219" x="673" y="366.856">Examine project doc &amp; assess risk</text><polygon fill="#181818" points="419,410.0547,409,414.0547,419,418.0547,415,414.0547" style="stroke:#181818;stroke-width:1.0;"/><line style="stroke:#181818;stroke-width:1.0;" x1="413" x2="665" y1="414.0547" y2="414.0547"/><text fill="#000000" font-family="sans-serif" font-size="13" lengthAdjust="spacing" textLength="152" x="425" y="408.9888">Provide review outcome</text><path d="M10,429.0547 L74,429.0547 L74,436.1875 L64,446.1875 L10,446.1875 L10,429.0547 " fill="#EEEEEE" style="stroke:#000000;stroke-width:1.5;"/><rect fill="none" height="483.7344" style="stroke:#000000;stroke-width:1.5;" width="1657" x="10" y="429.0547"/><text fill="#000000" font-family="sans-serif" font-size="13" font-weight="bold" lengthAdjust="spacing" textLength="19" x="25" y="442.1216">alt</text><text fill="#000000" font-family="sans-serif" font-size="11" font-weight="bold" lengthAdjust="spacing" textLength="70" x="89" y="441.2651">[Approved]</text><polygon fill="#181818" points="94,463.3203,84,467.3203,94,471.3203,90,467.3203" style="stroke:#181818;stroke-width:1.0;"/><line style="stroke:#181818;stroke-width:1.0;" x1="88" x2="407" y1="467.3203" y2="467.3203"/><text fill="#000000" font-family="sans-serif" font-size="13" lengthAdjust="spacing" textLength="161" x="100" y="462.2544">Notifies final IRB approval</text><polygon fill="#181818" points="1197,492.4531,1207,496.4531,1197,500.4531,1201,496.4531" style="stroke:#181818;stroke-width:1.0;"/><line style="stroke:#181818;stroke-width:1.0;" x1="83" x2="1203" y1="496.4531" y2="496.4531"/><text fill="#000000" font-family="sans-serif" font-size="13" lengthAdjust="spacing" textLength="201" x="90" y="491.3872">Mark IRB-based tasks complete</text><line style="stroke:#000000;stroke-width:1.0;stroke-dasharray:2.0,2.0;" x1="10" x2="1667" y1="505.4531" y2="505.4531"/><text fill="#000000" font-family="sans-serif" font-size="11" font-weight="bold" lengthAdjust="spacing" textLength="123" x="15" y="515.6636">["Cond. Approved"]</text><polygon fill="#181818" points="94,536.3906,84,540.3906,94,544.3906,90,540.3906" style="stroke:#181818;stroke-width:1.0;"/><line style="stroke:#181818;stroke-width:1.0;" x1="88" x2="407" y1="540.3906" y2="540.3906"/><text fill="#000000" font-family="sans-serif" font-size="13" lengthAdjust="spacing" textLength="138" x="100" y="535.3247">Shares IRB conditions</text><polygon fill="#181818" points="1577,565.5234,1587,569.5234,1577,573.5234,1581,569.5234" style="stroke:#181818;stroke-width:1.0;"/><line style="stroke:#181818;stroke-width:1.0;" x1="83" x2="1583" y1="569.5234" y2="569.5234"/><text fill="#000000" font-family="sans-serif" font-size="13" lengthAdjust="spacing" textLength="342" x="90" y="564.4575">(If needed) Clarify conditions or regulatory constraints</text><polygon fill="#181818" points="887,594.6563,897,598.6563,887,602.6563,891,598.6563" style="stroke:#181818;stroke-width:1.0;"/><line style="stroke:#181818;stroke-width:1.0;" x1="83" x2="893" y1="598.6563" y2="598.6563"/><text fill="#000000" font-family="sans-serif" font-size="13" lengthAdjust="spacing" textLength="180" x="90" y="593.5903">Adjust design per conditions</text><polygon fill="#181818" points="1197,623.7891,1207,627.7891,1197,631.7891,1201,627.7891" style="stroke:#181818;stroke-width:1.0;"/><line style="stroke:#181818;stroke-width:1.0;" x1="899" x2="1203" y1="627.7891" y2="627.7891"/><text fill="#000000" font-family="sans-serif" font-size="13" lengthAdjust="spacing" textLength="286" x="906" y="622.7231">Confirm updated design meets IRB demands</text><polygon fill="#181818" points="419,652.9219,409,656.9219,419,660.9219,415,656.9219" style="stroke:#181818;stroke-width:1.0;"/><line style="stroke:#181818;stroke-width:1.0;" x1="413" x2="1208" y1="656.9219" y2="656.9219"/><text fill="#000000" font-family="sans-serif" font-size="13" lengthAdjust="spacing" textLength="156" x="425" y="651.856">Resubmit for IRB sign-off</text><polygon fill="#181818" points="419,682.0547,409,686.0547,419,690.0547,415,686.0547" style="stroke:#181818;stroke-width:1.0;"/><line style="stroke:#181818;stroke-width:1.0;" x1="413" x2="665" y1="686.0547" y2="686.0547"/><text fill="#000000" font-family="sans-serif" font-size="13" lengthAdjust="spacing" textLength="88" x="425" y="680.9888">Final approval</text><polygon fill="#181818" points="94,711.1875,84,715.1875,94,719.1875,90,715.1875" style="stroke:#181818;stroke-width:1.0;"/><line style="stroke:#181818;stroke-width:1.0;" x1="88" x2="407" y1="715.1875" y2="715.1875"/><text fill="#000000" font-family="sans-serif" font-size="13" lengthAdjust="spacing" textLength="131" x="100" y="710.1216">Notifies IRB approval</text><line style="stroke:#000000;stroke-width:1.0;stroke-dasharray:2.0,2.0;" x1="10" x2="1667" y1="724.1875" y2="724.1875"/><text fill="#000000" font-family="sans-serif" font-size="11" font-weight="bold" lengthAdjust="spacing" textLength="78" x="15" y="734.3979">["Rejected"]</text><polygon fill="#181818" points="94,755.125,84,759.125,94,763.125,90,759.125" style="stroke:#181818;stroke-width:1.0;"/><line style="stroke:#181818;stroke-width:1.0;" x1="88" x2="407" y1="759.125" y2="759.125"/><text fill="#000000" font-family="sans-serif" font-size="13" lengthAdjust="spacing" textLength="128" x="100" y="754.0591">Shares IRB rejection</text><polygon fill="#181818" points="887,784.2578,897,788.2578,887,792.2578,891,788.2578" style="stroke:#181818;stroke-width:1.0;"/><line style="stroke:#181818;stroke-width:1.0;" x1="83" x2="893" y1="788.2578" y2="788.2578"/><text fill="#000000" font-family="sans-serif" font-size="13" lengthAdjust="spacing" textLength="204" x="90" y="783.1919">Major revision or additional data</text><polygon fill="#181818" points="1197,813.3906,1207,817.3906,1197,821.3906,1201,817.3906" style="stroke:#181818;stroke-width:1.0;"/><line style="stroke:#181818;stroke-width:1.0;" x1="899" x2="1203" y1="817.3906" y2="817.3906"/><text fill="#000000" font-family="sans-serif" font-size="13" lengthAdjust="spacing" textLength="178" x="906" y="812.3247">Validate reworked approach</text><polygon fill="#181818" points="419,842.5234,409,846.5234,419,850.5234,415,846.5234" style="stroke:#181818;stroke-width:1.0;"/><line style="stroke:#181818;stroke-width:1.0;" x1="413" x2="1208" y1="846.5234" y2="846.5234"/><text fill="#000000" font-family="sans-serif" font-size="13" lengthAdjust="spacing" textLength="101" x="425" y="841.4575">Resubmit to IRB</text><polygon fill="#181818" points="419,871.6563,409,875.6563,419,879.6563,415,875.6563" style="stroke:#181818;stroke-width:1.0;"/><line style="stroke:#181818;stroke-width:1.0;" x1="413" x2="665" y1="875.6563" y2="875.6563"/><text fill="#000000" font-family="sans-serif" font-size="13" lengthAdjust="spacing" textLength="85" x="425" y="870.5903">Final decision</text><polygon fill="#181818" points="94,900.7891,84,904.7891,94,908.7891,90,904.7891" style="stroke:#181818;stroke-width:1.0;"/><line style="stroke:#181818;stroke-width:1.0;" x1="88" x2="407" y1="904.7891" y2="904.7891"/><text fill="#000000" font-family="sans-serif" font-size="13" lengthAdjust="spacing" textLength="131" x="100" y="899.7231">If approved, proceed</text><polygon fill="#181818" points="1454,936.9219,1464,940.9219,1454,944.9219,1458,940.9219" style="stroke:#181818;stroke-width:1.0;"/><line style="stroke:#181818;stroke-width:1.0;" x1="83" x2="1460" y1="940.9219" y2="940.9219"/><text fill="#000000" font-family="sans-serif" font-size="13" lengthAdjust="spacing" textLength="280" x="90" y="935.856">Implement IRB-mandated technical controls</text><line style="stroke:#181818;stroke-width:1.0;" x1="1209" x2="1251" y1="970.0547" y2="970.0547"/><line style="stroke:#181818;stroke-width:1.0;" x1="1251" x2="1251" y1="970.0547" y2="983.0547"/><line style="stroke:#181818;stroke-width:1.0;" x1="1210" x2="1251" y1="983.0547" y2="983.0547"/><polygon fill="#181818" points="1220,979.0547,1210,983.0547,1220,987.0547,1216,983.0547" style="stroke:#181818;stroke-width:1.0;"/><text fill="#000000" font-family="sans-serif" font-size="13" lengthAdjust="spacing" textLength="243" x="1216" y="964.9888">Monitor compliance with IRB directives</text><polygon fill="#181818" points="887,1008.1875,897,1012.1875,887,1016.1875,891,1012.1875" style="stroke:#181818;stroke-width:1.0;"/><line style="stroke:#181818;stroke-width:1.0;" x1="83" x2="893" y1="1012.1875" y2="1012.1875"/><text fill="#000000" font-family="sans-serif" font-size="13" lengthAdjust="spacing" textLength="309" x="90" y="1007.1216">Proceed with development/test gates (unlocked)</text><line style="stroke:#181818;stroke-width:1.0;" x1="83" x2="125" y1="1041.3203" y2="1041.3203"/><line style="stroke:#181818;stroke-width:1.0;" x1="125" x2="125" y1="1041.3203" y2="1054.3203"/><line style="stroke:#181818;stroke-width:1.0;" x1="84" x2="125" y1="1054.3203" y2="1054.3203"/><polygon fill="#181818" points="94,1050.3203,84,1054.3203,94,1058.3203,90,1054.3203" style="stroke:#181818;stroke-width:1.0;"/><text fill="#000000" font-family="sans-serif" font-size="13" lengthAdjust="spacing" textLength="309" x="90" y="1036.2544">Plan post-approval oversight (scheduled checks)</text><polygon fill="#181818" points="94,1079.4531,84,1083.4531,94,1087.4531,90,1083.4531" style="stroke:#181818;stroke-width:1.0;"/><line style="stroke:#181818;stroke-width:1.0;" x1="88" x2="1465" y1="1083.4531" y2="1083.4531"/><text fill="#000000" font-family="sans-serif" font-size="13" lengthAdjust="spacing" textLength="297" x="100" y="1078.3872">Provide logs or metrics for ongoing IRB reviews</text><polygon fill="#181818" points="396,1108.5859,406,1112.5859,396,1116.5859,400,1112.5859" style="stroke:#181818;stroke-width:1.0;"/><line style="stroke:#181818;stroke-width:1.0;" x1="83" x2="402" y1="1112.5859" y2="1112.5859"/><text fill="#000000" font-family="sans-serif" font-size="13" lengthAdjust="spacing" textLength="216" x="90" y="1107.52">Provide updates to IRB, if required</text><line style="stroke:#181818;stroke-width:1.0;" x1="83" x2="125" y1="1141.7188" y2="1141.7188"/><line style="stroke:#181818;stroke-width:1.0;" x1="125" x2="125" y1="1141.7188" y2="1154.7188"/><line style="stroke:#181818;stroke-width:1.0;" x1="84" x2="125" y1="1154.7188" y2="1154.7188"/><polygon fill="#181818" points="94,1150.7188,84,1154.7188,94,1158.7188,90,1154.7188" style="stroke:#181818;stroke-width:1.0;"/><text fill="#000000" font-family="sans-serif" font-size="13" lengthAdjust="spacing" textLength="210" x="90" y="1136.6528">Conduct post-deployment review</text><polygon fill="#181818" points="1197,1179.8516,1207,1183.8516,1197,1187.8516,1201,1183.8516" style="stroke:#181818;stroke-width:1.0;"/><line style="stroke:#181818;stroke-width:1.0;" x1="83" x2="1203" y1="1183.8516" y2="1183.8516"/><text fill="#000000" font-family="sans-serif" font-size="13" lengthAdjust="spacing" textLength="282" x="90" y="1178.7856">Gather metrics on compliance/ethical usage</text><polygon fill="#181818" points="396,1208.9844,406,1212.9844,396,1216.9844,400,1212.9844" style="stroke:#181818;stroke-width:1.0;"/><line style="stroke:#181818;stroke-width:1.0;" x1="83" x2="402" y1="1212.9844" y2="1212.9844"/><text fill="#000000" font-family="sans-serif" font-size="13" lengthAdjust="spacing" textLength="301" x="90" y="1207.9185">Prepare final IRB summary and lessons learned</text><!--MD5=[0eae39dba7e9c9a1c774b77d24e616a2]
@startuml
title SOP-1006-01-AI: AI-IRB Engagement and Ethical Review Sequence

participant "Project Manager" as PM
participant "AI-IRB Liaison" as LIAISON
participant "AI-IRB" as IRB
participant "Development Team" as DEV
participant "Quality Assurance" as QA
participant "Operations" as OPS
participant "Legal/Compliance" as LEGAL

PM -> PM: Identify AI aspects needing IRB oversight
PM -> LIAISON: Notify about potential AI-IRB review
LIAISON -> LIAISON: Determine if full submission or consult
note right
  LIAISON advises next steps for formal IRB
  submission or preliminary consultation
end note

PM -> DEV: Collect technical/data details for Ethical Review Dossier
PM -> QA: Request preliminary check of dossier completeness
QA -> PM: Confirm dossier ready for submission

PM -> LIAISON: Submit final Ethical Review Dossier to IRB
LIAISON -> IRB: Forward dossier and supporting docs

IRB -> IRB: Examine project doc & assess risk
IRB -> LIAISON: Provide review outcome
alt Approved
  LIAISON -> PM: Notifies final IRB approval
  PM -> QA: Mark IRB-based tasks complete
else "Cond. Approved"
  LIAISON -> PM: Shares IRB conditions
  PM -> LEGAL: (If needed) Clarify conditions or regulatory constraints
  PM -> DEV: Adjust design per conditions
  DEV -> QA: Confirm updated design meets IRB demands
  QA -> LIAISON: Resubmit for IRB sign-off
  IRB -> LIAISON: Final approval
  LIAISON -> PM: Notifies IRB approval
else "Rejected"
  LIAISON -> PM: Shares IRB rejection
  PM -> DEV: Major revision or additional data
  DEV -> QA: Validate reworked approach
  QA -> LIAISON: Resubmit to IRB
  IRB -> LIAISON: Final decision
  LIAISON -> PM: If approved, proceed
end

PM -> OPS: Implement IRB-mandated technical controls
QA -> QA: Monitor compliance with IRB directives

PM -> DEV: Proceed with development/test gates (unlocked)
PM -> PM: Plan post-approval oversight (scheduled checks)
OPS -> PM: Provide logs or metrics for ongoing IRB reviews
PM -> LIAISON: Provide updates to IRB, if required

PM -> PM: Conduct post-deployment review
PM -> QA: Gather metrics on compliance/ethical usage
PM -> LIAISON: Prepare final IRB summary and lessons learned
@enduml

PlantUML version 1.2022.7(Mon Aug 22 17:01:30 UTC 2022)
(GPL source distribution)
Java Runtime: OpenJDK Runtime Environment
JVM: OpenJDK 64-Bit Server VM
Default Encoding: UTF-8
Language: en
Country: null
--></g></svg>