<?xml version="1.0" encoding="UTF-8" standalone="no"?><svg xmlns="http://www.w3.org/2000/svg" xmlns:xlink="http://www.w3.org/1999/xlink" contentStyleType="text/css" height="1399px" preserveAspectRatio="none" style="width:1765px;height:1399px;background:#FFFFFF;" version="1.1" viewBox="0 0 1765 1399" width="1765px" zoomAndPan="magnify"><defs/><g><rect fill="none" height="26.2969" id="_title" style="stroke:none;stroke-width:1.0;" width="435" x="666" y="10"/><text fill="#000000" font-family="sans-serif" font-size="14" font-weight="bold" lengthAdjust="spacing" textLength="425" x="671" y="27.9951">SOP-1053-01-AI: Ethical Risk Assessment &amp; Mitigation</text><rect fill="none" height="125.3359" style="stroke:#000000;stroke-width:1.5;" width="1329" x="429" y="887.9766"/><line style="stroke:#181818;stroke-width:0.5;stroke-dasharray:5.0,5.0;" x1="96" x2="96" y1="73.5938" y2="1364.0391"/><line style="stroke:#181818;stroke-width:0.5;stroke-dasharray:5.0,5.0;" x1="283" x2="283" y1="73.5938" y2="1364.0391"/><line style="stroke:#181818;stroke-width:0.5;stroke-dasharray:5.0,5.0;" x1="538" x2="538" y1="73.5938" y2="1364.0391"/><line style="stroke:#181818;stroke-width:0.5;stroke-dasharray:5.0,5.0;" x1="760.5" x2="760.5" y1="73.5938" y2="1364.0391"/><line style="stroke:#181818;stroke-width:0.5;stroke-dasharray:5.0,5.0;" x1="927.5" x2="927.5" y1="73.5938" y2="1364.0391"/><line style="stroke:#181818;stroke-width:0.5;stroke-dasharray:5.0,5.0;" x1="1117.5" x2="1117.5" y1="73.5938" y2="1364.0391"/><line style="stroke:#181818;stroke-width:0.5;stroke-dasharray:5.0,5.0;" x1="1289.5" x2="1289.5" y1="73.5938" y2="1364.0391"/><line style="stroke:#181818;stroke-width:0.5;stroke-dasharray:5.0,5.0;" x1="1492.5" x2="1492.5" y1="73.5938" y2="1364.0391"/><line style="stroke:#181818;stroke-width:0.5;stroke-dasharray:5.0,5.0;" x1="1676" x2="1676" y1="73.5938" y2="1364.0391"/><rect fill="#E2E2F0" height="30.2969" rx="2.5" ry="2.5" style="stroke:#181818;stroke-width:0.5;" width="163" x="15" y="42.2969"/><text fill="#000000" font-family="sans-serif" font-size="14" lengthAdjust="spacing" textLength="149" x="22" y="62.292">Product Management</text><rect fill="#E2E2F0" height="30.2969" rx="2.5" ry="2.5" style="stroke:#181818;stroke-width:0.5;" width="163" x="15" y="1363.0391"/><text fill="#000000" font-family="sans-serif" font-size="14" lengthAdjust="spacing" textLength="149" x="22" y="1383.0342">Product Management</text><rect fill="#E2E2F0" height="30.2969" rx="2.5" ry="2.5" style="stroke:#181818;stroke-width:0.5;" width="150" x="208" y="42.2969"/><text fill="#000000" font-family="sans-serif" font-size="14" lengthAdjust="spacing" textLength="136" x="215" y="62.292">Development Team</text><rect fill="#E2E2F0" height="30.2969" rx="2.5" ry="2.5" style="stroke:#181818;stroke-width:0.5;" width="150" x="208" y="1363.0391"/><text fill="#000000" font-family="sans-serif" font-size="14" lengthAdjust="spacing" textLength="136" x="215" y="1383.0342">Development Team</text><rect fill="#E2E2F0" height="30.2969" rx="2.5" ry="2.5" style="stroke:#181818;stroke-width:0.5;" width="152" x="462" y="42.2969"/><text fill="#000000" font-family="sans-serif" font-size="14" lengthAdjust="spacing" textLength="138" x="469" y="62.292">AI Ethics Committee</text><rect fill="#E2E2F0" height="30.2969" rx="2.5" ry="2.5" style="stroke:#181818;stroke-width:0.5;" width="152" x="462" y="1363.0391"/><text fill="#000000" font-family="sans-serif" font-size="14" lengthAdjust="spacing" textLength="138" x="469" y="1383.0342">AI Ethics Committee</text><rect fill="#E2E2F0" height="30.2969" rx="2.5" ry="2.5" style="stroke:#181818;stroke-width:0.5;" width="105" x="708.5" y="42.2969"/><text fill="#000000" font-family="sans-serif" font-size="14" lengthAdjust="spacing" textLength="91" x="715.5" y="62.292">AI-IRB Liaison</text><rect fill="#E2E2F0" height="30.2969" rx="2.5" ry="2.5" style="stroke:#181818;stroke-width:0.5;" width="105" x="708.5" y="1363.0391"/><text fill="#000000" font-family="sans-serif" font-size="14" lengthAdjust="spacing" textLength="91" x="715.5" y="1383.0342">AI-IRB Liaison</text><rect fill="#E2E2F0" height="30.2969" rx="2.5" ry="2.5" style="stroke:#181818;stroke-width:0.5;" width="169" x="843.5" y="42.2969"/><text fill="#000000" font-family="sans-serif" font-size="14" lengthAdjust="spacing" textLength="155" x="850.5" y="62.292">Data Protection Officer</text><rect fill="#E2E2F0" height="30.2969" rx="2.5" ry="2.5" style="stroke:#181818;stroke-width:0.5;" width="169" x="843.5" y="1363.0391"/><text fill="#000000" font-family="sans-serif" font-size="14" lengthAdjust="spacing" textLength="155" x="850.5" y="1383.0342">Data Protection Officer</text><rect fill="#E2E2F0" height="30.2969" rx="2.5" ry="2.5" style="stroke:#181818;stroke-width:0.5;" width="151" x="1042.5" y="42.2969"/><text fill="#000000" font-family="sans-serif" font-size="14" lengthAdjust="spacing" textLength="137" x="1049.5" y="62.292">Legal &amp; Compliance</text><rect fill="#E2E2F0" height="30.2969" rx="2.5" ry="2.5" style="stroke:#181818;stroke-width:0.5;" width="151" x="1042.5" y="1363.0391"/><text fill="#000000" font-family="sans-serif" font-size="14" lengthAdjust="spacing" textLength="137" x="1049.5" y="1383.0342">Legal &amp; Compliance</text><rect fill="#E2E2F0" height="30.2969" rx="2.5" ry="2.5" style="stroke:#181818;stroke-width:0.5;" width="133" x="1223.5" y="42.2969"/><text fill="#000000" font-family="sans-serif" font-size="14" lengthAdjust="spacing" textLength="119" x="1230.5" y="62.292">Operations Team</text><rect fill="#E2E2F0" height="30.2969" rx="2.5" ry="2.5" style="stroke:#181818;stroke-width:0.5;" width="133" x="1223.5" y="1363.0391"/><text fill="#000000" font-family="sans-serif" font-size="14" lengthAdjust="spacing" textLength="119" x="1230.5" y="1383.0342">Operations Team</text><rect fill="#E2E2F0" height="30.2969" rx="2.5" ry="2.5" style="stroke:#181818;stroke-width:0.5;" width="137" x="1424.5" y="42.2969"/><text fill="#000000" font-family="sans-serif" font-size="14" lengthAdjust="spacing" textLength="123" x="1431.5" y="62.292">Quality Assurance</text><rect fill="#E2E2F0" height="30.2969" rx="2.5" ry="2.5" style="stroke:#181818;stroke-width:0.5;" width="137" x="1424.5" y="1363.0391"/><text fill="#000000" font-family="sans-serif" font-size="14" lengthAdjust="spacing" textLength="123" x="1431.5" y="1383.0342">Quality Assurance</text><rect fill="#E2E2F0" height="30.2969" rx="2.5" ry="2.5" style="stroke:#181818;stroke-width:0.5;" width="124" x="1614" y="42.2969"/><text fill="#000000" font-family="sans-serif" font-size="14" lengthAdjust="spacing" textLength="110" x="1621" y="62.292">Project Sponsor</text><rect fill="#E2E2F0" height="30.2969" rx="2.5" ry="2.5" style="stroke:#181818;stroke-width:0.5;" width="124" x="1614" y="1363.0391"/><text fill="#000000" font-family="sans-serif" font-size="14" lengthAdjust="spacing" textLength="110" x="1621" y="1383.0342">Project Sponsor</text><polygon fill="#181818" points="526,115.8594,536,119.8594,526,123.8594,530,119.8594" style="stroke:#181818;stroke-width:1.0;"/><line style="stroke:#181818;stroke-width:1.0;" x1="96.5" x2="532" y1="119.8594" y2="119.8594"/><text fill="#000000" font-family="sans-serif" font-size="13" lengthAdjust="spacing" textLength="146" x="103.5" y="99.6606">Notify of new AI project</text><text fill="#000000" font-family="sans-serif" font-size="13" lengthAdjust="spacing" textLength="139" x="103.5" y="114.7935">Initiate risk evaluation</text><polygon fill="#181818" points="294,160.125,284,164.125,294,168.125,290,164.125" style="stroke:#181818;stroke-width:1.0;"/><line style="stroke:#181818;stroke-width:1.0;" x1="288" x2="537" y1="164.125" y2="164.125"/><text fill="#000000" font-family="sans-serif" font-size="13" lengthAdjust="spacing" textLength="230" x="300" y="143.9263">Request technical docs, user stories</text><text fill="#000000" font-family="sans-serif" font-size="13" lengthAdjust="spacing" textLength="192" x="300" y="159.0591">and potential ethical concerns</text><polygon fill="#181818" points="526,204.3906,536,208.3906,526,212.3906,530,208.3906" style="stroke:#181818;stroke-width:1.0;"/><line style="stroke:#181818;stroke-width:1.0;" x1="283" x2="532" y1="208.3906" y2="208.3906"/><text fill="#000000" font-family="sans-serif" font-size="13" lengthAdjust="spacing" textLength="138" x="290" y="188.1919">Provide design specs,</text><text fill="#000000" font-family="sans-serif" font-size="13" lengthAdjust="spacing" textLength="231" x="290" y="203.3247">bias sources, and data-flow diagram</text><polygon fill="#181818" points="916,233.5234,926,237.5234,916,241.5234,920,237.5234" style="stroke:#181818;stroke-width:1.0;"/><line style="stroke:#181818;stroke-width:1.0;" x1="538" x2="922" y1="237.5234" y2="237.5234"/><text fill="#000000" font-family="sans-serif" font-size="13" lengthAdjust="spacing" textLength="198" x="545" y="232.4575">Forward docs for privacy review</text><polygon fill="#181818" points="549,277.7891,539,281.7891,549,285.7891,545,281.7891" style="stroke:#181818;stroke-width:1.0;"/><line style="stroke:#181818;stroke-width:1.0;" x1="543" x2="927" y1="281.7891" y2="281.7891"/><text fill="#000000" font-family="sans-serif" font-size="13" lengthAdjust="spacing" textLength="130" x="555" y="261.5903">Evaluate privacy risk</text><text fill="#000000" font-family="sans-serif" font-size="13" lengthAdjust="spacing" textLength="135" x="555" y="276.7231">(impact, compliance)</text><polygon fill="#181818" points="749,322.0547,759,326.0547,749,330.0547,753,326.0547" style="stroke:#181818;stroke-width:1.0;"/><line style="stroke:#181818;stroke-width:1.0;" x1="538" x2="755" y1="326.0547" y2="326.0547"/><text fill="#000000" font-family="sans-serif" font-size="13" lengthAdjust="spacing" textLength="143" x="545" y="305.856">If external IRB needed,</text><text fill="#000000" font-family="sans-serif" font-size="13" lengthAdjust="spacing" textLength="132" x="545" y="320.9888">initiate formal review</text><path d="M466,339.0547 L466,364.0547 L832,364.0547 L832,349.0547 L822,339.0547 L466,339.0547 " fill="#FEFFDD" style="stroke:#181818;stroke-width:0.5;"/><path d="M822,339.0547 L822,349.0547 L832,349.0547 L822,339.0547 " fill="#FEFFDD" style="stroke:#181818;stroke-width:0.5;"/><text fill="#000000" font-family="sans-serif" font-size="13" lengthAdjust="spacing" textLength="266" x="511.75" y="356.1216">Potential external or specialized IRB steps</text><polygon fill="#181818" points="549,401.4531,539,405.4531,549,409.4531,545,405.4531" style="stroke:#181818;stroke-width:1.0;"/><line style="stroke:#181818;stroke-width:1.0;" x1="543" x2="760" y1="405.4531" y2="405.4531"/><text fill="#000000" font-family="sans-serif" font-size="13" lengthAdjust="spacing" textLength="113" x="555" y="385.2544">Provide additional</text><text fill="#000000" font-family="sans-serif" font-size="13" lengthAdjust="spacing" textLength="178" x="555" y="400.3872">requirements or constraints</text><line style="stroke:#181818;stroke-width:1.0;" x1="538" x2="580" y1="449.7188" y2="449.7188"/><line style="stroke:#181818;stroke-width:1.0;" x1="580" x2="580" y1="449.7188" y2="462.7188"/><line style="stroke:#181818;stroke-width:1.0;" x1="539" x2="580" y1="462.7188" y2="462.7188"/><polygon fill="#181818" points="549,458.7188,539,462.7188,549,466.7188,545,462.7188" style="stroke:#181818;stroke-width:1.0;"/><text fill="#000000" font-family="sans-serif" font-size="13" lengthAdjust="spacing" textLength="124" x="545" y="429.52">Identify and classify</text><text fill="#000000" font-family="sans-serif" font-size="13" lengthAdjust="spacing" textLength="116" x="545" y="444.6528">ethical risk factors</text><polygon fill="#181818" points="1106,502.9844,1116,506.9844,1106,510.9844,1110,506.9844" style="stroke:#181818;stroke-width:1.0;"/><line style="stroke:#181818;stroke-width:1.0;" x1="538" x2="1112" y1="506.9844" y2="506.9844"/><text fill="#000000" font-family="sans-serif" font-size="13" lengthAdjust="spacing" textLength="146" x="545" y="486.7856">Review legal/regulatory</text><text fill="#000000" font-family="sans-serif" font-size="13" lengthAdjust="spacing" textLength="76" x="545" y="501.9185">implications</text><polygon fill="#181818" points="549,532.1172,539,536.1172,549,540.1172,545,536.1172" style="stroke:#181818;stroke-width:1.0;"/><line style="stroke:#181818;stroke-width:1.0;" x1="543" x2="1117" y1="536.1172" y2="536.1172"/><text fill="#000000" font-family="sans-serif" font-size="13" lengthAdjust="spacing" textLength="169" x="555" y="531.0513">Provide compliance advice</text><line style="stroke:#181818;stroke-width:1.0;" x1="538" x2="580" y1="580.3828" y2="580.3828"/><line style="stroke:#181818;stroke-width:1.0;" x1="580" x2="580" y1="580.3828" y2="593.3828"/><line style="stroke:#181818;stroke-width:1.0;" x1="539" x2="580" y1="593.3828" y2="593.3828"/><polygon fill="#181818" points="549,589.3828,539,593.3828,549,597.3828,545,593.3828" style="stroke:#181818;stroke-width:1.0;"/><text fill="#000000" font-family="sans-serif" font-size="13" lengthAdjust="spacing" textLength="149" x="545" y="560.1841">Develop Mitigation Plan</text><text fill="#000000" font-family="sans-serif" font-size="13" lengthAdjust="spacing" textLength="209" x="545" y="575.3169">(technical &amp; procedural controls)</text><polygon fill="#181818" points="294,633.6484,284,637.6484,294,641.6484,290,637.6484" style="stroke:#181818;stroke-width:1.0;"/><line style="stroke:#181818;stroke-width:1.0;" x1="288" x2="537" y1="637.6484" y2="637.6484"/><text fill="#000000" font-family="sans-serif" font-size="13" lengthAdjust="spacing" textLength="127" x="300" y="617.4497">Consult feasibility of</text><text fill="#000000" font-family="sans-serif" font-size="13" lengthAdjust="spacing" textLength="121" x="300" y="632.5825">proposed solutions</text><polygon fill="#181818" points="526,677.9141,536,681.9141,526,685.9141,530,681.9141" style="stroke:#181818;stroke-width:1.0;"/><line style="stroke:#181818;stroke-width:1.0;" x1="283" x2="532" y1="681.9141" y2="681.9141"/><text fill="#000000" font-family="sans-serif" font-size="13" lengthAdjust="spacing" textLength="117" x="290" y="661.7153">Confirm feasibility,</text><text fill="#000000" font-family="sans-serif" font-size="13" lengthAdjust="spacing" textLength="158" x="290" y="676.8481">resource needs, timeline</text><polygon fill="#181818" points="107.5,722.1797,97.5,726.1797,107.5,730.1797,103.5,726.1797" style="stroke:#181818;stroke-width:1.0;"/><line style="stroke:#181818;stroke-width:1.0;" x1="101.5" x2="537" y1="726.1797" y2="726.1797"/><text fill="#000000" font-family="sans-serif" font-size="13" lengthAdjust="spacing" textLength="146" x="113.5" y="705.981">Present Mitigation Plan</text><text fill="#000000" font-family="sans-serif" font-size="13" lengthAdjust="spacing" textLength="142" x="113.5" y="721.1138">for resource allocation</text><polygon fill="#181818" points="1278,766.4453,1288,770.4453,1278,774.4453,1282,770.4453" style="stroke:#181818;stroke-width:1.0;"/><line style="stroke:#181818;stroke-width:1.0;" x1="96.5" x2="1284" y1="770.4453" y2="770.4453"/><text fill="#000000" font-family="sans-serif" font-size="13" lengthAdjust="spacing" textLength="201" x="103.5" y="750.2466">Ensure budget/time is assigned</text><text fill="#000000" font-family="sans-serif" font-size="13" lengthAdjust="spacing" textLength="123" x="103.5" y="765.3794">for mitigation tasks</text><polygon fill="#181818" points="107.5,795.5781,97.5,799.5781,107.5,803.5781,103.5,799.5781" style="stroke:#181818;stroke-width:1.0;"/><line style="stroke:#181818;stroke-width:1.0;" x1="101.5" x2="1289" y1="799.5781" y2="799.5781"/><text fill="#000000" font-family="sans-serif" font-size="13" lengthAdjust="spacing" textLength="192" x="113.5" y="794.5122">Confirm operational readiness</text><polygon fill="#181818" points="1106,839.8438,1116,843.8438,1106,847.8438,1110,843.8438" style="stroke:#181818;stroke-width:1.0;"/><line style="stroke:#181818;stroke-width:1.0;" x1="538" x2="1112" y1="843.8438" y2="843.8438"/><text fill="#000000" font-family="sans-serif" font-size="13" lengthAdjust="spacing" textLength="91" x="545" y="823.645">Final check for</text><text fill="#000000" font-family="sans-serif" font-size="13" lengthAdjust="spacing" textLength="142" x="545" y="838.7778">regulatory compliance</text><polygon fill="#181818" points="549,868.9766,539,872.9766,549,876.9766,545,872.9766" style="stroke:#181818;stroke-width:1.0;"/><line style="stroke:#181818;stroke-width:1.0;" x1="543" x2="1117" y1="872.9766" y2="872.9766"/><text fill="#000000" font-family="sans-serif" font-size="13" lengthAdjust="spacing" textLength="210" x="555" y="867.9106">Approve or recommend changes</text><path d="M429,887.9766 L493,887.9766 L493,895.1094 L483,905.1094 L429,905.1094 L429,887.9766 " fill="#EEEEEE" style="stroke:#000000;stroke-width:1.5;"/><rect fill="none" height="125.3359" style="stroke:#000000;stroke-width:1.5;" width="1329" x="429" y="887.9766"/><text fill="#000000" font-family="sans-serif" font-size="13" font-weight="bold" lengthAdjust="spacing" textLength="19" x="444" y="901.0435">alt</text><text fill="#000000" font-family="sans-serif" font-size="11" font-weight="bold" lengthAdjust="spacing" textLength="69" x="508" y="900.187">[High Risk]</text><polygon fill="#181818" points="1664,922.2422,1674,926.2422,1664,930.2422,1668,926.2422" style="stroke:#181818;stroke-width:1.0;"/><line style="stroke:#181818;stroke-width:1.0;" x1="538" x2="1670" y1="926.2422" y2="926.2422"/><text fill="#000000" font-family="sans-serif" font-size="13" lengthAdjust="spacing" textLength="256" x="545" y="921.1763">Request sign-off on high-risk mitigations</text><polygon fill="#181818" points="549,951.375,539,955.375,549,959.375,545,955.375" style="stroke:#181818;stroke-width:1.0;"/><line style="stroke:#181818;stroke-width:1.0;" x1="543" x2="1675" y1="955.375" y2="955.375"/><text fill="#000000" font-family="sans-serif" font-size="13" lengthAdjust="spacing" textLength="103" x="555" y="950.3091">Sign-off granted</text><line style="stroke:#000000;stroke-width:1.0;stroke-dasharray:2.0,2.0;" x1="429" x2="1758" y1="964.375" y2="964.375"/><text fill="#000000" font-family="sans-serif" font-size="11" font-weight="bold" lengthAdjust="spacing" textLength="81" x="434" y="974.5854">[Acceptable]</text><path d="M439,983.1797 L439,1008.1797 L636,1008.1797 L636,993.1797 L626,983.1797 L439,983.1797 " fill="#FEFFDD" style="stroke:#181818;stroke-width:0.5;"/><path d="M626,983.1797 L626,993.1797 L636,993.1797 L626,983.1797 " fill="#FEFFDD" style="stroke:#181818;stroke-width:0.5;"/><text fill="#000000" font-family="sans-serif" font-size="13" lengthAdjust="spacing" textLength="176" x="445" y="1000.2466">No sponsor sign-off needed</text><polygon fill="#181818" points="1481,1037.4453,1491,1041.4453,1481,1045.4453,1485,1041.4453" style="stroke:#181818;stroke-width:1.0;"/><line style="stroke:#181818;stroke-width:1.0;" x1="283" x2="1487" y1="1041.4453" y2="1041.4453"/><text fill="#000000" font-family="sans-serif" font-size="13" lengthAdjust="spacing" textLength="220" x="290" y="1036.3794">Implement &amp; test mitigation steps</text><line style="stroke:#181818;stroke-width:1.0;" x1="1493" x2="1535" y1="1085.7109" y2="1085.7109"/><line style="stroke:#181818;stroke-width:1.0;" x1="1535" x2="1535" y1="1085.7109" y2="1098.7109"/><line style="stroke:#181818;stroke-width:1.0;" x1="1494" x2="1535" y1="1098.7109" y2="1098.7109"/><polygon fill="#181818" points="1504,1094.7109,1494,1098.7109,1504,1102.7109,1500,1098.7109" style="stroke:#181818;stroke-width:1.0;"/><text fill="#000000" font-family="sans-serif" font-size="13" lengthAdjust="spacing" textLength="169" x="1500" y="1065.5122">Verify mitigation as part of</text><text fill="#000000" font-family="sans-serif" font-size="13" lengthAdjust="spacing" textLength="118" x="1500" y="1080.645">acceptance gating</text><line style="stroke:#181818;stroke-width:1.0;" x1="1290" x2="1332" y1="1142.9766" y2="1142.9766"/><line style="stroke:#181818;stroke-width:1.0;" x1="1332" x2="1332" y1="1142.9766" y2="1155.9766"/><line style="stroke:#181818;stroke-width:1.0;" x1="1291" x2="1332" y1="1155.9766" y2="1155.9766"/><polygon fill="#181818" points="1301,1151.9766,1291,1155.9766,1301,1159.9766,1297,1155.9766" style="stroke:#181818;stroke-width:1.0;"/><text fill="#000000" font-family="sans-serif" font-size="13" lengthAdjust="spacing" textLength="157" x="1297" y="1122.7778">Deploy final solution with</text><text fill="#000000" font-family="sans-serif" font-size="13" lengthAdjust="spacing" textLength="117" x="1297" y="1137.9106">ethical safeguards</text><polygon fill="#181818" points="1481,1196.2422,1491,1200.2422,1481,1204.2422,1485,1200.2422" style="stroke:#181818;stroke-width:1.0;"/><line style="stroke:#181818;stroke-width:1.0;" x1="1290" x2="1487" y1="1200.2422" y2="1200.2422"/><text fill="#000000" font-family="sans-serif" font-size="13" lengthAdjust="spacing" textLength="179" x="1297" y="1180.0435">Provide risk monitoring data</text><text fill="#000000" font-family="sans-serif" font-size="13" lengthAdjust="spacing" textLength="109" x="1297" y="1195.1763">post-deployment</text><polygon fill="#181818" points="549,1240.5078,539,1244.5078,549,1248.5078,545,1244.5078" style="stroke:#181818;stroke-width:1.0;"/><line style="stroke:#181818;stroke-width:1.0;" x1="543" x2="1492" y1="1244.5078" y2="1244.5078"/><text fill="#000000" font-family="sans-serif" font-size="13" lengthAdjust="spacing" textLength="101" x="555" y="1224.3091">Evaluate new or</text><text fill="#000000" font-family="sans-serif" font-size="13" lengthAdjust="spacing" textLength="95" x="555" y="1239.4419">escalated risks</text><polygon fill="#181818" points="749,1284.7734,759,1288.7734,749,1292.7734,753,1288.7734" style="stroke:#181818;stroke-width:1.0;"/><line style="stroke:#181818;stroke-width:1.0;" x1="538" x2="755" y1="1288.7734" y2="1288.7734"/><text fill="#000000" font-family="sans-serif" font-size="13" lengthAdjust="spacing" textLength="120" x="545" y="1268.5747">Escalate if new risk</text><text fill="#000000" font-family="sans-serif" font-size="13" lengthAdjust="spacing" textLength="117" x="545" y="1283.7075">exceeds threshold</text><line style="stroke:#181818;stroke-width:1.0;" x1="538" x2="580" y1="1333.0391" y2="1333.0391"/><line style="stroke:#181818;stroke-width:1.0;" x1="580" x2="580" y1="1333.0391" y2="1346.0391"/><line style="stroke:#181818;stroke-width:1.0;" x1="539" x2="580" y1="1346.0391" y2="1346.0391"/><polygon fill="#181818" points="549,1342.0391,539,1346.0391,549,1350.0391,545,1346.0391" style="stroke:#181818;stroke-width:1.0;"/><text fill="#000000" font-family="sans-serif" font-size="13" lengthAdjust="spacing" textLength="104" x="545" y="1312.8403">Update or refine</text><text fill="#000000" font-family="sans-serif" font-size="13" lengthAdjust="spacing" textLength="164" x="545" y="1327.9731">Mitigation Plan as needed</text><!--MD5=[c901f590e54e8c4bc8fede1603be46f2]
@startuml
title SOP-1053-01-AI: Ethical Risk Assessment & Mitigation

skinparam participantMargin 20
skinparam participantPadding 10
skinparam boxPadding 10

participant "Product Management" as PM
participant "Development Team" as DEV
participant "AI Ethics Committee" as AIETHICS
participant "AI-IRB Liaison" as AIIRB
participant "Data Protection Officer" as DPO
participant "Legal & Compliance" as LEGAL
participant "Operations Team" as OPS
participant "Quality Assurance" as QA
participant "Project Sponsor" as SPONSOR

PM -> AIETHICS: Notify of new AI project\nInitiate risk evaluation
AIETHICS -> DEV: Request technical docs, user stories\nand potential ethical concerns
DEV -> AIETHICS: Provide design specs,\nbias sources, and data-flow diagram
AIETHICS -> DPO: Forward docs for privacy review
DPO -> AIETHICS: Evaluate privacy risk\n(impact, compliance)
AIETHICS -> AIIRB: If external IRB needed,\ninitiate formal review
note over AIETHICS,AIIRB: Potential external or specialized IRB steps
AIIRB -> AIETHICS: Provide additional\nrequirements or constraints

AIETHICS -> AIETHICS: Identify and classify\nethical risk factors
AIETHICS -> LEGAL: Review legal/regulatory\nimplications
LEGAL -> AIETHICS: Provide compliance advice
AIETHICS -> AIETHICS: Develop Mitigation Plan\n(technical & procedural controls)
AIETHICS -> DEV: Consult feasibility of\nproposed solutions
DEV -> AIETHICS: Confirm feasibility,\nresource needs, timeline

AIETHICS -> PM: Present Mitigation Plan\nfor resource allocation
PM -> OPS: Ensure budget/time is assigned\nfor mitigation tasks
OPS -> PM: Confirm operational readiness

AIETHICS -> LEGAL: Final check for\nregulatory compliance
LEGAL -> AIETHICS: Approve or recommend changes

alt High Risk
    AIETHICS -> SPONSOR: Request sign-off on high-risk mitigations
    SPONSOR -> AIETHICS: Sign-off granted
else Acceptable
    note over AIETHICS: No sponsor sign-off needed
end

DEV -> QA: Implement & test mitigation steps
QA -> QA: Verify mitigation as part of\nacceptance gating
OPS -> OPS: Deploy final solution with\nethical safeguards

OPS -> QA: Provide risk monitoring data\npost-deployment
QA -> AIETHICS: Evaluate new or\nescalated risks
AIETHICS -> AIIRB: Escalate if new risk\nexceeds threshold
AIETHICS -> AIETHICS: Update or refine\nMitigation Plan as needed
@enduml

PlantUML version 1.2022.7(Mon Aug 22 17:01:30 UTC 2022)
(GPL source distribution)
Java Runtime: OpenJDK Runtime Environment
JVM: OpenJDK 64-Bit Server VM
Default Encoding: UTF-8
Language: en
Country: null
--></g></svg>