<?xml version="1.0" encoding="UTF-8" standalone="no"?><svg xmlns="http://www.w3.org/2000/svg" xmlns:xlink="http://www.w3.org/1999/xlink" contentStyleType="text/css" height="1194px" preserveAspectRatio="none" style="width:1811px;height:1194px;background:#FFFFFF;" version="1.1" viewBox="0 0 1811 1194" width="1811px" zoomAndPan="magnify"><defs/><g><rect fill="none" height="161.4688" style="stroke:#000000;stroke-width:1.5;" width="488.5" x="284.5" y="254.0938"/><rect fill="none" height="161.4688" style="stroke:#000000;stroke-width:1.5;" width="1265" x="539" y="646.4922"/><rect fill="none" height="174.4688" style="stroke:#000000;stroke-width:1.5;" width="1233" x="10" y="880.2266"/><line style="stroke:#181818;stroke-width:0.5;stroke-dasharray:5.0,5.0;" x1="90" x2="90" y1="36.2969" y2="1159.0938"/><line style="stroke:#181818;stroke-width:0.5;stroke-dasharray:5.0,5.0;" x1="346.5" x2="346.5" y1="36.2969" y2="1159.0938"/><line style="stroke:#181818;stroke-width:0.5;stroke-dasharray:5.0,5.0;" x1="623" x2="623" y1="36.2969" y2="1159.0938"/><line style="stroke:#181818;stroke-width:0.5;stroke-dasharray:5.0,5.0;" x1="782" x2="782" y1="36.2969" y2="1159.0938"/><line style="stroke:#181818;stroke-width:0.5;stroke-dasharray:5.0,5.0;" x1="961.5" x2="961.5" y1="36.2969" y2="1159.0938"/><line style="stroke:#181818;stroke-width:0.5;stroke-dasharray:5.0,5.0;" x1="1188" x2="1188" y1="36.2969" y2="1159.0938"/><line style="stroke:#181818;stroke-width:0.5;stroke-dasharray:5.0,5.0;" x1="1448.5" x2="1448.5" y1="36.2969" y2="1159.0938"/><line style="stroke:#181818;stroke-width:0.5;stroke-dasharray:5.0,5.0;" x1="1609.5" x2="1609.5" y1="36.2969" y2="1159.0938"/><rect fill="#E2E2F0" height="30.2969" rx="2.5" ry="2.5" style="stroke:#181818;stroke-width:0.5;" width="140" x="20" y="5"/><text fill="#000000" font-family="sans-serif" font-size="14" lengthAdjust="spacing" textLength="126" x="27" y="24.9951">AI Project Sponsor</text><rect fill="#E2E2F0" height="30.2969" rx="2.5" ry="2.5" style="stroke:#181818;stroke-width:0.5;" width="140" x="20" y="1158.0938"/><text fill="#000000" font-family="sans-serif" font-size="14" lengthAdjust="spacing" textLength="126" x="27" y="1178.0889">AI Project Sponsor</text><rect fill="#E2E2F0" height="30.2969" rx="2.5" ry="2.5" style="stroke:#181818;stroke-width:0.5;" width="105" x="294.5" y="5"/><text fill="#000000" font-family="sans-serif" font-size="14" lengthAdjust="spacing" textLength="91" x="301.5" y="24.9951">AI-IRB Liaison</text><rect fill="#E2E2F0" height="30.2969" rx="2.5" ry="2.5" style="stroke:#181818;stroke-width:0.5;" width="105" x="294.5" y="1158.0938"/><text fill="#000000" font-family="sans-serif" font-size="14" lengthAdjust="spacing" textLength="91" x="301.5" y="1178.0889">AI-IRB Liaison</text><rect fill="#E2E2F0" height="30.2969" rx="2.5" ry="2.5" style="stroke:#181818;stroke-width:0.5;" width="148" x="549" y="5"/><text fill="#000000" font-family="sans-serif" font-size="14" lengthAdjust="spacing" textLength="134" x="556" y="24.9951">Data Science Team</text><rect fill="#E2E2F0" height="30.2969" rx="2.5" ry="2.5" style="stroke:#181818;stroke-width:0.5;" width="148" x="549" y="1158.0938"/><text fill="#000000" font-family="sans-serif" font-size="14" lengthAdjust="spacing" textLength="134" x="556" y="1178.0889">Data Science Team</text><rect fill="#E2E2F0" height="30.2969" rx="2.5" ry="2.5" style="stroke:#181818;stroke-width:0.5;" width="150" x="707" y="5"/><text fill="#000000" font-family="sans-serif" font-size="14" lengthAdjust="spacing" textLength="136" x="714" y="24.9951">Development Team</text><rect fill="#E2E2F0" height="30.2969" rx="2.5" ry="2.5" style="stroke:#181818;stroke-width:0.5;" width="150" x="707" y="1158.0938"/><text fill="#000000" font-family="sans-serif" font-size="14" lengthAdjust="spacing" textLength="136" x="714" y="1178.0889">Development Team</text><rect fill="#E2E2F0" height="30.2969" rx="2.5" ry="2.5" style="stroke:#181818;stroke-width:0.5;" width="137" x="893.5" y="5"/><text fill="#000000" font-family="sans-serif" font-size="14" lengthAdjust="spacing" textLength="123" x="900.5" y="24.9951">Quality Assurance</text><rect fill="#E2E2F0" height="30.2969" rx="2.5" ry="2.5" style="stroke:#181818;stroke-width:0.5;" width="137" x="893.5" y="1158.0938"/><text fill="#000000" font-family="sans-serif" font-size="14" lengthAdjust="spacing" textLength="123" x="900.5" y="1178.0889">Quality Assurance</text><rect fill="#E2E2F0" height="30.2969" rx="2.5" ry="2.5" style="stroke:#181818;stroke-width:0.5;" width="90" x="1143" y="5"/><text fill="#000000" font-family="sans-serif" font-size="14" lengthAdjust="spacing" textLength="76" x="1150" y="24.9951">Operations</text><rect fill="#E2E2F0" height="30.2969" rx="2.5" ry="2.5" style="stroke:#181818;stroke-width:0.5;" width="90" x="1143" y="1158.0938"/><text fill="#000000" font-family="sans-serif" font-size="14" lengthAdjust="spacing" textLength="76" x="1150" y="1178.0889">Operations</text><rect fill="#E2E2F0" height="30.2969" rx="2.5" ry="2.5" style="stroke:#181818;stroke-width:0.5;" width="163" x="1367.5" y="5"/><text fill="#000000" font-family="sans-serif" font-size="14" lengthAdjust="spacing" textLength="149" x="1374.5" y="24.9951">Product Management</text><rect fill="#E2E2F0" height="30.2969" rx="2.5" ry="2.5" style="stroke:#181818;stroke-width:0.5;" width="163" x="1367.5" y="1158.0938"/><text fill="#000000" font-family="sans-serif" font-size="14" lengthAdjust="spacing" textLength="149" x="1374.5" y="1178.0889">Product Management</text><rect fill="#E2E2F0" height="30.2969" rx="2.5" ry="2.5" style="stroke:#181818;stroke-width:0.5;" width="139" x="1540.5" y="5"/><text fill="#000000" font-family="sans-serif" font-size="14" lengthAdjust="spacing" textLength="125" x="1547.5" y="24.9951">Technical Support</text><rect fill="#E2E2F0" height="30.2969" rx="2.5" ry="2.5" style="stroke:#181818;stroke-width:0.5;" width="139" x="1540.5" y="1158.0938"/><text fill="#000000" font-family="sans-serif" font-size="14" lengthAdjust="spacing" textLength="125" x="1547.5" y="1178.0889">Technical Support</text><polygon fill="#000000" points="634,63.4297,624,67.4297,634,71.4297,630,67.4297" style="stroke:#000000;stroke-width:1.0;"/><line style="stroke:#000000;stroke-width:1.0;" x1="628" x2="1448" y1="67.4297" y2="67.4297"/><text fill="#000000" font-family="sans-serif" font-size="13" lengthAdjust="spacing" textLength="256" x="640" y="62.3638">Define model objectives and constraints</text><polygon fill="#000000" points="358,92.5625,348,96.5625,358,100.5625,354,96.5625" style="stroke:#000000;stroke-width:1.0;"/><line style="stroke:#000000;stroke-width:1.0;" x1="352" x2="622" y1="96.5625" y2="96.5625"/><text fill="#000000" font-family="sans-serif" font-size="13" lengthAdjust="spacing" textLength="232" x="364" y="91.4966">Request AI-IRB compliance guidance</text><line style="stroke:#000000;stroke-width:1.0;" x1="347" x2="389" y1="125.6953" y2="125.6953"/><line style="stroke:#000000;stroke-width:1.0;" x1="389" x2="389" y1="125.6953" y2="138.6953"/><line style="stroke:#000000;stroke-width:1.0;" x1="348" x2="389" y1="138.6953" y2="138.6953"/><polygon fill="#000000" points="358,134.6953,348,138.6953,358,142.6953,354,138.6953" style="stroke:#000000;stroke-width:1.0;"/><text fill="#000000" font-family="sans-serif" font-size="13" lengthAdjust="spacing" textLength="197" x="354" y="120.6294">Prepare IRB submission packet</text><polygon fill="#000000" points="101,163.8281,91,167.8281,101,171.8281,97,167.8281" style="stroke:#000000;stroke-width:1.0;"/><line style="stroke:#000000;stroke-width:1.0;" x1="95" x2="346" y1="167.8281" y2="167.8281"/><text fill="#000000" font-family="sans-serif" font-size="13" lengthAdjust="spacing" textLength="233" x="107" y="162.7622">Present compliance needs &amp; budget</text><line style="stroke:#000000;stroke-width:1.0;" x1="90" x2="132" y1="196.9609" y2="196.9609"/><line style="stroke:#000000;stroke-width:1.0;" x1="132" x2="132" y1="196.9609" y2="209.9609"/><line style="stroke:#000000;stroke-width:1.0;" x1="91" x2="132" y1="209.9609" y2="209.9609"/><polygon fill="#000000" points="101,205.9609,91,209.9609,101,213.9609,97,209.9609" style="stroke:#000000;stroke-width:1.0;"/><text fill="#000000" font-family="sans-serif" font-size="13" lengthAdjust="spacing" textLength="209" x="97" y="191.895">Approve resources and schedule</text><polygon fill="#000000" points="358,235.0938,348,239.0938,358,243.0938,354,239.0938" style="stroke:#000000;stroke-width:1.0;"/><line style="stroke:#000000;stroke-width:1.0;" x1="352" x2="622" y1="239.0938" y2="239.0938"/><text fill="#000000" font-family="sans-serif" font-size="13" lengthAdjust="spacing" textLength="168" x="364" y="234.0278">Submit design documents</text><path d="M284.5,254.0938 L348.5,254.0938 L348.5,261.2266 L338.5,271.2266 L284.5,271.2266 L284.5,254.0938 " fill="#EEEEEE" style="stroke:#000000;stroke-width:1.5;"/><rect fill="none" height="161.4688" style="stroke:#000000;stroke-width:1.5;" width="488.5" x="284.5" y="254.0938"/><text fill="#000000" font-family="sans-serif" font-size="13" font-weight="bold" lengthAdjust="spacing" textLength="19" x="299.5" y="267.1606">alt</text><text fill="#000000" font-family="sans-serif" font-size="11" font-weight="bold" lengthAdjust="spacing" textLength="204" x="363.5" y="266.3042">[AI-IRB major changes required]</text><polygon fill="#000000" points="611,288.3594,621,292.3594,611,296.3594,615,292.3594" style="stroke:#000000;stroke-width:1.0;"/><line style="stroke:#000000;stroke-width:1.0;" x1="347" x2="617" y1="292.3594" y2="292.3594"/><text fill="#000000" font-family="sans-serif" font-size="13" lengthAdjust="spacing" textLength="141" x="354" y="287.2935">Request modifications</text><line style="stroke:#000000;stroke-width:1.0;" x1="623" x2="665" y1="321.4922" y2="321.4922"/><line style="stroke:#000000;stroke-width:1.0;" x1="665" x2="665" y1="321.4922" y2="334.4922"/><line style="stroke:#000000;stroke-width:1.0;" x1="624" x2="665" y1="334.4922" y2="334.4922"/><polygon fill="#000000" points="634,330.4922,624,334.4922,634,338.4922,630,334.4922" style="stroke:#000000;stroke-width:1.0;"/><text fill="#000000" font-family="sans-serif" font-size="13" lengthAdjust="spacing" textLength="131" x="630" y="316.4263">Revise model design</text><polygon fill="#000000" points="358,359.625,348,363.625,358,367.625,354,363.625" style="stroke:#000000;stroke-width:1.0;"/><line style="stroke:#000000;stroke-width:1.0;" x1="352" x2="622" y1="363.625" y2="363.625"/><text fill="#000000" font-family="sans-serif" font-size="13" lengthAdjust="spacing" textLength="163" x="364" y="358.5591">Resubmit updated design</text><line style="stroke:#000000;stroke-width:1.0;stroke-dasharray:2.0,2.0;" x1="284.5" x2="773" y1="372.625" y2="372.625"/><text fill="#000000" font-family="sans-serif" font-size="11" font-weight="bold" lengthAdjust="spacing" textLength="112" x="289.5" y="382.8354">[AI-IRB approved]</text><polygon fill="#000000" points="611,403.5625,621,407.5625,611,411.5625,615,407.5625" style="stroke:#000000;stroke-width:1.0;"/><line style="stroke:#000000;stroke-width:1.0;" x1="347" x2="617" y1="407.5625" y2="407.5625"/><text fill="#000000" font-family="sans-serif" font-size="13" lengthAdjust="spacing" textLength="133" x="354" y="402.4966">IRB approval granted</text><polygon fill="#000000" points="634,439.6953,624,443.6953,634,447.6953,630,443.6953" style="stroke:#000000;stroke-width:1.0;"/><line style="stroke:#000000;stroke-width:1.0;" x1="628" x2="961" y1="443.6953" y2="443.6953"/><text fill="#000000" font-family="sans-serif" font-size="13" lengthAdjust="spacing" textLength="162" x="640" y="438.6294">Validate model readiness</text><polygon fill="#000000" points="793,468.8281,783,472.8281,793,476.8281,789,472.8281" style="stroke:#000000;stroke-width:1.0;"/><line style="stroke:#000000;stroke-width:1.0;" x1="787" x2="961" y1="472.8281" y2="472.8281"/><text fill="#000000" font-family="sans-serif" font-size="13" lengthAdjust="spacing" textLength="156" x="799" y="467.7622">Validate integration plan</text><polygon fill="#000000" points="1176,497.9609,1186,501.9609,1176,505.9609,1180,501.9609" style="stroke:#000000;stroke-width:1.0;"/><line style="stroke:#000000;stroke-width:1.0;" x1="782" x2="1182" y1="501.9609" y2="501.9609"/><text fill="#000000" font-family="sans-serif" font-size="13" lengthAdjust="spacing" textLength="178" x="789" y="496.895">Confirm environment needs</text><line style="stroke:#000000;stroke-width:1.0;" x1="1188" x2="1230" y1="531.0938" y2="531.0938"/><line style="stroke:#000000;stroke-width:1.0;" x1="1230" x2="1230" y1="531.0938" y2="544.0938"/><line style="stroke:#000000;stroke-width:1.0;" x1="1189" x2="1230" y1="544.0938" y2="544.0938"/><polygon fill="#000000" points="1199,540.0938,1189,544.0938,1199,548.0938,1195,544.0938" style="stroke:#000000;stroke-width:1.0;"/><text fill="#000000" font-family="sans-serif" font-size="13" lengthAdjust="spacing" textLength="247" x="1195" y="526.0278">Provision staging/production resources</text><polygon fill="#000000" points="1176,569.2266,1186,573.2266,1176,577.2266,1180,573.2266" style="stroke:#000000;stroke-width:1.0;"/><line style="stroke:#000000;stroke-width:1.0;" x1="782" x2="1182" y1="573.2266" y2="573.2266"/><text fill="#000000" font-family="sans-serif" font-size="13" lengthAdjust="spacing" textLength="193" x="789" y="568.1606">Deploy AI model to production</text><polygon fill="#000000" points="973,598.3594,963,602.3594,973,606.3594,969,602.3594" style="stroke:#000000;stroke-width:1.0;"/><line style="stroke:#000000;stroke-width:1.0;" x1="967" x2="1187" y1="602.3594" y2="602.3594"/><text fill="#000000" font-family="sans-serif" font-size="13" lengthAdjust="spacing" textLength="202" x="979" y="597.2935">Notify readiness for final checks</text><polygon fill="#000000" points="634,627.4922,624,631.4922,634,635.4922,630,631.4922" style="stroke:#000000;stroke-width:1.0;"/><line style="stroke:#000000;stroke-width:1.0;" x1="628" x2="961" y1="631.4922" y2="631.4922"/><text fill="#000000" font-family="sans-serif" font-size="13" lengthAdjust="spacing" textLength="223" x="640" y="626.4263">Monitor initial performance metrics</text><path d="M539,646.4922 L603,646.4922 L603,653.625 L593,663.625 L539,663.625 L539,646.4922 " fill="#EEEEEE" style="stroke:#000000;stroke-width:1.5;"/><rect fill="none" height="161.4688" style="stroke:#000000;stroke-width:1.5;" width="1265" x="539" y="646.4922"/><text fill="#000000" font-family="sans-serif" font-size="13" font-weight="bold" lengthAdjust="spacing" textLength="19" x="554" y="659.5591">alt</text><text fill="#000000" font-family="sans-serif" font-size="11" font-weight="bold" lengthAdjust="spacing" textLength="220" x="618" y="658.7026">[Model meets acceptance criteria]</text><polygon fill="#000000" points="1598,680.7578,1608,684.7578,1598,688.7578,1602,684.7578" style="stroke:#000000;stroke-width:1.0;"/><line style="stroke:#000000;stroke-width:1.0;" x1="623" x2="1604" y1="684.7578" y2="684.7578"/><text fill="#000000" font-family="sans-serif" font-size="13" lengthAdjust="spacing" textLength="168" x="630" y="679.6919">Provide support guidelines</text><line style="stroke:#000000;stroke-width:1.0;" x1="1610" x2="1652" y1="713.8906" y2="713.8906"/><line style="stroke:#000000;stroke-width:1.0;" x1="1652" x2="1652" y1="713.8906" y2="726.8906"/><line style="stroke:#000000;stroke-width:1.0;" x1="1611" x2="1652" y1="726.8906" y2="726.8906"/><polygon fill="#000000" points="1621,722.8906,1611,726.8906,1621,730.8906,1617,726.8906" style="stroke:#000000;stroke-width:1.0;"/><text fill="#000000" font-family="sans-serif" font-size="13" lengthAdjust="spacing" textLength="175" x="1617" y="708.8247">Prepare helpdesk materials</text><line style="stroke:#000000;stroke-width:1.0;stroke-dasharray:2.0,2.0;" x1="539" x2="1804" y1="735.8906" y2="735.8906"/><text fill="#000000" font-family="sans-serif" font-size="11" font-weight="bold" lengthAdjust="spacing" textLength="229" x="544" y="746.1011">[Model does NOT meet acceptance]</text><polygon fill="#000000" points="770,766.8281,780,770.8281,770,774.8281,774,770.8281" style="stroke:#000000;stroke-width:1.0;"/><line style="stroke:#000000;stroke-width:1.0;" x1="623" x2="776" y1="770.8281" y2="770.8281"/><text fill="#000000" font-family="sans-serif" font-size="13" lengthAdjust="spacing" textLength="124" x="630" y="765.7622">Retrain or fix issues</text><polygon fill="#000000" points="1176,795.9609,1186,799.9609,1176,803.9609,1180,799.9609" style="stroke:#000000;stroke-width:1.0;"/><line style="stroke:#000000;stroke-width:1.0;" x1="782" x2="1182" y1="799.9609" y2="799.9609"/><text fill="#000000" font-family="sans-serif" font-size="13" lengthAdjust="spacing" textLength="144" x="789" y="794.895">Deploy revised version</text><polygon fill="#000000" points="634,832.0938,624,836.0938,634,840.0938,630,836.0938" style="stroke:#000000;stroke-width:1.0;"/><line style="stroke:#000000;stroke-width:1.0;" x1="628" x2="961" y1="836.0938" y2="836.0938"/><text fill="#000000" font-family="sans-serif" font-size="13" lengthAdjust="spacing" textLength="253" x="640" y="831.0278">Track ongoing performance, detect drift</text><polygon fill="#000000" points="358,861.2266,348,865.2266,358,869.2266,354,865.2266" style="stroke:#000000;stroke-width:1.0;"/><line style="stroke:#000000;stroke-width:1.0;" x1="352" x2="622" y1="865.2266" y2="865.2266"/><text fill="#000000" font-family="sans-serif" font-size="13" lengthAdjust="spacing" textLength="252" x="364" y="860.1606">Consult if changes require IRB re-review</text><path d="M10,880.2266 L74,880.2266 L74,887.3594 L64,897.3594 L10,897.3594 L10,880.2266 " fill="#EEEEEE" style="stroke:#000000;stroke-width:1.5;"/><rect fill="none" height="174.4688" style="stroke:#000000;stroke-width:1.5;" width="1233" x="10" y="880.2266"/><text fill="#000000" font-family="sans-serif" font-size="13" font-weight="bold" lengthAdjust="spacing" textLength="19" x="25" y="893.2935">alt</text><text fill="#000000" font-family="sans-serif" font-size="11" font-weight="bold" lengthAdjust="spacing" textLength="256" x="89" y="892.437">[Performance decays beyond threshold]</text><polygon fill="#000000" points="101,914.4922,91,918.4922,101,922.4922,97,918.4922" style="stroke:#000000;stroke-width:1.0;"/><line style="stroke:#000000;stroke-width:1.0;" x1="95" x2="622" y1="918.4922" y2="918.4922"/><text fill="#000000" font-family="sans-serif" font-size="13" lengthAdjust="spacing" textLength="207" x="107" y="913.4263">Propose retraining or new model</text><line style="stroke:#000000;stroke-width:1.0;" x1="347" x2="389" y1="947.625" y2="947.625"/><line style="stroke:#000000;stroke-width:1.0;" x1="389" x2="389" y1="947.625" y2="960.625"/><line style="stroke:#000000;stroke-width:1.0;" x1="348" x2="389" y1="960.625" y2="960.625"/><polygon fill="#000000" points="358,956.625,348,960.625,358,964.625,354,960.625" style="stroke:#000000;stroke-width:1.0;"/><text fill="#000000" font-family="sans-serif" font-size="13" lengthAdjust="spacing" textLength="224" x="354" y="942.5591">Check compliance for new changes</text><polygon fill="#000000" points="1176,985.7578,1186,989.7578,1176,993.7578,1180,989.7578" style="stroke:#000000;stroke-width:1.0;"/><line style="stroke:#000000;stroke-width:1.0;" x1="782" x2="1182" y1="989.7578" y2="989.7578"/><text fill="#000000" font-family="sans-serif" font-size="13" lengthAdjust="spacing" textLength="145" x="789" y="984.6919">Deploy updated model</text><line style="stroke:#000000;stroke-width:1.0;stroke-dasharray:2.0,2.0;" x1="10" x2="1243" y1="998.7578" y2="998.7578"/><text fill="#000000" font-family="sans-serif" font-size="11" font-weight="bold" lengthAdjust="spacing" textLength="190" x="15" y="1008.9683">[Performance remains stable]</text><line style="stroke:#000000;stroke-width:1.0;" x1="962" x2="1004" y1="1033.6953" y2="1033.6953"/><line style="stroke:#000000;stroke-width:1.0;" x1="1004" x2="1004" y1="1033.6953" y2="1046.6953"/><line style="stroke:#000000;stroke-width:1.0;" x1="963" x2="1004" y1="1046.6953" y2="1046.6953"/><polygon fill="#000000" points="973,1042.6953,963,1046.6953,973,1050.6953,969,1046.6953" style="stroke:#000000;stroke-width:1.0;"/><text fill="#000000" font-family="sans-serif" font-size="13" lengthAdjust="spacing" textLength="179" x="969" y="1028.6294">Continue routine monitoring</text><polygon fill="#000000" points="973,1078.8281,963,1082.8281,973,1086.8281,969,1082.8281" style="stroke:#000000;stroke-width:1.0;"/><line style="stroke:#000000;stroke-width:1.0;" x1="967" x2="1609" y1="1082.8281" y2="1082.8281"/><text fill="#000000" font-family="sans-serif" font-size="13" lengthAdjust="spacing" textLength="146" x="979" y="1077.7622">Provide incident trends</text><polygon fill="#000000" points="1437,1107.9609,1447,1111.9609,1437,1115.9609,1441,1111.9609" style="stroke:#000000;stroke-width:1.0;"/><line style="stroke:#000000;stroke-width:1.0;" x1="962" x2="1443" y1="1111.9609" y2="1111.9609"/><text fill="#000000" font-family="sans-serif" font-size="13" lengthAdjust="spacing" textLength="265" x="969" y="1106.895">Summarize post-implementation findings</text><polygon fill="#000000" points="101,1137.0938,91,1141.0938,101,1145.0938,97,1141.0938" style="stroke:#000000;stroke-width:1.0;"/><line style="stroke:#000000;stroke-width:1.0;" x1="95" x2="1448" y1="1141.0938" y2="1141.0938"/><text fill="#000000" font-family="sans-serif" font-size="13" lengthAdjust="spacing" textLength="263" x="107" y="1136.0278">Present final Post Implementation Review</text><!--MD5=[4acb989f20c0918b5132ec9e88fe22bb]
@startuml
skinparam participantMargin 20
skinparam boxPadding 10
skinparam ArrowColor #000000
skinparam ActorBorderColor #000000

participant "AI Project Sponsor" as Sponsor
participant "AI-IRB Liaison" as IRBLiaison
participant "Data Science Team" as DataSci
participant "Development Team" as DevTeam
participant "Quality Assurance" as QA
participant "Operations" as Ops
participant "Product Management" as ProdMgt
participant "Technical Support" as TechSupport

' === 1. Model Lifecycle Planning ===
ProdMgt -> DataSci: Define model objectives and constraints
DataSci -> IRBLiaison: Request AI-IRB compliance guidance
IRBLiaison -> IRBLiaison: Prepare IRB submission packet
IRBLiaison -> Sponsor: Present compliance needs & budget
Sponsor -> Sponsor: Approve resources and schedule

' === 2. AI-IRB Approval Phase ===
DataSci -> IRBLiaison: Submit design documents
alt AI-IRB major changes required
    IRBLiaison -> DataSci: Request modifications
    DataSci -> DataSci: Revise model design
    DataSci -> IRBLiaison: Resubmit updated design
else AI-IRB approved
    IRBLiaison -> DataSci: IRB approval granted
end

' === 3. QA Review and Operations Setup ===
QA -> DataSci: Validate model readiness
QA -> DevTeam: Validate integration plan
DevTeam -> Ops: Confirm environment needs
Ops -> Ops: Provision staging/production resources

' === 4. Deployment and Verification ===
DevTeam -> Ops: Deploy AI model to production
Ops -> QA: Notify readiness for final checks
QA -> DataSci: Monitor initial performance metrics
alt Model meets acceptance criteria
    DataSci -> TechSupport: Provide support guidelines
    TechSupport -> TechSupport: Prepare helpdesk materials
else Model does NOT meet acceptance
    DataSci -> DevTeam: Retrain or fix issues
    DevTeam -> Ops: Deploy revised version
end

' === 5. Post-Deployment Monitoring and Retraining ===
QA -> DataSci: Track ongoing performance, detect drift
DataSci -> IRBLiaison: Consult if changes require IRB re-review
alt Performance decays beyond threshold
    DataSci -> Sponsor: Propose retraining or new model
    IRBLiaison -> IRBLiaison: Check compliance for new changes
    DevTeam -> Ops: Deploy updated model
else Performance remains stable
    QA -> QA: Continue routine monitoring
end

' === 6. Lessons Learned and Review ===
TechSupport -> QA: Provide incident trends
QA -> ProdMgt: Summarize post-implementation findings
ProdMgt -> Sponsor: Present final Post Implementation Review
@enduml

@startuml
skinparam participantMargin 20
skinparam boxPadding 10
skinparam ArrowColor #000000
skinparam ActorBorderColor #000000

participant "AI Project Sponsor" as Sponsor
participant "AI-IRB Liaison" as IRBLiaison
participant "Data Science Team" as DataSci
participant "Development Team" as DevTeam
participant "Quality Assurance" as QA
participant "Operations" as Ops
participant "Product Management" as ProdMgt
participant "Technical Support" as TechSupport

ProdMgt -> DataSci: Define model objectives and constraints
DataSci -> IRBLiaison: Request AI-IRB compliance guidance
IRBLiaison -> IRBLiaison: Prepare IRB submission packet
IRBLiaison -> Sponsor: Present compliance needs & budget
Sponsor -> Sponsor: Approve resources and schedule

DataSci -> IRBLiaison: Submit design documents
alt AI-IRB major changes required
    IRBLiaison -> DataSci: Request modifications
    DataSci -> DataSci: Revise model design
    DataSci -> IRBLiaison: Resubmit updated design
else AI-IRB approved
    IRBLiaison -> DataSci: IRB approval granted
end

QA -> DataSci: Validate model readiness
QA -> DevTeam: Validate integration plan
DevTeam -> Ops: Confirm environment needs
Ops -> Ops: Provision staging/production resources

DevTeam -> Ops: Deploy AI model to production
Ops -> QA: Notify readiness for final checks
QA -> DataSci: Monitor initial performance metrics
alt Model meets acceptance criteria
    DataSci -> TechSupport: Provide support guidelines
    TechSupport -> TechSupport: Prepare helpdesk materials
else Model does NOT meet acceptance
    DataSci -> DevTeam: Retrain or fix issues
    DevTeam -> Ops: Deploy revised version
end

QA -> DataSci: Track ongoing performance, detect drift
DataSci -> IRBLiaison: Consult if changes require IRB re-review
alt Performance decays beyond threshold
    DataSci -> Sponsor: Propose retraining or new model
    IRBLiaison -> IRBLiaison: Check compliance for new changes
    DevTeam -> Ops: Deploy updated model
else Performance remains stable
    QA -> QA: Continue routine monitoring
end

TechSupport -> QA: Provide incident trends
QA -> ProdMgt: Summarize post-implementation findings
ProdMgt -> Sponsor: Present final Post Implementation Review
@enduml

PlantUML version 1.2022.7(Mon Aug 22 17:01:30 UTC 2022)
(GPL source distribution)
Java Runtime: OpenJDK Runtime Environment
JVM: OpenJDK 64-Bit Server VM
Default Encoding: UTF-8
Language: en
Country: null
--></g></svg>