<?xml version="1.0" encoding="UTF-8" standalone="no"?><svg xmlns="http://www.w3.org/2000/svg" xmlns:xlink="http://www.w3.org/1999/xlink" contentStyleType="text/css" height="925px" preserveAspectRatio="none" style="width:1505px;height:925px;background:#FFFFFF;" version="1.1" viewBox="0 0 1505 925" width="1505px" zoomAndPan="magnify"><defs/><g><rect fill="none" height="310.9375" style="stroke:#000000;stroke-width:1.5;" width="1202" x="10" y="153.6953"/><rect fill="none" height="148.4688" style="stroke:#000000;stroke-width:1.5;" width="925.5" x="276.5" y="309.1641"/><rect fill="none" height="119.3359" style="stroke:#000000;stroke-width:1.5;" width="1488" x="10" y="566.0313"/><line style="stroke:#181818;stroke-width:0.5;stroke-dasharray:5.0,5.0;" x1="68" x2="68" y1="36.2969" y2="890.1641"/><line style="stroke:#181818;stroke-width:0.5;stroke-dasharray:5.0,5.0;" x1="337.5" x2="337.5" y1="36.2969" y2="890.1641"/><line style="stroke:#181818;stroke-width:0.5;stroke-dasharray:5.0,5.0;" x1="667" x2="667" y1="36.2969" y2="890.1641"/><line style="stroke:#181818;stroke-width:0.5;stroke-dasharray:5.0,5.0;" x1="1039" x2="1039" y1="36.2969" y2="890.1641"/><line style="stroke:#181818;stroke-width:0.5;stroke-dasharray:5.0,5.0;" x1="1147" x2="1147" y1="36.2969" y2="890.1641"/><line style="stroke:#181818;stroke-width:0.5;stroke-dasharray:5.0,5.0;" x1="1271" x2="1271" y1="36.2969" y2="890.1641"/><line style="stroke:#181818;stroke-width:0.5;stroke-dasharray:5.0,5.0;" x1="1419" x2="1419" y1="36.2969" y2="890.1641"/><rect fill="#E2E2F0" height="30.2969" rx="2.5" ry="2.5" style="stroke:#181818;stroke-width:0.5;" width="97" x="20" y="5"/><text fill="#000000" font-family="sans-serif" font-size="14" lengthAdjust="spacing" textLength="83" x="27" y="24.9951">Engineering</text><rect fill="#E2E2F0" height="30.2969" rx="2.5" ry="2.5" style="stroke:#181818;stroke-width:0.5;" width="97" x="20" y="889.1641"/><text fill="#000000" font-family="sans-serif" font-size="14" lengthAdjust="spacing" textLength="83" x="27" y="909.1592">Engineering</text><rect fill="#E2E2F0" height="30.2969" rx="2.5" ry="2.5" style="stroke:#181818;stroke-width:0.5;" width="102" x="286.5" y="5"/><text fill="#000000" font-family="sans-serif" font-size="14" lengthAdjust="spacing" textLength="88" x="293.5" y="24.9951">Asset Owner</text><rect fill="#E2E2F0" height="30.2969" rx="2.5" ry="2.5" style="stroke:#181818;stroke-width:0.5;" width="102" x="286.5" y="889.1641"/><text fill="#000000" font-family="sans-serif" font-size="14" lengthAdjust="spacing" textLength="88" x="293.5" y="909.1592">Asset Owner</text><rect fill="#E2E2F0" height="30.2969" rx="2.5" ry="2.5" style="stroke:#181818;stroke-width:0.5;" width="117" x="609" y="5"/><text fill="#000000" font-family="sans-serif" font-size="14" lengthAdjust="spacing" textLength="103" x="616" y="24.9951">Asset Manager</text><rect fill="#E2E2F0" height="30.2969" rx="2.5" ry="2.5" style="stroke:#181818;stroke-width:0.5;" width="117" x="609" y="889.1641"/><text fill="#000000" font-family="sans-serif" font-size="14" lengthAdjust="spacing" textLength="103" x="616" y="909.1592">Asset Manager</text><rect fill="#E2E2F0" height="30.2969" rx="2.5" ry="2.5" style="stroke:#181818;stroke-width:0.5;" width="105" x="987" y="5"/><text fill="#000000" font-family="sans-serif" font-size="14" lengthAdjust="spacing" textLength="91" x="994" y="24.9951">AI-IRB Liaison</text><rect fill="#E2E2F0" height="30.2969" rx="2.5" ry="2.5" style="stroke:#181818;stroke-width:0.5;" width="105" x="987" y="889.1641"/><text fill="#000000" font-family="sans-serif" font-size="14" lengthAdjust="spacing" textLength="91" x="994" y="909.1592">AI-IRB Liaison</text><rect fill="#E2E2F0" height="30.2969" rx="2.5" ry="2.5" style="stroke:#181818;stroke-width:0.5;" width="90" x="1102" y="5"/><text fill="#000000" font-family="sans-serif" font-size="14" lengthAdjust="spacing" textLength="76" x="1109" y="24.9951">Operations</text><rect fill="#E2E2F0" height="30.2969" rx="2.5" ry="2.5" style="stroke:#181818;stroke-width:0.5;" width="90" x="1102" y="889.1641"/><text fill="#000000" font-family="sans-serif" font-size="14" lengthAdjust="spacing" textLength="76" x="1109" y="909.1592">Operations</text><rect fill="#E2E2F0" height="30.2969" rx="2.5" ry="2.5" style="stroke:#181818;stroke-width:0.5;" width="139" x="1202" y="5"/><text fill="#000000" font-family="sans-serif" font-size="14" lengthAdjust="spacing" textLength="125" x="1209" y="24.9951">Technical Support</text><rect fill="#E2E2F0" height="30.2969" rx="2.5" ry="2.5" style="stroke:#181818;stroke-width:0.5;" width="139" x="1202" y="889.1641"/><text fill="#000000" font-family="sans-serif" font-size="14" lengthAdjust="spacing" textLength="125" x="1209" y="909.1592">Technical Support</text><rect fill="#E2E2F0" height="30.2969" rx="2.5" ry="2.5" style="stroke:#181818;stroke-width:0.5;" width="137" x="1351" y="5"/><text fill="#000000" font-family="sans-serif" font-size="14" lengthAdjust="spacing" textLength="123" x="1358" y="24.9951">Quality Assurance</text><rect fill="#E2E2F0" height="30.2969" rx="2.5" ry="2.5" style="stroke:#181818;stroke-width:0.5;" width="137" x="1351" y="889.1641"/><text fill="#000000" font-family="sans-serif" font-size="14" lengthAdjust="spacing" textLength="123" x="1358" y="909.1592">Quality Assurance</text><polygon fill="#181818" points="325.5,63.4297,335.5,67.4297,325.5,71.4297,329.5,67.4297" style="stroke:#181818;stroke-width:1.0;"/><line style="stroke:#181818;stroke-width:1.0;" x1="68.5" x2="331.5" y1="67.4297" y2="67.4297"/><text fill="#000000" font-family="sans-serif" font-size="13" lengthAdjust="spacing" textLength="245" x="75.5" y="62.3638">Discuss AI asset need (new or update)</text><polygon fill="#181818" points="655.5,92.5625,665.5,96.5625,655.5,100.5625,659.5,96.5625" style="stroke:#181818;stroke-width:1.0;"/><line style="stroke:#181818;stroke-width:1.0;" x1="337.5" x2="661.5" y1="96.5625" y2="96.5625"/><text fill="#000000" font-family="sans-serif" font-size="13" lengthAdjust="spacing" textLength="228" x="344.5" y="91.4966">Submit Change/Acquisition Request</text><line style="stroke:#181818;stroke-width:1.0;" x1="667.5" x2="709.5" y1="125.6953" y2="125.6953"/><line style="stroke:#181818;stroke-width:1.0;" x1="709.5" x2="709.5" y1="125.6953" y2="138.6953"/><line style="stroke:#181818;stroke-width:1.0;" x1="668.5" x2="709.5" y1="138.6953" y2="138.6953"/><polygon fill="#181818" points="678.5,134.6953,668.5,138.6953,678.5,142.6953,674.5,138.6953" style="stroke:#181818;stroke-width:1.0;"/><text fill="#000000" font-family="sans-serif" font-size="13" lengthAdjust="spacing" textLength="217" x="674.5" y="120.6294">Check existing AI asset availability</text><path d="M10,153.6953 L74,153.6953 L74,160.8281 L64,170.8281 L10,170.8281 L10,153.6953 " fill="#EEEEEE" style="stroke:#000000;stroke-width:1.5;"/><rect fill="none" height="310.9375" style="stroke:#000000;stroke-width:1.5;" width="1202" x="10" y="153.6953"/><text fill="#000000" font-family="sans-serif" font-size="13" font-weight="bold" lengthAdjust="spacing" textLength="19" x="25" y="166.7622">alt</text><text fill="#000000" font-family="sans-serif" font-size="11" font-weight="bold" lengthAdjust="spacing" textLength="98" x="89" y="165.9058">["Asset found"]</text><polygon fill="#181818" points="348.5,187.9609,338.5,191.9609,348.5,195.9609,344.5,191.9609" style="stroke:#181818;stroke-width:1.0;"/><line style="stroke:#181818;stroke-width:1.0;" x1="342.5" x2="666.5" y1="191.9609" y2="191.9609"/><text fill="#000000" font-family="sans-serif" font-size="13" lengthAdjust="spacing" textLength="258" x="354.5" y="186.895">Reconfigure or reassign existing AI asset</text><polygon fill="#181818" points="79.5,217.0938,69.5,221.0938,79.5,225.0938,75.5,221.0938" style="stroke:#181818;stroke-width:1.0;"/><line style="stroke:#181818;stroke-width:1.0;" x1="73.5" x2="666.5" y1="221.0938" y2="221.0938"/><text fill="#000000" font-family="sans-serif" font-size="13" lengthAdjust="spacing" textLength="130" x="85.5" y="216.0278">Notify asset is ready</text><line style="stroke:#000000;stroke-width:1.0;stroke-dasharray:2.0,2.0;" x1="10" x2="1212" y1="230.0938" y2="230.0938"/><text fill="#000000" font-family="sans-serif" font-size="11" font-weight="bold" lengthAdjust="spacing" textLength="134" x="15" y="240.3042">["No suitable asset"]</text><polygon fill="#181818" points="1027.5,261.0313,1037.5,265.0313,1027.5,269.0313,1031.5,265.0313" style="stroke:#181818;stroke-width:1.0;"/><line style="stroke:#181818;stroke-width:1.0;" x1="667.5" x2="1033.5" y1="265.0313" y2="265.0313"/><text fill="#000000" font-family="sans-serif" font-size="13" lengthAdjust="spacing" textLength="262" x="674.5" y="259.9653">Request compliance review for new asset</text><polygon fill="#181818" points="678.5,290.1641,668.5,294.1641,678.5,298.1641,674.5,294.1641" style="stroke:#181818;stroke-width:1.0;"/><line style="stroke:#181818;stroke-width:1.0;stroke-dasharray:2.0,2.0;" x1="672.5" x2="1038.5" y1="294.1641" y2="294.1641"/><text fill="#000000" font-family="sans-serif" font-size="13" lengthAdjust="spacing" textLength="150" x="684.5" y="289.0981">Approve or Deny usage</text><path d="M276.5,309.1641 L340.5,309.1641 L340.5,316.2969 L330.5,326.2969 L276.5,326.2969 L276.5,309.1641 " fill="#EEEEEE" style="stroke:#000000;stroke-width:1.5;"/><rect fill="none" height="148.4688" style="stroke:#000000;stroke-width:1.5;" width="925.5" x="276.5" y="309.1641"/><text fill="#000000" font-family="sans-serif" font-size="13" font-weight="bold" lengthAdjust="spacing" textLength="19" x="291.5" y="322.231">alt</text><text fill="#000000" font-family="sans-serif" font-size="11" font-weight="bold" lengthAdjust="spacing" textLength="82" x="355.5" y="321.3745">["Approved"]</text><polygon fill="#181818" points="1135,343.4297,1145,347.4297,1135,351.4297,1139,347.4297" style="stroke:#181818;stroke-width:1.0;"/><line style="stroke:#181818;stroke-width:1.0;" x1="667.5" x2="1141" y1="347.4297" y2="347.4297"/><text fill="#000000" font-family="sans-serif" font-size="13" lengthAdjust="spacing" textLength="248" x="674.5" y="342.3638">Proceed with procurement/provisioning</text><polygon fill="#181818" points="678.5,372.5625,668.5,376.5625,678.5,380.5625,674.5,376.5625" style="stroke:#181818;stroke-width:1.0;"/><line style="stroke:#181818;stroke-width:1.0;stroke-dasharray:2.0,2.0;" x1="672.5" x2="1146" y1="376.5625" y2="376.5625"/><text fill="#000000" font-family="sans-serif" font-size="13" lengthAdjust="spacing" textLength="175" x="684.5" y="371.4966">Asset delivered &amp; prepared</text><polygon fill="#181818" points="348.5,401.6953,338.5,405.6953,348.5,409.6953,344.5,405.6953" style="stroke:#181818;stroke-width:1.0;"/><line style="stroke:#181818;stroke-width:1.0;" x1="342.5" x2="666.5" y1="405.6953" y2="405.6953"/><text fill="#000000" font-family="sans-serif" font-size="13" lengthAdjust="spacing" textLength="306" x="354.5" y="400.6294">Assign new asset and update tracking database</text><line style="stroke:#000000;stroke-width:1.0;stroke-dasharray:2.0,2.0;" x1="276.5" x2="1202" y1="414.6953" y2="414.6953"/><text fill="#000000" font-family="sans-serif" font-size="11" font-weight="bold" lengthAdjust="spacing" textLength="67" x="281.5" y="424.9058">["Denied"]</text><polygon fill="#181818" points="348.5,445.6328,338.5,449.6328,348.5,453.6328,344.5,449.6328" style="stroke:#181818;stroke-width:1.0;"/><line style="stroke:#181818;stroke-width:1.0;" x1="342.5" x2="666.5" y1="449.6328" y2="449.6328"/><text fill="#000000" font-family="sans-serif" font-size="13" lengthAdjust="spacing" textLength="151" x="354.5" y="444.5669">Notify request is denied</text><polygon fill="#181818" points="1135,488.7656,1145,492.7656,1135,496.7656,1139,492.7656" style="stroke:#181818;stroke-width:1.0;"/><line style="stroke:#181818;stroke-width:1.0;" x1="337.5" x2="1141" y1="492.7656" y2="492.7656"/><text fill="#000000" font-family="sans-serif" font-size="13" lengthAdjust="spacing" textLength="190" x="344.5" y="487.6997">Deploy and configure AI asset</text><polygon fill="#181818" points="1407.5,517.8984,1417.5,521.8984,1407.5,525.8984,1411.5,521.8984" style="stroke:#181818;stroke-width:1.0;"/><line style="stroke:#181818;stroke-width:1.0;" x1="1147" x2="1413.5" y1="521.8984" y2="521.8984"/><text fill="#000000" font-family="sans-serif" font-size="13" lengthAdjust="spacing" textLength="248" x="1154" y="516.8325">[If critical] Request QA acceptance test</text><polygon fill="#181818" points="1158,547.0313,1148,551.0313,1158,555.0313,1154,551.0313" style="stroke:#181818;stroke-width:1.0;"/><line style="stroke:#181818;stroke-width:1.0;stroke-dasharray:2.0,2.0;" x1="1152" x2="1418.5" y1="551.0313" y2="551.0313"/><text fill="#000000" font-family="sans-serif" font-size="13" lengthAdjust="spacing" textLength="123" x="1164" y="545.9653">Provide test results</text><path d="M10,566.0313 L74,566.0313 L74,573.1641 L64,583.1641 L10,583.1641 L10,566.0313 " fill="#EEEEEE" style="stroke:#000000;stroke-width:1.5;"/><rect fill="none" height="119.3359" style="stroke:#000000;stroke-width:1.5;" width="1488" x="10" y="566.0313"/><text fill="#000000" font-family="sans-serif" font-size="13" font-weight="bold" lengthAdjust="spacing" textLength="19" x="25" y="579.0981">alt</text><text fill="#000000" font-family="sans-serif" font-size="11" font-weight="bold" lengthAdjust="spacing" textLength="100" x="89" y="578.2417">["Test passed"]</text><polygon fill="#181818" points="348.5,600.2969,338.5,604.2969,348.5,608.2969,344.5,604.2969" style="stroke:#181818;stroke-width:1.0;"/><line style="stroke:#181818;stroke-width:1.0;" x1="342.5" x2="1146" y1="604.2969" y2="604.2969"/><text fill="#000000" font-family="sans-serif" font-size="13" lengthAdjust="spacing" textLength="208" x="354.5" y="599.231">Confirm asset is fully operational</text><line style="stroke:#000000;stroke-width:1.0;stroke-dasharray:2.0,2.0;" x1="10" x2="1498" y1="613.2969" y2="613.2969"/><text fill="#000000" font-family="sans-serif" font-size="11" font-weight="bold" lengthAdjust="spacing" textLength="91" x="15" y="623.5073">["Test failed"]</text><polygon fill="#181818" points="79.5,644.2344,69.5,648.2344,79.5,652.2344,75.5,648.2344" style="stroke:#181818;stroke-width:1.0;"/><line style="stroke:#181818;stroke-width:1.0;" x1="73.5" x2="1146" y1="648.2344" y2="648.2344"/><text fill="#000000" font-family="sans-serif" font-size="13" lengthAdjust="spacing" textLength="123" x="85.5" y="643.1685">Fix identified issues</text><polygon fill="#181818" points="1407.5,673.3672,1417.5,677.3672,1407.5,681.3672,1411.5,677.3672" style="stroke:#181818;stroke-width:1.0;"/><line style="stroke:#181818;stroke-width:1.0;" x1="68.5" x2="1413.5" y1="677.3672" y2="677.3672"/><text fill="#000000" font-family="sans-serif" font-size="13" lengthAdjust="spacing" textLength="157" x="75.5" y="672.3013">Re-test updated solution</text><polygon fill="#181818" points="1259.5,709.5,1269.5,713.5,1259.5,717.5,1263.5,713.5" style="stroke:#181818;stroke-width:1.0;"/><line style="stroke:#181818;stroke-width:1.0;" x1="337.5" x2="1265.5" y1="713.5" y2="713.5"/><text fill="#000000" font-family="sans-serif" font-size="13" lengthAdjust="spacing" textLength="298" x="344.5" y="708.4341">Request operational support if any issues arise</text><line style="stroke:#181818;stroke-width:1.0;" x1="667.5" x2="709.5" y1="742.6328" y2="742.6328"/><line style="stroke:#181818;stroke-width:1.0;" x1="709.5" x2="709.5" y1="742.6328" y2="755.6328"/><line style="stroke:#181818;stroke-width:1.0;" x1="668.5" x2="709.5" y1="755.6328" y2="755.6328"/><polygon fill="#181818" points="678.5,751.6328,668.5,755.6328,678.5,759.6328,674.5,755.6328" style="stroke:#181818;stroke-width:1.0;"/><text fill="#000000" font-family="sans-serif" font-size="13" lengthAdjust="spacing" textLength="267" x="674.5" y="737.5669">Periodically audit AI assets for compliance</text><polygon fill="#181818" points="1027.5,780.7656,1037.5,784.7656,1027.5,788.7656,1031.5,784.7656" style="stroke:#181818;stroke-width:1.0;"/><line style="stroke:#181818;stroke-width:1.0;" x1="667.5" x2="1033.5" y1="784.7656" y2="784.7656"/><text fill="#000000" font-family="sans-serif" font-size="13" lengthAdjust="spacing" textLength="348" x="674.5" y="779.6997">Escalate usage changes for further compliance checks</text><polygon fill="#181818" points="655.5,809.8984,665.5,813.8984,655.5,817.8984,659.5,813.8984" style="stroke:#181818;stroke-width:1.0;"/><line style="stroke:#181818;stroke-width:1.0;" x1="337.5" x2="661.5" y1="813.8984" y2="813.8984"/><text fill="#000000" font-family="sans-serif" font-size="13" lengthAdjust="spacing" textLength="267" x="344.5" y="808.8325">Notify of disposal or major upgrade needs</text><polygon fill="#181818" points="1135,839.0313,1145,843.0313,1135,847.0313,1139,843.0313" style="stroke:#181818;stroke-width:1.0;"/><line style="stroke:#181818;stroke-width:1.0;" x1="667.5" x2="1141" y1="843.0313" y2="843.0313"/><text fill="#000000" font-family="sans-serif" font-size="13" lengthAdjust="spacing" textLength="312" x="674.5" y="837.9653">Execute secure disposal or major reconfiguration</text><polygon fill="#181818" points="678.5,868.1641,668.5,872.1641,678.5,876.1641,674.5,872.1641" style="stroke:#181818;stroke-width:1.0;"/><line style="stroke:#181818;stroke-width:1.0;stroke-dasharray:2.0,2.0;" x1="672.5" x2="1146" y1="872.1641" y2="872.1641"/><text fill="#000000" font-family="sans-serif" font-size="13" lengthAdjust="spacing" textLength="296" x="684.5" y="867.0981">Confirm final status (disposed or reconfigured)</text><!--MD5=[4822e262f29be19c1f99e8524f30bd0e]
@startuml
' Define participants (using short references in quotes as required)
participant "Engineering" as ENG
participant "Asset Owner" as AO
participant "Asset Manager" as AM
participant "AI-IRB Liaison" as IRB
participant "Operations" as OPS
participant "Technical Support" as TS
participant "Quality Assurance" as QA

ENG -> AO: Discuss AI asset need (new or update)
AO -> AM: Submit Change/Acquisition Request
AM -> AM: Check existing AI asset availability

alt "Asset found"
  AM -> AO: Reconfigure or reassign existing AI asset
  AM -> ENG: Notify asset is ready
else "No suitable asset"
  AM -> IRB: Request compliance review for new asset
  IRB - -> AM: Approve or Deny usage

  alt "Approved"
    AM -> OPS: Proceed with procurement/provisioning
    OPS - -> AM: Asset delivered & prepared
    AM -> AO: Assign new asset and update tracking database
  else "Denied"
    AM -> AO: Notify request is denied
  end
end

AO -> OPS: Deploy and configure AI asset
OPS -> QA: [If critical] Request QA acceptance test
QA - -> OPS: Provide test results

alt "Test passed"
  OPS -> AO: Confirm asset is fully operational
else "Test failed"
  OPS -> ENG: Fix identified issues
  ENG -> QA: Re-test updated solution
end

AO -> TS: Request operational support if any issues arise

AM -> AM: Periodically audit AI assets for compliance
AM -> IRB: Escalate usage changes for further compliance checks
AO -> AM: Notify of disposal or major upgrade needs
AM -> OPS: Execute secure disposal or major reconfiguration
OPS - -> AM: Confirm final status (disposed or reconfigured)
@enduml

@startuml
participant "Engineering" as ENG
participant "Asset Owner" as AO
participant "Asset Manager" as AM
participant "AI-IRB Liaison" as IRB
participant "Operations" as OPS
participant "Technical Support" as TS
participant "Quality Assurance" as QA

ENG -> AO: Discuss AI asset need (new or update)
AO -> AM: Submit Change/Acquisition Request
AM -> AM: Check existing AI asset availability

alt "Asset found"
  AM -> AO: Reconfigure or reassign existing AI asset
  AM -> ENG: Notify asset is ready
else "No suitable asset"
  AM -> IRB: Request compliance review for new asset
  IRB - -> AM: Approve or Deny usage

  alt "Approved"
    AM -> OPS: Proceed with procurement/provisioning
    OPS - -> AM: Asset delivered & prepared
    AM -> AO: Assign new asset and update tracking database
  else "Denied"
    AM -> AO: Notify request is denied
  end
end

AO -> OPS: Deploy and configure AI asset
OPS -> QA: [If critical] Request QA acceptance test
QA - -> OPS: Provide test results

alt "Test passed"
  OPS -> AO: Confirm asset is fully operational
else "Test failed"
  OPS -> ENG: Fix identified issues
  ENG -> QA: Re-test updated solution
end

AO -> TS: Request operational support if any issues arise

AM -> AM: Periodically audit AI assets for compliance
AM -> IRB: Escalate usage changes for further compliance checks
AO -> AM: Notify of disposal or major upgrade needs
AM -> OPS: Execute secure disposal or major reconfiguration
OPS - -> AM: Confirm final status (disposed or reconfigured)
@enduml

PlantUML version 1.2022.7(Mon Aug 22 17:01:30 UTC 2022)
(GPL source distribution)
Java Runtime: OpenJDK Runtime Environment
JVM: OpenJDK 64-Bit Server VM
Default Encoding: UTF-8
Language: en
Country: null
--></g></svg>