<?plantuml 1.2026.1beta5?><svg xmlns="http://www.w3.org/2000/svg" xmlns:xlink="http://www.w3.org/1999/xlink" contentStyleType="text/css" data-diagram-type="SEQUENCE" height="1900px" preserveAspectRatio="none" style="width:1201px;height:1900px;background:#FFFFFF;" version="1.1" viewBox="0 0 1201 1900" width="1201px" zoomAndPan="magnify"><title>SOP-1062-01-AI Risk Register Management</title><defs/><g><text fill="#000000" font-family="sans-serif" font-size="14" font-weight="bold" lengthAdjust="spacing" textLength="341.585" x="426.1938" y="27.9951">SOP-1062-01-AI Risk Register Management</text><rect fill="none" height="132.3359" style="stroke:#000000;stroke-width:1.5;" width="704.4775" x="10" y="549.3203"/><rect fill="none" height="103.2031" style="stroke:#000000;stroke-width:1.5;" width="455.9248" x="10" y="826.1875"/><rect fill="none" height="75.3984" style="stroke:#000000;stroke-width:1.5;" width="875.6367" x="309.3359" y="1015.6563"/><rect fill="none" height="161.6641" style="stroke:#000000;stroke-width:1.5;" width="870.4683" x="10" y="1105.0547"/><rect fill="none" height="59.2656" style="stroke:#000000;stroke-width:1.5;" width="241.6396" x="584.918" y="1200.4531"/><rect fill="none" height="119.3359" style="stroke:#000000;stroke-width:1.5;" width="1049.165" x="10" y="1424.25"/><rect fill="none" height="133.6641" style="stroke:#000000;stroke-width:1.5;" width="704.4775" x="10" y="1671.9844"/><g class="participant-lifeline" data-entity-uid="part1" data-qualified-name="DL" id="part1-lifeline"><g><title>Delivery Lead</title><rect fill="#000000" fill-opacity="0.00000" height="1791.1875" width="8" x="71.2207" y="73.5938"/><line style="stroke:#181818;stroke-width:0.5;stroke-dasharray:5,5;" x1="75" x2="75" y1="73.5938" y2="1864.7813"/></g></g><g class="participant-lifeline" data-entity-uid="part2" data-qualified-name="AM" id="part2-lifeline"><g><title>Account Manager</title><rect fill="#000000" fill-opacity="0.00000" height="1791.1875" width="8" x="383.6304" y="73.5938"/><line style="stroke:#181818;stroke-width:0.5;stroke-dasharray:5,5;" x1="387.3359" x2="387.3359" y1="73.5938" y2="1864.7813"/></g></g><g class="participant-lifeline" data-entity-uid="part3" data-qualified-name="TL" id="part3-lifeline"><g><title>Technical Lead</title><rect fill="#000000" fill-opacity="0.00000" height="1791.1875" width="8" x="521.4214" y="73.5938"/><line style="stroke:#181818;stroke-width:0.5;stroke-dasharray:5,5;" x1="524.9248" x2="524.9248" y1="73.5938" y2="1864.7813"/></g></g><g class="participant-lifeline" data-entity-uid="part4" data-qualified-name="IRB" id="part4-lifeline"><g><title>AI-IRB Liaison</title><rect fill="#000000" fill-opacity="0.00000" height="1791.1875" width="8" x="645.6978" y="73.5938"/><line style="stroke:#181818;stroke-width:0.5;stroke-dasharray:5,5;" x1="648.918" x2="648.918" y1="73.5938" y2="1864.7813"/></g></g><g class="participant-lifeline" data-entity-uid="part5" data-qualified-name="QA" id="part5-lifeline"><g><title>Quality Assurance</title><rect fill="#000000" fill-opacity="0.00000" height="1791.1875" width="8" x="871.4683" y="73.5938"/><line style="stroke:#181818;stroke-width:0.5;stroke-dasharray:5,5;" x1="874.9521" x2="874.9521" y1="73.5938" y2="1864.7813"/></g></g><g class="participant-lifeline" data-entity-uid="part6" data-qualified-name="RO" id="part6-lifeline"><g><title>Risk Owner</title><rect fill="#000000" fill-opacity="0.00000" height="1791.1875" width="8" x="998.5747" y="73.5938"/><line style="stroke:#181818;stroke-width:0.5;stroke-dasharray:5,5;" x1="1001.9844" x2="1001.9844" y1="73.5938" y2="1864.7813"/></g></g><g class="participant-lifeline" data-entity-uid="part7" data-qualified-name="CS" id="part7-lifeline"><g><title>Client Sponsor</title><rect fill="#000000" fill-opacity="0.00000" height="1791.1875" width="8" x="1113.0688" y="73.5938"/><line style="stroke:#181818;stroke-width:0.5;stroke-dasharray:5,5;" x1="1116.165" x2="1116.165" y1="73.5938" y2="1864.7813"/></g></g><g class="participant participant-head" data-entity-uid="part1" data-qualified-name="DL" id="part1-head"><rect fill="#E2E2F0" height="30.2969" rx="2.5" ry="2.5" style="stroke:#181818;stroke-width:0.5;" width="110.4414" x="20" y="42.2969"/><text fill="#000000" font-family="sans-serif" font-size="14" lengthAdjust="spacing" textLength="96.4414" x="27" y="62.292">Delivery Lead</text></g><g class="participant participant-tail" data-entity-uid="part1" data-qualified-name="DL" id="part1-tail"><rect fill="#E2E2F0" height="30.2969" rx="2.5" ry="2.5" style="stroke:#181818;stroke-width:0.5;" width="110.4414" x="20" y="1863.7813"/><text fill="#000000" font-family="sans-serif" font-size="14" lengthAdjust="spacing" textLength="96.4414" x="27" y="1883.7764">Delivery Lead</text></g><g class="participant participant-head" data-entity-uid="part2" data-qualified-name="AM" id="part2-head"><rect fill="#E2E2F0" height="30.2969" rx="2.5" ry="2.5" style="stroke:#181818;stroke-width:0.5;" width="136.5889" x="319.3359" y="42.2969"/><text fill="#000000" font-family="sans-serif" font-size="14" lengthAdjust="spacing" textLength="122.5889" x="326.3359" y="62.292">Account Manager</text></g><g class="participant participant-tail" data-entity-uid="part2" data-qualified-name="AM" id="part2-tail"><rect fill="#E2E2F0" height="30.2969" rx="2.5" ry="2.5" style="stroke:#181818;stroke-width:0.5;" width="136.5889" x="319.3359" y="1863.7813"/><text fill="#000000" font-family="sans-serif" font-size="14" lengthAdjust="spacing" textLength="122.5889" x="326.3359" y="1883.7764">Account Manager</text></g><g class="participant participant-head" data-entity-uid="part3" data-qualified-name="TL" id="part3-head"><rect fill="#E2E2F0" height="30.2969" rx="2.5" ry="2.5" style="stroke:#181818;stroke-width:0.5;" width="118.9932" x="465.9248" y="42.2969"/><text fill="#000000" font-family="sans-serif" font-size="14" lengthAdjust="spacing" textLength="104.9932" x="472.9248" y="62.292">Technical Lead</text></g><g class="participant participant-tail" data-entity-uid="part3" data-qualified-name="TL" id="part3-tail"><rect fill="#E2E2F0" height="30.2969" rx="2.5" ry="2.5" style="stroke:#181818;stroke-width:0.5;" width="118.9932" x="465.9248" y="1863.7813"/><text fill="#000000" font-family="sans-serif" font-size="14" lengthAdjust="spacing" textLength="104.9932" x="472.9248" y="1883.7764">Technical Lead</text></g><g class="participant participant-head" data-entity-uid="part4" data-qualified-name="IRB" id="part4-head"><rect fill="#E2E2F0" height="30.2969" rx="2.5" ry="2.5" style="stroke:#181818;stroke-width:0.5;" width="109.5596" x="594.918" y="42.2969"/><text fill="#000000" font-family="sans-serif" font-size="14" lengthAdjust="spacing" textLength="95.5596" x="601.918" y="62.292">AI-IRB Liaison</text></g><g class="participant participant-tail" data-entity-uid="part4" data-qualified-name="IRB" id="part4-tail"><rect fill="#E2E2F0" height="30.2969" rx="2.5" ry="2.5" style="stroke:#181818;stroke-width:0.5;" width="109.5596" x="594.918" y="1863.7813"/><text fill="#000000" font-family="sans-serif" font-size="14" lengthAdjust="spacing" textLength="95.5596" x="601.918" y="1883.7764">AI-IRB Liaison</text></g><g class="participant participant-head" data-entity-uid="part5" data-qualified-name="QA" id="part5-head"><rect fill="#E2E2F0" height="30.2969" rx="2.5" ry="2.5" style="stroke:#181818;stroke-width:0.5;" width="141.0322" x="804.9521" y="42.2969"/><text fill="#000000" font-family="sans-serif" font-size="14" lengthAdjust="spacing" textLength="127.0322" x="811.9521" y="62.292">Quality Assurance</text></g><g class="participant participant-tail" data-entity-uid="part5" data-qualified-name="QA" id="part5-tail"><rect fill="#E2E2F0" height="30.2969" rx="2.5" ry="2.5" style="stroke:#181818;stroke-width:0.5;" width="141.0322" x="804.9521" y="1863.7813"/><text fill="#000000" font-family="sans-serif" font-size="14" lengthAdjust="spacing" textLength="127.0322" x="811.9521" y="1883.7764">Quality Assurance</text></g><g class="participant participant-head" data-entity-uid="part6" data-qualified-name="RO" id="part6-head"><rect fill="#E2E2F0" height="30.2969" rx="2.5" ry="2.5" style="stroke:#181818;stroke-width:0.5;" width="93.1807" x="955.9844" y="42.2969"/><text fill="#000000" font-family="sans-serif" font-size="14" lengthAdjust="spacing" textLength="79.1807" x="962.9844" y="62.292">Risk Owner</text></g><g class="participant participant-tail" data-entity-uid="part6" data-qualified-name="RO" id="part6-tail"><rect fill="#E2E2F0" height="30.2969" rx="2.5" ry="2.5" style="stroke:#181818;stroke-width:0.5;" width="93.1807" x="955.9844" y="1863.7813"/><text fill="#000000" font-family="sans-serif" font-size="14" lengthAdjust="spacing" textLength="79.1807" x="962.9844" y="1883.7764">Risk Owner</text></g><g class="participant participant-head" data-entity-uid="part7" data-qualified-name="CS" id="part7-head"><rect fill="#E2E2F0" height="30.2969" rx="2.5" ry="2.5" style="stroke:#181818;stroke-width:0.5;" width="115.8076" x="1059.165" y="42.2969"/><text fill="#000000" font-family="sans-serif" font-size="14" lengthAdjust="spacing" textLength="101.8076" x="1066.165" y="62.292">Client Sponsor</text></g><g class="participant participant-tail" data-entity-uid="part7" data-qualified-name="CS" id="part7-tail"><rect fill="#E2E2F0" height="30.2969" rx="2.5" ry="2.5" style="stroke:#181818;stroke-width:0.5;" width="115.8076" x="1059.165" y="1863.7813"/><text fill="#000000" font-family="sans-serif" font-size="14" lengthAdjust="spacing" textLength="101.8076" x="1066.165" y="1883.7764">Client Sponsor</text></g><rect fill="#EEEEEE" height="3" style="stroke:#EEEEEE;stroke-width:1;" width="1194.9727" x="0" y="104.1602"/><line style="stroke:#000000;stroke-width:1;" x1="0" x2="1194.9727" y1="104.1602" y2="104.1602"/><line style="stroke:#000000;stroke-width:1;" x1="0" x2="1194.9727" y1="107.1602" y2="107.1602"/><rect fill="#EEEEEE" height="23.1328" style="stroke:#000000;stroke-width:2;" width="212.2944" x="491.3391" y="93.5938"/><text fill="#000000" font-family="sans-serif" font-size="13" font-weight="bold" lengthAdjust="spacing" textLength="193.7686" x="497.3391" y="109.6606">Risk Register Initialization</text><g class="message" data-entity-1="part1" data-entity-2="part1" id="msg1"><line style="stroke:#181818;stroke-width:1;" x1="75.2207" x2="117.2207" y1="147.8594" y2="147.8594"/><line style="stroke:#181818;stroke-width:1;" x1="117.2207" x2="117.2207" y1="147.8594" y2="160.8594"/><line style="stroke:#181818;stroke-width:1;" x1="76.2207" x2="117.2207" y1="160.8594" y2="160.8594"/><polygon fill="#181818" points="86.2207,156.8594,76.2207,160.8594,86.2207,164.8594,82.2207,160.8594" style="stroke:#181818;stroke-width:1;"/><text fill="#000000" font-family="sans-serif" font-size="13" lengthAdjust="spacing" textLength="195.5205" x="82.2207" y="142.7935">Create register from template</text></g><g class="message" data-entity-1="part1" data-entity-2="part2" id="msg2"><polygon fill="#181818" points="375.6304,185.9922,385.6304,189.9922,375.6304,193.9922,379.6304,189.9922" style="stroke:#181818;stroke-width:1;"/><line style="stroke:#181818;stroke-width:1;" x1="75.2207" x2="381.6304" y1="189.9922" y2="189.9922"/><text fill="#000000" font-family="sans-serif" font-size="13" lengthAdjust="spacing" textLength="240.2017" x="82.2207" y="184.9263">Gather commercial/relationship risks</text></g><g class="message" data-entity-1="part1" data-entity-2="part3" id="msg3"><polygon fill="#181818" points="513.4214,215.125,523.4214,219.125,513.4214,223.125,517.4214,219.125" style="stroke:#181818;stroke-width:1;"/><line style="stroke:#181818;stroke-width:1;" x1="75.2207" x2="519.4214" y1="219.125" y2="219.125"/><text fill="#000000" font-family="sans-serif" font-size="13" lengthAdjust="spacing" textLength="230.9912" x="82.2207" y="214.0591">Gather technology/integration risks</text></g><g class="message" data-entity-1="part1" data-entity-2="part1" id="msg4"><line style="stroke:#181818;stroke-width:1;" x1="75.2207" x2="117.2207" y1="248.2578" y2="248.2578"/><line style="stroke:#181818;stroke-width:1;" x1="117.2207" x2="117.2207" y1="248.2578" y2="261.2578"/><line style="stroke:#181818;stroke-width:1;" x1="76.2207" x2="117.2207" y1="261.2578" y2="261.2578"/><polygon fill="#181818" points="86.2207,257.2578,76.2207,261.2578,86.2207,265.2578,82.2207,261.2578" style="stroke:#181818;stroke-width:1;"/><text fill="#000000" font-family="sans-serif" font-size="13" lengthAdjust="spacing" textLength="298.4097" x="82.2207" y="243.1919">Review SOW, client profile, historical patterns</text></g><g class="message" data-entity-1="part1" data-entity-2="part1" id="msg5"><line style="stroke:#181818;stroke-width:1;" x1="75.2207" x2="117.2207" y1="290.3906" y2="290.3906"/><line style="stroke:#181818;stroke-width:1;" x1="117.2207" x2="117.2207" y1="290.3906" y2="303.3906"/><line style="stroke:#181818;stroke-width:1;" x1="76.2207" x2="117.2207" y1="303.3906" y2="303.3906"/><polygon fill="#181818" points="86.2207,299.3906,76.2207,303.3906,86.2207,307.3906,82.2207,303.3906" style="stroke:#181818;stroke-width:1;"/><text fill="#000000" font-family="sans-serif" font-size="13" lengthAdjust="spacing" textLength="232.5146" x="82.2207" y="285.3247">Score risks (L&#215;I) and assign owners</text></g><g class="message" data-entity-1="part1" data-entity-2="part4" id="msg6"><polygon fill="#181818" points="637.6978,328.5234,647.6978,332.5234,637.6978,336.5234,641.6978,332.5234" style="stroke:#181818;stroke-width:1;"/><line style="stroke:#181818;stroke-width:1;" x1="75.2207" x2="643.6978" y1="332.5234" y2="332.5234"/><text fill="#000000" font-family="sans-serif" font-size="13" lengthAdjust="spacing" textLength="302.6309" x="82.2207" y="327.4575">Flag risks with ethical/compliance implications</text></g><g class="message" data-entity-1="part4" data-entity-2="part1" id="msg7"><polygon fill="#181818" points="86.2207,357.6563,76.2207,361.6563,86.2207,365.6563,82.2207,361.6563" style="stroke:#181818;stroke-width:1;"/><line style="stroke:#181818;stroke-width:1;" x1="80.2207" x2="648.6978" y1="361.6563" y2="361.6563"/><text fill="#000000" font-family="sans-serif" font-size="13" lengthAdjust="spacing" textLength="220.3525" x="92.2207" y="356.5903">Review and approve flagged risks</text></g><g class="message" data-entity-1="part1" data-entity-2="part5" id="msg8"><polygon fill="#181818" points="863.4683,386.7891,873.4683,390.7891,863.4683,394.7891,867.4683,390.7891" style="stroke:#181818;stroke-width:1;"/><line style="stroke:#181818;stroke-width:1;" x1="75.2207" x2="869.4683" y1="390.7891" y2="390.7891"/><text fill="#000000" font-family="sans-serif" font-size="13" lengthAdjust="spacing" textLength="202.5854" x="82.2207" y="385.7231">Validate register completeness</text></g><g class="message" data-entity-1="part5" data-entity-2="part1" id="msg9"><polygon fill="#181818" points="86.2207,415.9219,76.2207,419.9219,86.2207,423.9219,82.2207,419.9219" style="stroke:#181818;stroke-width:1;"/><line style="stroke:#181818;stroke-width:1;" x1="80.2207" x2="874.4683" y1="419.9219" y2="419.9219"/><text fill="#000000" font-family="sans-serif" font-size="13" lengthAdjust="spacing" textLength="151.436" x="92.2207" y="414.856">Confirm baseline ready</text></g><rect fill="#EEEEEE" height="3" style="stroke:#EEEEEE;stroke-width:1;" width="1194.9727" x="0" y="448.4883"/><line style="stroke:#000000;stroke-width:1;" x1="0" x2="1194.9727" y1="448.4883" y2="448.4883"/><line style="stroke:#000000;stroke-width:1;" x1="0" x2="1194.9727" y1="451.4883" y2="451.4883"/><rect fill="#EEEEEE" height="23.1328" style="stroke:#000000;stroke-width:2;" width="218.3184" x="488.3271" y="437.9219"/><text fill="#000000" font-family="sans-serif" font-size="13" font-weight="bold" lengthAdjust="spacing" textLength="199.7925" x="494.3271" y="453.9888">Ongoing Risk Identification</text><g class="message" data-entity-1="part6" data-entity-2="part1" id="msg10"><polygon fill="#181818" points="86.2207,488.1875,76.2207,492.1875,86.2207,496.1875,82.2207,492.1875" style="stroke:#181818;stroke-width:1;"/><line style="stroke:#181818;stroke-width:1;" x1="80.2207" x2="1001.5747" y1="492.1875" y2="492.1875"/><text fill="#000000" font-family="sans-serif" font-size="13" lengthAdjust="spacing" textLength="239.5923" x="92.2207" y="487.1216">Submit new risk (any team member)</text></g><g class="message" data-entity-1="part1" data-entity-2="part1" id="msg11"><line style="stroke:#181818;stroke-width:1;" x1="75.2207" x2="117.2207" y1="521.3203" y2="521.3203"/><line style="stroke:#181818;stroke-width:1;" x1="117.2207" x2="117.2207" y1="521.3203" y2="534.3203"/><line style="stroke:#181818;stroke-width:1;" x1="76.2207" x2="117.2207" y1="534.3203" y2="534.3203"/><polygon fill="#181818" points="86.2207,530.3203,76.2207,534.3203,86.2207,538.3203,82.2207,534.3203" style="stroke:#181818;stroke-width:1;"/><text fill="#000000" font-family="sans-serif" font-size="13" lengthAdjust="spacing" textLength="146.0342" x="82.2207" y="516.2544">Triage within 24 hours</text></g><path d="M10,549.3203 L74.4429,549.3203 L74.4429,556.4531 L64.4429,566.4531 L10,566.4531 L10,549.3203" fill="#EEEEEE" style="stroke:#000000;stroke-width:1.5;"/><rect fill="none" height="132.3359" style="stroke:#000000;stroke-width:1.5;" width="704.4775" x="10" y="549.3203"/><text fill="#000000" font-family="sans-serif" font-size="13" font-weight="bold" lengthAdjust="spacing" textLength="19.4429" x="25" y="562.3872">alt</text><text fill="#000000" font-family="sans-serif" font-size="11" font-weight="bold" lengthAdjust="spacing" textLength="166.1279" x="89.4429" y="561.5308">[High Priority (Score &#8805;15)]</text><g class="message" data-entity-1="part1" data-entity-2="part2" id="msg12"><polygon fill="#181818" points="375.6304,583.5859,385.6304,587.5859,375.6304,591.5859,379.6304,587.5859" style="stroke:#181818;stroke-width:1;"/><line style="stroke:#181818;stroke-width:1;" x1="75.2207" x2="381.6304" y1="587.5859" y2="587.5859"/><text fill="#000000" font-family="sans-serif" font-size="13" lengthAdjust="spacing" textLength="147.3228" x="82.2207" y="582.52">Immediate notification</text></g><g class="message" data-entity-1="part1" data-entity-2="part4" id="msg13"><polygon fill="#181818" points="637.6978,612.7188,647.6978,616.7188,637.6978,620.7188,641.6978,616.7188" style="stroke:#181818;stroke-width:1;"/><line style="stroke:#181818;stroke-width:1;" x1="75.2207" x2="643.6978" y1="616.7188" y2="616.7188"/><text fill="#000000" font-family="sans-serif" font-size="13" lengthAdjust="spacing" textLength="256.02" x="82.2207" y="611.6528">Immediate notification if AI-IRB flagged</text></g><line style="stroke:#000000;stroke-width:1;stroke-dasharray:2,2;" x1="10" x2="714.4775" y1="625.7188" y2="625.7188"/><text fill="#000000" font-family="sans-serif" font-size="11" font-weight="bold" lengthAdjust="spacing" textLength="138.4131" x="15" y="635.9292">[Medium/Low Priority]</text><g class="message" data-entity-1="part1" data-entity-2="part1" id="msg14"><line style="stroke:#181818;stroke-width:1;" x1="75.2207" x2="117.2207" y1="660.6563" y2="660.6563"/><line style="stroke:#181818;stroke-width:1;" x1="117.2207" x2="117.2207" y1="660.6563" y2="673.6563"/><line style="stroke:#181818;stroke-width:1;" x1="76.2207" x2="117.2207" y1="673.6563" y2="673.6563"/><polygon fill="#181818" points="86.2207,669.6563,76.2207,673.6563,86.2207,677.6563,82.2207,673.6563" style="stroke:#181818;stroke-width:1;"/><text fill="#000000" font-family="sans-serif" font-size="13" lengthAdjust="spacing" textLength="192.3911" x="82.2207" y="655.5903">Add to weekly review agenda</text></g><rect fill="#EEEEEE" height="3" style="stroke:#EEEEEE;stroke-width:1;" width="1194.9727" x="0" y="709.2227"/><line style="stroke:#000000;stroke-width:1;" x1="0" x2="1194.9727" y1="709.2227" y2="709.2227"/><line style="stroke:#000000;stroke-width:1;" x1="0" x2="1194.9727" y1="712.2227" y2="712.2227"/><rect fill="#EEEEEE" height="23.1328" style="stroke:#000000;stroke-width:2;" width="164.5601" x="515.2063" y="698.6563"/><text fill="#000000" font-family="sans-serif" font-size="13" font-weight="bold" lengthAdjust="spacing" textLength="146.0342" x="521.2063" y="714.7231">Weekly Risk Review</text><g class="message" data-entity-1="part1" data-entity-2="part3" id="msg15"><polygon fill="#181818" points="513.4214,748.9219,523.4214,752.9219,513.4214,756.9219,517.4214,752.9219" style="stroke:#181818;stroke-width:1;"/><line style="stroke:#181818;stroke-width:1;" x1="75.2207" x2="519.4214" y1="752.9219" y2="752.9219"/><text fill="#000000" font-family="sans-serif" font-size="13" lengthAdjust="spacing" textLength="117.7046" x="82.2207" y="747.856">Review open risks</text></g><g class="message" data-entity-1="part1" data-entity-2="part6" id="msg16"><polygon fill="#181818" points="990.5747,778.0547,1000.5747,782.0547,990.5747,786.0547,994.5747,782.0547" style="stroke:#181818;stroke-width:1;"/><line style="stroke:#181818;stroke-width:1;" x1="75.2207" x2="996.5747" y1="782.0547" y2="782.0547"/><text fill="#000000" font-family="sans-serif" font-size="13" lengthAdjust="spacing" textLength="154.1782" x="82.2207" y="776.9888">Request status updates</text></g><g class="message" data-entity-1="part6" data-entity-2="part1" id="msg17"><polygon fill="#181818" points="86.2207,807.1875,76.2207,811.1875,86.2207,815.1875,82.2207,811.1875" style="stroke:#181818;stroke-width:1;"/><line style="stroke:#181818;stroke-width:1;" x1="80.2207" x2="1001.5747" y1="811.1875" y2="811.1875"/><text fill="#000000" font-family="sans-serif" font-size="13" lengthAdjust="spacing" textLength="179.7529" x="92.2207" y="806.1216">Provide mitigation progress</text></g><path d="M10,826.1875 L74.4429,826.1875 L74.4429,833.3203 L64.4429,843.3203 L10,843.3203 L10,826.1875" fill="#EEEEEE" style="stroke:#000000;stroke-width:1.5;"/><rect fill="none" height="103.2031" style="stroke:#000000;stroke-width:1.5;" width="455.9248" x="10" y="826.1875"/><text fill="#000000" font-family="sans-serif" font-size="13" font-weight="bold" lengthAdjust="spacing" textLength="19.4429" x="25" y="839.2544">alt</text><text fill="#000000" font-family="sans-serif" font-size="11" font-weight="bold" lengthAdjust="spacing" textLength="134.707" x="89.4429" y="838.3979">[Mitigation complete]</text><g class="message" data-entity-1="part1" data-entity-2="part1" id="msg18"><line style="stroke:#181818;stroke-width:1;" x1="75.2207" x2="117.2207" y1="864.4531" y2="864.4531"/><line style="stroke:#181818;stroke-width:1;" x1="117.2207" x2="117.2207" y1="864.4531" y2="877.4531"/><line style="stroke:#181818;stroke-width:1;" x1="76.2207" x2="117.2207" y1="877.4531" y2="877.4531"/><polygon fill="#181818" points="86.2207,873.4531,76.2207,877.4531,86.2207,881.4531,82.2207,877.4531" style="stroke:#181818;stroke-width:1;"/><text fill="#000000" font-family="sans-serif" font-size="13" lengthAdjust="spacing" textLength="84.3286" x="82.2207" y="859.3872">Re-score risk</text></g><line style="stroke:#000000;stroke-width:1;stroke-dasharray:2,2;" x1="10" x2="465.9248" y1="886.4531" y2="886.4531"/><text fill="#000000" font-family="sans-serif" font-size="11" font-weight="bold" lengthAdjust="spacing" textLength="125.7158" x="15" y="896.6636">[Mitigation blocked]</text><g class="message" data-entity-1="part1" data-entity-2="part2" id="msg19"><polygon fill="#181818" points="375.6304,917.3906,385.6304,921.3906,375.6304,925.3906,379.6304,921.3906" style="stroke:#181818;stroke-width:1;"/><line style="stroke:#181818;stroke-width:1;" x1="75.2207" x2="381.6304" y1="921.3906" y2="921.3906"/><text fill="#000000" font-family="sans-serif" font-size="13" lengthAdjust="spacing" textLength="106.7422" x="82.2207" y="916.3247">Escalate blocker</text></g><rect fill="#EEEEEE" height="3" style="stroke:#EEEEEE;stroke-width:1;" width="1194.9727" x="0" y="956.957"/><line style="stroke:#000000;stroke-width:1;" x1="0" x2="1194.9727" y1="956.957" y2="956.957"/><line style="stroke:#000000;stroke-width:1;" x1="0" x2="1194.9727" y1="959.957" y2="959.957"/><rect fill="#EEEEEE" height="23.1328" style="stroke:#000000;stroke-width:2;" width="129.083" x="532.9448" y="946.3906"/><text fill="#000000" font-family="sans-serif" font-size="13" font-weight="bold" lengthAdjust="spacing" textLength="110.5571" x="538.9448" y="962.4575">Risk Escalation</text><g class="message" data-entity-1="part1" data-entity-2="part2" id="msg20"><polygon fill="#181818" points="375.6304,996.6563,385.6304,1000.6563,375.6304,1004.6563,379.6304,1000.6563" style="stroke:#181818;stroke-width:1;"/><line style="stroke:#181818;stroke-width:1;" x1="75.2207" x2="381.6304" y1="1000.6563" y2="1000.6563"/><text fill="#000000" font-family="sans-serif" font-size="13" lengthAdjust="spacing" textLength="173.9893" x="82.2207" y="995.5903">Escalate High priority risks</text></g><path d="M309.3359,1015.6563 L373.7788,1015.6563 L373.7788,1022.7891 L363.7788,1032.7891 L309.3359,1032.7891 L309.3359,1015.6563" fill="#EEEEEE" style="stroke:#000000;stroke-width:1.5;"/><rect fill="none" height="75.3984" style="stroke:#000000;stroke-width:1.5;" width="875.6367" x="309.3359" y="1015.6563"/><text fill="#000000" font-family="sans-serif" font-size="13" font-weight="bold" lengthAdjust="spacing" textLength="19.4429" x="324.3359" y="1028.7231">alt</text><text fill="#000000" font-family="sans-serif" font-size="11" font-weight="bold" lengthAdjust="spacing" textLength="144.5952" x="388.7788" y="1027.8667">[Client-dependent risk]</text><g class="message" data-entity-1="part2" data-entity-2="part7" id="msg21"><polygon fill="#181818" points="1105.0688,1049.9219,1115.0688,1053.9219,1105.0688,1057.9219,1109.0688,1053.9219" style="stroke:#181818;stroke-width:1;"/><line style="stroke:#181818;stroke-width:1;" x1="387.6304" x2="1111.0688" y1="1053.9219" y2="1053.9219"/><text fill="#000000" font-family="sans-serif" font-size="13" lengthAdjust="spacing" textLength="167.2163" x="394.6304" y="1048.856">Escalate to client sponsor</text></g><g class="message" data-entity-1="part7" data-entity-2="part2" id="msg22"><polygon fill="#181818" points="398.6304,1079.0547,388.6304,1083.0547,398.6304,1087.0547,394.6304,1083.0547" style="stroke:#181818;stroke-width:1;"/><line style="stroke:#181818;stroke-width:1;" x1="392.6304" x2="1116.0688" y1="1083.0547" y2="1083.0547"/><text fill="#000000" font-family="sans-serif" font-size="13" lengthAdjust="spacing" textLength="151.3345" x="404.6304" y="1077.9888">Provide resolution path</text></g><path d="M10,1105.0547 L74.4429,1105.0547 L74.4429,1112.1875 L64.4429,1122.1875 L10,1122.1875 L10,1105.0547" fill="#EEEEEE" style="stroke:#000000;stroke-width:1.5;"/><rect fill="none" height="161.6641" style="stroke:#000000;stroke-width:1.5;" width="870.4683" x="10" y="1105.0547"/><text fill="#000000" font-family="sans-serif" font-size="13" font-weight="bold" lengthAdjust="spacing" textLength="19.4429" x="25" y="1118.1216">alt</text><text fill="#000000" font-family="sans-serif" font-size="11" font-weight="bold" lengthAdjust="spacing" textLength="125.9521" x="89.4429" y="1117.2651">[AI-IRB flagged risk]</text><g class="message" data-entity-1="part1" data-entity-2="part4" id="msg23"><polygon fill="#181818" points="637.6978,1139.3203,647.6978,1143.3203,637.6978,1147.3203,641.6978,1143.3203" style="stroke:#181818;stroke-width:1;"/><line style="stroke:#181818;stroke-width:1;" x1="75.2207" x2="643.6978" y1="1143.3203" y2="1143.3203"/><text fill="#000000" font-family="sans-serif" font-size="13" lengthAdjust="spacing" textLength="202.9155" x="82.2207" y="1138.2544">Escalate for compliance review</text></g><g class="message" data-entity-1="part4" data-entity-2="part4" id="msg24"><line style="stroke:#181818;stroke-width:1;" x1="649.6978" x2="691.6978" y1="1172.4531" y2="1172.4531"/><line style="stroke:#181818;stroke-width:1;" x1="691.6978" x2="691.6978" y1="1172.4531" y2="1185.4531"/><line style="stroke:#181818;stroke-width:1;" x1="650.6978" x2="691.6978" y1="1185.4531" y2="1185.4531"/><polygon fill="#181818" points="660.6978,1181.4531,650.6978,1185.4531,660.6978,1189.4531,656.6978,1185.4531" style="stroke:#181818;stroke-width:1;"/><text fill="#000000" font-family="sans-serif" font-size="13" lengthAdjust="spacing" textLength="211.7705" x="656.6978" y="1167.3872">Assess against AI-IRB thresholds</text></g><path d="M584.918,1200.4531 L649.3608,1200.4531 L649.3608,1207.5859 L639.3608,1217.5859 L584.918,1217.5859 L584.918,1200.4531" fill="#EEEEEE" style="stroke:#000000;stroke-width:1.5;"/><rect fill="none" height="59.2656" style="stroke:#000000;stroke-width:1.5;" width="241.6396" x="584.918" y="1200.4531"/><text fill="#000000" font-family="sans-serif" font-size="13" font-weight="bold" lengthAdjust="spacing" textLength="19.4429" x="599.918" y="1213.52">alt</text><text fill="#000000" font-family="sans-serif" font-size="11" font-weight="bold" lengthAdjust="spacing" textLength="123.9111" x="664.3608" y="1212.6636">[Exceeds threshold]</text><g class="message" data-entity-1="part4" data-entity-2="part4" id="msg25"><line style="stroke:#181818;stroke-width:1;" x1="649.6978" x2="691.6978" y1="1238.7188" y2="1238.7188"/><line style="stroke:#181818;stroke-width:1;" x1="691.6978" x2="691.6978" y1="1238.7188" y2="1251.7188"/><line style="stroke:#181818;stroke-width:1;" x1="650.6978" x2="691.6978" y1="1251.7188" y2="1251.7188"/><polygon fill="#181818" points="660.6978,1247.7188,650.6978,1251.7188,660.6978,1255.7188,656.6978,1251.7188" style="stroke:#181818;stroke-width:1;"/><text fill="#000000" font-family="sans-serif" font-size="13" lengthAdjust="spacing" textLength="157.8599" x="656.6978" y="1233.6528">Escalate to AI-IRB Board</text></g><rect fill="#EEEEEE" height="3" style="stroke:#EEEEEE;stroke-width:1;" width="1194.9727" x="0" y="1294.2852"/><line style="stroke:#000000;stroke-width:1;" x1="0" x2="1194.9727" y1="1294.2852" y2="1294.2852"/><line style="stroke:#000000;stroke-width:1;" x1="0" x2="1194.9727" y1="1297.2852" y2="1297.2852"/><rect fill="#EEEEEE" height="23.1328" style="stroke:#000000;stroke-width:2;" width="196.7617" x="499.1055" y="1283.7188"/><text fill="#000000" font-family="sans-serif" font-size="13" font-weight="bold" lengthAdjust="spacing" textLength="178.2358" x="505.1055" y="1299.7856">Gate Checkpoint Review</text><g class="message" data-entity-1="part1" data-entity-2="part5" id="msg26"><polygon fill="#181818" points="863.4683,1333.9844,873.4683,1337.9844,863.4683,1341.9844,867.4683,1337.9844" style="stroke:#181818;stroke-width:1;"/><line style="stroke:#181818;stroke-width:1;" x1="75.2207" x2="869.4683" y1="1337.9844" y2="1337.9844"/><text fill="#000000" font-family="sans-serif" font-size="13" lengthAdjust="spacing" textLength="250.3516" x="82.2207" y="1332.9185">Prepare gate checkpoint risk snapshot</text></g><g class="message" data-entity-1="part5" data-entity-2="part4" id="msg27"><polygon fill="#181818" points="660.6978,1363.1172,650.6978,1367.1172,660.6978,1371.1172,656.6978,1367.1172" style="stroke:#181818;stroke-width:1;"/><line style="stroke:#181818;stroke-width:1;" x1="654.6978" x2="874.4683" y1="1367.1172" y2="1367.1172"/><text fill="#000000" font-family="sans-serif" font-size="13" lengthAdjust="spacing" textLength="148.9795" x="666.6978" y="1362.0513">Submit for gate review</text></g><g class="message" data-entity-1="part4" data-entity-2="part4" id="msg28"><line style="stroke:#181818;stroke-width:1;" x1="649.6978" x2="691.6978" y1="1396.25" y2="1396.25"/><line style="stroke:#181818;stroke-width:1;" x1="691.6978" x2="691.6978" y1="1396.25" y2="1409.25"/><line style="stroke:#181818;stroke-width:1;" x1="650.6978" x2="691.6978" y1="1409.25" y2="1409.25"/><polygon fill="#181818" points="660.6978,1405.25,650.6978,1409.25,660.6978,1413.25,656.6978,1409.25" style="stroke:#181818;stroke-width:1;"/><text fill="#000000" font-family="sans-serif" font-size="13" lengthAdjust="spacing" textLength="153.4927" x="656.6978" y="1391.1841">Review all flagged risks</text></g><path d="M10,1424.25 L74.4429,1424.25 L74.4429,1431.3828 L64.4429,1441.3828 L10,1441.3828 L10,1424.25" fill="#EEEEEE" style="stroke:#000000;stroke-width:1.5;"/><rect fill="none" height="119.3359" style="stroke:#000000;stroke-width:1.5;" width="1049.165" x="10" y="1424.25"/><text fill="#000000" font-family="sans-serif" font-size="13" font-weight="bold" lengthAdjust="spacing" textLength="19.4429" x="25" y="1437.3169">alt</text><text fill="#000000" font-family="sans-serif" font-size="11" font-weight="bold" lengthAdjust="spacing" textLength="195.9482" x="89.4429" y="1436.4604">[Gate-blocking risk unresolved]</text><g class="message" data-entity-1="part4" data-entity-2="part1" id="msg29"><polygon fill="#181818" points="86.2207,1458.5156,76.2207,1462.5156,86.2207,1466.5156,82.2207,1462.5156" style="stroke:#181818;stroke-width:1;"/><line style="stroke:#181818;stroke-width:1;" x1="80.2207" x2="648.6978" y1="1462.5156" y2="1462.5156"/><text fill="#000000" font-family="sans-serif" font-size="13" lengthAdjust="spacing" textLength="144.1235" x="92.2207" y="1457.4497">Gate passage blocked</text></g><g class="message" data-entity-1="part1" data-entity-2="part6" id="msg30"><polygon fill="#181818" points="990.5747,1487.6484,1000.5747,1491.6484,990.5747,1495.6484,994.5747,1491.6484" style="stroke:#181818;stroke-width:1;"/><line style="stroke:#181818;stroke-width:1;" x1="75.2207" x2="996.5747" y1="1491.6484" y2="1491.6484"/><text fill="#000000" font-family="sans-serif" font-size="13" lengthAdjust="spacing" textLength="126.1914" x="82.2207" y="1486.5825">Prioritize resolution</text></g><line style="stroke:#000000;stroke-width:1;stroke-dasharray:2,2;" x1="10" x2="1059.165" y1="1500.6484" y2="1500.6484"/><text fill="#000000" font-family="sans-serif" font-size="11" font-weight="bold" lengthAdjust="spacing" textLength="130.958" x="15" y="1510.8589">[All risks acceptable]</text><g class="message" data-entity-1="part4" data-entity-2="part1" id="msg31"><polygon fill="#181818" points="86.2207,1531.5859,76.2207,1535.5859,86.2207,1539.5859,82.2207,1535.5859" style="stroke:#181818;stroke-width:1;"/><line style="stroke:#181818;stroke-width:1;" x1="80.2207" x2="648.6978" y1="1535.5859" y2="1535.5859"/><text fill="#000000" font-family="sans-serif" font-size="13" lengthAdjust="spacing" textLength="155.0923" x="92.2207" y="1530.52">Gate passage approved</text></g><rect fill="#EEEEEE" height="3" style="stroke:#EEEEEE;stroke-width:1;" width="1194.9727" x="0" y="1571.1523"/><line style="stroke:#000000;stroke-width:1;" x1="0" x2="1194.9727" y1="1571.1523" y2="1571.1523"/><line style="stroke:#000000;stroke-width:1;" x1="0" x2="1194.9727" y1="1574.1523" y2="1574.1523"/><rect fill="#EEEEEE" height="23.1328" style="stroke:#000000;stroke-width:2;" width="109.0498" x="542.9614" y="1560.5859"/><text fill="#000000" font-family="sans-serif" font-size="13" font-weight="bold" lengthAdjust="spacing" textLength="90.5239" x="548.9614" y="1576.6528">Risk Closure</text><g class="message" data-entity-1="part6" data-entity-2="part1" id="msg32"><polygon fill="#181818" points="86.2207,1610.8516,76.2207,1614.8516,86.2207,1618.8516,82.2207,1614.8516" style="stroke:#181818;stroke-width:1;"/><line style="stroke:#181818;stroke-width:1;" x1="80.2207" x2="1001.5747" y1="1614.8516" y2="1614.8516"/><text fill="#000000" font-family="sans-serif" font-size="13" lengthAdjust="spacing" textLength="224.3389" x="92.2207" y="1609.7856">Propose risk closure with rationale</text></g><g class="message" data-entity-1="part1" data-entity-2="part1" id="msg33"><line style="stroke:#181818;stroke-width:1;" x1="75.2207" x2="117.2207" y1="1643.9844" y2="1643.9844"/><line style="stroke:#181818;stroke-width:1;" x1="117.2207" x2="117.2207" y1="1643.9844" y2="1656.9844"/><line style="stroke:#181818;stroke-width:1;" x1="76.2207" x2="117.2207" y1="1656.9844" y2="1656.9844"/><polygon fill="#181818" points="86.2207,1652.9844,76.2207,1656.9844,86.2207,1660.9844,82.2207,1656.9844" style="stroke:#181818;stroke-width:1;"/><text fill="#000000" font-family="sans-serif" font-size="13" lengthAdjust="spacing" textLength="154.8511" x="82.2207" y="1638.9185">Validate closure criteria</text></g><path d="M10,1671.9844 L74.4429,1671.9844 L74.4429,1679.1172 L64.4429,1689.1172 L10,1689.1172 L10,1671.9844" fill="#EEEEEE" style="stroke:#000000;stroke-width:1.5;"/><rect fill="none" height="133.6641" style="stroke:#000000;stroke-width:1.5;" width="704.4775" x="10" y="1671.9844"/><text fill="#000000" font-family="sans-serif" font-size="13" font-weight="bold" lengthAdjust="spacing" textLength="19.4429" x="25" y="1685.0513">alt</text><text fill="#000000" font-family="sans-serif" font-size="11" font-weight="bold" lengthAdjust="spacing" textLength="116.9663" x="89.4429" y="1684.1948">[Priority was High]</text><g class="message" data-entity-1="part1" data-entity-2="part2" id="msg34"><polygon fill="#181818" points="375.6304,1706.25,385.6304,1710.25,375.6304,1714.25,379.6304,1710.25" style="stroke:#181818;stroke-width:1;"/><line style="stroke:#181818;stroke-width:1;" x1="75.2207" x2="381.6304" y1="1710.25" y2="1710.25"/><text fill="#000000" font-family="sans-serif" font-size="13" lengthAdjust="spacing" textLength="165.7627" x="82.2207" y="1705.1841">Request closure approval</text></g><g class="message" data-entity-1="part1" data-entity-2="part4" id="msg35"><polygon fill="#181818" points="637.6978,1735.3828,647.6978,1739.3828,637.6978,1743.3828,641.6978,1739.3828" style="stroke:#181818;stroke-width:1;"/><line style="stroke:#181818;stroke-width:1;" x1="75.2207" x2="643.6978" y1="1739.3828" y2="1739.3828"/><text fill="#000000" font-family="sans-serif" font-size="13" lengthAdjust="spacing" textLength="165.7627" x="82.2207" y="1734.3169">Request closure approval</text></g><g class="message" data-entity-1="part2" data-entity-2="part1" id="msg36"><polygon fill="#181818" points="86.2207,1764.5156,76.2207,1768.5156,86.2207,1772.5156,82.2207,1768.5156" style="stroke:#181818;stroke-width:1;"/><line style="stroke:#181818;stroke-width:1;" x1="80.2207" x2="386.6304" y1="1768.5156" y2="1768.5156"/><text fill="#000000" font-family="sans-serif" font-size="13" lengthAdjust="spacing" textLength="54.3867" x="92.2207" y="1763.4497">Approve</text></g><g class="message" data-entity-1="part4" data-entity-2="part1" id="msg37"><polygon fill="#181818" points="86.2207,1793.6484,76.2207,1797.6484,86.2207,1801.6484,82.2207,1797.6484" style="stroke:#181818;stroke-width:1;"/><line style="stroke:#181818;stroke-width:1;" x1="80.2207" x2="648.6978" y1="1797.6484" y2="1797.6484"/><text fill="#000000" font-family="sans-serif" font-size="13" lengthAdjust="spacing" textLength="54.3867" x="92.2207" y="1792.5825">Approve</text></g><g class="message" data-entity-1="part1" data-entity-2="part1" id="msg38"><line style="stroke:#181818;stroke-width:1;" x1="75.2207" x2="117.2207" y1="1833.7813" y2="1833.7813"/><line style="stroke:#181818;stroke-width:1;" x1="117.2207" x2="117.2207" y1="1833.7813" y2="1846.7813"/><line style="stroke:#181818;stroke-width:1;" x1="76.2207" x2="117.2207" y1="1846.7813" y2="1846.7813"/><polygon fill="#181818" points="86.2207,1842.7813,76.2207,1846.7813,86.2207,1850.7813,82.2207,1846.7813" style="stroke:#181818;stroke-width:1;"/><text fill="#000000" font-family="sans-serif" font-size="13" lengthAdjust="spacing" textLength="291.916" x="82.2207" y="1828.7153">Update status to Closed, document rationale</text></g><?plantuml-src VLLBRXiv4DttAGfPsO05ny4a2mCEq94p6G4IP4lAP4snIzs4sMGFoRQYt20do0boajma9qdnqpzb42q4gVbOzTwhJplX9C9s_J2xUVdcrUpbpInVm4RO9zXWAQn30okcM8arAfTb3JDESD4mvU35FKhnZEO4IsJ52s0MxfTJHCwvRkb736429bzDCJlabHASoI7CxZpCOhROl8EbOC9g5I3qVufvR9aKxWIvjQrXYcE0FUPJL52sFgh4PREU7i-b89cmRRIoEaBcsooxkpkpPA644vJl2tD2AxYxo-wNC7jB-czXRf0v1DDX3qRNuB1k93rEk7nr2n-Og-YOwxf6modQjK4PujbAD60eeKtmtRA7E--MbheyNGlbi3IHmHZjIMpmMU2Hwlhf2dWKrHXz41Ale29UsWJ76-Q8eXhVt79jCCQ3Y-MFRujBOAeW9wme5MXlNGUd6jp2tvAL2NuKhW9qbGzzJReQANmXGFXVF4hBV26d94FuXkWz8nmeMed5HCzZVWl_ajd5nDOG7nqgj3Pxp7ltjJe8KyEUMUfEvI-muXHAk5Qb5ggCfLmKv8au95g-WfjrRq6xhuK3HTmy3xXWwaJ6infghFTeBaTsxOoWpWxIXO9NVq6bMpA8IGV_YBA21oF8Q-hBYsZipw_VRrvVPa2VeHKMr0A5yFAK7aYDGC7f_qU1E42QZsHUXj8Yh0ZRrjTBVUmvZ09wwdbHWDDmH7oI9_8f5gD4LR2Cle9dd-9Xwlw0w9jzDvHGDpZjmStQd_tNedLW7NEjXRRn1RGZdn-evA908BD56SLG5vJ6LzGRk1gUTzK-ax31cUtxDUaUBksbva_anzJizvRQqxiOZqslDOXCfvEfdjmALMswgaRDdcnS7RC2oGhVMv6IJvslV93vTXI4R4zJQUEg2S3vjilMEKDMQDb6PsZ-0rMVR5hm8TMeM_fS1vs69GvZh7D0fr4CS5gRP3kLdmbb-mIk8WQLbeKD5tpgzvyvOc67et1o7cwiDCLwfvc9OA-YC_s31yqhv4yD3QVxhSdyy3yOf2sDK7ei7x1XEArY3V5mQGU4x6c0lV8oBesWUKomsprIdkqShz6JceNsyFiYf6bLgCLpQgVH5WiA6jgFVW_ytd9-4j80YY_ZYiPspOb0t9wCSsmSsqlyOuQqAOjfsywbfjSUJlSOTL6ZRHmEwhU824iwlZMOnD4cwrTiX-H46Mcz1KlwFNQaTwAVWREfweQzknnfCddUbd_4nKa9kocgF7UYU-or3ym_XitIxHdgEEy65bTGQDxMOHOxlRy0?></g></svg>