<?xml version="1.0" encoding="UTF-8" standalone="no"?><svg xmlns="http://www.w3.org/2000/svg" xmlns:xlink="http://www.w3.org/1999/xlink" contentStyleType="text/css" height="975px" preserveAspectRatio="none" style="width:2103px;height:975px;background:#FFFFFF;" version="1.1" viewBox="0 0 2103 975" width="2103px" zoomAndPan="magnify"><defs/><g><rect fill="none" height="103.2031" style="stroke:#000000;stroke-width:1.5;" width="1104" x="10" y="111.5625"/><rect fill="none" height="134.1406" style="stroke:#000000;stroke-width:1.5;" width="434.5" x="10" y="387.4297"/><rect fill="none" height="67.0703" style="stroke:#000000;stroke-width:1.5;" width="1764.5" x="331.5" y="856.0313"/><line style="stroke:#181818;stroke-width:0.5;stroke-dasharray:5.0,5.0;" x1="82" x2="82" y1="36.2969" y2="940.1016"/><line style="stroke:#181818;stroke-width:0.5;stroke-dasharray:5.0,5.0;" x1="387.5" x2="387.5" y1="36.2969" y2="940.1016"/><line style="stroke:#181818;stroke-width:0.5;stroke-dasharray:5.0,5.0;" x1="674.5" x2="674.5" y1="36.2969" y2="940.1016"/><line style="stroke:#181818;stroke-width:0.5;stroke-dasharray:5.0,5.0;" x1="1108.5" x2="1108.5" y1="36.2969" y2="940.1016"/><line style="stroke:#181818;stroke-width:0.5;stroke-dasharray:5.0,5.0;" x1="1266.5" x2="1266.5" y1="36.2969" y2="940.1016"/><line style="stroke:#181818;stroke-width:0.5;stroke-dasharray:5.0,5.0;" x1="1429.5" x2="1429.5" y1="36.2969" y2="940.1016"/><line style="stroke:#181818;stroke-width:0.5;stroke-dasharray:5.0,5.0;" x1="1568.5" x2="1568.5" y1="36.2969" y2="940.1016"/><line style="stroke:#181818;stroke-width:0.5;stroke-dasharray:5.0,5.0;" x1="1699.5" x2="1699.5" y1="36.2969" y2="940.1016"/><rect fill="#E2E2F0" height="30.2969" rx="2.5" ry="2.5" style="stroke:#181818;stroke-width:0.5;" width="124" x="20" y="5"/><text fill="#000000" font-family="sans-serif" font-size="14" lengthAdjust="spacing" textLength="110" x="27" y="24.9951">Project Sponsor</text><rect fill="#E2E2F0" height="30.2969" rx="2.5" ry="2.5" style="stroke:#181818;stroke-width:0.5;" width="124" x="20" y="939.1016"/><text fill="#000000" font-family="sans-serif" font-size="14" lengthAdjust="spacing" textLength="110" x="27" y="959.0967">Project Sponsor</text><rect fill="#E2E2F0" height="30.2969" rx="2.5" ry="2.5" style="stroke:#181818;stroke-width:0.5;" width="93" x="341.5" y="5"/><text fill="#000000" font-family="sans-serif" font-size="14" lengthAdjust="spacing" textLength="79" x="348.5" y="24.9951">AI-IRB Chair</text><rect fill="#E2E2F0" height="30.2969" rx="2.5" ry="2.5" style="stroke:#181818;stroke-width:0.5;" width="93" x="341.5" y="939.1016"/><text fill="#000000" font-family="sans-serif" font-size="14" lengthAdjust="spacing" textLength="79" x="348.5" y="959.0967">AI-IRB Chair</text><rect fill="#E2E2F0" height="30.2969" rx="2.5" ry="2.5" style="stroke:#181818;stroke-width:0.5;" width="123" x="613.5" y="5"/><text fill="#000000" font-family="sans-serif" font-size="14" lengthAdjust="spacing" textLength="109" x="620.5" y="24.9951">AI-IRB Members</text><rect fill="#E2E2F0" height="30.2969" rx="2.5" ry="2.5" style="stroke:#181818;stroke-width:0.5;" width="123" x="613.5" y="939.1016"/><text fill="#000000" font-family="sans-serif" font-size="14" lengthAdjust="spacing" textLength="109" x="620.5" y="959.0967">AI-IRB Members</text><rect fill="#E2E2F0" height="30.2969" rx="2.5" ry="2.5" style="stroke:#181818;stroke-width:0.5;" width="157" x="1030.5" y="5"/><text fill="#000000" font-family="sans-serif" font-size="14" lengthAdjust="spacing" textLength="143" x="1037.5" y="24.9951">AI Governance Office</text><rect fill="#E2E2F0" height="30.2969" rx="2.5" ry="2.5" style="stroke:#181818;stroke-width:0.5;" width="157" x="1030.5" y="939.1016"/><text fill="#000000" font-family="sans-serif" font-size="14" lengthAdjust="spacing" textLength="143" x="1037.5" y="959.0967">AI Governance Office</text><rect fill="#E2E2F0" height="30.2969" rx="2.5" ry="2.5" style="stroke:#181818;stroke-width:0.5;" width="139" x="1197.5" y="5"/><text fill="#000000" font-family="sans-serif" font-size="14" lengthAdjust="spacing" textLength="125" x="1204.5" y="24.9951">Engineering Dept.</text><rect fill="#E2E2F0" height="30.2969" rx="2.5" ry="2.5" style="stroke:#181818;stroke-width:0.5;" width="139" x="1197.5" y="939.1016"/><text fill="#000000" font-family="sans-serif" font-size="14" lengthAdjust="spacing" textLength="125" x="1204.5" y="959.0967">Engineering Dept.</text><rect fill="#E2E2F0" height="30.2969" rx="2.5" ry="2.5" style="stroke:#181818;stroke-width:0.5;" width="167" x="1346.5" y="5"/><text fill="#000000" font-family="sans-serif" font-size="14" lengthAdjust="spacing" textLength="153" x="1353.5" y="24.9951">Product/Tech Support</text><rect fill="#E2E2F0" height="30.2969" rx="2.5" ry="2.5" style="stroke:#181818;stroke-width:0.5;" width="167" x="1346.5" y="939.1016"/><text fill="#000000" font-family="sans-serif" font-size="14" lengthAdjust="spacing" textLength="153" x="1353.5" y="959.0967">Product/Tech Support</text><rect fill="#E2E2F0" height="30.2969" rx="2.5" ry="2.5" style="stroke:#181818;stroke-width:0.5;" width="90" x="1523.5" y="5"/><text fill="#000000" font-family="sans-serif" font-size="14" lengthAdjust="spacing" textLength="76" x="1530.5" y="24.9951">Operations</text><rect fill="#E2E2F0" height="30.2969" rx="2.5" ry="2.5" style="stroke:#181818;stroke-width:0.5;" width="90" x="1523.5" y="939.1016"/><text fill="#000000" font-family="sans-serif" font-size="14" lengthAdjust="spacing" textLength="76" x="1530.5" y="959.0967">Operations</text><rect fill="#E2E2F0" height="30.2969" rx="2.5" ry="2.5" style="stroke:#181818;stroke-width:0.5;" width="153" x="1623.5" y="5"/><text fill="#000000" font-family="sans-serif" font-size="14" lengthAdjust="spacing" textLength="139" x="1630.5" y="24.9951">Senior Management</text><rect fill="#E2E2F0" height="30.2969" rx="2.5" ry="2.5" style="stroke:#181818;stroke-width:0.5;" width="153" x="1623.5" y="939.1016"/><text fill="#000000" font-family="sans-serif" font-size="14" lengthAdjust="spacing" textLength="139" x="1630.5" y="959.0967">Senior Management</text><polygon fill="#181818" points="376,63.4297,386,67.4297,376,71.4297,380,67.4297" style="stroke:#181818;stroke-width:1.0;"/><line style="stroke:#181818;stroke-width:1.0;" x1="82" x2="382" y1="67.4297" y2="67.4297"/><text fill="#000000" font-family="sans-serif" font-size="13" lengthAdjust="spacing" textLength="238" x="89" y="62.3638">Submits AI-IRB Project Proposal Form</text><polygon fill="#181818" points="663,92.5625,673,96.5625,663,100.5625,667,96.5625" style="stroke:#181818;stroke-width:1.0;"/><line style="stroke:#181818;stroke-width:1.0;" x1="388" x2="669" y1="96.5625" y2="96.5625"/><text fill="#000000" font-family="sans-serif" font-size="13" lengthAdjust="spacing" textLength="245" x="395" y="91.4966">Distribute proposal for initial screening</text><path d="M10,111.5625 L74,111.5625 L74,118.6953 L64,128.6953 L10,128.6953 L10,111.5625 " fill="#EEEEEE" style="stroke:#000000;stroke-width:1.5;"/><rect fill="none" height="103.2031" style="stroke:#000000;stroke-width:1.5;" width="1104" x="10" y="111.5625"/><text fill="#000000" font-family="sans-serif" font-size="13" font-weight="bold" lengthAdjust="spacing" textLength="19" x="25" y="124.6294">alt</text><text fill="#000000" font-family="sans-serif" font-size="11" font-weight="bold" lengthAdjust="spacing" textLength="147" x="89" y="123.7729">[Major gaps identified]</text><polygon fill="#181818" points="93,145.8281,83,149.8281,93,153.8281,89,149.8281" style="stroke:#181818;stroke-width:1.0;"/><line style="stroke:#181818;stroke-width:1.0;" x1="87" x2="387" y1="149.8281" y2="149.8281"/><text fill="#000000" font-family="sans-serif" font-size="13" lengthAdjust="spacing" textLength="209" x="99" y="144.7622">Request clarifications/further info</text><line style="stroke:#000000;stroke-width:1.0;stroke-dasharray:2.0,2.0;" x1="10" x2="1114" y1="158.8281" y2="158.8281"/><text fill="#000000" font-family="sans-serif" font-size="11" font-weight="bold" lengthAdjust="spacing" textLength="113" x="15" y="169.0386">[Sufficient detail]</text><line style="stroke:#181818;stroke-width:1.0;" x1="675" x2="717" y1="193.7656" y2="193.7656"/><line style="stroke:#181818;stroke-width:1.0;" x1="717" x2="717" y1="193.7656" y2="206.7656"/><line style="stroke:#181818;stroke-width:1.0;" x1="676" x2="717" y1="206.7656" y2="206.7656"/><polygon fill="#181818" points="686,202.7656,676,206.7656,686,210.7656,682,206.7656" style="stroke:#181818;stroke-width:1.0;"/><text fill="#000000" font-family="sans-serif" font-size="13" lengthAdjust="spacing" textLength="420" x="682" y="188.6997">Perform preliminary analysis (data privacy, risk classification, etc.)</text><line style="stroke:#181818;stroke-width:1.0;" x1="388" x2="430" y1="242.8984" y2="242.8984"/><line style="stroke:#181818;stroke-width:1.0;" x1="430" x2="430" y1="242.8984" y2="255.8984"/><line style="stroke:#181818;stroke-width:1.0;" x1="389" x2="430" y1="255.8984" y2="255.8984"/><polygon fill="#181818" points="399,251.8984,389,255.8984,399,259.8984,395,255.8984" style="stroke:#181818;stroke-width:1.0;"/><text fill="#000000" font-family="sans-serif" font-size="13" lengthAdjust="spacing" textLength="157" x="395" y="237.8325">Schedule AI-IRB meeting</text><polygon fill="#181818" points="93,281.0313,83,285.0313,93,289.0313,89,285.0313" style="stroke:#181818;stroke-width:1.0;"/><line style="stroke:#181818;stroke-width:1.0;" x1="87" x2="387" y1="285.0313" y2="285.0313"/><text fill="#000000" font-family="sans-serif" font-size="13" lengthAdjust="spacing" textLength="209" x="99" y="279.9653">Invite Project Sponsor to present</text><polygon fill="#181818" points="663,310.1641,673,314.1641,663,318.1641,667,314.1641" style="stroke:#181818;stroke-width:1.0;"/><line style="stroke:#181818;stroke-width:1.0;" x1="82" x2="669" y1="314.1641" y2="314.1641"/><text fill="#000000" font-family="sans-serif" font-size="13" lengthAdjust="spacing" textLength="291" x="89" y="309.0981">Present project scope, objectives, data usage</text><polygon fill="#181818" points="399,339.2969,389,343.2969,399,347.2969,395,343.2969" style="stroke:#181818;stroke-width:1.0;"/><line style="stroke:#181818;stroke-width:1.0;" x1="393" x2="674" y1="343.2969" y2="343.2969"/><text fill="#000000" font-family="sans-serif" font-size="13" lengthAdjust="spacing" textLength="236" x="405" y="338.231">Discuss concerns, recommendations</text><polygon fill="#181818" points="1097,368.4297,1107,372.4297,1097,376.4297,1101,372.4297" style="stroke:#181818;stroke-width:1.0;"/><line style="stroke:#181818;stroke-width:1.0;" x1="388" x2="1103" y1="372.4297" y2="372.4297"/><text fill="#000000" font-family="sans-serif" font-size="13" lengthAdjust="spacing" textLength="253" x="395" y="367.3638">Record meeting minutes/decision notes</text><path d="M10,387.4297 L74,387.4297 L74,394.5625 L64,404.5625 L10,404.5625 L10,387.4297 " fill="#EEEEEE" style="stroke:#000000;stroke-width:1.5;"/><rect fill="none" height="134.1406" style="stroke:#000000;stroke-width:1.5;" width="434.5" x="10" y="387.4297"/><text fill="#000000" font-family="sans-serif" font-size="13" font-weight="bold" lengthAdjust="spacing" textLength="19" x="25" y="400.4966">alt</text><text fill="#000000" font-family="sans-serif" font-size="11" font-weight="bold" lengthAdjust="spacing" textLength="70" x="89" y="399.6401">[Approved]</text><polygon fill="#181818" points="93,421.6953,83,425.6953,93,429.6953,89,425.6953" style="stroke:#181818;stroke-width:1.0;"/><line style="stroke:#181818;stroke-width:1.0;" x1="87" x2="387" y1="425.6953" y2="425.6953"/><text fill="#000000" font-family="sans-serif" font-size="13" lengthAdjust="spacing" textLength="282" x="99" y="420.6294">Notifies approval (with or without conditions)</text><line style="stroke:#000000;stroke-width:1.0;stroke-dasharray:2.0,2.0;" x1="10" x2="444.5" y1="434.6953" y2="434.6953"/><text fill="#000000" font-family="sans-serif" font-size="11" font-weight="bold" lengthAdjust="spacing" textLength="66" x="15" y="444.9058">[Deferred]</text><polygon fill="#181818" points="93,465.6328,83,469.6328,93,473.6328,89,469.6328" style="stroke:#181818;stroke-width:1.0;"/><line style="stroke:#181818;stroke-width:1.0;" x1="87" x2="387" y1="469.6328" y2="469.6328"/><text fill="#000000" font-family="sans-serif" font-size="13" lengthAdjust="spacing" textLength="208" x="99" y="464.5669">Notifies deferral; rework required</text><line style="stroke:#000000;stroke-width:1.0;stroke-dasharray:2.0,2.0;" x1="10" x2="444.5" y1="478.6328" y2="478.6328"/><text fill="#000000" font-family="sans-serif" font-size="11" font-weight="bold" lengthAdjust="spacing" textLength="66" x="15" y="488.8433">[Rejected]</text><polygon fill="#181818" points="93,509.5703,83,513.5703,93,517.5703,89,513.5703" style="stroke:#181818;stroke-width:1.0;"/><line style="stroke:#181818;stroke-width:1.0;" x1="87" x2="387" y1="513.5703" y2="513.5703"/><text fill="#000000" font-family="sans-serif" font-size="13" lengthAdjust="spacing" textLength="107" x="99" y="508.5044">Notifies rejection</text><polygon fill="#181818" points="1255,545.7031,1265,549.7031,1255,553.7031,1259,549.7031" style="stroke:#181818;stroke-width:1.0;"/><line style="stroke:#181818;stroke-width:1.0;" x1="82" x2="1261" y1="549.7031" y2="549.7031"/><text fill="#000000" font-family="sans-serif" font-size="13" lengthAdjust="spacing" textLength="301" x="89" y="544.6372">Address AI-IRB conditions / implement changes</text><polygon fill="#181818" points="93,574.8359,83,578.8359,93,582.8359,89,578.8359" style="stroke:#181818;stroke-width:1.0;"/><line style="stroke:#181818;stroke-width:1.0;" x1="87" x2="1266" y1="578.8359" y2="578.8359"/><text fill="#000000" font-family="sans-serif" font-size="13" lengthAdjust="spacing" textLength="307" x="99" y="573.77">Provide updated compliance or revised proposal</text><polygon fill="#181818" points="376,603.9688,386,607.9688,376,611.9688,380,607.9688" style="stroke:#181818;stroke-width:1.0;"/><line style="stroke:#181818;stroke-width:1.0;" x1="82" x2="382" y1="607.9688" y2="607.9688"/><text fill="#000000" font-family="sans-serif" font-size="13" lengthAdjust="spacing" textLength="215" x="89" y="602.9028">Submit revised artifacts if needed</text><polygon fill="#181818" points="663,633.1016,673,637.1016,663,641.1016,667,637.1016" style="stroke:#181818;stroke-width:1.0;"/><line style="stroke:#181818;stroke-width:1.0;" x1="388" x2="669" y1="637.1016" y2="637.1016"/><text fill="#000000" font-family="sans-serif" font-size="13" lengthAdjust="spacing" textLength="215" x="395" y="632.0356">Final review of revised submission</text><polygon fill="#181818" points="399,662.2344,389,666.2344,399,670.2344,395,666.2344" style="stroke:#181818;stroke-width:1.0;"/><line style="stroke:#181818;stroke-width:1.0;" x1="393" x2="674" y1="666.2344" y2="666.2344"/><text fill="#000000" font-family="sans-serif" font-size="13" lengthAdjust="spacing" textLength="116" x="405" y="661.1685">Confirm readiness</text><polygon fill="#181818" points="1097,691.3672,1107,695.3672,1097,699.3672,1101,695.3672" style="stroke:#181818;stroke-width:1.0;"/><line style="stroke:#181818;stroke-width:1.0;" x1="388" x2="1103" y1="695.3672" y2="695.3672"/><text fill="#000000" font-family="sans-serif" font-size="13" lengthAdjust="spacing" textLength="160" x="395" y="690.3013">Update Decision Registry</text><polygon fill="#181818" points="1556.5,720.5,1566.5,724.5,1556.5,728.5,1560.5,724.5" style="stroke:#181818;stroke-width:1.0;"/><line style="stroke:#181818;stroke-width:1.0;" x1="388" x2="1562.5" y1="724.5" y2="724.5"/><text fill="#000000" font-family="sans-serif" font-size="13" lengthAdjust="spacing" textLength="383" x="395" y="719.4341">Issue formal clearance for deployment (if all conditions met)</text><polygon fill="#181818" points="399,749.6328,389,753.6328,399,757.6328,395,753.6328" style="stroke:#181818;stroke-width:1.0;"/><line style="stroke:#181818;stroke-width:1.0;" x1="393" x2="1567.5" y1="753.6328" y2="753.6328"/><text fill="#000000" font-family="sans-serif" font-size="13" lengthAdjust="spacing" textLength="180" x="405" y="748.5669">Confirms release scheduling</text><polygon fill="#181818" points="1418,778.7656,1428,782.7656,1418,786.7656,1422,782.7656" style="stroke:#181818;stroke-width:1.0;"/><line style="stroke:#181818;stroke-width:1.0;" x1="388" x2="1424" y1="782.7656" y2="782.7656"/><text fill="#000000" font-family="sans-serif" font-size="13" lengthAdjust="spacing" textLength="250" x="395" y="777.6997">Coordinate end-user training, if needed</text><polygon fill="#181818" points="399,807.8984,389,811.8984,399,815.8984,395,811.8984" style="stroke:#181818;stroke-width:1.0;"/><line style="stroke:#181818;stroke-width:1.0;" x1="393" x2="1108" y1="811.8984" y2="811.8984"/><text fill="#000000" font-family="sans-serif" font-size="13" lengthAdjust="spacing" textLength="334" x="405" y="806.8325">Schedule post-implementation check (~30-90 days)</text><polygon fill="#181818" points="663,837.0313,673,841.0313,663,845.0313,667,841.0313" style="stroke:#181818;stroke-width:1.0;"/><line style="stroke:#181818;stroke-width:1.0;" x1="388" x2="669" y1="841.0313" y2="841.0313"/><text fill="#000000" font-family="sans-serif" font-size="13" lengthAdjust="spacing" textLength="263" x="395" y="835.9653">Evaluate real-world metrics, performance</text><path d="M331.5,856.0313 L395.5,856.0313 L395.5,863.1641 L385.5,873.1641 L331.5,873.1641 L331.5,856.0313 " fill="#EEEEEE" style="stroke:#000000;stroke-width:1.5;"/><rect fill="none" height="67.0703" style="stroke:#000000;stroke-width:1.5;" width="1764.5" x="331.5" y="856.0313"/><text fill="#000000" font-family="sans-serif" font-size="13" font-weight="bold" lengthAdjust="spacing" textLength="19" x="346.5" y="869.0981">alt</text><text fill="#000000" font-family="sans-serif" font-size="11" font-weight="bold" lengthAdjust="spacing" textLength="174" x="410.5" y="868.2417">[Non-compliance detected]</text><polygon fill="#181818" points="1688,893.2969,1698,897.2969,1688,901.2969,1692,897.2969" style="stroke:#181818;stroke-width:1.0;"/><line style="stroke:#181818;stroke-width:1.0;" x1="388" x2="1694" y1="897.2969" y2="897.2969"/><text fill="#000000" font-family="sans-serif" font-size="13" lengthAdjust="spacing" textLength="310" x="395" y="892.231">Escalate major concerns for executive resolution</text><path d="M1705,878.1641 L1705,903.1641 L2081,903.1641 L2081,888.1641 L2071,878.1641 L1705,878.1641 " fill="#FEFFDD" style="stroke:#181818;stroke-width:0.5;"/><path d="M2071,878.1641 L2071,888.1641 L2081,888.1641 L2071,878.1641 " fill="#FEFFDD" style="stroke:#181818;stroke-width:0.5;"/><text fill="#000000" font-family="sans-serif" font-size="13" lengthAdjust="spacing" textLength="355" x="1711" y="895.231">Project remains in good standing under AI-IRB oversight</text><line style="stroke:#000000;stroke-width:1.0;stroke-dasharray:2.0,2.0;" x1="331.5" x2="2096" y1="909.2969" y2="909.2969"/><text fill="#000000" font-family="sans-serif" font-size="11" font-weight="bold" lengthAdjust="spacing" textLength="119" x="336.5" y="919.5073">[All in compliance]</text><!--MD5=[919c72d3549e843a87fabdf328dd07d5]
@startuml
' Define participants (Roles)
participant "Project Sponsor" as PS
participant "AI-IRB Chair" as CHAIR
participant "AI-IRB Members" as MEMBERS
participant "AI Governance Office" as GOV
participant "Engineering Dept." as ENG
participant "Product/Tech Support" as PTS
participant "Operations" as OPS
participant "Senior Management" as SM

' 1. Project proposal submission
PS -> CHAIR: Submits AI-IRB Project Proposal Form
CHAIR -> MEMBERS: Distribute proposal for initial screening

alt Major gaps identified
  CHAIR -> PS: Request clarifications/further info
else Sufficient detail
  MEMBERS -> MEMBERS: Perform preliminary analysis (data privacy, risk classification, etc.)
end

' 2. AI-IRB Meeting
CHAIR -> CHAIR: Schedule AI-IRB meeting
CHAIR -> PS: Invite Project Sponsor to present
PS -> MEMBERS: Present project scope, objectives, data usage

' 3. Deliberation
MEMBERS -> CHAIR: Discuss concerns, recommendations
CHAIR -> GOV: Record meeting minutes/decision notes

' 4. Decision outcomes
alt Approved
  CHAIR -> PS: Notifies approval (with or without conditions)
else Deferred
  CHAIR -> PS: Notifies deferral; rework required
else Rejected
  CHAIR -> PS: Notifies rejection
end

' 5. Tracking conditions and follow-up
PS -> ENG: Address AI-IRB conditions / implement changes
ENG -> PS: Provide updated compliance or revised proposal
PS -> CHAIR: Submit revised artifacts if needed

' 6. Final sign-off
CHAIR -> MEMBERS: Final review of revised submission
MEMBERS -> CHAIR: Confirm readiness
CHAIR -> GOV: Update Decision Registry

' 7. Deployment clearance
CHAIR -> OPS: Issue formal clearance for deployment (if all conditions met)
OPS -> CHAIR: Confirms release scheduling
CHAIR -> PTS: Coordinate end-user training, if needed

' 8. Post-implementation
GOV -> CHAIR: Schedule post-implementation check (~30-90 days)
CHAIR -> MEMBERS: Evaluate real-world metrics, performance
alt Non-compliance detected
  CHAIR -> SM: Escalate major concerns for executive resolution
else All in compliance
  note right
    Project remains in good standing under AI-IRB oversight
  end note
end
@enduml

@startuml
participant "Project Sponsor" as PS
participant "AI-IRB Chair" as CHAIR
participant "AI-IRB Members" as MEMBERS
participant "AI Governance Office" as GOV
participant "Engineering Dept." as ENG
participant "Product/Tech Support" as PTS
participant "Operations" as OPS
participant "Senior Management" as SM

PS -> CHAIR: Submits AI-IRB Project Proposal Form
CHAIR -> MEMBERS: Distribute proposal for initial screening

alt Major gaps identified
  CHAIR -> PS: Request clarifications/further info
else Sufficient detail
  MEMBERS -> MEMBERS: Perform preliminary analysis (data privacy, risk classification, etc.)
end

CHAIR -> CHAIR: Schedule AI-IRB meeting
CHAIR -> PS: Invite Project Sponsor to present
PS -> MEMBERS: Present project scope, objectives, data usage

MEMBERS -> CHAIR: Discuss concerns, recommendations
CHAIR -> GOV: Record meeting minutes/decision notes

alt Approved
  CHAIR -> PS: Notifies approval (with or without conditions)
else Deferred
  CHAIR -> PS: Notifies deferral; rework required
else Rejected
  CHAIR -> PS: Notifies rejection
end

PS -> ENG: Address AI-IRB conditions / implement changes
ENG -> PS: Provide updated compliance or revised proposal
PS -> CHAIR: Submit revised artifacts if needed

CHAIR -> MEMBERS: Final review of revised submission
MEMBERS -> CHAIR: Confirm readiness
CHAIR -> GOV: Update Decision Registry

CHAIR -> OPS: Issue formal clearance for deployment (if all conditions met)
OPS -> CHAIR: Confirms release scheduling
CHAIR -> PTS: Coordinate end-user training, if needed

GOV -> CHAIR: Schedule post-implementation check (~30-90 days)
CHAIR -> MEMBERS: Evaluate real-world metrics, performance
alt Non-compliance detected
  CHAIR -> SM: Escalate major concerns for executive resolution
else All in compliance
  note right
    Project remains in good standing under AI-IRB oversight
  end note
end
@enduml

PlantUML version 1.2022.7(Mon Aug 22 17:01:30 UTC 2022)
(GPL source distribution)
Java Runtime: OpenJDK Runtime Environment
JVM: OpenJDK 64-Bit Server VM
Default Encoding: UTF-8
Language: en
Country: null
--></g></svg>