<?xml version="1.0" encoding="UTF-8" standalone="no"?><svg xmlns="http://www.w3.org/2000/svg" xmlns:xlink="http://www.w3.org/1999/xlink" contentStyleType="text/css" height="1101px" preserveAspectRatio="none" style="width:1387px;height:1101px;background:#FFFFFF;" version="1.1" viewBox="0 0 1387 1101" width="1387px" zoomAndPan="magnify"><defs/><g><rect fill="none" height="26.2969" id="_title" style="stroke:none;stroke-width:1.0;" width="529" x="425.25" y="10"/><text fill="#000000" font-family="sans-serif" font-size="14" font-weight="bold" lengthAdjust="spacing" textLength="519" x="430.25" y="27.9951">SOP-1004-01-AI: Procurement and Purchasing Sequence Diagram</text><rect fill="none" height="90.2031" style="stroke:#000000;stroke-width:1.5;" width="388" x="378" y="214.9922"/><rect fill="none" height="251.6719" style="stroke:#000000;stroke-width:1.5;" width="461" x="368" y="376.4609"/><rect fill="none" height="119.3359" style="stroke:#000000;stroke-width:1.5;" width="441" x="378" y="429.7266"/><line style="stroke:#181818;stroke-width:0.5;stroke-dasharray:5.0,5.0;" x1="51" x2="51" y1="118.5938" y2="1020.8594"/><line style="stroke:#181818;stroke-width:0.5;stroke-dasharray:5.0,5.0;" x1="440" x2="440" y1="118.5938" y2="1020.8594"/><line style="stroke:#181818;stroke-width:0.5;stroke-dasharray:5.0,5.0;" x1="703" x2="703" y1="118.5938" y2="1020.8594"/><line style="stroke:#181818;stroke-width:0.5;stroke-dasharray:5.0,5.0;" x1="787" x2="787" y1="118.5938" y2="1020.8594"/><line style="stroke:#181818;stroke-width:0.5;stroke-dasharray:5.0,5.0;" x1="877" x2="877" y1="118.5938" y2="1020.8594"/><line style="stroke:#181818;stroke-width:0.5;stroke-dasharray:5.0,5.0;" x1="1161" x2="1161" y1="118.5938" y2="1020.8594"/><text fill="#000000" font-family="sans-serif" font-size="14" lengthAdjust="spacing" textLength="73" x="12" y="115.292">Requester</text><ellipse cx="51.5" cy="50.7969" fill="#E2E2F0" rx="8" ry="8" style="stroke:#181818;stroke-width:0.5;"/><path d="M51.5,58.7969 L51.5,85.7969 M38.5,66.7969 L64.5,66.7969 M51.5,85.7969 L38.5,100.7969 M51.5,85.7969 L64.5,100.7969 " fill="none" style="stroke:#181818;stroke-width:0.5;"/><text fill="#000000" font-family="sans-serif" font-size="14" lengthAdjust="spacing" textLength="73" x="12" y="1032.8545">Requester</text><ellipse cx="51.5" cy="1044.6563" fill="#E2E2F0" rx="8" ry="8" style="stroke:#181818;stroke-width:0.5;"/><path d="M51.5,1052.6563 L51.5,1079.6563 M38.5,1060.6563 L64.5,1060.6563 M51.5,1079.6563 L38.5,1094.6563 M51.5,1079.6563 L64.5,1094.6563 " fill="none" style="stroke:#181818;stroke-width:0.5;"/><rect fill="#E2E2F0" height="30.2969" rx="2.5" ry="2.5" style="stroke:#181818;stroke-width:0.5;" width="105" x="388" y="87.2969"/><text fill="#000000" font-family="sans-serif" font-size="14" lengthAdjust="spacing" textLength="91" x="395" y="107.292">Requisitioner</text><rect fill="#E2E2F0" height="30.2969" rx="2.5" ry="2.5" style="stroke:#181818;stroke-width:0.5;" width="105" x="388" y="1019.8594"/><text fill="#000000" font-family="sans-serif" font-size="14" lengthAdjust="spacing" textLength="91" x="395" y="1039.8545">Requisitioner</text><rect fill="#E2E2F0" height="30.2969" rx="2.5" ry="2.5" style="stroke:#181818;stroke-width:0.5;" width="105" x="651" y="87.2969"/><text fill="#000000" font-family="sans-serif" font-size="14" lengthAdjust="spacing" textLength="91" x="658" y="107.292">AI-IRB Liaison</text><rect fill="#E2E2F0" height="30.2969" rx="2.5" ry="2.5" style="stroke:#181818;stroke-width:0.5;" width="105" x="651" y="1019.8594"/><text fill="#000000" font-family="sans-serif" font-size="14" lengthAdjust="spacing" textLength="91" x="658" y="1039.8545">AI-IRB Liaison</text><rect fill="#E2E2F0" height="30.2969" rx="2.5" ry="2.5" style="stroke:#181818;stroke-width:0.5;" width="43" x="766" y="87.2969"/><text fill="#000000" font-family="sans-serif" font-size="14" lengthAdjust="spacing" textLength="29" x="773" y="107.292">CFO</text><rect fill="#E2E2F0" height="30.2969" rx="2.5" ry="2.5" style="stroke:#181818;stroke-width:0.5;" width="43" x="766" y="1019.8594"/><text fill="#000000" font-family="sans-serif" font-size="14" lengthAdjust="spacing" textLength="29" x="773" y="1039.8545">CFO</text><rect fill="#E2E2F0" height="30.2969" rx="2.5" ry="2.5" style="stroke:#181818;stroke-width:0.5;" width="117" x="819" y="87.2969"/><text fill="#000000" font-family="sans-serif" font-size="14" lengthAdjust="spacing" textLength="103" x="826" y="107.292">Office Manager</text><rect fill="#E2E2F0" height="30.2969" rx="2.5" ry="2.5" style="stroke:#181818;stroke-width:0.5;" width="117" x="819" y="1019.8594"/><text fill="#000000" font-family="sans-serif" font-size="14" lengthAdjust="spacing" textLength="103" x="826" y="1039.8545">Office Manager</text><rect fill="#E2E2F0" height="30.2969" rx="2.5" ry="2.5" style="stroke:#181818;stroke-width:0.5;" width="117" x="1103" y="87.2969"/><text fill="#000000" font-family="sans-serif" font-size="14" lengthAdjust="spacing" textLength="103" x="1110" y="107.292">Asset Manager</text><rect fill="#E2E2F0" height="30.2969" rx="2.5" ry="2.5" style="stroke:#181818;stroke-width:0.5;" width="117" x="1103" y="1019.8594"/><text fill="#000000" font-family="sans-serif" font-size="14" lengthAdjust="spacing" textLength="103" x="1110" y="1039.8545">Asset Manager</text><polygon fill="#181818" points="428.5,156.293,438.5,160.293,428.5,164.293,432.5,160.293" style="stroke:#181818;stroke-width:1.0;"/><line style="stroke:#181818;stroke-width:1.0;" x1="51.5" x2="434.5" y1="160.293" y2="160.293"/><text fill="#000000" font-family="sans-serif" font-size="13" lengthAdjust="spacing" textLength="365" x="58.5" y="155.2271">Submit procurement request (AI or standard asset need)</text><path d="M445,133.5938 L445,173.5938 L803,173.5938 L803,143.5938 L793,133.5938 L445,133.5938 " fill="#FEFFDD" style="stroke:#181818;stroke-width:0.5;"/><path d="M793,133.5938 L793,143.5938 L803,143.5938 L793,133.5938 " fill="#FEFFDD" style="stroke:#181818;stroke-width:0.5;"/><text fill="#000000" font-family="sans-serif" font-size="13" lengthAdjust="spacing" textLength="337" x="451" y="150.6606">Requester identifies the need for a product/resource,</text><text fill="#000000" font-family="sans-serif" font-size="13" lengthAdjust="spacing" textLength="196" x="451" y="165.7935">including AI or data usage info.</text><polygon fill="#181818" points="691.5,195.9922,701.5,199.9922,691.5,203.9922,695.5,199.9922" style="stroke:#181818;stroke-width:1.0;"/><line style="stroke:#181818;stroke-width:1.0;" x1="440.5" x2="697.5" y1="199.9922" y2="199.9922"/><text fill="#000000" font-family="sans-serif" font-size="13" lengthAdjust="spacing" textLength="234" x="447.5" y="194.9263">Validate if AI-IRB approval is required</text><path d="M378,214.9922 L442,214.9922 L442,222.125 L432,232.125 L378,232.125 L378,214.9922 " fill="#EEEEEE" style="stroke:#000000;stroke-width:1.5;"/><rect fill="none" height="90.2031" style="stroke:#000000;stroke-width:1.5;" width="388" x="378" y="214.9922"/><text fill="#000000" font-family="sans-serif" font-size="13" font-weight="bold" lengthAdjust="spacing" textLength="19" x="393" y="228.0591">alt</text><text fill="#000000" font-family="sans-serif" font-size="11" font-weight="bold" lengthAdjust="spacing" textLength="109" x="457" y="227.2026">[AI-IRB Required]</text><polygon fill="#181818" points="451.5,249.2578,441.5,253.2578,451.5,257.2578,447.5,253.2578" style="stroke:#181818;stroke-width:1.0;"/><line style="stroke:#181818;stroke-width:1.0;" x1="445.5" x2="702.5" y1="253.2578" y2="253.2578"/><text fill="#000000" font-family="sans-serif" font-size="13" lengthAdjust="spacing" textLength="239" x="457.5" y="248.1919">Provide AI-IRB approval or constraints</text><line style="stroke:#000000;stroke-width:1.0;stroke-dasharray:2.0,2.0;" x1="378" x2="766" y1="262.2578" y2="262.2578"/><text fill="#000000" font-family="sans-serif" font-size="11" font-weight="bold" lengthAdjust="spacing" textLength="104" x="383" y="272.4683">[No IRB needed]</text><polygon fill="#181818" points="451.5,293.1953,441.5,297.1953,451.5,301.1953,447.5,297.1953" style="stroke:#181818;stroke-width:1.0;"/><line style="stroke:#181818;stroke-width:1.0;" x1="445.5" x2="702.5" y1="297.1953" y2="297.1953"/><text fill="#000000" font-family="sans-serif" font-size="13" lengthAdjust="spacing" textLength="102" x="457.5" y="292.1294">IRB not required</text><line style="stroke:#181818;stroke-width:1.0;" x1="440.5" x2="482.5" y1="348.4609" y2="348.4609"/><line style="stroke:#181818;stroke-width:1.0;" x1="482.5" x2="482.5" y1="348.4609" y2="361.4609"/><line style="stroke:#181818;stroke-width:1.0;" x1="441.5" x2="482.5" y1="361.4609" y2="361.4609"/><polygon fill="#181818" points="451.5,357.4609,441.5,361.4609,451.5,365.4609,447.5,361.4609" style="stroke:#181818;stroke-width:1.0;"/><text fill="#000000" font-family="sans-serif" font-size="13" lengthAdjust="spacing" textLength="185" x="447.5" y="328.2622">Prepare Purchase Order (PO)</text><text fill="#000000" font-family="sans-serif" font-size="13" lengthAdjust="spacing" textLength="165" x="447.5" y="343.395">and/or Capital Justification</text><path d="M368,376.4609 L432,376.4609 L432,383.5938 L422,393.5938 L368,393.5938 L368,376.4609 " fill="#EEEEEE" style="stroke:#000000;stroke-width:1.5;"/><rect fill="none" height="251.6719" style="stroke:#000000;stroke-width:1.5;" width="461" x="368" y="376.4609"/><text fill="#000000" font-family="sans-serif" font-size="13" font-weight="bold" lengthAdjust="spacing" textLength="19" x="383" y="389.5278">alt</text><text fill="#000000" font-family="sans-serif" font-size="11" font-weight="bold" lengthAdjust="spacing" textLength="150" x="447" y="388.6714">[Cost Above Threshold]</text><polygon fill="#181818" points="775.5,410.7266,785.5,414.7266,775.5,418.7266,779.5,414.7266" style="stroke:#181818;stroke-width:1.0;"/><line style="stroke:#181818;stroke-width:1.0;" x1="440.5" x2="781.5" y1="414.7266" y2="414.7266"/><text fill="#000000" font-family="sans-serif" font-size="13" lengthAdjust="spacing" textLength="174" x="447.5" y="409.6606">Forward PO for CFO sign-off</text><path d="M378,429.7266 L442,429.7266 L442,436.8594 L432,446.8594 L378,446.8594 L378,429.7266 " fill="#EEEEEE" style="stroke:#000000;stroke-width:1.5;"/><rect fill="none" height="119.3359" style="stroke:#000000;stroke-width:1.5;" width="441" x="378" y="429.7266"/><text fill="#000000" font-family="sans-serif" font-size="13" font-weight="bold" lengthAdjust="spacing" textLength="19" x="393" y="442.7935">alt</text><text fill="#000000" font-family="sans-serif" font-size="11" font-weight="bold" lengthAdjust="spacing" textLength="100" x="457" y="441.937">[CFO Approves]</text><polygon fill="#181818" points="451.5,463.9922,441.5,467.9922,451.5,471.9922,447.5,467.9922" style="stroke:#181818;stroke-width:1.0;"/><line style="stroke:#181818;stroke-width:1.0;" x1="445.5" x2="786.5" y1="467.9922" y2="467.9922"/><text fill="#000000" font-family="sans-serif" font-size="13" lengthAdjust="spacing" textLength="64" x="457.5" y="462.9263">PO signed</text><line style="stroke:#000000;stroke-width:1.0;stroke-dasharray:2.0,2.0;" x1="378" x2="819" y1="476.9922" y2="476.9922"/><text fill="#000000" font-family="sans-serif" font-size="11" font-weight="bold" lengthAdjust="spacing" textLength="85" x="383" y="487.2026">[CFO Denies]</text><polygon fill="#181818" points="451.5,507.9297,441.5,511.9297,451.5,515.9297,447.5,511.9297" style="stroke:#181818;stroke-width:1.0;"/><line style="stroke:#181818;stroke-width:1.0;" x1="445.5" x2="786.5" y1="511.9297" y2="511.9297"/><text fill="#000000" font-family="sans-serif" font-size="13" lengthAdjust="spacing" textLength="175" x="457.5" y="506.8638">PO denied, request revision</text><polygon fill="#181818" points="775.5,537.0625,785.5,541.0625,775.5,545.0625,779.5,541.0625" style="stroke:#181818;stroke-width:1.0;"/><line style="stroke:#181818;stroke-width:1.0;stroke-dasharray:2.0,2.0;" x1="440.5" x2="781.5" y1="541.0625" y2="541.0625"/><text fill="#000000" font-family="sans-serif" font-size="13" lengthAdjust="spacing" textLength="168" x="447.5" y="535.9966">PO revision or cancellation</text><line style="stroke:#000000;stroke-width:1.0;stroke-dasharray:2.0,2.0;" x1="368" x2="829" y1="557.0625" y2="557.0625"/><text fill="#000000" font-family="sans-serif" font-size="11" font-weight="bold" lengthAdjust="spacing" textLength="151" x="373" y="567.2729">[Cost Below Threshold]</text><line style="stroke:#181818;stroke-width:1.0;" x1="440.5" x2="482.5" y1="607.1328" y2="607.1328"/><line style="stroke:#181818;stroke-width:1.0;" x1="482.5" x2="482.5" y1="607.1328" y2="620.1328"/><line style="stroke:#181818;stroke-width:1.0;" x1="441.5" x2="482.5" y1="620.1328" y2="620.1328"/><polygon fill="#181818" points="451.5,616.1328,441.5,620.1328,451.5,624.1328,447.5,620.1328" style="stroke:#181818;stroke-width:1.0;"/><text fill="#000000" font-family="sans-serif" font-size="13" lengthAdjust="spacing" textLength="90" x="447.5" y="586.9341">Sign internally</text><text fill="#000000" font-family="sans-serif" font-size="13" lengthAdjust="spacing" textLength="88" x="447.5" y="602.0669">(no CFO step)</text><polygon fill="#181818" points="865.5,652.2656,875.5,656.2656,865.5,660.2656,869.5,656.2656" style="stroke:#181818;stroke-width:1.0;"/><line style="stroke:#181818;stroke-width:1.0;" x1="440.5" x2="871.5" y1="656.2656" y2="656.2656"/><text fill="#000000" font-family="sans-serif" font-size="13" lengthAdjust="spacing" textLength="230" x="447.5" y="651.1997">Provide final PO for order placement</text><polygon fill="#181818" points="62.5,681.3984,52.5,685.3984,62.5,689.3984,58.5,685.3984" style="stroke:#181818;stroke-width:1.0;"/><line style="stroke:#181818;stroke-width:1.0;" x1="56.5" x2="876.5" y1="685.3984" y2="685.3984"/><text fill="#000000" font-family="sans-serif" font-size="13" lengthAdjust="spacing" textLength="244" x="68.5" y="680.3325">Update on order status &amp; delivery info</text><path d="M5,698.3984 L5,738.3984 L924,738.3984 L924,708.3984 L914,698.3984 L5,698.3984 " fill="#FEFFDD" style="stroke:#181818;stroke-width:0.5;"/><path d="M914,698.3984 L914,708.3984 L924,708.3984 L914,698.3984 " fill="#FEFFDD" style="stroke:#181818;stroke-width:0.5;"/><text fill="#000000" font-family="sans-serif" font-size="13" lengthAdjust="spacing" textLength="199" x="329.5" y="715.4653">Office Manager or Requisitioner</text><text fill="#000000" font-family="sans-serif" font-size="13" lengthAdjust="spacing" textLength="261" x="329.5" y="730.5981">informs Requester about shipping details</text><rect fill="#EEEEEE" height="3" style="stroke:#EEEEEE;stroke-width:1.0;" width="1380.5" x="0" y="764.2305"/><line style="stroke:#000000;stroke-width:1.0;" x1="0" x2="1380.5" y1="764.2305" y2="764.2305"/><line style="stroke:#000000;stroke-width:1.0;" x1="0" x2="1380.5" y1="767.2305" y2="767.2305"/><rect fill="#EEEEEE" height="23.1328" style="stroke:#000000;stroke-width:2.0;" width="128" x="626.25" y="753.6641"/><text fill="#000000" font-family="sans-serif" font-size="13" font-weight="bold" lengthAdjust="spacing" textLength="109" x="632.25" y="769.731">Delivery Phase</text><polygon fill="#181818" points="1149.5,803.9297,1159.5,807.9297,1149.5,811.9297,1153.5,807.9297" style="stroke:#181818;stroke-width:1.0;"/><line style="stroke:#181818;stroke-width:1.0;" x1="877.5" x2="1155.5" y1="807.9297" y2="807.9297"/><text fill="#000000" font-family="sans-serif" font-size="13" lengthAdjust="spacing" textLength="260" x="884.5" y="802.8638">Asset arrives, hand off to Asset Manager</text><line style="stroke:#181818;stroke-width:1.0;" x1="1161.5" x2="1203.5" y1="852.1953" y2="852.1953"/><line style="stroke:#181818;stroke-width:1.0;" x1="1203.5" x2="1203.5" y1="852.1953" y2="865.1953"/><line style="stroke:#181818;stroke-width:1.0;" x1="1162.5" x2="1203.5" y1="865.1953" y2="865.1953"/><polygon fill="#181818" points="1172.5,861.1953,1162.5,865.1953,1172.5,869.1953,1168.5,865.1953" style="stroke:#181818;stroke-width:1.0;"/><text fill="#000000" font-family="sans-serif" font-size="13" lengthAdjust="spacing" textLength="205" x="1168.5" y="831.9966">Update asset tracking database</text><text fill="#000000" font-family="sans-serif" font-size="13" lengthAdjust="spacing" textLength="202" x="1168.5" y="847.1294">(record license, IRB constraints)</text><polygon fill="#181818" points="451.5,890.3281,441.5,894.3281,451.5,898.3281,447.5,894.3281" style="stroke:#181818;stroke-width:1.0;"/><line style="stroke:#181818;stroke-width:1.0;" x1="445.5" x2="1160.5" y1="894.3281" y2="894.3281"/><text fill="#000000" font-family="sans-serif" font-size="13" lengthAdjust="spacing" textLength="199" x="457.5" y="889.2622">Confirmation and invoice check</text><polygon fill="#181818" points="775.5,919.4609,785.5,923.4609,775.5,927.4609,779.5,923.4609" style="stroke:#181818;stroke-width:1.0;"/><line style="stroke:#181818;stroke-width:1.0;" x1="440.5" x2="781.5" y1="923.4609" y2="923.4609"/><text fill="#000000" font-family="sans-serif" font-size="13" lengthAdjust="spacing" textLength="181" x="447.5" y="918.395">Payment sign-off (if needed)</text><polygon fill="#181818" points="1149.5,948.5938,1159.5,952.5938,1149.5,956.5938,1153.5,952.5938" style="stroke:#181818;stroke-width:1.0;"/><line style="stroke:#181818;stroke-width:1.0;" x1="787.5" x2="1155.5" y1="952.5938" y2="952.5938"/><text fill="#000000" font-family="sans-serif" font-size="13" lengthAdjust="spacing" textLength="125" x="794.5" y="947.5278">Payment confirmed</text><path d="M1029,965.5938 L1029,1005.5938 L1294,1005.5938 L1294,975.5938 L1284,965.5938 L1029,965.5938 " fill="#FEFFDD" style="stroke:#181818;stroke-width:0.5;"/><path d="M1284,965.5938 L1284,975.5938 L1294,975.5938 L1284,965.5938 " fill="#FEFFDD" style="stroke:#181818;stroke-width:0.5;"/><text fill="#000000" font-family="sans-serif" font-size="13" lengthAdjust="spacing" textLength="186" x="1035" y="982.6606">Asset is officially in inventory,</text><text fill="#000000" font-family="sans-serif" font-size="13" lengthAdjust="spacing" textLength="244" x="1035" y="997.7935">usage can begin after any final checks</text><!--MD5=[1d01884d228693b64a5cdc0a57d3ff35]
@startuml
title "SOP-1004-01-AI: Procurement and Purchasing Sequence Diagram"

actor "Requester" as REQ
participant "Requisitioner" as RQN
participant "AI-IRB Liaison" as IRB
participant "CFO" as CFO
participant "Office Manager" as MGR
participant "Asset Manager" as ASM

REQ -> RQN: Submit procurement request (AI or standard asset need)
note right
  Requester identifies the need for a product/resource,
  including AI or data usage info.
end note

RQN -> IRB: Validate if AI-IRB approval is required
alt AI-IRB Required
  IRB -> RQN: Provide AI-IRB approval or constraints
else No IRB needed
  IRB -> RQN: IRB not required
end

RQN -> RQN: Prepare Purchase Order (PO)\nand/or Capital Justification

alt Cost Above Threshold
  RQN -> CFO: Forward PO for CFO sign-off
  alt CFO Approves
    CFO -> RQN: PO signed
  else CFO Denies
    CFO -> RQN: PO denied, request revision
    return PO revision or cancellation
  end
else Cost Below Threshold
  RQN -> RQN: Sign internally\n(no CFO step)
end

RQN -> MGR: Provide final PO for order placement
MGR -> REQ: Update on order status & delivery info
note over MGR,REQ
  Office Manager or Requisitioner
  informs Requester about shipping details
end note

== Delivery Phase ==

MGR -> ASM: Asset arrives, hand off to Asset Manager
ASM -> ASM: Update asset tracking database\n(record license, IRB constraints)
ASM -> RQN: Confirmation and invoice check
RQN -> CFO: Payment sign-off (if needed)
CFO -> ASM: Payment confirmed
note over ASM
  Asset is officially in inventory,
  usage can begin after any final checks
end note
@enduml

PlantUML version 1.2022.7(Mon Aug 22 17:01:30 UTC 2022)
(GPL source distribution)
Java Runtime: OpenJDK Runtime Environment
JVM: OpenJDK 64-Bit Server VM
Default Encoding: UTF-8
Language: en
Country: null
--></g></svg>