<?xml version="1.0" encoding="UTF-8" standalone="no"?><svg xmlns="http://www.w3.org/2000/svg" xmlns:xlink="http://www.w3.org/1999/xlink" contentStyleType="text/css" height="1418px" preserveAspectRatio="none" style="width:2112px;height:1418px;background:#FFFFFF;" version="1.1" viewBox="0 0 2112 1418" width="2112px" zoomAndPan="magnify"><defs/><g><rect fill="none" height="26.2969" id="_title" style="stroke:none;stroke-width:1.0;" width="394" x="858.25" y="10"/><text fill="#000000" font-family="sans-serif" font-size="14" font-weight="bold" lengthAdjust="spacing" textLength="384" x="863.25" y="27.9951">SOP-1020-01-AI: AI Model Lifecycle Management</text><rect fill="none" height="132.3359" style="stroke:#000000;stroke-width:1.5;" width="549.5" x="285.5" y="566.5859"/><rect fill="none" height="116.2031" style="stroke:#000000;stroke-width:1.5;" width="258.5" x="575.5" y="1046.3828"/><line style="stroke:#181818;stroke-width:0.5;stroke-dasharray:5.0,5.0;" x1="67" x2="67" y1="73.5938" y2="1383.5156"/><line style="stroke:#181818;stroke-width:0.5;stroke-dasharray:5.0,5.0;" x1="347.5" x2="347.5" y1="73.5938" y2="1383.5156"/><line style="stroke:#181818;stroke-width:0.5;stroke-dasharray:5.0,5.0;" x1="639.5" x2="639.5" y1="73.5938" y2="1383.5156"/><line style="stroke:#181818;stroke-width:0.5;stroke-dasharray:5.0,5.0;" x1="891" x2="891" y1="73.5938" y2="1383.5156"/><line style="stroke:#181818;stroke-width:0.5;stroke-dasharray:5.0,5.0;" x1="1151.5" x2="1151.5" y1="73.5938" y2="1383.5156"/><line style="stroke:#181818;stroke-width:0.5;stroke-dasharray:5.0,5.0;" x1="1418" x2="1418" y1="73.5938" y2="1383.5156"/><line style="stroke:#181818;stroke-width:0.5;stroke-dasharray:5.0,5.0;" x1="1639.5" x2="1639.5" y1="73.5938" y2="1383.5156"/><line style="stroke:#181818;stroke-width:0.5;stroke-dasharray:5.0,5.0;" x1="1784.5" x2="1784.5" y1="73.5938" y2="1383.5156"/><line style="stroke:#181818;stroke-width:0.5;stroke-dasharray:5.0,5.0;" x1="2091.5" x2="2091.5" y1="73.5938" y2="1383.5156"/><rect fill="#E2E2F0" height="30.2969" rx="2.5" ry="2.5" style="stroke:#181818;stroke-width:0.5;" width="124" x="5" y="42.2969"/><text fill="#000000" font-family="sans-serif" font-size="14" lengthAdjust="spacing" textLength="110" x="12" y="62.292">Project Sponsor</text><rect fill="#E2E2F0" height="30.2969" rx="2.5" ry="2.5" style="stroke:#181818;stroke-width:0.5;" width="124" x="5" y="1382.5156"/><text fill="#000000" font-family="sans-serif" font-size="14" lengthAdjust="spacing" textLength="110" x="12" y="1402.5107">Project Sponsor</text><rect fill="#E2E2F0" height="30.2969" rx="2.5" ry="2.5" style="stroke:#181818;stroke-width:0.5;" width="105" x="295.5" y="42.2969"/><text fill="#000000" font-family="sans-serif" font-size="14" lengthAdjust="spacing" textLength="91" x="302.5" y="62.292">AI-IRB Liaison</text><rect fill="#E2E2F0" height="30.2969" rx="2.5" ry="2.5" style="stroke:#181818;stroke-width:0.5;" width="105" x="295.5" y="1382.5156"/><text fill="#000000" font-family="sans-serif" font-size="14" lengthAdjust="spacing" textLength="91" x="302.5" y="1402.5107">AI-IRB Liaison</text><rect fill="#E2E2F0" height="30.2969" rx="2.5" ry="2.5" style="stroke:#181818;stroke-width:0.5;" width="109" x="585.5" y="42.2969"/><text fill="#000000" font-family="sans-serif" font-size="14" lengthAdjust="spacing" textLength="95" x="592.5" y="62.292">Data Scientist</text><rect fill="#E2E2F0" height="30.2969" rx="2.5" ry="2.5" style="stroke:#181818;stroke-width:0.5;" width="109" x="585.5" y="1382.5156"/><text fill="#000000" font-family="sans-serif" font-size="14" lengthAdjust="spacing" textLength="95" x="592.5" y="1402.5107">Data Scientist</text><rect fill="#E2E2F0" height="30.2969" rx="2.5" ry="2.5" style="stroke:#181818;stroke-width:0.5;" width="142" x="820" y="42.2969"/><text fill="#000000" font-family="sans-serif" font-size="14" lengthAdjust="spacing" textLength="128" x="827" y="62.292">MLOps/Operations</text><rect fill="#E2E2F0" height="30.2969" rx="2.5" ry="2.5" style="stroke:#181818;stroke-width:0.5;" width="142" x="820" y="1382.5156"/><text fill="#000000" font-family="sans-serif" font-size="14" lengthAdjust="spacing" textLength="128" x="827" y="1402.5107">MLOps/Operations</text><rect fill="#E2E2F0" height="30.2969" rx="2.5" ry="2.5" style="stroke:#181818;stroke-width:0.5;" width="137" x="1083.5" y="42.2969"/><text fill="#000000" font-family="sans-serif" font-size="14" lengthAdjust="spacing" textLength="123" x="1090.5" y="62.292">Quality Assurance</text><rect fill="#E2E2F0" height="30.2969" rx="2.5" ry="2.5" style="stroke:#181818;stroke-width:0.5;" width="137" x="1083.5" y="1382.5156"/><text fill="#000000" font-family="sans-serif" font-size="14" lengthAdjust="spacing" textLength="123" x="1090.5" y="1402.5107">Quality Assurance</text><rect fill="#E2E2F0" height="30.2969" rx="2.5" ry="2.5" style="stroke:#181818;stroke-width:0.5;" width="150" x="1343" y="42.2969"/><text fill="#000000" font-family="sans-serif" font-size="14" lengthAdjust="spacing" textLength="136" x="1350" y="62.292">Development Team</text><rect fill="#E2E2F0" height="30.2969" rx="2.5" ry="2.5" style="stroke:#181818;stroke-width:0.5;" width="150" x="1343" y="1382.5156"/><text fill="#000000" font-family="sans-serif" font-size="14" lengthAdjust="spacing" textLength="136" x="1350" y="1402.5107">Development Team</text><rect fill="#E2E2F0" height="30.2969" rx="2.5" ry="2.5" style="stroke:#181818;stroke-width:0.5;" width="165" x="1557.5" y="42.2969"/><text fill="#000000" font-family="sans-serif" font-size="14" lengthAdjust="spacing" textLength="151" x="1564.5" y="62.292">Business Stakeholder</text><rect fill="#E2E2F0" height="30.2969" rx="2.5" ry="2.5" style="stroke:#181818;stroke-width:0.5;" width="165" x="1557.5" y="1382.5156"/><text fill="#000000" font-family="sans-serif" font-size="14" lengthAdjust="spacing" textLength="151" x="1564.5" y="1402.5107">Business Stakeholder</text><rect fill="#E2E2F0" height="30.2969" rx="2.5" ry="2.5" style="stroke:#181818;stroke-width:0.5;" width="105" x="1732.5" y="42.2969"/><text fill="#000000" font-family="sans-serif" font-size="14" lengthAdjust="spacing" textLength="91" x="1739.5" y="62.292">Model Owner</text><rect fill="#E2E2F0" height="30.2969" rx="2.5" ry="2.5" style="stroke:#181818;stroke-width:0.5;" width="105" x="1732.5" y="1382.5156"/><text fill="#000000" font-family="sans-serif" font-size="14" lengthAdjust="spacing" textLength="91" x="1739.5" y="1402.5107">Model Owner</text><rect fill="#E2E2F0" height="30.2969" rx="2.5" ry="2.5" style="stroke:#181818;stroke-width:0.5;" width="29" x="2077.5" y="42.2969"/><text fill="#000000" font-family="sans-serif" font-size="14" lengthAdjust="spacing" textLength="15" x="2084.5" y="62.292">All</text><rect fill="#E2E2F0" height="30.2969" rx="2.5" ry="2.5" style="stroke:#181818;stroke-width:0.5;" width="29" x="2077.5" y="1382.5156"/><text fill="#000000" font-family="sans-serif" font-size="14" lengthAdjust="spacing" textLength="15" x="2084.5" y="1402.5107">All</text><polygon fill="#181818" points="651,100.7266,641,104.7266,651,108.7266,647,104.7266" style="stroke:#181818;stroke-width:1.0;"/><line style="stroke:#181818;stroke-width:1.0;" x1="645" x2="1639" y1="104.7266" y2="104.7266"/><text fill="#000000" font-family="sans-serif" font-size="13" lengthAdjust="spacing" textLength="270" x="657" y="99.6606">Provide Business Objectives &amp; Constraints</text><polygon fill="#181818" points="78,129.8594,68,133.8594,78,137.8594,74,133.8594" style="stroke:#181818;stroke-width:1.0;"/><line style="stroke:#181818;stroke-width:1.0;" x1="72" x2="639" y1="133.8594" y2="133.8594"/><text fill="#000000" font-family="sans-serif" font-size="13" lengthAdjust="spacing" textLength="186" x="84" y="128.7935">Present High-Level Feasibility</text><polygon fill="#181818" points="336,158.9922,346,162.9922,336,166.9922,340,162.9922" style="stroke:#181818;stroke-width:1.0;"/><line style="stroke:#181818;stroke-width:1.0;" x1="67" x2="342" y1="162.9922" y2="162.9922"/><text fill="#000000" font-family="sans-serif" font-size="13" lengthAdjust="spacing" textLength="257" x="74" y="157.9263">Request Preliminary AI-IRB Ethical Check</text><polygon fill="#181818" points="628,188.125,638,192.125,628,196.125,632,192.125" style="stroke:#181818;stroke-width:1.0;"/><line style="stroke:#181818;stroke-width:1.0;" x1="348" x2="634" y1="192.125" y2="192.125"/><text fill="#000000" font-family="sans-serif" font-size="13" lengthAdjust="spacing" textLength="189" x="355" y="187.0591">Provide Early Ethics Feedback</text><line style="stroke:#181818;stroke-width:1.0;" x1="640" x2="682" y1="221.2578" y2="221.2578"/><line style="stroke:#181818;stroke-width:1.0;" x1="682" x2="682" y1="221.2578" y2="234.2578"/><line style="stroke:#181818;stroke-width:1.0;" x1="641" x2="682" y1="234.2578" y2="234.2578"/><polygon fill="#181818" points="651,230.2578,641,234.2578,651,238.2578,647,234.2578" style="stroke:#181818;stroke-width:1.0;"/><text fill="#000000" font-family="sans-serif" font-size="13" lengthAdjust="spacing" textLength="129" x="647" y="216.1919">Ingest &amp; Clean Data</text><line style="stroke:#181818;stroke-width:1.0;" x1="640" x2="682" y1="263.3906" y2="263.3906"/><line style="stroke:#181818;stroke-width:1.0;" x1="682" x2="682" y1="263.3906" y2="276.3906"/><line style="stroke:#181818;stroke-width:1.0;" x1="641" x2="682" y1="276.3906" y2="276.3906"/><polygon fill="#181818" points="651,272.3906,641,276.3906,651,280.3906,647,276.3906" style="stroke:#181818;stroke-width:1.0;"/><text fill="#000000" font-family="sans-serif" font-size="13" lengthAdjust="spacing" textLength="140" x="647" y="258.3247">Label &amp; Validate Data</text><polygon fill="#181818" points="359,301.5234,349,305.5234,359,309.5234,355,305.5234" style="stroke:#181818;stroke-width:1.0;"/><line style="stroke:#181818;stroke-width:1.0;" x1="353" x2="639" y1="305.5234" y2="305.5234"/><text fill="#000000" font-family="sans-serif" font-size="13" lengthAdjust="spacing" textLength="257" x="365" y="300.4575">Confirm Data Compliance Requirements</text><polygon fill="#181818" points="1406,330.6563,1416,334.6563,1406,338.6563,1410,334.6563" style="stroke:#181818;stroke-width:1.0;"/><line style="stroke:#181818;stroke-width:1.0;" x1="640" x2="1412" y1="334.6563" y2="334.6563"/><text fill="#000000" font-family="sans-serif" font-size="13" lengthAdjust="spacing" textLength="248" x="647" y="329.5903">Request Code Setup &amp; Version Control</text><polygon fill="#181818" points="651,359.7891,641,363.7891,651,367.7891,647,363.7891" style="stroke:#181818;stroke-width:1.0;"/><line style="stroke:#181818;stroke-width:1.0;" x1="645" x2="1417" y1="363.7891" y2="363.7891"/><text fill="#000000" font-family="sans-serif" font-size="13" lengthAdjust="spacing" textLength="222" x="657" y="358.7231">Provide Development Environment</text><line style="stroke:#181818;stroke-width:1.0;" x1="640" x2="682" y1="392.9219" y2="392.9219"/><line style="stroke:#181818;stroke-width:1.0;" x1="682" x2="682" y1="392.9219" y2="405.9219"/><line style="stroke:#181818;stroke-width:1.0;" x1="641" x2="682" y1="405.9219" y2="405.9219"/><polygon fill="#181818" points="651,401.9219,641,405.9219,651,409.9219,647,405.9219" style="stroke:#181818;stroke-width:1.0;"/><text fill="#000000" font-family="sans-serif" font-size="13" lengthAdjust="spacing" textLength="220" x="647" y="387.856">Train Model(s), Tune Hyperparams</text><polygon fill="#181818" points="1140,431.0547,1150,435.0547,1140,439.0547,1144,435.0547" style="stroke:#181818;stroke-width:1.0;"/><line style="stroke:#181818;stroke-width:1.0;" x1="640" x2="1146" y1="435.0547" y2="435.0547"/><text fill="#000000" font-family="sans-serif" font-size="13" lengthAdjust="spacing" textLength="205" x="647" y="429.9888">Share Preliminary Model Results</text><polygon fill="#181818" points="651,460.1875,641,464.1875,651,468.1875,647,464.1875" style="stroke:#181818;stroke-width:1.0;"/><line style="stroke:#181818;stroke-width:1.0;" x1="645" x2="1151" y1="464.1875" y2="464.1875"/><text fill="#000000" font-family="sans-serif" font-size="13" lengthAdjust="spacing" textLength="277" x="657" y="459.1216">Review Model Performance &amp; Potential Bias</text><polygon fill="#181818" points="1140,489.3203,1150,493.3203,1140,497.3203,1144,493.3203" style="stroke:#181818;stroke-width:1.0;"/><line style="stroke:#181818;stroke-width:1.0;" x1="640" x2="1146" y1="493.3203" y2="493.3203"/><text fill="#000000" font-family="sans-serif" font-size="13" lengthAdjust="spacing" textLength="221" x="647" y="488.2544">Provide Model Interpretability Docs</text><polygon fill="#181818" points="651,518.4531,641,522.4531,651,526.4531,647,522.4531" style="stroke:#181818;stroke-width:1.0;"/><line style="stroke:#181818;stroke-width:1.0;" x1="645" x2="1151" y1="522.4531" y2="522.4531"/><text fill="#000000" font-family="sans-serif" font-size="13" lengthAdjust="spacing" textLength="277" x="657" y="517.3872">Request Additional Adjustments (if needed)</text><polygon fill="#181818" points="359,547.5859,349,551.5859,359,555.5859,355,551.5859" style="stroke:#181818;stroke-width:1.0;"/><line style="stroke:#181818;stroke-width:1.0;" x1="353" x2="639" y1="551.5859" y2="551.5859"/><text fill="#000000" font-family="sans-serif" font-size="13" lengthAdjust="spacing" textLength="268" x="365" y="546.52">Submit Full Documentation &amp; Compliance</text><path d="M285.5,566.5859 L349.5,566.5859 L349.5,573.7188 L339.5,583.7188 L285.5,583.7188 L285.5,566.5859 " fill="#EEEEEE" style="stroke:#000000;stroke-width:1.5;"/><rect fill="none" height="132.3359" style="stroke:#000000;stroke-width:1.5;" width="549.5" x="285.5" y="566.5859"/><text fill="#000000" font-family="sans-serif" font-size="13" font-weight="bold" lengthAdjust="spacing" textLength="19" x="300.5" y="579.6528">alt</text><text fill="#000000" font-family="sans-serif" font-size="11" font-weight="bold" lengthAdjust="spacing" textLength="118" x="364.5" y="578.7964">[AI-IRB Approved?]</text><line style="stroke:#000000;stroke-width:1.0;stroke-dasharray:2.0,2.0;" x1="285.5" x2="835" y1="584.7188" y2="584.7188"/><text fill="#000000" font-family="sans-serif" font-size="11" font-weight="bold" lengthAdjust="spacing" textLength="96" x="290.5" y="594.9292">[Not Approved]</text><polygon fill="#181818" points="628,615.6563,638,619.6563,628,623.6563,632,619.6563" style="stroke:#181818;stroke-width:1.0;"/><line style="stroke:#181818;stroke-width:1.0;" x1="348" x2="634" y1="619.6563" y2="619.6563"/><text fill="#000000" font-family="sans-serif" font-size="13" lengthAdjust="spacing" textLength="170" x="355" y="614.5903">Provide Revisions Required</text><line style="stroke:#181818;stroke-width:1.0;" x1="640" x2="682" y1="648.7891" y2="648.7891"/><line style="stroke:#181818;stroke-width:1.0;" x1="682" x2="682" y1="648.7891" y2="661.7891"/><line style="stroke:#181818;stroke-width:1.0;" x1="641" x2="682" y1="661.7891" y2="661.7891"/><polygon fill="#181818" points="651,657.7891,641,661.7891,651,665.7891,647,661.7891" style="stroke:#181818;stroke-width:1.0;"/><text fill="#000000" font-family="sans-serif" font-size="13" lengthAdjust="spacing" textLength="176" x="647" y="643.7231">Revise &amp; Address Concerns</text><polygon fill="#181818" points="359,686.9219,349,690.9219,359,694.9219,355,690.9219" style="stroke:#181818;stroke-width:1.0;"/><line style="stroke:#181818;stroke-width:1.0;" x1="353" x2="639" y1="690.9219" y2="690.9219"/><text fill="#000000" font-family="sans-serif" font-size="13" lengthAdjust="spacing" textLength="141" x="365" y="685.856">Resubmit for Approval</text><polygon fill="#181818" points="78,723.0547,68,727.0547,78,731.0547,74,727.0547" style="stroke:#181818;stroke-width:1.0;"/><line style="stroke:#181818;stroke-width:1.0;" x1="72" x2="347" y1="727.0547" y2="727.0547"/><text fill="#000000" font-family="sans-serif" font-size="13" lengthAdjust="spacing" textLength="158" x="84" y="721.9888">AI-IRB Officially Approved</text><polygon fill="#181818" points="651,752.1875,641,756.1875,651,760.1875,647,756.1875" style="stroke:#181818;stroke-width:1.0;"/><line style="stroke:#181818;stroke-width:1.0;" x1="645" x2="890" y1="756.1875" y2="756.1875"/><text fill="#000000" font-family="sans-serif" font-size="13" lengthAdjust="spacing" textLength="188" x="657" y="751.1216">Prepare Staging Environment</text><polygon fill="#181818" points="902,781.3203,892,785.3203,902,789.3203,898,785.3203" style="stroke:#181818;stroke-width:1.0;"/><line style="stroke:#181818;stroke-width:1.0;" x1="896" x2="1417" y1="785.3203" y2="785.3203"/><text fill="#000000" font-family="sans-serif" font-size="13" lengthAdjust="spacing" textLength="213" x="908" y="780.2544">Merge Final Code for Deployment</text><polygon fill="#181818" points="902,810.4531,892,814.4531,902,818.4531,898,814.4531" style="stroke:#181818;stroke-width:1.0;"/><line style="stroke:#181818;stroke-width:1.0;" x1="896" x2="1151" y1="814.4531" y2="814.4531"/><text fill="#000000" font-family="sans-serif" font-size="13" lengthAdjust="spacing" textLength="237" x="908" y="809.3872">Validate Acceptance Tests in Staging</text><polygon fill="#181818" points="1773,839.5859,1783,843.5859,1773,847.5859,1777,843.5859" style="stroke:#181818;stroke-width:1.0;"/><line style="stroke:#181818;stroke-width:1.0;" x1="1152" x2="1779" y1="843.5859" y2="843.5859"/><text fill="#000000" font-family="sans-serif" font-size="13" lengthAdjust="spacing" textLength="209" x="1159" y="838.52">Confirm readiness for Production</text><polygon fill="#181818" points="902,868.7188,892,872.7188,902,876.7188,898,872.7188" style="stroke:#181818;stroke-width:1.0;"/><line style="stroke:#181818;stroke-width:1.0;" x1="896" x2="1784" y1="872.7188" y2="872.7188"/><text fill="#000000" font-family="sans-serif" font-size="13" lengthAdjust="spacing" textLength="180" x="908" y="867.6528">Authorize Production Rollout</text><line style="stroke:#181818;stroke-width:1.0;" x1="891" x2="933" y1="901.8516" y2="901.8516"/><line style="stroke:#181818;stroke-width:1.0;" x1="933" x2="933" y1="901.8516" y2="914.8516"/><line style="stroke:#181818;stroke-width:1.0;" x1="892" x2="933" y1="914.8516" y2="914.8516"/><polygon fill="#181818" points="902,910.8516,892,914.8516,902,918.8516,898,914.8516" style="stroke:#181818;stroke-width:1.0;"/><text fill="#000000" font-family="sans-serif" font-size="13" lengthAdjust="spacing" textLength="191" x="898" y="896.7856">Deploy Model &amp; Infrastructure</text><polygon fill="#181818" points="1406,939.9844,1416,943.9844,1406,947.9844,1410,943.9844" style="stroke:#181818;stroke-width:1.0;"/><line style="stroke:#181818;stroke-width:1.0;" x1="891" x2="1412" y1="943.9844" y2="943.9844"/><text fill="#000000" font-family="sans-serif" font-size="13" lengthAdjust="spacing" textLength="196" x="898" y="938.9185">Notify Deployment Completion</text><polygon fill="#181818" points="1628,969.1172,1638,973.1172,1628,977.1172,1632,973.1172" style="stroke:#181818;stroke-width:1.0;"/><line style="stroke:#181818;stroke-width:1.0;" x1="1418" x2="1634" y1="973.1172" y2="973.1172"/><text fill="#000000" font-family="sans-serif" font-size="13" lengthAdjust="spacing" textLength="198" x="1425" y="968.0513">Production Release Announced</text><polygon fill="#181818" points="651,998.25,641,1002.25,651,1006.25,647,1002.25" style="stroke:#181818;stroke-width:1.0;"/><line style="stroke:#181818;stroke-width:1.0;" x1="645" x2="890" y1="1002.25" y2="1002.25"/><text fill="#000000" font-family="sans-serif" font-size="13" lengthAdjust="spacing" textLength="215" x="657" y="997.1841">Send Performance &amp; Drift Metrics</text><polygon fill="#181818" points="1773,1027.3828,1783,1031.3828,1773,1035.3828,1777,1031.3828" style="stroke:#181818;stroke-width:1.0;"/><line style="stroke:#181818;stroke-width:1.0;" x1="640" x2="1779" y1="1031.3828" y2="1031.3828"/><text fill="#000000" font-family="sans-serif" font-size="13" lengthAdjust="spacing" textLength="157" x="647" y="1026.3169">Evaluate Model Behavior</text><path d="M575.5,1046.3828 L639.5,1046.3828 L639.5,1053.5156 L629.5,1063.5156 L575.5,1063.5156 L575.5,1046.3828 " fill="#EEEEEE" style="stroke:#000000;stroke-width:1.5;"/><rect fill="none" height="116.2031" style="stroke:#000000;stroke-width:1.5;" width="258.5" x="575.5" y="1046.3828"/><text fill="#000000" font-family="sans-serif" font-size="13" font-weight="bold" lengthAdjust="spacing" textLength="19" x="590.5" y="1059.4497">alt</text><text fill="#000000" font-family="sans-serif" font-size="11" font-weight="bold" lengthAdjust="spacing" textLength="169" x="654.5" y="1058.5933">[If Performance Degrades]</text><line style="stroke:#181818;stroke-width:1.0;" x1="640" x2="682" y1="1084.6484" y2="1084.6484"/><line style="stroke:#181818;stroke-width:1.0;" x1="682" x2="682" y1="1084.6484" y2="1097.6484"/><line style="stroke:#181818;stroke-width:1.0;" x1="641" x2="682" y1="1097.6484" y2="1097.6484"/><polygon fill="#181818" points="651,1093.6484,641,1097.6484,651,1101.6484,647,1097.6484" style="stroke:#181818;stroke-width:1.0;"/><text fill="#000000" font-family="sans-serif" font-size="13" lengthAdjust="spacing" textLength="175" x="647" y="1079.5825">Trigger Retraining or Tuning</text><line style="stroke:#000000;stroke-width:1.0;stroke-dasharray:2.0,2.0;" x1="575.5" x2="834" y1="1106.6484" y2="1106.6484"/><text fill="#000000" font-family="sans-serif" font-size="11" font-weight="bold" lengthAdjust="spacing" textLength="149" x="580.5" y="1116.8589">[If Performance Stable]</text><line style="stroke:#181818;stroke-width:1.0;" x1="640" x2="682" y1="1141.5859" y2="1141.5859"/><line style="stroke:#181818;stroke-width:1.0;" x1="682" x2="682" y1="1141.5859" y2="1154.5859"/><line style="stroke:#181818;stroke-width:1.0;" x1="641" x2="682" y1="1154.5859" y2="1154.5859"/><polygon fill="#181818" points="651,1150.5859,641,1154.5859,651,1158.5859,647,1154.5859" style="stroke:#181818;stroke-width:1.0;"/><text fill="#000000" font-family="sans-serif" font-size="13" lengthAdjust="spacing" textLength="128" x="647" y="1136.52">Continue Monitoring</text><polygon fill="#181818" points="879,1186.7188,889,1190.7188,879,1194.7188,883,1190.7188" style="stroke:#181818;stroke-width:1.0;"/><line style="stroke:#181818;stroke-width:1.0;" x1="640" x2="885" y1="1190.7188" y2="1190.7188"/><text fill="#000000" font-family="sans-serif" font-size="13" lengthAdjust="spacing" textLength="227" x="647" y="1185.6528">Schedule Automatic Retraining Jobs</text><polygon fill="#181818" points="1163,1215.8516,1153,1219.8516,1163,1223.8516,1159,1219.8516" style="stroke:#181818;stroke-width:1.0;"/><line style="stroke:#181818;stroke-width:1.0;" x1="1157" x2="1417" y1="1219.8516" y2="1219.8516"/><text fill="#000000" font-family="sans-serif" font-size="13" lengthAdjust="spacing" textLength="242" x="1169" y="1214.7856">Check Updated Model for Regressions</text><polygon fill="#181818" points="1773,1244.9844,1783,1248.9844,1773,1252.9844,1777,1248.9844" style="stroke:#181818;stroke-width:1.0;"/><line style="stroke:#181818;stroke-width:1.0;" x1="1152" x2="1779" y1="1248.9844" y2="1248.9844"/><text fill="#000000" font-family="sans-serif" font-size="13" lengthAdjust="spacing" textLength="278" x="1159" y="1243.9185">Approve Updated Model for Re-Deployment</text><polygon fill="#181818" points="651,1274.1172,641,1278.1172,651,1282.1172,647,1278.1172" style="stroke:#181818;stroke-width:1.0;"/><line style="stroke:#181818;stroke-width:1.0;" x1="645" x2="1784" y1="1278.1172" y2="1278.1172"/><text fill="#000000" font-family="sans-serif" font-size="13" lengthAdjust="spacing" textLength="246" x="657" y="1273.0513">Initiate Retirement if Model is Obsolete</text><polygon fill="#181818" points="1406,1303.25,1416,1307.25,1406,1311.25,1410,1307.25" style="stroke:#181818;stroke-width:1.0;"/><line style="stroke:#181818;stroke-width:1.0;" x1="891" x2="1412" y1="1307.25" y2="1307.25"/><text fill="#000000" font-family="sans-serif" font-size="13" lengthAdjust="spacing" textLength="146" x="898" y="1302.1841">Archive Model Artifacts</text><polygon fill="#181818" points="1773,1332.3828,1783,1336.3828,1773,1340.3828,1777,1336.3828" style="stroke:#181818;stroke-width:1.0;"/><line style="stroke:#181818;stroke-width:1.0;" x1="348" x2="1779" y1="1336.3828" y2="1336.3828"/><text fill="#000000" font-family="sans-serif" font-size="13" lengthAdjust="spacing" textLength="203" x="355" y="1331.3169">Verify Final Compliance Records</text><polygon fill="#181818" points="2080,1361.5156,2090,1365.5156,2080,1369.5156,2084,1365.5156" style="stroke:#181818;stroke-width:1.0;"/><line style="stroke:#181818;stroke-width:1.0;" x1="1785" x2="2086" y1="1365.5156" y2="1365.5156"/><text fill="#000000" font-family="sans-serif" font-size="13" lengthAdjust="spacing" textLength="283" x="1792" y="1360.4497">Confirm Model Retired &amp; Document Lessons</text><!--MD5=[6e3904cb4948531ef107ee7d834ebc8b]
@startuml
title SOP-1020-01-AI: AI Model Lifecycle Management

' Define participants with short names
participant "Project Sponsor" as PS
participant "AI-IRB Liaison" as AIRB
participant "Data Scientist" as DS
participant "MLOps/Operations" as MLOps
participant "Quality Assurance" as QA
participant "Development Team" as Dev
participant "Business Stakeholder" as BS
participant "Model Owner" as MO

' 1) Model Ideation & Requirements Gathering
BS -> DS: Provide Business Objectives & Constraints
DS -> PS: Present High-Level Feasibility
PS -> AIRB: Request Preliminary AI-IRB Ethical Check
AIRB -> DS: Provide Early Ethics Feedback

' 2) Data Collection & Preparation
DS -> DS: Ingest & Clean Data
DS -> DS: Label & Validate Data
DS -> AIRB: Confirm Data Compliance Requirements

' 3) Model Development
DS -> Dev: Request Code Setup & Version Control
Dev -> DS: Provide Development Environment
DS -> DS: Train Model(s), Tune Hyperparams
DS -> QA: Share Preliminary Model Results

' 4) Internal Validation & Testing
QA -> DS: Review Model Performance & Potential Bias
DS -> QA: Provide Model Interpretability Docs
QA -> DS: Request Additional Adjustments (if needed)

' 5) AI-IRB & External Approval
DS -> AIRB: Submit Full Documentation & Compliance
alt AI-IRB Approved?
    else Not Approved
      AIRB -> DS: Provide Revisions Required
      DS -> DS: Revise & Address Concerns
      DS -> AIRB: Resubmit for Approval
    end
AIRB -> PS: AI-IRB Officially Approved

' 6) Pre-Deployment Preparation
MLOps -> DS: Prepare Staging Environment
Dev -> MLOps: Merge Final Code for Deployment
QA -> MLOps: Validate Acceptance Tests in Staging
QA -> MO: Confirm readiness for Production

' 7) Deployment to Production
MO -> MLOps: Authorize Production Rollout
MLOps -> MLOps: Deploy Model & Infrastructure
MLOps -> Dev: Notify Deployment Completion
Dev -> BS: Production Release Announced

' 8) Post-Deployment Monitoring
MLOps -> DS: Send Performance & Drift Metrics
DS -> MO: Evaluate Model Behavior
alt If Performance Degrades
  DS -> DS: Trigger Retraining or Tuning
else If Performance Stable
  DS -> DS: Continue Monitoring
end

' 9) Periodic Retraining & Maintenance
DS -> MLOps: Schedule Automatic Retraining Jobs
Dev -> QA: Check Updated Model for Regressions
QA -> MO: Approve Updated Model for Re-Deployment

' 10) Model Retirement
MO -> DS: Initiate Retirement if Model is Obsolete
MLOps -> Dev: Archive Model Artifacts
AIRB -> MO: Verify Final Compliance Records
MO -> All: Confirm Model Retired & Document Lessons
@enduml

@startuml
title SOP-1020-01-AI: AI Model Lifecycle Management

participant "Project Sponsor" as PS
participant "AI-IRB Liaison" as AIRB
participant "Data Scientist" as DS
participant "MLOps/Operations" as MLOps
participant "Quality Assurance" as QA
participant "Development Team" as Dev
participant "Business Stakeholder" as BS
participant "Model Owner" as MO

BS -> DS: Provide Business Objectives & Constraints
DS -> PS: Present High-Level Feasibility
PS -> AIRB: Request Preliminary AI-IRB Ethical Check
AIRB -> DS: Provide Early Ethics Feedback

DS -> DS: Ingest & Clean Data
DS -> DS: Label & Validate Data
DS -> AIRB: Confirm Data Compliance Requirements

DS -> Dev: Request Code Setup & Version Control
Dev -> DS: Provide Development Environment
DS -> DS: Train Model(s), Tune Hyperparams
DS -> QA: Share Preliminary Model Results

QA -> DS: Review Model Performance & Potential Bias
DS -> QA: Provide Model Interpretability Docs
QA -> DS: Request Additional Adjustments (if needed)

DS -> AIRB: Submit Full Documentation & Compliance
alt AI-IRB Approved?
    else Not Approved
      AIRB -> DS: Provide Revisions Required
      DS -> DS: Revise & Address Concerns
      DS -> AIRB: Resubmit for Approval
    end
AIRB -> PS: AI-IRB Officially Approved

MLOps -> DS: Prepare Staging Environment
Dev -> MLOps: Merge Final Code for Deployment
QA -> MLOps: Validate Acceptance Tests in Staging
QA -> MO: Confirm readiness for Production

MO -> MLOps: Authorize Production Rollout
MLOps -> MLOps: Deploy Model & Infrastructure
MLOps -> Dev: Notify Deployment Completion
Dev -> BS: Production Release Announced

MLOps -> DS: Send Performance & Drift Metrics
DS -> MO: Evaluate Model Behavior
alt If Performance Degrades
  DS -> DS: Trigger Retraining or Tuning
else If Performance Stable
  DS -> DS: Continue Monitoring
end

DS -> MLOps: Schedule Automatic Retraining Jobs
Dev -> QA: Check Updated Model for Regressions
QA -> MO: Approve Updated Model for Re-Deployment

MO -> DS: Initiate Retirement if Model is Obsolete
MLOps -> Dev: Archive Model Artifacts
AIRB -> MO: Verify Final Compliance Records
MO -> All: Confirm Model Retired & Document Lessons
@enduml

PlantUML version 1.2022.7(Mon Aug 22 17:01:30 UTC 2022)
(GPL source distribution)
Java Runtime: OpenJDK Runtime Environment
JVM: OpenJDK 64-Bit Server VM
Default Encoding: UTF-8
Language: en
Country: null
--></g></svg>