<?xml version="1.0" encoding="UTF-8" standalone="no"?><svg xmlns="http://www.w3.org/2000/svg" xmlns:xlink="http://www.w3.org/1999/xlink" contentStyleType="text/css" height="1678px" preserveAspectRatio="none" style="width:1510px;height:1678px;background:#FFFFFF;" version="1.1" viewBox="0 0 1510 1678" width="1510px" zoomAndPan="magnify"><defs/><g><rect fill="none" height="26.2969" id="_title" style="stroke:none;stroke-width:1.0;" width="527" x="490.5" y="10"/><text fill="#000000" font-family="sans-serif" font-size="14" font-weight="bold" lengthAdjust="spacing" textLength="517" x="495.5" y="27.9951">SOP-1009-01-AI: Model Drift and Re-Validation Sequence Diagram</text><rect fill="none" height="96.2031" style="stroke:#000000;stroke-width:1.5;" width="1206.5" x="20" y="362.6563"/><rect fill="none" height="190.6016" style="stroke:#000000;stroke-width:1.5;" width="997.5" x="229" y="660.6563"/><rect fill="none" height="156.4688" style="stroke:#000000;stroke-width:1.5;" width="798" x="10" y="1166.4531"/><rect fill="none" height="46.2656" style="stroke:#000000;stroke-width:1.5;" width="778" x="20" y="1219.7188"/><rect fill="none" height="59.2656" style="stroke:#000000;stroke-width:1.5;" width="287.5" x="20" y="1566.8516"/><line style="stroke:#181818;stroke-width:0.5;stroke-dasharray:5.0,5.0;" x1="82" x2="82" y1="73.5938" y2="1643.1172"/><line style="stroke:#181818;stroke-width:0.5;stroke-dasharray:5.0,5.0;" x1="302" x2="302" y1="73.5938" y2="1643.1172"/><line style="stroke:#181818;stroke-width:0.5;stroke-dasharray:5.0,5.0;" x1="436" x2="436" y1="73.5938" y2="1643.1172"/><line style="stroke:#181818;stroke-width:0.5;stroke-dasharray:5.0,5.0;" x1="719" x2="719" y1="73.5938" y2="1643.1172"/><line style="stroke:#181818;stroke-width:0.5;stroke-dasharray:5.0,5.0;" x1="914.5" x2="914.5" y1="73.5938" y2="1643.1172"/><line style="stroke:#181818;stroke-width:0.5;stroke-dasharray:5.0,5.0;" x1="1153.5" x2="1153.5" y1="73.5938" y2="1643.1172"/><line style="stroke:#181818;stroke-width:0.5;stroke-dasharray:5.0,5.0;" x1="1426" x2="1426" y1="73.5938" y2="1643.1172"/><rect fill="#E2E2F0" height="30.2969" rx="2.5" ry="2.5" style="stroke:#181818;stroke-width:0.5;" width="105" x="30" y="42.2969"/><text fill="#000000" font-family="sans-serif" font-size="14" lengthAdjust="spacing" textLength="91" x="37" y="62.292">AI-IRB Liaison</text><rect fill="#E2E2F0" height="30.2969" rx="2.5" ry="2.5" style="stroke:#181818;stroke-width:0.5;" width="105" x="30" y="1642.1172"/><text fill="#000000" font-family="sans-serif" font-size="14" lengthAdjust="spacing" textLength="91" x="37" y="1662.1123">AI-IRB Liaison</text><rect fill="#E2E2F0" height="30.2969" rx="2.5" ry="2.5" style="stroke:#181818;stroke-width:0.5;" width="127" x="239" y="42.2969"/><text fill="#000000" font-family="sans-serif" font-size="14" lengthAdjust="spacing" textLength="113" x="246" y="62.292">Business Owner</text><rect fill="#E2E2F0" height="30.2969" rx="2.5" ry="2.5" style="stroke:#181818;stroke-width:0.5;" width="127" x="239" y="1642.1172"/><text fill="#000000" font-family="sans-serif" font-size="14" lengthAdjust="spacing" textLength="113" x="246" y="1662.1123">Business Owner</text><rect fill="#E2E2F0" height="30.2969" rx="2.5" ry="2.5" style="stroke:#181818;stroke-width:0.5;" width="109" x="382" y="42.2969"/><text fill="#000000" font-family="sans-serif" font-size="14" lengthAdjust="spacing" textLength="95" x="389" y="62.292">Data Scientist</text><rect fill="#E2E2F0" height="30.2969" rx="2.5" ry="2.5" style="stroke:#181818;stroke-width:0.5;" width="109" x="382" y="1642.1172"/><text fill="#000000" font-family="sans-serif" font-size="14" lengthAdjust="spacing" textLength="95" x="389" y="1662.1123">Data Scientist</text><rect fill="#E2E2F0" height="30.2969" rx="2.5" ry="2.5" style="stroke:#181818;stroke-width:0.5;" width="137" x="651" y="42.2969"/><text fill="#000000" font-family="sans-serif" font-size="14" lengthAdjust="spacing" textLength="123" x="658" y="62.292">Quality Assurance</text><rect fill="#E2E2F0" height="30.2969" rx="2.5" ry="2.5" style="stroke:#181818;stroke-width:0.5;" width="137" x="651" y="1642.1172"/><text fill="#000000" font-family="sans-serif" font-size="14" lengthAdjust="spacing" textLength="123" x="658" y="1662.1123">Quality Assurance</text><rect fill="#E2E2F0" height="30.2969" rx="2.5" ry="2.5" style="stroke:#181818;stroke-width:0.5;" width="132" x="848.5" y="42.2969"/><text fill="#000000" font-family="sans-serif" font-size="14" lengthAdjust="spacing" textLength="118" x="855.5" y="62.292">Operations (Ops)</text><rect fill="#E2E2F0" height="30.2969" rx="2.5" ry="2.5" style="stroke:#181818;stroke-width:0.5;" width="132" x="848.5" y="1642.1172"/><text fill="#000000" font-family="sans-serif" font-size="14" lengthAdjust="spacing" textLength="118" x="855.5" y="1662.1123">Operations (Ops)</text><rect fill="#E2E2F0" height="30.2969" rx="2.5" ry="2.5" style="stroke:#181818;stroke-width:0.5;" width="126" x="1090.5" y="42.2969"/><text fill="#000000" font-family="sans-serif" font-size="14" lengthAdjust="spacing" textLength="112" x="1097.5" y="62.292">Project Manager</text><rect fill="#E2E2F0" height="30.2969" rx="2.5" ry="2.5" style="stroke:#181818;stroke-width:0.5;" width="126" x="1090.5" y="1642.1172"/><text fill="#000000" font-family="sans-serif" font-size="14" lengthAdjust="spacing" textLength="112" x="1097.5" y="1662.1123">Project Manager</text><rect fill="#E2E2F0" height="30.2969" rx="2.5" ry="2.5" style="stroke:#181818;stroke-width:0.5;" width="155" x="1349" y="42.2969"/><text fill="#000000" font-family="sans-serif" font-size="14" lengthAdjust="spacing" textLength="141" x="1356" y="62.292">Security/Compliance</text><rect fill="#E2E2F0" height="30.2969" rx="2.5" ry="2.5" style="stroke:#181818;stroke-width:0.5;" width="155" x="1349" y="1642.1172"/><text fill="#000000" font-family="sans-serif" font-size="14" lengthAdjust="spacing" textLength="141" x="1356" y="1662.1123">Security/Compliance</text><line style="stroke:#181818;stroke-width:1.0;" x1="436.5" x2="478.5" y1="104.7266" y2="104.7266"/><line style="stroke:#181818;stroke-width:1.0;" x1="478.5" x2="478.5" y1="104.7266" y2="117.7266"/><line style="stroke:#181818;stroke-width:1.0;" x1="437.5" x2="478.5" y1="117.7266" y2="117.7266"/><polygon fill="#181818" points="447.5,113.7266,437.5,117.7266,447.5,121.7266,443.5,117.7266" style="stroke:#181818;stroke-width:1.0;"/><text fill="#000000" font-family="sans-serif" font-size="13" lengthAdjust="spacing" textLength="178" x="443.5" y="99.6606">Monitor model performance</text><line style="stroke:#181818;stroke-width:1.0;" x1="436.5" x2="478.5" y1="146.8594" y2="146.8594"/><line style="stroke:#181818;stroke-width:1.0;" x1="478.5" x2="478.5" y1="146.8594" y2="159.8594"/><line style="stroke:#181818;stroke-width:1.0;" x1="437.5" x2="478.5" y1="159.8594" y2="159.8594"/><polygon fill="#181818" points="447.5,155.8594,437.5,159.8594,447.5,163.8594,443.5,159.8594" style="stroke:#181818;stroke-width:1.0;"/><text fill="#000000" font-family="sans-serif" font-size="13" lengthAdjust="spacing" textLength="231" x="443.5" y="141.7935">Detect anomaly or threshold breach</text><line style="stroke:#181818;stroke-width:1.0;" x1="436.5" x2="478.5" y1="188.9922" y2="188.9922"/><line style="stroke:#181818;stroke-width:1.0;" x1="478.5" x2="478.5" y1="188.9922" y2="201.9922"/><line style="stroke:#181818;stroke-width:1.0;" x1="437.5" x2="478.5" y1="201.9922" y2="201.9922"/><polygon fill="#181818" points="447.5,197.9922,437.5,201.9922,447.5,205.9922,443.5,201.9922" style="stroke:#181818;stroke-width:1.0;"/><text fill="#000000" font-family="sans-serif" font-size="13" lengthAdjust="spacing" textLength="269" x="443.5" y="183.9263">Classify Trigger Event (drift/bias/data shift)</text><polygon fill="#181818" points="1141.5,227.125,1151.5,231.125,1141.5,235.125,1145.5,231.125" style="stroke:#181818;stroke-width:1.0;"/><line style="stroke:#181818;stroke-width:1.0;" x1="436.5" x2="1147.5" y1="231.125" y2="231.125"/><text fill="#000000" font-family="sans-serif" font-size="13" lengthAdjust="spacing" textLength="126" x="443.5" y="226.0591">Notify potential drift</text><polygon fill="#181818" points="313.5,256.2578,303.5,260.2578,313.5,264.2578,309.5,260.2578" style="stroke:#181818;stroke-width:1.0;"/><line style="stroke:#181818;stroke-width:1.0;" x1="307.5" x2="1152.5" y1="260.2578" y2="260.2578"/><text fill="#000000" font-family="sans-serif" font-size="13" lengthAdjust="spacing" textLength="151" x="319.5" y="255.1919">Inform about drift event</text><polygon fill="#181818" points="730.5,285.3906,720.5,289.3906,730.5,293.3906,726.5,289.3906" style="stroke:#181818;stroke-width:1.0;"/><line style="stroke:#181818;stroke-width:1.0;" x1="724.5" x2="1152.5" y1="289.3906" y2="289.3906"/><text fill="#000000" font-family="sans-serif" font-size="13" lengthAdjust="spacing" textLength="171" x="736.5" y="284.3247">Request quick assessment</text><polygon fill="#181818" points="925.5,314.5234,915.5,318.5234,925.5,322.5234,921.5,318.5234" style="stroke:#181818;stroke-width:1.0;"/><line style="stroke:#181818;stroke-width:1.0;" x1="919.5" x2="1152.5" y1="318.5234" y2="318.5234"/><text fill="#000000" font-family="sans-serif" font-size="13" lengthAdjust="spacing" textLength="215" x="931.5" y="313.4575">Request environment/log analysis</text><polygon fill="#181818" points="1414.5,343.6563,1424.5,347.6563,1414.5,351.6563,1418.5,347.6563" style="stroke:#181818;stroke-width:1.0;"/><line style="stroke:#181818;stroke-width:1.0;" x1="1153.5" x2="1420.5" y1="347.6563" y2="347.6563"/><text fill="#000000" font-family="sans-serif" font-size="13" lengthAdjust="spacing" textLength="249" x="1160.5" y="342.5903">Check compliance or security concerns</text><path d="M20,362.6563 L84,362.6563 L84,369.7891 L74,379.7891 L20,379.7891 L20,362.6563 " fill="#EEEEEE" style="stroke:#000000;stroke-width:1.5;"/><rect fill="none" height="96.2031" style="stroke:#000000;stroke-width:1.5;" width="1206.5" x="20" y="362.6563"/><text fill="#000000" font-family="sans-serif" font-size="13" font-weight="bold" lengthAdjust="spacing" textLength="19" x="35" y="375.7231">alt</text><text fill="#000000" font-family="sans-serif" font-size="11" font-weight="bold" lengthAdjust="spacing" textLength="184" x="99" y="374.8667">[Ethical/Regulatory Concern]</text><polygon fill="#181818" points="93.5,396.9219,83.5,400.9219,93.5,404.9219,89.5,400.9219" style="stroke:#181818;stroke-width:1.0;"/><line style="stroke:#181818;stroke-width:1.0;" x1="87.5" x2="1152.5" y1="400.9219" y2="400.9219"/><text fill="#000000" font-family="sans-serif" font-size="13" lengthAdjust="spacing" textLength="162" x="99.5" y="395.856">Notify AI-IRB for oversight</text><line style="stroke:#000000;stroke-width:1.0;stroke-dasharray:2.0,2.0;" x1="20" x2="1226.5" y1="409.9219" y2="409.9219"/><text fill="#000000" font-family="sans-serif" font-size="11" font-weight="bold" lengthAdjust="spacing" textLength="132" x="25" y="420.1323">[No Ethical Concern]</text><path d="M380,428.7266 L380,453.7266 L1209,453.7266 L1209,438.7266 L1199,428.7266 L380,428.7266 " fill="#FEFFDD" style="stroke:#181818;stroke-width:0.5;"/><path d="M1199,428.7266 L1199,438.7266 L1209,438.7266 L1199,428.7266 " fill="#FEFFDD" style="stroke:#181818;stroke-width:0.5;"/><text fill="#000000" font-family="sans-serif" font-size="13" lengthAdjust="spacing" textLength="101" x="739.75" y="445.7935">IRB not involved</text><line style="stroke:#181818;stroke-width:1.0;" x1="436.5" x2="478.5" y1="486.9922" y2="486.9922"/><line style="stroke:#181818;stroke-width:1.0;" x1="478.5" x2="478.5" y1="486.9922" y2="499.9922"/><line style="stroke:#181818;stroke-width:1.0;" x1="437.5" x2="478.5" y1="499.9922" y2="499.9922"/><polygon fill="#181818" points="447.5,495.9922,437.5,499.9922,447.5,503.9922,443.5,499.9922" style="stroke:#181818;stroke-width:1.0;"/><text fill="#000000" font-family="sans-serif" font-size="13" lengthAdjust="spacing" textLength="151" x="443.5" y="481.9263">Draft Re-Validation Plan</text><polygon fill="#181818" points="1141.5,525.125,1151.5,529.125,1141.5,533.125,1145.5,529.125" style="stroke:#181818;stroke-width:1.0;"/><line style="stroke:#181818;stroke-width:1.0;" x1="436.5" x2="1147.5" y1="529.125" y2="529.125"/><text fill="#000000" font-family="sans-serif" font-size="13" lengthAdjust="spacing" textLength="165" x="443.5" y="524.0591">Submit Re-Validation Plan</text><polygon fill="#181818" points="313.5,554.2578,303.5,558.2578,313.5,562.2578,309.5,558.2578" style="stroke:#181818;stroke-width:1.0;"/><line style="stroke:#181818;stroke-width:1.0;" x1="307.5" x2="1152.5" y1="558.2578" y2="558.2578"/><text fill="#000000" font-family="sans-serif" font-size="13" lengthAdjust="spacing" textLength="111" x="319.5" y="553.1919">Request approval</text><polygon fill="#181818" points="730.5,583.3906,720.5,587.3906,730.5,591.3906,726.5,587.3906" style="stroke:#181818;stroke-width:1.0;"/><line style="stroke:#181818;stroke-width:1.0;" x1="724.5" x2="1152.5" y1="587.3906" y2="587.3906"/><text fill="#000000" font-family="sans-serif" font-size="13" lengthAdjust="spacing" textLength="114" x="736.5" y="582.3247">Request feedback</text><polygon fill="#181818" points="925.5,612.5234,915.5,616.5234,925.5,620.5234,921.5,616.5234" style="stroke:#181818;stroke-width:1.0;"/><line style="stroke:#181818;stroke-width:1.0;" x1="919.5" x2="1152.5" y1="616.5234" y2="616.5234"/><text fill="#000000" font-family="sans-serif" font-size="13" lengthAdjust="spacing" textLength="200" x="931.5" y="611.4575">Request environment feasibility</text><polygon fill="#181818" points="1414.5,641.6563,1424.5,645.6563,1414.5,649.6563,1418.5,645.6563" style="stroke:#181818;stroke-width:1.0;"/><line style="stroke:#181818;stroke-width:1.0;" x1="1153.5" x2="1420.5" y1="645.6563" y2="645.6563"/><text fill="#000000" font-family="sans-serif" font-size="13" lengthAdjust="spacing" textLength="191" x="1160.5" y="640.5903">Request compliance feedback</text><path d="M229,660.6563 L293,660.6563 L293,667.7891 L283,677.7891 L229,677.7891 L229,660.6563 " fill="#EEEEEE" style="stroke:#000000;stroke-width:1.5;"/><rect fill="none" height="190.6016" style="stroke:#000000;stroke-width:1.5;" width="997.5" x="229" y="660.6563"/><text fill="#000000" font-family="sans-serif" font-size="13" font-weight="bold" lengthAdjust="spacing" textLength="19" x="244" y="673.7231">alt</text><text fill="#000000" font-family="sans-serif" font-size="11" font-weight="bold" lengthAdjust="spacing" textLength="102" x="308" y="672.8667">[Plan Approved]</text><polygon fill="#181818" points="1141.5,694.9219,1151.5,698.9219,1141.5,702.9219,1145.5,698.9219" style="stroke:#181818;stroke-width:1.0;"/><line style="stroke:#181818;stroke-width:1.0;" x1="302.5" x2="1147.5" y1="698.9219" y2="698.9219"/><text fill="#000000" font-family="sans-serif" font-size="13" lengthAdjust="spacing" textLength="84" x="309.5" y="693.856">Approve Plan</text><line style="stroke:#000000;stroke-width:1.0;stroke-dasharray:2.0,2.0;" x1="229" x2="1226.5" y1="707.9219" y2="707.9219"/><text fill="#000000" font-family="sans-serif" font-size="11" font-weight="bold" lengthAdjust="spacing" textLength="103" x="234" y="718.1323">[Plan Revisions]</text><polygon fill="#181818" points="424.5,738.8594,434.5,742.8594,424.5,746.8594,428.5,742.8594" style="stroke:#181818;stroke-width:1.0;"/><line style="stroke:#181818;stroke-width:1.0;" x1="302.5" x2="430.5" y1="742.8594" y2="742.8594"/><text fill="#000000" font-family="sans-serif" font-size="13" lengthAdjust="spacing" textLength="110" x="309.5" y="737.7935">Request changes</text><line style="stroke:#181818;stroke-width:1.0;" x1="436.5" x2="478.5" y1="771.9922" y2="771.9922"/><line style="stroke:#181818;stroke-width:1.0;" x1="478.5" x2="478.5" y1="771.9922" y2="784.9922"/><line style="stroke:#181818;stroke-width:1.0;" x1="437.5" x2="478.5" y1="784.9922" y2="784.9922"/><polygon fill="#181818" points="447.5,780.9922,437.5,784.9922,447.5,788.9922,443.5,784.9922" style="stroke:#181818;stroke-width:1.0;"/><text fill="#000000" font-family="sans-serif" font-size="13" lengthAdjust="spacing" textLength="78" x="443.5" y="766.9263">Update Plan</text><polygon fill="#181818" points="1141.5,810.125,1151.5,814.125,1141.5,818.125,1145.5,814.125" style="stroke:#181818;stroke-width:1.0;"/><line style="stroke:#181818;stroke-width:1.0;" x1="436.5" x2="1147.5" y1="814.125" y2="814.125"/><text fill="#000000" font-family="sans-serif" font-size="13" lengthAdjust="spacing" textLength="60" x="443.5" y="809.0591">Resubmit</text><polygon fill="#181818" points="1141.5,839.2578,1151.5,843.2578,1141.5,847.2578,1145.5,843.2578" style="stroke:#181818;stroke-width:1.0;"/><line style="stroke:#181818;stroke-width:1.0;" x1="302.5" x2="1147.5" y1="843.2578" y2="843.2578"/><text fill="#000000" font-family="sans-serif" font-size="13" lengthAdjust="spacing" textLength="84" x="309.5" y="838.1919">Approve Plan</text><line style="stroke:#181818;stroke-width:1.0;" x1="436.5" x2="478.5" y1="879.3906" y2="879.3906"/><line style="stroke:#181818;stroke-width:1.0;" x1="478.5" x2="478.5" y1="879.3906" y2="892.3906"/><line style="stroke:#181818;stroke-width:1.0;" x1="437.5" x2="478.5" y1="892.3906" y2="892.3906"/><polygon fill="#181818" points="447.5,888.3906,437.5,892.3906,447.5,896.3906,443.5,892.3906" style="stroke:#181818;stroke-width:1.0;"/><text fill="#000000" font-family="sans-serif" font-size="13" lengthAdjust="spacing" textLength="247" x="443.5" y="874.3247">Collect updated data &amp; configure tests</text><polygon fill="#181818" points="447.5,917.5234,437.5,921.5234,447.5,925.5234,443.5,921.5234" style="stroke:#181818;stroke-width:1.0;"/><line style="stroke:#181818;stroke-width:1.0;" x1="441.5" x2="913.5" y1="921.5234" y2="921.5234"/><text fill="#000000" font-family="sans-serif" font-size="13" lengthAdjust="spacing" textLength="199" x="453.5" y="916.4575">Provide environment resources</text><polygon fill="#181818" points="447.5,946.6563,437.5,950.6563,447.5,954.6563,443.5,950.6563" style="stroke:#181818;stroke-width:1.0;"/><line style="stroke:#181818;stroke-width:1.0;" x1="441.5" x2="1425.5" y1="950.6563" y2="950.6563"/><text fill="#000000" font-family="sans-serif" font-size="13" lengthAdjust="spacing" textLength="199" x="453.5" y="945.5903">Approve data usage for privacy</text><polygon fill="#181818" points="707.5,975.7891,717.5,979.7891,707.5,983.7891,711.5,979.7891" style="stroke:#181818;stroke-width:1.0;"/><line style="stroke:#181818;stroke-width:1.0;" x1="436.5" x2="713.5" y1="979.7891" y2="979.7891"/><text fill="#000000" font-family="sans-serif" font-size="13" lengthAdjust="spacing" textLength="131" x="443.5" y="974.7231">Verify test readiness</text><line style="stroke:#181818;stroke-width:1.0;" x1="436.5" x2="478.5" y1="1008.9219" y2="1008.9219"/><line style="stroke:#181818;stroke-width:1.0;" x1="478.5" x2="478.5" y1="1008.9219" y2="1021.9219"/><line style="stroke:#181818;stroke-width:1.0;" x1="437.5" x2="478.5" y1="1021.9219" y2="1021.9219"/><polygon fill="#181818" points="447.5,1017.9219,437.5,1021.9219,447.5,1025.9219,443.5,1021.9219" style="stroke:#181818;stroke-width:1.0;"/><text fill="#000000" font-family="sans-serif" font-size="13" lengthAdjust="spacing" textLength="263" x="443.5" y="1003.856">Run re-validation tests (metrics/bias/etc.)</text><polygon fill="#181818" points="707.5,1047.0547,717.5,1051.0547,707.5,1055.0547,711.5,1051.0547" style="stroke:#181818;stroke-width:1.0;"/><line style="stroke:#181818;stroke-width:1.0;" x1="436.5" x2="713.5" y1="1051.0547" y2="1051.0547"/><text fill="#000000" font-family="sans-serif" font-size="13" lengthAdjust="spacing" textLength="123" x="443.5" y="1045.9888">Provide test results</text><line style="stroke:#181818;stroke-width:1.0;" x1="719.5" x2="761.5" y1="1080.1875" y2="1080.1875"/><line style="stroke:#181818;stroke-width:1.0;" x1="761.5" x2="761.5" y1="1080.1875" y2="1093.1875"/><line style="stroke:#181818;stroke-width:1.0;" x1="720.5" x2="761.5" y1="1093.1875" y2="1093.1875"/><polygon fill="#181818" points="730.5,1089.1875,720.5,1093.1875,730.5,1097.1875,726.5,1093.1875" style="stroke:#181818;stroke-width:1.0;"/><text fill="#000000" font-family="sans-serif" font-size="13" lengthAdjust="spacing" textLength="181" x="726.5" y="1075.1216">Log results, track any issues</text><polygon fill="#181818" points="707.5,1118.3203,717.5,1122.3203,707.5,1126.3203,711.5,1122.3203" style="stroke:#181818;stroke-width:1.0;"/><line style="stroke:#181818;stroke-width:1.0;" x1="436.5" x2="713.5" y1="1122.3203" y2="1122.3203"/><text fill="#000000" font-family="sans-serif" font-size="13" lengthAdjust="spacing" textLength="85" x="443.5" y="1117.2544">Share results</text><polygon fill="#181818" points="313.5,1147.4531,303.5,1151.4531,313.5,1155.4531,309.5,1151.4531" style="stroke:#181818;stroke-width:1.0;"/><line style="stroke:#181818;stroke-width:1.0;" x1="307.5" x2="718.5" y1="1151.4531" y2="1151.4531"/><text fill="#000000" font-family="sans-serif" font-size="13" lengthAdjust="spacing" textLength="130" x="319.5" y="1146.3872">Summarize pass/fail</text><path d="M10,1166.4531 L74,1166.4531 L74,1173.5859 L64,1183.5859 L10,1183.5859 L10,1166.4531 " fill="#EEEEEE" style="stroke:#000000;stroke-width:1.5;"/><rect fill="none" height="156.4688" style="stroke:#000000;stroke-width:1.5;" width="798" x="10" y="1166.4531"/><text fill="#000000" font-family="sans-serif" font-size="13" font-weight="bold" lengthAdjust="spacing" textLength="19" x="25" y="1179.52">alt</text><text fill="#000000" font-family="sans-serif" font-size="11" font-weight="bold" lengthAdjust="spacing" textLength="86" x="89" y="1178.6636">[Criteria Met]</text><polygon fill="#181818" points="707.5,1200.7188,717.5,1204.7188,707.5,1208.7188,711.5,1204.7188" style="stroke:#181818;stroke-width:1.0;"/><line style="stroke:#181818;stroke-width:1.0;" x1="302.5" x2="713.5" y1="1204.7188" y2="1204.7188"/><text fill="#000000" font-family="sans-serif" font-size="13" lengthAdjust="spacing" textLength="149" x="309.5" y="1199.6528">Sign off updated model</text><path d="M20,1219.7188 L84,1219.7188 L84,1226.8516 L74,1236.8516 L20,1236.8516 L20,1219.7188 " fill="#EEEEEE" style="stroke:#000000;stroke-width:1.5;"/><rect fill="none" height="46.2656" style="stroke:#000000;stroke-width:1.5;" width="778" x="20" y="1219.7188"/><text fill="#000000" font-family="sans-serif" font-size="13" font-weight="bold" lengthAdjust="spacing" textLength="19" x="35" y="1232.7856">alt</text><text fill="#000000" font-family="sans-serif" font-size="11" font-weight="bold" lengthAdjust="spacing" textLength="111" x="99" y="1231.9292">[Ethical Concern]</text><polygon fill="#181818" points="707.5,1253.9844,717.5,1257.9844,707.5,1261.9844,711.5,1257.9844" style="stroke:#181818;stroke-width:1.0;"/><line style="stroke:#181818;stroke-width:1.0;" x1="82.5" x2="713.5" y1="1257.9844" y2="1257.9844"/><text fill="#000000" font-family="sans-serif" font-size="13" lengthAdjust="spacing" textLength="170" x="89.5" y="1252.9185">Ethical compliance sign-off</text><line style="stroke:#000000;stroke-width:1.0;stroke-dasharray:2.0,2.0;" x1="10" x2="808" y1="1273.9844" y2="1273.9844"/><text fill="#000000" font-family="sans-serif" font-size="11" font-weight="bold" lengthAdjust="spacing" textLength="112" x="15" y="1284.1948">[Criteria Not Met]</text><path d="M377,1292.7891 L377,1317.7891 L778,1317.7891 L778,1302.7891 L768,1292.7891 L377,1292.7891 " fill="#FEFFDD" style="stroke:#181818;stroke-width:0.5;"/><path d="M768,1292.7891 L768,1302.7891 L778,1302.7891 L768,1292.7891 " fill="#FEFFDD" style="stroke:#181818;stroke-width:0.5;"/><text fill="#000000" font-family="sans-serif" font-size="13" lengthAdjust="spacing" textLength="240" x="453" y="1309.856">Root cause analysis, re-train or revert</text><polygon fill="#181818" points="902.5,1347.0547,912.5,1351.0547,902.5,1355.0547,906.5,1351.0547" style="stroke:#181818;stroke-width:1.0;"/><line style="stroke:#181818;stroke-width:1.0;" x1="719.5" x2="908.5" y1="1351.0547" y2="1351.0547"/><text fill="#000000" font-family="sans-serif" font-size="13" lengthAdjust="spacing" textLength="141" x="726.5" y="1345.9888">Authorize deployment</text><line style="stroke:#181818;stroke-width:1.0;" x1="914.5" x2="956.5" y1="1380.1875" y2="1380.1875"/><line style="stroke:#181818;stroke-width:1.0;" x1="956.5" x2="956.5" y1="1380.1875" y2="1393.1875"/><line style="stroke:#181818;stroke-width:1.0;" x1="915.5" x2="956.5" y1="1393.1875" y2="1393.1875"/><polygon fill="#181818" points="925.5,1389.1875,915.5,1393.1875,925.5,1397.1875,921.5,1393.1875" style="stroke:#181818;stroke-width:1.0;"/><text fill="#000000" font-family="sans-serif" font-size="13" lengthAdjust="spacing" textLength="168" x="921.5" y="1375.1216">Deploy re-validated model</text><polygon fill="#181818" points="902.5,1418.3203,912.5,1422.3203,902.5,1426.3203,906.5,1422.3203" style="stroke:#181818;stroke-width:1.0;"/><line style="stroke:#181818;stroke-width:1.0;" x1="436.5" x2="908.5" y1="1422.3203" y2="1422.3203"/><text fill="#000000" font-family="sans-serif" font-size="13" lengthAdjust="spacing" textLength="189" x="443.5" y="1417.2544">Final verification in production</text><polygon fill="#181818" points="925.5,1447.4531,915.5,1451.4531,925.5,1455.4531,921.5,1451.4531" style="stroke:#181818;stroke-width:1.0;"/><line style="stroke:#181818;stroke-width:1.0;" x1="919.5" x2="1425.5" y1="1451.4531" y2="1451.4531"/><text fill="#000000" font-family="sans-serif" font-size="13" lengthAdjust="spacing" textLength="220" x="931.5" y="1446.3872">Confirm no new compliance issues</text><line style="stroke:#181818;stroke-width:1.0;" x1="436.5" x2="478.5" y1="1480.5859" y2="1480.5859"/><line style="stroke:#181818;stroke-width:1.0;" x1="478.5" x2="478.5" y1="1480.5859" y2="1493.5859"/><line style="stroke:#181818;stroke-width:1.0;" x1="437.5" x2="478.5" y1="1493.5859" y2="1493.5859"/><polygon fill="#181818" points="447.5,1489.5859,437.5,1493.5859,447.5,1497.5859,443.5,1493.5859" style="stroke:#181818;stroke-width:1.0;"/><text fill="#000000" font-family="sans-serif" font-size="13" lengthAdjust="spacing" textLength="181" x="443.5" y="1475.52">Finalize Re-Validation Report</text><polygon fill="#181818" points="447.5,1518.7188,437.5,1522.7188,447.5,1526.7188,443.5,1522.7188" style="stroke:#181818;stroke-width:1.0;"/><line style="stroke:#181818;stroke-width:1.0;" x1="441.5" x2="1152.5" y1="1522.7188" y2="1522.7188"/><text fill="#000000" font-family="sans-serif" font-size="13" lengthAdjust="spacing" textLength="219" x="453.5" y="1517.6528">Organize lessons-learned meeting</text><polygon fill="#181818" points="707.5,1547.8516,717.5,1551.8516,707.5,1555.8516,711.5,1551.8516" style="stroke:#181818;stroke-width:1.0;"/><line style="stroke:#181818;stroke-width:1.0;" x1="436.5" x2="713.5" y1="1551.8516" y2="1551.8516"/><text fill="#000000" font-family="sans-serif" font-size="13" lengthAdjust="spacing" textLength="103" x="443.5" y="1546.7856">Archive artifacts</text><path d="M20,1566.8516 L84,1566.8516 L84,1573.9844 L74,1583.9844 L20,1583.9844 L20,1566.8516 " fill="#EEEEEE" style="stroke:#000000;stroke-width:1.5;"/><rect fill="none" height="59.2656" style="stroke:#000000;stroke-width:1.5;" width="287.5" x="20" y="1566.8516"/><text fill="#000000" font-family="sans-serif" font-size="13" font-weight="bold" lengthAdjust="spacing" textLength="19" x="35" y="1579.9185">alt</text><text fill="#000000" font-family="sans-serif" font-size="11" font-weight="bold" lengthAdjust="spacing" textLength="132" x="99" y="1579.062">[If IRB was involved]</text><line style="stroke:#181818;stroke-width:1.0;" x1="82.5" x2="124.5" y1="1605.1172" y2="1605.1172"/><line style="stroke:#181818;stroke-width:1.0;" x1="124.5" x2="124.5" y1="1605.1172" y2="1618.1172"/><line style="stroke:#181818;stroke-width:1.0;" x1="83.5" x2="124.5" y1="1618.1172" y2="1618.1172"/><polygon fill="#181818" points="93.5,1614.1172,83.5,1618.1172,93.5,1622.1172,89.5,1618.1172" style="stroke:#181818;stroke-width:1.0;"/><text fill="#000000" font-family="sans-serif" font-size="13" lengthAdjust="spacing" textLength="206" x="89.5" y="1600.0513">Log ethical/regulatory outcomes</text><!--MD5=[9ad8c1fccfc49350a8e7b5254d274ff1]
@startuml
title SOP-1009-01-AI: Model Drift and Re-Validation Sequence Diagram

participant "AI-IRB Liaison" as IRB
participant "Business Owner" as BO
participant "Data Scientist" as DS
participant "Quality Assurance" as QA
participant "Operations (Ops)" as OPS
participant "Project Manager" as PM
participant "Security/Compliance" as SC

' Step 4.1: Monitoring and Drift Detection
DS -> DS: Monitor model performance
DS -> DS: Detect anomaly or threshold breach
DS -> DS: Classify Trigger Event (drift/bias/data shift)

' Step 4.2: Initiate Drift Evaluation
DS -> PM: Notify potential drift
PM -> BO: Inform about drift event
PM -> QA: Request quick assessment
PM -> OPS: Request environment/log analysis
PM -> SC: Check compliance or security concerns

alt Ethical/Regulatory Concern
  PM -> IRB: Notify AI-IRB for oversight
else No Ethical Concern
  note over PM,DS: IRB not involved
end

' Step 4.3: Approve Re-Validation Plan
DS -> DS: Draft Re-Validation Plan
DS -> PM: Submit Re-Validation Plan
PM -> BO: Request approval
PM -> QA: Request feedback
PM -> OPS: Request environment feasibility
PM -> SC: Request compliance feedback
alt Plan Approved
  BO -> PM: Approve Plan
else Plan Revisions
  BO -> DS: Request changes
  DS -> DS: Update Plan
  DS -> PM: Resubmit
  BO -> PM: Approve Plan
end

' Step 4.4: Prepare Re-Validation
DS -> DS: Collect updated data & configure tests
OPS -> DS: Provide environment resources
SC -> DS: Approve data usage for privacy
DS -> QA: Verify test readiness

' Step 4.5: Execute Re-Validation
DS -> DS: Run re-validation tests (metrics/bias/etc.)
DS -> QA: Provide test results
QA -> QA: Log results, track any issues

' Step 4.6: Evaluate Outcomes
DS -> QA: Share results
QA -> BO: Summarize pass/fail
alt Criteria Met
  BO -> QA: Sign off updated model
  alt Ethical Concern
    IRB -> QA: Ethical compliance sign-off
  end
else Criteria Not Met
  note over DS,QA: Root cause analysis, re-train or revert
end

' Step 4.7: Production Deployment
QA -> OPS: Authorize deployment
OPS -> OPS: Deploy re-validated model
DS -> OPS: Final verification in production
SC -> OPS: Confirm no new compliance issues

' Step 4.8: Documentation and Lessons Learned
DS -> DS: Finalize Re-Validation Report
PM -> DS: Organize lessons-learned meeting
DS -> QA: Archive artifacts
alt If IRB was involved
  IRB -> IRB: Log ethical/regulatory outcomes
end
@enduml

@startuml
title SOP-1009-01-AI: Model Drift and Re-Validation Sequence Diagram

participant "AI-IRB Liaison" as IRB
participant "Business Owner" as BO
participant "Data Scientist" as DS
participant "Quality Assurance" as QA
participant "Operations (Ops)" as OPS
participant "Project Manager" as PM
participant "Security/Compliance" as SC

DS -> DS: Monitor model performance
DS -> DS: Detect anomaly or threshold breach
DS -> DS: Classify Trigger Event (drift/bias/data shift)

DS -> PM: Notify potential drift
PM -> BO: Inform about drift event
PM -> QA: Request quick assessment
PM -> OPS: Request environment/log analysis
PM -> SC: Check compliance or security concerns

alt Ethical/Regulatory Concern
  PM -> IRB: Notify AI-IRB for oversight
else No Ethical Concern
  note over PM,DS: IRB not involved
end

DS -> DS: Draft Re-Validation Plan
DS -> PM: Submit Re-Validation Plan
PM -> BO: Request approval
PM -> QA: Request feedback
PM -> OPS: Request environment feasibility
PM -> SC: Request compliance feedback
alt Plan Approved
  BO -> PM: Approve Plan
else Plan Revisions
  BO -> DS: Request changes
  DS -> DS: Update Plan
  DS -> PM: Resubmit
  BO -> PM: Approve Plan
end

DS -> DS: Collect updated data & configure tests
OPS -> DS: Provide environment resources
SC -> DS: Approve data usage for privacy
DS -> QA: Verify test readiness

DS -> DS: Run re-validation tests (metrics/bias/etc.)
DS -> QA: Provide test results
QA -> QA: Log results, track any issues

DS -> QA: Share results
QA -> BO: Summarize pass/fail
alt Criteria Met
  BO -> QA: Sign off updated model
  alt Ethical Concern
    IRB -> QA: Ethical compliance sign-off
  end
else Criteria Not Met
  note over DS,QA: Root cause analysis, re-train or revert
end

QA -> OPS: Authorize deployment
OPS -> OPS: Deploy re-validated model
DS -> OPS: Final verification in production
SC -> OPS: Confirm no new compliance issues

DS -> DS: Finalize Re-Validation Report
PM -> DS: Organize lessons-learned meeting
DS -> QA: Archive artifacts
alt If IRB was involved
  IRB -> IRB: Log ethical/regulatory outcomes
end
@enduml

PlantUML version 1.2022.7(Mon Aug 22 17:01:30 UTC 2022)
(GPL source distribution)
Java Runtime: OpenJDK Runtime Environment
JVM: OpenJDK 64-Bit Server VM
Default Encoding: UTF-8
Language: en
Country: null
--></g></svg>