<?xml version="1.0" encoding="UTF-8" standalone="no"?><svg xmlns="http://www.w3.org/2000/svg" xmlns:xlink="http://www.w3.org/1999/xlink" contentStyleType="text/css" height="1188px" preserveAspectRatio="none" style="width:1449px;height:1188px;background:#FFFFFF;" version="1.1" viewBox="0 0 1449 1188" width="1449px" zoomAndPan="magnify"><defs/><g><rect fill="none" height="26.2969" id="_title" style="stroke:none;stroke-width:1.0;" width="560" x="445.75" y="10"/><text fill="#000000" font-family="sans-serif" font-size="14" font-weight="bold" lengthAdjust="spacing" textLength="550" x="450.75" y="27.9951">SOP-1015-01-AI: Knowledge Transfer &amp; Handover Sequence Diagram</text><rect fill="none" height="177.6016" style="stroke:#000000;stroke-width:1.5;" width="1034.5" x="177.5" y="440.1875"/><rect fill="none" height="46.2656" style="stroke:#000000;stroke-width:1.5;" width="1067.5" x="375" y="690.0547"/><rect fill="none" height="46.2656" style="stroke:#000000;stroke-width:1.5;" width="801" x="641.5" y="750.3203"/><rect fill="none" height="46.2656" style="stroke:#000000;stroke-width:1.5;" width="1265" x="177.5" y="810.5859"/><rect fill="none" height="119.3359" style="stroke:#000000;stroke-width:1.5;" width="1432.5" x="10" y="929.1172"/><line style="stroke:#181818;stroke-width:0.5;stroke-dasharray:5.0,5.0;" x1="83" x2="83" y1="73.5938" y2="1152.8516"/><line style="stroke:#181818;stroke-width:0.5;stroke-dasharray:5.0,5.0;" x1="239.5" x2="239.5" y1="73.5938" y2="1152.8516"/><line style="stroke:#181818;stroke-width:0.5;stroke-dasharray:5.0,5.0;" x1="435" x2="435" y1="73.5938" y2="1152.8516"/><line style="stroke:#181818;stroke-width:0.5;stroke-dasharray:5.0,5.0;" x1="705.5" x2="705.5" y1="73.5938" y2="1152.8516"/><line style="stroke:#181818;stroke-width:0.5;stroke-dasharray:5.0,5.0;" x1="841.5" x2="841.5" y1="73.5938" y2="1152.8516"/><line style="stroke:#181818;stroke-width:0.5;stroke-dasharray:5.0,5.0;" x1="1133" x2="1133" y1="73.5938" y2="1152.8516"/><line style="stroke:#181818;stroke-width:0.5;stroke-dasharray:5.0,5.0;" x1="1346.5" x2="1346.5" y1="73.5938" y2="1152.8516"/><rect fill="#E2E2F0" height="30.2969" rx="2.5" ry="2.5" style="stroke:#181818;stroke-width:0.5;" width="126" x="20" y="42.2969"/><text fill="#000000" font-family="sans-serif" font-size="14" lengthAdjust="spacing" textLength="112" x="27" y="62.292">Project Manager</text><rect fill="#E2E2F0" height="30.2969" rx="2.5" ry="2.5" style="stroke:#181818;stroke-width:0.5;" width="126" x="20" y="1151.8516"/><text fill="#000000" font-family="sans-serif" font-size="14" lengthAdjust="spacing" textLength="112" x="27" y="1171.8467">Project Manager</text><rect fill="#E2E2F0" height="30.2969" rx="2.5" ry="2.5" style="stroke:#181818;stroke-width:0.5;" width="105" x="187.5" y="42.2969"/><text fill="#000000" font-family="sans-serif" font-size="14" lengthAdjust="spacing" textLength="91" x="194.5" y="62.292">AI-IRB Liaison</text><rect fill="#E2E2F0" height="30.2969" rx="2.5" ry="2.5" style="stroke:#181818;stroke-width:0.5;" width="105" x="187.5" y="1151.8516"/><text fill="#000000" font-family="sans-serif" font-size="14" lengthAdjust="spacing" textLength="91" x="194.5" y="1171.8467">AI-IRB Liaison</text><rect fill="#E2E2F0" height="30.2969" rx="2.5" ry="2.5" style="stroke:#181818;stroke-width:0.5;" width="100" x="385" y="42.2969"/><text fill="#000000" font-family="sans-serif" font-size="14" lengthAdjust="spacing" textLength="86" x="392" y="62.292">AI Dev Team</text><rect fill="#E2E2F0" height="30.2969" rx="2.5" ry="2.5" style="stroke:#181818;stroke-width:0.5;" width="100" x="385" y="1151.8516"/><text fill="#000000" font-family="sans-serif" font-size="14" lengthAdjust="spacing" textLength="86" x="392" y="1171.8467">AI Dev Team</text><rect fill="#E2E2F0" height="30.2969" rx="2.5" ry="2.5" style="stroke:#181818;stroke-width:0.5;" width="109" x="651.5" y="42.2969"/><text fill="#000000" font-family="sans-serif" font-size="14" lengthAdjust="spacing" textLength="95" x="658.5" y="62.292">Data Scientist</text><rect fill="#E2E2F0" height="30.2969" rx="2.5" ry="2.5" style="stroke:#181818;stroke-width:0.5;" width="109" x="651.5" y="1151.8516"/><text fill="#000000" font-family="sans-serif" font-size="14" lengthAdjust="spacing" textLength="95" x="658.5" y="1171.8467">Data Scientist</text><rect fill="#E2E2F0" height="30.2969" rx="2.5" ry="2.5" style="stroke:#181818;stroke-width:0.5;" width="142" x="770.5" y="42.2969"/><text fill="#000000" font-family="sans-serif" font-size="14" lengthAdjust="spacing" textLength="128" x="777.5" y="62.292">MLOps/Operations</text><rect fill="#E2E2F0" height="30.2969" rx="2.5" ry="2.5" style="stroke:#181818;stroke-width:0.5;" width="142" x="770.5" y="1151.8516"/><text fill="#000000" font-family="sans-serif" font-size="14" lengthAdjust="spacing" textLength="128" x="777.5" y="1171.8467">MLOps/Operations</text><rect fill="#E2E2F0" height="30.2969" rx="2.5" ry="2.5" style="stroke:#181818;stroke-width:0.5;" width="137" x="1065" y="42.2969"/><text fill="#000000" font-family="sans-serif" font-size="14" lengthAdjust="spacing" textLength="123" x="1072" y="62.292">Quality Assurance</text><rect fill="#E2E2F0" height="30.2969" rx="2.5" ry="2.5" style="stroke:#181818;stroke-width:0.5;" width="137" x="1065" y="1151.8516"/><text fill="#000000" font-family="sans-serif" font-size="14" lengthAdjust="spacing" textLength="123" x="1072" y="1171.8467">Quality Assurance</text><rect fill="#E2E2F0" height="30.2969" rx="2.5" ry="2.5" style="stroke:#181818;stroke-width:0.5;" width="172" x="1260.5" y="42.2969"/><text fill="#000000" font-family="sans-serif" font-size="14" lengthAdjust="spacing" textLength="158" x="1267.5" y="62.292">Receiving Organization</text><rect fill="#E2E2F0" height="30.2969" rx="2.5" ry="2.5" style="stroke:#181818;stroke-width:0.5;" width="172" x="1260.5" y="1151.8516"/><text fill="#000000" font-family="sans-serif" font-size="14" lengthAdjust="spacing" textLength="158" x="1267.5" y="1171.8467">Receiving Organization</text><polygon fill="#181818" points="423,100.7266,433,104.7266,423,108.7266,427,104.7266" style="stroke:#181818;stroke-width:1.0;"/><line style="stroke:#181818;stroke-width:1.0;" x1="83" x2="429" y1="104.7266" y2="104.7266"/><text fill="#000000" font-family="sans-serif" font-size="13" lengthAdjust="spacing" textLength="185" x="90" y="99.6606">Initiate KT request &amp; timeline</text><polygon fill="#181818" points="1121.5,129.8594,1131.5,133.8594,1121.5,137.8594,1125.5,133.8594" style="stroke:#181818;stroke-width:1.0;"/><line style="stroke:#181818;stroke-width:1.0;" x1="83" x2="1127.5" y1="133.8594" y2="133.8594"/><text fill="#000000" font-family="sans-serif" font-size="13" lengthAdjust="spacing" textLength="208" x="90" y="128.7935">Confirm readiness for doc review</text><polygon fill="#181818" points="228,158.9922,238,162.9922,228,166.9922,232,162.9922" style="stroke:#181818;stroke-width:1.0;"/><line style="stroke:#181818;stroke-width:1.0;" x1="83" x2="234" y1="162.9922" y2="162.9922"/><text fill="#000000" font-family="sans-serif" font-size="13" lengthAdjust="spacing" textLength="133" x="90" y="157.9263">Verify IRB obligations</text><polygon fill="#181818" points="694,188.125,704,192.125,694,196.125,698,192.125" style="stroke:#181818;stroke-width:1.0;"/><line style="stroke:#181818;stroke-width:1.0;" x1="435" x2="700" y1="192.125" y2="192.125"/><text fill="#000000" font-family="sans-serif" font-size="13" lengthAdjust="spacing" textLength="228" x="442" y="187.0591">Coordinate final code &amp; model docs</text><polygon fill="#181818" points="446,217.2578,436,221.2578,446,225.2578,442,221.2578" style="stroke:#181818;stroke-width:1.0;"/><line style="stroke:#181818;stroke-width:1.0;" x1="440" x2="705" y1="221.2578" y2="221.2578"/><text fill="#000000" font-family="sans-serif" font-size="13" lengthAdjust="spacing" textLength="246" x="452" y="216.1919">Provide data lineage &amp; feature catalog</text><polygon fill="#181818" points="1121.5,246.3906,1131.5,250.3906,1121.5,254.3906,1125.5,250.3906" style="stroke:#181818;stroke-width:1.0;"/><line style="stroke:#181818;stroke-width:1.0;" x1="435" x2="1127.5" y1="250.3906" y2="250.3906"/><text fill="#000000" font-family="sans-serif" font-size="13" lengthAdjust="spacing" textLength="204" x="442" y="245.3247">Submit draft Handover Package</text><polygon fill="#181818" points="446,275.5234,436,279.5234,446,283.5234,442,279.5234" style="stroke:#181818;stroke-width:1.0;"/><line style="stroke:#181818;stroke-width:1.0;" x1="440" x2="1132.5" y1="279.5234" y2="279.5234"/><text fill="#000000" font-family="sans-serif" font-size="13" lengthAdjust="spacing" textLength="273" x="452" y="274.4575">Provide feedback on missing/unclear items</text><polygon fill="#181818" points="694,304.6563,704,308.6563,694,312.6563,698,308.6563" style="stroke:#181818;stroke-width:1.0;"/><line style="stroke:#181818;stroke-width:1.0;" x1="435" x2="700" y1="308.6563" y2="308.6563"/><text fill="#000000" font-family="sans-serif" font-size="13" lengthAdjust="spacing" textLength="247" x="442" y="303.5903">Clarify data or model queries if needed</text><polygon fill="#181818" points="1121.5,333.7891,1131.5,337.7891,1121.5,341.7891,1125.5,337.7891" style="stroke:#181818;stroke-width:1.0;"/><line style="stroke:#181818;stroke-width:1.0;" x1="435" x2="1127.5" y1="337.7891" y2="337.7891"/><text fill="#000000" font-family="sans-serif" font-size="13" lengthAdjust="spacing" textLength="218" x="442" y="332.7231">Resubmit updated documentation</text><polygon fill="#181818" points="852.5,362.9219,842.5,366.9219,852.5,370.9219,848.5,366.9219" style="stroke:#181818;stroke-width:1.0;"/><line style="stroke:#181818;stroke-width:1.0;" x1="846.5" x2="1132.5" y1="366.9219" y2="366.9219"/><text fill="#000000" font-family="sans-serif" font-size="13" lengthAdjust="spacing" textLength="268" x="858.5" y="361.856">Request environment details for handover</text><polygon fill="#181818" points="446,392.0547,436,396.0547,446,400.0547,442,396.0547" style="stroke:#181818;stroke-width:1.0;"/><line style="stroke:#181818;stroke-width:1.0;" x1="440" x2="840.5" y1="396.0547" y2="396.0547"/><text fill="#000000" font-family="sans-serif" font-size="13" lengthAdjust="spacing" textLength="225" x="452" y="390.9888">Provide pipeline &amp; operational docs</text><polygon fill="#181818" points="251,421.1875,241,425.1875,251,429.1875,247,425.1875" style="stroke:#181818;stroke-width:1.0;"/><line style="stroke:#181818;stroke-width:1.0;" x1="245" x2="1132.5" y1="425.1875" y2="425.1875"/><text fill="#000000" font-family="sans-serif" font-size="13" lengthAdjust="spacing" textLength="204" x="257" y="420.1216">Validate AI-IRB compliance docs</text><path d="M177.5,440.1875 L241.5,440.1875 L241.5,447.3203 L231.5,457.3203 L177.5,457.3203 L177.5,440.1875 " fill="#EEEEEE" style="stroke:#000000;stroke-width:1.5;"/><rect fill="none" height="177.6016" style="stroke:#000000;stroke-width:1.5;" width="1034.5" x="177.5" y="440.1875"/><text fill="#000000" font-family="sans-serif" font-size="13" font-weight="bold" lengthAdjust="spacing" textLength="19" x="192.5" y="453.2544">alt</text><text fill="#000000" font-family="sans-serif" font-size="11" font-weight="bold" lengthAdjust="spacing" textLength="108" x="256.5" y="452.3979">[IRB compliance]</text><polygon fill="#181818" points="1121.5,474.4531,1131.5,478.4531,1121.5,482.4531,1125.5,478.4531" style="stroke:#181818;stroke-width:1.0;"/><line style="stroke:#181818;stroke-width:1.0;" x1="240" x2="1127.5" y1="478.4531" y2="478.4531"/><text fill="#000000" font-family="sans-serif" font-size="13" lengthAdjust="spacing" textLength="61" x="247" y="473.3872">Approved</text><line style="stroke:#000000;stroke-width:1.0;stroke-dasharray:2.0,2.0;" x1="177.5" x2="1212" y1="487.4531" y2="487.4531"/><text fill="#000000" font-family="sans-serif" font-size="11" font-weight="bold" lengthAdjust="spacing" textLength="123" x="182.5" y="497.6636">[IRB not compliant]</text><polygon fill="#181818" points="1121.5,518.3906,1131.5,522.3906,1121.5,526.3906,1125.5,522.3906" style="stroke:#181818;stroke-width:1.0;"/><line style="stroke:#181818;stroke-width:1.0;" x1="240" x2="1127.5" y1="522.3906" y2="522.3906"/><text fill="#000000" font-family="sans-serif" font-size="13" lengthAdjust="spacing" textLength="201" x="247" y="517.3247">Request additional clarifications</text><polygon fill="#181818" points="446,547.5234,436,551.5234,446,555.5234,442,551.5234" style="stroke:#181818;stroke-width:1.0;"/><line style="stroke:#181818;stroke-width:1.0;" x1="440" x2="1132.5" y1="551.5234" y2="551.5234"/><text fill="#000000" font-family="sans-serif" font-size="13" lengthAdjust="spacing" textLength="247" x="452" y="546.4575">Clarify or remediate compliance issues</text><polygon fill="#181818" points="251,576.6563,241,580.6563,251,584.6563,247,580.6563" style="stroke:#181818;stroke-width:1.0;"/><line style="stroke:#181818;stroke-width:1.0;" x1="245" x2="434" y1="580.6563" y2="580.6563"/><text fill="#000000" font-family="sans-serif" font-size="13" lengthAdjust="spacing" textLength="171" x="257" y="575.5903">Resubmit compliance docs</text><polygon fill="#181818" points="1121.5,605.7891,1131.5,609.7891,1121.5,613.7891,1125.5,609.7891" style="stroke:#181818;stroke-width:1.0;"/><line style="stroke:#181818;stroke-width:1.0;" x1="240" x2="1127.5" y1="609.7891" y2="609.7891"/><text fill="#000000" font-family="sans-serif" font-size="13" lengthAdjust="spacing" textLength="61" x="247" y="604.7231">Approved</text><polygon fill="#181818" points="1334.5,641.9219,1344.5,645.9219,1334.5,649.9219,1338.5,645.9219" style="stroke:#181818;stroke-width:1.0;"/><line style="stroke:#181818;stroke-width:1.0;" x1="83" x2="1340.5" y1="645.9219" y2="645.9219"/><text fill="#000000" font-family="sans-serif" font-size="13" lengthAdjust="spacing" textLength="141" x="90" y="640.856">Invite to KT workshops</text><polygon fill="#181818" points="94,671.0547,84,675.0547,94,679.0547,90,675.0547" style="stroke:#181818;stroke-width:1.0;"/><line style="stroke:#181818;stroke-width:1.0;" x1="88" x2="1345.5" y1="675.0547" y2="675.0547"/><text fill="#000000" font-family="sans-serif" font-size="13" lengthAdjust="spacing" textLength="181" x="100" y="669.9888">Confirm schedule availability</text><path d="M375,690.0547 L672,690.0547 L672,697.1875 L662,707.1875 L375,707.1875 L375,690.0547 " fill="#EEEEEE" style="stroke:#000000;stroke-width:1.5;"/><rect fill="none" height="46.2656" style="stroke:#000000;stroke-width:1.5;" width="1067.5" x="375" y="690.0547"/><text fill="#000000" font-family="sans-serif" font-size="13" font-weight="bold" lengthAdjust="spacing" textLength="252" x="390" y="703.1216">KT Session 1: Architecture &amp; Code</text><polygon fill="#181818" points="1334.5,724.3203,1344.5,728.3203,1334.5,732.3203,1338.5,728.3203" style="stroke:#181818;stroke-width:1.0;"/><line style="stroke:#181818;stroke-width:1.0;" x1="435" x2="1340.5" y1="728.3203" y2="728.3203"/><text fill="#000000" font-family="sans-serif" font-size="13" lengthAdjust="spacing" textLength="231" x="442" y="723.2544">Present architecture, code structure</text><path d="M641.5,750.3203 L890.5,750.3203 L890.5,757.4531 L880.5,767.4531 L641.5,767.4531 L641.5,750.3203 " fill="#EEEEEE" style="stroke:#000000;stroke-width:1.5;"/><rect fill="none" height="46.2656" style="stroke:#000000;stroke-width:1.5;" width="801" x="641.5" y="750.3203"/><text fill="#000000" font-family="sans-serif" font-size="13" font-weight="bold" lengthAdjust="spacing" textLength="204" x="656.5" y="763.3872">KT Session 2: Model &amp; Data</text><polygon fill="#181818" points="1334.5,784.5859,1344.5,788.5859,1334.5,792.5859,1338.5,788.5859" style="stroke:#181818;stroke-width:1.0;"/><line style="stroke:#181818;stroke-width:1.0;" x1="706" x2="1340.5" y1="788.5859" y2="788.5859"/><text fill="#000000" font-family="sans-serif" font-size="13" lengthAdjust="spacing" textLength="270" x="713" y="783.52">Demonstrate training pipeline, data usage</text><path d="M177.5,810.5859 L460.5,810.5859 L460.5,817.7188 L450.5,827.7188 L177.5,827.7188 L177.5,810.5859 " fill="#EEEEEE" style="stroke:#000000;stroke-width:1.5;"/><rect fill="none" height="46.2656" style="stroke:#000000;stroke-width:1.5;" width="1265" x="177.5" y="810.5859"/><text fill="#000000" font-family="sans-serif" font-size="13" font-weight="bold" lengthAdjust="spacing" textLength="238" x="192.5" y="823.6528">KT Session 3: Compliance/Ethics</text><polygon fill="#181818" points="1334.5,844.8516,1344.5,848.8516,1334.5,852.8516,1338.5,848.8516" style="stroke:#181818;stroke-width:1.0;"/><line style="stroke:#181818;stroke-width:1.0;" x1="240" x2="1340.5" y1="848.8516" y2="848.8516"/><text fill="#000000" font-family="sans-serif" font-size="13" lengthAdjust="spacing" textLength="267" x="247" y="843.7856">Summarize compliance constraints &amp; risk</text><polygon fill="#181818" points="446,880.9844,436,884.9844,446,888.9844,442,884.9844" style="stroke:#181818;stroke-width:1.0;"/><line style="stroke:#181818;stroke-width:1.0;" x1="440" x2="1345.5" y1="884.9844" y2="884.9844"/><text fill="#000000" font-family="sans-serif" font-size="13" lengthAdjust="spacing" textLength="136" x="452" y="879.9185">Raise open questions</text><polygon fill="#181818" points="1334.5,910.1172,1344.5,914.1172,1334.5,918.1172,1338.5,914.1172" style="stroke:#181818;stroke-width:1.0;"/><line style="stroke:#181818;stroke-width:1.0;" x1="435" x2="1340.5" y1="914.1172" y2="914.1172"/><text fill="#000000" font-family="sans-serif" font-size="13" lengthAdjust="spacing" textLength="130" x="442" y="909.0513">Provide clarifications</text><path d="M10,929.1172 L74,929.1172 L74,936.25 L64,946.25 L10,946.25 L10,929.1172 " fill="#EEEEEE" style="stroke:#000000;stroke-width:1.5;"/><rect fill="none" height="119.3359" style="stroke:#000000;stroke-width:1.5;" width="1432.5" x="10" y="929.1172"/><text fill="#000000" font-family="sans-serif" font-size="13" font-weight="bold" lengthAdjust="spacing" textLength="19" x="25" y="942.1841">alt</text><text fill="#000000" font-family="sans-serif" font-size="11" font-weight="bold" lengthAdjust="spacing" textLength="99" x="89" y="941.3276">[Issues remain]</text><polygon fill="#181818" points="1334.5,963.3828,1344.5,967.3828,1334.5,971.3828,1338.5,967.3828" style="stroke:#181818;stroke-width:1.0;"/><line style="stroke:#181818;stroke-width:1.0;" x1="435" x2="1340.5" y1="967.3828" y2="967.3828"/><text fill="#000000" font-family="sans-serif" font-size="13" lengthAdjust="spacing" textLength="143" x="442" y="962.3169">Resolve all open items</text><polygon fill="#181818" points="446,992.5156,436,996.5156,446,1000.5156,442,996.5156" style="stroke:#181818;stroke-width:1.0;"/><line style="stroke:#181818;stroke-width:1.0;" x1="440" x2="1132.5" y1="996.5156" y2="996.5156"/><text fill="#000000" font-family="sans-serif" font-size="13" lengthAdjust="spacing" textLength="103" x="452" y="991.4497">Verify resolution</text><line style="stroke:#000000;stroke-width:1.0;stroke-dasharray:2.0,2.0;" x1="10" x2="1442.5" y1="1005.5156" y2="1005.5156"/><text fill="#000000" font-family="sans-serif" font-size="11" font-weight="bold" lengthAdjust="spacing" textLength="72" x="15" y="1015.7261">[No issues]</text><polygon fill="#181818" points="94,1036.4531,84,1040.4531,94,1044.4531,90,1040.4531" style="stroke:#181818;stroke-width:1.0;"/><line style="stroke:#181818;stroke-width:1.0;" x1="88" x2="1345.5" y1="1040.4531" y2="1040.4531"/><text fill="#000000" font-family="sans-serif" font-size="13" lengthAdjust="spacing" textLength="149" x="100" y="1035.3872">Acknowledge readiness</text><polygon fill="#181818" points="1334.5,1072.5859,1344.5,1076.5859,1334.5,1080.5859,1338.5,1076.5859" style="stroke:#181818;stroke-width:1.0;"/><line style="stroke:#181818;stroke-width:1.0;" x1="1133.5" x2="1340.5" y1="1076.5859" y2="1076.5859"/><text fill="#000000" font-family="sans-serif" font-size="13" lengthAdjust="spacing" textLength="181" x="1140.5" y="1071.52">Request acceptance sign-off</text><polygon fill="#181818" points="1144.5,1101.7188,1134.5,1105.7188,1144.5,1109.7188,1140.5,1105.7188" style="stroke:#181818;stroke-width:1.0;"/><line style="stroke:#181818;stroke-width:1.0;" x1="1138.5" x2="1345.5" y1="1105.7188" y2="1105.7188"/><text fill="#000000" font-family="sans-serif" font-size="13" lengthAdjust="spacing" textLength="189" x="1150.5" y="1100.6528">Provide acceptance signature</text><polygon fill="#181818" points="94,1130.8516,84,1134.8516,94,1138.8516,90,1134.8516" style="stroke:#181818;stroke-width:1.0;"/><line style="stroke:#181818;stroke-width:1.0;" x1="88" x2="1132.5" y1="1134.8516" y2="1134.8516"/><text fill="#000000" font-family="sans-serif" font-size="13" lengthAdjust="spacing" textLength="294" x="100" y="1129.7856">Confirm official knowledge transfer completion</text><!--MD5=[1557ff0f9e93ea3bd5f4134cf6b47586]
@startuml
title "SOP-1015-01-AI: Knowledge Transfer & Handover Sequence Diagram"

' Define participants (avoid vertical-bar style)
participant "Project Manager" as PM
participant "AI-IRB Liaison" as AIIRB
participant "AI Dev Team" as DevTeam
participant "Data Scientist" as DataSci
participant "MLOps/Operations" as MLOps
participant "Quality Assurance" as QA
participant "Receiving Organization" as RecvOrg

' 1. PM initiates knowledge transfer scheduling
PM -> DevTeam: Initiate KT request & timeline
PM -> QA: Confirm readiness for doc review
PM -> AIIRB: Verify IRB obligations

' 2. DevTeam and DataSci prepare Handover Package
DevTeam -> DataSci: Coordinate final code & model docs
DataSci -> DevTeam: Provide data lineage & feature catalog
DevTeam -> QA: Submit draft Handover Package

' 3. QA reviews content for completeness and correctness
QA -> DevTeam: Provide feedback on missing/unclear items
DevTeam -> DataSci: Clarify data or model queries if needed
DevTeam -> QA: Resubmit updated documentation

' 4. MLOps environment notes added
QA -> MLOps: Request environment details for handover
MLOps -> DevTeam: Provide pipeline & operational docs

' 5. AIIRB compliance check
QA -> AIIRB: Validate AI-IRB compliance docs
alt IRB compliance
    AIIRB -> QA: Approved
else IRB not compliant
    AIIRB -> QA: Request additional clarifications
    QA -> DevTeam: Clarify or remediate compliance issues
    DevTeam -> AIIRB: Resubmit compliance docs
    AIIRB -> QA: Approved
end

' 6. PM schedules formal knowledge transfer
PM -> RecvOrg: Invite to KT workshops
RecvOrg -> PM: Confirm schedule availability

' 7. Conduct formal KT sessions
group KT Session 1: Architecture & Code
    DevTeam -> RecvOrg: Present architecture, code structure
end
group KT Session 2: Model & Data
    DataSci -> RecvOrg: Demonstrate training pipeline, data usage
end
group KT Session 3: Compliance/Ethics
    AIIRB -> RecvOrg: Summarize compliance constraints & risk
end

' 8. Q&A & open issues
RecvOrg -> DevTeam: Raise open questions
DevTeam -> RecvOrg: Provide clarifications

' 9. Decision: Are there unresolved issues?
alt Issues remain
    DevTeam -> RecvOrg: Resolve all open items
    QA -> DevTeam: Verify resolution
else No issues
    RecvOrg -> PM: Acknowledge readiness
end

' 10. Final sign-off
QA -> RecvOrg: Request acceptance sign-off
RecvOrg -> QA: Provide acceptance signature
QA -> PM: Confirm official knowledge transfer completion
@enduml

@startuml
title "SOP-1015-01-AI: Knowledge Transfer & Handover Sequence Diagram"

participant "Project Manager" as PM
participant "AI-IRB Liaison" as AIIRB
participant "AI Dev Team" as DevTeam
participant "Data Scientist" as DataSci
participant "MLOps/Operations" as MLOps
participant "Quality Assurance" as QA
participant "Receiving Organization" as RecvOrg

PM -> DevTeam: Initiate KT request & timeline
PM -> QA: Confirm readiness for doc review
PM -> AIIRB: Verify IRB obligations

DevTeam -> DataSci: Coordinate final code & model docs
DataSci -> DevTeam: Provide data lineage & feature catalog
DevTeam -> QA: Submit draft Handover Package

QA -> DevTeam: Provide feedback on missing/unclear items
DevTeam -> DataSci: Clarify data or model queries if needed
DevTeam -> QA: Resubmit updated documentation

QA -> MLOps: Request environment details for handover
MLOps -> DevTeam: Provide pipeline & operational docs

QA -> AIIRB: Validate AI-IRB compliance docs
alt IRB compliance
    AIIRB -> QA: Approved
else IRB not compliant
    AIIRB -> QA: Request additional clarifications
    QA -> DevTeam: Clarify or remediate compliance issues
    DevTeam -> AIIRB: Resubmit compliance docs
    AIIRB -> QA: Approved
end

PM -> RecvOrg: Invite to KT workshops
RecvOrg -> PM: Confirm schedule availability

group KT Session 1: Architecture & Code
    DevTeam -> RecvOrg: Present architecture, code structure
end
group KT Session 2: Model & Data
    DataSci -> RecvOrg: Demonstrate training pipeline, data usage
end
group KT Session 3: Compliance/Ethics
    AIIRB -> RecvOrg: Summarize compliance constraints & risk
end

RecvOrg -> DevTeam: Raise open questions
DevTeam -> RecvOrg: Provide clarifications

alt Issues remain
    DevTeam -> RecvOrg: Resolve all open items
    QA -> DevTeam: Verify resolution
else No issues
    RecvOrg -> PM: Acknowledge readiness
end

QA -> RecvOrg: Request acceptance sign-off
RecvOrg -> QA: Provide acceptance signature
QA -> PM: Confirm official knowledge transfer completion
@enduml

PlantUML version 1.2022.7(Mon Aug 22 17:01:30 UTC 2022)
(GPL source distribution)
Java Runtime: OpenJDK Runtime Environment
JVM: OpenJDK 64-Bit Server VM
Default Encoding: UTF-8
Language: en
Country: null
--></g></svg>