<?xml version="1.0" encoding="UTF-8" standalone="no"?><svg xmlns="http://www.w3.org/2000/svg" xmlns:xlink="http://www.w3.org/1999/xlink" contentStyleType="text/css" height="1204px" preserveAspectRatio="none" style="width:1734px;height:1204px;background:#FFFFFF;" version="1.1" viewBox="0 0 1734 1204" width="1734px" zoomAndPan="magnify"><defs/><g><rect fill="none" height="26.2969" id="_title" style="stroke:none;stroke-width:1.0;" width="491" x="620.5" y="10"/><text fill="#000000" font-family="sans-serif" font-size="14" font-weight="bold" lengthAdjust="spacing" textLength="481" x="625.5" y="27.9951">SOP-1050-01-AI (AI Security Administration and Governance)</text><rect fill="none" height="119.3359" style="stroke:#000000;stroke-width:1.5;" width="781" x="284" y="294.2578"/><line style="stroke:#181818;stroke-width:0.5;stroke-dasharray:5.0,5.0;" x1="71" x2="71" y1="118.5938" y2="1123.5156"/><line style="stroke:#181818;stroke-width:0.5;stroke-dasharray:5.0,5.0;" x1="342" x2="342" y1="118.5938" y2="1123.5156"/><line style="stroke:#181818;stroke-width:0.5;stroke-dasharray:5.0,5.0;" x1="659" x2="659" y1="118.5938" y2="1123.5156"/><line style="stroke:#181818;stroke-width:0.5;stroke-dasharray:5.0,5.0;" x1="976" x2="976" y1="118.5938" y2="1123.5156"/><line style="stroke:#181818;stroke-width:0.5;stroke-dasharray:5.0,5.0;" x1="1191" x2="1191" y1="118.5938" y2="1123.5156"/><line style="stroke:#181818;stroke-width:0.5;stroke-dasharray:5.0,5.0;" x1="1368" x2="1368" y1="118.5938" y2="1123.5156"/><line style="stroke:#181818;stroke-width:0.5;stroke-dasharray:5.0,5.0;" x1="1483" x2="1483" y1="118.5938" y2="1123.5156"/><line style="stroke:#181818;stroke-width:0.5;stroke-dasharray:5.0,5.0;" x1="1623" x2="1623" y1="118.5938" y2="1123.5156"/><line style="stroke:#181818;stroke-width:0.5;stroke-dasharray:5.0,5.0;" x1="1713" x2="1713" y1="118.5938" y2="1123.5156"/><text fill="#000000" font-family="sans-serif" font-size="14" lengthAdjust="spacing" textLength="126" x="5" y="115.292">AI Project Sponsor</text><ellipse cx="71" cy="50.7969" fill="#E2E2F0" rx="8" ry="8" style="stroke:#181818;stroke-width:0.5;"/><path d="M71,58.7969 L71,85.7969 M58,66.7969 L84,66.7969 M71,85.7969 L58,100.7969 M71,85.7969 L84,100.7969 " fill="none" style="stroke:#181818;stroke-width:0.5;"/><text fill="#000000" font-family="sans-serif" font-size="14" lengthAdjust="spacing" textLength="126" x="5" y="1135.5107">AI Project Sponsor</text><ellipse cx="71" cy="1147.3125" fill="#E2E2F0" rx="8" ry="8" style="stroke:#181818;stroke-width:0.5;"/><path d="M71,1155.3125 L71,1182.3125 M58,1163.3125 L84,1163.3125 M71,1182.3125 L58,1197.3125 M71,1182.3125 L84,1197.3125 " fill="none" style="stroke:#181818;stroke-width:0.5;"/><text fill="#000000" font-family="sans-serif" font-size="14" lengthAdjust="spacing" textLength="90" x="294" y="115.292">AI IRB Liaison</text><ellipse cx="342" cy="50.7969" fill="#E2E2F0" rx="8" ry="8" style="stroke:#181818;stroke-width:0.5;"/><path d="M342,58.7969 L342,85.7969 M329,66.7969 L355,66.7969 M342,85.7969 L329,100.7969 M342,85.7969 L355,100.7969 " fill="none" style="stroke:#181818;stroke-width:0.5;"/><text fill="#000000" font-family="sans-serif" font-size="14" lengthAdjust="spacing" textLength="90" x="294" y="1135.5107">AI IRB Liaison</text><ellipse cx="342" cy="1147.3125" fill="#E2E2F0" rx="8" ry="8" style="stroke:#181818;stroke-width:0.5;"/><path d="M342,1155.3125 L342,1182.3125 M329,1163.3125 L355,1163.3125 M342,1182.3125 L329,1197.3125 M342,1182.3125 L355,1197.3125 " fill="none" style="stroke:#181818;stroke-width:0.5;"/><text fill="#000000" font-family="sans-serif" font-size="14" lengthAdjust="spacing" textLength="150" x="581" y="115.292">Security Administrator</text><ellipse cx="659" cy="50.7969" fill="#E2E2F0" rx="8" ry="8" style="stroke:#181818;stroke-width:0.5;"/><path d="M659,58.7969 L659,85.7969 M646,66.7969 L672,66.7969 M659,85.7969 L646,100.7969 M659,85.7969 L672,100.7969 " fill="none" style="stroke:#181818;stroke-width:0.5;"/><text fill="#000000" font-family="sans-serif" font-size="14" lengthAdjust="spacing" textLength="150" x="581" y="1135.5107">Security Administrator</text><ellipse cx="659" cy="1147.3125" fill="#E2E2F0" rx="8" ry="8" style="stroke:#181818;stroke-width:0.5;"/><path d="M659,1155.3125 L659,1182.3125 M646,1163.3125 L672,1163.3125 M659,1182.3125 L646,1197.3125 M659,1182.3125 L672,1197.3125 " fill="none" style="stroke:#181818;stroke-width:0.5;"/><text fill="#000000" font-family="sans-serif" font-size="14" lengthAdjust="spacing" textLength="152" x="897" y="115.292">AI Development Team</text><ellipse cx="976" cy="50.7969" fill="#E2E2F0" rx="8" ry="8" style="stroke:#181818;stroke-width:0.5;"/><path d="M976,58.7969 L976,85.7969 M963,66.7969 L989,66.7969 M976,85.7969 L963,100.7969 M976,85.7969 L989,100.7969 " fill="none" style="stroke:#181818;stroke-width:0.5;"/><text fill="#000000" font-family="sans-serif" font-size="14" lengthAdjust="spacing" textLength="152" x="897" y="1135.5107">AI Development Team</text><ellipse cx="976" cy="1147.3125" fill="#E2E2F0" rx="8" ry="8" style="stroke:#181818;stroke-width:0.5;"/><path d="M976,1155.3125 L976,1182.3125 M963,1163.3125 L989,1163.3125 M976,1182.3125 L963,1197.3125 M976,1182.3125 L989,1197.3125 " fill="none" style="stroke:#181818;stroke-width:0.5;"/><text fill="#000000" font-family="sans-serif" font-size="14" lengthAdjust="spacing" textLength="246" x="1065" y="115.292">Data Science / AI Engineering Team</text><ellipse cx="1191" cy="50.7969" fill="#E2E2F0" rx="8" ry="8" style="stroke:#181818;stroke-width:0.5;"/><path d="M1191,58.7969 L1191,85.7969 M1178,66.7969 L1204,66.7969 M1191,85.7969 L1178,100.7969 M1191,85.7969 L1204,100.7969 " fill="none" style="stroke:#181818;stroke-width:0.5;"/><text fill="#000000" font-family="sans-serif" font-size="14" lengthAdjust="spacing" textLength="246" x="1065" y="1135.5107">Data Science / AI Engineering Team</text><ellipse cx="1191" cy="1147.3125" fill="#E2E2F0" rx="8" ry="8" style="stroke:#181818;stroke-width:0.5;"/><path d="M1191,1155.3125 L1191,1182.3125 M1178,1163.3125 L1204,1163.3125 M1191,1182.3125 L1178,1197.3125 M1191,1182.3125 L1204,1197.3125 " fill="none" style="stroke:#181818;stroke-width:0.5;"/><text fill="#000000" font-family="sans-serif" font-size="14" lengthAdjust="spacing" textLength="76" x="1327" y="115.292">Operations</text><ellipse cx="1368" cy="50.7969" fill="#E2E2F0" rx="8" ry="8" style="stroke:#181818;stroke-width:0.5;"/><path d="M1368,58.7969 L1368,85.7969 M1355,66.7969 L1381,66.7969 M1368,85.7969 L1355,100.7969 M1368,85.7969 L1381,100.7969 " fill="none" style="stroke:#181818;stroke-width:0.5;"/><text fill="#000000" font-family="sans-serif" font-size="14" lengthAdjust="spacing" textLength="76" x="1327" y="1135.5107">Operations</text><ellipse cx="1368" cy="1147.3125" fill="#E2E2F0" rx="8" ry="8" style="stroke:#181818;stroke-width:0.5;"/><path d="M1368,1155.3125 L1368,1182.3125 M1355,1163.3125 L1381,1163.3125 M1368,1182.3125 L1355,1197.3125 M1368,1182.3125 L1381,1197.3125 " fill="none" style="stroke:#181818;stroke-width:0.5;"/><text fill="#000000" font-family="sans-serif" font-size="14" lengthAdjust="spacing" textLength="123" x="1419" y="115.292">Quality Assurance</text><ellipse cx="1483.5" cy="50.7969" fill="#E2E2F0" rx="8" ry="8" style="stroke:#181818;stroke-width:0.5;"/><path d="M1483.5,58.7969 L1483.5,85.7969 M1470.5,66.7969 L1496.5,66.7969 M1483.5,85.7969 L1470.5,100.7969 M1483.5,85.7969 L1496.5,100.7969 " fill="none" style="stroke:#181818;stroke-width:0.5;"/><text fill="#000000" font-family="sans-serif" font-size="14" lengthAdjust="spacing" textLength="123" x="1419" y="1135.5107">Quality Assurance</text><ellipse cx="1483.5" cy="1147.3125" fill="#E2E2F0" rx="8" ry="8" style="stroke:#181818;stroke-width:0.5;"/><path d="M1483.5,1155.3125 L1483.5,1182.3125 M1470.5,1163.3125 L1496.5,1163.3125 M1483.5,1182.3125 L1470.5,1197.3125 M1483.5,1182.3125 L1496.5,1197.3125 " fill="none" style="stroke:#181818;stroke-width:0.5;"/><text fill="#000000" font-family="sans-serif" font-size="14" lengthAdjust="spacing" textLength="125" x="1558" y="115.292">Technical Support</text><ellipse cx="1623.5" cy="50.7969" fill="#E2E2F0" rx="8" ry="8" style="stroke:#181818;stroke-width:0.5;"/><path d="M1623.5,58.7969 L1623.5,85.7969 M1610.5,66.7969 L1636.5,66.7969 M1623.5,85.7969 L1610.5,100.7969 M1623.5,85.7969 L1636.5,100.7969 " fill="none" style="stroke:#181818;stroke-width:0.5;"/><text fill="#000000" font-family="sans-serif" font-size="14" lengthAdjust="spacing" textLength="125" x="1558" y="1135.5107">Technical Support</text><ellipse cx="1623.5" cy="1147.3125" fill="#E2E2F0" rx="8" ry="8" style="stroke:#181818;stroke-width:0.5;"/><path d="M1623.5,1155.3125 L1623.5,1182.3125 M1610.5,1163.3125 L1636.5,1163.3125 M1623.5,1182.3125 L1610.5,1197.3125 M1623.5,1182.3125 L1636.5,1197.3125 " fill="none" style="stroke:#181818;stroke-width:0.5;"/><rect fill="#E2E2F0" height="30.2969" rx="2.5" ry="2.5" style="stroke:#181818;stroke-width:0.5;" width="29" x="1699" y="87.2969"/><text fill="#000000" font-family="sans-serif" font-size="14" lengthAdjust="spacing" textLength="15" x="1706" y="107.292">All</text><rect fill="#E2E2F0" height="30.2969" rx="2.5" ry="2.5" style="stroke:#181818;stroke-width:0.5;" width="29" x="1699" y="1122.5156"/><text fill="#000000" font-family="sans-serif" font-size="14" lengthAdjust="spacing" textLength="15" x="1706" y="1142.5107">All</text><polygon fill="#181818" points="330,145.7266,340,149.7266,330,153.7266,334,149.7266" style="stroke:#181818;stroke-width:1.0;"/><line style="stroke:#181818;stroke-width:1.0;" x1="71" x2="336" y1="149.7266" y2="149.7266"/><text fill="#000000" font-family="sans-serif" font-size="13" lengthAdjust="spacing" textLength="247" x="78" y="144.6606">Discuss AI project scope &amp; compliance</text><polygon fill="#181818" points="647,174.8594,657,178.8594,647,182.8594,651,178.8594" style="stroke:#181818;stroke-width:1.0;"/><line style="stroke:#181818;stroke-width:1.0;" x1="342" x2="653" y1="178.8594" y2="178.8594"/><text fill="#000000" font-family="sans-serif" font-size="13" lengthAdjust="spacing" textLength="253" x="349" y="173.7935">Provide IRB guidelines for new AI project</text><polygon fill="#181818" points="82,203.9922,72,207.9922,82,211.9922,78,207.9922" style="stroke:#181818;stroke-width:1.0;"/><line style="stroke:#181818;stroke-width:1.0;" x1="76" x2="658" y1="207.9922" y2="207.9922"/><text fill="#000000" font-family="sans-serif" font-size="13" lengthAdjust="spacing" textLength="237" x="88" y="202.9263">Outline security control requirements</text><polygon fill="#181818" points="670,233.125,660,237.125,670,241.125,666,237.125" style="stroke:#181818;stroke-width:1.0;"/><line style="stroke:#181818;stroke-width:1.0;" x1="664" x2="975" y1="237.125" y2="237.125"/><text fill="#000000" font-family="sans-serif" font-size="13" lengthAdjust="spacing" textLength="255" x="676" y="232.0591">Request new or modified access profiles</text><line style="stroke:#181818;stroke-width:1.0;" x1="659" x2="701" y1="266.2578" y2="266.2578"/><line style="stroke:#181818;stroke-width:1.0;" x1="701" x2="701" y1="266.2578" y2="279.2578"/><line style="stroke:#181818;stroke-width:1.0;" x1="660" x2="701" y1="279.2578" y2="279.2578"/><polygon fill="#181818" points="670,275.2578,660,279.2578,670,283.2578,666,279.2578" style="stroke:#181818;stroke-width:1.0;"/><text fill="#000000" font-family="sans-serif" font-size="13" lengthAdjust="spacing" textLength="269" x="666" y="261.1919">Compare request to pre-approved profiles</text><path d="M284,294.2578 L348,294.2578 L348,301.3906 L338,311.3906 L284,311.3906 L284,294.2578 " fill="#EEEEEE" style="stroke:#000000;stroke-width:1.5;"/><rect fill="none" height="119.3359" style="stroke:#000000;stroke-width:1.5;" width="781" x="284" y="294.2578"/><text fill="#000000" font-family="sans-serif" font-size="13" font-weight="bold" lengthAdjust="spacing" textLength="19" x="299" y="307.3247">alt</text><text fill="#000000" font-family="sans-serif" font-size="11" font-weight="bold" lengthAdjust="spacing" textLength="171" x="363" y="306.4683">[Exceeds Standard Profile]</text><polygon fill="#181818" points="353,328.5234,343,332.5234,353,336.5234,349,332.5234" style="stroke:#181818;stroke-width:1.0;"/><line style="stroke:#181818;stroke-width:1.0;" x1="347" x2="658" y1="332.5234" y2="332.5234"/><text fill="#000000" font-family="sans-serif" font-size="13" lengthAdjust="spacing" textLength="217" x="359" y="327.4575">Escalate for IRB compliance check</text><polygon fill="#181818" points="647,357.6563,657,361.6563,647,365.6563,651,361.6563" style="stroke:#181818;stroke-width:1.0;"/><line style="stroke:#181818;stroke-width:1.0;" x1="342" x2="653" y1="361.6563" y2="361.6563"/><text fill="#000000" font-family="sans-serif" font-size="13" lengthAdjust="spacing" textLength="213" x="349" y="356.5903">Approve or modify special access</text><line style="stroke:#000000;stroke-width:1.0;stroke-dasharray:2.0,2.0;" x1="284" x2="1065" y1="370.6563" y2="370.6563"/><text fill="#000000" font-family="sans-serif" font-size="11" font-weight="bold" lengthAdjust="spacing" textLength="160" x="289" y="380.8667">[Within Standard Profile]</text><polygon fill="#181818" points="964,401.5938,974,405.5938,964,409.5938,968,405.5938" style="stroke:#181818;stroke-width:1.0;"/><line style="stroke:#181818;stroke-width:1.0;" x1="659" x2="970" y1="405.5938" y2="405.5938"/><text fill="#000000" font-family="sans-serif" font-size="13" lengthAdjust="spacing" textLength="172" x="666" y="400.5278">Grant access as requested</text><polygon fill="#181818" points="1356,437.7266,1366,441.7266,1356,445.7266,1360,441.7266" style="stroke:#181818;stroke-width:1.0;"/><line style="stroke:#181818;stroke-width:1.0;" x1="659" x2="1362" y1="441.7266" y2="441.7266"/><text fill="#000000" font-family="sans-serif" font-size="13" lengthAdjust="spacing" textLength="279" x="666" y="436.6606">Configure log monitoring for AI environment</text><polygon fill="#181818" points="670,466.8594,660,470.8594,670,474.8594,666,470.8594" style="stroke:#181818;stroke-width:1.0;"/><line style="stroke:#181818;stroke-width:1.0;" x1="664" x2="1367" y1="470.8594" y2="470.8594"/><text fill="#000000" font-family="sans-serif" font-size="13" lengthAdjust="spacing" textLength="179" x="676" y="465.7935">Confirm monitoring is active</text><line style="stroke:#181818;stroke-width:1.0;" x1="659" x2="701" y1="499.9922" y2="499.9922"/><line style="stroke:#181818;stroke-width:1.0;" x1="701" x2="701" y1="499.9922" y2="512.9922"/><line style="stroke:#181818;stroke-width:1.0;" x1="660" x2="701" y1="512.9922" y2="512.9922"/><polygon fill="#181818" points="670,508.9922,660,512.9922,670,516.9922,666,512.9922" style="stroke:#181818;stroke-width:1.0;"/><text fill="#000000" font-family="sans-serif" font-size="13" lengthAdjust="spacing" textLength="208" x="666" y="494.9263">Periodic log review for anomalies</text><polygon fill="#181818" points="670,538.125,660,542.125,670,546.125,666,542.125" style="stroke:#181818;stroke-width:1.0;"/><line style="stroke:#181818;stroke-width:1.0;" x1="664" x2="1367" y1="542.125" y2="542.125"/><text fill="#000000" font-family="sans-serif" font-size="13" lengthAdjust="spacing" textLength="146" x="676" y="537.0591">Identify critical patches</text><polygon fill="#181818" points="964,567.2578,974,571.2578,964,575.2578,968,571.2578" style="stroke:#181818;stroke-width:1.0;"/><line style="stroke:#181818;stroke-width:1.0;" x1="659" x2="970" y1="571.2578" y2="571.2578"/><text fill="#000000" font-family="sans-serif" font-size="13" lengthAdjust="spacing" textLength="171" x="666" y="566.1919">Coordinate patch schedule</text><polygon fill="#181818" points="1356,596.3906,1366,600.3906,1356,604.3906,1360,600.3906" style="stroke:#181818;stroke-width:1.0;"/><line style="stroke:#181818;stroke-width:1.0;" x1="976" x2="1362" y1="600.3906" y2="600.3906"/><text fill="#000000" font-family="sans-serif" font-size="13" lengthAdjust="spacing" textLength="275" x="983" y="595.3247">Validate patch with no AI system disruption</text><line style="stroke:#181818;stroke-width:1.0;" x1="1368" x2="1410" y1="629.5234" y2="629.5234"/><line style="stroke:#181818;stroke-width:1.0;" x1="1410" x2="1410" y1="629.5234" y2="642.5234"/><line style="stroke:#181818;stroke-width:1.0;" x1="1369" x2="1410" y1="642.5234" y2="642.5234"/><polygon fill="#181818" points="1379,638.5234,1369,642.5234,1379,646.5234,1375,642.5234" style="stroke:#181818;stroke-width:1.0;"/><text fill="#000000" font-family="sans-serif" font-size="13" lengthAdjust="spacing" textLength="99" x="1375" y="624.4575">Deploy patches</text><polygon fill="#181818" points="670,667.6563,660,671.6563,670,675.6563,666,671.6563" style="stroke:#181818;stroke-width:1.0;"/><line style="stroke:#181818;stroke-width:1.0;" x1="664" x2="1367" y1="671.6563" y2="671.6563"/><text fill="#000000" font-family="sans-serif" font-size="13" lengthAdjust="spacing" textLength="155" x="676" y="666.5903">Patch completion status</text><polygon fill="#181818" points="670,696.7891,660,700.7891,670,704.7891,666,700.7891" style="stroke:#181818;stroke-width:1.0;"/><line style="stroke:#181818;stroke-width:1.0;" x1="664" x2="1622.5" y1="700.7891" y2="700.7891"/><text fill="#000000" font-family="sans-serif" font-size="13" lengthAdjust="spacing" textLength="232" x="676" y="695.7231">Escalate suspected security incident</text><polygon fill="#181818" points="353,725.9219,343,729.9219,353,733.9219,349,729.9219" style="stroke:#181818;stroke-width:1.0;"/><line style="stroke:#181818;stroke-width:1.0;" x1="347" x2="658" y1="729.9219" y2="729.9219"/><text fill="#000000" font-family="sans-serif" font-size="13" lengthAdjust="spacing" textLength="255" x="359" y="724.856">Notify IRB if ethics/compliance impacted</text><line style="stroke:#181818;stroke-width:1.0;" x1="659" x2="701" y1="759.0547" y2="759.0547"/><line style="stroke:#181818;stroke-width:1.0;" x1="701" x2="701" y1="759.0547" y2="772.0547"/><line style="stroke:#181818;stroke-width:1.0;" x1="660" x2="701" y1="772.0547" y2="772.0547"/><polygon fill="#181818" points="670,768.0547,660,772.0547,670,776.0547,666,772.0547" style="stroke:#181818;stroke-width:1.0;"/><text fill="#000000" font-family="sans-serif" font-size="13" lengthAdjust="spacing" textLength="303" x="666" y="753.9888">Investigate and isolate compromised resources</text><polygon fill="#181818" points="1179,797.1875,1189,801.1875,1179,805.1875,1183,801.1875" style="stroke:#181818;stroke-width:1.0;"/><line style="stroke:#181818;stroke-width:1.0;" x1="659" x2="1185" y1="801.1875" y2="801.1875"/><text fill="#000000" font-family="sans-serif" font-size="13" lengthAdjust="spacing" textLength="321" x="666" y="796.1216">Request logs/model checks if model compromised</text><polygon fill="#181818" points="1611.5,826.3203,1621.5,830.3203,1611.5,834.3203,1615.5,830.3203" style="stroke:#181818;stroke-width:1.0;"/><line style="stroke:#181818;stroke-width:1.0;" x1="659" x2="1617.5" y1="830.3203" y2="830.3203"/><text fill="#000000" font-family="sans-serif" font-size="13" lengthAdjust="spacing" textLength="153" x="666" y="825.2544">Provide resolution steps</text><line style="stroke:#181818;stroke-width:1.0;" x1="659" x2="701" y1="859.4531" y2="859.4531"/><line style="stroke:#181818;stroke-width:1.0;" x1="701" x2="701" y1="859.4531" y2="872.4531"/><line style="stroke:#181818;stroke-width:1.0;" x1="660" x2="701" y1="872.4531" y2="872.4531"/><polygon fill="#181818" points="670,868.4531,660,872.4531,670,876.4531,666,872.4531" style="stroke:#181818;stroke-width:1.0;"/><text fill="#000000" font-family="sans-serif" font-size="13" lengthAdjust="spacing" textLength="253" x="666" y="854.3872">Document incident and lessons learned</text><polygon fill="#181818" points="1471.5,897.5859,1481.5,901.5859,1471.5,905.5859,1475.5,901.5859" style="stroke:#181818;stroke-width:1.0;"/><line style="stroke:#181818;stroke-width:1.0;" x1="659" x2="1477.5" y1="901.5859" y2="901.5859"/><text fill="#000000" font-family="sans-serif" font-size="13" lengthAdjust="spacing" textLength="271" x="666" y="896.52">Arrange internal/third-party security audits</text><polygon fill="#181818" points="1202,926.7188,1192,930.7188,1202,934.7188,1198,930.7188" style="stroke:#181818;stroke-width:1.0;"/><line style="stroke:#181818;stroke-width:1.0;" x1="1196" x2="1482.5" y1="930.7188" y2="930.7188"/><text fill="#000000" font-family="sans-serif" font-size="13" lengthAdjust="spacing" textLength="233" x="1208" y="925.6528">Request data usage &amp; model details</text><polygon fill="#181818" points="670,955.8516,660,959.8516,670,963.8516,666,959.8516" style="stroke:#181818;stroke-width:1.0;"/><line style="stroke:#181818;stroke-width:1.0;" x1="664" x2="1482.5" y1="959.8516" y2="959.8516"/><text fill="#000000" font-family="sans-serif" font-size="13" lengthAdjust="spacing" textLength="131" x="676" y="954.7856">Report audit findings</text><polygon fill="#181818" points="82,984.9844,72,988.9844,82,992.9844,78,988.9844" style="stroke:#181818;stroke-width:1.0;"/><line style="stroke:#181818;stroke-width:1.0;" x1="76" x2="658" y1="988.9844" y2="988.9844"/><text fill="#000000" font-family="sans-serif" font-size="13" lengthAdjust="spacing" textLength="306" x="88" y="983.9185">Summarize security posture &amp; changes needed</text><polygon fill="#181818" points="353,1014.1172,343,1018.1172,353,1022.1172,349,1018.1172" style="stroke:#181818;stroke-width:1.0;"/><line style="stroke:#181818;stroke-width:1.0;" x1="347" x2="658" y1="1018.1172" y2="1018.1172"/><text fill="#000000" font-family="sans-serif" font-size="13" lengthAdjust="spacing" textLength="293" x="359" y="1013.0513">Discuss final security outcomes &amp; compliance</text><polygon fill="#181818" points="647,1043.25,657,1047.25,647,1051.25,651,1047.25" style="stroke:#181818;stroke-width:1.0;"/><line style="stroke:#181818;stroke-width:1.0;" x1="342" x2="653" y1="1047.25" y2="1047.25"/><text fill="#000000" font-family="sans-serif" font-size="13" lengthAdjust="spacing" textLength="243" x="349" y="1042.1841">Confirm no further IRB actions needed</text><polygon fill="#181818" points="1611.5,1072.3828,1621.5,1076.3828,1611.5,1080.3828,1615.5,1076.3828" style="stroke:#181818;stroke-width:1.0;"/><line style="stroke:#181818;stroke-width:1.0;" x1="659" x2="1617.5" y1="1076.3828" y2="1076.3828"/><text fill="#000000" font-family="sans-serif" font-size="13" lengthAdjust="spacing" textLength="269" x="666" y="1071.3169">Communicate updated security guidelines</text><polygon fill="#181818" points="1701.5,1101.5156,1711.5,1105.5156,1701.5,1109.5156,1705.5,1105.5156" style="stroke:#181818;stroke-width:1.0;"/><line style="stroke:#181818;stroke-width:1.0;" x1="71" x2="1707.5" y1="1105.5156" y2="1105.5156"/><text fill="#000000" font-family="sans-serif" font-size="13" lengthAdjust="spacing" textLength="210" x="78" y="1100.4497">Acknowledge final improvements</text><!--MD5=[2b6ad6437ad9e8df0153aa145067a396]
@startuml
title SOP-1050-01-AI (AI Security Administration and Governance)

actor "AI Project Sponsor" as SPS
actor "AI IRB Liaison" as AIL
actor "Security Administrator" as SAD
actor "AI Development Team" as ADT
actor "Data Science / AI Engineering Team" as DSE
actor "Operations" as OPS
actor "Quality Assurance" as QAS
actor "Technical Support" as TSP

' 1. Security Planning and Governance
SPS -> AIL: Discuss AI project scope & compliance
AIL -> SAD: Provide IRB guidelines for new AI project
SAD -> SPS: Outline security control requirements

' 2. Access Control and Profile Management
ADT -> SAD: Request new or modified access profiles
SAD -> SAD: Compare request to pre-approved profiles
alt Exceeds Standard Profile
  SAD -> AIL: Escalate for IRB compliance check
  AIL -> SAD: Approve or modify special access
else Within Standard Profile
  SAD -> ADT: Grant access as requested
end

' 3. Security Monitoring
SAD -> OPS: Configure log monitoring for AI environment
OPS -> SAD: Confirm monitoring is active
SAD -> SAD: Periodic log review for anomalies

' 4. Vulnerability and Patch Management
OPS -> SAD: Identify critical patches
SAD -> ADT: Coordinate patch schedule
ADT -> OPS: Validate patch with no AI system disruption
OPS -> OPS: Deploy patches
OPS -> SAD: Patch completion status

' 5. Incident Response
TSP -> SAD: Escalate suspected security incident
SAD -> AIL: Notify IRB if ethics/compliance impacted
SAD -> SAD: Investigate and isolate compromised resources
SAD -> DSE: Request logs/model checks if model compromised
SAD -> TSP: Provide resolution steps
SAD -> SAD: Document incident and lessons learned

' 6. Periodic Security Audits
SAD -> QAS: Arrange internal/third-party security audits
QAS -> DSE: Request data usage & model details
QAS -> SAD: Report audit findings
SAD -> SPS: Summarize security posture & changes needed

' 7. Post-Implementation Review
SAD -> AIL: Discuss final security outcomes & compliance
AIL -> SAD: Confirm no further IRB actions needed
SAD -> TSP: Communicate updated security guidelines
SPS -> All: Acknowledge final improvements
@enduml

@startuml
title SOP-1050-01-AI (AI Security Administration and Governance)

actor "AI Project Sponsor" as SPS
actor "AI IRB Liaison" as AIL
actor "Security Administrator" as SAD
actor "AI Development Team" as ADT
actor "Data Science / AI Engineering Team" as DSE
actor "Operations" as OPS
actor "Quality Assurance" as QAS
actor "Technical Support" as TSP

SPS -> AIL: Discuss AI project scope & compliance
AIL -> SAD: Provide IRB guidelines for new AI project
SAD -> SPS: Outline security control requirements

ADT -> SAD: Request new or modified access profiles
SAD -> SAD: Compare request to pre-approved profiles
alt Exceeds Standard Profile
  SAD -> AIL: Escalate for IRB compliance check
  AIL -> SAD: Approve or modify special access
else Within Standard Profile
  SAD -> ADT: Grant access as requested
end

SAD -> OPS: Configure log monitoring for AI environment
OPS -> SAD: Confirm monitoring is active
SAD -> SAD: Periodic log review for anomalies

OPS -> SAD: Identify critical patches
SAD -> ADT: Coordinate patch schedule
ADT -> OPS: Validate patch with no AI system disruption
OPS -> OPS: Deploy patches
OPS -> SAD: Patch completion status

TSP -> SAD: Escalate suspected security incident
SAD -> AIL: Notify IRB if ethics/compliance impacted
SAD -> SAD: Investigate and isolate compromised resources
SAD -> DSE: Request logs/model checks if model compromised
SAD -> TSP: Provide resolution steps
SAD -> SAD: Document incident and lessons learned

SAD -> QAS: Arrange internal/third-party security audits
QAS -> DSE: Request data usage & model details
QAS -> SAD: Report audit findings
SAD -> SPS: Summarize security posture & changes needed

SAD -> AIL: Discuss final security outcomes & compliance
AIL -> SAD: Confirm no further IRB actions needed
SAD -> TSP: Communicate updated security guidelines
SPS -> All: Acknowledge final improvements
@enduml

PlantUML version 1.2022.7(Mon Aug 22 17:01:30 UTC 2022)
(GPL source distribution)
Java Runtime: OpenJDK Runtime Environment
JVM: OpenJDK 64-Bit Server VM
Default Encoding: UTF-8
Language: en
Country: null
--></g></svg>