<?xml version="1.0" encoding="UTF-8" standalone="no"?><svg xmlns="http://www.w3.org/2000/svg" xmlns:xlink="http://www.w3.org/1999/xlink" contentStyleType="text/css" height="1476px" preserveAspectRatio="none" style="width:1668px;height:1476px;background:#FFFFFF;" version="1.1" viewBox="0 0 1668 1476" width="1668px" zoomAndPan="magnify"><defs/><g><rect fill="none" height="26.2969" id="_title" style="stroke:none;stroke-width:1.0;" width="419" x="620.75" y="10"/><text fill="#000000" font-family="sans-serif" font-size="14" font-weight="bold" lengthAdjust="spacing" textLength="409" x="625.75" y="27.9951">SOP-1061-01 Incident Tracking - Sequence Diagram</text><rect fill="none" height="75.3984" style="stroke:#000000;stroke-width:1.5;" width="538" x="10" y="204.9922"/><rect fill="none" height="46.2656" style="stroke:#000000;stroke-width:1.5;" width="435" x="675" y="408.7891"/><rect fill="none" height="46.2656" style="stroke:#000000;stroke-width:1.5;" width="290" x="985" y="654.7188"/><rect fill="none" height="75.3984" style="stroke:#000000;stroke-width:1.5;" width="597" x="675" y="958.9141"/><rect fill="none" height="46.2656" style="stroke:#000000;stroke-width:1.5;" width="435" x="675" y="1377.5078"/><line style="stroke:#181818;stroke-width:0.5;stroke-dasharray:5.0,5.0;" x1="82" x2="82" y1="73.5938" y2="1440.7734"/><line style="stroke:#181818;stroke-width:0.5;stroke-dasharray:5.0,5.0;" x1="468" x2="468" y1="73.5938" y2="1440.7734"/><line style="stroke:#181818;stroke-width:0.5;stroke-dasharray:5.0,5.0;" x1="753" x2="753" y1="73.5938" y2="1440.7734"/><line style="stroke:#181818;stroke-width:0.5;stroke-dasharray:5.0,5.0;" x1="1047" x2="1047" y1="73.5938" y2="1440.7734"/><line style="stroke:#181818;stroke-width:0.5;stroke-dasharray:5.0,5.0;" x1="1208" x2="1208" y1="73.5938" y2="1440.7734"/><line style="stroke:#181818;stroke-width:0.5;stroke-dasharray:5.0,5.0;" x1="1475.5" x2="1475.5" y1="73.5938" y2="1440.7734"/><line style="stroke:#181818;stroke-width:0.5;stroke-dasharray:5.0,5.0;" x1="1593.5" x2="1593.5" y1="73.5938" y2="1440.7734"/><rect fill="#E2E2F0" height="30.2969" rx="2.5" ry="2.5" style="stroke:#181818;stroke-width:0.5;" width="125" x="20" y="42.2969"/><text fill="#000000" font-family="sans-serif" font-size="14" lengthAdjust="spacing" textLength="111" x="27" y="62.292">Defect Reporter</text><rect fill="#E2E2F0" height="30.2969" rx="2.5" ry="2.5" style="stroke:#181818;stroke-width:0.5;" width="125" x="20" y="1439.7734"/><text fill="#000000" font-family="sans-serif" font-size="14" lengthAdjust="spacing" textLength="111" x="27" y="1459.7686">Defect Reporter</text><rect fill="#E2E2F0" height="30.2969" rx="2.5" ry="2.5" style="stroke:#181818;stroke-width:0.5;" width="139" x="399" y="42.2969"/><text fill="#000000" font-family="sans-serif" font-size="14" lengthAdjust="spacing" textLength="125" x="406" y="62.292">Technical Support</text><rect fill="#E2E2F0" height="30.2969" rx="2.5" ry="2.5" style="stroke:#181818;stroke-width:0.5;" width="139" x="399" y="1439.7734"/><text fill="#000000" font-family="sans-serif" font-size="14" lengthAdjust="spacing" textLength="125" x="406" y="1459.7686">Technical Support</text><rect fill="#E2E2F0" height="30.2969" rx="2.5" ry="2.5" style="stroke:#181818;stroke-width:0.5;" width="137" x="685" y="42.2969"/><text fill="#000000" font-family="sans-serif" font-size="14" lengthAdjust="spacing" textLength="123" x="692" y="62.292">Quality Assurance</text><rect fill="#E2E2F0" height="30.2969" rx="2.5" ry="2.5" style="stroke:#181818;stroke-width:0.5;" width="137" x="685" y="1439.7734"/><text fill="#000000" font-family="sans-serif" font-size="14" lengthAdjust="spacing" textLength="123" x="692" y="1459.7686">Quality Assurance</text><rect fill="#E2E2F0" height="30.2969" rx="2.5" ry="2.5" style="stroke:#181818;stroke-width:0.5;" width="105" x="995" y="42.2969"/><text fill="#000000" font-family="sans-serif" font-size="14" lengthAdjust="spacing" textLength="91" x="1002" y="62.292">AI-IRB Liaison</text><rect fill="#E2E2F0" height="30.2969" rx="2.5" ry="2.5" style="stroke:#181818;stroke-width:0.5;" width="105" x="995" y="1439.7734"/><text fill="#000000" font-family="sans-serif" font-size="14" lengthAdjust="spacing" textLength="91" x="1002" y="1459.7686">AI-IRB Liaison</text><rect fill="#E2E2F0" height="30.2969" rx="2.5" ry="2.5" style="stroke:#181818;stroke-width:0.5;" width="107" x="1155" y="42.2969"/><text fill="#000000" font-family="sans-serif" font-size="14" lengthAdjust="spacing" textLength="93" x="1162" y="62.292">Development</text><rect fill="#E2E2F0" height="30.2969" rx="2.5" ry="2.5" style="stroke:#181818;stroke-width:0.5;" width="107" x="1155" y="1439.7734"/><text fill="#000000" font-family="sans-serif" font-size="14" lengthAdjust="spacing" textLength="93" x="1162" y="1459.7686">Development</text><rect fill="#E2E2F0" height="30.2969" rx="2.5" ry="2.5" style="stroke:#181818;stroke-width:0.5;" width="90" x="1430.5" y="42.2969"/><text fill="#000000" font-family="sans-serif" font-size="14" lengthAdjust="spacing" textLength="76" x="1437.5" y="62.292">Operations</text><rect fill="#E2E2F0" height="30.2969" rx="2.5" ry="2.5" style="stroke:#181818;stroke-width:0.5;" width="90" x="1430.5" y="1439.7734"/><text fill="#000000" font-family="sans-serif" font-size="14" lengthAdjust="spacing" textLength="76" x="1437.5" y="1459.7686">Operations</text><rect fill="#E2E2F0" height="30.2969" rx="2.5" ry="2.5" style="stroke:#181818;stroke-width:0.5;" width="126" x="1530.5" y="42.2969"/><text fill="#000000" font-family="sans-serif" font-size="14" lengthAdjust="spacing" textLength="112" x="1537.5" y="62.292">Project Manager</text><rect fill="#E2E2F0" height="30.2969" rx="2.5" ry="2.5" style="stroke:#181818;stroke-width:0.5;" width="126" x="1530.5" y="1439.7734"/><text fill="#000000" font-family="sans-serif" font-size="14" lengthAdjust="spacing" textLength="112" x="1537.5" y="1459.7686">Project Manager</text><rect fill="#EEEEEE" height="3" style="stroke:#EEEEEE;stroke-width:1.0;" width="1661.5" x="0" y="104.1602"/><line style="stroke:#000000;stroke-width:1.0;" x1="0" x2="1661.5" y1="104.1602" y2="104.1602"/><line style="stroke:#000000;stroke-width:1.0;" x1="0" x2="1661.5" y1="107.1602" y2="107.1602"/><rect fill="#EEEEEE" height="23.1328" style="stroke:#000000;stroke-width:2.0;" width="143" x="759.25" y="93.5938"/><text fill="#000000" font-family="sans-serif" font-size="13" font-weight="bold" lengthAdjust="spacing" textLength="124" x="765.25" y="109.6606">Incident Logging</text><polygon fill="#181818" points="456.5,143.8594,466.5,147.8594,456.5,151.8594,460.5,147.8594" style="stroke:#181818;stroke-width:1.0;"/><line style="stroke:#181818;stroke-width:1.0;" x1="82.5" x2="462.5" y1="147.8594" y2="147.8594"/><text fill="#000000" font-family="sans-serif" font-size="13" lengthAdjust="spacing" textLength="362" x="89.5" y="142.7935">Submit Incident Report (description, severity suggestion)</text><line style="stroke:#181818;stroke-width:1.0;" x1="468.5" x2="510.5" y1="176.9922" y2="176.9922"/><line style="stroke:#181818;stroke-width:1.0;" x1="510.5" x2="510.5" y1="176.9922" y2="189.9922"/><line style="stroke:#181818;stroke-width:1.0;" x1="469.5" x2="510.5" y1="189.9922" y2="189.9922"/><polygon fill="#181818" points="479.5,185.9922,469.5,189.9922,479.5,193.9922,475.5,189.9922" style="stroke:#181818;stroke-width:1.0;"/><text fill="#000000" font-family="sans-serif" font-size="13" lengthAdjust="spacing" textLength="204" x="475.5" y="171.9263">Review Report for completeness</text><path d="M10,204.9922 L74,204.9922 L74,212.125 L64,222.125 L10,222.125 L10,204.9922 " fill="#EEEEEE" style="stroke:#000000;stroke-width:1.5;"/><rect fill="none" height="75.3984" style="stroke:#000000;stroke-width:1.5;" width="538" x="10" y="204.9922"/><text fill="#000000" font-family="sans-serif" font-size="13" font-weight="bold" lengthAdjust="spacing" textLength="19" x="25" y="218.0591">alt</text><text fill="#000000" font-family="sans-serif" font-size="11" font-weight="bold" lengthAdjust="spacing" textLength="127" x="89" y="217.2026">[Report incomplete]</text><polygon fill="#181818" points="93.5,239.2578,83.5,243.2578,93.5,247.2578,89.5,243.2578" style="stroke:#181818;stroke-width:1.0;"/><line style="stroke:#181818;stroke-width:1.0;" x1="87.5" x2="467.5" y1="243.2578" y2="243.2578"/><text fill="#000000" font-family="sans-serif" font-size="13" lengthAdjust="spacing" textLength="164" x="99.5" y="238.1919">Request additional details</text><polygon fill="#181818" points="456.5,268.3906,466.5,272.3906,456.5,276.3906,460.5,272.3906" style="stroke:#181818;stroke-width:1.0;"/><line style="stroke:#181818;stroke-width:1.0;stroke-dasharray:2.0,2.0;" x1="82.5" x2="462.5" y1="272.3906" y2="272.3906"/><text fill="#000000" font-family="sans-serif" font-size="13" lengthAdjust="spacing" textLength="130" x="89.5" y="267.3247">Provide clarifications</text><polygon fill="#181818" points="741.5,304.5234,751.5,308.5234,741.5,312.5234,745.5,308.5234" style="stroke:#181818;stroke-width:1.0;"/><line style="stroke:#181818;stroke-width:1.0;" x1="468.5" x2="747.5" y1="308.5234" y2="308.5234"/><text fill="#000000" font-family="sans-serif" font-size="13" lengthAdjust="spacing" textLength="261" x="475.5" y="303.4575">Forward Incident with severity suggestion</text><rect fill="#EEEEEE" height="3" style="stroke:#EEEEEE;stroke-width:1.0;" width="1661.5" x="0" y="337.0898"/><line style="stroke:#000000;stroke-width:1.0;" x1="0" x2="1661.5" y1="337.0898" y2="337.0898"/><line style="stroke:#000000;stroke-width:1.0;" x1="0" x2="1661.5" y1="340.0898" y2="340.0898"/><rect fill="#EEEEEE" height="23.1328" style="stroke:#000000;stroke-width:2.0;" width="252" x="704.75" y="326.5234"/><text fill="#000000" font-family="sans-serif" font-size="13" font-weight="bold" lengthAdjust="spacing" textLength="233" x="710.75" y="342.5903">Validate Severity / Open Defect</text><line style="stroke:#181818;stroke-width:1.0;" x1="753.5" x2="795.5" y1="380.7891" y2="380.7891"/><line style="stroke:#181818;stroke-width:1.0;" x1="795.5" x2="795.5" y1="380.7891" y2="393.7891"/><line style="stroke:#181818;stroke-width:1.0;" x1="754.5" x2="795.5" y1="393.7891" y2="393.7891"/><polygon fill="#181818" points="764.5,389.7891,754.5,393.7891,764.5,397.7891,760.5,393.7891" style="stroke:#181818;stroke-width:1.0;"/><text fill="#000000" font-family="sans-serif" font-size="13" lengthAdjust="spacing" textLength="132" x="760.5" y="375.7231">Assess severity level</text><path d="M675,408.7891 L739,408.7891 L739,415.9219 L729,425.9219 L675,425.9219 L675,408.7891 " fill="#EEEEEE" style="stroke:#000000;stroke-width:1.5;"/><rect fill="none" height="46.2656" style="stroke:#000000;stroke-width:1.5;" width="435" x="675" y="408.7891"/><text fill="#000000" font-family="sans-serif" font-size="13" font-weight="bold" lengthAdjust="spacing" textLength="19" x="690" y="421.856">alt</text><text fill="#000000" font-family="sans-serif" font-size="11" font-weight="bold" lengthAdjust="spacing" textLength="157" x="754" y="420.9995">[Ethical concerns found]</text><polygon fill="#181818" points="1035.5,443.0547,1045.5,447.0547,1035.5,451.0547,1039.5,447.0547" style="stroke:#181818;stroke-width:1.0;"/><line style="stroke:#181818;stroke-width:1.0;" x1="753.5" x2="1041.5" y1="447.0547" y2="447.0547"/><text fill="#000000" font-family="sans-serif" font-size="13" lengthAdjust="spacing" textLength="230" x="760.5" y="441.9888">Alert AI-IRB Liaison for ethical review</text><line style="stroke:#181818;stroke-width:1.0;" x1="753.5" x2="795.5" y1="483.1875" y2="483.1875"/><line style="stroke:#181818;stroke-width:1.0;" x1="795.5" x2="795.5" y1="483.1875" y2="496.1875"/><line style="stroke:#181818;stroke-width:1.0;" x1="754.5" x2="795.5" y1="496.1875" y2="496.1875"/><polygon fill="#181818" points="764.5,492.1875,754.5,496.1875,764.5,500.1875,760.5,496.1875" style="stroke:#181818;stroke-width:1.0;"/><text fill="#000000" font-family="sans-serif" font-size="13" lengthAdjust="spacing" textLength="243" x="760.5" y="478.1216">Open defect in system (status=Open)</text><polygon fill="#181818" points="1581.5,521.3203,1591.5,525.3203,1581.5,529.3203,1585.5,525.3203" style="stroke:#181818;stroke-width:1.0;"/><line style="stroke:#181818;stroke-width:1.0;" x1="753.5" x2="1587.5" y1="525.3203" y2="525.3203"/><text fill="#000000" font-family="sans-serif" font-size="13" lengthAdjust="spacing" textLength="212" x="760.5" y="520.2544">Confirm assignment of developer</text><rect fill="#EEEEEE" height="3" style="stroke:#EEEEEE;stroke-width:1.0;" width="1661.5" x="0" y="553.8867"/><line style="stroke:#000000;stroke-width:1.0;" x1="0" x2="1661.5" y1="553.8867" y2="553.8867"/><line style="stroke:#000000;stroke-width:1.0;" x1="0" x2="1661.5" y1="556.8867" y2="556.8867"/><rect fill="#EEEEEE" height="23.1328" style="stroke:#000000;stroke-width:2.0;" width="268" x="696.75" y="543.3203"/><text fill="#000000" font-family="sans-serif" font-size="13" font-weight="bold" lengthAdjust="spacing" textLength="249" x="702.75" y="559.3872">Assign Developer and Investigate</text><polygon fill="#181818" points="1219.5,593.5859,1209.5,597.5859,1219.5,601.5859,1215.5,597.5859" style="stroke:#181818;stroke-width:1.0;"/><line style="stroke:#181818;stroke-width:1.0;" x1="1213.5" x2="1592.5" y1="597.5859" y2="597.5859"/><text fill="#000000" font-family="sans-serif" font-size="13" lengthAdjust="spacing" textLength="170" x="1225.5" y="592.52">Assign defect to developer</text><line style="stroke:#181818;stroke-width:1.0;" x1="1208.5" x2="1250.5" y1="626.7188" y2="626.7188"/><line style="stroke:#181818;stroke-width:1.0;" x1="1250.5" x2="1250.5" y1="626.7188" y2="639.7188"/><line style="stroke:#181818;stroke-width:1.0;" x1="1209.5" x2="1250.5" y1="639.7188" y2="639.7188"/><polygon fill="#181818" points="1219.5,635.7188,1209.5,639.7188,1219.5,643.7188,1215.5,639.7188" style="stroke:#181818;stroke-width:1.0;"/><text fill="#000000" font-family="sans-serif" font-size="13" lengthAdjust="spacing" textLength="236" x="1215.5" y="621.6528">Reproduce issue in safe environment</text><path d="M985,654.7188 L1049,654.7188 L1049,661.8516 L1039,671.8516 L985,671.8516 L985,654.7188 " fill="#EEEEEE" style="stroke:#000000;stroke-width:1.5;"/><rect fill="none" height="46.2656" style="stroke:#000000;stroke-width:1.5;" width="290" x="985" y="654.7188"/><text fill="#000000" font-family="sans-serif" font-size="13" font-weight="bold" lengthAdjust="spacing" textLength="19" x="1000" y="667.7856">alt</text><text fill="#000000" font-family="sans-serif" font-size="11" font-weight="bold" lengthAdjust="spacing" textLength="206" x="1064" y="666.9292">[Further ethical risk discovered]</text><polygon fill="#181818" points="1058.5,688.9844,1048.5,692.9844,1058.5,696.9844,1054.5,692.9844" style="stroke:#181818;stroke-width:1.0;"/><line style="stroke:#181818;stroke-width:1.0;" x1="1052.5" x2="1207.5" y1="692.9844" y2="692.9844"/><text fill="#000000" font-family="sans-serif" font-size="13" lengthAdjust="spacing" textLength="137" x="1064.5" y="687.9185">Consult AI-IRB Liaison</text><polygon fill="#181818" points="764.5,725.1172,754.5,729.1172,764.5,733.1172,760.5,729.1172" style="stroke:#181818;stroke-width:1.0;"/><line style="stroke:#181818;stroke-width:1.0;" x1="758.5" x2="1207.5" y1="729.1172" y2="729.1172"/><text fill="#000000" font-family="sans-serif" font-size="13" lengthAdjust="spacing" textLength="149" x="770.5" y="724.0513">Provide triage outcome</text><rect fill="#EEEEEE" height="3" style="stroke:#EEEEEE;stroke-width:1.0;" width="1661.5" x="0" y="757.6836"/><line style="stroke:#000000;stroke-width:1.0;" x1="0" x2="1661.5" y1="757.6836" y2="757.6836"/><line style="stroke:#000000;stroke-width:1.0;" x1="0" x2="1661.5" y1="760.6836" y2="760.6836"/><rect fill="#EEEEEE" height="23.1328" style="stroke:#000000;stroke-width:2.0;" width="193" x="734.25" y="747.1172"/><text fill="#000000" font-family="sans-serif" font-size="13" font-weight="bold" lengthAdjust="spacing" textLength="174" x="740.25" y="763.1841">Implement and Test Fix</text><line style="stroke:#181818;stroke-width:1.0;" x1="1208.5" x2="1250.5" y1="801.3828" y2="801.3828"/><line style="stroke:#181818;stroke-width:1.0;" x1="1250.5" x2="1250.5" y1="801.3828" y2="814.3828"/><line style="stroke:#181818;stroke-width:1.0;" x1="1209.5" x2="1250.5" y1="814.3828" y2="814.3828"/><polygon fill="#181818" points="1219.5,810.3828,1209.5,814.3828,1219.5,818.3828,1215.5,814.3828" style="stroke:#181818;stroke-width:1.0;"/><text fill="#000000" font-family="sans-serif" font-size="13" lengthAdjust="spacing" textLength="237" x="1215.5" y="796.3169">Implement fix and run local unit tests</text><polygon fill="#181818" points="764.5,839.5156,754.5,843.5156,764.5,847.5156,760.5,843.5156" style="stroke:#181818;stroke-width:1.0;"/><line style="stroke:#181818;stroke-width:1.0;" x1="758.5" x2="1207.5" y1="843.5156" y2="843.5156"/><text fill="#000000" font-family="sans-serif" font-size="13" lengthAdjust="spacing" textLength="193" x="770.5" y="838.4497">Deliver patch for QA validation</text><polygon fill="#181818" points="1463.5,868.6484,1473.5,872.6484,1463.5,876.6484,1467.5,872.6484" style="stroke:#181818;stroke-width:1.0;"/><line style="stroke:#181818;stroke-width:1.0;" x1="753.5" x2="1469.5" y1="872.6484" y2="872.6484"/><text fill="#000000" font-family="sans-serif" font-size="13" lengthAdjust="spacing" textLength="245" x="760.5" y="867.5825">Coordinate environment for staging fix</text><polygon fill="#181818" points="764.5,897.7813,754.5,901.7813,764.5,905.7813,760.5,901.7813" style="stroke:#181818;stroke-width:1.0;"/><line style="stroke:#181818;stroke-width:1.0;" x1="758.5" x2="1474.5" y1="901.7813" y2="901.7813"/><text fill="#000000" font-family="sans-serif" font-size="13" lengthAdjust="spacing" textLength="174" x="770.5" y="896.7153">Staging environment ready</text><line style="stroke:#181818;stroke-width:1.0;" x1="753.5" x2="795.5" y1="930.9141" y2="930.9141"/><line style="stroke:#181818;stroke-width:1.0;" x1="795.5" x2="795.5" y1="930.9141" y2="943.9141"/><line style="stroke:#181818;stroke-width:1.0;" x1="754.5" x2="795.5" y1="943.9141" y2="943.9141"/><polygon fill="#181818" points="764.5,939.9141,754.5,943.9141,764.5,947.9141,760.5,943.9141" style="stroke:#181818;stroke-width:1.0;"/><text fill="#000000" font-family="sans-serif" font-size="13" lengthAdjust="spacing" textLength="136" x="760.5" y="925.8481">Validate fix in staging</text><path d="M675,958.9141 L739,958.9141 L739,966.0469 L729,976.0469 L675,976.0469 L675,958.9141 " fill="#EEEEEE" style="stroke:#000000;stroke-width:1.5;"/><rect fill="none" height="75.3984" style="stroke:#000000;stroke-width:1.5;" width="597" x="675" y="958.9141"/><text fill="#000000" font-family="sans-serif" font-size="13" font-weight="bold" lengthAdjust="spacing" textLength="19" x="690" y="971.981">alt</text><text fill="#000000" font-family="sans-serif" font-size="11" font-weight="bold" lengthAdjust="spacing" textLength="104" x="754" y="971.1245">[Fix incomplete]</text><polygon fill="#181818" points="1196.5,993.1797,1206.5,997.1797,1196.5,1001.1797,1200.5,997.1797" style="stroke:#181818;stroke-width:1.0;"/><line style="stroke:#181818;stroke-width:1.0;" x1="753.5" x2="1202.5" y1="997.1797" y2="997.1797"/><text fill="#000000" font-family="sans-serif" font-size="13" lengthAdjust="spacing" textLength="259" x="760.5" y="992.1138">Re-open defect for additional corrections</text><polygon fill="#181818" points="764.5,1022.3125,754.5,1026.3125,764.5,1030.3125,760.5,1026.3125" style="stroke:#181818;stroke-width:1.0;"/><line style="stroke:#181818;stroke-width:1.0;" x1="758.5" x2="1207.5" y1="1026.3125" y2="1026.3125"/><text fill="#000000" font-family="sans-serif" font-size="13" lengthAdjust="spacing" textLength="144" x="770.5" y="1021.2466">Provide updated patch</text><line style="stroke:#181818;stroke-width:1.0;" x1="753.5" x2="795.5" y1="1062.4453" y2="1062.4453"/><line style="stroke:#181818;stroke-width:1.0;" x1="795.5" x2="795.5" y1="1062.4453" y2="1075.4453"/><line style="stroke:#181818;stroke-width:1.0;" x1="754.5" x2="795.5" y1="1075.4453" y2="1075.4453"/><polygon fill="#181818" points="764.5,1071.4453,754.5,1075.4453,764.5,1079.4453,760.5,1075.4453" style="stroke:#181818;stroke-width:1.0;"/><text fill="#000000" font-family="sans-serif" font-size="13" lengthAdjust="spacing" textLength="280" x="760.5" y="1057.3794">Confirm fix acceptance (resolved in staging)</text><rect fill="#EEEEEE" height="3" style="stroke:#EEEEEE;stroke-width:1.0;" width="1661.5" x="0" y="1104.0117"/><line style="stroke:#000000;stroke-width:1.0;" x1="0" x2="1661.5" y1="1104.0117" y2="1104.0117"/><line style="stroke:#000000;stroke-width:1.0;" x1="0" x2="1661.5" y1="1107.0117" y2="1107.0117"/><rect fill="#EEEEEE" height="23.1328" style="stroke:#000000;stroke-width:2.0;" width="175" x="743.25" y="1093.4453"/><text fill="#000000" font-family="sans-serif" font-size="13" font-weight="bold" lengthAdjust="spacing" textLength="156" x="749.25" y="1109.5122">Deploy to Production</text><polygon fill="#181818" points="1463.5,1143.7109,1473.5,1147.7109,1463.5,1151.7109,1467.5,1147.7109" style="stroke:#181818;stroke-width:1.0;"/><line style="stroke:#181818;stroke-width:1.0;" x1="753.5" x2="1469.5" y1="1147.7109" y2="1147.7109"/><text fill="#000000" font-family="sans-serif" font-size="13" lengthAdjust="spacing" textLength="213" x="760.5" y="1142.645">Authorize production deployment</text><polygon fill="#181818" points="1219.5,1172.8438,1209.5,1176.8438,1219.5,1180.8438,1215.5,1176.8438" style="stroke:#181818;stroke-width:1.0;"/><line style="stroke:#181818;stroke-width:1.0;" x1="1213.5" x2="1474.5" y1="1176.8438" y2="1176.8438"/><text fill="#000000" font-family="sans-serif" font-size="13" lengthAdjust="spacing" textLength="243" x="1225.5" y="1171.7778">Merge fix into production environment</text><polygon fill="#181818" points="1581.5,1201.9766,1591.5,1205.9766,1581.5,1209.9766,1585.5,1205.9766" style="stroke:#181818;stroke-width:1.0;"/><line style="stroke:#181818;stroke-width:1.0;" x1="1208.5" x2="1587.5" y1="1205.9766" y2="1205.9766"/><text fill="#000000" font-family="sans-serif" font-size="13" lengthAdjust="spacing" textLength="199" x="1215.5" y="1200.9106">Notifies success of deployment</text><polygon fill="#181818" points="479.5,1231.1094,469.5,1235.1094,479.5,1239.1094,475.5,1235.1094" style="stroke:#181818;stroke-width:1.0;"/><line style="stroke:#181818;stroke-width:1.0;" x1="473.5" x2="1592.5" y1="1235.1094" y2="1235.1094"/><text fill="#000000" font-family="sans-serif" font-size="13" lengthAdjust="spacing" textLength="220" x="485.5" y="1230.0435">Update incident resolution metrics</text><rect fill="#EEEEEE" height="3" style="stroke:#EEEEEE;stroke-width:1.0;" width="1661.5" x="0" y="1263.6758"/><line style="stroke:#000000;stroke-width:1.0;" x1="0" x2="1661.5" y1="1263.6758" y2="1263.6758"/><line style="stroke:#000000;stroke-width:1.0;" x1="0" x2="1661.5" y1="1266.6758" y2="1266.6758"/><rect fill="#EEEEEE" height="23.1328" style="stroke:#000000;stroke-width:2.0;" width="123" x="769.25" y="1253.1094"/><text fill="#000000" font-family="sans-serif" font-size="13" font-weight="bold" lengthAdjust="spacing" textLength="104" x="775.25" y="1269.1763">Close Incident</text><line style="stroke:#181818;stroke-width:1.0;" x1="753.5" x2="795.5" y1="1307.375" y2="1307.375"/><line style="stroke:#181818;stroke-width:1.0;" x1="795.5" x2="795.5" y1="1307.375" y2="1320.375"/><line style="stroke:#181818;stroke-width:1.0;" x1="754.5" x2="795.5" y1="1320.375" y2="1320.375"/><polygon fill="#181818" points="764.5,1316.375,754.5,1320.375,764.5,1324.375,760.5,1320.375" style="stroke:#181818;stroke-width:1.0;"/><text fill="#000000" font-family="sans-serif" font-size="13" lengthAdjust="spacing" textLength="187" x="760.5" y="1302.3091">Close defect (status=Closed)</text><line style="stroke:#181818;stroke-width:1.0;" x1="753.5" x2="795.5" y1="1349.5078" y2="1349.5078"/><line style="stroke:#181818;stroke-width:1.0;" x1="795.5" x2="795.5" y1="1349.5078" y2="1362.5078"/><line style="stroke:#181818;stroke-width:1.0;" x1="754.5" x2="795.5" y1="1362.5078" y2="1362.5078"/><polygon fill="#181818" points="764.5,1358.5078,754.5,1362.5078,764.5,1366.5078,760.5,1362.5078" style="stroke:#181818;stroke-width:1.0;"/><text fill="#000000" font-family="sans-serif" font-size="13" lengthAdjust="spacing" textLength="265" x="760.5" y="1344.4419">Post-incident review (root cause, lessons)</text><path d="M675,1377.5078 L739,1377.5078 L739,1384.6406 L729,1394.6406 L675,1394.6406 L675,1377.5078 " fill="#EEEEEE" style="stroke:#000000;stroke-width:1.5;"/><rect fill="none" height="46.2656" style="stroke:#000000;stroke-width:1.5;" width="435" x="675" y="1377.5078"/><text fill="#000000" font-family="sans-serif" font-size="13" font-weight="bold" lengthAdjust="spacing" textLength="19" x="690" y="1390.5747">alt</text><text fill="#000000" font-family="sans-serif" font-size="11" font-weight="bold" lengthAdjust="spacing" textLength="130" x="754" y="1389.7183">[AI-IRB involvement]</text><polygon fill="#181818" points="764.5,1411.7734,754.5,1415.7734,764.5,1419.7734,760.5,1415.7734" style="stroke:#181818;stroke-width:1.0;"/><line style="stroke:#181818;stroke-width:1.0;" x1="758.5" x2="1046.5" y1="1415.7734" y2="1415.7734"/><text fill="#000000" font-family="sans-serif" font-size="13" lengthAdjust="spacing" textLength="197" x="770.5" y="1410.7075">Final compliance check or note</text><!--MD5=[507422880c38718ca73f58fd394c4561]
@startuml
title SOP-1061-01 Incident Tracking - Sequence Diagram

participant "Defect Reporter" as DR
participant "Technical Support" as TS
participant "Quality Assurance" as QA
participant "AI-IRB Liaison" as IRB
participant "Development" as DEV
participant "Operations" as OPS
participant "Project Manager" as PM

== Incident Logging ==
DR -> TS: Submit Incident Report (description, severity suggestion)
TS -> TS: Review Report for completeness
alt Report incomplete
  TS -> DR: Request additional details
  DR - -> TS: Provide clarifications
end

TS -> QA: Forward Incident with severity suggestion

== Validate Severity / Open Defect ==
QA -> QA: Assess severity level
alt Ethical concerns found
  QA -> IRB: Alert AI-IRB Liaison for ethical review
end
QA -> QA: Open defect in system (status=Open)
QA -> PM: Confirm assignment of developer

== Assign Developer and Investigate ==
PM -> DEV: Assign defect to developer
DEV -> DEV: Reproduce issue in safe environment
alt Further ethical risk discovered
  DEV -> IRB: Consult AI-IRB Liaison
end
DEV -> QA: Provide triage outcome

== Implement and Test Fix ==
DEV -> DEV: Implement fix and run local unit tests
DEV -> QA: Deliver patch for QA validation
QA -> OPS: Coordinate environment for staging fix
OPS -> QA: Staging environment ready
QA -> QA: Validate fix in staging
alt Fix incomplete
  QA -> DEV: Re-open defect for additional corrections
  DEV -> QA: Provide updated patch
end
QA -> QA: Confirm fix acceptance (resolved in staging)

== Deploy to Production ==
QA -> OPS: Authorize production deployment
OPS -> DEV: Merge fix into production environment
DEV -> PM: Notifies success of deployment
PM -> TS: Update incident resolution metrics

== Close Incident ==
QA -> QA: Close defect (status=Closed)
QA -> QA: Post-incident review (root cause, lessons)
alt AI-IRB involvement
  IRB -> QA: Final compliance check or note
end
@enduml

PlantUML version 1.2022.7(Mon Aug 22 17:01:30 UTC 2022)
(GPL source distribution)
Java Runtime: OpenJDK Runtime Environment
JVM: OpenJDK 64-Bit Server VM
Default Encoding: UTF-8
Language: en
Country: null
--></g></svg>