<?xml version="1.0" encoding="UTF-8" standalone="no"?><svg xmlns="http://www.w3.org/2000/svg" xmlns:xlink="http://www.w3.org/1999/xlink" contentStyleType="text/css" height="1757px" preserveAspectRatio="none" style="width:2492px;height:1757px;background:#FFFFFF;" version="1.1" viewBox="0 0 2492 1757" width="2492px" zoomAndPan="magnify"><defs/><g><rect fill="none" height="75.3984" style="stroke:#000000;stroke-width:1.5;" width="501.5" x="10" y="167.6953"/><rect fill="none" height="46.2656" style="stroke:#000000;stroke-width:1.5;" width="491.5" x="347.5" y="416.7578"/><rect fill="none" height="75.3984" style="stroke:#000000;stroke-width:1.5;" width="1080.5" x="989" y="1050.1484"/><rect fill="none" height="148.4688" style="stroke:#000000;stroke-width:1.5;" width="2465" x="10" y="1283.0781"/><line style="stroke:#181818;stroke-width:0.5;stroke-dasharray:5.0,5.0;" x1="83" x2="83" y1="36.2969" y2="1722.6094"/><line style="stroke:#181818;stroke-width:0.5;stroke-dasharray:5.0,5.0;" x1="429.5" x2="429.5" y1="36.2969" y2="1722.6094"/><line style="stroke:#181818;stroke-width:0.5;stroke-dasharray:5.0,5.0;" x1="751" x2="751" y1="36.2969" y2="1722.6094"/><line style="stroke:#181818;stroke-width:0.5;stroke-dasharray:5.0,5.0;" x1="1073" x2="1073" y1="36.2969" y2="1722.6094"/><line style="stroke:#181818;stroke-width:0.5;stroke-dasharray:5.0,5.0;" x1="1399" x2="1399" y1="36.2969" y2="1722.6094"/><line style="stroke:#181818;stroke-width:0.5;stroke-dasharray:5.0,5.0;" x1="1736" x2="1736" y1="36.2969" y2="1722.6094"/><line style="stroke:#181818;stroke-width:0.5;stroke-dasharray:5.0,5.0;" x1="1960.5" x2="1960.5" y1="36.2969" y2="1722.6094"/><line style="stroke:#181818;stroke-width:0.5;stroke-dasharray:5.0,5.0;" x1="2134.5" x2="2134.5" y1="36.2969" y2="1722.6094"/><line style="stroke:#181818;stroke-width:0.5;stroke-dasharray:5.0,5.0;" x1="2375" x2="2375" y1="36.2969" y2="1722.6094"/><rect fill="#E2E2F0" height="30.2969" rx="2.5" ry="2.5" style="stroke:#181818;stroke-width:0.5;" width="87" x="40" y="5"/><text fill="#000000" font-family="sans-serif" font-size="14" lengthAdjust="spacing" textLength="73" x="47" y="24.9951">Requestor</text><rect fill="#E2E2F0" height="30.2969" rx="2.5" ry="2.5" style="stroke:#181818;stroke-width:0.5;" width="87" x="40" y="1721.6094"/><text fill="#000000" font-family="sans-serif" font-size="14" lengthAdjust="spacing" textLength="73" x="47" y="1741.6045">Requestor</text><rect fill="#E2E2F0" height="30.2969" rx="2.5" ry="2.5" style="stroke:#181818;stroke-width:0.5;" width="104" x="377.5" y="5"/><text fill="#000000" font-family="sans-serif" font-size="14" lengthAdjust="spacing" textLength="90" x="384.5" y="24.9951">AI IRB Liaison</text><rect fill="#E2E2F0" height="30.2969" rx="2.5" ry="2.5" style="stroke:#181818;stroke-width:0.5;" width="104" x="377.5" y="1721.6094"/><text fill="#000000" font-family="sans-serif" font-size="14" lengthAdjust="spacing" textLength="90" x="384.5" y="1741.6045">AI IRB Liaison</text><rect fill="#E2E2F0" height="30.2969" rx="2.5" ry="2.5" style="stroke:#181818;stroke-width:0.5;" width="115" x="694" y="5"/><text fill="#000000" font-family="sans-serif" font-size="14" lengthAdjust="spacing" textLength="101" x="701" y="24.9951">AI Data Analyst</text><rect fill="#E2E2F0" height="30.2969" rx="2.5" ry="2.5" style="stroke:#181818;stroke-width:0.5;" width="115" x="694" y="1721.6094"/><text fill="#000000" font-family="sans-serif" font-size="14" lengthAdjust="spacing" textLength="101" x="701" y="1741.6045">AI Data Analyst</text><rect fill="#E2E2F0" height="30.2969" rx="2.5" ry="2.5" style="stroke:#181818;stroke-width:0.5;" width="109" x="1019" y="5"/><text fill="#000000" font-family="sans-serif" font-size="14" lengthAdjust="spacing" textLength="95" x="1026" y="24.9951">Data Scientist</text><rect fill="#E2E2F0" height="30.2969" rx="2.5" ry="2.5" style="stroke:#181818;stroke-width:0.5;" width="109" x="1019" y="1721.6094"/><text fill="#000000" font-family="sans-serif" font-size="14" lengthAdjust="spacing" textLength="95" x="1026" y="1741.6045">Data Scientist</text><rect fill="#E2E2F0" height="30.2969" rx="2.5" ry="2.5" style="stroke:#181818;stroke-width:0.5;" width="127" x="1336" y="5"/><text fill="#000000" font-family="sans-serif" font-size="14" lengthAdjust="spacing" textLength="113" x="1343" y="24.9951">MLOps Engineer</text><rect fill="#E2E2F0" height="30.2969" rx="2.5" ry="2.5" style="stroke:#181818;stroke-width:0.5;" width="127" x="1336" y="1721.6094"/><text fill="#000000" font-family="sans-serif" font-size="14" lengthAdjust="spacing" textLength="113" x="1343" y="1741.6045">MLOps Engineer</text><rect fill="#E2E2F0" height="30.2969" rx="2.5" ry="2.5" style="stroke:#181818;stroke-width:0.5;" width="137" x="1668" y="5"/><text fill="#000000" font-family="sans-serif" font-size="14" lengthAdjust="spacing" textLength="123" x="1675" y="24.9951">Quality Assurance</text><rect fill="#E2E2F0" height="30.2969" rx="2.5" ry="2.5" style="stroke:#181818;stroke-width:0.5;" width="137" x="1668" y="1721.6094"/><text fill="#000000" font-family="sans-serif" font-size="14" lengthAdjust="spacing" textLength="123" x="1675" y="1741.6045">Quality Assurance</text><rect fill="#E2E2F0" height="30.2969" rx="2.5" ry="2.5" style="stroke:#181818;stroke-width:0.5;" width="158" x="1881.5" y="5"/><text fill="#000000" font-family="sans-serif" font-size="14" lengthAdjust="spacing" textLength="144" x="1888.5" y="24.9951">AI Ethics/Compliance</text><rect fill="#E2E2F0" height="30.2969" rx="2.5" ry="2.5" style="stroke:#181818;stroke-width:0.5;" width="158" x="1881.5" y="1721.6094"/><text fill="#000000" font-family="sans-serif" font-size="14" lengthAdjust="spacing" textLength="144" x="1888.5" y="1741.6045">AI Ethics/Compliance</text><rect fill="#E2E2F0" height="30.2969" rx="2.5" ry="2.5" style="stroke:#181818;stroke-width:0.5;" width="90" x="2089.5" y="5"/><text fill="#000000" font-family="sans-serif" font-size="14" lengthAdjust="spacing" textLength="76" x="2096.5" y="24.9951">Operations</text><rect fill="#E2E2F0" height="30.2969" rx="2.5" ry="2.5" style="stroke:#181818;stroke-width:0.5;" width="90" x="2089.5" y="1721.6094"/><text fill="#000000" font-family="sans-serif" font-size="14" lengthAdjust="spacing" textLength="76" x="2096.5" y="1741.6045">Operations</text><rect fill="#E2E2F0" height="30.2969" rx="2.5" ry="2.5" style="stroke:#181818;stroke-width:0.5;" width="139" x="2306" y="5"/><text fill="#000000" font-family="sans-serif" font-size="14" lengthAdjust="spacing" textLength="125" x="2313" y="24.9951">Technical Support</text><rect fill="#E2E2F0" height="30.2969" rx="2.5" ry="2.5" style="stroke:#181818;stroke-width:0.5;" width="139" x="2306" y="1721.6094"/><text fill="#000000" font-family="sans-serif" font-size="14" lengthAdjust="spacing" textLength="125" x="2313" y="1741.6045">Technical Support</text><rect fill="#EEEEEE" height="3" style="stroke:#EEEEEE;stroke-width:1.0;" width="2485" x="0" y="66.8633"/><line style="stroke:#000000;stroke-width:1.0;" x1="0" x2="2485" y1="66.8633" y2="66.8633"/><line style="stroke:#000000;stroke-width:1.0;" x1="0" x2="2485" y1="69.8633" y2="69.8633"/><rect fill="#EEEEEE" height="23.1328" style="stroke:#000000;stroke-width:2.0;" width="149" x="1168" y="56.2969"/><text fill="#000000" font-family="sans-serif" font-size="13" font-weight="bold" lengthAdjust="spacing" textLength="130" x="1174" y="72.3638">Request Initiation</text><line style="stroke:#181818;stroke-width:1.0;" x1="83.5" x2="125.5" y1="110.5625" y2="110.5625"/><line style="stroke:#181818;stroke-width:1.0;" x1="125.5" x2="125.5" y1="110.5625" y2="123.5625"/><line style="stroke:#181818;stroke-width:1.0;" x1="84.5" x2="125.5" y1="123.5625" y2="123.5625"/><polygon fill="#181818" points="94.5,119.5625,84.5,123.5625,94.5,127.5625,90.5,123.5625" style="stroke:#181818;stroke-width:1.0;"/><text fill="#000000" font-family="sans-serif" font-size="13" lengthAdjust="spacing" textLength="209" x="90.5" y="105.4966">Fill out Ad Hoc AI Reporting Form</text><polygon fill="#181818" points="417.5,148.6953,427.5,152.6953,417.5,156.6953,421.5,152.6953" style="stroke:#181818;stroke-width:1.0;"/><line style="stroke:#181818;stroke-width:1.0;" x1="83.5" x2="423.5" y1="152.6953" y2="152.6953"/><text fill="#000000" font-family="sans-serif" font-size="13" lengthAdjust="spacing" textLength="322" x="90.5" y="147.6294">Submit request for potential ethical/regulatory flag</text><path d="M10,167.6953 L74,167.6953 L74,174.8281 L64,184.8281 L10,184.8281 L10,167.6953 " fill="#EEEEEE" style="stroke:#000000;stroke-width:1.5;"/><rect fill="none" height="75.3984" style="stroke:#000000;stroke-width:1.5;" width="501.5" x="10" y="167.6953"/><text fill="#000000" font-family="sans-serif" font-size="13" font-weight="bold" lengthAdjust="spacing" textLength="19" x="25" y="180.7622">alt</text><text fill="#000000" font-family="sans-serif" font-size="11" font-weight="bold" lengthAdjust="spacing" textLength="116" x="89" y="179.9058">[If flagged by IRB]</text><polygon fill="#181818" points="94.5,201.9609,84.5,205.9609,94.5,209.9609,90.5,205.9609" style="stroke:#181818;stroke-width:1.0;"/><line style="stroke:#181818;stroke-width:1.0;" x1="88.5" x2="428.5" y1="205.9609" y2="205.9609"/><text fill="#000000" font-family="sans-serif" font-size="13" lengthAdjust="spacing" textLength="218" x="100.5" y="200.895">Request additional info or updates</text><polygon fill="#181818" points="417.5,231.0938,427.5,235.0938,417.5,239.0938,421.5,235.0938" style="stroke:#181818;stroke-width:1.0;"/><line style="stroke:#181818;stroke-width:1.0;" x1="83.5" x2="423.5" y1="235.0938" y2="235.0938"/><text fill="#000000" font-family="sans-serif" font-size="13" lengthAdjust="spacing" textLength="130" x="90.5" y="230.0278">Provide clarifications</text><polygon fill="#181818" points="739.5,267.2266,749.5,271.2266,739.5,275.2266,743.5,271.2266" style="stroke:#181818;stroke-width:1.0;"/><line style="stroke:#181818;stroke-width:1.0;" x1="429.5" x2="745.5" y1="271.2266" y2="271.2266"/><text fill="#000000" font-family="sans-serif" font-size="13" lengthAdjust="spacing" textLength="211" x="436.5" y="266.1606">Forward validated request details</text><rect fill="#EEEEEE" height="3" style="stroke:#EEEEEE;stroke-width:1.0;" width="2485" x="0" y="299.793"/><line style="stroke:#000000;stroke-width:1.0;" x1="0" x2="2485" y1="299.793" y2="299.793"/><line style="stroke:#000000;stroke-width:1.0;" x1="0" x2="2485" y1="302.793" y2="302.793"/><rect fill="#EEEEEE" height="23.1328" style="stroke:#000000;stroke-width:2.0;" width="295" x="1095" y="289.2266"/><text fill="#000000" font-family="sans-serif" font-size="13" font-weight="bold" lengthAdjust="spacing" textLength="276" x="1101" y="305.2935">Requirements Gathering &amp; Validation</text><polygon fill="#181818" points="94.5,339.4922,84.5,343.4922,94.5,347.4922,90.5,343.4922" style="stroke:#181818;stroke-width:1.0;"/><line style="stroke:#181818;stroke-width:1.0;" x1="88.5" x2="750.5" y1="343.4922" y2="343.4922"/><text fill="#000000" font-family="sans-serif" font-size="13" lengthAdjust="spacing" textLength="226" x="100.5" y="338.4263">Schedule meeting to refine request</text><polygon fill="#181818" points="1061.5,368.625,1071.5,372.625,1061.5,376.625,1065.5,372.625" style="stroke:#181818;stroke-width:1.0;"/><line style="stroke:#181818;stroke-width:1.0;" x1="751.5" x2="1067.5" y1="372.625" y2="372.625"/><text fill="#000000" font-family="sans-serif" font-size="13" lengthAdjust="spacing" textLength="298" x="758.5" y="367.5591">Check if new/existing AI/ML models are needed</text><polygon fill="#181818" points="1724.5,397.7578,1734.5,401.7578,1724.5,405.7578,1728.5,401.7578" style="stroke:#181818;stroke-width:1.0;"/><line style="stroke:#181818;stroke-width:1.0;" x1="751.5" x2="1730.5" y1="401.7578" y2="401.7578"/><text fill="#000000" font-family="sans-serif" font-size="13" lengthAdjust="spacing" textLength="167" x="758.5" y="396.6919">Ensure request is testable</text><path d="M347.5,416.7578 L411.5,416.7578 L411.5,423.8906 L401.5,433.8906 L347.5,433.8906 L347.5,416.7578 " fill="#EEEEEE" style="stroke:#000000;stroke-width:1.5;"/><rect fill="none" height="46.2656" style="stroke:#000000;stroke-width:1.5;" width="491.5" x="347.5" y="416.7578"/><text fill="#000000" font-family="sans-serif" font-size="13" font-weight="bold" lengthAdjust="spacing" textLength="19" x="362.5" y="429.8247">alt</text><text fill="#000000" font-family="sans-serif" font-size="11" font-weight="bold" lengthAdjust="spacing" textLength="212" x="426.5" y="428.9683">[Additional IRB approval needed]</text><polygon fill="#181818" points="739.5,451.0234,749.5,455.0234,739.5,459.0234,743.5,455.0234" style="stroke:#181818;stroke-width:1.0;"/><line style="stroke:#181818;stroke-width:1.0;" x1="429.5" x2="745.5" y1="455.0234" y2="455.0234"/><text fill="#000000" font-family="sans-serif" font-size="13" lengthAdjust="spacing" textLength="213" x="436.5" y="449.9575">Provide final compliance approval</text><rect fill="#EEEEEE" height="3" style="stroke:#EEEEEE;stroke-width:1.0;" width="2485" x="0" y="490.5898"/><line style="stroke:#000000;stroke-width:1.0;" x1="0" x2="2485" y1="490.5898" y2="490.5898"/><line style="stroke:#000000;stroke-width:1.0;" x1="0" x2="2485" y1="493.5898" y2="493.5898"/><rect fill="#EEEEEE" height="23.1328" style="stroke:#000000;stroke-width:2.0;" width="209" x="1138" y="480.0234"/><text fill="#000000" font-family="sans-serif" font-size="13" font-weight="bold" lengthAdjust="spacing" textLength="190" x="1144" y="496.0903">Feasibility &amp; Prioritization</text><line style="stroke:#181818;stroke-width:1.0;" x1="751.5" x2="793.5" y1="534.2891" y2="534.2891"/><line style="stroke:#181818;stroke-width:1.0;" x1="793.5" x2="793.5" y1="534.2891" y2="547.2891"/><line style="stroke:#181818;stroke-width:1.0;" x1="752.5" x2="793.5" y1="547.2891" y2="547.2891"/><polygon fill="#181818" points="762.5,543.2891,752.5,547.2891,762.5,551.2891,758.5,547.2891" style="stroke:#181818;stroke-width:1.0;"/><text fill="#000000" font-family="sans-serif" font-size="13" lengthAdjust="spacing" textLength="236" x="758.5" y="529.2231">Assess data availability &amp; complexity</text><polygon fill="#181818" points="1387.5,572.4219,1397.5,576.4219,1387.5,580.4219,1391.5,576.4219" style="stroke:#181818;stroke-width:1.0;"/><line style="stroke:#181818;stroke-width:1.0;" x1="751.5" x2="1393.5" y1="576.4219" y2="576.4219"/><text fill="#000000" font-family="sans-serif" font-size="13" lengthAdjust="spacing" textLength="201" x="758.5" y="571.356">Confirm environment readiness</text><line style="stroke:#181818;stroke-width:1.0;" x1="751.5" x2="793.5" y1="605.5547" y2="605.5547"/><line style="stroke:#181818;stroke-width:1.0;" x1="793.5" x2="793.5" y1="605.5547" y2="618.5547"/><line style="stroke:#181818;stroke-width:1.0;" x1="752.5" x2="793.5" y1="618.5547" y2="618.5547"/><polygon fill="#181818" points="762.5,614.5547,752.5,618.5547,762.5,622.5547,758.5,618.5547" style="stroke:#181818;stroke-width:1.0;"/><text fill="#000000" font-family="sans-serif" font-size="13" lengthAdjust="spacing" textLength="186" x="758.5" y="600.4888">Draft time/resource estimate</text><polygon fill="#181818" points="94.5,643.6875,84.5,647.6875,94.5,651.6875,90.5,647.6875" style="stroke:#181818;stroke-width:1.0;"/><line style="stroke:#181818;stroke-width:1.0;" x1="88.5" x2="750.5" y1="647.6875" y2="647.6875"/><text fill="#000000" font-family="sans-serif" font-size="13" lengthAdjust="spacing" textLength="311" x="100.5" y="642.6216">Recommend priority level (Critical/High/Med/Low)</text><rect fill="#EEEEEE" height="3" style="stroke:#EEEEEE;stroke-width:1.0;" width="2485" x="0" y="676.2539"/><line style="stroke:#000000;stroke-width:1.0;" x1="0" x2="2485" y1="676.2539" y2="676.2539"/><line style="stroke:#000000;stroke-width:1.0;" x1="0" x2="2485" y1="679.2539" y2="679.2539"/><rect fill="#EEEEEE" height="23.1328" style="stroke:#000000;stroke-width:2.0;" width="192" x="1146.5" y="665.6875"/><text fill="#000000" font-family="sans-serif" font-size="13" font-weight="bold" lengthAdjust="spacing" textLength="173" x="1152.5" y="681.7544">Development &amp; Testing</text><polygon fill="#181818" points="1061.5,715.9531,1071.5,719.9531,1061.5,723.9531,1065.5,719.9531" style="stroke:#181818;stroke-width:1.0;"/><line style="stroke:#181818;stroke-width:1.0;" x1="751.5" x2="1067.5" y1="719.9531" y2="719.9531"/><text fill="#000000" font-family="sans-serif" font-size="13" lengthAdjust="spacing" textLength="257" x="758.5" y="714.8872">Gather data and perform data wrangling</text><polygon fill="#181818" points="1387.5,745.0859,1397.5,749.0859,1387.5,753.0859,1391.5,749.0859" style="stroke:#181818;stroke-width:1.0;"/><line style="stroke:#181818;stroke-width:1.0;" x1="1073.5" x2="1393.5" y1="749.0859" y2="749.0859"/><text fill="#000000" font-family="sans-serif" font-size="13" lengthAdjust="spacing" textLength="302" x="1080.5" y="744.02">Request environment setup or code integration</text><line style="stroke:#181818;stroke-width:1.0;" x1="1399.5" x2="1441.5" y1="778.2188" y2="778.2188"/><line style="stroke:#181818;stroke-width:1.0;" x1="1441.5" x2="1441.5" y1="778.2188" y2="791.2188"/><line style="stroke:#181818;stroke-width:1.0;" x1="1400.5" x2="1441.5" y1="791.2188" y2="791.2188"/><polygon fill="#181818" points="1410.5,787.2188,1400.5,791.2188,1410.5,795.2188,1406.5,791.2188" style="stroke:#181818;stroke-width:1.0;"/><text fill="#000000" font-family="sans-serif" font-size="13" lengthAdjust="spacing" textLength="323" x="1406.5" y="773.1528">Update code repo &amp; environment (version control)</text><polygon fill="#181818" points="762.5,816.3516,752.5,820.3516,762.5,824.3516,758.5,820.3516" style="stroke:#181818;stroke-width:1.0;"/><line style="stroke:#181818;stroke-width:1.0;" x1="756.5" x2="1735.5" y1="820.3516" y2="820.3516"/><text fill="#000000" font-family="sans-serif" font-size="13" lengthAdjust="spacing" textLength="185" x="768.5" y="815.2856">Validate intermediate results</text><polygon fill="#181818" points="1724.5,845.4844,1734.5,849.4844,1724.5,853.4844,1728.5,849.4844" style="stroke:#181818;stroke-width:1.0;"/><line style="stroke:#181818;stroke-width:1.0;" x1="751.5" x2="1730.5" y1="849.4844" y2="849.4844"/><text fill="#000000" font-family="sans-serif" font-size="13" lengthAdjust="spacing" textLength="170" x="758.5" y="844.4185">Address any defects found</text><line style="stroke:#181818;stroke-width:1.0;" x1="1073.5" x2="1115.5" y1="878.6172" y2="878.6172"/><line style="stroke:#181818;stroke-width:1.0;" x1="1115.5" x2="1115.5" y1="878.6172" y2="891.6172"/><line style="stroke:#181818;stroke-width:1.0;" x1="1074.5" x2="1115.5" y1="891.6172" y2="891.6172"/><polygon fill="#181818" points="1084.5,887.6172,1074.5,891.6172,1084.5,895.6172,1080.5,891.6172" style="stroke:#181818;stroke-width:1.0;"/><text fill="#000000" font-family="sans-serif" font-size="13" lengthAdjust="spacing" textLength="202" x="1080.5" y="873.5513">Re-test with revised data/model</text><line style="stroke:#181818;stroke-width:1.0;" x1="1736.5" x2="1778.5" y1="920.75" y2="920.75"/><line style="stroke:#181818;stroke-width:1.0;" x1="1778.5" x2="1778.5" y1="920.75" y2="933.75"/><line style="stroke:#181818;stroke-width:1.0;" x1="1737.5" x2="1778.5" y1="933.75" y2="933.75"/><polygon fill="#181818" points="1747.5,929.75,1737.5,933.75,1747.5,937.75,1743.5,933.75" style="stroke:#181818;stroke-width:1.0;"/><text fill="#000000" font-family="sans-serif" font-size="13" lengthAdjust="spacing" textLength="210" x="1743.5" y="915.6841">Approve or log additional defects</text><rect fill="#EEEEEE" height="3" style="stroke:#EEEEEE;stroke-width:1.0;" width="2485" x="0" y="962.3164"/><line style="stroke:#000000;stroke-width:1.0;" x1="0" x2="2485" y1="962.3164" y2="962.3164"/><line style="stroke:#000000;stroke-width:1.0;" x1="0" x2="2485" y1="965.3164" y2="965.3164"/><rect fill="#EEEEEE" height="23.1328" style="stroke:#000000;stroke-width:2.0;" width="243" x="1121" y="951.75"/><text fill="#000000" font-family="sans-serif" font-size="13" font-weight="bold" lengthAdjust="spacing" textLength="224" x="1127" y="967.8169">Security &amp; Compliance Checks</text><polygon fill="#181818" points="762.5,1002.0156,752.5,1006.0156,762.5,1010.0156,758.5,1006.0156" style="stroke:#181818;stroke-width:1.0;"/><line style="stroke:#181818;stroke-width:1.0;" x1="756.5" x2="1959.5" y1="1006.0156" y2="1006.0156"/><text fill="#000000" font-family="sans-serif" font-size="13" lengthAdjust="spacing" textLength="299" x="768.5" y="1000.9497">Verify final outputs vs. data usage agreements</text><polygon fill="#181818" points="1948.5,1031.1484,1958.5,1035.1484,1948.5,1039.1484,1952.5,1035.1484" style="stroke:#181818;stroke-width:1.0;"/><line style="stroke:#181818;stroke-width:1.0;" x1="1073.5" x2="1954.5" y1="1035.1484" y2="1035.1484"/><text fill="#000000" font-family="sans-serif" font-size="13" lengthAdjust="spacing" textLength="282" x="1080.5" y="1030.0825">Confirm model interpretability &amp; compliance</text><path d="M989,1050.1484 L1053,1050.1484 L1053,1057.2813 L1043,1067.2813 L989,1067.2813 L989,1050.1484 " fill="#EEEEEE" style="stroke:#000000;stroke-width:1.5;"/><rect fill="none" height="75.3984" style="stroke:#000000;stroke-width:1.5;" width="1080.5" x="989" y="1050.1484"/><text fill="#000000" font-family="sans-serif" font-size="13" font-weight="bold" lengthAdjust="spacing" textLength="19" x="1004" y="1063.2153">alt</text><text fill="#000000" font-family="sans-serif" font-size="11" font-weight="bold" lengthAdjust="spacing" textLength="175" x="1068" y="1062.3589">[If compliance issue found]</text><polygon fill="#181818" points="1084.5,1084.4141,1074.5,1088.4141,1084.5,1092.4141,1080.5,1088.4141" style="stroke:#181818;stroke-width:1.0;"/><line style="stroke:#181818;stroke-width:1.0;" x1="1078.5" x2="1959.5" y1="1088.4141" y2="1088.4141"/><text fill="#000000" font-family="sans-serif" font-size="13" lengthAdjust="spacing" textLength="189" x="1090.5" y="1083.3481">Mitigation or revision required</text><polygon fill="#181818" points="1948.5,1113.5469,1958.5,1117.5469,1948.5,1121.5469,1952.5,1117.5469" style="stroke:#181818;stroke-width:1.0;"/><line style="stroke:#181818;stroke-width:1.0;" x1="1073.5" x2="1954.5" y1="1117.5469" y2="1117.5469"/><text fill="#000000" font-family="sans-serif" font-size="13" lengthAdjust="spacing" textLength="168" x="1080.5" y="1112.481">Provide updated approach</text><rect fill="#EEEEEE" height="3" style="stroke:#EEEEEE;stroke-width:1.0;" width="2485" x="0" y="1153.1133"/><line style="stroke:#000000;stroke-width:1.0;" x1="0" x2="2485" y1="1153.1133" y2="1153.1133"/><line style="stroke:#000000;stroke-width:1.0;" x1="0" x2="2485" y1="1156.1133" y2="1156.1133"/><rect fill="#EEEEEE" height="23.1328" style="stroke:#000000;stroke-width:2.0;" width="165" x="1160" y="1142.5469"/><text fill="#000000" font-family="sans-serif" font-size="13" font-weight="bold" lengthAdjust="spacing" textLength="146" x="1166" y="1158.6138">Approval &amp; Delivery</text><polygon fill="#181818" points="1724.5,1192.8125,1734.5,1196.8125,1724.5,1200.8125,1728.5,1196.8125" style="stroke:#181818;stroke-width:1.0;"/><line style="stroke:#181818;stroke-width:1.0;" x1="751.5" x2="1730.5" y1="1196.8125" y2="1196.8125"/><text fill="#000000" font-family="sans-serif" font-size="13" lengthAdjust="spacing" textLength="265" x="758.5" y="1191.7466">Submit final ad hoc report for acceptance</text><line style="stroke:#181818;stroke-width:1.0;" x1="1736.5" x2="1778.5" y1="1225.9453" y2="1225.9453"/><line style="stroke:#181818;stroke-width:1.0;" x1="1778.5" x2="1778.5" y1="1225.9453" y2="1238.9453"/><line style="stroke:#181818;stroke-width:1.0;" x1="1737.5" x2="1778.5" y1="1238.9453" y2="1238.9453"/><polygon fill="#181818" points="1747.5,1234.9453,1737.5,1238.9453,1747.5,1242.9453,1743.5,1238.9453" style="stroke:#181818;stroke-width:1.0;"/><text fill="#000000" font-family="sans-serif" font-size="13" lengthAdjust="spacing" textLength="151" x="1743.5" y="1220.8794">Final test &amp; acceptance</text><polygon fill="#181818" points="94.5,1264.0781,84.5,1268.0781,94.5,1272.0781,90.5,1268.0781" style="stroke:#181818;stroke-width:1.0;"/><line style="stroke:#181818;stroke-width:1.0;" x1="88.5" x2="1735.5" y1="1268.0781" y2="1268.0781"/><text fill="#000000" font-family="sans-serif" font-size="13" lengthAdjust="spacing" textLength="232" x="100.5" y="1263.0122">Present final deliverable for approval</text><path d="M10,1283.0781 L74,1283.0781 L74,1290.2109 L64,1300.2109 L10,1300.2109 L10,1283.0781 " fill="#EEEEEE" style="stroke:#000000;stroke-width:1.5;"/><rect fill="none" height="148.4688" style="stroke:#000000;stroke-width:1.5;" width="2465" x="10" y="1283.0781"/><text fill="#000000" font-family="sans-serif" font-size="13" font-weight="bold" lengthAdjust="spacing" textLength="19" x="25" y="1296.145">alt</text><text fill="#000000" font-family="sans-serif" font-size="11" font-weight="bold" lengthAdjust="spacing" textLength="69" x="89" y="1295.2886">[Accepted]</text><polygon fill="#181818" points="2122.5,1317.3438,2132.5,1321.3438,2122.5,1325.3438,2126.5,1321.3438" style="stroke:#181818;stroke-width:1.0;"/><line style="stroke:#181818;stroke-width:1.0;" x1="83.5" x2="2128.5" y1="1321.3438" y2="1321.3438"/><text fill="#000000" font-family="sans-serif" font-size="13" lengthAdjust="spacing" textLength="190" x="90.5" y="1316.2778">Request distribution if needed</text><polygon fill="#181818" points="2363.5,1346.4766,2373.5,1350.4766,2363.5,1354.4766,2367.5,1350.4766" style="stroke:#181818;stroke-width:1.0;"/><line style="stroke:#181818;stroke-width:1.0;" x1="2134.5" x2="2369.5" y1="1350.4766" y2="1350.4766"/><text fill="#000000" font-family="sans-serif" font-size="13" lengthAdjust="spacing" textLength="217" x="2141.5" y="1345.4106">Notify for Tier-1 support readiness</text><line style="stroke:#000000;stroke-width:1.0;stroke-dasharray:2.0,2.0;" x1="10" x2="2475" y1="1359.4766" y2="1359.4766"/><text fill="#000000" font-family="sans-serif" font-size="11" font-weight="bold" lengthAdjust="spacing" textLength="66" x="15" y="1369.687">[Rejected]</text><polygon fill="#181818" points="739.5,1390.4141,749.5,1394.4141,739.5,1398.4141,743.5,1394.4141" style="stroke:#181818;stroke-width:1.0;"/><line style="stroke:#181818;stroke-width:1.0;" x1="83.5" x2="745.5" y1="1394.4141" y2="1394.4141"/><text fill="#000000" font-family="sans-serif" font-size="13" lengthAdjust="spacing" textLength="204" x="90.5" y="1389.3481">Request modifications or rework</text><polygon fill="#181818" points="1061.5,1419.5469,1071.5,1423.5469,1061.5,1427.5469,1065.5,1423.5469" style="stroke:#181818;stroke-width:1.0;"/><line style="stroke:#181818;stroke-width:1.0;" x1="751.5" x2="1067.5" y1="1423.5469" y2="1423.5469"/><text fill="#000000" font-family="sans-serif" font-size="13" lengthAdjust="spacing" textLength="93" x="758.5" y="1418.481">Resolve issues</text><rect fill="#EEEEEE" height="3" style="stroke:#EEEEEE;stroke-width:1.0;" width="2485" x="0" y="1459.1133"/><line style="stroke:#000000;stroke-width:1.0;" x1="0" x2="2485" y1="1459.1133" y2="1459.1133"/><line style="stroke:#000000;stroke-width:1.0;" x1="0" x2="2485" y1="1462.1133" y2="1462.1133"/><rect fill="#EEEEEE" height="23.1328" style="stroke:#000000;stroke-width:2.0;" width="220" x="1132.5" y="1448.5469"/><text fill="#000000" font-family="sans-serif" font-size="13" font-weight="bold" lengthAdjust="spacing" textLength="201" x="1138.5" y="1464.6138">Documentation &amp; Archiving</text><polygon fill="#181818" points="1387.5,1498.8125,1397.5,1502.8125,1387.5,1506.8125,1391.5,1502.8125" style="stroke:#181818;stroke-width:1.0;"/><line style="stroke:#181818;stroke-width:1.0;" x1="751.5" x2="1393.5" y1="1502.8125" y2="1502.8125"/><text fill="#000000" font-family="sans-serif" font-size="13" lengthAdjust="spacing" textLength="251" x="758.5" y="1497.7466">Ensure code, transformations are in Git</text><polygon fill="#181818" points="1724.5,1527.9453,1734.5,1531.9453,1724.5,1535.9453,1728.5,1531.9453" style="stroke:#181818;stroke-width:1.0;"/><line style="stroke:#181818;stroke-width:1.0;" x1="751.5" x2="1730.5" y1="1531.9453" y2="1531.9453"/><text fill="#000000" font-family="sans-serif" font-size="13" lengthAdjust="spacing" textLength="212" x="758.5" y="1526.8794">Archive sign-off in AI-SDLC library</text><polygon fill="#181818" points="2363.5,1557.0781,2373.5,1561.0781,2363.5,1565.0781,2367.5,1561.0781" style="stroke:#181818;stroke-width:1.0;"/><line style="stroke:#181818;stroke-width:1.0;" x1="751.5" x2="2369.5" y1="1561.0781" y2="1561.0781"/><text fill="#000000" font-family="sans-serif" font-size="13" lengthAdjust="spacing" textLength="285" x="758.5" y="1556.0122">Provide user instructions or brief training tips</text><rect fill="#EEEEEE" height="3" style="stroke:#EEEEEE;stroke-width:1.0;" width="2485" x="0" y="1589.6445"/><line style="stroke:#000000;stroke-width:1.0;" x1="0" x2="2485" y1="1589.6445" y2="1589.6445"/><line style="stroke:#000000;stroke-width:1.0;" x1="0" x2="2485" y1="1592.6445" y2="1592.6445"/><rect fill="#EEEEEE" height="23.1328" style="stroke:#000000;stroke-width:2.0;" width="230" x="1127.5" y="1579.0781"/><text fill="#000000" font-family="sans-serif" font-size="13" font-weight="bold" lengthAdjust="spacing" textLength="211" x="1133.5" y="1595.145">Post-Implementation Review</text><line style="stroke:#181818;stroke-width:1.0;" x1="751.5" x2="793.5" y1="1633.3438" y2="1633.3438"/><line style="stroke:#181818;stroke-width:1.0;" x1="793.5" x2="793.5" y1="1633.3438" y2="1646.3438"/><line style="stroke:#181818;stroke-width:1.0;" x1="752.5" x2="793.5" y1="1646.3438" y2="1646.3438"/><polygon fill="#181818" points="762.5,1642.3438,752.5,1646.3438,762.5,1650.3438,758.5,1646.3438" style="stroke:#181818;stroke-width:1.0;"/><text fill="#000000" font-family="sans-serif" font-size="13" lengthAdjust="spacing" textLength="307" x="758.5" y="1628.2778">Schedule post-implementation review (if critical)</text><polygon fill="#181818" points="94.5,1671.4766,84.5,1675.4766,94.5,1679.4766,90.5,1675.4766" style="stroke:#181818;stroke-width:1.0;"/><line style="stroke:#181818;stroke-width:1.0;" x1="88.5" x2="750.5" y1="1675.4766" y2="1675.4766"/><text fill="#000000" font-family="sans-serif" font-size="13" lengthAdjust="spacing" textLength="214" x="100.5" y="1670.4106">Gather feedback, lessons learned</text><polygon fill="#181818" points="440.5,1700.6094,430.5,1704.6094,440.5,1708.6094,436.5,1704.6094" style="stroke:#181818;stroke-width:1.0;"/><line style="stroke:#181818;stroke-width:1.0;" x1="434.5" x2="750.5" y1="1704.6094" y2="1704.6094"/><text fill="#000000" font-family="sans-serif" font-size="13" lengthAdjust="spacing" textLength="298" x="446.5" y="1699.5435">Update risk or ethical registers if new concerns</text><!--MD5=[92f8289569201bbbc52e684239d51a6d]
@startuml
skinparam participantPadding 20
skinparam boxPadding 10
skinparam notePadding 5
skinparam noteBackgroundColor #FEFECE

participant "Requestor" as R
participant "AI IRB Liaison" as IRB
participant "AI Data Analyst" as A
participant "Data Scientist" as DS
participant "MLOps Engineer" as M
participant "Quality Assurance" as QA
participant "AI Ethics/Compliance" as E
participant "Operations" as OP
participant "Technical Support" as T

== Request Initiation ==
R -> R: Fill out Ad Hoc AI Reporting Form
R -> IRB: Submit request for potential ethical/regulatory flag
alt If flagged by IRB
    IRB -> R: Request additional info or updates
    R -> IRB: Provide clarifications
end
IRB -> A: Forward validated request details

== Requirements Gathering & Validation ==
A -> R: Schedule meeting to refine request
A -> DS: Check if new/existing AI/ML models are needed
A -> QA: Ensure request is testable
alt Additional IRB approval needed
    IRB -> A: Provide final compliance approval
end

== Feasibility & Prioritization ==
A -> A: Assess data availability & complexity
A -> M: Confirm environment readiness
A -> A: Draft time/resource estimate
A -> R: Recommend priority level (Critical/High/Med/Low)

== Development & Testing ==
A -> DS: Gather data and perform data wrangling
DS -> M: Request environment setup or code integration
M -> M: Update code repo & environment (version control)
QA -> A: Validate intermediate results
A -> QA: Address any defects found
DS -> DS: Re-test with revised data/model
QA -> QA: Approve or log additional defects

== Security & Compliance Checks ==
E -> A: Verify final outputs vs. data usage agreements
DS -> E: Confirm model interpretability & compliance
alt If compliance issue found
    E -> DS: Mitigation or revision required
    DS -> E: Provide updated approach
end

== Approval & Delivery ==
A -> QA: Submit final ad hoc report for acceptance
QA -> QA: Final test & acceptance
QA -> R: Present final deliverable for approval
alt Accepted
    R -> OP: Request distribution if needed
    OP -> T: Notify for Tier-1 support readiness
else Rejected
    R -> A: Request modifications or rework
    A -> DS: Resolve issues
end

== Documentation & Archiving ==
A -> M: Ensure code, transformations are in Git
A -> QA: Archive sign-off in AI-SDLC library
A -> T: Provide user instructions or brief training tips

== Post-Implementation Review ==
A -> A: Schedule post-implementation review (if critical)
A -> R: Gather feedback, lessons learned
A -> IRB: Update risk or ethical registers if new concerns
@enduml

PlantUML version 1.2022.7(Mon Aug 22 17:01:30 UTC 2022)
(GPL source distribution)
Java Runtime: OpenJDK Runtime Environment
JVM: OpenJDK 64-Bit Server VM
Default Encoding: UTF-8
Language: en
Country: null
--></g></svg>