<?xml version="1.0" encoding="UTF-8" standalone="no"?><svg xmlns="http://www.w3.org/2000/svg" xmlns:xlink="http://www.w3.org/1999/xlink" contentStyleType="text/css" height="1289px" preserveAspectRatio="none" style="width:2558px;height:1289px;background:#FFFFFF;" version="1.1" viewBox="0 0 2558 1289" width="2558px" zoomAndPan="magnify"><defs/><g><rect fill="none" height="116.2031" style="stroke:#000000;stroke-width:1.5;" width="298.5" x="304.5" y="111.5625"/><line style="stroke:#181818;stroke-width:0.5;stroke-dasharray:5.0,5.0;" x1="62" x2="62" y1="36.2969" y2="1253.75"/><line style="stroke:#181818;stroke-width:0.5;stroke-dasharray:5.0,5.0;" x1="366.5" x2="366.5" y1="36.2969" y2="1253.75"/><line style="stroke:#181818;stroke-width:0.5;stroke-dasharray:5.0,5.0;" x1="702" x2="702" y1="36.2969" y2="1253.75"/><line style="stroke:#181818;stroke-width:0.5;stroke-dasharray:5.0,5.0;" x1="1072" x2="1072" y1="36.2969" y2="1253.75"/><line style="stroke:#181818;stroke-width:0.5;stroke-dasharray:5.0,5.0;" x1="1335" x2="1335" y1="36.2969" y2="1253.75"/><line style="stroke:#181818;stroke-width:0.5;stroke-dasharray:5.0,5.0;" x1="1754.5" x2="1754.5" y1="36.2969" y2="1253.75"/><line style="stroke:#181818;stroke-width:0.5;stroke-dasharray:5.0,5.0;" x1="2116" x2="2116" y1="36.2969" y2="1253.75"/><line style="stroke:#181818;stroke-width:0.5;stroke-dasharray:5.0,5.0;" x1="2482.5" x2="2482.5" y1="36.2969" y2="1253.75"/><rect fill="#E2E2F0" height="30.2969" rx="2.5" ry="2.5" style="stroke:#181818;stroke-width:0.5;" width="114" x="5" y="5"/><text fill="#000000" font-family="sans-serif" font-size="14" lengthAdjust="spacing" textLength="100" x="12" y="24.9951">System Owner</text><rect fill="#E2E2F0" height="30.2969" rx="2.5" ry="2.5" style="stroke:#181818;stroke-width:0.5;" width="114" x="5" y="1252.75"/><text fill="#000000" font-family="sans-serif" font-size="14" lengthAdjust="spacing" textLength="100" x="12" y="1272.7451">System Owner</text><rect fill="#E2E2F0" height="30.2969" rx="2.5" ry="2.5" style="stroke:#181818;stroke-width:0.5;" width="105" x="314.5" y="5"/><text fill="#000000" font-family="sans-serif" font-size="14" lengthAdjust="spacing" textLength="91" x="321.5" y="24.9951">AI-IRB Liaison</text><rect fill="#E2E2F0" height="30.2969" rx="2.5" ry="2.5" style="stroke:#181818;stroke-width:0.5;" width="105" x="314.5" y="1252.75"/><text fill="#000000" font-family="sans-serif" font-size="14" lengthAdjust="spacing" textLength="91" x="321.5" y="1272.7451">AI-IRB Liaison</text><rect fill="#E2E2F0" height="30.2969" rx="2.5" ry="2.5" style="stroke:#181818;stroke-width:0.5;" width="218" x="593" y="5"/><text fill="#000000" font-family="sans-serif" font-size="14" lengthAdjust="spacing" textLength="204" x="600" y="24.9951">Security Compliance Manager</text><rect fill="#E2E2F0" height="30.2969" rx="2.5" ry="2.5" style="stroke:#181818;stroke-width:0.5;" width="218" x="593" y="1252.75"/><text fill="#000000" font-family="sans-serif" font-size="14" lengthAdjust="spacing" textLength="204" x="600" y="1272.7451">Security Compliance Manager</text><rect fill="#E2E2F0" height="30.2969" rx="2.5" ry="2.5" style="stroke:#181818;stroke-width:0.5;" width="150" x="997" y="5"/><text fill="#000000" font-family="sans-serif" font-size="14" lengthAdjust="spacing" textLength="136" x="1004" y="24.9951">Development Team</text><rect fill="#E2E2F0" height="30.2969" rx="2.5" ry="2.5" style="stroke:#181818;stroke-width:0.5;" width="150" x="997" y="1252.75"/><text fill="#000000" font-family="sans-serif" font-size="14" lengthAdjust="spacing" textLength="136" x="1004" y="1272.7451">Development Team</text><rect fill="#E2E2F0" height="30.2969" rx="2.5" ry="2.5" style="stroke:#181818;stroke-width:0.5;" width="154" x="1258" y="5"/><text fill="#000000" font-family="sans-serif" font-size="14" lengthAdjust="spacing" textLength="140" x="1265" y="24.9951">Operations Manager</text><rect fill="#E2E2F0" height="30.2969" rx="2.5" ry="2.5" style="stroke:#181818;stroke-width:0.5;" width="154" x="1258" y="1252.75"/><text fill="#000000" font-family="sans-serif" font-size="14" lengthAdjust="spacing" textLength="140" x="1265" y="1272.7451">Operations Manager</text><rect fill="#E2E2F0" height="30.2969" rx="2.5" ry="2.5" style="stroke:#181818;stroke-width:0.5;" width="137" x="1686.5" y="5"/><text fill="#000000" font-family="sans-serif" font-size="14" lengthAdjust="spacing" textLength="123" x="1693.5" y="24.9951">Quality Assurance</text><rect fill="#E2E2F0" height="30.2969" rx="2.5" ry="2.5" style="stroke:#181818;stroke-width:0.5;" width="137" x="1686.5" y="1252.75"/><text fill="#000000" font-family="sans-serif" font-size="14" lengthAdjust="spacing" textLength="123" x="1693.5" y="1272.7451">Quality Assurance</text><rect fill="#E2E2F0" height="30.2969" rx="2.5" ry="2.5" style="stroke:#181818;stroke-width:0.5;" width="126" x="2053" y="5"/><text fill="#000000" font-family="sans-serif" font-size="14" lengthAdjust="spacing" textLength="112" x="2060" y="24.9951">Project Manager</text><rect fill="#E2E2F0" height="30.2969" rx="2.5" ry="2.5" style="stroke:#181818;stroke-width:0.5;" width="126" x="2053" y="1252.75"/><text fill="#000000" font-family="sans-serif" font-size="14" lengthAdjust="spacing" textLength="112" x="2060" y="1272.7451">Project Manager</text><rect fill="#E2E2F0" height="30.2969" rx="2.5" ry="2.5" style="stroke:#181818;stroke-width:0.5;" width="139" x="2413.5" y="5"/><text fill="#000000" font-family="sans-serif" font-size="14" lengthAdjust="spacing" textLength="125" x="2420.5" y="24.9951">Technical Support</text><rect fill="#E2E2F0" height="30.2969" rx="2.5" ry="2.5" style="stroke:#181818;stroke-width:0.5;" width="139" x="2413.5" y="1252.75"/><text fill="#000000" font-family="sans-serif" font-size="14" lengthAdjust="spacing" textLength="125" x="2420.5" y="1272.7451">Technical Support</text><polygon fill="#181818" points="2104,63.4297,2114,67.4297,2104,71.4297,2108,67.4297" style="stroke:#181818;stroke-width:1.0;"/><line style="stroke:#181818;stroke-width:1.0;" x1="62" x2="2110" y1="67.4297" y2="67.4297"/><text fill="#000000" font-family="sans-serif" font-size="13" lengthAdjust="spacing" textLength="186" x="69" y="62.3638">Provide system scope details</text><polygon fill="#181818" points="378,92.5625,368,96.5625,378,100.5625,374,96.5625" style="stroke:#181818;stroke-width:1.0;"/><line style="stroke:#181818;stroke-width:1.0;" x1="372" x2="2115" y1="96.5625" y2="96.5625"/><text fill="#000000" font-family="sans-serif" font-size="13" lengthAdjust="spacing" textLength="266" x="384" y="91.4966">Verify AI usage and ethical considerations</text><path d="M304.5,111.5625 L368.5,111.5625 L368.5,118.6953 L358.5,128.6953 L304.5,128.6953 L304.5,111.5625 " fill="#EEEEEE" style="stroke:#000000;stroke-width:1.5;"/><rect fill="none" height="116.2031" style="stroke:#000000;stroke-width:1.5;" width="298.5" x="304.5" y="111.5625"/><text fill="#000000" font-family="sans-serif" font-size="13" font-weight="bold" lengthAdjust="spacing" textLength="19" x="319.5" y="124.6294">alt</text><text fill="#000000" font-family="sans-serif" font-size="11" font-weight="bold" lengthAdjust="spacing" textLength="198" x="383.5" y="123.7729">[AI/ML requires special review]</text><line style="stroke:#181818;stroke-width:1.0;" x1="367" x2="409" y1="149.8281" y2="149.8281"/><line style="stroke:#181818;stroke-width:1.0;" x1="409" x2="409" y1="149.8281" y2="162.8281"/><line style="stroke:#181818;stroke-width:1.0;" x1="368" x2="409" y1="162.8281" y2="162.8281"/><polygon fill="#181818" points="378,158.8281,368,162.8281,378,166.8281,374,162.8281" style="stroke:#181818;stroke-width:1.0;"/><text fill="#000000" font-family="sans-serif" font-size="13" lengthAdjust="spacing" textLength="217" x="374" y="144.7622">Coordinate extended ethics check</text><line style="stroke:#000000;stroke-width:1.0;stroke-dasharray:2.0,2.0;" x1="304.5" x2="603" y1="171.8281" y2="171.8281"/><text fill="#000000" font-family="sans-serif" font-size="11" font-weight="bold" lengthAdjust="spacing" textLength="124" x="309.5" y="182.0386">[No special review]</text><line style="stroke:#181818;stroke-width:1.0;" x1="367" x2="409" y1="206.7656" y2="206.7656"/><line style="stroke:#181818;stroke-width:1.0;" x1="409" x2="409" y1="206.7656" y2="219.7656"/><line style="stroke:#181818;stroke-width:1.0;" x1="368" x2="409" y1="219.7656" y2="219.7656"/><polygon fill="#181818" points="378,215.7656,368,219.7656,378,223.7656,374,219.7656" style="stroke:#181818;stroke-width:1.0;"/><text fill="#000000" font-family="sans-serif" font-size="13" lengthAdjust="spacing" textLength="185" x="374" y="201.6997">Note standard AI compliance</text><line style="stroke:#181818;stroke-width:1.0;" x1="702" x2="744" y1="255.8984" y2="255.8984"/><line style="stroke:#181818;stroke-width:1.0;" x1="744" x2="744" y1="255.8984" y2="268.8984"/><line style="stroke:#181818;stroke-width:1.0;" x1="703" x2="744" y1="268.8984" y2="268.8984"/><polygon fill="#181818" points="713,264.8984,703,268.8984,713,272.8984,709,268.8984" style="stroke:#181818;stroke-width:1.0;"/><text fill="#000000" font-family="sans-serif" font-size="13" lengthAdjust="spacing" textLength="356" x="709" y="250.8325">Conduct risk assessment (data integrity, confidentiality)</text><polygon fill="#181818" points="73,294.0313,63,298.0313,73,302.0313,69,298.0313" style="stroke:#181818;stroke-width:1.0;"/><line style="stroke:#181818;stroke-width:1.0;" x1="67" x2="701" y1="298.0313" y2="298.0313"/><text fill="#000000" font-family="sans-serif" font-size="13" lengthAdjust="spacing" textLength="185" x="79" y="292.9653">Deliver risk report for sign-off</text><line style="stroke:#181818;stroke-width:1.0;" x1="702" x2="744" y1="327.1641" y2="327.1641"/><line style="stroke:#181818;stroke-width:1.0;" x1="744" x2="744" y1="327.1641" y2="340.1641"/><line style="stroke:#181818;stroke-width:1.0;" x1="703" x2="744" y1="340.1641" y2="340.1641"/><polygon fill="#181818" points="713,336.1641,703,340.1641,713,344.1641,709,340.1641" style="stroke:#181818;stroke-width:1.0;"/><text fill="#000000" font-family="sans-serif" font-size="13" lengthAdjust="spacing" textLength="342" x="709" y="322.0981">Select control standards (ISO, NIST, AI-IRB guidelines)</text><polygon fill="#181818" points="713,365.2969,703,369.2969,713,373.2969,709,369.2969" style="stroke:#181818;stroke-width:1.0;"/><line style="stroke:#181818;stroke-width:1.0;" x1="707" x2="1334" y1="369.2969" y2="369.2969"/><text fill="#000000" font-family="sans-serif" font-size="13" lengthAdjust="spacing" textLength="327" x="719" y="364.231">Provide environment constraints for roles/privileges</text><polygon fill="#181818" points="1323,394.4297,1333,398.4297,1323,402.4297,1327,398.4297" style="stroke:#181818;stroke-width:1.0;"/><line style="stroke:#181818;stroke-width:1.0;" x1="702" x2="1329" y1="398.4297" y2="398.4297"/><text fill="#000000" font-family="sans-serif" font-size="13" lengthAdjust="spacing" textLength="212" x="709" y="393.3638">Approve user roles and privileges</text><polygon fill="#181818" points="73,423.5625,63,427.5625,73,431.5625,69,427.5625" style="stroke:#181818;stroke-width:1.0;"/><line style="stroke:#181818;stroke-width:1.0;" x1="67" x2="366" y1="427.5625" y2="427.5625"/><text fill="#000000" font-family="sans-serif" font-size="13" lengthAdjust="spacing" textLength="281" x="79" y="422.4966">Review system controls for ethics/regulatory</text><polygon fill="#181818" points="355,452.6953,365,456.6953,355,460.6953,359,456.6953" style="stroke:#181818;stroke-width:1.0;"/><line style="stroke:#181818;stroke-width:1.0;" x1="62" x2="361" y1="456.6953" y2="456.6953"/><text fill="#000000" font-family="sans-serif" font-size="13" lengthAdjust="spacing" textLength="194" x="69" y="451.6294">Final sign-off on control design</text><line style="stroke:#181818;stroke-width:1.0;" x1="1072" x2="1114" y1="485.8281" y2="485.8281"/><line style="stroke:#181818;stroke-width:1.0;" x1="1114" x2="1114" y1="485.8281" y2="498.8281"/><line style="stroke:#181818;stroke-width:1.0;" x1="1073" x2="1114" y1="498.8281" y2="498.8281"/><polygon fill="#181818" points="1083,494.8281,1073,498.8281,1083,502.8281,1079,498.8281" style="stroke:#181818;stroke-width:1.0;"/><text fill="#000000" font-family="sans-serif" font-size="13" lengthAdjust="spacing" textLength="249" x="1079" y="480.7622">Configure software modules per design</text><line style="stroke:#181818;stroke-width:1.0;" x1="1335" x2="1377" y1="527.9609" y2="527.9609"/><line style="stroke:#181818;stroke-width:1.0;" x1="1377" x2="1377" y1="527.9609" y2="540.9609"/><line style="stroke:#181818;stroke-width:1.0;" x1="1336" x2="1377" y1="540.9609" y2="540.9609"/><polygon fill="#181818" points="1346,536.9609,1336,540.9609,1346,544.9609,1342,540.9609" style="stroke:#181818;stroke-width:1.0;"/><text fill="#000000" font-family="sans-serif" font-size="13" lengthAdjust="spacing" textLength="406" x="1342" y="522.895">Set up hardware security features (firewalls, network segments)</text><polygon fill="#181818" points="1743,566.0938,1753,570.0938,1743,574.0938,1747,570.0938" style="stroke:#181818;stroke-width:1.0;"/><line style="stroke:#181818;stroke-width:1.0;" x1="1072" x2="1749" y1="570.0938" y2="570.0938"/><text fill="#000000" font-family="sans-serif" font-size="13" lengthAdjust="spacing" textLength="350" x="1079" y="565.0278">Commit code to version control, QA checks traceability</text><line style="stroke:#181818;stroke-width:1.0;" x1="702" x2="744" y1="599.2266" y2="599.2266"/><line style="stroke:#181818;stroke-width:1.0;" x1="744" x2="744" y1="599.2266" y2="612.2266"/><line style="stroke:#181818;stroke-width:1.0;" x1="703" x2="744" y1="612.2266" y2="612.2266"/><polygon fill="#181818" points="713,608.2266,703,612.2266,713,616.2266,709,612.2266" style="stroke:#181818;stroke-width:1.0;"/><text fill="#000000" font-family="sans-serif" font-size="13" lengthAdjust="spacing" textLength="349" x="709" y="594.1606">Create user accounts, set policy (MFA, password rules)</text><polygon fill="#181818" points="1323,637.3594,1333,641.3594,1323,645.3594,1327,641.3594" style="stroke:#181818;stroke-width:1.0;"/><line style="stroke:#181818;stroke-width:1.0;" x1="702" x2="1329" y1="641.3594" y2="641.3594"/><text fill="#000000" font-family="sans-serif" font-size="13" lengthAdjust="spacing" textLength="206" x="709" y="636.2935">Confirm logging &amp; audit settings</text><line style="stroke:#181818;stroke-width:1.0;" x1="1755" x2="1797" y1="670.4922" y2="670.4922"/><line style="stroke:#181818;stroke-width:1.0;" x1="1797" x2="1797" y1="670.4922" y2="683.4922"/><line style="stroke:#181818;stroke-width:1.0;" x1="1756" x2="1797" y1="683.4922" y2="683.4922"/><polygon fill="#181818" points="1766,679.4922,1756,683.4922,1766,687.4922,1762,683.4922" style="stroke:#181818;stroke-width:1.0;"/><text fill="#000000" font-family="sans-serif" font-size="13" lengthAdjust="spacing" textLength="247" x="1762" y="665.4263">Execute test cases on system controls</text><polygon fill="#181818" points="713,708.625,703,712.625,713,716.625,709,712.625" style="stroke:#181818;stroke-width:1.0;"/><line style="stroke:#181818;stroke-width:1.0;" x1="707" x2="1754" y1="712.625" y2="712.625"/><text fill="#000000" font-family="sans-serif" font-size="13" lengthAdjust="spacing" textLength="209" x="719" y="707.5591">Log findings or security concerns</text><line style="stroke:#181818;stroke-width:1.0;" x1="702" x2="744" y1="741.7578" y2="741.7578"/><line style="stroke:#181818;stroke-width:1.0;" x1="744" x2="744" y1="741.7578" y2="754.7578"/><line style="stroke:#181818;stroke-width:1.0;" x1="703" x2="744" y1="754.7578" y2="754.7578"/><polygon fill="#181818" points="713,750.7578,703,754.7578,713,758.7578,709,754.7578" style="stroke:#181818;stroke-width:1.0;"/><text fill="#000000" font-family="sans-serif" font-size="13" lengthAdjust="spacing" textLength="236" x="709" y="736.6919">Perform pen tests/vulnerability scans</text><line style="stroke:#181818;stroke-width:1.0;" x1="367" x2="409" y1="783.8906" y2="783.8906"/><line style="stroke:#181818;stroke-width:1.0;" x1="409" x2="409" y1="783.8906" y2="796.8906"/><line style="stroke:#181818;stroke-width:1.0;" x1="368" x2="409" y1="796.8906" y2="796.8906"/><polygon fill="#181818" points="378,792.8906,368,796.8906,378,800.8906,374,796.8906" style="stroke:#181818;stroke-width:1.0;"/><text fill="#000000" font-family="sans-serif" font-size="13" lengthAdjust="spacing" textLength="289" x="374" y="778.8247">Confirm ethical compliance in system logging</text><polygon fill="#181818" points="1083,822.0234,1073,826.0234,1083,830.0234,1079,826.0234" style="stroke:#181818;stroke-width:1.0;"/><line style="stroke:#181818;stroke-width:1.0;" x1="1077" x2="1754" y1="826.0234" y2="826.0234"/><text fill="#000000" font-family="sans-serif" font-size="13" lengthAdjust="spacing" textLength="160" x="1089" y="820.9575">Defect log if issues found</text><polygon fill="#181818" points="1743,851.1563,1753,855.1563,1743,859.1563,1747,855.1563" style="stroke:#181818;stroke-width:1.0;"/><line style="stroke:#181818;stroke-width:1.0;" x1="1072" x2="1749" y1="855.1563" y2="855.1563"/><text fill="#000000" font-family="sans-serif" font-size="13" lengthAdjust="spacing" textLength="211" x="1079" y="850.0903">Resolve defects, retest until pass</text><polygon fill="#181818" points="73,880.2891,63,884.2891,73,888.2891,69,884.2891" style="stroke:#181818;stroke-width:1.0;"/><line style="stroke:#181818;stroke-width:1.0;" x1="67" x2="2115" y1="884.2891" y2="884.2891"/><text fill="#000000" font-family="sans-serif" font-size="13" lengthAdjust="spacing" textLength="243" x="79" y="879.2231">Request final go/no-go on deployment</text><polygon fill="#181818" points="2104,909.4219,2114,913.4219,2104,917.4219,2108,913.4219" style="stroke:#181818;stroke-width:1.0;"/><line style="stroke:#181818;stroke-width:1.0;" x1="62" x2="2110" y1="913.4219" y2="913.4219"/><text fill="#000000" font-family="sans-serif" font-size="13" lengthAdjust="spacing" textLength="190" x="69" y="908.356">Approve deployment strategy</text><polygon fill="#181818" points="1346,938.5547,1336,942.5547,1346,946.5547,1342,942.5547" style="stroke:#181818;stroke-width:1.0;"/><line style="stroke:#181818;stroke-width:1.0;" x1="1340" x2="2115" y1="942.5547" y2="942.5547"/><text fill="#000000" font-family="sans-serif" font-size="13" lengthAdjust="spacing" textLength="273" x="1352" y="937.4888">Schedule and execute system deployment</text><polygon fill="#181818" points="1743,967.6875,1753,971.6875,1743,975.6875,1747,971.6875" style="stroke:#181818;stroke-width:1.0;"/><line style="stroke:#181818;stroke-width:1.0;" x1="1335" x2="1749" y1="971.6875" y2="971.6875"/><text fill="#000000" font-family="sans-serif" font-size="13" lengthAdjust="spacing" textLength="294" x="1342" y="966.6216">Verify final deployment environment is correct</text><polygon fill="#181818" points="2104,1007.3867,2114,1011.3867,2104,1015.3867,2108,1011.3867" style="stroke:#181818;stroke-width:1.0;"/><line style="stroke:#181818;stroke-width:1.0;" x1="1755" x2="2110" y1="1011.3867" y2="1011.3867"/><text fill="#000000" font-family="sans-serif" font-size="13" lengthAdjust="spacing" textLength="337" x="1762" y="1006.3208">Final sign-off after verifying no unauthorized changes</text><path d="M2121,984.6875 L2121,1024.6875 L2315,1024.6875 L2315,994.6875 L2305,984.6875 L2121,984.6875 " fill="#FEFFDD" style="stroke:#181818;stroke-width:0.5;"/><path d="M2305,984.6875 L2305,994.6875 L2315,994.6875 L2305,984.6875 " fill="#FEFFDD" style="stroke:#181818;stroke-width:0.5;"/><text fill="#000000" font-family="sans-serif" font-size="13" lengthAdjust="spacing" textLength="125" x="2127" y="1001.7544">If any new changes:</text><text fill="#000000" font-family="sans-serif" font-size="13" lengthAdjust="spacing" textLength="173" x="2127" y="1016.8872">Use formal Change Control</text><polygon fill="#181818" points="2471,1047.0859,2481,1051.0859,2471,1055.0859,2475,1051.0859" style="stroke:#181818;stroke-width:1.0;"/><line style="stroke:#181818;stroke-width:1.0;" x1="2116" x2="2477" y1="1051.0859" y2="1051.0859"/><text fill="#000000" font-family="sans-serif" font-size="13" lengthAdjust="spacing" textLength="343" x="2123" y="1046.02">Provide system transition info for training and support</text><polygon fill="#181818" points="2104,1076.2188,2114,1080.2188,2104,1084.2188,2108,1080.2188" style="stroke:#181818;stroke-width:1.0;"/><line style="stroke:#181818;stroke-width:1.0;" x1="1755" x2="2110" y1="1080.2188" y2="1080.2188"/><text fill="#000000" font-family="sans-serif" font-size="13" lengthAdjust="spacing" textLength="282" x="1762" y="1075.1528">Compile final system control documentation</text><polygon fill="#181818" points="378,1105.3516,368,1109.3516,378,1113.3516,374,1109.3516" style="stroke:#181818;stroke-width:1.0;"/><line style="stroke:#181818;stroke-width:1.0;" x1="372" x2="2115" y1="1109.3516" y2="1109.3516"/><text fill="#000000" font-family="sans-serif" font-size="13" lengthAdjust="spacing" textLength="271" x="384" y="1104.2856">Submit compliance docs for AI-IRB records</text><line style="stroke:#181818;stroke-width:1.0;" x1="1335" x2="1377" y1="1138.4844" y2="1138.4844"/><line style="stroke:#181818;stroke-width:1.0;" x1="1377" x2="1377" y1="1138.4844" y2="1151.4844"/><line style="stroke:#181818;stroke-width:1.0;" x1="1336" x2="1377" y1="1151.4844" y2="1151.4844"/><polygon fill="#181818" points="1346,1147.4844,1336,1151.4844,1346,1155.4844,1342,1151.4844" style="stroke:#181818;stroke-width:1.0;"/><text fill="#000000" font-family="sans-serif" font-size="13" lengthAdjust="spacing" textLength="201" x="1342" y="1133.4185">Monitor system health and logs</text><line style="stroke:#181818;stroke-width:1.0;" x1="1755" x2="1797" y1="1180.6172" y2="1180.6172"/><line style="stroke:#181818;stroke-width:1.0;" x1="1797" x2="1797" y1="1180.6172" y2="1193.6172"/><line style="stroke:#181818;stroke-width:1.0;" x1="1756" x2="1797" y1="1193.6172" y2="1193.6172"/><polygon fill="#181818" points="1766,1189.6172,1756,1193.6172,1766,1197.6172,1762,1193.6172" style="stroke:#181818;stroke-width:1.0;"/><text fill="#000000" font-family="sans-serif" font-size="13" lengthAdjust="spacing" textLength="235" x="1762" y="1175.5513">Conduct post-implementation review</text><line style="stroke:#181818;stroke-width:1.0;" x1="367" x2="409" y1="1222.75" y2="1222.75"/><line style="stroke:#181818;stroke-width:1.0;" x1="409" x2="409" y1="1222.75" y2="1235.75"/><line style="stroke:#181818;stroke-width:1.0;" x1="368" x2="409" y1="1235.75" y2="1235.75"/><polygon fill="#181818" points="378,1231.75,368,1235.75,378,1239.75,374,1235.75" style="stroke:#181818;stroke-width:1.0;"/><text fill="#000000" font-family="sans-serif" font-size="13" lengthAdjust="spacing" textLength="321" x="374" y="1217.6841">Document any ethical/compliance lessons learned</text><!--MD5=[5a88c4b1a70dc1458c9a567e73177691]
@startuml
' Define Participants
participant "System Owner" as SOWN
participant "AI-IRB Liaison" as IRB
participant "Security Compliance Manager" as SCM
participant "Development Team" as DEV
participant "Operations Manager" as OM
participant "Quality Assurance" as QA
participant "Project Manager" as PM
participant "Technical Support" as TS

' 1) Planning and Assessment
SOWN -> PM: Provide system scope details
PM -> IRB: Verify AI usage and ethical considerations
alt AI/ML requires special review
  IRB -> IRB: Coordinate extended ethics check
else No special review
  IRB -> IRB: Note standard AI compliance
end
SCM -> SCM: Conduct risk assessment (data integrity, confidentiality)
SCM -> SOWN: Deliver risk report for sign-off

' 2) Control Framework and Design
SCM -> SCM: Select control standards (ISO, NIST, AI-IRB guidelines)
OM -> SCM: Provide environment constraints for roles/privileges
SCM -> OM: Approve user roles and privileges
IRB -> SOWN: Review system controls for ethics/regulatory
SOWN -> IRB: Final sign-off on control design

' 3) Implementation of Controls
DEV -> DEV: Configure software modules per design
OM -> OM: Set up hardware security features (firewalls, network segments)
DEV -> QA: Commit code to version control, QA checks traceability
SCM -> SCM: Create user accounts, set policy (MFA, password rules)
SCM -> OM: Confirm logging & audit settings

' 4) Validation, Testing, and Monitoring
QA -> QA: Execute test cases on system controls
QA -> SCM: Log findings or security concerns
SCM -> SCM: Perform pen tests/vulnerability scans
IRB -> IRB: Confirm ethical compliance in system logging
QA -> DEV: Defect log if issues found
DEV -> QA: Resolve defects, retest until pass

' 5) Deployment and Change Control
PM -> SOWN: Request final go/no-go on deployment
SOWN -> PM: Approve deployment strategy
PM -> OM: Schedule and execute system deployment
OM -> QA: Verify final deployment environment is correct
QA -> PM: Final sign-off after verifying no unauthorized changes
note right
  If any new changes:
  Use formal Change Control
end note
PM -> TS: Provide system transition info for training and support

' 6) Documentation and Post-Implementation
QA -> PM: Compile final system control documentation
PM -> IRB: Submit compliance docs for AI-IRB records
OM -> OM: Monitor system health and logs
QA -> QA: Conduct post-implementation review
IRB -> IRB: Document any ethical/compliance lessons learned
@enduml

@startuml
participant "System Owner" as SOWN
participant "AI-IRB Liaison" as IRB
participant "Security Compliance Manager" as SCM
participant "Development Team" as DEV
participant "Operations Manager" as OM
participant "Quality Assurance" as QA
participant "Project Manager" as PM
participant "Technical Support" as TS

SOWN -> PM: Provide system scope details
PM -> IRB: Verify AI usage and ethical considerations
alt AI/ML requires special review
  IRB -> IRB: Coordinate extended ethics check
else No special review
  IRB -> IRB: Note standard AI compliance
end
SCM -> SCM: Conduct risk assessment (data integrity, confidentiality)
SCM -> SOWN: Deliver risk report for sign-off

SCM -> SCM: Select control standards (ISO, NIST, AI-IRB guidelines)
OM -> SCM: Provide environment constraints for roles/privileges
SCM -> OM: Approve user roles and privileges
IRB -> SOWN: Review system controls for ethics/regulatory
SOWN -> IRB: Final sign-off on control design

DEV -> DEV: Configure software modules per design
OM -> OM: Set up hardware security features (firewalls, network segments)
DEV -> QA: Commit code to version control, QA checks traceability
SCM -> SCM: Create user accounts, set policy (MFA, password rules)
SCM -> OM: Confirm logging & audit settings

QA -> QA: Execute test cases on system controls
QA -> SCM: Log findings or security concerns
SCM -> SCM: Perform pen tests/vulnerability scans
IRB -> IRB: Confirm ethical compliance in system logging
QA -> DEV: Defect log if issues found
DEV -> QA: Resolve defects, retest until pass

PM -> SOWN: Request final go/no-go on deployment
SOWN -> PM: Approve deployment strategy
PM -> OM: Schedule and execute system deployment
OM -> QA: Verify final deployment environment is correct
QA -> PM: Final sign-off after verifying no unauthorized changes
note right
  If any new changes:
  Use formal Change Control
end note
PM -> TS: Provide system transition info for training and support

QA -> PM: Compile final system control documentation
PM -> IRB: Submit compliance docs for AI-IRB records
OM -> OM: Monitor system health and logs
QA -> QA: Conduct post-implementation review
IRB -> IRB: Document any ethical/compliance lessons learned
@enduml

PlantUML version 1.2022.7(Mon Aug 22 17:01:30 UTC 2022)
(GPL source distribution)
Java Runtime: OpenJDK Runtime Environment
JVM: OpenJDK 64-Bit Server VM
Default Encoding: UTF-8
Language: en
Country: null
--></g></svg>