<?xml version="1.0" encoding="UTF-8" standalone="no"?><svg xmlns="http://www.w3.org/2000/svg" xmlns:xlink="http://www.w3.org/1999/xlink" contentStyleType="text/css" height="1009px" preserveAspectRatio="none" style="width:1856px;height:1009px;background:#FFFFFF;" version="1.1" viewBox="0 0 1856 1009" width="1856px" zoomAndPan="magnify"><defs/><g><rect fill="none" height="67.3984" style="stroke:#000000;stroke-width:1.5;" width="589.5" x="546" y="189.9609"/><rect fill="none" height="90.2031" style="stroke:#000000;stroke-width:1.5;" width="979.5" x="323.5" y="559.6875"/><rect fill="none" height="90.2031" style="stroke:#000000;stroke-width:1.5;" width="880.5" x="174.5" y="751.2891"/><line style="stroke:#181818;stroke-width:0.5;stroke-dasharray:5.0,5.0;" x1="72" x2="72" y1="36.2969" y2="974.0234"/><line style="stroke:#181818;stroke-width:0.5;stroke-dasharray:5.0,5.0;" x1="253.5" x2="253.5" y1="36.2969" y2="974.0234"/><line style="stroke:#181818;stroke-width:0.5;stroke-dasharray:5.0,5.0;" x1="378.5" x2="378.5" y1="36.2969" y2="974.0234"/><line style="stroke:#181818;stroke-width:0.5;stroke-dasharray:5.0,5.0;" x1="622" x2="622" y1="36.2969" y2="974.0234"/><line style="stroke:#181818;stroke-width:0.5;stroke-dasharray:5.0,5.0;" x1="875" x2="875" y1="36.2969" y2="974.0234"/><line style="stroke:#181818;stroke-width:0.5;stroke-dasharray:5.0,5.0;" x1="991" x2="991" y1="36.2969" y2="974.0234"/><line style="stroke:#181818;stroke-width:0.5;stroke-dasharray:5.0,5.0;" x1="1224" x2="1224" y1="36.2969" y2="974.0234"/><line style="stroke:#181818;stroke-width:0.5;stroke-dasharray:5.0,5.0;" x1="1566" x2="1566" y1="36.2969" y2="974.0234"/><rect fill="#E2E2F0" height="30.2969" rx="2.5" ry="2.5" style="stroke:#181818;stroke-width:0.5;" width="134" x="5" y="5"/><text fill="#000000" font-family="sans-serif" font-size="14" lengthAdjust="spacing" textLength="120" x="12" y="24.9951">Incident Reporter</text><rect fill="#E2E2F0" height="30.2969" rx="2.5" ry="2.5" style="stroke:#181818;stroke-width:0.5;" width="134" x="5" y="973.0234"/><text fill="#000000" font-family="sans-serif" font-size="14" lengthAdjust="spacing" textLength="120" x="12" y="993.0186">Incident Reporter</text><rect fill="#E2E2F0" height="30.2969" rx="2.5" ry="2.5" style="stroke:#181818;stroke-width:0.5;" width="139" x="184.5" y="5"/><text fill="#000000" font-family="sans-serif" font-size="14" lengthAdjust="spacing" textLength="125" x="191.5" y="24.9951">Technical Support</text><rect fill="#E2E2F0" height="30.2969" rx="2.5" ry="2.5" style="stroke:#181818;stroke-width:0.5;" width="139" x="184.5" y="973.0234"/><text fill="#000000" font-family="sans-serif" font-size="14" lengthAdjust="spacing" textLength="125" x="191.5" y="993.0186">Technical Support</text><rect fill="#E2E2F0" height="30.2969" rx="2.5" ry="2.5" style="stroke:#181818;stroke-width:0.5;" width="90" x="333.5" y="5"/><text fill="#000000" font-family="sans-serif" font-size="14" lengthAdjust="spacing" textLength="76" x="340.5" y="24.9951">Operations</text><rect fill="#E2E2F0" height="30.2969" rx="2.5" ry="2.5" style="stroke:#181818;stroke-width:0.5;" width="90" x="333.5" y="973.0234"/><text fill="#000000" font-family="sans-serif" font-size="14" lengthAdjust="spacing" textLength="76" x="340.5" y="993.0186">Operations</text><rect fill="#E2E2F0" height="30.2969" rx="2.5" ry="2.5" style="stroke:#181818;stroke-width:0.5;" width="133" x="556" y="5"/><text fill="#000000" font-family="sans-serif" font-size="14" lengthAdjust="spacing" textLength="119" x="563" y="24.9951">Incident Manager</text><rect fill="#E2E2F0" height="30.2969" rx="2.5" ry="2.5" style="stroke:#181818;stroke-width:0.5;" width="133" x="556" y="973.0234"/><text fill="#000000" font-family="sans-serif" font-size="14" lengthAdjust="spacing" textLength="119" x="563" y="993.0186">Incident Manager</text><rect fill="#E2E2F0" height="30.2969" rx="2.5" ry="2.5" style="stroke:#181818;stroke-width:0.5;" width="105" x="823" y="5"/><text fill="#000000" font-family="sans-serif" font-size="14" lengthAdjust="spacing" textLength="91" x="830" y="24.9951">AI-IRB Liaison</text><rect fill="#E2E2F0" height="30.2969" rx="2.5" ry="2.5" style="stroke:#181818;stroke-width:0.5;" width="105" x="823" y="973.0234"/><text fill="#000000" font-family="sans-serif" font-size="14" lengthAdjust="spacing" textLength="91" x="830" y="993.0186">AI-IRB Liaison</text><rect fill="#E2E2F0" height="30.2969" rx="2.5" ry="2.5" style="stroke:#181818;stroke-width:0.5;" width="107" x="938" y="5"/><text fill="#000000" font-family="sans-serif" font-size="14" lengthAdjust="spacing" textLength="93" x="945" y="24.9951">Development</text><rect fill="#E2E2F0" height="30.2969" rx="2.5" ry="2.5" style="stroke:#181818;stroke-width:0.5;" width="107" x="938" y="973.0234"/><text fill="#000000" font-family="sans-serif" font-size="14" lengthAdjust="spacing" textLength="93" x="945" y="993.0186">Development</text><rect fill="#E2E2F0" height="30.2969" rx="2.5" ry="2.5" style="stroke:#181818;stroke-width:0.5;" width="137" x="1156" y="5"/><text fill="#000000" font-family="sans-serif" font-size="14" lengthAdjust="spacing" textLength="123" x="1163" y="24.9951">Quality Assurance</text><rect fill="#E2E2F0" height="30.2969" rx="2.5" ry="2.5" style="stroke:#181818;stroke-width:0.5;" width="137" x="1156" y="973.0234"/><text fill="#000000" font-family="sans-serif" font-size="14" lengthAdjust="spacing" textLength="123" x="1163" y="993.0186">Quality Assurance</text><rect fill="#E2E2F0" height="30.2969" rx="2.5" ry="2.5" style="stroke:#181818;stroke-width:0.5;" width="155" x="1489" y="5"/><text fill="#000000" font-family="sans-serif" font-size="14" lengthAdjust="spacing" textLength="141" x="1496" y="24.9951">Security/Compliance</text><rect fill="#E2E2F0" height="30.2969" rx="2.5" ry="2.5" style="stroke:#181818;stroke-width:0.5;" width="155" x="1489" y="973.0234"/><text fill="#000000" font-family="sans-serif" font-size="14" lengthAdjust="spacing" textLength="141" x="1496" y="993.0186">Security/Compliance</text><polygon fill="#181818" points="242,73.9961,252,77.9961,242,81.9961,246,77.9961" style="stroke:#181818;stroke-width:1.0;"/><line style="stroke:#181818;stroke-width:1.0;" x1="72" x2="248" y1="77.9961" y2="77.9961"/><text fill="#000000" font-family="sans-serif" font-size="13" lengthAdjust="spacing" textLength="158" x="79" y="72.9302">Report AI Incident details</text><path d="M259,51.2969 L259,91.2969 L559,91.2969 L559,61.2969 L549,51.2969 L259,51.2969 " fill="#FEFFDD" style="stroke:#181818;stroke-width:0.5;"/><path d="M549,51.2969 L549,61.2969 L559,61.2969 L549,51.2969 " fill="#FEFFDD" style="stroke:#181818;stroke-width:0.5;"/><text fill="#000000" font-family="sans-serif" font-size="13" lengthAdjust="spacing" textLength="279" x="265" y="68.3638">Could be user complaint, unusual AI output,</text><text fill="#000000" font-family="sans-serif" font-size="13" lengthAdjust="spacing" textLength="78" x="265" y="83.4966">or error logs</text><polygon fill="#181818" points="610.5,128.8281,620.5,132.8281,610.5,136.8281,614.5,132.8281" style="stroke:#181818;stroke-width:1.0;"/><line style="stroke:#181818;stroke-width:1.0;" x1="254" x2="616.5" y1="132.8281" y2="132.8281"/><text fill="#000000" font-family="sans-serif" font-size="13" lengthAdjust="spacing" textLength="131" x="261" y="112.6294">Forward incident info</text><text fill="#000000" font-family="sans-serif" font-size="13" lengthAdjust="spacing" textLength="152" x="261" y="127.7622">(incident ticket created)</text><line style="stroke:#181818;stroke-width:1.0;" x1="622.5" x2="664.5" y1="161.9609" y2="161.9609"/><line style="stroke:#181818;stroke-width:1.0;" x1="664.5" x2="664.5" y1="161.9609" y2="174.9609"/><line style="stroke:#181818;stroke-width:1.0;" x1="623.5" x2="664.5" y1="174.9609" y2="174.9609"/><polygon fill="#181818" points="633.5,170.9609,623.5,174.9609,633.5,178.9609,629.5,174.9609" style="stroke:#181818;stroke-width:1.0;"/><text fill="#000000" font-family="sans-serif" font-size="13" lengthAdjust="spacing" textLength="239" x="629.5" y="156.895">Review incident severity and category</text><path d="M546,189.9609 L610,189.9609 L610,197.0938 L600,207.0938 L546,207.0938 L546,189.9609 " fill="#EEEEEE" style="stroke:#000000;stroke-width:1.5;"/><rect fill="none" height="67.3984" style="stroke:#000000;stroke-width:1.5;" width="589.5" x="546" y="189.9609"/><text fill="#000000" font-family="sans-serif" font-size="13" font-weight="bold" lengthAdjust="spacing" textLength="19" x="561" y="203.0278">alt</text><text fill="#000000" font-family="sans-serif" font-size="11" font-weight="bold" lengthAdjust="spacing" textLength="215" x="625" y="202.1714">[Potential compliance/ethics risk]</text><polygon fill="#181818" points="863.5,234.793,873.5,238.793,863.5,242.793,867.5,238.793" style="stroke:#181818;stroke-width:1.0;"/><line style="stroke:#181818;stroke-width:1.0;" x1="622.5" x2="869.5" y1="238.793" y2="238.793"/><text fill="#000000" font-family="sans-serif" font-size="13" lengthAdjust="spacing" textLength="126" x="629.5" y="233.7271">Notify AI-IRB Liaison</text><path d="M880,212.0938 L880,252.0938 L1120,252.0938 L1120,222.0938 L1110,212.0938 L880,212.0938 " fill="#FEFFDD" style="stroke:#181818;stroke-width:0.5;"/><path d="M1110,212.0938 L1110,222.0938 L1120,222.0938 L1110,212.0938 " fill="#FEFFDD" style="stroke:#181818;stroke-width:0.5;"/><text fill="#000000" font-family="sans-serif" font-size="13" lengthAdjust="spacing" textLength="192" x="886" y="229.1606">If needed, AI-IRB calls a review</text><text fill="#000000" font-family="sans-serif" font-size="13" lengthAdjust="spacing" textLength="219" x="886" y="244.2935">for compliance or ethical concerns</text><polygon fill="#181818" points="1554.5,284.4922,1564.5,288.4922,1554.5,292.4922,1558.5,288.4922" style="stroke:#181818;stroke-width:1.0;"/><line style="stroke:#181818;stroke-width:1.0;" x1="622.5" x2="1560.5" y1="288.4922" y2="288.4922"/><text fill="#000000" font-family="sans-serif" font-size="13" lengthAdjust="spacing" textLength="206" x="629.5" y="283.4263">Alert if data breach or major risk</text><path d="M1571,269.3594 L1571,294.3594 L1849,294.3594 L1849,279.3594 L1839,269.3594 L1571,269.3594 " fill="#FEFFDD" style="stroke:#181818;stroke-width:0.5;"/><path d="M1839,269.3594 L1839,279.3594 L1849,279.3594 L1839,269.3594 " fill="#FEFFDD" style="stroke:#181818;stroke-width:0.5;"/><text fill="#000000" font-family="sans-serif" font-size="13" lengthAdjust="spacing" textLength="257" x="1577" y="286.4263">SC steps in for data/regulatory concerns</text><polygon fill="#181818" points="979.5,327.1914,989.5,331.1914,979.5,335.1914,983.5,331.1914" style="stroke:#181818;stroke-width:1.0;"/><line style="stroke:#181818;stroke-width:1.0;" x1="622.5" x2="985.5" y1="331.1914" y2="331.1914"/><text fill="#000000" font-family="sans-serif" font-size="13" lengthAdjust="spacing" textLength="180" x="629.5" y="326.1255">Request root-cause analysis</text><path d="M996,304.4922 L996,344.4922 L1263,344.4922 L1263,314.4922 L1253,304.4922 L996,304.4922 " fill="#FEFFDD" style="stroke:#181818;stroke-width:0.5;"/><path d="M1253,304.4922 L1253,314.4922 L1263,314.4922 L1253,304.4922 " fill="#FEFFDD" style="stroke:#181818;stroke-width:0.5;"/><text fill="#000000" font-family="sans-serif" font-size="13" lengthAdjust="spacing" textLength="246" x="1002" y="321.5591">Developer or ML Engineer checks logs,</text><text fill="#000000" font-family="sans-serif" font-size="13" lengthAdjust="spacing" textLength="182" x="1002" y="336.6919">model outputs, environment</text><polygon fill="#181818" points="389.5,382.0234,379.5,386.0234,389.5,390.0234,385.5,386.0234" style="stroke:#181818;stroke-width:1.0;"/><line style="stroke:#181818;stroke-width:1.0;" x1="383.5" x2="990.5" y1="386.0234" y2="386.0234"/><text fill="#000000" font-family="sans-serif" font-size="13" lengthAdjust="spacing" textLength="175" x="395.5" y="365.8247">Check system environment</text><text fill="#000000" font-family="sans-serif" font-size="13" lengthAdjust="spacing" textLength="87" x="395.5" y="380.9575">for anomalies</text><polygon fill="#181818" points="979.5,411.1563,989.5,415.1563,979.5,419.1563,983.5,415.1563" style="stroke:#181818;stroke-width:1.0;"/><line style="stroke:#181818;stroke-width:1.0;" x1="378.5" x2="985.5" y1="415.1563" y2="415.1563"/><text fill="#000000" font-family="sans-serif" font-size="13" lengthAdjust="spacing" textLength="180" x="385.5" y="410.0903">Return environment findings</text><polygon fill="#181818" points="633.5,440.2891,623.5,444.2891,633.5,448.2891,629.5,444.2891" style="stroke:#181818;stroke-width:1.0;"/><line style="stroke:#181818;stroke-width:1.0;" x1="627.5" x2="990.5" y1="444.2891" y2="444.2891"/><text fill="#000000" font-family="sans-serif" font-size="13" lengthAdjust="spacing" textLength="173" x="639.5" y="439.2231">Provide root-cause findings</text><polygon fill="#181818" points="979.5,469.4219,989.5,473.4219,979.5,477.4219,983.5,473.4219" style="stroke:#181818;stroke-width:1.0;"/><line style="stroke:#181818;stroke-width:1.0;" x1="622.5" x2="985.5" y1="473.4219" y2="473.4219"/><text fill="#000000" font-family="sans-serif" font-size="13" lengthAdjust="spacing" textLength="149" x="629.5" y="468.356">Approve fix/workaround</text><polygon fill="#181818" points="1212.5,498.5547,1222.5,502.5547,1212.5,506.5547,1216.5,502.5547" style="stroke:#181818;stroke-width:1.0;"/><line style="stroke:#181818;stroke-width:1.0;" x1="991.5" x2="1218.5" y1="502.5547" y2="502.5547"/><text fill="#000000" font-family="sans-serif" font-size="13" lengthAdjust="spacing" textLength="209" x="998.5" y="497.4888">Provide fix build or model update</text><line style="stroke:#181818;stroke-width:1.0;" x1="1224.5" x2="1266.5" y1="531.6875" y2="531.6875"/><line style="stroke:#181818;stroke-width:1.0;" x1="1266.5" x2="1266.5" y1="531.6875" y2="544.6875"/><line style="stroke:#181818;stroke-width:1.0;" x1="1225.5" x2="1266.5" y1="544.6875" y2="544.6875"/><polygon fill="#181818" points="1235.5,540.6875,1225.5,544.6875,1235.5,548.6875,1231.5,544.6875" style="stroke:#181818;stroke-width:1.0;"/><text fill="#000000" font-family="sans-serif" font-size="13" lengthAdjust="spacing" textLength="328" x="1231.5" y="526.6216">Test the fix in staging or specialized AI environment</text><path d="M323.5,559.6875 L387.5,559.6875 L387.5,566.8203 L377.5,576.8203 L323.5,576.8203 L323.5,559.6875 " fill="#EEEEEE" style="stroke:#000000;stroke-width:1.5;"/><rect fill="none" height="90.2031" style="stroke:#000000;stroke-width:1.5;" width="979.5" x="323.5" y="559.6875"/><text fill="#000000" font-family="sans-serif" font-size="13" font-weight="bold" lengthAdjust="spacing" textLength="19" x="338.5" y="572.7544">alt</text><text fill="#000000" font-family="sans-serif" font-size="11" font-weight="bold" lengthAdjust="spacing" textLength="128" x="402.5" y="571.8979">[Critical fix needed]</text><polygon fill="#181818" points="389.5,593.9531,379.5,597.9531,389.5,601.9531,385.5,597.9531" style="stroke:#181818;stroke-width:1.0;"/><line style="stroke:#181818;stroke-width:1.0;" x1="383.5" x2="1223.5" y1="597.9531" y2="597.9531"/><text fill="#000000" font-family="sans-serif" font-size="13" lengthAdjust="spacing" textLength="253" x="395.5" y="592.8872">Approve emergency push to production</text><line style="stroke:#000000;stroke-width:1.0;stroke-dasharray:2.0,2.0;" x1="323.5" x2="1303" y1="606.9531" y2="606.9531"/><text fill="#000000" font-family="sans-serif" font-size="11" font-weight="bold" lengthAdjust="spacing" textLength="108" x="328.5" y="617.1636">[Normal fix path]</text><polygon fill="#181818" points="389.5,637.8906,379.5,641.8906,389.5,645.8906,385.5,641.8906" style="stroke:#181818;stroke-width:1.0;"/><line style="stroke:#181818;stroke-width:1.0;" x1="383.5" x2="1223.5" y1="641.8906" y2="641.8906"/><text fill="#000000" font-family="sans-serif" font-size="13" lengthAdjust="spacing" textLength="230" x="395.5" y="636.8247">Approve standard deployment cycle</text><polygon fill="#181818" points="610.5,674.0234,620.5,678.0234,610.5,682.0234,614.5,678.0234" style="stroke:#181818;stroke-width:1.0;"/><line style="stroke:#181818;stroke-width:1.0;" x1="378.5" x2="616.5" y1="678.0234" y2="678.0234"/><text fill="#000000" font-family="sans-serif" font-size="13" lengthAdjust="spacing" textLength="220" x="385.5" y="672.9575">Deployment success/failure status</text><polygon fill="#181818" points="1212.5,703.1563,1222.5,707.1563,1212.5,711.1563,1216.5,707.1563" style="stroke:#181818;stroke-width:1.0;"/><line style="stroke:#181818;stroke-width:1.0;" x1="622.5" x2="1218.5" y1="707.1563" y2="707.1563"/><text fill="#000000" font-family="sans-serif" font-size="13" lengthAdjust="spacing" textLength="296" x="629.5" y="702.0903">Request final retest in production environment</text><polygon fill="#181818" points="633.5,732.2891,623.5,736.2891,633.5,740.2891,629.5,736.2891" style="stroke:#181818;stroke-width:1.0;"/><line style="stroke:#181818;stroke-width:1.0;" x1="627.5" x2="1223.5" y1="736.2891" y2="736.2891"/><text fill="#000000" font-family="sans-serif" font-size="13" lengthAdjust="spacing" textLength="162" x="639.5" y="731.2231">Confirm incident resolved</text><path d="M174.5,751.2891 L238.5,751.2891 L238.5,758.4219 L228.5,768.4219 L174.5,768.4219 L174.5,751.2891 " fill="#EEEEEE" style="stroke:#000000;stroke-width:1.5;"/><rect fill="none" height="90.2031" style="stroke:#000000;stroke-width:1.5;" width="880.5" x="174.5" y="751.2891"/><text fill="#000000" font-family="sans-serif" font-size="13" font-weight="bold" lengthAdjust="spacing" textLength="19" x="189.5" y="764.356">alt</text><text fill="#000000" font-family="sans-serif" font-size="11" font-weight="bold" lengthAdjust="spacing" textLength="153" x="253.5" y="763.4995">[Incident fully resolved]</text><polygon fill="#181818" points="265,785.5547,255,789.5547,265,793.5547,261,789.5547" style="stroke:#181818;stroke-width:1.0;"/><line style="stroke:#181818;stroke-width:1.0;" x1="259" x2="621.5" y1="789.5547" y2="789.5547"/><text fill="#000000" font-family="sans-serif" font-size="13" lengthAdjust="spacing" textLength="194" x="271" y="784.4888">Update status, incident closed</text><line style="stroke:#000000;stroke-width:1.0;stroke-dasharray:2.0,2.0;" x1="174.5" x2="1055" y1="798.5547" y2="798.5547"/><text fill="#000000" font-family="sans-serif" font-size="11" font-weight="bold" lengthAdjust="spacing" textLength="150" x="179.5" y="808.7651">[Further issues remain]</text><polygon fill="#181818" points="979.5,829.4922,989.5,833.4922,979.5,837.4922,983.5,833.4922" style="stroke:#181818;stroke-width:1.0;"/><line style="stroke:#181818;stroke-width:1.0;" x1="622.5" x2="985.5" y1="833.4922" y2="833.4922"/><text fill="#000000" font-family="sans-serif" font-size="13" lengthAdjust="spacing" textLength="251" x="629.5" y="828.4263">Re-open incident for more investigation</text><line style="stroke:#181818;stroke-width:1.0;" x1="622.5" x2="664.5" y1="869.625" y2="869.625"/><line style="stroke:#181818;stroke-width:1.0;" x1="664.5" x2="664.5" y1="869.625" y2="882.625"/><line style="stroke:#181818;stroke-width:1.0;" x1="623.5" x2="664.5" y1="882.625" y2="882.625"/><polygon fill="#181818" points="633.5,878.625,623.5,882.625,633.5,886.625,629.5,882.625" style="stroke:#181818;stroke-width:1.0;"/><text fill="#000000" font-family="sans-serif" font-size="13" lengthAdjust="spacing" textLength="171" x="629.5" y="864.5591">Document lessons learned</text><polygon fill="#181818" points="863.5,922.8906,873.5,926.8906,863.5,930.8906,867.5,926.8906" style="stroke:#181818;stroke-width:1.0;"/><line style="stroke:#181818;stroke-width:1.0;" x1="622.5" x2="869.5" y1="926.8906" y2="926.8906"/><text fill="#000000" font-family="sans-serif" font-size="13" lengthAdjust="spacing" textLength="206" x="629.5" y="906.6919">If model changes are significant,</text><text fill="#000000" font-family="sans-serif" font-size="13" lengthAdjust="spacing" textLength="195" x="629.5" y="921.8247">submit final compliance review</text><polygon fill="#181818" points="1554.5,952.0234,1564.5,956.0234,1554.5,960.0234,1558.5,956.0234" style="stroke:#181818;stroke-width:1.0;"/><line style="stroke:#181818;stroke-width:1.0;" x1="622.5" x2="1560.5" y1="956.0234" y2="956.0234"/><text fill="#000000" font-family="sans-serif" font-size="13" lengthAdjust="spacing" textLength="338" x="629.5" y="950.9575">Provide incident summary if compliance was involved</text><!--MD5=[d498c0384f7b8523176f8e5a9ed0cff7]
@startuml
' Define Participants (roles) using short names
participant "Incident Reporter" as IR
participant "Technical Support" as TS
participant "Operations" as OP
participant "Incident Manager" as IM
participant "AI-IRB Liaison" as IRB
participant "Development" as DEV
participant "Quality Assurance" as QA
participant "Security/Compliance" as SC

' 1. Incident detection and logging
IR -> TS: Report AI Incident details
note right: Could be user complaint, unusual AI output,\nor error logs

TS -> IM: Forward incident info\n(incident ticket created)

' 2. Triage and initial assessment
IM -> IM: Review incident severity and category
alt Potential compliance/ethics risk
  IM -> IRB: Notify AI-IRB Liaison
  note right: If needed, AI-IRB calls a review\nfor compliance or ethical concerns
end
IM -> SC: Alert if data breach or major risk
note right: SC steps in for data/regulatory concerns

' 3. Investigation and Analysis
IM -> DEV: Request root-cause analysis
note right: Developer or ML Engineer checks logs,\nmodel outputs, environment
DEV -> OP: Check system environment\nfor anomalies
OP -> DEV: Return environment findings
DEV -> IM: Provide root-cause findings

' 4. Mitigation approach (fix implementation)
IM -> DEV: Approve fix/workaround
DEV -> QA: Provide fix build or model update
QA -> QA: Test the fix in staging or specialized AI environment
alt Critical fix needed
  QA -> OP: Approve emergency push to production
else Normal fix path
  QA -> OP: Approve standard deployment cycle
end

' 5. Validation and closure
OP -> IM: Deployment success/failure status
IM -> QA: Request final retest in production environment
QA -> IM: Confirm incident resolved
alt Incident fully resolved
  IM -> TS: Update status, incident closed
else Further issues remain
  IM -> DEV: Re-open incident for more investigation
end

' 6. Post-incident follow-up
IM -> IM: Document lessons learned
IM -> IRB: If model changes are significant,\nsubmit final compliance review
IM -> SC: Provide incident summary if compliance was involved
@enduml

@startuml
participant "Incident Reporter" as IR
participant "Technical Support" as TS
participant "Operations" as OP
participant "Incident Manager" as IM
participant "AI-IRB Liaison" as IRB
participant "Development" as DEV
participant "Quality Assurance" as QA
participant "Security/Compliance" as SC

IR -> TS: Report AI Incident details
note right: Could be user complaint, unusual AI output,\nor error logs

TS -> IM: Forward incident info\n(incident ticket created)

IM -> IM: Review incident severity and category
alt Potential compliance/ethics risk
  IM -> IRB: Notify AI-IRB Liaison
  note right: If needed, AI-IRB calls a review\nfor compliance or ethical concerns
end
IM -> SC: Alert if data breach or major risk
note right: SC steps in for data/regulatory concerns

IM -> DEV: Request root-cause analysis
note right: Developer or ML Engineer checks logs,\nmodel outputs, environment
DEV -> OP: Check system environment\nfor anomalies
OP -> DEV: Return environment findings
DEV -> IM: Provide root-cause findings

IM -> DEV: Approve fix/workaround
DEV -> QA: Provide fix build or model update
QA -> QA: Test the fix in staging or specialized AI environment
alt Critical fix needed
  QA -> OP: Approve emergency push to production
else Normal fix path
  QA -> OP: Approve standard deployment cycle
end

OP -> IM: Deployment success/failure status
IM -> QA: Request final retest in production environment
QA -> IM: Confirm incident resolved
alt Incident fully resolved
  IM -> TS: Update status, incident closed
else Further issues remain
  IM -> DEV: Re-open incident for more investigation
end

IM -> IM: Document lessons learned
IM -> IRB: If model changes are significant,\nsubmit final compliance review
IM -> SC: Provide incident summary if compliance was involved
@enduml

PlantUML version 1.2022.7(Mon Aug 22 17:01:30 UTC 2022)
(GPL source distribution)
Java Runtime: OpenJDK Runtime Environment
JVM: OpenJDK 64-Bit Server VM
Default Encoding: UTF-8
Language: en
Country: null
--></g></svg>