<?xml version="1.0" encoding="UTF-8" standalone="no"?><svg xmlns="http://www.w3.org/2000/svg" xmlns:xlink="http://www.w3.org/1999/xlink" contentStyleType="text/css" height="1101px" preserveAspectRatio="none" style="width:1975px;height:1101px;background:#FFFFFF;" version="1.1" viewBox="0 0 1975 1101" width="1975px" zoomAndPan="magnify"><defs/><g><rect fill="none" height="26.2969" id="_title" style="stroke:none;stroke-width:1.0;" width="430" x="773.75" y="10"/><text fill="#000000" font-family="sans-serif" font-size="14" font-weight="bold" lengthAdjust="spacing" textLength="420" x="778.75" y="27.9951">SOP-1051-01-AI: Security Administration &amp; Oversight</text><rect fill="none" height="148.4688" style="stroke:#000000;stroke-width:1.5;" width="690.5" x="369.5" y="249.2578"/><rect fill="none" height="190.6016" style="stroke:#000000;stroke-width:1.5;" width="1599" x="369.5" y="670.7891"/><line style="stroke:#181818;stroke-width:0.5;stroke-dasharray:5.0,5.0;" x1="75" x2="75" y1="73.5938" y2="1066.1875"/><line style="stroke:#181818;stroke-width:0.5;stroke-dasharray:5.0,5.0;" x1="431.5" x2="431.5" y1="73.5938" y2="1066.1875"/><line style="stroke:#181818;stroke-width:0.5;stroke-dasharray:5.0,5.0;" x1="709" x2="709" y1="73.5938" y2="1066.1875"/><line style="stroke:#181818;stroke-width:0.5;stroke-dasharray:5.0,5.0;" x1="975" x2="975" y1="73.5938" y2="1066.1875"/><line style="stroke:#181818;stroke-width:0.5;stroke-dasharray:5.0,5.0;" x1="1134" x2="1134" y1="73.5938" y2="1066.1875"/><line style="stroke:#181818;stroke-width:0.5;stroke-dasharray:5.0,5.0;" x1="1263" x2="1263" y1="73.5938" y2="1066.1875"/><line style="stroke:#181818;stroke-width:0.5;stroke-dasharray:5.0,5.0;" x1="1605.5" x2="1605.5" y1="73.5938" y2="1066.1875"/><line style="stroke:#181818;stroke-width:0.5;stroke-dasharray:5.0,5.0;" x1="1888.5" x2="1888.5" y1="73.5938" y2="1066.1875"/><rect fill="#E2E2F0" height="30.2969" rx="2.5" ry="2.5" style="stroke:#181818;stroke-width:0.5;" width="140" x="5" y="42.2969"/><text fill="#000000" font-family="sans-serif" font-size="14" lengthAdjust="spacing" textLength="126" x="12" y="62.292">AI Project Sponsor</text><rect fill="#E2E2F0" height="30.2969" rx="2.5" ry="2.5" style="stroke:#181818;stroke-width:0.5;" width="140" x="5" y="1065.1875"/><text fill="#000000" font-family="sans-serif" font-size="14" lengthAdjust="spacing" textLength="126" x="12" y="1085.1826">AI Project Sponsor</text><rect fill="#E2E2F0" height="30.2969" rx="2.5" ry="2.5" style="stroke:#181818;stroke-width:0.5;" width="105" x="379.5" y="42.2969"/><text fill="#000000" font-family="sans-serif" font-size="14" lengthAdjust="spacing" textLength="91" x="386.5" y="62.292">AI-IRB Liaison</text><rect fill="#E2E2F0" height="30.2969" rx="2.5" ry="2.5" style="stroke:#181818;stroke-width:0.5;" width="105" x="379.5" y="1065.1875"/><text fill="#000000" font-family="sans-serif" font-size="14" lengthAdjust="spacing" textLength="91" x="386.5" y="1085.1826">AI-IRB Liaison</text><rect fill="#E2E2F0" height="30.2969" rx="2.5" ry="2.5" style="stroke:#181818;stroke-width:0.5;" width="164" x="627" y="42.2969"/><text fill="#000000" font-family="sans-serif" font-size="14" lengthAdjust="spacing" textLength="150" x="634" y="62.292">Security Administrator</text><rect fill="#E2E2F0" height="30.2969" rx="2.5" ry="2.5" style="stroke:#181818;stroke-width:0.5;" width="164" x="627" y="1065.1875"/><text fill="#000000" font-family="sans-serif" font-size="14" lengthAdjust="spacing" textLength="150" x="634" y="1085.1826">Security Administrator</text><rect fill="#E2E2F0" height="30.2969" rx="2.5" ry="2.5" style="stroke:#181818;stroke-width:0.5;" width="150" x="900" y="42.2969"/><text fill="#000000" font-family="sans-serif" font-size="14" lengthAdjust="spacing" textLength="136" x="907" y="62.292">Development Team</text><rect fill="#E2E2F0" height="30.2969" rx="2.5" ry="2.5" style="stroke:#181818;stroke-width:0.5;" width="150" x="900" y="1065.1875"/><text fill="#000000" font-family="sans-serif" font-size="14" lengthAdjust="spacing" textLength="136" x="907" y="1085.1826">Development Team</text><rect fill="#E2E2F0" height="30.2969" rx="2.5" ry="2.5" style="stroke:#181818;stroke-width:0.5;" width="148" x="1060" y="42.2969"/><text fill="#000000" font-family="sans-serif" font-size="14" lengthAdjust="spacing" textLength="134" x="1067" y="62.292">Data Science Team</text><rect fill="#E2E2F0" height="30.2969" rx="2.5" ry="2.5" style="stroke:#181818;stroke-width:0.5;" width="148" x="1060" y="1065.1875"/><text fill="#000000" font-family="sans-serif" font-size="14" lengthAdjust="spacing" textLength="134" x="1067" y="1085.1826">Data Science Team</text><rect fill="#E2E2F0" height="30.2969" rx="2.5" ry="2.5" style="stroke:#181818;stroke-width:0.5;" width="90" x="1218" y="42.2969"/><text fill="#000000" font-family="sans-serif" font-size="14" lengthAdjust="spacing" textLength="76" x="1225" y="62.292">Operations</text><rect fill="#E2E2F0" height="30.2969" rx="2.5" ry="2.5" style="stroke:#181818;stroke-width:0.5;" width="90" x="1218" y="1065.1875"/><text fill="#000000" font-family="sans-serif" font-size="14" lengthAdjust="spacing" textLength="76" x="1225" y="1085.1826">Operations</text><rect fill="#E2E2F0" height="30.2969" rx="2.5" ry="2.5" style="stroke:#181818;stroke-width:0.5;" width="137" x="1537.5" y="42.2969"/><text fill="#000000" font-family="sans-serif" font-size="14" lengthAdjust="spacing" textLength="123" x="1544.5" y="62.292">Quality Assurance</text><rect fill="#E2E2F0" height="30.2969" rx="2.5" ry="2.5" style="stroke:#181818;stroke-width:0.5;" width="137" x="1537.5" y="1065.1875"/><text fill="#000000" font-family="sans-serif" font-size="14" lengthAdjust="spacing" textLength="123" x="1544.5" y="1085.1826">Quality Assurance</text><rect fill="#E2E2F0" height="30.2969" rx="2.5" ry="2.5" style="stroke:#181818;stroke-width:0.5;" width="139" x="1819.5" y="42.2969"/><text fill="#000000" font-family="sans-serif" font-size="14" lengthAdjust="spacing" textLength="125" x="1826.5" y="62.292">Technical Support</text><rect fill="#E2E2F0" height="30.2969" rx="2.5" ry="2.5" style="stroke:#181818;stroke-width:0.5;" width="139" x="1819.5" y="1065.1875"/><text fill="#000000" font-family="sans-serif" font-size="14" lengthAdjust="spacing" textLength="125" x="1826.5" y="1085.1826">Technical Support</text><polygon fill="#181818" points="420,100.7266,430,104.7266,420,108.7266,424,104.7266" style="stroke:#181818;stroke-width:1.0;"/><line style="stroke:#181818;stroke-width:1.0;" x1="75" x2="426" y1="104.7266" y2="104.7266"/><text fill="#000000" font-family="sans-serif" font-size="13" lengthAdjust="spacing" textLength="305" x="82" y="99.6606">Submit project scope and data usage for review</text><polygon fill="#181818" points="86,129.8594,76,133.8594,86,137.8594,82,133.8594" style="stroke:#181818;stroke-width:1.0;"/><line style="stroke:#181818;stroke-width:1.0;stroke-dasharray:2.0,2.0;" x1="80" x2="431" y1="133.8594" y2="133.8594"/><text fill="#000000" font-family="sans-serif" font-size="13" lengthAdjust="spacing" textLength="333" x="92" y="128.7935">Provide ethics/security guidance or request changes</text><line style="stroke:#181818;stroke-width:1.0;" x1="709" x2="751" y1="162.9922" y2="162.9922"/><line style="stroke:#181818;stroke-width:1.0;" x1="751" x2="751" y1="162.9922" y2="175.9922"/><line style="stroke:#181818;stroke-width:1.0;" x1="710" x2="751" y1="175.9922" y2="175.9922"/><polygon fill="#181818" points="720,171.9922,710,175.9922,720,179.9922,716,175.9922" style="stroke:#181818;stroke-width:1.0;"/><text fill="#000000" font-family="sans-serif" font-size="13" lengthAdjust="spacing" textLength="252" x="716" y="157.9263">Conduct risk assessment for AI solution</text><polygon fill="#181818" points="443,201.125,433,205.125,443,209.125,439,205.125" style="stroke:#181818;stroke-width:1.0;"/><line style="stroke:#181818;stroke-width:1.0;" x1="437" x2="708" y1="205.125" y2="205.125"/><text fill="#000000" font-family="sans-serif" font-size="13" lengthAdjust="spacing" textLength="159" x="449" y="200.0591">Share findings if high risk</text><polygon fill="#181818" points="720,230.2578,710,234.2578,720,238.2578,716,234.2578" style="stroke:#181818;stroke-width:1.0;"/><line style="stroke:#181818;stroke-width:1.0;" x1="714" x2="974" y1="234.2578" y2="234.2578"/><text fill="#000000" font-family="sans-serif" font-size="13" lengthAdjust="spacing" textLength="167" x="726" y="229.1919">Request AI system access</text><path d="M369.5,249.2578 L433.5,249.2578 L433.5,256.3906 L423.5,266.3906 L369.5,266.3906 L369.5,249.2578 " fill="#EEEEEE" style="stroke:#000000;stroke-width:1.5;"/><rect fill="none" height="148.4688" style="stroke:#000000;stroke-width:1.5;" width="690.5" x="369.5" y="249.2578"/><text fill="#000000" font-family="sans-serif" font-size="13" font-weight="bold" lengthAdjust="spacing" textLength="19" x="384.5" y="262.3247">alt</text><text fill="#000000" font-family="sans-serif" font-size="11" font-weight="bold" lengthAdjust="spacing" textLength="165" x="448.5" y="261.4683">[Within standard profile?]</text><polygon fill="#181818" points="963,283.5234,973,287.5234,963,291.5234,967,287.5234" style="stroke:#181818;stroke-width:1.0;"/><line style="stroke:#181818;stroke-width:1.0;" x1="709" x2="969" y1="287.5234" y2="287.5234"/><text fill="#000000" font-family="sans-serif" font-size="13" lengthAdjust="spacing" textLength="195" x="716" y="282.4575">Approve request and provision</text><line style="stroke:#000000;stroke-width:1.0;stroke-dasharray:2.0,2.0;" x1="369.5" x2="1060" y1="296.5234" y2="296.5234"/><text fill="#000000" font-family="sans-serif" font-size="11" font-weight="bold" lengthAdjust="spacing" textLength="183" x="374.5" y="306.7339">[Not within standard profile]</text><polygon fill="#181818" points="443,327.4609,433,331.4609,443,335.4609,439,331.4609" style="stroke:#181818;stroke-width:1.0;"/><line style="stroke:#181818;stroke-width:1.0;" x1="437" x2="708" y1="331.4609" y2="331.4609"/><text fill="#000000" font-family="sans-serif" font-size="13" lengthAdjust="spacing" textLength="199" x="449" y="326.395">Request compliance evaluation</text><polygon fill="#181818" points="697,356.5938,707,360.5938,697,364.5938,701,360.5938" style="stroke:#181818;stroke-width:1.0;"/><line style="stroke:#181818;stroke-width:1.0;stroke-dasharray:2.0,2.0;" x1="432" x2="703" y1="360.5938" y2="360.5938"/><text fill="#000000" font-family="sans-serif" font-size="13" lengthAdjust="spacing" textLength="215" x="439" y="355.5278">Additional conditions or approvals</text><polygon fill="#181818" points="963,385.7266,973,389.7266,963,393.7266,967,389.7266" style="stroke:#181818;stroke-width:1.0;"/><line style="stroke:#181818;stroke-width:1.0;" x1="709" x2="969" y1="389.7266" y2="389.7266"/><text fill="#000000" font-family="sans-serif" font-size="13" lengthAdjust="spacing" textLength="186" x="716" y="384.6606">Final decision (approve/deny)</text><line style="stroke:#181818;stroke-width:1.0;" x1="1263" x2="1305" y1="425.8594" y2="425.8594"/><line style="stroke:#181818;stroke-width:1.0;" x1="1305" x2="1305" y1="425.8594" y2="438.8594"/><line style="stroke:#181818;stroke-width:1.0;" x1="1264" x2="1305" y1="438.8594" y2="438.8594"/><polygon fill="#181818" points="1274,434.8594,1264,438.8594,1274,442.8594,1270,438.8594" style="stroke:#181818;stroke-width:1.0;"/><text fill="#000000" font-family="sans-serif" font-size="13" lengthAdjust="spacing" textLength="158" x="1270" y="420.7935">Configure AI system logs</text><polygon fill="#181818" points="1251,463.9922,1261,467.9922,1251,471.9922,1255,467.9922" style="stroke:#181818;stroke-width:1.0;"/><line style="stroke:#181818;stroke-width:1.0;" x1="709" x2="1257" y1="467.9922" y2="467.9922"/><text fill="#000000" font-family="sans-serif" font-size="13" lengthAdjust="spacing" textLength="194" x="716" y="462.9263">Verify logs meet requirements</text><polygon fill="#181818" points="720,493.125,710,497.125,720,501.125,716,497.125" style="stroke:#181818;stroke-width:1.0;"/><line style="stroke:#181818;stroke-width:1.0;" x1="714" x2="1262" y1="497.125" y2="497.125"/><text fill="#000000" font-family="sans-serif" font-size="13" lengthAdjust="spacing" textLength="253" x="726" y="492.0591">Alert about vulnerability (patch needed)</text><polygon fill="#181818" points="1122,522.2578,1132,526.2578,1122,530.2578,1126,526.2578" style="stroke:#181818;stroke-width:1.0;"/><line style="stroke:#181818;stroke-width:1.0;" x1="709" x2="1128" y1="526.2578" y2="526.2578"/><text fill="#000000" font-family="sans-serif" font-size="13" lengthAdjust="spacing" textLength="204" x="716" y="521.1919">Verify patch won't break AI code</text><polygon fill="#181818" points="1594,551.3906,1604,555.3906,1594,559.3906,1598,555.3906" style="stroke:#181818;stroke-width:1.0;"/><line style="stroke:#181818;stroke-width:1.0;" x1="1134" x2="1600" y1="555.3906" y2="555.3906"/><text fill="#000000" font-family="sans-serif" font-size="13" lengthAdjust="spacing" textLength="145" x="1141" y="550.3247">Confirm test readiness</text><polygon fill="#181818" points="1274,580.5234,1264,584.5234,1274,588.5234,1270,584.5234" style="stroke:#181818;stroke-width:1.0;"/><line style="stroke:#181818;stroke-width:1.0;" x1="1268" x2="1605" y1="584.5234" y2="584.5234"/><text fill="#000000" font-family="sans-serif" font-size="13" lengthAdjust="spacing" textLength="241" x="1280" y="579.4575">Approve patch deployment to staging</text><line style="stroke:#181818;stroke-width:1.0;" x1="1263" x2="1305" y1="613.6563" y2="613.6563"/><line style="stroke:#181818;stroke-width:1.0;" x1="1305" x2="1305" y1="613.6563" y2="626.6563"/><line style="stroke:#181818;stroke-width:1.0;" x1="1264" x2="1305" y1="626.6563" y2="626.6563"/><polygon fill="#181818" points="1274,622.6563,1264,626.6563,1274,630.6563,1270,626.6563" style="stroke:#181818;stroke-width:1.0;"/><text fill="#000000" font-family="sans-serif" font-size="13" lengthAdjust="spacing" textLength="329" x="1270" y="608.5903">Deploy patch in production upon successful QA test</text><polygon fill="#181818" points="720,651.7891,710,655.7891,720,659.7891,716,655.7891" style="stroke:#181818;stroke-width:1.0;"/><line style="stroke:#181818;stroke-width:1.0;" x1="714" x2="1888" y1="655.7891" y2="655.7891"/><text fill="#000000" font-family="sans-serif" font-size="13" lengthAdjust="spacing" textLength="210" x="726" y="650.7231">Report potential security incident</text><path d="M369.5,670.7891 L433.5,670.7891 L433.5,677.9219 L423.5,687.9219 L369.5,687.9219 L369.5,670.7891 " fill="#EEEEEE" style="stroke:#000000;stroke-width:1.5;"/><rect fill="none" height="190.6016" style="stroke:#000000;stroke-width:1.5;" width="1599" x="369.5" y="670.7891"/><text fill="#000000" font-family="sans-serif" font-size="13" font-weight="bold" lengthAdjust="spacing" textLength="19" x="384.5" y="683.856">alt</text><text fill="#000000" font-family="sans-serif" font-size="11" font-weight="bold" lengthAdjust="spacing" textLength="136" x="448.5" y="682.9995">[Incident confirmed?]</text><polygon fill="#181818" points="1251,705.0547,1261,709.0547,1251,713.0547,1255,709.0547" style="stroke:#181818;stroke-width:1.0;"/><line style="stroke:#181818;stroke-width:1.0;" x1="709" x2="1257" y1="709.0547" y2="709.0547"/><text fill="#000000" font-family="sans-serif" font-size="13" lengthAdjust="spacing" textLength="206" x="716" y="703.9888">Disable compromised resources</text><polygon fill="#181818" points="720,734.1875,710,738.1875,720,742.1875,716,738.1875" style="stroke:#181818;stroke-width:1.0;"/><line style="stroke:#181818;stroke-width:1.0;" x1="714" x2="1133" y1="738.1875" y2="738.1875"/><text fill="#000000" font-family="sans-serif" font-size="13" lengthAdjust="spacing" textLength="223" x="726" y="733.1216">Check AI model/data not corrupted</text><line style="stroke:#181818;stroke-width:1.0;" x1="709" x2="751" y1="767.3203" y2="767.3203"/><line style="stroke:#181818;stroke-width:1.0;" x1="751" x2="751" y1="767.3203" y2="780.3203"/><line style="stroke:#181818;stroke-width:1.0;" x1="710" x2="751" y1="780.3203" y2="780.3203"/><polygon fill="#181818" points="720,776.3203,710,780.3203,720,784.3203,716,780.3203" style="stroke:#181818;stroke-width:1.0;"/><text fill="#000000" font-family="sans-serif" font-size="13" lengthAdjust="spacing" textLength="176" x="716" y="762.2544">Complete eradication steps</text><polygon fill="#181818" points="443,805.4531,433,809.4531,443,813.4531,439,809.4531" style="stroke:#181818;stroke-width:1.0;"/><line style="stroke:#181818;stroke-width:1.0;" x1="437" x2="708" y1="809.4531" y2="809.4531"/><text fill="#000000" font-family="sans-serif" font-size="13" lengthAdjust="spacing" textLength="213" x="449" y="804.3872">Notify if IRB compliance impacted</text><line style="stroke:#000000;stroke-width:1.0;stroke-dasharray:2.0,2.0;" x1="369.5" x2="1968.5" y1="818.4531" y2="818.4531"/><text fill="#000000" font-family="sans-serif" font-size="11" font-weight="bold" lengthAdjust="spacing" textLength="100" x="374.5" y="828.6636">[Not confirmed]</text><polygon fill="#181818" points="1877,849.3906,1887,853.3906,1877,857.3906,1881,853.3906" style="stroke:#181818;stroke-width:1.0;"/><line style="stroke:#181818;stroke-width:1.0;" x1="709" x2="1883" y1="853.3906" y2="853.3906"/><text fill="#000000" font-family="sans-serif" font-size="13" lengthAdjust="spacing" textLength="234" x="716" y="848.3247">Incident closed with no further action</text><polygon fill="#181818" points="1594,885.5234,1604,889.5234,1594,893.5234,1598,889.5234" style="stroke:#181818;stroke-width:1.0;"/><line style="stroke:#181818;stroke-width:1.0;" x1="709" x2="1600" y1="889.5234" y2="889.5234"/><text fill="#000000" font-family="sans-serif" font-size="13" lengthAdjust="spacing" textLength="149" x="716" y="884.4575">Schedule security audit</text><line style="stroke:#181818;stroke-width:1.0;" x1="1606" x2="1648" y1="918.6563" y2="918.6563"/><line style="stroke:#181818;stroke-width:1.0;" x1="1648" x2="1648" y1="918.6563" y2="931.6563"/><line style="stroke:#181818;stroke-width:1.0;" x1="1607" x2="1648" y1="931.6563" y2="931.6563"/><polygon fill="#181818" points="1617,927.6563,1607,931.6563,1617,935.6563,1613,931.6563" style="stroke:#181818;stroke-width:1.0;"/><text fill="#000000" font-family="sans-serif" font-size="13" lengthAdjust="spacing" textLength="269" x="1613" y="913.5903">Perform audit (logs, AI config, data usage)</text><polygon fill="#181818" points="720,956.7891,710,960.7891,720,964.7891,716,960.7891" style="stroke:#181818;stroke-width:1.0;"/><line style="stroke:#181818;stroke-width:1.0;" x1="714" x2="1605" y1="960.7891" y2="960.7891"/><text fill="#000000" font-family="sans-serif" font-size="13" lengthAdjust="spacing" textLength="100" x="726" y="955.7231">Provide findings</text><polygon fill="#181818" points="1251,985.9219,1261,989.9219,1251,993.9219,1255,989.9219" style="stroke:#181818;stroke-width:1.0;"/><line style="stroke:#181818;stroke-width:1.0;" x1="709" x2="1257" y1="989.9219" y2="989.9219"/><text fill="#000000" font-family="sans-serif" font-size="13" lengthAdjust="spacing" textLength="144" x="716" y="984.856">Implement corrections</text><polygon fill="#181818" points="86,1015.0547,76,1019.0547,86,1023.0547,82,1019.0547" style="stroke:#181818;stroke-width:1.0;"/><line style="stroke:#181818;stroke-width:1.0;" x1="80" x2="708" y1="1019.0547" y2="1019.0547"/><text fill="#000000" font-family="sans-serif" font-size="13" lengthAdjust="spacing" textLength="181" x="92" y="1013.9888">Summarize security posture</text><polygon fill="#181818" points="443,1044.1875,433,1048.1875,443,1052.1875,439,1048.1875" style="stroke:#181818;stroke-width:1.0;"/><line style="stroke:#181818;stroke-width:1.0;" x1="437" x2="708" y1="1048.1875" y2="1048.1875"/><text fill="#000000" font-family="sans-serif" font-size="13" lengthAdjust="spacing" textLength="253" x="449" y="1043.1216">Update if additional compliance needed</text><!--MD5=[28fa18d59ff30dce92ac042ebbbdf261]
@startuml
title SOP-1051-01-AI: Security Administration & Oversight

participant "AI Project Sponsor" as Sponsor
participant "AI-IRB Liaison" as IRB
participant "Security Administrator" as SecAdmin
participant "Development Team" as DevTeam
participant "Data Science Team" as DSTeam
participant "Operations" as Ops
participant "Quality Assurance" as QA
participant "Technical Support" as TechSup

' 1. AI-IRB Engagement and Risk Analysis
Sponsor -> IRB: Submit project scope and data usage for review
IRB - -> Sponsor: Provide ethics/security guidance or request changes
SecAdmin -> SecAdmin: Conduct risk assessment for AI solution
SecAdmin -> IRB: Share findings if high risk

' 2. Access Provisioning
DevTeam -> SecAdmin: Request AI system access
alt Within standard profile?
    SecAdmin -> DevTeam: Approve request and provision
else Not within standard profile
    SecAdmin -> IRB: Request compliance evaluation
    IRB - -> SecAdmin: Additional conditions or approvals
    SecAdmin -> DevTeam: Final decision (approve/deny)
end

' 3. Security Monitoring and Patch Management
Ops -> Ops: Configure AI system logs
SecAdmin -> Ops: Verify logs meet requirements
Ops -> SecAdmin: Alert about vulnerability (patch needed)
SecAdmin -> DSTeam: Verify patch won't break AI code
DSTeam -> QA: Confirm test readiness
QA -> Ops: Approve patch deployment to staging
Ops -> Ops: Deploy patch in production upon successful QA test

' 4. Incident Handling
TechSup -> SecAdmin: Report potential security incident
alt Incident confirmed?
    SecAdmin -> Ops: Disable compromised resources
    DSTeam -> SecAdmin: Check AI model/data not corrupted
    SecAdmin -> SecAdmin: Complete eradication steps
    SecAdmin -> IRB: Notify if IRB compliance impacted
else Not confirmed
    SecAdmin -> TechSup: Incident closed with no further action
end

' 5. Periodic Audits & Reviews
SecAdmin -> QA: Schedule security audit
QA -> QA: Perform audit (logs, AI config, data usage)
QA -> SecAdmin: Provide findings
SecAdmin -> Ops: Implement corrections
SecAdmin -> Sponsor: Summarize security posture
SecAdmin -> IRB: Update if additional compliance needed
@enduml

@startuml
title SOP-1051-01-AI: Security Administration & Oversight

participant "AI Project Sponsor" as Sponsor
participant "AI-IRB Liaison" as IRB
participant "Security Administrator" as SecAdmin
participant "Development Team" as DevTeam
participant "Data Science Team" as DSTeam
participant "Operations" as Ops
participant "Quality Assurance" as QA
participant "Technical Support" as TechSup

Sponsor -> IRB: Submit project scope and data usage for review
IRB - -> Sponsor: Provide ethics/security guidance or request changes
SecAdmin -> SecAdmin: Conduct risk assessment for AI solution
SecAdmin -> IRB: Share findings if high risk

DevTeam -> SecAdmin: Request AI system access
alt Within standard profile?
    SecAdmin -> DevTeam: Approve request and provision
else Not within standard profile
    SecAdmin -> IRB: Request compliance evaluation
    IRB - -> SecAdmin: Additional conditions or approvals
    SecAdmin -> DevTeam: Final decision (approve/deny)
end

Ops -> Ops: Configure AI system logs
SecAdmin -> Ops: Verify logs meet requirements
Ops -> SecAdmin: Alert about vulnerability (patch needed)
SecAdmin -> DSTeam: Verify patch won't break AI code
DSTeam -> QA: Confirm test readiness
QA -> Ops: Approve patch deployment to staging
Ops -> Ops: Deploy patch in production upon successful QA test

TechSup -> SecAdmin: Report potential security incident
alt Incident confirmed?
    SecAdmin -> Ops: Disable compromised resources
    DSTeam -> SecAdmin: Check AI model/data not corrupted
    SecAdmin -> SecAdmin: Complete eradication steps
    SecAdmin -> IRB: Notify if IRB compliance impacted
else Not confirmed
    SecAdmin -> TechSup: Incident closed with no further action
end

SecAdmin -> QA: Schedule security audit
QA -> QA: Perform audit (logs, AI config, data usage)
QA -> SecAdmin: Provide findings
SecAdmin -> Ops: Implement corrections
SecAdmin -> Sponsor: Summarize security posture
SecAdmin -> IRB: Update if additional compliance needed
@enduml

PlantUML version 1.2022.7(Mon Aug 22 17:01:30 UTC 2022)
(GPL source distribution)
Java Runtime: OpenJDK Runtime Environment
JVM: OpenJDK 64-Bit Server VM
Default Encoding: UTF-8
Language: en
Country: null
--></g></svg>