<?xml version="1.0" encoding="UTF-8" standalone="no"?><svg xmlns="http://www.w3.org/2000/svg" xmlns:xlink="http://www.w3.org/1999/xlink" contentStyleType="text/css" height="1073px" preserveAspectRatio="none" style="width:2159px;height:1073px;background:#FFFFFF;" version="1.1" viewBox="0 0 2159 1073" width="2159px" zoomAndPan="magnify"><defs/><g><rect fill="none" height="90.2031" style="stroke:#000000;stroke-width:1.5;" width="462.5" x="188" y="111.5625"/><line style="stroke:#181818;stroke-width:0.5;stroke-dasharray:5.0,5.0;" x1="53" x2="53" y1="36.2969" y2="1038.0859"/><line style="stroke:#181818;stroke-width:0.5;stroke-dasharray:5.0,5.0;" x1="276" x2="276" y1="36.2969" y2="1038.0859"/><line style="stroke:#181818;stroke-width:0.5;stroke-dasharray:5.0,5.0;" x1="613.5" x2="613.5" y1="36.2969" y2="1038.0859"/><line style="stroke:#181818;stroke-width:0.5;stroke-dasharray:5.0,5.0;" x1="699.5" x2="699.5" y1="36.2969" y2="1038.0859"/><line style="stroke:#181818;stroke-width:0.5;stroke-dasharray:5.0,5.0;" x1="994.5" x2="994.5" y1="36.2969" y2="1038.0859"/><line style="stroke:#181818;stroke-width:0.5;stroke-dasharray:5.0,5.0;" x1="1297.5" x2="1297.5" y1="36.2969" y2="1038.0859"/><line style="stroke:#181818;stroke-width:0.5;stroke-dasharray:5.0,5.0;" x1="1563" x2="1563" y1="36.2969" y2="1038.0859"/><line style="stroke:#181818;stroke-width:0.5;stroke-dasharray:5.0,5.0;" x1="1852" x2="1852" y1="36.2969" y2="1038.0859"/><line style="stroke:#181818;stroke-width:0.5;stroke-dasharray:5.0,5.0;" x1="1984" x2="1984" y1="36.2969" y2="1038.0859"/><line style="stroke:#181818;stroke-width:0.5;stroke-dasharray:5.0,5.0;" x1="2100" x2="2100" y1="36.2969" y2="1038.0859"/><rect fill="#E2E2F0" height="30.2969" rx="2.5" ry="2.5" style="stroke:#181818;stroke-width:0.5;" width="97" x="5" y="5"/><text fill="#000000" font-family="sans-serif" font-size="14" lengthAdjust="spacing" textLength="83" x="12" y="24.9951">Stakeholder</text><rect fill="#E2E2F0" height="30.2969" rx="2.5" ry="2.5" style="stroke:#181818;stroke-width:0.5;" width="97" x="5" y="1037.0859"/><text fill="#000000" font-family="sans-serif" font-size="14" lengthAdjust="spacing" textLength="83" x="12" y="1057.0811">Stakeholder</text><rect fill="#E2E2F0" height="30.2969" rx="2.5" ry="2.5" style="stroke:#181818;stroke-width:0.5;" width="157" x="198" y="5"/><text fill="#000000" font-family="sans-serif" font-size="14" lengthAdjust="spacing" textLength="143" x="205" y="24.9951">AI Governance Office</text><rect fill="#E2E2F0" height="30.2969" rx="2.5" ry="2.5" style="stroke:#181818;stroke-width:0.5;" width="157" x="198" y="1037.0859"/><text fill="#000000" font-family="sans-serif" font-size="14" lengthAdjust="spacing" textLength="143" x="205" y="1057.0811">AI Governance Office</text><rect fill="#E2E2F0" height="30.2969" rx="2.5" ry="2.5" style="stroke:#181818;stroke-width:0.5;" width="54" x="586.5" y="5"/><text fill="#000000" font-family="sans-serif" font-size="14" lengthAdjust="spacing" textLength="40" x="593.5" y="24.9951">AI-IRB</text><rect fill="#E2E2F0" height="30.2969" rx="2.5" ry="2.5" style="stroke:#181818;stroke-width:0.5;" width="54" x="586.5" y="1037.0859"/><text fill="#000000" font-family="sans-serif" font-size="14" lengthAdjust="spacing" textLength="40" x="593.5" y="1057.0811">AI-IRB</text><rect fill="#E2E2F0" height="30.2969" rx="2.5" ry="2.5" style="stroke:#181818;stroke-width:0.5;" width="99" x="650.5" y="5"/><text fill="#000000" font-family="sans-serif" font-size="14" lengthAdjust="spacing" textLength="85" x="657.5" y="24.9951">Product Dev</text><rect fill="#E2E2F0" height="30.2969" rx="2.5" ry="2.5" style="stroke:#181818;stroke-width:0.5;" width="99" x="650.5" y="1037.0859"/><text fill="#000000" font-family="sans-serif" font-size="14" lengthAdjust="spacing" textLength="85" x="657.5" y="1057.0811">Product Dev</text><rect fill="#E2E2F0" height="30.2969" rx="2.5" ry="2.5" style="stroke:#181818;stroke-width:0.5;" width="115" x="937.5" y="5"/><text fill="#000000" font-family="sans-serif" font-size="14" lengthAdjust="spacing" textLength="101" x="944.5" y="24.9951">Program Mgmt</text><rect fill="#E2E2F0" height="30.2969" rx="2.5" ry="2.5" style="stroke:#181818;stroke-width:0.5;" width="115" x="937.5" y="1037.0859"/><text fill="#000000" font-family="sans-serif" font-size="14" lengthAdjust="spacing" textLength="101" x="944.5" y="1057.0811">Program Mgmt</text><rect fill="#E2E2F0" height="30.2969" rx="2.5" ry="2.5" style="stroke:#181818;stroke-width:0.5;" width="137" x="1229.5" y="5"/><text fill="#000000" font-family="sans-serif" font-size="14" lengthAdjust="spacing" textLength="123" x="1236.5" y="24.9951">Quality Assurance</text><rect fill="#E2E2F0" height="30.2969" rx="2.5" ry="2.5" style="stroke:#181818;stroke-width:0.5;" width="137" x="1229.5" y="1037.0859"/><text fill="#000000" font-family="sans-serif" font-size="14" lengthAdjust="spacing" textLength="123" x="1236.5" y="1057.0811">Quality Assurance</text><rect fill="#E2E2F0" height="30.2969" rx="2.5" ry="2.5" style="stroke:#181818;stroke-width:0.5;" width="90" x="1518" y="5"/><text fill="#000000" font-family="sans-serif" font-size="14" lengthAdjust="spacing" textLength="76" x="1525" y="24.9951">Operations</text><rect fill="#E2E2F0" height="30.2969" rx="2.5" ry="2.5" style="stroke:#181818;stroke-width:0.5;" width="90" x="1518" y="1037.0859"/><text fill="#000000" font-family="sans-serif" font-size="14" lengthAdjust="spacing" textLength="76" x="1525" y="1057.0811">Operations</text><rect fill="#E2E2F0" height="30.2969" rx="2.5" ry="2.5" style="stroke:#181818;stroke-width:0.5;" width="136" x="1784" y="5"/><text fill="#000000" font-family="sans-serif" font-size="14" lengthAdjust="spacing" textLength="122" x="1791" y="24.9951">Legal/Compliance</text><rect fill="#E2E2F0" height="30.2969" rx="2.5" ry="2.5" style="stroke:#181818;stroke-width:0.5;" width="136" x="1784" y="1037.0859"/><text fill="#000000" font-family="sans-serif" font-size="14" lengthAdjust="spacing" textLength="122" x="1791" y="1057.0811">Legal/Compliance</text><rect fill="#E2E2F0" height="30.2969" rx="2.5" ry="2.5" style="stroke:#181818;stroke-width:0.5;" width="108" x="1930" y="5"/><text fill="#000000" font-family="sans-serif" font-size="14" lengthAdjust="spacing" textLength="94" x="1937" y="24.9951">Tech Support</text><rect fill="#E2E2F0" height="30.2969" rx="2.5" ry="2.5" style="stroke:#181818;stroke-width:0.5;" width="108" x="1930" y="1037.0859"/><text fill="#000000" font-family="sans-serif" font-size="14" lengthAdjust="spacing" textLength="94" x="1937" y="1057.0811">Tech Support</text><rect fill="#E2E2F0" height="30.2969" rx="2.5" ry="2.5" style="stroke:#181818;stroke-width:0.5;" width="105" x="2048" y="5"/><text fill="#000000" font-family="sans-serif" font-size="14" lengthAdjust="spacing" textLength="91" x="2055" y="24.9951">Data Science</text><rect fill="#E2E2F0" height="30.2969" rx="2.5" ry="2.5" style="stroke:#181818;stroke-width:0.5;" width="105" x="2048" y="1037.0859"/><text fill="#000000" font-family="sans-serif" font-size="14" lengthAdjust="spacing" textLength="91" x="2055" y="1057.0811">Data Science</text><polygon fill="#181818" points="264.5,63.4297,274.5,67.4297,264.5,71.4297,268.5,67.4297" style="stroke:#181818;stroke-width:1.0;"/><line style="stroke:#181818;stroke-width:1.0;" x1="53.5" x2="270.5" y1="67.4297" y2="67.4297"/><text fill="#000000" font-family="sans-serif" font-size="13" lengthAdjust="spacing" textLength="199" x="60.5" y="62.3638">Request EOL (or partial sunset)</text><polygon fill="#181818" points="601.5,92.5625,611.5,96.5625,601.5,100.5625,605.5,96.5625" style="stroke:#181818;stroke-width:1.0;"/><line style="stroke:#181818;stroke-width:1.0;" x1="276.5" x2="607.5" y1="96.5625" y2="96.5625"/><text fill="#000000" font-family="sans-serif" font-size="13" lengthAdjust="spacing" textLength="147" x="283.5" y="91.4966">Present reason for EOL</text><path d="M188,111.5625 L252,111.5625 L252,118.6953 L242,128.6953 L188,128.6953 L188,111.5625 " fill="#EEEEEE" style="stroke:#000000;stroke-width:1.5;"/><rect fill="none" height="90.2031" style="stroke:#000000;stroke-width:1.5;" width="462.5" x="188" y="111.5625"/><text fill="#000000" font-family="sans-serif" font-size="13" font-weight="bold" lengthAdjust="spacing" textLength="19" x="203" y="124.6294">alt</text><text fill="#000000" font-family="sans-serif" font-size="11" font-weight="bold" lengthAdjust="spacing" textLength="123" x="267" y="123.7729">[IRB Approves EOL]</text><polygon fill="#181818" points="287.5,145.8281,277.5,149.8281,287.5,153.8281,283.5,149.8281" style="stroke:#181818;stroke-width:1.0;"/><line style="stroke:#181818;stroke-width:1.0;" x1="281.5" x2="612.5" y1="149.8281" y2="149.8281"/><text fill="#000000" font-family="sans-serif" font-size="13" lengthAdjust="spacing" textLength="157" x="293.5" y="144.7622">Provisional EOL Approval</text><line style="stroke:#000000;stroke-width:1.0;stroke-dasharray:2.0,2.0;" x1="188" x2="650.5" y1="158.8281" y2="158.8281"/><text fill="#000000" font-family="sans-serif" font-size="11" font-weight="bold" lengthAdjust="spacing" textLength="152" x="193" y="169.0386">[IRB Requests changes]</text><polygon fill="#181818" points="287.5,189.7656,277.5,193.7656,287.5,197.7656,283.5,193.7656" style="stroke:#181818;stroke-width:1.0;"/><line style="stroke:#181818;stroke-width:1.0;" x1="281.5" x2="612.5" y1="193.7656" y2="193.7656"/><text fill="#000000" font-family="sans-serif" font-size="13" lengthAdjust="spacing" textLength="227" x="293.5" y="188.6997">Additional conditions or not feasible</text><polygon fill="#181818" points="983,225.8984,993,229.8984,983,233.8984,987,229.8984" style="stroke:#181818;stroke-width:1.0;"/><line style="stroke:#181818;stroke-width:1.0;" x1="276.5" x2="989" y1="229.8984" y2="229.8984"/><text fill="#000000" font-family="sans-serif" font-size="13" lengthAdjust="spacing" textLength="250" x="283.5" y="224.8325">Request creation of EOL Project Outline</text><line style="stroke:#181818;stroke-width:1.0;" x1="995" x2="1037" y1="259.0313" y2="259.0313"/><line style="stroke:#181818;stroke-width:1.0;" x1="1037" x2="1037" y1="259.0313" y2="272.0313"/><line style="stroke:#181818;stroke-width:1.0;" x1="996" x2="1037" y1="272.0313" y2="272.0313"/><polygon fill="#181818" points="1006,268.0313,996,272.0313,1006,276.0313,1002,272.0313" style="stroke:#181818;stroke-width:1.0;"/><text fill="#000000" font-family="sans-serif" font-size="13" lengthAdjust="spacing" textLength="240" x="1002" y="253.9653">Draft scope, timeline, resource needs</text><polygon fill="#181818" points="1840,297.1641,1850,301.1641,1840,305.1641,1844,301.1641" style="stroke:#181818;stroke-width:1.0;"/><line style="stroke:#181818;stroke-width:1.0;" x1="995" x2="1846" y1="301.1641" y2="301.1641"/><text fill="#000000" font-family="sans-serif" font-size="13" lengthAdjust="spacing" textLength="371" x="1002" y="296.0981">Check unaddressed compliance or contractual constraints</text><polygon fill="#181818" points="1006,326.2969,996,330.2969,1006,334.2969,1002,330.2969" style="stroke:#181818;stroke-width:1.0;"/><line style="stroke:#181818;stroke-width:1.0;" x1="1000" x2="1851" y1="330.2969" y2="330.2969"/><text fill="#000000" font-family="sans-serif" font-size="13" lengthAdjust="spacing" textLength="239" x="1012" y="325.231">Confirm or provide recommendations</text><polygon fill="#181818" points="624.5,355.4297,614.5,359.4297,624.5,363.4297,620.5,359.4297" style="stroke:#181818;stroke-width:1.0;"/><line style="stroke:#181818;stroke-width:1.0;" x1="618.5" x2="994" y1="359.4297" y2="359.4297"/><text fill="#000000" font-family="sans-serif" font-size="13" lengthAdjust="spacing" textLength="259" x="630.5" y="354.3638">Submit Outline for ethical considerations</text><polygon fill="#181818" points="983,384.5625,993,388.5625,983,392.5625,987,388.5625" style="stroke:#181818;stroke-width:1.0;"/><line style="stroke:#181818;stroke-width:1.0;" x1="613.5" x2="989" y1="388.5625" y2="388.5625"/><text fill="#000000" font-family="sans-serif" font-size="13" lengthAdjust="spacing" textLength="238" x="620.5" y="383.4966">Outline accepted or conditions added</text><polygon fill="#181818" points="1551,413.6953,1561,417.6953,1551,421.6953,1555,417.6953" style="stroke:#181818;stroke-width:1.0;"/><line style="stroke:#181818;stroke-width:1.0;" x1="995" x2="1557" y1="417.6953" y2="417.6953"/><text fill="#000000" font-family="sans-serif" font-size="13" lengthAdjust="spacing" textLength="239" x="1002" y="412.6294">Provide technical environment details</text><polygon fill="#181818" points="1006,442.8281,996,446.8281,1006,450.8281,1002,446.8281" style="stroke:#181818;stroke-width:1.0;"/><line style="stroke:#181818;stroke-width:1.0;" x1="1000" x2="1562" y1="446.8281" y2="446.8281"/><text fill="#000000" font-family="sans-serif" font-size="13" lengthAdjust="spacing" textLength="192" x="1012" y="441.7622">Proposed tear-down approach</text><polygon fill="#181818" points="1286,471.9609,1296,475.9609,1286,479.9609,1290,475.9609" style="stroke:#181818;stroke-width:1.0;"/><line style="stroke:#181818;stroke-width:1.0;" x1="995" x2="1292" y1="475.9609" y2="475.9609"/><text fill="#000000" font-family="sans-serif" font-size="13" lengthAdjust="spacing" textLength="234" x="1002" y="470.895">Check final QA tasks or waived items</text><polygon fill="#181818" points="1006,501.0938,996,505.0938,1006,509.0938,1002,505.0938" style="stroke:#181818;stroke-width:1.0;"/><line style="stroke:#181818;stroke-width:1.0;" x1="1000" x2="1297" y1="505.0938" y2="505.0938"/><text fill="#000000" font-family="sans-serif" font-size="13" lengthAdjust="spacing" textLength="279" x="1012" y="500.0278">QA review of open defects or leftover issues</text><polygon fill="#181818" points="711,530.2266,701,534.2266,711,538.2266,707,534.2266" style="stroke:#181818;stroke-width:1.0;"/><line style="stroke:#181818;stroke-width:1.0;" x1="705" x2="994" y1="534.2266" y2="534.2266"/><text fill="#000000" font-family="sans-serif" font-size="13" lengthAdjust="spacing" textLength="271" x="717" y="529.1606">Freeze new dev features for this AI system</text><polygon fill="#181818" points="601.5,559.3594,611.5,563.3594,601.5,567.3594,605.5,563.3594" style="stroke:#181818;stroke-width:1.0;"/><line style="stroke:#181818;stroke-width:1.0;" x1="276.5" x2="607.5" y1="563.3594" y2="563.3594"/><text fill="#000000" font-family="sans-serif" font-size="13" lengthAdjust="spacing" textLength="139" x="283.5" y="558.2935">Present final EOL Plan</text><polygon fill="#181818" points="287.5,588.4922,277.5,592.4922,287.5,596.4922,283.5,592.4922" style="stroke:#181818;stroke-width:1.0;"/><line style="stroke:#181818;stroke-width:1.0;" x1="281.5" x2="612.5" y1="592.4922" y2="592.4922"/><text fill="#000000" font-family="sans-serif" font-size="13" lengthAdjust="spacing" textLength="121" x="293.5" y="587.4263">EOL Plan Approved</text><line style="stroke:#181818;stroke-width:1.0;" x1="700" x2="742" y1="621.625" y2="621.625"/><line style="stroke:#181818;stroke-width:1.0;" x1="742" x2="742" y1="621.625" y2="634.625"/><line style="stroke:#181818;stroke-width:1.0;" x1="701" x2="742" y1="634.625" y2="634.625"/><polygon fill="#181818" points="711,630.625,701,634.625,711,638.625,707,634.625" style="stroke:#181818;stroke-width:1.0;"/><text fill="#000000" font-family="sans-serif" font-size="13" lengthAdjust="spacing" textLength="187" x="707" y="616.5591">Stop new releases or merges</text><polygon fill="#181818" points="64.5,659.7578,54.5,663.7578,64.5,667.7578,60.5,663.7578" style="stroke:#181818;stroke-width:1.0;"/><line style="stroke:#181818;stroke-width:1.0;" x1="58.5" x2="1983" y1="663.7578" y2="663.7578"/><text fill="#000000" font-family="sans-serif" font-size="13" lengthAdjust="spacing" textLength="253" x="70.5" y="658.6919">Notify end-users of end-of-support date</text><line style="stroke:#181818;stroke-width:1.0;" x1="1563" x2="1605" y1="692.8906" y2="692.8906"/><line style="stroke:#181818;stroke-width:1.0;" x1="1605" x2="1605" y1="692.8906" y2="705.8906"/><line style="stroke:#181818;stroke-width:1.0;" x1="1564" x2="1605" y1="705.8906" y2="705.8906"/><polygon fill="#181818" points="1574,701.8906,1564,705.8906,1574,709.8906,1570,705.8906" style="stroke:#181818;stroke-width:1.0;"/><text fill="#000000" font-family="sans-serif" font-size="13" lengthAdjust="spacing" textLength="220" x="1570" y="687.8247">Archive code, model artifacts, logs</text><polygon fill="#181818" points="2088.5,731.0234,2098.5,735.0234,2088.5,739.0234,2092.5,735.0234" style="stroke:#181818;stroke-width:1.0;"/><line style="stroke:#181818;stroke-width:1.0;" x1="1563" x2="2094.5" y1="735.0234" y2="735.0234"/><text fill="#000000" font-family="sans-serif" font-size="13" lengthAdjust="spacing" textLength="258" x="1570" y="729.9575">Archive or properly dispose training data</text><line style="stroke:#181818;stroke-width:1.0;" x1="1298" x2="1340" y1="764.1563" y2="764.1563"/><line style="stroke:#181818;stroke-width:1.0;" x1="1340" x2="1340" y1="764.1563" y2="777.1563"/><line style="stroke:#181818;stroke-width:1.0;" x1="1299" x2="1340" y1="777.1563" y2="777.1563"/><polygon fill="#181818" points="1309,773.1563,1299,777.1563,1309,781.1563,1305,777.1563" style="stroke:#181818;stroke-width:1.0;"/><text fill="#000000" font-family="sans-serif" font-size="13" lengthAdjust="spacing" textLength="251" x="1305" y="759.0903">Validate environment changes are safe</text><line style="stroke:#181818;stroke-width:1.0;" x1="276.5" x2="318.5" y1="806.2891" y2="806.2891"/><line style="stroke:#181818;stroke-width:1.0;" x1="318.5" x2="318.5" y1="806.2891" y2="819.2891"/><line style="stroke:#181818;stroke-width:1.0;" x1="277.5" x2="318.5" y1="819.2891" y2="819.2891"/><polygon fill="#181818" points="287.5,815.2891,277.5,819.2891,287.5,823.2891,283.5,819.2891" style="stroke:#181818;stroke-width:1.0;"/><text fill="#000000" font-family="sans-serif" font-size="13" lengthAdjust="spacing" textLength="323" x="283.5" y="801.2231">Track EOL progress, ensure IRB conditions are met</text><line style="stroke:#181818;stroke-width:1.0;" x1="1563" x2="1605" y1="848.4219" y2="848.4219"/><line style="stroke:#181818;stroke-width:1.0;" x1="1605" x2="1605" y1="848.4219" y2="861.4219"/><line style="stroke:#181818;stroke-width:1.0;" x1="1564" x2="1605" y1="861.4219" y2="861.4219"/><polygon fill="#181818" points="1574,857.4219,1564,861.4219,1574,865.4219,1570,861.4219" style="stroke:#181818;stroke-width:1.0;"/><text fill="#000000" font-family="sans-serif" font-size="13" lengthAdjust="spacing" textLength="275" x="1570" y="843.356">Complete system removal from production</text><polygon fill="#181818" points="287.5,886.5547,277.5,890.5547,287.5,894.5547,283.5,890.5547" style="stroke:#181818;stroke-width:1.0;"/><line style="stroke:#181818;stroke-width:1.0;" x1="281.5" x2="612.5" y1="890.5547" y2="890.5547"/><text fill="#000000" font-family="sans-serif" font-size="13" lengthAdjust="spacing" textLength="217" x="293.5" y="885.4888">Confirm all ethical obligations met</text><polygon fill="#181818" points="983,915.6875,993,919.6875,983,923.6875,987,919.6875" style="stroke:#181818;stroke-width:1.0;"/><line style="stroke:#181818;stroke-width:1.0;" x1="276.5" x2="989" y1="919.6875" y2="919.6875"/><text fill="#000000" font-family="sans-serif" font-size="13" lengthAdjust="spacing" textLength="219" x="283.5" y="914.6216">Request final EOL completion note</text><polygon fill="#181818" points="64.5,944.8203,54.5,948.8203,64.5,952.8203,60.5,948.8203" style="stroke:#181818;stroke-width:1.0;"/><line style="stroke:#181818;stroke-width:1.0;" x1="58.5" x2="994" y1="948.8203" y2="948.8203"/><text fill="#000000" font-family="sans-serif" font-size="13" lengthAdjust="spacing" textLength="203" x="70.5" y="943.7544">Communicate "EOL Completed"</text><line style="stroke:#181818;stroke-width:1.0;" x1="276.5" x2="318.5" y1="977.9531" y2="977.9531"/><line style="stroke:#181818;stroke-width:1.0;" x1="318.5" x2="318.5" y1="977.9531" y2="990.9531"/><line style="stroke:#181818;stroke-width:1.0;" x1="277.5" x2="318.5" y1="990.9531" y2="990.9531"/><polygon fill="#181818" points="287.5,986.9531,277.5,990.9531,287.5,994.9531,283.5,990.9531" style="stroke:#181818;stroke-width:1.0;"/><text fill="#000000" font-family="sans-serif" font-size="13" lengthAdjust="spacing" textLength="236" x="283.5" y="972.8872">Perform Post-Implementation Review</text><polygon fill="#181818" points="601.5,1016.0859,611.5,1020.0859,601.5,1024.0859,605.5,1020.0859" style="stroke:#181818;stroke-width:1.0;"/><line style="stroke:#181818;stroke-width:1.0;" x1="276.5" x2="607.5" y1="1020.0859" y2="1020.0859"/><text fill="#000000" font-family="sans-serif" font-size="13" lengthAdjust="spacing" textLength="178" x="283.5" y="1015.02">Summarize lessons learned</text><!--MD5=[05a6f12224a224c57470dda6fdc6ed82]
@startuml
' Participants (short names for clarity)
participant "Stakeholder" as SH
participant "AI Governance Office" as AIGO
participant "AI-IRB" as IRB
participant "Product Dev" as PD
participant "Program Mgmt" as PM
participant "Quality Assurance" as QA
participant "Operations" as OPS
participant "Legal/Compliance" as LEGAL
participant "Tech Support" as TS
participant "Data Science" as DS

' 1) Stakeholder triggers EOL or partial sunset
SH -> AIGO: Request EOL (or partial sunset)

' 2) AI Governance Office reviews triggers with AI-IRB
AIGO -> IRB: Present reason for EOL

' 3) IRB decides to proceed or not
alt IRB Approves EOL
   IRB -> AIGO: Provisional EOL Approval
else IRB Requests changes
   IRB -> AIGO: Additional conditions or not feasible
end

' 4) Program Mgmt drafts EOL Outline
AIGO -> PM: Request creation of EOL Project Outline
PM -> PM: Draft scope, timeline, resource needs

' 5) Program Mgmt consults Legal
PM -> LEGAL: Check unaddressed compliance or contractual constraints
LEGAL -> PM: Confirm or provide recommendations

' 6) IRB checks final ethical aspects
PM -> IRB: Submit Outline for ethical considerations
IRB -> PM: Outline accepted or conditions added

' 7) Program Mgmt finalizes EOL Plan
PM -> OPS: Provide technical environment details
OPS -> PM: Proposed tear-down approach
PM -> QA: Check final QA tasks or waived items
QA -> PM: QA review of open defects or leftover issues
PM -> PD: Freeze new dev features for this AI system

' 8) AI Governance Office obtains sign-off
AIGO -> IRB: Present final EOL Plan
IRB -> AIGO: EOL Plan Approved

' 9) Implementation & Monitoring
PD -> PD: Stop new releases or merges
TS -> SH: Notify end-users of end-of-support date
OPS -> OPS: Archive code, model artifacts, logs
OPS -> DS: Archive or properly dispose training data
QA -> QA: Validate environment changes are safe
AIGO -> AIGO: Track EOL progress, ensure IRB conditions are met

' 10) Post-EOL Verification & Lessons
OPS -> OPS: Complete system removal from production
IRB -> AIGO: Confirm all ethical obligations met
AIGO -> PM: Request final EOL completion note
PM -> SH: Communicate "EOL Completed"
AIGO -> AIGO: Perform Post-Implementation Review
AIGO -> IRB: Summarize lessons learned
@enduml

@startuml
participant "Stakeholder" as SH
participant "AI Governance Office" as AIGO
participant "AI-IRB" as IRB
participant "Product Dev" as PD
participant "Program Mgmt" as PM
participant "Quality Assurance" as QA
participant "Operations" as OPS
participant "Legal/Compliance" as LEGAL
participant "Tech Support" as TS
participant "Data Science" as DS

SH -> AIGO: Request EOL (or partial sunset)

AIGO -> IRB: Present reason for EOL

alt IRB Approves EOL
   IRB -> AIGO: Provisional EOL Approval
else IRB Requests changes
   IRB -> AIGO: Additional conditions or not feasible
end

AIGO -> PM: Request creation of EOL Project Outline
PM -> PM: Draft scope, timeline, resource needs

PM -> LEGAL: Check unaddressed compliance or contractual constraints
LEGAL -> PM: Confirm or provide recommendations

PM -> IRB: Submit Outline for ethical considerations
IRB -> PM: Outline accepted or conditions added

PM -> OPS: Provide technical environment details
OPS -> PM: Proposed tear-down approach
PM -> QA: Check final QA tasks or waived items
QA -> PM: QA review of open defects or leftover issues
PM -> PD: Freeze new dev features for this AI system

AIGO -> IRB: Present final EOL Plan
IRB -> AIGO: EOL Plan Approved

PD -> PD: Stop new releases or merges
TS -> SH: Notify end-users of end-of-support date
OPS -> OPS: Archive code, model artifacts, logs
OPS -> DS: Archive or properly dispose training data
QA -> QA: Validate environment changes are safe
AIGO -> AIGO: Track EOL progress, ensure IRB conditions are met

OPS -> OPS: Complete system removal from production
IRB -> AIGO: Confirm all ethical obligations met
AIGO -> PM: Request final EOL completion note
PM -> SH: Communicate "EOL Completed"
AIGO -> AIGO: Perform Post-Implementation Review
AIGO -> IRB: Summarize lessons learned
@enduml

PlantUML version 1.2022.7(Mon Aug 22 17:01:30 UTC 2022)
(GPL source distribution)
Java Runtime: OpenJDK Runtime Environment
JVM: OpenJDK 64-Bit Server VM
Default Encoding: UTF-8
Language: en
Country: null
--></g></svg>