<?xml version="1.0" encoding="UTF-8" standalone="no"?><svg xmlns="http://www.w3.org/2000/svg" xmlns:xlink="http://www.w3.org/1999/xlink" contentStyleType="text/css" height="989px" preserveAspectRatio="none" style="width:2197px;height:989px;background:#FFFFFF;" version="1.1" viewBox="0 0 2197 989" width="2197px" zoomAndPan="magnify"><defs/><g><rect fill="none" height="90.2031" style="stroke:#000000;stroke-width:1.5;" width="1214" x="372" y="243.9609"/><rect fill="none" height="119.3359" style="stroke:#000000;stroke-width:1.5;" width="1456" x="734" y="493.8281"/><rect fill="none" height="90.2031" style="stroke:#000000;stroke-width:1.5;" width="1342" x="372" y="685.4297"/><line style="stroke:#181818;stroke-width:0.5;stroke-dasharray:5.0,5.0;" x1="77" x2="77" y1="81.2969" y2="909.1641"/><line style="stroke:#181818;stroke-width:0.5;stroke-dasharray:5.0,5.0;" x1="430" x2="430" y1="81.2969" y2="909.1641"/><line style="stroke:#181818;stroke-width:0.5;stroke-dasharray:5.0,5.0;" x1="789" x2="789" y1="81.2969" y2="909.1641"/><line style="stroke:#181818;stroke-width:0.5;stroke-dasharray:5.0,5.0;" x1="1188.5" x2="1188.5" y1="81.2969" y2="909.1641"/><line style="stroke:#181818;stroke-width:0.5;stroke-dasharray:5.0,5.0;" x1="1531" x2="1531" y1="81.2969" y2="909.1641"/><line style="stroke:#181818;stroke-width:0.5;stroke-dasharray:5.0,5.0;" x1="1645" x2="1645" y1="81.2969" y2="909.1641"/><line style="stroke:#181818;stroke-width:0.5;stroke-dasharray:5.0,5.0;" x1="1990" x2="1990" y1="81.2969" y2="909.1641"/><line style="stroke:#181818;stroke-width:0.5;stroke-dasharray:5.0,5.0;" x1="2122" x2="2122" y1="81.2969" y2="909.1641"/><text fill="#000000" font-family="sans-serif" font-size="14" lengthAdjust="spacing" textLength="139" x="5" y="77.9951">Senior Management</text><ellipse cx="77.5" cy="13.5" fill="#E2E2F0" rx="8" ry="8" style="stroke:#181818;stroke-width:0.5;"/><path d="M77.5,21.5 L77.5,48.5 M64.5,29.5 L90.5,29.5 M77.5,48.5 L64.5,63.5 M77.5,48.5 L90.5,63.5 " fill="none" style="stroke:#181818;stroke-width:0.5;"/><text fill="#000000" font-family="sans-serif" font-size="14" lengthAdjust="spacing" textLength="139" x="5" y="921.1592">Senior Management</text><ellipse cx="77.5" cy="932.9609" fill="#E2E2F0" rx="8" ry="8" style="stroke:#181818;stroke-width:0.5;"/><path d="M77.5,940.9609 L77.5,967.9609 M64.5,948.9609 L90.5,948.9609 M77.5,967.9609 L64.5,982.9609 M77.5,967.9609 L90.5,982.9609 " fill="none" style="stroke:#181818;stroke-width:0.5;"/><text fill="#000000" font-family="sans-serif" font-size="14" lengthAdjust="spacing" textLength="91" x="382" y="77.9951">AI-IRB Liaison</text><ellipse cx="430.5" cy="13.5" fill="#E2E2F0" rx="8" ry="8" style="stroke:#181818;stroke-width:0.5;"/><path d="M430.5,21.5 L430.5,48.5 M417.5,29.5 L443.5,29.5 M430.5,48.5 L417.5,63.5 M430.5,48.5 L443.5,63.5 " fill="none" style="stroke:#181818;stroke-width:0.5;"/><text fill="#000000" font-family="sans-serif" font-size="14" lengthAdjust="spacing" textLength="91" x="382" y="921.1592">AI-IRB Liaison</text><ellipse cx="430.5" cy="932.9609" fill="#E2E2F0" rx="8" ry="8" style="stroke:#181818;stroke-width:0.5;"/><path d="M430.5,940.9609 L430.5,967.9609 M417.5,948.9609 L443.5,948.9609 M430.5,967.9609 L417.5,982.9609 M430.5,967.9609 L443.5,982.9609 " fill="none" style="stroke:#181818;stroke-width:0.5;"/><text fill="#000000" font-family="sans-serif" font-size="14" lengthAdjust="spacing" textLength="85" x="744" y="77.9951">Product Dev</text><ellipse cx="789.5" cy="13.5" fill="#E2E2F0" rx="8" ry="8" style="stroke:#181818;stroke-width:0.5;"/><path d="M789.5,21.5 L789.5,48.5 M776.5,29.5 L802.5,29.5 M789.5,48.5 L776.5,63.5 M789.5,48.5 L802.5,63.5 " fill="none" style="stroke:#181818;stroke-width:0.5;"/><text fill="#000000" font-family="sans-serif" font-size="14" lengthAdjust="spacing" textLength="85" x="744" y="921.1592">Product Dev</text><ellipse cx="789.5" cy="932.9609" fill="#E2E2F0" rx="8" ry="8" style="stroke:#181818;stroke-width:0.5;"/><path d="M789.5,940.9609 L789.5,967.9609 M776.5,948.9609 L802.5,948.9609 M789.5,967.9609 L776.5,982.9609 M789.5,967.9609 L802.5,982.9609 " fill="none" style="stroke:#181818;stroke-width:0.5;"/><text fill="#000000" font-family="sans-serif" font-size="14" lengthAdjust="spacing" textLength="94" x="1138.5" y="77.9951">Tech Support</text><ellipse cx="1188.5" cy="13.5" fill="#E2E2F0" rx="8" ry="8" style="stroke:#181818;stroke-width:0.5;"/><path d="M1188.5,21.5 L1188.5,48.5 M1175.5,29.5 L1201.5,29.5 M1188.5,48.5 L1175.5,63.5 M1188.5,48.5 L1201.5,63.5 " fill="none" style="stroke:#181818;stroke-width:0.5;"/><text fill="#000000" font-family="sans-serif" font-size="14" lengthAdjust="spacing" textLength="94" x="1138.5" y="921.1592">Tech Support</text><ellipse cx="1188.5" cy="932.9609" fill="#E2E2F0" rx="8" ry="8" style="stroke:#181818;stroke-width:0.5;"/><path d="M1188.5,940.9609 L1188.5,967.9609 M1175.5,948.9609 L1201.5,948.9609 M1188.5,967.9609 L1175.5,982.9609 M1188.5,967.9609 L1201.5,982.9609 " fill="none" style="stroke:#181818;stroke-width:0.5;"/><text fill="#000000" font-family="sans-serif" font-size="14" lengthAdjust="spacing" textLength="83" x="1487" y="77.9951">Engineering</text><ellipse cx="1531.5" cy="13.5" fill="#E2E2F0" rx="8" ry="8" style="stroke:#181818;stroke-width:0.5;"/><path d="M1531.5,21.5 L1531.5,48.5 M1518.5,29.5 L1544.5,29.5 M1531.5,48.5 L1518.5,63.5 M1531.5,48.5 L1544.5,63.5 " fill="none" style="stroke:#181818;stroke-width:0.5;"/><text fill="#000000" font-family="sans-serif" font-size="14" lengthAdjust="spacing" textLength="83" x="1487" y="921.1592">Engineering</text><ellipse cx="1531.5" cy="932.9609" fill="#E2E2F0" rx="8" ry="8" style="stroke:#181818;stroke-width:0.5;"/><path d="M1531.5,940.9609 L1531.5,967.9609 M1518.5,948.9609 L1544.5,948.9609 M1531.5,967.9609 L1518.5,982.9609 M1531.5,967.9609 L1544.5,982.9609 " fill="none" style="stroke:#181818;stroke-width:0.5;"/><text fill="#000000" font-family="sans-serif" font-size="14" lengthAdjust="spacing" textLength="112" x="1586" y="77.9951">Project Manager</text><ellipse cx="1645" cy="13.5" fill="#E2E2F0" rx="8" ry="8" style="stroke:#181818;stroke-width:0.5;"/><path d="M1645,21.5 L1645,48.5 M1632,29.5 L1658,29.5 M1645,48.5 L1632,63.5 M1645,48.5 L1658,63.5 " fill="none" style="stroke:#181818;stroke-width:0.5;"/><text fill="#000000" font-family="sans-serif" font-size="14" lengthAdjust="spacing" textLength="112" x="1586" y="921.1592">Project Manager</text><ellipse cx="1645" cy="932.9609" fill="#E2E2F0" rx="8" ry="8" style="stroke:#181818;stroke-width:0.5;"/><path d="M1645,940.9609 L1645,967.9609 M1632,948.9609 L1658,948.9609 M1645,967.9609 L1632,982.9609 M1645,967.9609 L1658,982.9609 " fill="none" style="stroke:#181818;stroke-width:0.5;"/><text fill="#000000" font-family="sans-serif" font-size="14" lengthAdjust="spacing" textLength="122" x="1926" y="77.9951">Program Manager</text><ellipse cx="1990" cy="13.5" fill="#E2E2F0" rx="8" ry="8" style="stroke:#181818;stroke-width:0.5;"/><path d="M1990,21.5 L1990,48.5 M1977,29.5 L2003,29.5 M1990,48.5 L1977,63.5 M1990,48.5 L2003,63.5 " fill="none" style="stroke:#181818;stroke-width:0.5;"/><text fill="#000000" font-family="sans-serif" font-size="14" lengthAdjust="spacing" textLength="122" x="1926" y="921.1592">Program Manager</text><ellipse cx="1990" cy="932.9609" fill="#E2E2F0" rx="8" ry="8" style="stroke:#181818;stroke-width:0.5;"/><path d="M1990,940.9609 L1990,967.9609 M1977,948.9609 L2003,948.9609 M1990,967.9609 L1977,982.9609 M1990,967.9609 L2003,982.9609 " fill="none" style="stroke:#181818;stroke-width:0.5;"/><text fill="#000000" font-family="sans-serif" font-size="14" lengthAdjust="spacing" textLength="110" x="2064" y="77.9951">Project Sponsor</text><ellipse cx="2122" cy="13.5" fill="#E2E2F0" rx="8" ry="8" style="stroke:#181818;stroke-width:0.5;"/><path d="M2122,21.5 L2122,48.5 M2109,29.5 L2135,29.5 M2122,48.5 L2109,63.5 M2122,48.5 L2135,63.5 " fill="none" style="stroke:#181818;stroke-width:0.5;"/><text fill="#000000" font-family="sans-serif" font-size="14" lengthAdjust="spacing" textLength="110" x="2064" y="921.1592">Project Sponsor</text><ellipse cx="2122" cy="932.9609" fill="#E2E2F0" rx="8" ry="8" style="stroke:#181818;stroke-width:0.5;"/><path d="M2122,940.9609 L2122,967.9609 M2109,948.9609 L2135,948.9609 M2122,967.9609 L2109,982.9609 M2122,967.9609 L2135,982.9609 " fill="none" style="stroke:#181818;stroke-width:0.5;"/><polygon fill="#181818" points="418.5,108.4297,428.5,112.4297,418.5,116.4297,422.5,112.4297" style="stroke:#181818;stroke-width:1.0;"/><line style="stroke:#181818;stroke-width:1.0;" x1="77.5" x2="424.5" y1="112.4297" y2="112.4297"/><text fill="#000000" font-family="sans-serif" font-size="13" lengthAdjust="spacing" textLength="329" x="84.5" y="107.3638">Provide overarching AI strategy &amp; compliance goals</text><polygon fill="#181818" points="777.5,137.5625,787.5,141.5625,777.5,145.5625,781.5,141.5625" style="stroke:#181818;stroke-width:1.0;"/><line style="stroke:#181818;stroke-width:1.0;" x1="430.5" x2="783.5" y1="141.5625" y2="141.5625"/><text fill="#000000" font-family="sans-serif" font-size="13" lengthAdjust="spacing" textLength="335" x="437.5" y="136.4966">Share AI compliance considerations for new features</text><polygon fill="#181818" points="1176.5,166.6953,1186.5,170.6953,1176.5,174.6953,1180.5,170.6953" style="stroke:#181818;stroke-width:1.0;"/><line style="stroke:#181818;stroke-width:1.0;" x1="789.5" x2="1182.5" y1="170.6953" y2="170.6953"/><text fill="#000000" font-family="sans-serif" font-size="13" lengthAdjust="spacing" textLength="375" x="796.5" y="165.6294">Request input on known production issues &amp; user requests</text><polygon fill="#181818" points="1519.5,195.8281,1529.5,199.8281,1519.5,203.8281,1523.5,199.8281" style="stroke:#181818;stroke-width:1.0;"/><line style="stroke:#181818;stroke-width:1.0;" x1="1188.5" x2="1525.5" y1="199.8281" y2="199.8281"/><text fill="#000000" font-family="sans-serif" font-size="13" lengthAdjust="spacing" textLength="319" x="1195.5" y="194.7622">Funnel consolidated requests for feasibility checks</text><polygon fill="#181818" points="441.5,224.9609,431.5,228.9609,441.5,232.9609,437.5,228.9609" style="stroke:#181818;stroke-width:1.0;"/><line style="stroke:#181818;stroke-width:1.0;" x1="435.5" x2="1530.5" y1="228.9609" y2="228.9609"/><text fill="#000000" font-family="sans-serif" font-size="13" lengthAdjust="spacing" textLength="329" x="447.5" y="223.895">Verify compliance constraints for AI-based requests</text><path d="M372,243.9609 L436,243.9609 L436,251.0938 L426,261.0938 L372,261.0938 L372,243.9609 " fill="#EEEEEE" style="stroke:#000000;stroke-width:1.5;"/><rect fill="none" height="90.2031" style="stroke:#000000;stroke-width:1.5;" width="1214" x="372" y="243.9609"/><text fill="#000000" font-family="sans-serif" font-size="13" font-weight="bold" lengthAdjust="spacing" textLength="19" x="387" y="257.0278">alt</text><text fill="#000000" font-family="sans-serif" font-size="11" font-weight="bold" lengthAdjust="spacing" textLength="129" x="451" y="256.1714">[More info required]</text><polygon fill="#181818" points="777.5,278.2266,787.5,282.2266,777.5,286.2266,781.5,282.2266" style="stroke:#181818;stroke-width:1.0;"/><line style="stroke:#181818;stroke-width:1.0;" x1="430.5" x2="783.5" y1="282.2266" y2="282.2266"/><text fill="#000000" font-family="sans-serif" font-size="13" lengthAdjust="spacing" textLength="269" x="437.5" y="277.1606">Request additional data or documentation</text><line style="stroke:#000000;stroke-width:1.0;stroke-dasharray:2.0,2.0;" x1="372" x2="1586" y1="291.2266" y2="291.2266"/><text fill="#000000" font-family="sans-serif" font-size="11" font-weight="bold" lengthAdjust="spacing" textLength="148" x="377" y="301.437">[Feasible &amp; Compliant]</text><polygon fill="#181818" points="1519.5,322.1641,1529.5,326.1641,1519.5,330.1641,1523.5,326.1641" style="stroke:#181818;stroke-width:1.0;"/><line style="stroke:#181818;stroke-width:1.0;" x1="430.5" x2="1525.5" y1="326.1641" y2="326.1641"/><text fill="#000000" font-family="sans-serif" font-size="13" lengthAdjust="spacing" textLength="146" x="437.5" y="321.0981">Acknowledge feasibility</text><polygon fill="#181818" points="1633,358.2969,1643,362.2969,1633,366.2969,1637,362.2969" style="stroke:#181818;stroke-width:1.0;"/><line style="stroke:#181818;stroke-width:1.0;" x1="789.5" x2="1639" y1="362.2969" y2="362.2969"/><text fill="#000000" font-family="sans-serif" font-size="13" lengthAdjust="spacing" textLength="337" x="796.5" y="357.231">Submit features &amp; known constraints for initial scope</text><polygon fill="#181818" points="1978,387.4297,1988,391.4297,1978,395.4297,1982,391.4297" style="stroke:#181818;stroke-width:1.0;"/><line style="stroke:#181818;stroke-width:1.0;" x1="1645" x2="1984" y1="391.4297" y2="391.4297"/><text fill="#000000" font-family="sans-serif" font-size="13" lengthAdjust="spacing" textLength="321" x="1652" y="386.3638">Present preliminary release scope for prioritization</text><polygon fill="#181818" points="800.5,416.5625,790.5,420.5625,800.5,424.5625,796.5,420.5625" style="stroke:#181818;stroke-width:1.0;"/><line style="stroke:#181818;stroke-width:1.0;" x1="794.5" x2="1989" y1="420.5625" y2="420.5625"/><text fill="#000000" font-family="sans-serif" font-size="13" lengthAdjust="spacing" textLength="310" x="806.5" y="415.4966">Return prioritized items based on business value</text><polygon fill="#181818" points="1519.5,445.6953,1529.5,449.6953,1519.5,453.6953,1523.5,449.6953" style="stroke:#181818;stroke-width:1.0;"/><line style="stroke:#181818;stroke-width:1.0;" x1="789.5" x2="1525.5" y1="449.6953" y2="449.6953"/><text fill="#000000" font-family="sans-serif" font-size="13" lengthAdjust="spacing" textLength="281" x="796.5" y="444.6294">Provide feasibility/time/cost estimates again</text><polygon fill="#181818" points="441.5,474.8281,431.5,478.8281,441.5,482.8281,437.5,478.8281" style="stroke:#181818;stroke-width:1.0;"/><line style="stroke:#181818;stroke-width:1.0;" x1="435.5" x2="1530.5" y1="478.8281" y2="478.8281"/><text fill="#000000" font-family="sans-serif" font-size="13" lengthAdjust="spacing" textLength="216" x="447.5" y="473.7622">Review final compliance readiness</text><path d="M734,493.8281 L798,493.8281 L798,500.9609 L788,510.9609 L734,510.9609 L734,493.8281 " fill="#EEEEEE" style="stroke:#000000;stroke-width:1.5;"/><rect fill="none" height="119.3359" style="stroke:#000000;stroke-width:1.5;" width="1456" x="734" y="493.8281"/><text fill="#000000" font-family="sans-serif" font-size="13" font-weight="bold" lengthAdjust="spacing" textLength="19" x="749" y="506.895">alt</text><text fill="#000000" font-family="sans-serif" font-size="11" font-weight="bold" lengthAdjust="spacing" textLength="92" x="813" y="506.0386">[Adjust scope]</text><polygon fill="#181818" points="2110,528.0938,2120,532.0938,2110,536.0938,2114,532.0938" style="stroke:#181818;stroke-width:1.0;"/><line style="stroke:#181818;stroke-width:1.0;" x1="1645" x2="2116" y1="532.0938" y2="532.0938"/><text fill="#000000" font-family="sans-serif" font-size="13" lengthAdjust="spacing" textLength="179" x="1652" y="527.0278">Discuss final scope changes</text><polygon fill="#181818" points="800.5,557.2266,790.5,561.2266,800.5,565.2266,796.5,561.2266" style="stroke:#181818;stroke-width:1.0;"/><line style="stroke:#181818;stroke-width:1.0;" x1="794.5" x2="2121" y1="561.2266" y2="561.2266"/><text fill="#000000" font-family="sans-serif" font-size="13" lengthAdjust="spacing" textLength="154" x="806.5" y="556.1606">Approve adjusted scope</text><line style="stroke:#000000;stroke-width:1.0;stroke-dasharray:2.0,2.0;" x1="734" x2="2190" y1="570.2266" y2="570.2266"/><text fill="#000000" font-family="sans-serif" font-size="11" font-weight="bold" lengthAdjust="spacing" textLength="85" x="739" y="580.437">[No changes]</text><polygon fill="#181818" points="800.5,601.1641,790.5,605.1641,800.5,609.1641,796.5,605.1641" style="stroke:#181818;stroke-width:1.0;"/><line style="stroke:#181818;stroke-width:1.0;" x1="794.5" x2="2121" y1="605.1641" y2="605.1641"/><text fill="#000000" font-family="sans-serif" font-size="13" lengthAdjust="spacing" textLength="139" x="806.5" y="600.0981">Confirm scope stands</text><polygon fill="#181818" points="1633,637.2969,1643,641.2969,1633,645.2969,1637,641.2969" style="stroke:#181818;stroke-width:1.0;"/><line style="stroke:#181818;stroke-width:1.0;" x1="789.5" x2="1639" y1="641.2969" y2="641.2969"/><text fill="#000000" font-family="sans-serif" font-size="13" lengthAdjust="spacing" textLength="242" x="796.5" y="636.231">Prepare final Release Strategy &amp; SOW</text><polygon fill="#181818" points="441.5,666.4297,431.5,670.4297,441.5,674.4297,437.5,670.4297" style="stroke:#181818;stroke-width:1.0;"/><line style="stroke:#181818;stroke-width:1.0;" x1="435.5" x2="1644" y1="670.4297" y2="670.4297"/><text fill="#000000" font-family="sans-serif" font-size="13" lengthAdjust="spacing" textLength="178" x="447.5" y="665.3638">Confirm compliance sign-off</text><path d="M372,685.4297 L436,685.4297 L436,692.5625 L426,702.5625 L372,702.5625 L372,685.4297 " fill="#EEEEEE" style="stroke:#000000;stroke-width:1.5;"/><rect fill="none" height="90.2031" style="stroke:#000000;stroke-width:1.5;" width="1342" x="372" y="685.4297"/><text fill="#000000" font-family="sans-serif" font-size="13" font-weight="bold" lengthAdjust="spacing" textLength="19" x="387" y="698.4966">alt</text><text fill="#000000" font-family="sans-serif" font-size="11" font-weight="bold" lengthAdjust="spacing" textLength="70" x="451" y="697.6401">[Approved]</text><polygon fill="#181818" points="1633,719.6953,1643,723.6953,1633,727.6953,1637,723.6953" style="stroke:#181818;stroke-width:1.0;"/><line style="stroke:#181818;stroke-width:1.0;" x1="430.5" x2="1639" y1="723.6953" y2="723.6953"/><text fill="#000000" font-family="sans-serif" font-size="13" lengthAdjust="spacing" textLength="147" x="437.5" y="718.6294">Sign-off for compliance</text><line style="stroke:#000000;stroke-width:1.0;stroke-dasharray:2.0,2.0;" x1="372" x2="1714" y1="732.6953" y2="732.6953"/><text fill="#000000" font-family="sans-serif" font-size="11" font-weight="bold" lengthAdjust="spacing" textLength="64" x="377" y="742.9058">[Revision]</text><polygon fill="#181818" points="777.5,763.6328,787.5,767.6328,777.5,771.6328,781.5,767.6328" style="stroke:#181818;stroke-width:1.0;"/><line style="stroke:#181818;stroke-width:1.0;" x1="430.5" x2="783.5" y1="767.6328" y2="767.6328"/><text fill="#000000" font-family="sans-serif" font-size="13" lengthAdjust="spacing" textLength="159" x="437.5" y="762.5669">Request further revisions</text><polygon fill="#181818" points="1978,799.7656,1988,803.7656,1978,807.7656,1982,803.7656" style="stroke:#181818;stroke-width:1.0;"/><line style="stroke:#181818;stroke-width:1.0;" x1="1645" x2="1984" y1="803.7656" y2="803.7656"/><text fill="#000000" font-family="sans-serif" font-size="13" lengthAdjust="spacing" textLength="273" x="1652" y="798.6997">Communicate final release strategy locked</text><polygon fill="#181818" points="1519.5,828.8984,1529.5,832.8984,1519.5,836.8984,1523.5,832.8984" style="stroke:#181818;stroke-width:1.0;"/><line style="stroke:#181818;stroke-width:1.0;" x1="789.5" x2="1525.5" y1="832.8984" y2="832.8984"/><text fill="#000000" font-family="sans-serif" font-size="13" lengthAdjust="spacing" textLength="112" x="796.5" y="827.8325">Draft SOW details</text><polygon fill="#181818" points="800.5,858.0313,790.5,862.0313,800.5,866.0313,796.5,862.0313" style="stroke:#181818;stroke-width:1.0;"/><line style="stroke:#181818;stroke-width:1.0;" x1="794.5" x2="1530.5" y1="862.0313" y2="862.0313"/><text fill="#000000" font-family="sans-serif" font-size="13" lengthAdjust="spacing" textLength="146" x="806.5" y="856.9653">Validate completeness</text><polygon fill="#181818" points="1633,887.1641,1643,891.1641,1633,895.1641,1637,891.1641" style="stroke:#181818;stroke-width:1.0;"/><line style="stroke:#181818;stroke-width:1.0;" x1="789.5" x2="1639" y1="891.1641" y2="891.1641"/><text fill="#000000" font-family="sans-serif" font-size="13" lengthAdjust="spacing" textLength="256" x="796.5" y="886.0981">Present final scope for Gate 10 approval</text><!--MD5=[a14e3aa215e6710fbb663ac51ee2d284]
@startuml
' Participants (Roles)
actor SM as "Senior Management"
actor IRB as "AI-IRB Liaison"
actor PD as "Product Dev"
actor TS as "Tech Support"
actor ENG as "Engineering"
actor PM as "Project Manager"
actor PROGM as "Program Manager"
actor SPONSOR as "Project Sponsor"

' 1. Establish AI business strategy
SM -> IRB: Provide overarching AI strategy & compliance goals
IRB -> PD: Share AI compliance considerations for new features

' 2. Gather feature requests
PD -> TS: Request input on known production issues & user requests
TS -> ENG: Funnel consolidated requests for feasibility checks

' 3. Preliminary feasibility
ENG -> IRB: Verify compliance constraints for AI-based requests

' 4. alt - Additional info needed?
alt More info required
   IRB -> PD: Request additional data or documentation
else Feasible & Compliant
   IRB -> ENG: Acknowledge feasibility
end

' 5. Compile preliminary scope
PD -> PM: Submit features & known constraints for initial scope

' 6. Prioritize scope
PM -> PROGM: Present preliminary release scope for prioritization
PROGM -> PD: Return prioritized items based on business value

' 7. Request high-level estimates
PD -> ENG: Provide feasibility/time/cost estimates again
ENG -> IRB: Review final compliance readiness

' 8. alt - Scope adjustments needed?
alt Adjust scope
   PM -> SPONSOR: Discuss final scope changes
   SPONSOR -> PD: Approve adjusted scope
else No changes
   SPONSOR -> PD: Confirm scope stands
end

' 9. Finalize release strategy
PD -> PM: Prepare final Release Strategy & SOW
PM -> IRB: Confirm compliance sign-off

' 10. alt - IRB sign-off granted?
alt Approved
   IRB -> PM: Sign-off for compliance
else Revision
   IRB -> PD: Request further revisions
end

' 11. Lock scope at Gate 11
PM -> PROGM: Communicate final release strategy locked

' 12. Draft SOW & confirm Gate 10
PD -> ENG: Draft SOW details
ENG -> PD: Validate completeness
PD -> PM: Present final scope for Gate 10 approval
@enduml

@startuml
actor SM as "Senior Management"
actor IRB as "AI-IRB Liaison"
actor PD as "Product Dev"
actor TS as "Tech Support"
actor ENG as "Engineering"
actor PM as "Project Manager"
actor PROGM as "Program Manager"
actor SPONSOR as "Project Sponsor"

SM -> IRB: Provide overarching AI strategy & compliance goals
IRB -> PD: Share AI compliance considerations for new features

PD -> TS: Request input on known production issues & user requests
TS -> ENG: Funnel consolidated requests for feasibility checks

ENG -> IRB: Verify compliance constraints for AI-based requests

alt More info required
   IRB -> PD: Request additional data or documentation
else Feasible & Compliant
   IRB -> ENG: Acknowledge feasibility
end

PD -> PM: Submit features & known constraints for initial scope

PM -> PROGM: Present preliminary release scope for prioritization
PROGM -> PD: Return prioritized items based on business value

PD -> ENG: Provide feasibility/time/cost estimates again
ENG -> IRB: Review final compliance readiness

alt Adjust scope
   PM -> SPONSOR: Discuss final scope changes
   SPONSOR -> PD: Approve adjusted scope
else No changes
   SPONSOR -> PD: Confirm scope stands
end

PD -> PM: Prepare final Release Strategy & SOW
PM -> IRB: Confirm compliance sign-off

alt Approved
   IRB -> PM: Sign-off for compliance
else Revision
   IRB -> PD: Request further revisions
end

PM -> PROGM: Communicate final release strategy locked

PD -> ENG: Draft SOW details
ENG -> PD: Validate completeness
PD -> PM: Present final scope for Gate 10 approval
@enduml

PlantUML version 1.2022.7(Mon Aug 22 17:01:30 UTC 2022)
(GPL source distribution)
Java Runtime: OpenJDK Runtime Environment
JVM: OpenJDK 64-Bit Server VM
Default Encoding: UTF-8
Language: en
Country: null
--></g></svg>