<?xml version="1.0" encoding="UTF-8" standalone="no"?><svg xmlns="http://www.w3.org/2000/svg" xmlns:xlink="http://www.w3.org/1999/xlink" contentStyleType="text/css" height="1959px" preserveAspectRatio="none" style="width:2092px;height:1959px;background:#FFFFFF;" version="1.1" viewBox="0 0 2092 1959" width="2092px" zoomAndPan="magnify"><defs/><g><rect fill="none" height="26.2969" id="_title" style="stroke:none;stroke-width:1.0;" width="353" x="865.5" y="10"/><text fill="#000000" font-family="sans-serif" font-size="14" font-weight="bold" lengthAdjust="spacing" textLength="343" x="870.5" y="27.9951">AI-SDLC Program/Project Management Flow</text><rect fill="#FFFFFF" height="29.1328" style="stroke:#181818;stroke-width:1.0;" width="10" x="182" y="280.2578"/><line style="stroke:#181818;stroke-width:0.5;stroke-dasharray:5.0,5.0;" x1="77" x2="77" y1="118.5938" y2="1878.7656"/><line style="stroke:#181818;stroke-width:0.5;stroke-dasharray:5.0,5.0;" x1="187" x2="187" y1="118.5938" y2="1878.7656"/><line style="stroke:#181818;stroke-width:0.5;stroke-dasharray:5.0,5.0;" x1="491" x2="491" y1="118.5938" y2="1878.7656"/><line style="stroke:#181818;stroke-width:0.5;stroke-dasharray:5.0,5.0;" x1="730.5" x2="730.5" y1="118.5938" y2="1878.7656"/><line style="stroke:#181818;stroke-width:0.5;stroke-dasharray:5.0,5.0;" x1="838.5" x2="838.5" y1="118.5938" y2="1878.7656"/><line style="stroke:#181818;stroke-width:0.5;stroke-dasharray:5.0,5.0;" x1="982.5" x2="982.5" y1="118.5938" y2="1878.7656"/><line style="stroke:#181818;stroke-width:0.5;stroke-dasharray:5.0,5.0;" x1="1123.5" x2="1123.5" y1="118.5938" y2="1878.7656"/><line style="stroke:#181818;stroke-width:0.5;stroke-dasharray:5.0,5.0;" x1="1332" x2="1332" y1="118.5938" y2="1878.7656"/><line style="stroke:#181818;stroke-width:0.5;stroke-dasharray:5.0,5.0;" x1="1618" x2="1618" y1="118.5938" y2="1878.7656"/><line style="stroke:#181818;stroke-width:0.5;stroke-dasharray:5.0,5.0;" x1="1742" x2="1742" y1="118.5938" y2="1878.7656"/><line style="stroke:#181818;stroke-width:0.5;stroke-dasharray:5.0,5.0;" x1="1987" x2="1987" y1="118.5938" y2="1878.7656"/><line style="stroke:#181818;stroke-width:0.5;stroke-dasharray:5.0,5.0;" x1="2065" x2="2065" y1="118.5938" y2="1878.7656"/><text fill="#000000" font-family="sans-serif" font-size="14" lengthAdjust="spacing" textLength="139" x="5" y="115.292">Senior Management</text><ellipse cx="77.5" cy="50.7969" fill="#E2E2F0" rx="8" ry="8" style="stroke:#181818;stroke-width:0.5;"/><path d="M77.5,58.7969 L77.5,85.7969 M64.5,66.7969 L90.5,66.7969 M77.5,85.7969 L64.5,100.7969 M77.5,85.7969 L90.5,100.7969 " fill="none" style="stroke:#181818;stroke-width:0.5;"/><text fill="#000000" font-family="sans-serif" font-size="14" lengthAdjust="spacing" textLength="139" x="5" y="1890.7607">Senior Management</text><ellipse cx="77.5" cy="1902.5625" fill="#E2E2F0" rx="8" ry="8" style="stroke:#181818;stroke-width:0.5;"/><path d="M77.5,1910.5625 L77.5,1937.5625 M64.5,1918.5625 L90.5,1918.5625 M77.5,1937.5625 L64.5,1952.5625 M77.5,1937.5625 L90.5,1952.5625 " fill="none" style="stroke:#181818;stroke-width:0.5;"/><rect fill="#DDDDDD" height="30.2969" rx="2.5" ry="2.5" style="stroke:#000000;stroke-width:0.5;" width="54" x="160" y="87.2969"/><text fill="#000000" font-family="sans-serif" font-size="14" lengthAdjust="spacing" textLength="40" x="167" y="107.292">AI-IRB</text><rect fill="#DDDDDD" height="30.2969" rx="2.5" ry="2.5" style="stroke:#000000;stroke-width:0.5;" width="54" x="160" y="1877.7656"/><text fill="#000000" font-family="sans-serif" font-size="14" lengthAdjust="spacing" textLength="40" x="167" y="1897.7607">AI-IRB</text><rect fill="#DDDDDD" height="30.2969" rx="2.5" ry="2.5" style="stroke:#000000;stroke-width:0.5;" width="124" x="429" y="87.2969"/><text fill="#000000" font-family="sans-serif" font-size="14" lengthAdjust="spacing" textLength="110" x="436" y="107.292">Project Sponsor</text><rect fill="#DDDDDD" height="30.2969" rx="2.5" ry="2.5" style="stroke:#000000;stroke-width:0.5;" width="124" x="429" y="1877.7656"/><text fill="#000000" font-family="sans-serif" font-size="14" lengthAdjust="spacing" textLength="110" x="436" y="1897.7607">Project Sponsor</text><rect fill="#DDDDDD" height="30.2969" rx="2.5" ry="2.5" style="stroke:#000000;stroke-width:0.5;" width="63" x="699.5" y="87.2969"/><text fill="#000000" font-family="sans-serif" font-size="14" lengthAdjust="spacing" textLength="49" x="706.5" y="107.292">AI-PMO</text><rect fill="#DDDDDD" height="30.2969" rx="2.5" ry="2.5" style="stroke:#000000;stroke-width:0.5;" width="63" x="699.5" y="1877.7656"/><text fill="#000000" font-family="sans-serif" font-size="14" lengthAdjust="spacing" textLength="49" x="706.5" y="1897.7607">AI-PMO</text><rect fill="#DDDDDD" height="30.2969" rx="2.5" ry="2.5" style="stroke:#000000;stroke-width:0.5;" width="132" x="772.5" y="87.2969"/><text fill="#000000" font-family="sans-serif" font-size="14" lengthAdjust="spacing" textLength="118" x="779.5" y="107.292">Product Manager</text><rect fill="#DDDDDD" height="30.2969" rx="2.5" ry="2.5" style="stroke:#000000;stroke-width:0.5;" width="132" x="772.5" y="1877.7656"/><text fill="#000000" font-family="sans-serif" font-size="14" lengthAdjust="spacing" textLength="118" x="779.5" y="1897.7607">Product Manager</text><rect fill="#DDDDDD" height="30.2969" rx="2.5" ry="2.5" style="stroke:#000000;stroke-width:0.5;" width="136" x="914.5" y="87.2969"/><text fill="#000000" font-family="sans-serif" font-size="14" lengthAdjust="spacing" textLength="122" x="921.5" y="107.292">Program Manager</text><rect fill="#DDDDDD" height="30.2969" rx="2.5" ry="2.5" style="stroke:#000000;stroke-width:0.5;" width="136" x="914.5" y="1877.7656"/><text fill="#000000" font-family="sans-serif" font-size="14" lengthAdjust="spacing" textLength="122" x="921.5" y="1897.7607">Program Manager</text><rect fill="#DDDDDD" height="30.2969" rx="2.5" ry="2.5" style="stroke:#000000;stroke-width:0.5;" width="126" x="1060.5" y="87.2969"/><text fill="#000000" font-family="sans-serif" font-size="14" lengthAdjust="spacing" textLength="112" x="1067.5" y="107.292">Project Manager</text><rect fill="#DDDDDD" height="30.2969" rx="2.5" ry="2.5" style="stroke:#000000;stroke-width:0.5;" width="126" x="1060.5" y="1877.7656"/><text fill="#000000" font-family="sans-serif" font-size="14" lengthAdjust="spacing" textLength="112" x="1067.5" y="1897.7607">Project Manager</text><rect fill="#DDDDDD" height="30.2969" rx="2.5" ry="2.5" style="stroke:#000000;stroke-width:0.5;" width="107" x="1279" y="87.2969"/><text fill="#000000" font-family="sans-serif" font-size="14" lengthAdjust="spacing" textLength="93" x="1286" y="107.292">Development</text><rect fill="#DDDDDD" height="30.2969" rx="2.5" ry="2.5" style="stroke:#000000;stroke-width:0.5;" width="107" x="1279" y="1877.7656"/><text fill="#000000" font-family="sans-serif" font-size="14" lengthAdjust="spacing" textLength="93" x="1286" y="1897.7607">Development</text><rect fill="#DDDDDD" height="30.2969" rx="2.5" ry="2.5" style="stroke:#000000;stroke-width:0.5;" width="137" x="1550" y="87.2969"/><text fill="#000000" font-family="sans-serif" font-size="14" lengthAdjust="spacing" textLength="123" x="1557" y="107.292">Quality Assurance</text><rect fill="#DDDDDD" height="30.2969" rx="2.5" ry="2.5" style="stroke:#000000;stroke-width:0.5;" width="137" x="1550" y="1877.7656"/><text fill="#000000" font-family="sans-serif" font-size="14" lengthAdjust="spacing" textLength="123" x="1557" y="1897.7607">Quality Assurance</text><rect fill="#DDDDDD" height="30.2969" rx="2.5" ry="2.5" style="stroke:#000000;stroke-width:0.5;" width="90" x="1697" y="87.2969"/><text fill="#000000" font-family="sans-serif" font-size="14" lengthAdjust="spacing" textLength="76" x="1704" y="107.292">Operations</text><rect fill="#DDDDDD" height="30.2969" rx="2.5" ry="2.5" style="stroke:#000000;stroke-width:0.5;" width="90" x="1697" y="1877.7656"/><text fill="#000000" font-family="sans-serif" font-size="14" lengthAdjust="spacing" textLength="76" x="1704" y="1897.7607">Operations</text><rect fill="#DDDDDD" height="30.2969" rx="2.5" ry="2.5" style="stroke:#000000;stroke-width:0.5;" width="108" x="1933" y="87.2969"/><text fill="#000000" font-family="sans-serif" font-size="14" lengthAdjust="spacing" textLength="94" x="1940" y="107.292">Tech Support</text><rect fill="#DDDDDD" height="30.2969" rx="2.5" ry="2.5" style="stroke:#000000;stroke-width:0.5;" width="108" x="1933" y="1877.7656"/><text fill="#000000" font-family="sans-serif" font-size="14" lengthAdjust="spacing" textLength="94" x="1940" y="1897.7607">Tech Support</text><rect fill="#DDDDDD" height="30.2969" rx="2.5" ry="2.5" style="stroke:#000000;stroke-width:0.5;" width="29" x="2051" y="87.2969"/><text fill="#000000" font-family="sans-serif" font-size="14" lengthAdjust="spacing" textLength="15" x="2058" y="107.292">All</text><rect fill="#DDDDDD" height="30.2969" rx="2.5" ry="2.5" style="stroke:#000000;stroke-width:0.5;" width="29" x="2051" y="1877.7656"/><text fill="#000000" font-family="sans-serif" font-size="14" lengthAdjust="spacing" textLength="15" x="2058" y="1897.7607">All</text><rect fill="#FFFFFF" height="29.1328" style="stroke:#181818;stroke-width:1.0;" width="10" x="182" y="280.2578"/><rect fill="#EEEEEE" height="3" style="stroke:#EEEEEE;stroke-width:1.0;" width="2085" x="0" y="149.1602"/><line style="stroke:#000000;stroke-width:1.0;" x1="0" x2="2085" y1="149.1602" y2="149.1602"/><line style="stroke:#000000;stroke-width:1.0;" x1="0" x2="2085" y1="152.1602" y2="152.1602"/><rect fill="#EEEEEE" height="23.1328" style="stroke:#000000;stroke-width:2.0;" width="250" x="917.5" y="138.5938"/><text fill="#000000" font-family="sans-serif" font-size="13" font-weight="bold" lengthAdjust="spacing" textLength="231" x="923.5" y="154.6606">Project Initiation (G-12 to G-10)</text><polygon fill="#000000" points="479,188.8594,489,192.8594,479,196.8594,483,192.8594" style="stroke:#000000;stroke-width:1.0;"/><line style="stroke:#000000;stroke-width:1.0;" x1="77.5" x2="485" y1="192.8594" y2="192.8594"/><text fill="#000000" font-family="sans-serif" font-size="13" lengthAdjust="spacing" textLength="293" x="84.5" y="187.7935">Commission AI project, name Project Sponsor</text><polygon fill="#000000" points="826.5,217.9922,836.5,221.9922,826.5,225.9922,830.5,221.9922" style="stroke:#000000;stroke-width:1.0;"/><line style="stroke:#000000;stroke-width:1.0;" x1="491" x2="832.5" y1="221.9922" y2="221.9922"/><text fill="#000000" font-family="sans-serif" font-size="13" lengthAdjust="spacing" textLength="277" x="498" y="216.9263">Request preliminary business requirements</text><polygon fill="#000000" points="502,247.125,492,251.125,502,255.125,498,251.125" style="stroke:#000000;stroke-width:1.0;"/><line style="stroke:#000000;stroke-width:1.0;" x1="496" x2="837.5" y1="251.125" y2="251.125"/><text fill="#000000" font-family="sans-serif" font-size="13" lengthAdjust="spacing" textLength="231" x="508" y="246.0591">Provide business requirements draft</text><polygon fill="#000000" points="203,276.2578,193,280.2578,203,284.2578,199,280.2578" style="stroke:#000000;stroke-width:1.0;"/><line style="stroke:#000000;stroke-width:1.0;" x1="197" x2="490" y1="280.2578" y2="280.2578"/><text fill="#000000" font-family="sans-serif" font-size="13" lengthAdjust="spacing" textLength="227" x="209" y="275.1919">if (High-Risk AI?) then consult AI-IRB</text><polygon fill="#000000" points="479,305.3906,489,309.3906,479,313.3906,483,309.3906" style="stroke:#000000;stroke-width:1.0;"/><line style="stroke:#000000;stroke-width:1.0;" x1="187" x2="485" y1="309.3906" y2="309.3906"/><text fill="#000000" font-family="sans-serif" font-size="13" lengthAdjust="spacing" textLength="275" x="194" y="304.3247">Provide guidance/approval or reduce scope</text><polygon fill="#000000" points="719,334.5234,729,338.5234,719,342.5234,723,338.5234" style="stroke:#000000;stroke-width:1.0;"/><line style="stroke:#000000;stroke-width:1.0;" x1="491" x2="725" y1="338.5234" y2="338.5234"/><text fill="#000000" font-family="sans-serif" font-size="13" lengthAdjust="spacing" textLength="216" x="498" y="333.4575">Summarize scope, cost, schedule</text><polygon fill="#000000" points="1111.5,363.6563,1121.5,367.6563,1111.5,371.6563,1115.5,367.6563" style="stroke:#000000;stroke-width:1.0;"/><line style="stroke:#000000;stroke-width:1.0;" x1="731" x2="1117.5" y1="367.6563" y2="367.6563"/><text fill="#000000" font-family="sans-serif" font-size="13" lengthAdjust="spacing" textLength="233" x="738" y="362.5903">Provide resources/funding guidelines</text><rect fill="#EEEEEE" height="3" style="stroke:#EEEEEE;stroke-width:1.0;" width="2085" x="0" y="396.2227"/><line style="stroke:#000000;stroke-width:1.0;" x1="0" x2="2085" y1="396.2227" y2="396.2227"/><line style="stroke:#000000;stroke-width:1.0;" x1="0" x2="2085" y1="399.2227" y2="399.2227"/><rect fill="#EEEEEE" height="23.1328" style="stroke:#000000;stroke-width:2.0;" width="275" x="905" y="385.6563"/><text fill="#000000" font-family="sans-serif" font-size="13" font-weight="bold" lengthAdjust="spacing" textLength="256" x="911" y="401.7231">Gate 10: Requirements Lock-Down</text><polygon fill="#000000" points="1606.5,435.9219,1616.5,439.9219,1606.5,443.9219,1610.5,439.9219" style="stroke:#000000;stroke-width:1.0;"/><line style="stroke:#000000;stroke-width:1.0;" x1="1123.5" x2="1612.5" y1="439.9219" y2="439.9219"/><text fill="#000000" font-family="sans-serif" font-size="13" lengthAdjust="spacing" textLength="223" x="1130.5" y="434.856">Review final business requirements</text><polygon fill="#000000" points="1134.5,465.0547,1124.5,469.0547,1134.5,473.0547,1130.5,469.0547" style="stroke:#000000;stroke-width:1.0;"/><line style="stroke:#000000;stroke-width:1.0;" x1="1128.5" x2="1617.5" y1="469.0547" y2="469.0547"/><text fill="#000000" font-family="sans-serif" font-size="13" lengthAdjust="spacing" textLength="181" x="1140.5" y="463.9888">Approve or request changes</text><polygon fill="#000000" points="479,494.1875,489,498.1875,479,502.1875,483,498.1875" style="stroke:#000000;stroke-width:1.0;"/><line style="stroke:#000000;stroke-width:1.0;" x1="77.5" x2="485" y1="498.1875" y2="498.1875"/><text fill="#000000" font-family="sans-serif" font-size="13" lengthAdjust="spacing" textLength="142" x="84.5" y="493.1216">Final sign-off on scope</text><polygon fill="#000000" points="970.5,523.3203,980.5,527.3203,970.5,531.3203,974.5,527.3203" style="stroke:#000000;stroke-width:1.0;"/><line style="stroke:#000000;stroke-width:1.0;" x1="491" x2="976.5" y1="527.3203" y2="527.3203"/><text fill="#000000" font-family="sans-serif" font-size="13" lengthAdjust="spacing" textLength="165" x="498" y="522.2544">Confirm move to planning</text><rect fill="#EEEEEE" height="3" style="stroke:#EEEEEE;stroke-width:1.0;" width="2085" x="0" y="555.8867"/><line style="stroke:#000000;stroke-width:1.0;" x1="0" x2="2085" y1="555.8867" y2="555.8867"/><line style="stroke:#000000;stroke-width:1.0;" x1="0" x2="2085" y1="558.8867" y2="558.8867"/><rect fill="#EEEEEE" height="23.1328" style="stroke:#000000;stroke-width:2.0;" width="276" x="904.5" y="545.3203"/><text fill="#000000" font-family="sans-serif" font-size="13" font-weight="bold" lengthAdjust="spacing" textLength="257" x="910.5" y="561.3872">Planning &amp; Definition (G-10 to G-6)</text><polygon fill="#000000" points="1320.5,595.5859,1330.5,599.5859,1320.5,603.5859,1324.5,599.5859" style="stroke:#000000;stroke-width:1.0;"/><line style="stroke:#000000;stroke-width:1.0;" x1="1123.5" x2="1326.5" y1="599.5859" y2="599.5859"/><text fill="#000000" font-family="sans-serif" font-size="13" lengthAdjust="spacing" textLength="185" x="1130.5" y="594.52">Gather system requirements</text><polygon fill="#000000" points="1606.5,624.7188,1616.5,628.7188,1606.5,632.7188,1610.5,628.7188" style="stroke:#000000;stroke-width:1.0;"/><line style="stroke:#000000;stroke-width:1.0;" x1="1332.5" x2="1612.5" y1="628.7188" y2="628.7188"/><text fill="#000000" font-family="sans-serif" font-size="13" lengthAdjust="spacing" textLength="262" x="1339.5" y="623.6528">Share system requirements for feedback</text><polygon fill="#000000" points="1134.5,653.8516,1124.5,657.8516,1134.5,661.8516,1130.5,657.8516" style="stroke:#000000;stroke-width:1.0;"/><line style="stroke:#000000;stroke-width:1.0;" x1="1128.5" x2="1617.5" y1="657.8516" y2="657.8516"/><text fill="#000000" font-family="sans-serif" font-size="13" lengthAdjust="spacing" textLength="160" x="1140.5" y="652.7856">Provide quality plan input</text><polygon fill="#000000" points="1134.5,682.9844,1124.5,686.9844,1134.5,690.9844,1130.5,686.9844" style="stroke:#000000;stroke-width:1.0;"/><line style="stroke:#000000;stroke-width:1.0;" x1="1128.5" x2="1741" y1="686.9844" y2="686.9844"/><text fill="#000000" font-family="sans-serif" font-size="13" lengthAdjust="spacing" textLength="268" x="1140.5" y="681.9185">Provide environment/infrastructure details</text><polygon fill="#000000" points="198,712.1172,188,716.1172,198,720.1172,194,716.1172" style="stroke:#000000;stroke-width:1.0;"/><line style="stroke:#000000;stroke-width:1.0;" x1="192" x2="1122.5" y1="716.1172" y2="716.1172"/><text fill="#000000" font-family="sans-serif" font-size="13" lengthAdjust="spacing" textLength="229" x="204" y="711.0513">if (Revised AI scope) then IRB review</text><polygon fill="#000000" points="1111.5,741.25,1121.5,745.25,1111.5,749.25,1115.5,745.25" style="stroke:#000000;stroke-width:1.0;"/><line style="stroke:#000000;stroke-width:1.0;" x1="187" x2="1117.5" y1="745.25" y2="745.25"/><text fill="#000000" font-family="sans-serif" font-size="13" lengthAdjust="spacing" textLength="81" x="194" y="740.1841">OK or rework</text><polygon fill="#000000" points="502,770.3828,492,774.3828,502,778.3828,498,774.3828" style="stroke:#000000;stroke-width:1.0;"/><line style="stroke:#000000;stroke-width:1.0;" x1="496" x2="1122.5" y1="774.3828" y2="774.3828"/><text fill="#000000" font-family="sans-serif" font-size="13" lengthAdjust="spacing" textLength="235" x="508" y="769.3169">Summarize final plan, schedule, cost</text><rect fill="#EEEEEE" height="3" style="stroke:#EEEEEE;stroke-width:1.0;" width="2085" x="0" y="802.9492"/><line style="stroke:#000000;stroke-width:1.0;" x1="0" x2="2085" y1="802.9492" y2="802.9492"/><line style="stroke:#000000;stroke-width:1.0;" x1="0" x2="2085" y1="805.9492" y2="805.9492"/><rect fill="#EEEEEE" height="23.1328" style="stroke:#000000;stroke-width:2.0;" width="215" x="935" y="792.3828"/><text fill="#000000" font-family="sans-serif" font-size="13" font-weight="bold" lengthAdjust="spacing" textLength="196" x="941" y="808.4497">Gate 6: Project Lock-Down</text><polygon fill="#000000" points="88.5,842.6484,78.5,846.6484,88.5,850.6484,84.5,846.6484" style="stroke:#000000;stroke-width:1.0;"/><line style="stroke:#000000;stroke-width:1.0;" x1="82.5" x2="490" y1="846.6484" y2="846.6484"/><text fill="#000000" font-family="sans-serif" font-size="13" lengthAdjust="spacing" textLength="130" x="94.5" y="841.5825">Approve overall plan</text><polygon fill="#000000" points="479,871.7813,489,875.7813,479,879.7813,483,875.7813" style="stroke:#000000;stroke-width:1.0;"/><line style="stroke:#000000;stroke-width:1.0;" x1="77.5" x2="485" y1="875.7813" y2="875.7813"/><text fill="#000000" font-family="sans-serif" font-size="13" lengthAdjust="spacing" textLength="169" x="84.5" y="870.7153">Proceed with development</text><rect fill="#EEEEEE" height="3" style="stroke:#EEEEEE;stroke-width:1.0;" width="2085" x="0" y="904.3477"/><line style="stroke:#000000;stroke-width:1.0;" x1="0" x2="2085" y1="904.3477" y2="904.3477"/><line style="stroke:#000000;stroke-width:1.0;" x1="0" x2="2085" y1="907.3477" y2="907.3477"/><rect fill="#EEEEEE" height="23.1328" style="stroke:#000000;stroke-width:2.0;" width="304" x="890.5" y="893.7813"/><text fill="#000000" font-family="sans-serif" font-size="13" font-weight="bold" lengthAdjust="spacing" textLength="285" x="896.5" y="909.8481">Development &amp; Validation (G-6 to G-4)</text><line style="stroke:#000000;stroke-width:1.0;" x1="1332.5" x2="1374.5" y1="948.0469" y2="948.0469"/><line style="stroke:#000000;stroke-width:1.0;" x1="1374.5" x2="1374.5" y1="948.0469" y2="961.0469"/><line style="stroke:#000000;stroke-width:1.0;" x1="1333.5" x2="1374.5" y1="961.0469" y2="961.0469"/><polygon fill="#000000" points="1343.5,957.0469,1333.5,961.0469,1343.5,965.0469,1339.5,961.0469" style="stroke:#000000;stroke-width:1.0;"/><text fill="#000000" font-family="sans-serif" font-size="13" lengthAdjust="spacing" textLength="180" x="1339.5" y="942.981">Code &amp; unit test AI modules</text><polygon fill="#000000" points="1606.5,986.1797,1616.5,990.1797,1606.5,994.1797,1610.5,990.1797" style="stroke:#000000;stroke-width:1.0;"/><line style="stroke:#000000;stroke-width:1.0;" x1="1332.5" x2="1612.5" y1="990.1797" y2="990.1797"/><text fill="#000000" font-family="sans-serif" font-size="13" lengthAdjust="spacing" textLength="223" x="1339.5" y="985.1138">Turn over to QA for integration test</text><polygon fill="#000000" points="1343.5,1015.3125,1333.5,1019.3125,1343.5,1023.3125,1339.5,1019.3125" style="stroke:#000000;stroke-width:1.0;"/><line style="stroke:#000000;stroke-width:1.0;" x1="1337.5" x2="1617.5" y1="1019.3125" y2="1019.3125"/><text fill="#000000" font-family="sans-serif" font-size="13" lengthAdjust="spacing" textLength="121" x="1349.5" y="1014.2466">if (Defects) then fix</text><rect fill="#EEEEEE" height="3" style="stroke:#EEEEEE;stroke-width:1.0;" width="2085" x="0" y="1047.8789"/><line style="stroke:#000000;stroke-width:1.0;" x1="0" x2="2085" y1="1047.8789" y2="1047.8789"/><line style="stroke:#000000;stroke-width:1.0;" x1="0" x2="2085" y1="1050.8789" y2="1050.8789"/><rect fill="#EEEEEE" height="23.1328" style="stroke:#000000;stroke-width:2.0;" width="199" x="943" y="1037.3125"/><text fill="#000000" font-family="sans-serif" font-size="13" font-weight="bold" lengthAdjust="spacing" textLength="180" x="949" y="1053.3794">Gate 4: Begin Validation</text><polygon fill="#000000" points="502,1087.5781,492,1091.5781,502,1095.5781,498,1091.5781" style="stroke:#000000;stroke-width:1.0;"/><line style="stroke:#000000;stroke-width:1.0;" x1="496" x2="1617.5" y1="1091.5781" y2="1091.5781"/><text fill="#000000" font-family="sans-serif" font-size="13" lengthAdjust="spacing" textLength="220" x="508" y="1086.5122">Approve readiness for system test</text><polygon fill="#000000" points="970.5,1116.7109,980.5,1120.7109,970.5,1124.7109,974.5,1120.7109" style="stroke:#000000;stroke-width:1.0;"/><line style="stroke:#000000;stroke-width:1.0;" x1="491" x2="976.5" y1="1120.7109" y2="1120.7109"/><text fill="#000000" font-family="sans-serif" font-size="13" lengthAdjust="spacing" textLength="181" x="498" y="1115.645">Accept move to system test</text><rect fill="#EEEEEE" height="3" style="stroke:#EEEEEE;stroke-width:1.0;" width="2085" x="0" y="1149.2773"/><line style="stroke:#000000;stroke-width:1.0;" x1="0" x2="2085" y1="1149.2773" y2="1149.2773"/><line style="stroke:#000000;stroke-width:1.0;" x1="0" x2="2085" y1="1152.2773" y2="1152.2773"/><rect fill="#EEEEEE" height="23.1328" style="stroke:#000000;stroke-width:2.0;" width="250" x="917.5" y="1138.7109"/><text fill="#000000" font-family="sans-serif" font-size="13" font-weight="bold" lengthAdjust="spacing" textLength="231" x="923.5" y="1154.7778">System Test &amp; UAT (G-4 to G-2)</text><polygon fill="#000000" points="1343.5,1188.9766,1333.5,1192.9766,1343.5,1196.9766,1339.5,1192.9766" style="stroke:#000000;stroke-width:1.0;"/><line style="stroke:#000000;stroke-width:1.0;" x1="1337.5" x2="1617.5" y1="1192.9766" y2="1192.9766"/><text fill="#000000" font-family="sans-serif" font-size="13" lengthAdjust="spacing" textLength="131" x="1349.5" y="1187.9106">Perform system test</text><polygon fill="#000000" points="1343.5,1218.1094,1333.5,1222.1094,1343.5,1226.1094,1339.5,1222.1094" style="stroke:#000000;stroke-width:1.0;"/><line style="stroke:#000000;stroke-width:1.0;" x1="1337.5" x2="1617.5" y1="1222.1094" y2="1222.1094"/><text fill="#000000" font-family="sans-serif" font-size="13" lengthAdjust="spacing" textLength="153" x="1349.5" y="1217.0435">Log defects, retest fixes</text><polygon fill="#000000" points="1606.5,1247.2422,1616.5,1251.2422,1606.5,1255.2422,1610.5,1251.2422" style="stroke:#000000;stroke-width:1.0;"/><line style="stroke:#000000;stroke-width:1.0;" x1="1332.5" x2="1612.5" y1="1251.2422" y2="1251.2422"/><text fill="#000000" font-family="sans-serif" font-size="13" lengthAdjust="spacing" textLength="122" x="1339.5" y="1246.1763">Provide fixed builds</text><polygon fill="#000000" points="1975,1276.375,1985,1280.375,1975,1284.375,1979,1280.375" style="stroke:#000000;stroke-width:1.0;"/><line style="stroke:#000000;stroke-width:1.0;" x1="838.5" x2="1981" y1="1280.375" y2="1280.375"/><text fill="#000000" font-family="sans-serif" font-size="13" lengthAdjust="spacing" textLength="220" x="845.5" y="1275.3091">Prepare user acceptance test plan</text><polygon fill="#000000" points="849.5,1305.5078,839.5,1309.5078,849.5,1313.5078,845.5,1309.5078" style="stroke:#000000;stroke-width:1.0;"/><line style="stroke:#000000;stroke-width:1.0;" x1="843.5" x2="1986" y1="1309.5078" y2="1309.5078"/><text fill="#000000" font-family="sans-serif" font-size="13" lengthAdjust="spacing" textLength="178" x="855.5" y="1304.4419">Execute UAT with end-users</text><polygon fill="#000000" points="1343.5,1334.6406,1333.5,1338.6406,1343.5,1342.6406,1339.5,1338.6406" style="stroke:#000000;stroke-width:1.0;"/><line style="stroke:#000000;stroke-width:1.0;" x1="1337.5" x2="1986" y1="1338.6406" y2="1338.6406"/><text fill="#000000" font-family="sans-serif" font-size="13" lengthAdjust="spacing" textLength="116" x="1349.5" y="1333.5747">if (UAT defects) fix</text><rect fill="#EEEEEE" height="3" style="stroke:#EEEEEE;stroke-width:1.0;" width="2085" x="0" y="1367.207"/><line style="stroke:#000000;stroke-width:1.0;" x1="0" x2="2085" y1="1367.207" y2="1367.207"/><line style="stroke:#000000;stroke-width:1.0;" x1="0" x2="2085" y1="1370.207" y2="1370.207"/><rect fill="#EEEEEE" height="23.1328" style="stroke:#000000;stroke-width:2.0;" width="194" x="945.5" y="1356.6406"/><text fill="#000000" font-family="sans-serif" font-size="13" font-weight="bold" lengthAdjust="spacing" textLength="175" x="951.5" y="1372.7075">Gate 2: Begin FOA/Beta</text><polygon fill="#000000" points="1975,1406.9063,1985,1410.9063,1975,1414.9063,1979,1410.9063" style="stroke:#000000;stroke-width:1.0;"/><line style="stroke:#000000;stroke-width:1.0;" x1="838.5" x2="1981" y1="1410.9063" y2="1410.9063"/><text fill="#000000" font-family="sans-serif" font-size="13" lengthAdjust="spacing" textLength="125" x="845.5" y="1405.8403">Deploy pilot version</text><polygon fill="#000000" points="849.5,1436.0391,839.5,1440.0391,849.5,1444.0391,845.5,1440.0391" style="stroke:#000000;stroke-width:1.0;"/><line style="stroke:#000000;stroke-width:1.0;" x1="843.5" x2="1986" y1="1440.0391" y2="1440.0391"/><text fill="#000000" font-family="sans-serif" font-size="13" lengthAdjust="spacing" textLength="149" x="855.5" y="1434.9731">Evaluate user feedback</text><rect fill="#EEEEEE" height="3" style="stroke:#EEEEEE;stroke-width:1.0;" width="2085" x="0" y="1468.6055"/><line style="stroke:#000000;stroke-width:1.0;" x1="0" x2="2085" y1="1468.6055" y2="1468.6055"/><line style="stroke:#000000;stroke-width:1.0;" x1="0" x2="2085" y1="1471.6055" y2="1471.6055"/><rect fill="#EEEEEE" height="23.1328" style="stroke:#000000;stroke-width:2.0;" width="290" x="897.5" y="1458.0391"/><text fill="#000000" font-family="sans-serif" font-size="13" font-weight="bold" lengthAdjust="spacing" textLength="271" x="903.5" y="1474.106">FOA/Beta &amp; Deployment (G-2 to G-0)</text><polygon fill="#000000" points="1730,1508.3047,1740,1512.3047,1730,1516.3047,1734,1512.3047" style="stroke:#000000;stroke-width:1.0;"/><line style="stroke:#000000;stroke-width:1.0;" x1="1332.5" x2="1736" y1="1512.3047" y2="1512.3047"/><text fill="#000000" font-family="sans-serif" font-size="13" lengthAdjust="spacing" textLength="111" x="1339.5" y="1507.2388">Provide final build</text><polygon fill="#000000" points="1975,1537.4375,1985,1541.4375,1975,1545.4375,1979,1541.4375" style="stroke:#000000;stroke-width:1.0;"/><line style="stroke:#000000;stroke-width:1.0;" x1="1742" x2="1981" y1="1541.4375" y2="1541.4375"/><text fill="#000000" font-family="sans-serif" font-size="13" lengthAdjust="spacing" textLength="221" x="1749" y="1536.3716">if (Training needed) deliver training</text><polygon fill="#000000" points="1629.5,1566.5703,1619.5,1570.5703,1629.5,1574.5703,1625.5,1570.5703" style="stroke:#000000;stroke-width:1.0;"/><line style="stroke:#000000;stroke-width:1.0;" x1="1623.5" x2="1986" y1="1570.5703" y2="1570.5703"/><text fill="#000000" font-family="sans-serif" font-size="13" lengthAdjust="spacing" textLength="77" x="1635.5" y="1565.5044">Final checks</text><polygon fill="#000000" points="502,1595.7031,492,1599.7031,502,1603.7031,498,1599.7031" style="stroke:#000000;stroke-width:1.0;"/><line style="stroke:#000000;stroke-width:1.0;" x1="496" x2="1617.5" y1="1599.7031" y2="1599.7031"/><text fill="#000000" font-family="sans-serif" font-size="13" lengthAdjust="spacing" textLength="146" x="508" y="1594.6372">Confirm final readiness</text><rect fill="#EEEEEE" height="3" style="stroke:#EEEEEE;stroke-width:1.0;" width="2085" x="0" y="1628.2695"/><line style="stroke:#000000;stroke-width:1.0;" x1="0" x2="2085" y1="1628.2695" y2="1628.2695"/><line style="stroke:#000000;stroke-width:1.0;" x1="0" x2="2085" y1="1631.2695" y2="1631.2695"/><rect fill="#EEEEEE" height="23.1328" style="stroke:#000000;stroke-width:2.0;" width="220" x="932.5" y="1617.7031"/><text fill="#000000" font-family="sans-serif" font-size="13" font-weight="bold" lengthAdjust="spacing" textLength="201" x="938.5" y="1633.77">Gate 0: General Availability</text><polygon fill="#000000" points="88.5,1667.9688,78.5,1671.9688,88.5,1675.9688,84.5,1671.9688" style="stroke:#000000;stroke-width:1.0;"/><line style="stroke:#000000;stroke-width:1.0;" x1="82.5" x2="490" y1="1671.9688" y2="1671.9688"/><text fill="#000000" font-family="sans-serif" font-size="13" lengthAdjust="spacing" textLength="169" x="94.5" y="1666.9028">Approve production rollout</text><polygon fill="#000000" points="2053.5,1697.1016,2063.5,1701.1016,2053.5,1705.1016,2057.5,1701.1016" style="stroke:#000000;stroke-width:1.0;"/><line style="stroke:#000000;stroke-width:1.0;" x1="1742" x2="2059.5" y1="1701.1016" y2="1701.1016"/><text fill="#000000" font-family="sans-serif" font-size="13" lengthAdjust="spacing" textLength="218" x="1749" y="1696.0356">Deploy to production environment</text><polygon fill="#000000" points="1134.5,1726.2344,1124.5,1730.2344,1134.5,1734.2344,1130.5,1730.2344" style="stroke:#000000;stroke-width:1.0;"/><line style="stroke:#000000;stroke-width:1.0;" x1="1128.5" x2="2064.5" y1="1730.2344" y2="1730.2344"/><text fill="#000000" font-family="sans-serif" font-size="13" lengthAdjust="spacing" textLength="107" x="1140.5" y="1725.1685">Project close-out</text><polygon fill="#000000" points="1606.5,1755.3672,1616.5,1759.3672,1606.5,1763.3672,1610.5,1759.3672" style="stroke:#000000;stroke-width:1.0;"/><line style="stroke:#000000;stroke-width:1.0;" x1="1123.5" x2="1612.5" y1="1759.3672" y2="1759.3672"/><text fill="#000000" font-family="sans-serif" font-size="13" lengthAdjust="spacing" textLength="225" x="1130.5" y="1754.3013">Initiate post-implementation review</text><rect fill="#EEEEEE" height="3" style="stroke:#EEEEEE;stroke-width:1.0;" width="2085" x="0" y="1787.9336"/><line style="stroke:#000000;stroke-width:1.0;" x1="0" x2="2085" y1="1787.9336" y2="1787.9336"/><line style="stroke:#000000;stroke-width:1.0;" x1="0" x2="2085" y1="1790.9336" y2="1790.9336"/><rect fill="#EEEEEE" height="23.1328" style="stroke:#000000;stroke-width:2.0;" width="173" x="956" y="1777.3672"/><text fill="#000000" font-family="sans-serif" font-size="13" font-weight="bold" lengthAdjust="spacing" textLength="154" x="962" y="1793.4341">Post Implementation</text><polygon fill="#000000" points="742,1827.6328,732,1831.6328,742,1835.6328,738,1831.6328" style="stroke:#000000;stroke-width:1.0;"/><line style="stroke:#000000;stroke-width:1.0;" x1="736" x2="1617.5" y1="1831.6328" y2="1831.6328"/><text fill="#000000" font-family="sans-serif" font-size="13" lengthAdjust="spacing" textLength="200" x="748" y="1826.5669">Gather lessons learned, finalize</text><polygon fill="#000000" points="198,1856.7656,188,1860.7656,198,1864.7656,194,1860.7656" style="stroke:#000000;stroke-width:1.0;"/><line style="stroke:#000000;stroke-width:1.0;" x1="192" x2="730" y1="1860.7656" y2="1860.7656"/><text fill="#000000" font-family="sans-serif" font-size="13" lengthAdjust="spacing" textLength="281" x="204" y="1855.6997">if (Ethics improvements) track for next cycle</text><!--MD5=[14ae07a9ae4518ec78ba708179b5a286]
@startuml
skinparam sequenceParticipant underline false
skinparam participantBorderColor #000000
skinparam participantBackgroundColor #DDDDDD
skinparam participantFontColor #000000
skinparam sequenceArrowColor #000000
skinparam sequenceBoxBackgroundColor #EEEEEE

title AI-SDLC Program/Project Management Flow

actor "Senior Management" as SM
participant "AI-IRB" as IRB
participant "Project Sponsor" as PS
participant "AI-PMO" as APMO
participant "Product Manager" as ProdM
participant "Program Manager" as PrgM
participant "Project Manager" as PJM
participant "Development" as Dev
participant "Quality Assurance" as QA
participant "Operations" as Ops
participant "Tech Support" as TS

== Project Initiation (G-12 to G-10) ==
SM -> PS: Commission AI project, name Project Sponsor
PS -> ProdM: Request preliminary business requirements
ProdM -> PS: Provide business requirements draft
PS -> IRB: if (High-Risk AI?) then consult AI-IRB
activate IRB
IRB -> PS: Provide guidance/approval or reduce scope
deactivate IRB
PS -> APMO: Summarize scope, cost, schedule
APMO -> PJM: Provide resources/funding guidelines

== Gate 10: Requirements Lock-Down ==
PJM -> QA: Review final business requirements
QA -> PJM: Approve or request changes
SM -> PS: Final sign-off on scope
PS -> PrgM: Confirm move to planning

== Planning & Definition (G-10 to G-6) ==
PJM -> Dev: Gather system requirements
Dev -> QA: Share system requirements for feedback
QA -> PJM: Provide quality plan input
Ops -> PJM: Provide environment/infrastructure details
PJM -> IRB: if (Revised AI scope) then IRB review
IRB -> PJM: OK or rework
PJM -> PS: Summarize final plan, schedule, cost

== Gate 6: Project Lock-Down ==
PS -> SM: Approve overall plan
SM -> PS: Proceed with development

== Development & Validation (G-6 to G-4) ==
Dev -> Dev: Code & unit test AI modules
Dev -> QA: Turn over to QA for integration test
QA -> Dev: if (Defects) then fix

== Gate 4: Begin Validation ==
QA -> PS: Approve readiness for system test
PS -> PrgM: Accept move to system test

== System Test & UAT (G-4 to G-2) ==
QA -> Dev: Perform system test
QA -> Dev: Log defects, retest fixes
Dev -> QA: Provide fixed builds


ProdM -> TS: Prepare user acceptance test plan
TS -> ProdM: Execute UAT with end-users
TS -> Dev: if (UAT defects) fix


== Gate 2: Begin FOA/Beta ==
ProdM -> TS: Deploy pilot version
TS -> ProdM: Evaluate user feedback

== FOA/Beta & Deployment (G-2 to G-0) ==
Dev -> Ops: Provide final build
Ops -> TS: if (Training needed) deliver training
TS -> QA: Final checks
QA -> PS: Confirm final readiness

== Gate 0: General Availability ==
PS -> SM: Approve production rollout
Ops -> All: Deploy to production environment
All -> PJM: Project close-out
PJM -> QA: Initiate post-implementation review

== Post Implementation ==
QA -> APMO: Gather lessons learned, finalize
APMO -> IRB: if (Ethics improvements) track for next cycle
@enduml

PlantUML version 1.2022.7(Mon Aug 22 17:01:30 UTC 2022)
(GPL source distribution)
Java Runtime: OpenJDK Runtime Environment
JVM: OpenJDK 64-Bit Server VM
Default Encoding: UTF-8
Language: en
Country: null
--></g></svg>