<?xml version="1.0" encoding="UTF-8" standalone="no"?><svg xmlns="http://www.w3.org/2000/svg" xmlns:xlink="http://www.w3.org/1999/xlink" contentStyleType="text/css" height="1778px" preserveAspectRatio="none" style="width:1837px;height:1778px;background:#FFFFFF;" version="1.1" viewBox="0 0 1837 1778" width="1837px" zoomAndPan="magnify"><defs/><g><rect fill="none" height="26.2969" id="_title" style="stroke:none;stroke-width:1.0;" width="289" x="773.5" y="10"/><text fill="#000000" font-family="sans-serif" font-size="14" font-weight="bold" lengthAdjust="spacing" textLength="279" x="778.5" y="27.9951">AI-IRB Governed AI-SDLC Sequence</text><rect fill="none" height="104.2031" style="stroke:#000000;stroke-width:1.5;" width="407" x="150" y="193.8594"/><rect fill="none" height="104.2031" style="stroke:#000000;stroke-width:1.5;" width="684.5" x="150" y="517.125"/><rect fill="none" height="75.3984" style="stroke:#000000;stroke-width:1.5;" width="486" x="723.5" y="750.8594"/><rect fill="none" height="104.2031" style="stroke:#000000;stroke-width:1.5;" width="407" x="150" y="1073.3203"/><rect fill="none" height="104.5313" style="stroke:#000000;stroke-width:1.5;" width="1059.5" x="150" y="1457.7188"/><rect fill="none" height="104.5313" style="stroke:#000000;stroke-width:1.5;" width="1291" x="150" y="1576.25"/><line style="stroke:#181818;stroke-width:0.5;stroke-dasharray:5.0,5.0;" x1="77" x2="77" y1="118.5938" y2="1697.7813"/><line style="stroke:#181818;stroke-width:0.5;stroke-dasharray:5.0,5.0;" x1="183" x2="183" y1="118.5938" y2="1697.7813"/><line style="stroke:#181818;stroke-width:0.5;stroke-dasharray:5.0,5.0;" x1="488" x2="488" y1="118.5938" y2="1697.7813"/><line style="stroke:#181818;stroke-width:0.5;stroke-dasharray:5.0,5.0;" x1="778.5" x2="778.5" y1="118.5938" y2="1697.7813"/><line style="stroke:#181818;stroke-width:0.5;stroke-dasharray:5.0,5.0;" x1="1134.5" x2="1134.5" y1="118.5938" y2="1697.7813"/><line style="stroke:#181818;stroke-width:0.5;stroke-dasharray:5.0,5.0;" x1="1390" x2="1390" y1="118.5938" y2="1697.7813"/><line style="stroke:#181818;stroke-width:0.5;stroke-dasharray:5.0,5.0;" x1="1651.5" x2="1651.5" y1="118.5938" y2="1697.7813"/><text fill="#000000" font-family="sans-serif" font-size="14" lengthAdjust="spacing" textLength="139" x="5" y="115.292">Senior Management</text><ellipse cx="77.5" cy="50.7969" fill="#E2E2F0" rx="8" ry="8" style="stroke:#181818;stroke-width:0.5;"/><path d="M77.5,58.7969 L77.5,85.7969 M64.5,66.7969 L90.5,66.7969 M77.5,85.7969 L64.5,100.7969 M77.5,85.7969 L90.5,100.7969 " fill="none" style="stroke:#181818;stroke-width:0.5;"/><text fill="#000000" font-family="sans-serif" font-size="14" lengthAdjust="spacing" textLength="139" x="5" y="1709.7764">Senior Management</text><ellipse cx="77.5" cy="1721.5781" fill="#E2E2F0" rx="8" ry="8" style="stroke:#181818;stroke-width:0.5;"/><path d="M77.5,1729.5781 L77.5,1756.5781 M64.5,1737.5781 L90.5,1737.5781 M77.5,1756.5781 L64.5,1771.5781 M77.5,1756.5781 L90.5,1771.5781 " fill="none" style="stroke:#181818;stroke-width:0.5;"/><text fill="#000000" font-family="sans-serif" font-size="14" lengthAdjust="spacing" textLength="40" x="160" y="115.292">AI-IRB</text><ellipse cx="183" cy="50.7969" fill="#E2E2F0" rx="8" ry="8" style="stroke:#181818;stroke-width:0.5;"/><path d="M183,58.7969 L183,85.7969 M170,66.7969 L196,66.7969 M183,85.7969 L170,100.7969 M183,85.7969 L196,100.7969 " fill="none" style="stroke:#181818;stroke-width:0.5;"/><text fill="#000000" font-family="sans-serif" font-size="14" lengthAdjust="spacing" textLength="40" x="160" y="1709.7764">AI-IRB</text><ellipse cx="183" cy="1721.5781" fill="#E2E2F0" rx="8" ry="8" style="stroke:#181818;stroke-width:0.5;"/><path d="M183,1729.5781 L183,1756.5781 M170,1737.5781 L196,1737.5781 M183,1756.5781 L170,1771.5781 M183,1756.5781 L196,1771.5781 " fill="none" style="stroke:#181818;stroke-width:0.5;"/><text fill="#000000" font-family="sans-serif" font-size="14" lengthAdjust="spacing" textLength="112" x="429" y="115.292">Project Manager</text><ellipse cx="488" cy="50.7969" fill="#E2E2F0" rx="8" ry="8" style="stroke:#181818;stroke-width:0.5;"/><path d="M488,58.7969 L488,85.7969 M475,66.7969 L501,66.7969 M488,85.7969 L475,100.7969 M488,85.7969 L501,100.7969 " fill="none" style="stroke:#181818;stroke-width:0.5;"/><text fill="#000000" font-family="sans-serif" font-size="14" lengthAdjust="spacing" textLength="112" x="429" y="1709.7764">Project Manager</text><ellipse cx="488" cy="1721.5781" fill="#E2E2F0" rx="8" ry="8" style="stroke:#181818;stroke-width:0.5;"/><path d="M488,1729.5781 L488,1756.5781 M475,1737.5781 L501,1737.5781 M488,1756.5781 L475,1771.5781 M488,1756.5781 L501,1771.5781 " fill="none" style="stroke:#181818;stroke-width:0.5;"/><text fill="#000000" font-family="sans-serif" font-size="14" lengthAdjust="spacing" textLength="85" x="733.5" y="115.292">Product Dev</text><ellipse cx="779" cy="50.7969" fill="#E2E2F0" rx="8" ry="8" style="stroke:#181818;stroke-width:0.5;"/><path d="M779,58.7969 L779,85.7969 M766,66.7969 L792,66.7969 M779,85.7969 L766,100.7969 M779,85.7969 L792,100.7969 " fill="none" style="stroke:#181818;stroke-width:0.5;"/><text fill="#000000" font-family="sans-serif" font-size="14" lengthAdjust="spacing" textLength="85" x="733.5" y="1709.7764">Product Dev</text><ellipse cx="779" cy="1721.5781" fill="#E2E2F0" rx="8" ry="8" style="stroke:#181818;stroke-width:0.5;"/><path d="M779,1729.5781 L779,1756.5781 M766,1737.5781 L792,1737.5781 M779,1756.5781 L766,1771.5781 M779,1756.5781 L792,1771.5781 " fill="none" style="stroke:#181818;stroke-width:0.5;"/><text fill="#000000" font-family="sans-serif" font-size="14" lengthAdjust="spacing" textLength="123" x="1070.5" y="115.292">Quality Assurance</text><ellipse cx="1135" cy="50.7969" fill="#E2E2F0" rx="8" ry="8" style="stroke:#181818;stroke-width:0.5;"/><path d="M1135,58.7969 L1135,85.7969 M1122,66.7969 L1148,66.7969 M1135,85.7969 L1122,100.7969 M1135,85.7969 L1148,100.7969 " fill="none" style="stroke:#181818;stroke-width:0.5;"/><text fill="#000000" font-family="sans-serif" font-size="14" lengthAdjust="spacing" textLength="123" x="1070.5" y="1709.7764">Quality Assurance</text><ellipse cx="1135" cy="1721.5781" fill="#E2E2F0" rx="8" ry="8" style="stroke:#181818;stroke-width:0.5;"/><path d="M1135,1729.5781 L1135,1756.5781 M1122,1737.5781 L1148,1737.5781 M1135,1756.5781 L1122,1771.5781 M1135,1756.5781 L1148,1771.5781 " fill="none" style="stroke:#181818;stroke-width:0.5;"/><text fill="#000000" font-family="sans-serif" font-size="14" lengthAdjust="spacing" textLength="76" x="1349" y="115.292">Operations</text><ellipse cx="1390" cy="50.7969" fill="#E2E2F0" rx="8" ry="8" style="stroke:#181818;stroke-width:0.5;"/><path d="M1390,58.7969 L1390,85.7969 M1377,66.7969 L1403,66.7969 M1390,85.7969 L1377,100.7969 M1390,85.7969 L1403,100.7969 " fill="none" style="stroke:#181818;stroke-width:0.5;"/><text fill="#000000" font-family="sans-serif" font-size="14" lengthAdjust="spacing" textLength="76" x="1349" y="1709.7764">Operations</text><ellipse cx="1390" cy="1721.5781" fill="#E2E2F0" rx="8" ry="8" style="stroke:#181818;stroke-width:0.5;"/><path d="M1390,1729.5781 L1390,1756.5781 M1377,1737.5781 L1403,1737.5781 M1390,1756.5781 L1377,1771.5781 M1390,1756.5781 L1403,1771.5781 " fill="none" style="stroke:#181818;stroke-width:0.5;"/><text fill="#000000" font-family="sans-serif" font-size="14" lengthAdjust="spacing" textLength="125" x="1586.5" y="115.292">Technical Support</text><ellipse cx="1652" cy="50.7969" fill="#E2E2F0" rx="8" ry="8" style="stroke:#181818;stroke-width:0.5;"/><path d="M1652,58.7969 L1652,85.7969 M1639,66.7969 L1665,66.7969 M1652,85.7969 L1639,100.7969 M1652,85.7969 L1665,100.7969 " fill="none" style="stroke:#181818;stroke-width:0.5;"/><text fill="#000000" font-family="sans-serif" font-size="14" lengthAdjust="spacing" textLength="125" x="1586.5" y="1709.7764">Technical Support</text><ellipse cx="1652" cy="1721.5781" fill="#E2E2F0" rx="8" ry="8" style="stroke:#181818;stroke-width:0.5;"/><path d="M1652,1729.5781 L1652,1756.5781 M1639,1737.5781 L1665,1737.5781 M1652,1756.5781 L1639,1771.5781 M1652,1756.5781 L1665,1771.5781 " fill="none" style="stroke:#181818;stroke-width:0.5;"/><polygon fill="#181818" points="476,145.7266,486,149.7266,476,153.7266,480,149.7266" style="stroke:#181818;stroke-width:1.0;"/><line style="stroke:#181818;stroke-width:1.0;" x1="77.5" x2="482" y1="149.7266" y2="149.7266"/><text fill="#000000" font-family="sans-serif" font-size="13" lengthAdjust="spacing" textLength="176" x="84.5" y="144.6606">Propose new AI project idea</text><polygon fill="#181818" points="194,174.8594,184,178.8594,194,182.8594,190,178.8594" style="stroke:#181818;stroke-width:1.0;"/><line style="stroke:#181818;stroke-width:1.0;" x1="188" x2="487" y1="178.8594" y2="178.8594"/><text fill="#000000" font-family="sans-serif" font-size="13" lengthAdjust="spacing" textLength="281" x="200" y="173.7935">Submit high-level proposal for ethical review</text><path d="M150,193.8594 L214,193.8594 L214,200.9922 L204,210.9922 L150,210.9922 L150,193.8594 " fill="#EEEEEE" style="stroke:#000000;stroke-width:1.5;"/><rect fill="none" height="104.2031" style="stroke:#000000;stroke-width:1.5;" width="407" x="150" y="193.8594"/><text fill="#000000" font-family="sans-serif" font-size="13" font-weight="bold" lengthAdjust="spacing" textLength="19" x="165" y="206.9263">alt</text><text fill="#000000" font-family="sans-serif" font-size="11" font-weight="bold" lengthAdjust="spacing" textLength="90" x="229" y="206.0698">[IRBApproves]</text><polygon fill="#181818" points="476,228.125,486,232.125,476,236.125,480,232.125" style="stroke:#181818;stroke-width:1.0;"/><line style="stroke:#181818;stroke-width:1.0;" x1="183" x2="482" y1="232.125" y2="232.125"/><text fill="#000000" font-family="sans-serif" font-size="13" lengthAdjust="spacing" textLength="154" x="190" y="227.0591">Approval with conditions</text><line style="stroke:#000000;stroke-width:1.0;stroke-dasharray:2.0,2.0;" x1="150" x2="557" y1="241.125" y2="241.125"/><text fill="#000000" font-family="sans-serif" font-size="11" font-weight="bold" lengthAdjust="spacing" textLength="75" x="155" y="251.3354">[IRBDenies]</text><polygon fill="#181818" points="476,272.0625,486,276.0625,476,280.0625,480,276.0625" style="stroke:#181818;stroke-width:1.0;"/><line style="stroke:#181818;stroke-width:1.0;" x1="183" x2="482" y1="276.0625" y2="276.0625"/><text fill="#000000" font-family="sans-serif" font-size="13" lengthAdjust="spacing" textLength="174" x="190" y="270.9966">Request changes or rejects</text><polygon fill="#181818" points="194,286.0625,184,290.0625,194,294.0625,190,290.0625" style="stroke:#181818;stroke-width:1.0;"/><line style="stroke:#181818;stroke-width:1.0;stroke-dasharray:2.0,2.0;" x1="188" x2="487" y1="290.0625" y2="290.0625"/><polygon fill="#181818" points="767,337.3281,777,341.3281,767,345.3281,771,341.3281" style="stroke:#181818;stroke-width:1.0;"/><line style="stroke:#181818;stroke-width:1.0;" x1="488" x2="773" y1="341.3281" y2="341.3281"/><text fill="#000000" font-family="sans-serif" font-size="13" lengthAdjust="spacing" textLength="229" x="495" y="321.1294">Provide project scope/cost/schedule</text><text fill="#000000" font-family="sans-serif" font-size="13" lengthAdjust="spacing" textLength="180" x="495" y="336.2622">(Including IRB requirements)</text><polygon fill="#181818" points="1123,381.5938,1133,385.5938,1123,389.5938,1127,385.5938" style="stroke:#181818;stroke-width:1.0;"/><line style="stroke:#181818;stroke-width:1.0;" x1="779" x2="1129" y1="385.5938" y2="385.5938"/><text fill="#000000" font-family="sans-serif" font-size="13" lengthAdjust="spacing" textLength="179" x="786" y="365.395">Share preliminary functional</text><text fill="#000000" font-family="sans-serif" font-size="13" lengthAdjust="spacing" textLength="152" x="786" y="380.5278">&amp; system requirements</text><polygon fill="#181818" points="1378,410.7266,1388,414.7266,1378,418.7266,1382,414.7266" style="stroke:#181818;stroke-width:1.0;"/><line style="stroke:#181818;stroke-width:1.0;" x1="1135" x2="1384" y1="414.7266" y2="414.7266"/><text fill="#000000" font-family="sans-serif" font-size="13" lengthAdjust="spacing" textLength="231" x="1142" y="409.6606">Provide input on environment needs</text><polygon fill="#181818" points="1640,439.8594,1650,443.8594,1640,447.8594,1644,443.8594" style="stroke:#181818;stroke-width:1.0;"/><line style="stroke:#181818;stroke-width:1.0;" x1="1390" x2="1646" y1="443.8594" y2="443.8594"/><text fill="#000000" font-family="sans-serif" font-size="13" lengthAdjust="spacing" textLength="238" x="1397" y="438.7935">Collaborate on training and docs plan</text><polygon fill="#181818" points="767,468.9922,777,472.9922,767,476.9922,771,472.9922" style="stroke:#181818;stroke-width:1.0;"/><line style="stroke:#181818;stroke-width:1.0;" x1="488" x2="773" y1="472.9922" y2="472.9922"/><text fill="#000000" font-family="sans-serif" font-size="13" lengthAdjust="spacing" textLength="267" x="495" y="467.9263">Refine resource assignment and schedule</text><polygon fill="#181818" points="194,498.125,184,502.125,194,506.125,190,502.125" style="stroke:#181818;stroke-width:1.0;"/><line style="stroke:#181818;stroke-width:1.0;" x1="188" x2="778" y1="502.125" y2="502.125"/><text fill="#000000" font-family="sans-serif" font-size="13" lengthAdjust="spacing" textLength="266" x="200" y="497.0591">Request partial re-check if scope changes</text><path d="M150,517.125 L214,517.125 L214,524.2578 L204,534.2578 L150,534.2578 L150,517.125 " fill="#EEEEEE" style="stroke:#000000;stroke-width:1.5;"/><rect fill="none" height="104.2031" style="stroke:#000000;stroke-width:1.5;" width="684.5" x="150" y="517.125"/><text fill="#000000" font-family="sans-serif" font-size="13" font-weight="bold" lengthAdjust="spacing" textLength="19" x="165" y="530.1919">alt</text><text fill="#000000" font-family="sans-serif" font-size="11" font-weight="bold" lengthAdjust="spacing" textLength="194" x="229" y="529.3354">[IRBApprovesAdditionalScope]</text><polygon fill="#181818" points="767,551.3906,777,555.3906,767,559.3906,771,555.3906" style="stroke:#181818;stroke-width:1.0;"/><line style="stroke:#181818;stroke-width:1.0;" x1="183" x2="773" y1="555.3906" y2="555.3906"/><text fill="#000000" font-family="sans-serif" font-size="13" lengthAdjust="spacing" textLength="168" x="190" y="550.3247">Additional scope accepted</text><line style="stroke:#000000;stroke-width:1.0;stroke-dasharray:2.0,2.0;" x1="150" x2="834.5" y1="564.3906" y2="564.3906"/><text fill="#000000" font-family="sans-serif" font-size="11" font-weight="bold" lengthAdjust="spacing" textLength="190" x="155" y="574.6011">[IRBRequiresFurtherChanges]</text><polygon fill="#181818" points="767,595.3281,777,599.3281,767,603.3281,771,599.3281" style="stroke:#181818;stroke-width:1.0;"/><line style="stroke:#181818;stroke-width:1.0;" x1="183" x2="773" y1="599.3281" y2="599.3281"/><text fill="#000000" font-family="sans-serif" font-size="13" lengthAdjust="spacing" textLength="137" x="190" y="594.2622">Must revise approach</text><polygon fill="#181818" points="194,609.3281,184,613.3281,194,617.3281,190,613.3281" style="stroke:#181818;stroke-width:1.0;"/><line style="stroke:#181818;stroke-width:1.0;stroke-dasharray:2.0,2.0;" x1="188" x2="778" y1="613.3281" y2="613.3281"/><polygon fill="#181818" points="1123,645.4609,1133,649.4609,1123,653.4609,1127,649.4609" style="stroke:#181818;stroke-width:1.0;"/><line style="stroke:#181818;stroke-width:1.0;" x1="779" x2="1129" y1="649.4609" y2="649.4609"/><text fill="#000000" font-family="sans-serif" font-size="13" lengthAdjust="spacing" textLength="332" x="786" y="644.395">Deliver code increments for smoke/integration tests</text><polygon fill="#181818" points="790,689.7266,780,693.7266,790,697.7266,786,693.7266" style="stroke:#181818;stroke-width:1.0;"/><line style="stroke:#181818;stroke-width:1.0;" x1="784" x2="1134" y1="693.7266" y2="693.7266"/><text fill="#000000" font-family="sans-serif" font-size="13" lengthAdjust="spacing" textLength="149" x="796" y="673.5278">Integration test results,</text><text fill="#000000" font-family="sans-serif" font-size="13" lengthAdjust="spacing" textLength="67" x="796" y="688.6606">Log issues</text><line style="stroke:#181818;stroke-width:1.0;" x1="779" x2="821" y1="722.8594" y2="722.8594"/><line style="stroke:#181818;stroke-width:1.0;" x1="821" x2="821" y1="722.8594" y2="735.8594"/><line style="stroke:#181818;stroke-width:1.0;" x1="780" x2="821" y1="735.8594" y2="735.8594"/><polygon fill="#181818" points="790,731.8594,780,735.8594,790,739.8594,786,735.8594" style="stroke:#181818;stroke-width:1.0;"/><text fill="#000000" font-family="sans-serif" font-size="13" lengthAdjust="spacing" textLength="147" x="786" y="717.7935">Fix code issues, rebuild</text><path d="M723.5,750.8594 L800.5,750.8594 L800.5,757.9922 L790.5,767.9922 L723.5,767.9922 L723.5,750.8594 " fill="#EEEEEE" style="stroke:#000000;stroke-width:1.5;"/><rect fill="none" height="75.3984" style="stroke:#000000;stroke-width:1.5;" width="486" x="723.5" y="750.8594"/><text fill="#000000" font-family="sans-serif" font-size="13" font-weight="bold" lengthAdjust="spacing" textLength="32" x="738.5" y="763.9263">loop</text><text fill="#000000" font-family="sans-serif" font-size="11" font-weight="bold" lengthAdjust="spacing" textLength="65" x="815.5" y="763.0698">[Iteration]</text><polygon fill="#181818" points="1123,785.125,1133,789.125,1123,793.125,1127,789.125" style="stroke:#181818;stroke-width:1.0;"/><line style="stroke:#181818;stroke-width:1.0;" x1="779" x2="1129" y1="789.125" y2="789.125"/><text fill="#000000" font-family="sans-serif" font-size="13" lengthAdjust="spacing" textLength="139" x="786" y="784.0591">Provide updated code</text><polygon fill="#181818" points="790,814.2578,780,818.2578,790,822.2578,786,818.2578" style="stroke:#181818;stroke-width:1.0;"/><line style="stroke:#181818;stroke-width:1.0;" x1="784" x2="1134" y1="818.2578" y2="818.2578"/><text fill="#000000" font-family="sans-serif" font-size="13" lengthAdjust="spacing" textLength="108" x="796" y="813.1919">Re-test &amp; accept</text><polygon fill="#181818" points="194,850.3906,184,854.3906,194,858.3906,190,854.3906" style="stroke:#181818;stroke-width:1.0;"/><line style="stroke:#181818;stroke-width:1.0;" x1="188" x2="487" y1="854.3906" y2="854.3906"/><text fill="#000000" font-family="sans-serif" font-size="13" lengthAdjust="spacing" textLength="264" x="200" y="849.3247">Request gate sign-off for major readiness</text><polygon fill="#181818" points="476,879.5234,486,883.5234,476,887.5234,480,883.5234" style="stroke:#181818;stroke-width:1.0;"/><line style="stroke:#181818;stroke-width:1.0;" x1="183" x2="482" y1="883.5234" y2="883.5234"/><text fill="#000000" font-family="sans-serif" font-size="13" lengthAdjust="spacing" textLength="159" x="190" y="878.4575">Ethical readiness sign-off</text><polygon fill="#181818" points="1640,908.6563,1650,912.6563,1640,916.6563,1644,912.6563" style="stroke:#181818;stroke-width:1.0;"/><line style="stroke:#181818;stroke-width:1.0;" x1="488" x2="1646" y1="912.6563" y2="912.6563"/><text fill="#000000" font-family="sans-serif" font-size="13" lengthAdjust="spacing" textLength="198" x="495" y="907.5903">Prepare user training materials</text><polygon fill="#181818" points="790,937.7891,780,941.7891,790,945.7891,786,941.7891" style="stroke:#181818;stroke-width:1.0;"/><line style="stroke:#181818;stroke-width:1.0;" x1="784" x2="1651" y1="941.7891" y2="941.7891"/><text fill="#000000" font-family="sans-serif" font-size="13" lengthAdjust="spacing" textLength="160" x="796" y="936.7231">Confirm final product doc</text><polygon fill="#181818" points="1123,966.9219,1133,970.9219,1123,974.9219,1127,970.9219" style="stroke:#181818;stroke-width:1.0;"/><line style="stroke:#181818;stroke-width:1.0;" x1="779" x2="1129" y1="970.9219" y2="970.9219"/><text fill="#000000" font-family="sans-serif" font-size="13" lengthAdjust="spacing" textLength="264" x="786" y="965.856">Provide final user-facing doc for QA check</text><polygon fill="#181818" points="790,996.0547,780,1000.0547,790,1004.0547,786,1000.0547" style="stroke:#181818;stroke-width:1.0;"/><line style="stroke:#181818;stroke-width:1.0;" x1="784" x2="1134" y1="1000.0547" y2="1000.0547"/><text fill="#000000" font-family="sans-serif" font-size="13" lengthAdjust="spacing" textLength="161" x="796" y="994.9888">Approves documentation</text><polygon fill="#181818" points="1378,1025.1875,1388,1029.1875,1378,1033.1875,1382,1029.1875" style="stroke:#181818;stroke-width:1.0;"/><line style="stroke:#181818;stroke-width:1.0;" x1="779" x2="1384" y1="1029.1875" y2="1029.1875"/><text fill="#000000" font-family="sans-serif" font-size="13" lengthAdjust="spacing" textLength="233" x="786" y="1024.1216">Coordinate final environment checks</text><polygon fill="#181818" points="194,1054.3203,184,1058.3203,194,1062.3203,190,1058.3203" style="stroke:#181818;stroke-width:1.0;"/><line style="stroke:#181818;stroke-width:1.0;" x1="188" x2="487" y1="1058.3203" y2="1058.3203"/><text fill="#000000" font-family="sans-serif" font-size="13" lengthAdjust="spacing" textLength="232" x="200" y="1053.2544">Request final pre-deployment review</text><path d="M150,1073.3203 L214,1073.3203 L214,1080.4531 L204,1090.4531 L150,1090.4531 L150,1073.3203 " fill="#EEEEEE" style="stroke:#000000;stroke-width:1.5;"/><rect fill="none" height="104.2031" style="stroke:#000000;stroke-width:1.5;" width="407" x="150" y="1073.3203"/><text fill="#000000" font-family="sans-serif" font-size="13" font-weight="bold" lengthAdjust="spacing" textLength="19" x="165" y="1086.3872">alt</text><text fill="#000000" font-family="sans-serif" font-size="11" font-weight="bold" lengthAdjust="spacing" textLength="119" x="229" y="1085.5308">[IRBFinalApproval]</text><polygon fill="#181818" points="476,1107.5859,486,1111.5859,476,1115.5859,480,1111.5859" style="stroke:#181818;stroke-width:1.0;"/><line style="stroke:#181818;stroke-width:1.0;" x1="183" x2="482" y1="1111.5859" y2="1111.5859"/><text fill="#000000" font-family="sans-serif" font-size="13" lengthAdjust="spacing" textLength="144" x="190" y="1106.52">Deployment clearance</text><line style="stroke:#000000;stroke-width:1.0;stroke-dasharray:2.0,2.0;" x1="150" x2="557" y1="1120.5859" y2="1120.5859"/><text fill="#000000" font-family="sans-serif" font-size="11" font-weight="bold" lengthAdjust="spacing" textLength="153" x="155" y="1130.7964">[IRBRejectForRevisions]</text><polygon fill="#181818" points="476,1151.5234,486,1155.5234,476,1159.5234,480,1155.5234" style="stroke:#181818;stroke-width:1.0;"/><line style="stroke:#181818;stroke-width:1.0;" x1="183" x2="482" y1="1155.5234" y2="1155.5234"/><text fill="#000000" font-family="sans-serif" font-size="13" lengthAdjust="spacing" textLength="166" x="190" y="1150.4575">Must re-address concerns</text><polygon fill="#181818" points="194,1165.5234,184,1169.5234,194,1173.5234,190,1169.5234" style="stroke:#181818;stroke-width:1.0;"/><line style="stroke:#181818;stroke-width:1.0;stroke-dasharray:2.0,2.0;" x1="188" x2="487" y1="1169.5234" y2="1169.5234"/><polygon fill="#181818" points="1378,1201.6563,1388,1205.6563,1378,1209.6563,1382,1205.6563" style="stroke:#181818;stroke-width:1.0;"/><line style="stroke:#181818;stroke-width:1.0;" x1="488" x2="1384" y1="1205.6563" y2="1205.6563"/><text fill="#000000" font-family="sans-serif" font-size="13" lengthAdjust="spacing" textLength="125" x="495" y="1200.5903">Initiate Deployment</text><polygon fill="#181818" points="1146,1230.7891,1136,1234.7891,1146,1238.7891,1142,1234.7891" style="stroke:#181818;stroke-width:1.0;"/><line style="stroke:#181818;stroke-width:1.0;" x1="1140" x2="1389" y1="1234.7891" y2="1234.7891"/><text fill="#000000" font-family="sans-serif" font-size="13" lengthAdjust="spacing" textLength="168" x="1152" y="1229.7231">Final verification in staging</text><polygon fill="#181818" points="1378,1259.9219,1388,1263.9219,1378,1267.9219,1382,1263.9219" style="stroke:#181818;stroke-width:1.0;"/><line style="stroke:#181818;stroke-width:1.0;" x1="1135" x2="1384" y1="1263.9219" y2="1263.9219"/><text fill="#000000" font-family="sans-serif" font-size="13" lengthAdjust="spacing" textLength="171" x="1142" y="1258.856">Confirms staging test pass</text><line style="stroke:#181818;stroke-width:1.0;" x1="1390" x2="1432" y1="1293.0547" y2="1293.0547"/><line style="stroke:#181818;stroke-width:1.0;" x1="1432" x2="1432" y1="1293.0547" y2="1306.0547"/><line style="stroke:#181818;stroke-width:1.0;" x1="1391" x2="1432" y1="1306.0547" y2="1306.0547"/><polygon fill="#181818" points="1401,1302.0547,1391,1306.0547,1401,1310.0547,1397,1306.0547" style="stroke:#181818;stroke-width:1.0;"/><text fill="#000000" font-family="sans-serif" font-size="13" lengthAdjust="spacing" textLength="174" x="1397" y="1287.9888">Release code to production</text><polygon fill="#181818" points="790,1331.1875,780,1335.1875,790,1339.1875,786,1335.1875" style="stroke:#181818;stroke-width:1.0;"/><line style="stroke:#181818;stroke-width:1.0;" x1="784" x2="1389" y1="1335.1875" y2="1335.1875"/><text fill="#000000" font-family="sans-serif" font-size="13" lengthAdjust="spacing" textLength="189" x="796" y="1330.1216">Notify Dev of production push</text><line style="stroke:#181818;stroke-width:1.0;" x1="1652" x2="1694" y1="1364.3203" y2="1364.3203"/><line style="stroke:#181818;stroke-width:1.0;" x1="1694" x2="1694" y1="1364.3203" y2="1377.3203"/><line style="stroke:#181818;stroke-width:1.0;" x1="1653" x2="1694" y1="1377.3203" y2="1377.3203"/><polygon fill="#181818" points="1663,1373.3203,1653,1377.3203,1663,1381.3203,1659,1377.3203" style="stroke:#181818;stroke-width:1.0;"/><text fill="#000000" font-family="sans-serif" font-size="13" lengthAdjust="spacing" textLength="171" x="1659" y="1359.2544">Begin user training classes</text><polygon fill="#181818" points="194,1420.5859,184,1424.5859,194,1428.5859,190,1424.5859" style="stroke:#181818;stroke-width:1.0;"/><line style="stroke:#181818;stroke-width:1.0;" x1="188" x2="778" y1="1424.5859" y2="1424.5859"/><text fill="#000000" font-family="sans-serif" font-size="13" lengthAdjust="spacing" textLength="221" x="200" y="1419.52">Confirm production rollout success</text><path d="M784,1390.3203 L784,1445.3203 L1109,1445.3203 L1109,1400.3203 L1099,1390.3203 L784,1390.3203 " fill="#FEFFDD" style="stroke:#181818;stroke-width:0.5;"/><path d="M1099,1390.3203 L1099,1400.3203 L1109,1400.3203 L1099,1390.3203 " fill="#FEFFDD" style="stroke:#181818;stroke-width:0.5;"/><text fill="#000000" font-family="sans-serif" font-size="13" lengthAdjust="spacing" textLength="115" x="790" y="1407.3872">Post-Deployment:</text><text fill="#000000" font-family="sans-serif" font-size="13" lengthAdjust="spacing" textLength="282" x="790" y="1422.52">- Monitor system performance &amp; model drift</text><text fill="#000000" font-family="sans-serif" font-size="13" lengthAdjust="spacing" textLength="304" x="790" y="1437.6528">- IRB re-check if major incidents or new features</text><path d="M150,1457.7188 L214,1457.7188 L214,1464.8516 L204,1474.8516 L150,1474.8516 L150,1457.7188 " fill="#EEEEEE" style="stroke:#000000;stroke-width:1.5;"/><rect fill="none" height="104.5313" style="stroke:#000000;stroke-width:1.5;" width="1059.5" x="150" y="1457.7188"/><text fill="#000000" font-family="sans-serif" font-size="13" font-weight="bold" lengthAdjust="spacing" textLength="19" x="165" y="1470.7856">alt</text><text fill="#000000" font-family="sans-serif" font-size="11" font-weight="bold" lengthAdjust="spacing" textLength="188" x="229" y="1469.9292">[System or model drift found]</text><polygon fill="#181818" points="790,1491.9844,780,1495.9844,790,1499.9844,786,1495.9844" style="stroke:#181818;stroke-width:1.0;"/><line style="stroke:#181818;stroke-width:1.0;" x1="784" x2="1134" y1="1495.9844" y2="1495.9844"/><text fill="#000000" font-family="sans-serif" font-size="13" lengthAdjust="spacing" textLength="136" x="796" y="1490.9185">Found significant drift</text><polygon fill="#181818" points="194,1521.1172,184,1525.1172,194,1529.1172,190,1525.1172" style="stroke:#181818;stroke-width:1.0;"/><line style="stroke:#181818;stroke-width:1.0;" x1="188" x2="778" y1="1525.1172" y2="1525.1172"/><text fill="#000000" font-family="sans-serif" font-size="13" lengthAdjust="spacing" textLength="135" x="200" y="1520.0513">Request re-validation</text><polygon fill="#181818" points="767,1550.25,777,1554.25,767,1558.25,771,1554.25" style="stroke:#181818;stroke-width:1.0;"/><line style="stroke:#181818;stroke-width:1.0;" x1="183" x2="773" y1="1554.25" y2="1554.25"/><text fill="#000000" font-family="sans-serif" font-size="13" lengthAdjust="spacing" textLength="154" x="190" y="1549.1841">Re-approval after review</text><path d="M150,1576.25 L214,1576.25 L214,1583.3828 L204,1593.3828 L150,1593.3828 L150,1576.25 " fill="#EEEEEE" style="stroke:#000000;stroke-width:1.5;"/><rect fill="none" height="104.5313" style="stroke:#000000;stroke-width:1.5;" width="1291" x="150" y="1576.25"/><text fill="#000000" font-family="sans-serif" font-size="13" font-weight="bold" lengthAdjust="spacing" textLength="19" x="165" y="1589.3169">alt</text><text fill="#000000" font-family="sans-serif" font-size="11" font-weight="bold" lengthAdjust="spacing" textLength="80" x="229" y="1588.4604">[Retirement]</text><polygon fill="#181818" points="194,1610.5156,184,1614.5156,194,1618.5156,190,1614.5156" style="stroke:#181818;stroke-width:1.0;"/><line style="stroke:#181818;stroke-width:1.0;" x1="188" x2="778" y1="1614.5156" y2="1614.5156"/><text fill="#000000" font-family="sans-serif" font-size="13" lengthAdjust="spacing" textLength="140" x="200" y="1609.4497">Request EOL approval</text><polygon fill="#181818" points="767,1639.6484,777,1643.6484,767,1647.6484,771,1643.6484" style="stroke:#181818;stroke-width:1.0;"/><line style="stroke:#181818;stroke-width:1.0;" x1="183" x2="773" y1="1643.6484" y2="1643.6484"/><text fill="#000000" font-family="sans-serif" font-size="13" lengthAdjust="spacing" textLength="155" x="190" y="1638.5825">Provide final acceptance</text><polygon fill="#181818" points="1378,1668.7813,1388,1672.7813,1378,1676.7813,1382,1672.7813" style="stroke:#181818;stroke-width:1.0;"/><line style="stroke:#181818;stroke-width:1.0;" x1="779" x2="1384" y1="1672.7813" y2="1672.7813"/><text fill="#000000" font-family="sans-serif" font-size="13" lengthAdjust="spacing" textLength="139" x="786" y="1667.7153">Decommission model</text><!--MD5=[2315cfc20ecd68591908b109e304b93d]
@startuml
title AI-IRB Governed AI-SDLC Sequence

actor "Senior Management" as SM
actor "AI-IRB" as IRB
actor "Project Manager" as PM
actor "Product Dev" as PD
actor "Quality Assurance" as QA
actor "Operations" as OP
actor "Technical Support" as TS

SM -> PM: Propose new AI project idea
PM -> IRB: Submit high-level proposal for ethical review
alt IRBApproves
    IRB -> PM: Approval with conditions
else IRBDenies
    IRB -> PM: Request changes or rejects
    return
end

PM -> PD: Provide project scope/cost/schedule\n(Including IRB requirements)
PD -> QA: Share preliminary functional\n& system requirements
QA -> OP: Provide input on environment needs
OP -> TS: Collaborate on training and docs plan

PM -> PD: Refine resource assignment and schedule
PD -> IRB: Request partial re-check if scope changes
alt IRBApprovesAdditionalScope
    IRB -> PD: Additional scope accepted
else IRBRequiresFurtherChanges
    IRB -> PD: Must revise approach
    return
end

PD -> QA: Deliver code increments for smoke/integration tests
QA -> PD: Integration test results,\nLog issues
PD -> PD: Fix code issues, rebuild
loop Iteration
    PD -> QA: Provide updated code
    QA -> PD: Re-test & accept
end

PM -> IRB: Request gate sign-off for major readiness
IRB -> PM: Ethical readiness sign-off
PM -> TS: Prepare user training materials
TS -> PD: Confirm final product doc
PD -> QA: Provide final user-facing doc for QA check
QA -> PD: Approves documentation
PD -> OP: Coordinate final environment checks

PM -> IRB: Request final pre-deployment review
alt IRBFinalApproval
    IRB -> PM: Deployment clearance
else IRBRejectForRevisions
    IRB -> PM: Must re-address concerns
    return
end

PM -> OP: Initiate Deployment
OP -> QA: Final verification in staging
QA -> OP: Confirms staging test pass
OP -> OP: Release code to production
OP -> PD: Notify Dev of production push
TS -> TS: Begin user training classes
PD -> IRB: Confirm production rollout success

note right
    Post-Deployment:
    - Monitor system performance & model drift
    - IRB re-check if major incidents or new features
end note

alt System or model drift found
    QA -> PD: Found significant drift
    PD -> IRB: Request re-validation
    IRB -> PD: Re-approval after review
end

alt Retirement
    PD -> IRB: Request EOL approval
    IRB -> PD: Provide final acceptance
    PD -> OP: Decommission model
end
@enduml

PlantUML version 1.2022.7(Mon Aug 22 17:01:30 UTC 2022)
(GPL source distribution)
Java Runtime: OpenJDK Runtime Environment
JVM: OpenJDK 64-Bit Server VM
Default Encoding: UTF-8
Language: en
Country: null
--></g></svg>